<?xml version="1.0" encoding="UTF-8" standalone="no"?>
<svg
   xmlns:dc="http://purl.org/dc/elements/1.1/"
   xmlns:cc="http://creativecommons.org/ns#"
   xmlns:rdf="http://www.w3.org/1999/02/22-rdf-syntax-ns#"
   xmlns:svg="http://www.w3.org/2000/svg"
   xmlns="http://www.w3.org/2000/svg"
   xmlns:sodipodi="http://sodipodi.sourceforge.net/DTD/sodipodi-0.dtd"
   xmlns:inkscape="http://www.inkscape.org/namespaces/inkscape"
   version="1.1"
   x="0px"
   y="0px"
   viewBox="0 0 100 100"
   xml:space="preserve"
   id="svg38"
   sodipodi:docname="clapper.svg"
   width="100"
   height="100"
   inkscape:version="1.0.2-2 (e86c870879, 2021-01-15)"><metadata
     id="metadata44"><rdf:RDF><cc:Work
         rdf:about=""><dc:format>image/svg+xml</dc:format><dc:type
           rdf:resource="http://purl.org/dc/dcmitype/StillImage" /><dc:title></dc:title></cc:Work></rdf:RDF></metadata><defs
     id="defs42" /><sodipodi:namedview
     pagecolor="#000000"
     bordercolor="#666666"
     borderopacity="1"
     objecttolerance="10"
     gridtolerance="10"
     guidetolerance="10"
     inkscape:pageopacity="0"
     inkscape:pageshadow="2"
     inkscape:window-width="2367"
     inkscape:window-height="1417"
     id="namedview40"
     showgrid="false"
     inkscape:zoom="4"
     inkscape:cx="126.96366"
     inkscape:cy="66.445743"
     inkscape:window-x="2105"
     inkscape:window-y="-8"
     inkscape:window-maximized="1"
     inkscape:current-layer="svg38"
     inkscape:document-rotation="0" /><rect width="100%" height="100%" x="0" y="0" fill="black" /><path
     id="path2"
     style="fill:#ffffff;stroke-width:1"
     d="M 88.480469 1.1035156 C 87.998449 1.1132957 87.51779 1.1664412 86.998047 1.2558594 C 86.49507 1.3452775 86.00493 1.4340194 85.501953 1.5234375 C 83.065309 1.9593509 80.616332 2.3961178 78.179688 2.8320312 L 66.578125 4.9101562 C 61.861318 5.7596286 57.132823 6.5977933 52.416016 7.4472656 C 47.475664 8.3302697 42.536055 9.213241 37.595703 10.107422 C 33.013023 10.93454 28.430336 11.751008 23.847656 12.578125 C 20.203867 13.226407 16.559805 13.884922 12.916016 14.533203 C 10.837045 14.902053 8.7586591 15.283494 6.6796875 15.652344 C 6.2773059 15.719404 5.8736263 15.774947 5.4824219 15.886719 C 2.5875098 16.736192 0.6886019 19.306144 0.50976562 22.279297 C 0.45387933 23.106415 0.66524241 23.945237 0.81054688 24.75 C 1.5594238 28.919121 2.3091754 33.076973 3.046875 37.246094 C 3.0786556 37.415589 3.1061279 37.589081 3.1367188 37.759766 L 3.1367188 41.974609 L 3.1367188 53.162109 L 3.1367188 67.345703 L 3.1367188 80.871094 L 3.1367188 90.058594 L 3.1367188 91.914062 C 3.1590738 95.747865 6.1765045 98.821609 10.021484 98.888672 C 11.116856 98.911032 12.222987 98.888672 13.318359 98.888672 L 21.791016 98.888672 L 33.783203 98.888672 L 47.800781 98.888672 L 62.207031 98.888672 L 75.408203 98.888672 L 85.791016 98.888672 L 91.783203 98.888672 L 92.621094 98.888672 C 96.466074 98.810432 99.482964 95.725839 99.494141 91.880859 C 99.505321 89.936014 99.494141 87.99172 99.494141 86.046875 L 99.494141 74.142578 L 99.494141 59.824219 L 99.494141 46.78125 L 99.494141 38.564453 L 99.494141 37.425781 C 99.494141 35.67095 97.953296 33.994025 96.142578 34.072266 C 96.117928 34.073461 96.094848 34.080371 96.070312 34.082031 L 93.75 34.082031 L 87.234375 34.082031 L 77.587891 34.082031 L 65.818359 34.082031 L 52.929688 34.082031 L 44.091797 34.082031 C 46.020967 33.736605 47.949737 33.390936 49.878906 33.042969 C 50.935559 32.854874 51.992175 32.665688 53.048828 32.476562 C 53.209249 32.464621 53.369964 32.446067 53.533203 32.417969 C 56.070442 31.959701 58.609245 31.512956 61.146484 31.054688 L 71.775391 29.142578 C 71.947141 29.111751 72.1012 29.067883 72.263672 29.03125 C 73.054578 28.889192 73.84652 28.747527 74.636719 28.605469 L 84.730469 26.794922 C 87.144758 26.359009 89.570085 25.922783 91.984375 25.498047 C 93.124456 25.296856 94.275935 25.119489 95.416016 24.884766 C 95.460726 24.873586 95.515838 24.861328 95.560547 24.861328 C 96.309424 24.727201 97.214052 23.977818 97.560547 23.318359 C 98.007638 22.480064 98.064143 21.664042 97.896484 20.736328 C 97.147607 16.556027 96.399267 12.365844 95.650391 8.1855469 C 95.549795 7.5931518 95.438487 7.0123171 95.337891 6.4199219 C 95.335239 6.4056455 95.325307 6.3912636 95.322266 6.3769531 C 94.787501 3.8398967 92.547597 1.632695 89.972656 1.2109375 C 89.447325 1.127108 88.962488 1.0937355 88.480469 1.1035156 z M 88.619141 7.7910156 C 88.63518 7.7910156 88.651923 7.7927793 88.667969 7.7929688 C 88.675282 7.7949332 88.682153 7.7987703 88.689453 7.8007812 C 88.699656 7.8064358 88.710571 7.8106103 88.720703 7.8164062 C 88.722292 7.8179956 88.72302 7.8206519 88.724609 7.8222656 C 88.740433 7.8524635 88.756669 7.8821479 88.773438 7.9121094 C 88.801867 8.0127906 88.842179 8.1009759 88.865234 8.2070312 C 89.505509 11.781104 90.144881 15.36301 90.785156 18.939453 C 88.850917 19.28407 86.922348 19.633726 84.986328 19.976562 C 82.742726 20.380887 80.494918 20.781305 78.248047 21.181641 C 79.517877 18.896768 80.788764 16.610257 82.058594 14.332031 C 83.166699 12.339304 84.28963 10.348767 85.392578 8.3457031 L 85.601562 8.3085938 C 86.544443 8.1398677 87.479016 7.9714604 88.419922 7.8027344 C 88.486171 7.7995476 88.553355 7.7910156 88.619141 7.7910156 z M 76.865234 9.8789062 C 76.747612 10.08907 76.631473 10.299772 76.513672 10.509766 C 74.47941 14.164732 72.446371 17.831362 70.412109 21.486328 C 70.186627 21.888976 69.964479 22.295332 69.740234 22.699219 C 68.000549 23.010756 66.264005 23.31844 64.521484 23.632812 C 62.688814 23.959016 60.856108 24.28803 59.023438 24.617188 C 59.146458 24.397355 59.267409 24.176678 59.390625 23.957031 C 61.424888 20.302065 63.459879 16.635435 65.494141 12.980469 C 65.714421 12.587111 65.929312 12.189435 66.148438 11.794922 C 67.271169 11.593933 68.393403 11.392395 69.517578 11.191406 C 71.969883 10.753495 74.418308 10.316818 76.865234 9.8789062 z M 57.640625 13.318359 C 56.368765 15.606888 55.096079 17.895869 53.824219 20.177734 C 52.716555 22.169669 51.581135 24.157903 50.486328 26.160156 C 46.707521 26.833938 42.929198 27.515757 39.150391 28.189453 C 40.420129 25.904746 41.691199 23.619857 42.960938 21.341797 C 44.069064 19.349033 45.190001 17.356617 46.292969 15.353516 C 46.385534 15.336864 46.477735 15.321351 46.570312 15.304688 C 50.263847 14.638811 53.948431 13.982896 57.640625 13.318359 z M 37.767578 16.884766 C 37.649679 17.095427 37.534095 17.307088 37.416016 17.517578 C 35.381753 21.172545 33.348715 24.839174 31.314453 28.494141 C 31.08897 28.896789 30.866823 29.303145 30.642578 29.707031 C 28.902892 30.018569 27.166349 30.326253 25.423828 30.640625 C 23.591158 30.966829 21.758452 31.295842 19.925781 31.625 C 20.048802 31.405168 20.169753 31.18449 20.292969 30.964844 C 22.327232 27.309877 24.362222 23.643248 26.396484 19.988281 C 26.615777 19.596688 26.830675 19.201327 27.048828 18.808594 C 29.651969 18.343433 32.2575 17.878963 34.857422 17.40625 C 35.826583 17.231301 36.798245 17.058678 37.767578 16.884766 z M 18.539062 20.332031 C 17.268249 22.618676 15.997376 24.907511 14.726562 27.1875 C 13.618999 29.179254 12.483388 31.165902 11.388672 33.167969 C 10.646128 33.300136 9.9032015 33.436018 9.1621094 33.566406 C 8.5878307 30.366347 8.0106461 27.163772 7.4394531 23.966797 C 7.363163 23.539572 7.2869796 23.112772 7.2109375 22.685547 C 7.2083225 22.617816 7.2023922 22.54792 7.203125 22.480469 C 7.2045539 22.475138 7.2075309 22.470167 7.2089844 22.464844 C 7.2158626 22.452339 7.2194745 22.438181 7.2265625 22.425781 C 7.2265625 22.425781 7.2285156 22.423828 7.2285156 22.423828 C 7.23106 22.4213 7.2337247 22.418544 7.2363281 22.416016 C 7.262884 22.402036 7.2900344 22.389715 7.3164062 22.375 C 8.0740959 22.151904 8.8966733 22.063563 9.6523438 21.921875 C 11.58601 21.575379 13.52 21.229307 15.464844 20.882812 C 16.48974 20.700785 17.514166 20.515869 18.539062 20.332031 z M 9.8632812 40.789062 L 15.396484 40.789062 L 25.042969 40.789062 L 36.8125 40.789062 L 49.701172 40.789062 L 62.710938 40.789062 L 74.894531 40.789062 L 85.099609 40.789062 L 92.509766 40.789062 C 92.595076 40.789062 92.680315 40.788955 92.765625 40.789062 L 92.765625 42.923828 L 92.765625 56.035156 L 92.765625 71.851562 L 92.765625 85.498047 C 92.765625 87.644083 92.787975 89.801231 92.765625 91.947266 C 92.765625 91.978482 92.760447 92.009799 92.759766 92.041016 C 92.746557 92.065793 92.733727 92.090184 92.720703 92.115234 C 92.719063 92.116803 92.711871 92.12602 92.710938 92.126953 C 92.708409 92.129482 92.705684 92.132267 92.703125 92.134766 C 92.676014 92.148601 92.649851 92.162635 92.623047 92.177734 C 91.91216 92.215207 91.189295 92.193359 90.486328 92.193359 L 84.529297 92.193359 L 75.621094 92.193359 L 64.710938 92.193359 L 52.806641 92.193359 L 40.736328 92.193359 L 29.492188 92.193359 L 20.046875 92.193359 L 13.261719 92.193359 C 12.211055 92.193359 11.160579 92.204539 10.121094 92.193359 C 10.078139 92.193359 10.035142 92.186689 9.9921875 92.185547 C 9.9707303 92.174113 9.9493929 92.163645 9.9277344 92.152344 C 9.9247981 92.149245 9.9116022 92.138165 9.9101562 92.136719 C 9.9053837 92.131946 9.9011558 92.125971 9.8964844 92.121094 C 9.8831441 92.095322 9.8699017 92.07042 9.8554688 92.044922 C 9.8362664 91.587483 9.8417969 91.128134 9.8417969 90.673828 L 9.8417969 86.75 L 9.8417969 73.751953 L 9.8417969 57.935547 L 9.8417969 44.1875 C 9.8417969 43.056896 9.8564641 41.92252 9.8632812 40.789062 z " /></svg>
