<?xml version="1.0" standalone="no"?>
<!DOCTYPE svg PUBLIC "-//W3C//DTD SVG 20010904//EN"
 "http://www.w3.org/TR/2001/REC-SVG-20010904/DTD/svg10.dtd">
<svg   version="1.0"
   xmlns:inkscape="http://www.inkscape.org/namespaces/inkscape"
   xmlns:sodipodi="http://sodipodi.sourceforge.net/DTD/sodipodi-0.dtd"
   xmlns="http://www.w3.org/2000/svg"
   xmlns:svg="http://www.w3.org/2000/svg"
   xmlns:rdf="http://www.w3.org/1999/02/22-rdf-syntax-ns#"
   xmlns:cc="http://creativecommons.org/ns#"
   xmlns:dc="http://purl.org/dc/elements/1.1/"

 width="792.000000pt" height="1046.000000pt" viewBox="0 0 792.000000 1046.000000"
 preserveAspectRatio="xMidYMid meet">
<metadata>
Created by potrace 1.16, written by Peter Selinger 2001-2019
</metadata>  <sodipodi:namedview
     pagecolor="#222"
     bordercolor="#666666"
     inkscape:deskcolor="#444" /><rect width="100%" height="100%" x="0" y="0" fill="black" />
<g transform="translate(0.000000,1046.000000) scale(1.000000,-1.000000)"
fill="#ffffff" stroke="none">
<path d="M433 1038 c-25 -1 -28 -2 -33 -14 l-3 -6 -20 -2 c-55 -3 -117 -4
-203 -3 -73 1 -100 0 -117 -3 -17 -4 -22 -6 -26 -15 -2 -5 -3 -6 -3 -49 0 -25
-1 -45 -1 -45 0 0 -2 -3 -5 -6 -9 -10 -9 -9 -10 -38 -1 -33 0 -247 1 -276 1
-23 2 -27 6 -33 3 -5 8 -17 8 -22 1 -2 1 -10 1 -19 0 -30 4 -41 22 -56 3 -3 4
-4 4 -7 0 -2 1 -7 2 -12 1 -9 1 -16 0 -18 -1 -2 -11 -3 -23 -2 -10 0 -11 0
-13 -2 -7 -5 -6 0 -7 -108 0 -64 0 -115 1 -142 1 -23 1 -50 1 -60 1 -22 2 -25
9 -28 4 -2 5 -2 14 -1 7 1 11 1 14 0 l3 -1 -1 -9 c0 -5 0 -13 0 -17 0 -9 1
-12 6 -16 4 -2 9 -3 21 -1 6 1 14 1 31 0 12 0 23 -1 24 -1 1 -1 3 -3 5 -6 6
-8 2 -8 77 -8 36 -1 92 0 125 0 66 2 62 1 69 9 7 7 3 6 80 7 67 1 77 1 88 4
10 3 19 11 21 20 2 6 4 24 6 43 1 13 1 15 4 19 1 3 3 7 3 8 1 2 2 15 3 30 2
23 2 36 2 96 0 65 0 82 -3 119 -2 25 -3 34 -5 41 -4 13 -7 40 -5 42 0 0 33 1
73 1 74 1 79 1 90 5 3 1 8 6 10 9 0 2 2 8 4 13 2 10 2 12 3 53 0 32 0 46 -1
64 -1 13 -2 32 -2 43 l0 20 -3 0 -4 0 0 27 c0 14 0 44 -1 65 l0 38 4 0 5 0 -1
31 c0 17 0 58 0 92 -1 55 -1 62 -3 74 -1 7 -3 14 -3 15 -6 16 -22 18 -131 17
-44 -1 -69 -1 -70 0 -1 0 -3 4 -4 8 -3 7 -6 10 -10 12 -4 1 -106 2 -129 1z
m121 -21 c4 -5 5 -9 4 -17 0 -4 -1 -13 -2 -20 0 -7 -1 -13 -1 -14 -1 -1 -129
-1 -130 0 -1 0 -2 6 -4 12 -2 10 -2 13 -2 22 1 14 2 18 8 19 3 0 28 1 65 1
l60 -1 2 -2z m-149 -29 c1 -2 4 -10 4 -15 0 -3 1 -7 2 -11 l2 -6 71 -1 c40 0
75 1 77 1 l6 1 0 13 c1 15 1 17 4 17 4 1 183 1 184 1 0 -1 1 -27 1 -58 0 -32
0 -63 1 -70 1 -8 1 -26 1 -43 l-1 -29 4 0 5 0 0 -18 c0 -10 0 -39 1 -65 l0
-47 -3 0 -4 0 0 -20 c0 -21 -1 -40 -2 -43 0 -2 -1 -22 -1 -46 0 -24 -1 -50 -1
-57 l0 -13 -3 -1 c-2 0 -29 0 -60 0 -55 0 -79 1 -81 3 -1 1 0 3 1 7 5 11 5 17
5 44 l1 25 -5 1 c-2 1 -39 1 -80 1 -89 -1 -80 1 -79 -12 1 -5 1 -18 2 -30 0
-12 1 -22 1 -23 3 -6 -2 -11 -19 -18 -10 -5 -11 -5 -11 -14 0 -4 0 -5 2 -6 2
0 68 1 91 2 9 0 38 0 49 0 4 0 5 -2 6 -13 1 -5 2 -11 2 -12 2 -3 4 -21 3 -22
-1 -2 -15 -4 -30 -5 l-15 -1 0 -4 c0 -19 0 -280 0 -281 1 0 6 0 12 0 14 -1 22
-2 29 -3 l5 -1 0 -6 c-1 -4 -1 -11 -2 -15 -2 -16 -3 -26 -4 -32 -1 -5 -1 -5
-5 -6 -9 -2 -31 -3 -83 -3 -34 1 -58 1 -66 0 -8 -1 -17 -1 -21 -2 -8 0 -9 0
-12 6 -2 5 -8 31 -8 35 0 2 0 4 -1 4 -1 0 -1 -1 -1 -3 0 -4 -1 -5 -10 -4 -10
1 -6 1 -97 0 -71 -1 -95 -2 -101 -3 -2 0 -2 -1 -3 -9 -2 -13 -4 -23 -5 -26 -2
-3 -2 -3 -7 -2 -2 0 -7 1 -10 2 -5 1 -12 1 -29 1 -13 0 -27 0 -31 1 l-7 0 0 8
c1 8 2 17 5 33 1 8 4 17 8 25 2 5 2 7 3 18 1 13 2 22 3 33 2 15 1 113 -1 126
-1 1 -1 14 -1 27 -1 20 -2 27 -4 36 -1 6 -3 12 -3 13 -4 7 -5 11 -6 32 0 11
-1 23 -2 27 0 4 -1 10 -1 14 0 8 0 8 2 9 2 1 17 1 47 2 24 0 46 0 48 0 7 2 10
4 12 8 3 6 3 8 -1 10 -3 1 -5 1 -16 1 -18 0 -54 0 -71 0 -12 1 -18 0 -25 -1
-9 -1 -9 -1 -12 1 -1 1 -4 4 -6 6 -3 5 -3 6 -3 13 0 4 0 9 -1 10 0 1 0 14 0
29 l-1 26 -3 4 c-6 10 -11 22 -13 31 -4 23 -4 239 1 260 2 11 2 11 6 13 3 1 5
3 6 3 3 4 4 17 3 52 0 34 1 59 2 61 0 0 4 2 9 3 6 1 16 1 46 1 60 0 78 -1 82
-5 1 0 0 -2 -1 -5 -3 -7 -4 -14 -3 -23 0 -5 0 -15 0 -24 0 -8 1 -15 1 -16 2
-1 11 -1 35 1 28 3 71 4 91 2 8 -1 23 -1 33 -2 l17 0 1 2 c0 2 1 12 1 24 0 16
0 22 -1 26 -2 7 -2 14 -1 16 1 2 10 4 20 5 6 0 11 0 11 1 1 0 7 -1 9 -2z
m-131 -18 c16 0 40 0 53 0 l24 1 2 -3 c2 -1 3 -4 4 -7 0 -6 0 -27 -2 -28 -1
-2 -15 -2 -85 -3 l-71 0 0 7 c-1 10 -1 24 0 26 1 3 6 6 12 7 2 0 10 1 18 0 8
0 28 0 45 0z m331 -427 c1 0 2 -1 2 -2 -1 -1 -1 -10 -2 -20 0 -9 -1 -19 -2
-22 l-1 -4 -7 0 c-4 0 -33 -1 -65 -1 l-57 0 -2 8 c-2 5 -2 14 -3 25 l0 16 2 0
c4 1 133 1 135 0z m-11 -152 c2 -13 2 -40 2 -139 0 -103 0 -112 -2 -120 -1 -3
-1 -3 -4 -3 -1 1 -11 1 -22 1 -10 0 -20 1 -20 1 -1 1 -1 41 -1 132 0 72 0 131
0 131 1 0 23 2 36 2 l11 0 0 -5z m-526 -2 c0 -1 1 -3 2 -5 1 -3 3 -7 4 -10 1
-3 4 -8 6 -12 3 -6 3 -7 4 -19 1 -8 1 -16 2 -18 2 -9 2 -26 2 -92 0 -53 0 -68
-1 -79 -2 -17 -3 -22 -6 -26 -1 -2 -3 -6 -4 -10 -1 -4 -3 -7 -3 -7 0 -1 -1 -3
-2 -5 0 -3 -1 -6 -2 -7 0 -1 -1 -4 -2 -5 l-1 -3 -4 2 c-3 1 -8 1 -14 1 l-9 1
-1 12 c-2 23 -3 261 -2 272 1 3 2 7 2 7 1 1 4 1 7 1 2 0 8 1 12 2 4 1 8 2 8 2
1 0 1 -1 2 -2z m300 -312 c2 -1 4 -3 4 -5 4 -7 6 -23 3 -28 0 -1 -2 -2 -4 -3
-8 -2 -83 -4 -88 -2 -2 1 -2 3 -1 18 0 13 1 18 2 19 1 2 19 3 58 3 20 0 23 -1
26 -2z m-99 -1 c1 0 2 -1 2 -3 1 -5 -1 -32 -2 -33 -1 -2 -66 -2 -78 0 -14 2
-15 2 -15 8 0 3 1 10 2 14 3 11 5 13 16 14 9 1 73 1 75 0z M107 971 c-3 -2 -9
-6 -13 -9 -13 -11 -15 -23 -6 -41 6 -10 10 -16 18 -21 12 -7 18 -7 30 0 10 6
16 13 21 24 5 13 2 24 -8 34 -7 8 -10 10 -19 13 -10 4 -15 4 -23 0z m19 -12
c6 -1 16 -9 20 -15 2 -4 3 -5 2 -8 -1 -8 -10 -21 -18 -26 -8 -5 -17 -2 -26 9
-6 7 -9 13 -9 20 0 5 0 7 3 10 7 9 17 13 28 10z M568 918 c-2 -1 -2 -2 -2 -11
0 -11 -1 -17 -4 -27 -2 -8 -3 -9 -5 -5 -1 3 -2 5 -8 7 -5 3 -7 3 -12 3 -12 -2
-26 -11 -34 -24 -8 -13 -9 -19 -3 -31 6 -15 21 -28 36 -31 7 -2 12 -1 16 4 7
7 10 2 14 -20 1 -7 3 -14 3 -16 l1 -3 19 1 c10 0 30 0 45 0 15 1 28 1 31 2 l4
0 0 11 c0 11 2 22 5 25 1 0 3 1 4 1 3 0 9 -2 11 -3 2 -3 17 1 25 7 9 6 20 20
23 30 1 3 1 5 -1 9 -3 9 -7 15 -16 24 -9 9 -10 10 -18 12 -9 3 -11 3 -19 -1
-5 -3 -6 -3 -8 -1 -1 0 -3 3 -5 6 -3 5 -3 6 -3 17 0 8 0 11 -2 12 0 1 -6 2
-15 2 -18 1 -79 1 -82 0z m80 -14 c3 0 6 -1 6 -2 1 -1 2 -7 2 -13 1 -7 1 -16
2 -20 1 -11 1 -46 0 -59 -1 -14 -3 -24 -4 -27 -2 -4 -7 -4 -42 -4 l-31 0 -1 3
c-2 6 -1 120 1 122 1 2 58 2 67 0z m56 -35 c2 -2 8 -7 13 -12 7 -7 8 -8 8 -13
1 -3 1 -6 0 -8 -3 -5 -10 -13 -17 -18 -5 -4 -7 -4 -12 -4 -6 0 -14 2 -15 4 0
1 0 5 1 9 1 6 1 9 0 14 -1 5 -1 26 1 30 0 1 2 1 8 1 7 0 8 0 13 -3z m-152 0
c1 -2 1 -7 2 -30 l0 -28 -2 0 c-9 -3 -26 4 -34 12 -3 4 -7 11 -8 16 -1 4 -1 5
1 9 3 10 14 19 24 22 6 1 15 1 17 -1z M253 902 c-18 -4 -20 -5 -21 -10 -1 -5
0 -8 7 -19 7 -12 11 -18 19 -24 10 -8 13 -9 20 -9 6 0 8 0 15 4 7 3 21 13 21
15 0 0 2 3 5 6 l4 5 0 14 c0 12 -1 15 -2 16 -1 2 -6 2 -18 2 -10 1 -24 1 -31
1 -10 1 -15 0 -19 -1z m44 -12 c11 -2 15 -5 15 -11 0 -7 -4 -12 -15 -19 -13
-8 -22 -9 -30 -3 -11 7 -23 22 -22 26 1 1 2 3 5 5 2 2 5 3 10 3 8 1 29 0 37
-1z M75 847 c-17 -2 -19 -4 -21 -24 0 -8 -1 -42 0 -79 0 -54 0 -108 0 -142 0
-5 0 -6 3 -7 8 -4 20 -5 50 -5 24 -1 48 0 49 1 0 1 -1 247 -2 254 l0 4 -34 0
c-21 0 -38 -1 -45 -2z m68 -9 c0 -1 1 -26 1 -56 0 -49 0 -55 -1 -56 -3 0 -76
-1 -77 0 0 1 0 19 -1 41 0 22 0 44 0 50 0 14 1 17 6 19 2 1 8 2 13 2 14 1 58
1 59 0z m1 -176 c0 -54 0 -57 -1 -58 0 -1 -10 -1 -22 -1 -32 -1 -52 1 -53 5
-1 1 -1 18 -1 38 -1 20 -1 41 -1 46 -1 5 -1 12 0 14 1 4 1 5 5 5 2 0 20 1 39
1 l34 0 0 -50z M206 791 c-13 -2 -14 -2 -14 -4 -2 -9 -3 -33 -3 -56 1 -24 3
-55 3 -61 1 -6 2 -6 32 -6 14 0 27 1 28 1 1 1 1 13 0 44 0 23 0 51 0 61 l0 19
-3 0 c-2 1 -8 1 -14 1 -7 1 -14 1 -17 1 -3 1 -9 0 -12 0z m29 -15 l4 -2 0 -12
c0 -6 0 -26 0 -43 1 -32 1 -37 -3 -40 -2 -2 -12 -2 -21 -2 -12 2 -11 -1 -11
50 0 46 0 47 6 50 5 3 21 2 25 -1z M421 417 c-2 -1 -1 -6 2 -9 1 -2 6 -6 11
-10 5 -3 13 -10 18 -13 5 -4 11 -8 12 -10 2 -1 6 -4 9 -7 9 -8 15 -12 18 -12
3 0 5 4 5 8 -1 3 -3 5 -17 16 -18 13 -27 20 -32 25 -7 6 -19 13 -22 13 -2 0
-4 0 -4 -1z M225 383 c-3 -1 -7 -3 -9 -4 -11 -5 -24 -23 -26 -35 0 -6 2 -13 7
-25 5 -9 10 -15 13 -15 4 0 31 18 49 32 4 3 10 7 12 9 5 4 6 7 3 12 -5 11 -30
28 -40 28 -1 0 -5 -1 -9 -2z m18 -14 c7 -3 13 -8 16 -11 2 -3 2 -3 1 -6 -2 -2
-11 -9 -22 -17 -7 -5 -21 -13 -25 -13 -2 -1 -4 0 -6 2 -3 4 -4 6 -4 16 0 8 0
10 3 13 4 7 9 12 15 15 9 5 14 5 22 1z M387 362 c-8 -1 -14 -4 -21 -8 -5 -5
-7 -7 -11 -14 -2 -5 -7 -24 -7 -27 0 -4 21 -8 73 -13 3 0 8 0 11 0 l5 0 -1 6
c0 28 -4 41 -16 48 -13 8 -18 10 -33 8z m15 -14 c12 -3 20 -11 24 -23 1 -4 1
-5 0 -8 l-2 -2 -16 0 c-9 0 -17 0 -19 1 -2 0 -7 2 -12 3 -10 1 -13 3 -14 8 0
5 5 14 9 17 8 6 20 7 30 4z M302 278 c-73 0 -132 -1 -133 -1 -1 -1 -2 -3 -3
-5 -2 -5 -3 -30 -1 -46 1 -15 1 -13 1 -20 -1 -6 0 -10 4 -11 1 0 7 0 13 0 16
1 49 1 55 1 3 -1 11 -1 17 0 6 0 18 1 26 1 8 1 23 1 33 2 28 1 38 0 40 -1 2
-3 6 -16 8 -28 2 -6 4 -14 5 -18 4 -11 4 -12 5 -19 1 -4 2 -9 2 -10 3 -6 6
-16 6 -19 l0 -2 8 -1 c23 0 54 -1 68 0 l16 1 -1 7 c0 3 -1 9 -2 12 0 2 -1 11
-2 19 -1 7 -1 15 -2 17 0 1 -1 6 -1 11 -1 4 -2 12 -3 18 0 5 -1 11 -1 13 -1 1
-1 5 -1 8 -1 3 -1 6 -2 7 0 1 -1 4 -1 8 -1 3 -2 8 -2 11 -1 4 -1 9 -2 12 -2
35 -1 34 -12 34 -4 0 -66 -1 -138 -1z m137 -12 c1 -2 2 -3 2 -13 0 -6 2 -19 3
-29 2 -11 4 -24 4 -29 1 -6 2 -12 2 -13 1 -2 1 -8 2 -14 1 -6 2 -13 2 -15 3
-11 6 -38 4 -40 -2 -1 -59 -2 -64 0 -4 1 -6 4 -8 11 0 3 -2 11 -4 17 -2 6 -3
12 -3 13 0 1 -2 9 -4 16 -2 8 -5 19 -7 25 -1 6 -3 12 -4 13 l-1 2 -70 0 c-39
0 -73 -1 -76 -1 -4 -1 -14 -1 -22 -1 -14 0 -16 0 -18 1 -1 2 -1 5 -2 25 0 25
0 28 3 30 4 2 23 3 143 3 100 0 116 0 118 -1z M259 184 c-2 -1 -5 -1 -10 0 -5
0 -6 0 -7 -2 -2 -4 -2 -16 0 -23 4 -10 6 -16 8 -19 2 -5 9 -11 15 -14 5 -2 7
-2 16 -2 17 0 28 4 37 15 2 2 5 7 6 9 3 6 4 19 2 28 l-2 7 -11 0 c-6 0 -13 0
-15 1 -2 0 -11 1 -20 1 -12 1 -16 1 -19 -1z m38 -12 c15 -2 20 -6 18 -15 -2
-9 -10 -17 -23 -21 -10 -3 -18 -3 -23 1 -10 6 -15 14 -16 22 -1 4 2 12 6 14 3
1 25 1 38 -1z M61 368 c-5 -12 -7 -27 -8 -57 0 -12 0 -27 -1 -33 0 -22 0 -87
1 -105 2 -40 3 -52 4 -53 0 -1 6 -1 8 0 1 1 1 1 0 4 -2 3 -2 10 -2 91 -1 93 0
134 2 144 1 6 1 11 -2 11 0 0 -1 -1 -2 -2z"/>
</g>
</svg>
