<?xml version="1.0" encoding="UTF-8" standalone="no"?>
<svg
   version="1.0"
   width="1038.000000px"
   height="970.000000px"
   viewBox="0 0 1038.000000 970.000000"
   preserveAspectRatio="xMidYMid meet"
   id="svg1"
   sodipodi:docname="disco_bridge.svg"
   inkscape:version="1.3.1 (91b66b0783, 2023-11-16)"
   xmlns:inkscape="http://www.inkscape.org/namespaces/inkscape"
   xmlns:sodipodi="http://sodipodi.sourceforge.net/DTD/sodipodi-0.dtd"
   xmlns="http://www.w3.org/2000/svg"
   xmlns:svg="http://www.w3.org/2000/svg">
  <sodipodi:namedview
     pagecolor="#222"
     bordercolor="#666666"
     inkscape:deskcolor="#444"
     id="namedview1"
     borderopacity="1.0"
     inkscape:showpageshadow="2"
     inkscape:pageopacity="0.0"
     inkscape:pagecheckerboard="0"
     inkscape:zoom="7.103142749"
     inkscape:cx="442.4098052"
     inkscape:cy="561.7231894"
     inkscape:window-width="2418"
     inkscape:window-height="1417"
     inkscape:window-x="1672"
     inkscape:window-y="4"
     inkscape:window-maximized="1"
     inkscape:current-layer="svg1" />
  <defs
     id="defs1" />
  <metadata
     id="metadata1">
Created by potrace 1.16, written by Peter Selinger 2001-2019
</metadata>
  <rect
     width="100%"
     height="100%"
     x="0"
     y="0"
     fill="black"
     id="rect1" />
  <path
     style="fill:none;stroke:#ffffff;stroke-width:3.729;stroke-linecap:butt;stroke-linejoin:round;stroke-miterlimit:5;stroke-dasharray:none;paint-order:fill markers stroke"
     d="m 336.9114051,374.9413946 -61.687524,-59.683544"
     id="path77" />
  <path
     id="path84-9"
     style="fill:none;stroke:#ffffff;stroke-width:9.19763;stroke-miterlimit:5;stroke-dasharray:none;paint-order:fill markers stroke"
     d="m 1026.939959,485.2907285 v 130.3014893 l -42.8983589,42.898164 h -61.759255 l -42.898359,-42.898164 V 485.2907285 l 42.898359,-42.8981541 h 61.759255 z" />
  <path
     id="path85-6"
     style="fill:#000000;stroke:#ffffff;stroke-width:5.59351;stroke-miterlimit:5;stroke-dasharray:none;paint-order:fill markers stroke"
     d="m 928.2745031,471.8017503 -34.568653,34.7199639 v 4.406266 h -14.320414 v 79.0269855 h 14.320414 v 4.4062661 l 34.568653,34.719969 h 49.77384 l 34.5721019,-34.719969 v -4.4062661 h 14.320414 v -79.0269855 h -14.320414 v -4.406266 l -34.5721019,-34.7199639 z" />
  <path
     id="path86-0"
     style="fill:none;stroke:#ffffff;stroke-width:9.19763;stroke-miterlimit:5;stroke-dasharray:none;paint-order:fill markers stroke"
     d="m 316.5434471,136.6902693 -112.844957,65.1507369 -58.600268,-15.7018088 -30.879602,-53.4848094 15.701859,-58.59996787 112.845006,-65.150756901 58.600268,15.701823801 30.879603,53.4848094 z" />
  <path
     id="path87-4"
     style="fill:none;stroke:#ffffff;stroke-width:5.59351;stroke-miterlimit:5;stroke-dasharray:none;paint-order:fill markers stroke"
     d="m 278.8926371,44.49944183 -47.352862,-12.577213 -3.816018,2.203133 -7.160207,-12.4017881 -68.439736,39.5134853 7.160207,12.4017881 -3.816017,2.2031329 -12.78421,47.29718197 24.886945,43.1051558 47.354562,12.5802022 3.816018,-2.203133 7.160207,12.4017931 68.439735,-39.5135002 -7.160207,-12.4017831 3.816018,-2.203133 12.78246,-47.30016617 z" />
  <path
     style="fill:none;stroke:#ffffff;stroke-width:9.3225;stroke-linecap:butt;stroke-linejoin:miter;stroke-miterlimit:5;stroke-dasharray:none;paint-order:fill markers stroke"
     d="m 388.8541361,198.3691197 h 181.09829"
     id="path88-8" />
  <path
     style="fill:none;stroke:#ffffff;stroke-width:9.3225;stroke-linecap:butt;stroke-linejoin:miter;stroke-miterlimit:5;stroke-dasharray:none;paint-order:fill markers stroke"
     d="m 573.8540721,197.9479631 163.593645,94.450356"
     id="path89-4" />
  <path
     style="fill:none;stroke:#ffffff;stroke-width:9.3225;stroke-linecap:butt;stroke-linejoin:miter;stroke-miterlimit:5;stroke-dasharray:none;paint-order:fill markers stroke"
     d="m 388.8541361,902.5138308 h 181.09829"
     id="path90-0" />
  <path
     style="fill:none;stroke:#ffffff;stroke-width:9.3225;stroke-linecap:butt;stroke-linejoin:miter;stroke-miterlimit:5;stroke-dasharray:none;paint-order:fill markers stroke"
     d="m 573.8540721,902.9349778 163.593645,-94.450351"
     id="path91-7" />
  <path
     id="path92"
     style="fill:none;stroke:#ffffff;stroke-width:3.729;stroke-linejoin:bevel;stroke-dasharray:none;paint-order:fill markers stroke;stop-color:#ffffff"
     d="m 407.5325791,674.2356238 c 44.227617,-76.604079 44.227617,-170.9842129 0,-247.588302" />
  <path
     style="fill:none;stroke:#ffffff;stroke-width:1.86451;stroke-linecap:square;stroke-linejoin:round;stroke-miterlimit:5;stroke-dasharray:none;paint-order:fill markers stroke"
     id="path94-3" />
  <path
     style="color:#ffffff;fill:none;stroke:#ffffff;stroke-width:9.3225;stroke-miterlimit:5;stroke-dasharray:none;paint-order:fill markers stroke"
     d="m 479.8421681,352.1166691 -22.478914,13.9210371 29.666664,47.8974374 c 6.921219,11.1742291 18.986763,15.5148619 28.726907,15.5148619 h 49.057773 v -26.4375707 h -49.057773 c -2.769288,0 -4.769273,-0.6052942 -6.251392,-2.9983283 z"
     id="path95-1" />
  <path
     style="color:#ffffff;fill:none;stroke:#ffffff;stroke-width:9.3225;stroke-miterlimit:5;stroke-dasharray:none;paint-order:fill markers stroke"
     d="m 515.7568251,671.4329458 c -9.740144,0 -21.805688,4.340632 -28.726907,15.514851 l -29.666664,47.897448 22.478914,13.921022 29.663265,-47.897427 c 1.482119,-2.393035 3.482104,-2.998329 6.251392,-2.998329 h 49.057773 v -26.437565 z"
     id="path96-2" />
  <path
     id="path97-9"
     style="fill:none;stroke:#ffffff;stroke-width:3.729;stroke-linecap:butt;stroke-linejoin:miter;stroke-miterlimit:5;stroke-dasharray:none;paint-order:fill markers stroke"
     d="m 407.5325791,426.6473218 h 70.235473 c 44.227617,76.6040891 44.227617,170.984223 0,247.588302 h -70.235473" />
  <path
     id="path98-3"
     style="fill:none;stroke:#ffffff;stroke-width:7.45803;stroke-linecap:butt;stroke-linejoin:round;stroke-miterlimit:5;stroke-dasharray:none;paint-order:fill markers stroke"
     d="m 560.1214061,530.2490043 c 1.428633,1.7026618 2.672312,3.6027227 3.702547,5.6575389 v 29.0698481 c -1.029235,2.0545713 -2.271415,3.9546322 -3.699048,5.6575389 h 17.536437 c 6.028448,5.299e-4 11.599115,-3.8486094 14.613089,-10.0971712 3.013224,-6.2470972 3.013224,-13.9434863 0,-20.1905835 -3.013724,-6.2485668 -8.584641,-10.0977061 -14.613089,-10.0971712 z" />
  <path
     style="fill:none;stroke:#ffffff;stroke-width:3.729;stroke-linecap:butt;stroke-linejoin:round;stroke-miterlimit:5;stroke-dasharray:none;paint-order:fill markers stroke"
     d="m 322.0832211,391.1189109 -61.687523,-59.683539"
     id="path99" />
  <path
     style="fill:none;stroke:#ffffff;stroke-width:3.729;stroke-linecap:butt;stroke-linejoin:round;stroke-miterlimit:5;stroke-dasharray:none;paint-order:fill markers stroke"
     d="m 336.9114051,725.9415608 -61.687524,59.683539"
     id="path100-9" />
  <path
     style="fill:none;stroke:#ffffff;stroke-width:3.729;stroke-linecap:butt;stroke-linejoin:round;stroke-miterlimit:5;stroke-dasharray:none;paint-order:fill markers stroke"
     d="m 322.0832211,709.7640348 -61.687523,59.683539"
     id="path101-6" />
  <path
     id="path78"
     style="fill:none;stroke:#ffffff;stroke-width:18.3953;stroke-linejoin:round;stroke-miterlimit:5;stroke-dasharray:none;paint-order:fill markers stroke"
     d="m 310.6015261,145.2725304 -97.688707,56.4001541 7.456281,12.9124167 c -8.543601,6.5373274 -16.835467,13.3972319 -24.857653,20.5648471 l 13.13282,14.581977 -31.735582,31.731963 -22.830074,27.3360344 v 0 c -52.198515,69.5612018 -79.94087495,154.6750107 -80.31137995,241.6421376 0.369905,86.9659525 28.76419695,173.2109945 80.96201295,242.7712465 v 0 l 22.175992,26.196603 31.739031,31.738861 -13.13282,14.585411 c 8.022186,7.167611 16.314052,14.027515 24.857653,20.564848 l -7.456281,12.912401 97.688707,56.400159 7.456281,-12.912411 c 9.933144,4.130737 20.019798,7.882246 30.238118,11.24629 l 6.065539,-18.664646 43.346793,11.614626 h 163.387099 l 45.787465,-12.268688 141.489934,-81.68795 33.529071,-33.528901 12.640496,-21.897049 46.403707,26.792129 56.400434,-97.688197 -46.403707,-26.79213 12.647445,-21.903947 12.268743,-45.787246 V 468.7472164 l -12.268743,-45.7838064 -12.647445,-21.9039425 46.403707,-26.7921344 -56.400434,-97.6881976 -46.400257,26.7921344 -12.647395,-21.9039375 -33.518774,-33.5185732 -141.493333,-81.6913997 -45.797813,-12.2721215 h -163.369852 l -43.360591,11.6146207 -6.062089,-18.6612021 c -10.21947,3.3639842 -20.307274,7.1154387 -30.241567,11.2462955 z" />
  <path
     id="path79"
     style="color:#ffffff;fill:#ffffff;stroke:#ffffff;stroke-width:9.3225;stroke-linecap:square;stroke-linejoin:miter;stroke-miterlimit:5;stroke-dasharray:none;paint-order:fill markers stroke"
     d="m 396.2039441,154.3914234 -42.771941,11.4562915 22.919551,91.5572955 45.777168,-12.2652432 z m 166.402623,0 -25.928227,90.7483438 45.777168,12.2652432 22.919551,-91.5538514 z m -353.284174,94.6623414 -31.308692,31.3051179 65.626059,67.8323317 33.511875,-33.511685 z m 540.162226,0 -67.829192,65.6257646 33.508375,33.5082409 65.629559,-67.8254485 z m 114.511778,175.4208462 -91.554337,22.9194512 12.265294,45.7734841 90.748843,-25.9246477 z m -79.289043,183.2385288 -12.268743,45.776934 91.557786,22.919441 11.4598,-42.768288 z m -541.067594,144.979771 -65.626059,67.825449 31.308692,31.308557 67.829242,-65.62576 z m 471.524042,0 -33.508375,33.508246 67.829192,65.62576 31.305293,-31.305103 z m -338.812248,90.78276 -22.919551,91.553862 42.768492,11.463169 25.928227,-90.748348 z m 206.103954,0 -45.777168,12.265243 25.928227,90.748339 42.768492,-11.45972 z" />
  <path
     id="path102"
     style="font-variation-settings:normal;fill:none;fill-opacity:1;fill-rule:nonzero;stroke:#ffffff;stroke-width:18.3953;stroke-linecap:butt;stroke-linejoin:bevel;stroke-miterlimit:4;stroke-dasharray:none;stroke-dashoffset:0;stroke-opacity:1;paint-order:fill markers stroke;stop-color:#ffffff"
     d="m 95.35947415,309.3828077 c -52.198466,69.5611218 -80.588059,154.0933404 -80.958613,241.0603773 0.369904,86.9658568 28.760847,171.4967458 80.958613,241.0569328 H 153.4983111 C 102.1058381,722.2361848 74.13693615,636.7048888 73.76868115,550.443185 74.13858615,463.7150116 101.7424311,378.8379767 153.6635681,309.3828077 Z" />
  <path
     id="path104"
     style="fill:none;stroke:#ffffff;stroke-width:9.3225;stroke-linecap:round;stroke-linejoin:round;stroke-dasharray:none;paint-order:fill markers stroke;stop-color:#ffffff"
     d="m 364.7216471,354.7554299 c -42.830826,27.7860736 -63.400282,54.671389 -63.400282,90.5236516 v 65.4034019 h 36.59843 v -65.4034019 c 0,-17.9482756 29.775487,-53.6163155 69.612784,-18.6317597 z" />
  <path
     id="path105"
     style="fill:none;stroke:#ffffff;stroke-width:9.3225;stroke-linecap:round;stroke-linejoin:round;stroke-dasharray:none;paint-order:fill markers stroke;stop-color:#ffffff"
     d="m 364.7216471,746.1274858 c -42.830826,-27.786063 -63.400282,-54.671369 -63.400282,-90.523651 v -65.4033973 h 36.59843 v 65.4033973 c 0,17.948285 29.775487,53.616315 69.612784,18.631769 z" />
  <path
     style="fill:none;stroke:#ffffff;stroke-width:1.89588;stroke-linecap:square;stroke-linejoin:round;stroke-miterlimit:5;stroke-dasharray:none;paint-order:fill markers stroke"
     id="path94-3-9"
     sodipodi:type="arc"
     sodipodi:cx="534.8596802"
     sodipodi:cy="550.4414673"
     sodipodi:rx="50.11998749"
     sodipodi:ry="50.1197319"
     sodipodi:start="2.14675498"
     sodipodi:end="4.136430327"
     sodipodi:arc-type="arc"
     sodipodi:open="true" />
</svg>
