<?xml version="1.0" encoding="UTF-8" standalone="no"?>
<svg
   version="1.0"
   width="891.000000pt"
   height="2113.000000pt"
   viewBox="0 0 891.000000 2113.000000"
   preserveAspectRatio="xMidYMid meet"
   id="svg1"
   sodipodi:docname="picard.svg"
   inkscape:version="1.3.1 (91b66b0783, 2023-11-16)"
   xmlns:inkscape="http://www.inkscape.org/namespaces/inkscape"
   xmlns:sodipodi="http://sodipodi.sourceforge.net/DTD/sodipodi-0.dtd"
   xmlns="http://www.w3.org/2000/svg"
   xmlns:svg="http://www.w3.org/2000/svg">
  <defs
     id="defs1" />
  <metadata
     id="metadata1">
Created by potrace 1.16, written by Peter Selinger 2001-2019
</metadata>
  <sodipodi:namedview
     pagecolor="#222"
     bordercolor="#666666"
     inkscape:deskcolor="#444"
     id="namedview1"
     borderopacity="1.0"
     inkscape:showpageshadow="2"
     inkscape:pageopacity="0.0"
     inkscape:pagecheckerboard="0"
     inkscape:document-units="pt"
     inkscape:zoom="0.215344635"
     inkscape:cx="97.51810161"
     inkscape:cy="2196.479146"
     inkscape:window-width="1727"
     inkscape:window-height="1057"
     inkscape:window-x="-8"
     inkscape:window-y="-8"
     inkscape:window-maximized="1"
     inkscape:current-layer="svg1" />
  <rect
     width="100%"
     height="100%"
     x="0"
     y="0"
     fill="black"
     id="rect1" />
  <path
     d="m 116.5658164,7.786929202 c -1.192106,1.390790352 -3.9736867,14.106587858 -6.1592144,28.411860048 -2.384212,14.10658786 -5.1657927,30.59738774 -6.1592144,36.55791782 -1.192106,5.96053008 -1.9868434,15.29869388 -1.9868434,20.86185528 -0.1986843,5.56316141 -1.3907903,15.89474685 -2.980265,23.04738295 -1.58947469,7.1526361 -3.57631805,25.431595 -4.17237106,40.7302889 -0.596053,15.2986939 -2.7815807,36.3592335 -4.76842406,46.690819 -2.1855277,10.3315854 -5.16579274,32.7829154 -6.75526742,49.8697683 -1.78815903,17.0868529 -3.97368672,35.1671275 -5.16579274,40.1342359 -0.99342168,4.9671084 -2.7815807,23.047383 -3.97368672,39.9355515 -0.99342168,17.0868529 -3.17894938,36.5579178 -4.76842406,43.3131853 -1.58947469,6.9539517 -3.37763372,22.2526456 -4.17237106,34.3723901 -0.59605301,11.9210601 -2.58289637,29.6039661 -4.17237106,39.1408142 -1.58947468,9.5368481 -3.77500238,27.815807 -4.76842406,40.7302889 -0.99342168,12.9144818 -3.17894938,37.9487081 -4.9671084,55.631614 -1.58947469,17.4842216 -3.77500238,51.0618744 -4.9671084,74.506626 -2.1855277,49.075031 -5.16579274,91.9908476 -7.94737344,111.8592812 -0.99342168,7.5500048 -1.78815902,36.1605492 -1.58947469,63.5789875 0,30.2000191 -0.79473734,55.0355611 -2.18552769,63.5789875 -1.39079036,7.5500048 -3.17894938,42.9158166 -4.17237106,78.4803128 -1.19210602,35.5644961 -3.97368672,102.1237486 -6.35789875,148.0198306 -3.77500239,75.897416 -4.37105539,108.282963 -4.76842407,354.651539 -0.596053,255.508057 0.39736868,338.955478 5.16579274,412.269998 2.38421203,36.160549 5.76184574,119.409286 7.7486891,186.763275 0.79473735,27.219755 2.1855277,50.863191 2.98026504,52.452665 1.39079036,2.185528 7.74868911,2.582897 35.76318048,1.390791 44.90265998,-1.788159 133.71455818,-6.953952 141.46324728,-8.146058 3.3776337,-0.596053 28.0144913,-1.986844 54.6381924,-2.980265 133.5158737,-5.364477 174.6435313,-7.748689 229.2817237,-12.914482 17.4842216,-1.589475 57.2210888,-3.775002 88.4145295,-4.967109 31.1934408,-1.192106 64.3737249,-2.582896 73.910573,-3.377633 l 17.2855372,-1.192106 1.3907904,-6.159215 c 0.596053,-3.377633 5.1657927,-18.080274 9.9342168,-32.782915 4.7684241,-14.702641 8.7421108,-30.398704 8.7421108,-34.968443 0,-4.56974 2.7815807,-17.682906 6.1592144,-29.007913 5.5631614,-18.875012 21.6565926,-85.036896 27.6171227,-113.846125 2.1855277,-10.728954 1.9868434,-12.119744 -0.9934217,-14.503956 -3.3776337,-2.384212 -2.7815807,-5.96053 10.3315855,-59.605301 13.3118505,-54.836877 14.1065878,-57.221089 18.4776432,-57.221089 5.3644771,0 4.5697398,2.384212 12.9144819,-38.544761 l 5.1657927,-24.438173 0.9934217,-173.252741 0.7947373,-173.054057 -5.364477,-18.278959 c -4.5697398,-15.894747 -5.9605301,-18.477643 -9.7355325,-18.477643 -3.7750024,0 -5.3644771,-4.768424 -18.6763276,-56.82372 -11.9210601,-46.690819 -13.9079035,-57.221089 -11.7223758,-58.611879 1.5894747,-0.993422 3.3776337,-1.788159 3.9736867,-1.788159 0.7947374,0 0.1986844,-4.172372 -1.192106,-9.536849 -10.1329011,-38.346076 -10.1329011,-37.750023 8.9407951,-79.27505 8.7421108,-18.875012 15.8947469,-34.968443 15.8947469,-35.564496 0,-0.794737 6.1592144,-15.298694 13.7092192,-32.3855466 12.9144818,-29.2065974 18.0802746,-43.1145009 21.0605396,-56.8237201 0.7947373,-3.1789493 2.1855277,-33.5776528 2.980265,-67.5526742 1.1921061,-38.7434455 2.9802651,-68.1487273 4.9671084,-79.4737344 1.5894747,-9.9342168 3.5763181,-34.3723901 3.9736868,-54.6381924 0.596053,-20.2658023 1.9868433,-41.7237106 2.980265,-47.6842406 0.9934217,-5.9605301 2.7815807,-42.7171323 3.9736867,-81.4605778 1.788159,-59.6053008 2.5828964,-73.1158357 6.1592144,-87.4211078 2.3842121,-9.9342168 4.5697398,-26.8223854 5.1657928,-41.7237106 0.596053,-15.1000095 2.384212,-30.3987034 4.768424,-38.9421299 2.1855277,-7.7486891 3.7750024,-20.4644866 3.7750024,-28.8092287 0,-8.1460578 2.1855277,-25.431595 4.9671084,-38.5447612 3.3776337,-16.4907999 4.9671084,-30.3987034 4.9671084,-44.9026599 0,-15.4973782 0.9934217,-24.0408047 3.7750024,-32.3855468 2.5828964,-6.9539517 4.7684241,-21.2592239 5.9605301,-37.5513395 1.9868433,-28.2131757 6.3578987,-67.1553055 11.3250071,-100.7329583 1.5894747,-11.5236915 5.1657928,-38.3460769 7.9473735,-59.60530083 2.5828963,-21.25922395 5.364477,-41.72371056 5.9605301,-45.30002861 0.7947373,-3.37763371 0.3973686,-6.35789875 -0.3973687,-6.35789875 -0.9934217,-0.19868434 -10.3315855,-0.39736867 -20.663171,-0.79473734 C 766.0649108,39.17905429 718.9767232,36.79484226 695.3332872,34.21194589 677.8490656,32.42378687 648.2450996,31.23168085 615.8595528,31.23168085 577.1161073,31.03299651 556.0555677,30.03957483 531.41871,27.25799413 512.1463294,24.8737821 473.4028839,22.48957007 437.0436504,21.29746405 403.2673133,20.10535803 356.5764943,17.91983034 333.7277957,16.33035565 310.6804127,14.74088096 271.7382828,12.95272194 247.3001095,12.35666893 222.6632519,11.56193159 187.0987557,9.773772562 168.2237438,8.184297874 126.1026646,4.806664162 119.1487128,4.806664162 116.5658164,7.786929202 Z M 181.33691,35.60273624 c 3.1789493,2.78158071 2.980265,6.15921442 -1.3907904,23.64343599 -1.9868433,8.14605777 -4.3710554,22.45132996 -4.9671084,31.98817809 -0.7947373,9.53684818 -2.7815807,22.65001428 -4.5697397,28.80922868 -1.788159,6.3578988 -2.9802651,13.7092192 -2.9802651,16.4907999 0.5960531,10.3315855 -3.7750023,53.8434551 -6.556583,62.9829345 -1.3907904,5.1657928 -3.1789494,16.4907999 -3.9736868,25.0342264 -0.7947373,8.5434264 -2.980265,21.6565926 -5.1657927,28.8092287 -1.9868434,7.3513204 -3.7750024,19.0736963 -3.9736867,26.2263323 0,13.9079036 -2.384212,36.1605492 -5.7618458,53.6447708 -1.192106,5.96053 -2.980265,18.0802745 -4.172371,26.8223853 -0.9934217,8.7421108 -3.3776337,21.259224 -4.9671084,27.8158071 -1.788159,6.5565831 -3.3776337,18.0802745 -3.7750024,25.8289636 -0.1986843,7.5500048 -2.384212,22.8486987 -4.7684241,33.7763372 -2.384212,10.9276384 -4.9671084,25.6302793 -5.7618457,32.7829154 l -1.3907904,12.9144818 -16.4907998,0.5960531 c -13.90790357,0.3973686 -16.49079994,0 -17.68290595,-2.7815807 -0.59605301,-1.9868434 1.19210601,-18.278959 3.97368672,-36.3592335 3.37763371,-19.8684336 5.36447707,-40.5316046 5.36447707,-52.0552961 0,-10.5302698 1.78815902,-29.4052817 3.97368672,-41.7237105 2.1855277,-12.5171132 3.97368674,-27.2197541 3.97368674,-32.5842311 0,-5.5631614 1.9868433,-22.0539613 4.172371,-36.7566022 2.1855277,-14.7026409 4.7684241,-37.9487082 5.7618458,-51.6579273 0.9934217,-13.7092192 2.980265,-31.5908095 4.768424,-39.7368672 1.5894747,-8.1460578 3.5763181,-25.6302794 4.1723711,-38.7434456 0.7947373,-13.1131661 2.5828964,-28.41186 4.1723711,-33.7763371 1.3907903,-5.5631614 3.576318,-26.623701 4.768424,-47.08818762 1.192106,-20.46448661 2.3842121,-38.54476119 2.9802651,-40.13423587 0.596053,-1.78815903 1.3907903,-4.56973973 1.9868433,-6.35789876 0.7947374,-2.7815807 3.9736867,-2.98026504 23.4447517,-1.78815902 12.1197445,0.79473734 23.4447516,2.38421203 24.835542,3.37763371 z m 116.6277052,3.77500239 c 21.6565926,1.19210601 40.3329202,2.58289636 41.5250262,3.17894937 2.1855277,1.39079035 0,65.1684622 -2.7815807,83.0500524 -1.192106,6.5565831 -2.980265,20.8618553 -4.172371,31.7894938 -1.1921061,10.9276385 -2.7815807,21.259224 -3.7750024,22.8486987 -0.7947374,1.788159 -5.9605301,3.576318 -13.1131662,4.3710553 -41.3263419,5.1657928 -61.3934598,11.5236915 -86.0303175,27.4184384 -17.0868529,10.9276385 -40.5316045,34.3723901 -49.075031,49.075031 -3.1789494,5.3644771 -6.5565831,8.5434264 -8.9407951,8.5434264 -1.9868434,0 -3.7750024,-0.7947373 -3.7750024,-1.5894746 0,-1.7881591 7.9473735,-52.2539804 12.9144819,-80.8645248 1.5894746,-9.9342168 2.980265,-23.047383 2.980265,-29.4052817 0,-6.5565831 3.1789494,-30.5973878 7.1526361,-53.6447707 3.7750024,-23.24606735 7.9473734,-47.48555634 8.9407951,-53.84345509 1.192106,-6.55658309 2.384212,-12.51711317 2.9802651,-13.51053485 1.192106,-1.78815903 20.0671179,-1.19210602 95.1697969,2.58289637 z m 167.8882639,9.9342168 c 74.3079417,3.97368672 75.5000477,4.17237105 77.0895224,7.55000476 0.7947373,1.78815903 0.7947373,25.82896368 -0.1986843,53.44608641 -1.5894747,42.9158166 -1.3907904,50.86319 0.9934216,53.247402 2.1855277,2.1855277 11.3250072,3.1789494 40.5316046,3.7750024 38.9421298,1.192106 73.1158356,2.7815807 155.7685194,7.9473735 26.8223854,1.788159 58.2145104,3.576318 70.1355706,4.3710553 14.1065879,0.7947374 22.0539613,2.1855277 23.4447517,3.9736868 2.384212,2.7815807 -0.5960531,34.9684431 -4.5697398,47.8829249 -0.9934217,3.5763181 -2.384212,16.2921156 -2.7815807,28.2131757 -0.3973686,12.7157976 -2.384212,28.4118601 -4.768424,37.9487082 -2.1855277,8.9407951 -4.9671084,29.4052818 -6.1592145,45.1013443 -1.192106,15.8947469 -2.980265,31.1934407 -4.172371,33.9750215 -0.9934217,2.7815807 -2.5828964,16.2921155 -3.5763181,30.0013347 -0.7947373,13.7092192 -3.3776337,34.5710745 -5.5631614,46.690819 -2.1855277,11.9210601 -4.9671084,33.3789684 -6.1592144,47.2868719 -1.192106,14.1065879 -3.1789494,27.2197541 -4.172371,29.4052817 -1.9868434,3.3776338 -4.3710554,3.7750024 -26.4250167,3.7750024 -29.0079131,0 -34.1737058,1.7881591 -34.1737058,11.9210602 0,6.1592144 0.7947373,7.1526361 5.9605301,8.1460578 3.3776337,0.7947373 14.7026408,1.3907903 25.431595,1.5894747 10.7289541,0 21.2592239,1.192106 23.4447516,2.1855277 3.5763181,1.9868433 3.7750024,4.5697397 3.7750024,40.3329202 0,34.3723901 -1.5894747,62.3868815 -7.7486891,145.8343026 -1.192106,14.5039565 -3.1789494,28.41186 -4.3710554,30.7960721 -1.192106,2.5828963 -6.1592144,8.9407951 -10.7289541,14.5039565 -4.5697398,5.3644771 -13.5105349,17.0868529 -20.067118,25.8289637 -27.815807,37.1539708 -49.671084,64.9697778 -66.9566212,85.4342645 l -18.4776433,21.8552769 h -17.8815902 c -22.2526456,0.1986843 -22.0539613,0.1986843 -24.6368577,4.9671084 -4.768424,8.7421108 7.7486891,15.8947469 27.4184384,15.8947469 10.5302698,0 12.9144818,3.3776337 19.2723806,26.2263323 2.7815807,10.5302699 7.3513204,25.6302794 9.9342168,33.5776526 2.7815807,7.748689 8.5434264,29.802651 12.9144818,49.075031 8.3447422,36.955287 17.6829059,74.506626 23.047383,92.984269 2.5828964,9.13948 3.7750024,10.927639 6.9539518,10.132902 2.7815807,-0.794738 4.172371,0.198684 5.1657927,4.172371 0.596053,2.980265 7.1526361,28.809228 14.5039565,57.618457 11.3250072,44.505291 12.9144819,52.452665 10.3315855,53.843455 -2.5828964,1.390791 -2.5828964,3.576318 0.3973687,17.88159 2.7815807,14.305273 3.1789494,36.557918 3.1789494,189.544857 v 173.252741 l -5.9605301,24.835542 c -3.1789494,13.709219 -6.3578988,26.822385 -7.1526361,29.206597 -0.9934217,3.775003 -0.3973687,4.56974 2.980265,4.56974 2.1855277,0 4.1723711,0.397369 4.1723711,0.993422 0,0.596053 -6.3578988,26.822385 -14.1065879,58.611879 -12.1197445,49.4724 -14.5039565,57.618457 -17.6829059,57.618457 -4.5697397,0 -8.7421108,11.92106 -13.9079035,39.140814 -1.9868434,10.728955 -6.7552674,30.994757 -10.7289541,45.300029 -7.3513205,26.822385 -10.3315855,38.94213 -21.0605397,89.407951 -3.576318,16.292116 -6.7552674,30.796072 -7.1526361,31.988178 -0.3973686,1.589475 -9.1394794,2.781581 -25.0342263,3.377634 -108.4816474,4.967108 -163.9145772,7.947374 -189.3461722,10.331586 -61.1947755,5.761845 -84.6395271,7.35132 -127.157975,8.74211 -47.0881877,1.390791 -49.075031,1.192106 -51.4592431,-8.74211 -0.596053,-2.384212 -2.7815807,-5.165793 -4.5697397,-5.960531 -1.9868434,-0.794737 -19.6697493,-1.986843 -39.3394985,-2.384212 -19.6697493,-0.596053 -36.7566022,-1.788159 -37.9487082,-2.78158 -1.3907903,-1.192106 -2.5828964,-19.073697 -3.3776337,-49.869769 -0.7947374,-26.623701 -2.7815807,-76.0961 -4.5697397,-109.872437 -1.7881591,-33.975022 -3.3776337,-85.235581 -3.5763181,-114.243494 l -0.1986843,-52.651349 35.9618648,-1.986843 c 38.1473925,-2.185528 42.7171322,-3.377634 49.671084,-13.907904 11.5236915,-17.682905 -0.1986843,-39.736867 -24.239489,-44.703975 -5.3644771,-1.192106 -50.4658213,-2.980265 -100.1369053,-4.172371 -49.67108404,-1.192106 -90.99742593,-2.582897 -91.79216327,-3.377634 -0.79473735,-0.794737 -0.79473735,-72.122414 0,-158.351416 l 1.39079035,-156.960625 40.73028888,-0.397369 c 22.45132994,-0.198684 71.12899224,-1.39079 108.28296314,-2.78158 76.6921537,-2.582897 83.8447898,-3.973687 93.7790066,-17.086853 12.9144818,-17.086853 -0.3973687,-42.319764 -23.8421203,-45.101345 -4.5697398,-0.596053 -26.2263324,-1.788159 -48.0816094,-2.582896 l -39.7368672,-1.589475 0.3973687,-58.611879 c 0.1986843,-32.186862 1.3907904,-75.698732 2.7815807,-96.361903 1.192106,-20.861855 2.5828964,-59.009248 2.7815807,-84.838211 0.3973687,-25.8289639 1.192106,-47.8829252 1.788159,-48.8763469 1.1921061,-1.9868434 42.1210793,-4.5697397 74.7053104,-4.5697397 23.8421203,-0.1986844 32.1868624,-2.3842121 41.5250262,-10.9276385 l 7.5500048,-6.7552675 h 21.2592239 c 14.3052722,0 21.0605396,0.7947374 21.0605396,2.1855277 0,1.1921061 -3.1789493,5.7618458 -7.1526361,10.1329012 -7.7486891,8.7421108 -12.7157975,18.6763276 -12.7157975,26.027648 0,6.1592144 10.1329012,21.6565927 17.6829059,27.0210697 10.1329012,7.152636 20.067118,7.550005 32.9815998,1.192106 24.835542,-12.1197445 28.2131757,-34.9684431 7.5500048,-54.0421394 -4.7684241,-4.5697397 -8.3447421,-9.3381638 -7.5500048,-10.5302698 0.7947374,-1.192106 13.5105349,-1.9868433 34.5710745,-1.9868433 36.1605491,0 37.9487082,-0.3973687 37.9487082,-11.1263229 0,-11.1263228 -1.7881591,-11.5236915 -47.286872,-9.5368481 -56.2276671,2.384212 -91.9908476,2.384212 -96.7592716,0 -2.1855277,-0.9934217 -7.5500048,-5.5631614 -11.9210602,-9.9342168 -4.5697397,-4.7684241 -11.3250072,-9.3381638 -16.0934312,-10.7289541 -5.9605301,-1.7881591 -30.5973878,-2.3842121 -88.0171609,-2.3842121 h -79.6724187 l -2.384212,-5.1657927 c -1.7881591,-3.5763181 -1.7881591,-5.9605301 -0.1986844,-8.3447421 1.7881591,-2.7815807 4.9671084,-3.1789494 20.8618553,-2.5828964 21.259224,0.7947374 27.4184384,-0.3973687 27.4184384,-5.3644771 0.1986843,-5.96053 7.9473734,-21.0605396 14.5039565,-27.815807 9.9342168,-10.3315855 15.4973782,-12.5171132 36.7566022,-13.3118505 10.5302698,-0.3973687 31.7894937,-1.192106 47.0881876,-1.9868434 15.2986939,-0.596053 47.0881876,-1.5894747 70.5329393,-1.788159 47.6842406,-0.596053 53.4460864,-1.9868434 62.1881971,-13.3118505 9.1394795,-12.3184288 11.1263229,-24.4381733 12.1197445,-76.294785 0.7947374,-52.4526647 -0.1986843,-60.0026695 -9.1394794,-67.5526743 -6.1592144,-5.364477 -28.4118601,-12.9144818 -37.3526552,-12.9144818 -3.1789494,0 -10.3315855,-0.9934217 -16.2921155,-2.1855277 -5.7618458,-1.192106 -18.4776433,-3.7750024 -28.4118601,-5.7618457 -9.7355324,-1.9868434 -25.2329107,-4.1723711 -34.1737058,-4.7684241 -9.1394794,-0.7947374 -22.0539613,-2.9802651 -28.8092287,-5.1657927 -6.9539518,-2.1855277 -17.4842216,-3.9736868 -23.4447516,-3.9736868 -26.2263324,-0.3973686 -39.3394986,-12.1197445 -42.5184479,-38.1473925 -0.7947374,-6.1592144 -2.5828964,-12.3184288 -4.1723711,-13.5105348 -1.3907904,-1.192106 -12.5171132,-2.7815807 -24.835542,-3.7750024 -24.835542,-1.788159 -28.6105444,-3.7750024 -27.4184384,-15.1000095 l 0.596053,-5.9605301 80.4671561,-0.1986844 c 88.4145295,-0.1986843 90.9974259,-0.596053 109.6737535,-12.1197445 9.1394794,-5.5631614 12.7157975,-6.7552674 17.8815902,-5.96053 3.5763181,0.7947373 49.671084,2.1855277 102.5211174,3.3776337 74.7053103,1.788159 96.5605873,1.788159 98.746115,0 3.576318,-2.9802651 3.9736867,-12.7157975 0.596053,-15.4973782 -1.5894747,-0.9934217 -26.4250167,-2.3842121 -59.2079321,-3.1789494 -57.8171418,-1.3907904 -150.205358,-6.3578988 -153.5829917,-8.5434265 -4.9671084,-2.980265 -19.2723806,-25.431595 -19.2723806,-30.200019 0,-6.5565831 4.3710554,-21.259224 7.1526361,-24.0408047 1.192106,-1.192106 12.3184288,-4.7684241 24.835542,-7.7486891 12.5171131,-3.1789494 24.835542,-6.5565831 27.6171227,-7.7486891 9.7355324,-3.7750024 29.8026504,-20.2658023 40.3329202,-32.9815998 9.1394794,-11.1263228 11.5236915,-16.0934312 16.8881685,-33.3789684 9.1394795,-30.5973878 9.5368482,-38.1473925 2.3842121,-64.9697779 -3.3776338,-12.5171132 -8.1460578,-26.623701 -10.9276385,-31.1934407 -7.5500048,-12.7157976 -35.5644962,-37.5513396 -50.6645057,-44.7039756 -7.1526361,-3.3776338 -15.1000095,-7.1526361 -17.8815902,-8.5434265 -6.7552675,-3.1789494 -7.1526361,-9.3381638 -1.9868434,-34.1737058 2.1855277,-11.3250071 4.9671084,-32.3855468 5.9605301,-46.8895033 0.9934217,-14.5039565 3.1789494,-33.1802841 4.9671084,-41.3263419 1.788159,-8.1460577 3.7750024,-26.02764799 4.3710554,-39.73686717 0.596053,-13.70921918 1.9868433,-26.42501669 2.980265,-28.21317571 1.5894747,-3.17894938 4.7684241,-3.37763371 34.9684431,-2.38421203 18.278959,0.596053 49.671084,1.98684336 69.9368863,2.98026504 z m 217.5593479,9.9342168 c 14.3052722,0.99342168 32.5842311,2.7815807 40.7302889,3.77500238 8.1460578,1.19210602 38.5447612,2.38421203 67.3539899,2.7815807 28.8092287,0.59605301 53.0487177,1.58947469 54.0421394,2.58289637 0.9934217,0.99342168 0.596053,17.68290591 -1.192106,39.53818282 -3.1789494,39.3394986 -4.5697397,50.0684527 -6.7552674,51.2605587 -1.788159,1.192106 -62.5855659,-1.3907903 -224.711984,-8.9407951 -25.6302794,-1.192106 -47.882925,-3.1789494 -49.075031,-4.172371 -1.7881591,-1.3907904 -2.5828964,-7.9473735 -2.5828964,-20.2658023 0,-21.259224 3.3776337,-66.1618839 5.1657927,-68.94346461 1.3907904,-2.18552769 78.2816284,-0.79473734 117.0250739,2.38421204 z M 323.7935789,206.0738965 c 1.5894747,2.3842121 -2.7815807,26.027648 -5.1657928,29.0079131 -0.9934216,1.3907903 -8.7421107,2.980265 -17.2855372,3.7750024 -17.2855372,1.5894747 -34.9684431,6.7552674 -45.6973973,13.7092192 -33.3789684,21.0605396 -54.0421394,58.0158261 -54.0421394,96.1632186 0,31.3921251 5.9605301,50.0684526 23.4447517,72.9171513 11.5236915,15.2986939 27.6171227,27.219754 49.4723997,36.5579178 17.0868528,7.1526361 17.4842215,7.5500048 18.0802745,14.5039565 0.3973687,5.3644771 -0.596053,8.5434265 -3.3776337,11.3250072 -7.5500048,7.5500048 -12.9144818,7.3513204 -33.5776528,-1.9868434 -17.2855372,-7.7486891 -21.2592239,-10.7289541 -40.5316045,-29.603966 -19.4710649,-19.0736963 -22.0539613,-22.45133 -30.0013347,-39.7368672 -10.9276385,-23.2460673 -13.7092192,-36.1605492 -13.7092192,-63.3803032 0,-25.0342264 4.5697397,-44.90266 15.4973782,-66.3605682 10.1329011,-19.471065 43.5118696,-52.8500334 63.5789875,-63.3803032 20.6631709,-10.9276385 69.3408333,-19.8684336 73.31452,-13.5105349 z m 28.6105444,56.0289828 c 32.3855467,16.2921155 49.8697683,38.3460768 57.4197731,72.5197826 2.7815807,13.1131662 2.7815807,15.6960626 -0.1986844,30.7960721 -6.5565831,33.5776528 -24.239489,57.8171418 -51.6579273,70.7316236 -16.0934312,7.5500048 -24.4381734,9.7355325 -44.306607,11.5236915 l -15.8947468,1.192106 -20.8618553,-9.7355324 c -25.431595,-12.1197445 -37.5513395,-24.0408047 -49.671084,-48.6776624 l -7.9473735,-16.4907999 0.5960531,-25.8289636 c 0.7947373,-23.643436 1.3907903,-26.8223854 6.3578987,-36.7566022 9.1394795,-17.6829059 25.0342263,-35.9618648 36.9552865,-42.5184479 18.0802746,-9.9342168 36.7566022,-14.9013252 55.6316141,-15.1000095 15.8947469,0 17.6829059,0.3973686 33.5776528,8.3447421 z m -186.7632759,151.397464 c 17.2855373,36.9552865 28.0144914,49.671084 58.2145105,69.5395176 19.8684336,13.1131662 23.2460673,18.2789589 11.5236915,17.6829059 -3.7750024,-0.1986843 -26.2263324,-1.3907903 -49.671084,-2.7815807 -24.4381734,-1.192106 -43.9092383,-3.1789494 -45.498713,-4.3710554 -3.1789494,-2.7815807 -1.5894747,-30.7960721 2.9802651,-47.4855563 1.3907903,-5.7618457 2.7815807,-16.8881685 2.7815807,-24.4381733 0,-20.8618553 1.788159,-28.8092287 6.3578987,-28.8092287 2.7815807,0 5.9605301,5.1657927 13.3118505,20.6631709 z m 73.7118887,105.5013824 c 16.8881685,1.5894747 37.1539708,2.9802651 45.1013443,2.9802651 17.0868528,0 21.0605396,2.7815807 20.0671179,13.7092192 -0.7947374,10.5302698 -4.7684241,11.5236914 -38.9421299,10.9276384 -16.0934312,-0.1986843 -63.9763562,-0.9934216 -106.6934884,-1.788159 -42.5184479,-0.596053 -78.67899706,-1.5894747 -79.87110307,-1.9868433 -3.17894938,-1.1921061 -3.37763371,-19.471065 -0.39736867,-25.2329107 2.18552769,-4.1723711 2.7815807,-4.1723711 66.16188384,-2.9802651 34.9684432,0.7947374 77.6855754,2.5828964 94.573744,4.3710554 z m -131.7277148,50.0684527 c 0.7947374,1.788159 0.1986843,10.9276385 -0.9934217,20.2658023 -2.1855277,16.0934312 -5.1657927,72.3210983 -7.15263606,134.3106111 -0.59605301,15.2986939 -2.38421204,53.6447707 -3.97368672,85.4342645 -1.78815903,31.5908094 -3.37763372,64.3737249 -3.77500239,72.5197826 l -0.39736867,14.9013252 -11.92106016,0.596053 c -13.70921918,0.7947374 -20.06711794,-0.596053 -21.45790829,-4.172371 -0.59605301,-1.5894747 0.19868434,-21.0605396 1.78815903,-43.3131853 1.58947468,-22.2526456 3.77500238,-58.0158261 4.76842406,-79.27505 0.99342168,-21.259224 3.17894938,-53.4460864 4.9671084,-71.526361 1.78815902,-18.0802746 3.57631805,-54.2408237 4.17237106,-80.4671561 0.596053,-26.2263323 1.39079035,-48.8763466 1.78815902,-50.267137 0.59605301,-1.5894747 5.56316141,-2.384212 15.89474688,-2.384212 12.11974454,0 15.29869384,0.596053 16.29211554,3.3776337 z m 54.2408237,40.3329202 c 2.1855277,2.1855277 3.9736868,6.3578988 3.9736868,9.1394795 0,8.3447421 5.7618457,18.0802745 15.6960625,27.0210697 11.7223758,10.3315854 18.0802746,12.9144818 37.3526552,15.4973782 8.5434264,0.9934217 20.0671179,2.7815807 25.431595,3.9736867 11.3250071,2.5828964 60.9960911,10.9276385 107.2895414,18.0802746 24.0408047,3.7750024 28.6105444,5.5631614 31.5908094,11.3250071 2.1855277,4.1723711 2.5828964,15.8947469 2.3842121,53.0487177 -0.1986844,45.6973973 -0.3973687,48.0816093 -4.7684241,56.2276671 -7.5500048,14.3052722 -7.7486891,14.3052722 -92.5869006,14.3052722 -101.5276957,0 -114.4421775,2.5828964 -131.1316617,26.2263324 -14.7026409,20.8618552 -15.4973782,21.4579083 -27.8158071,21.4579083 -6.9539517,0 -11.9210601,-0.9934217 -13.7092191,-2.9802651 -4.1723711,-3.9736867 -6.7552675,-35.1671275 -3.5763181,-42.1210792 2.1855277,-4.5697397 2.980265,-4.7684241 9.7355325,-3.3776337 21.8552769,4.9671084 32.7829154,0.1986843 39.1408142,-17.2855373 3.3776337,-9.5368481 3.7750023,-15.4973782 3.3776337,-51.459243 -0.1986844,-22.45133 0.596053,-48.2802936 1.788159,-57.2210888 1.788159,-14.7026408 1.5894747,-17.4842215 -1.5894747,-23.8421203 -5.1657927,-10.5302698 -14.7026409,-15.2986938 -30.3987034,-15.2986938 h -12.9144818 l 0.7947373,-19.8684336 c 0.3973687,-10.9276385 1.3907904,-21.4579083 2.5828964,-23.4447517 2.7815807,-5.3644771 31.7894937,-4.9671084 37.3526551,0.596053 z m -15.2986938,62.9829345 c 2.7815807,3.1789494 2.7815807,8.7421108 1.3907903,48.2802937 -0.9934217,24.6368576 -1.788159,50.6645057 -1.9868433,58.0158261 0,15.4973782 -3.7750024,21.4579083 -13.5105349,21.4579083 -10.9276385,0 -13.3118505,-3.9736867 -12.7157975,-21.259224 0.1986843,-8.5434264 1.788159,-28.8092287 3.3776337,-45.1013443 1.5894747,-16.2921155 2.9802651,-36.1605491 2.9802651,-44.1079225 0,-12.7157975 0.596053,-14.9013252 4.3710554,-17.4842216 5.7618457,-4.1723711 12.1197444,-3.9736867 16.0934312,0.1986843 z M 780.370183,815.438755 c 1.9868434,3.3776338 -2.7815807,101.9250644 -5.5631614,118.6145486 -1.788159,10.1329012 -6.3578988,25.2329107 -10.7289541,35.7631805 -7.5500048,17.6829059 -21.6565927,50.4658209 -34.7697588,80.6658409 -8.5434265,20.067117 -11.7223759,20.265802 -17.2855373,1.589474 -2.1855277,-7.947373 -6.7552674,-23.047383 -9.9342168,-33.378968 -3.1789494,-10.331586 -5.7618457,-21.8552772 -5.7618457,-25.8289639 0,-3.9736867 -2.5828964,-15.1000095 -5.9605301,-24.835542 -7.7486891,-23.047383 -7.7486891,-29.8026504 0.596053,-40.5316046 3.3776337,-4.768424 11.3250072,-15.1000095 17.2855372,-23.2460673 29.6039661,-39.5381828 68.7447803,-90.2026885 69.9368863,-90.2026885 0.7947374,0 1.788159,0.596053 2.1855277,1.3907903 z M 279.0896033,922.9269808 c 5.7618457,2.7815807 7.1526361,4.5697397 7.5500047,10.5302698 1.1921061,13.1131662 5.9605301,12.7157975 -118.0184955,13.3118505 l -111.8592812,0.596053 -2.1855277,-4.3710553 c -2.58289637,-4.5697398 -1.19210602,-18.6763276 2.1855277,-22.8486987 1.39079035,-1.788159 28.41186004,-1.9868433 108.6803318,-1.3907903 95.5671656,0.596053 107.4882258,1.192106 113.6474402,4.172371 z m 96.5605873,41.3263419 c 5.9605301,3.9736867 10.7289541,12.7157975 10.7289541,19.8684336 0,7.5500048 -11.7223758,18.6763277 -19.8684336,18.6763277 -9.1394794,0 -17.8815902,-9.3381639 -17.8815902,-18.875012 0,-18.2789589 13.7092192,-28.2131757 27.0210697,-19.6697493 z m -211.9961865,1.9868434 c 2.384212,0.7947373 2.5828963,8.3447421 1.3907903,47.0881879 -1.5894747,61.790828 -3.3776337,84.440842 -5.9605301,85.434264 -1.192106,0.397369 -7.5500047,0.198685 -14.1065878,-0.794737 -6.5565831,-0.794738 -28.8092287,-2.582897 -49.67108402,-3.775003 -20.66317094,-1.192106 -38.94212986,-2.582896 -40.53160454,-3.178949 -2.1855277,-0.794737 -2.38421204,-10.927638 -1.19210602,-60.002669 0.79473734,-34.3723905 2.1855277,-60.0026699 3.37763371,-61.5921446 1.19210602,-1.3907903 7.35132043,-2.384212 15.29869387,-2.5828963 7.1526361,-0.1986844 15.89474688,-0.9934217 19.07369626,-1.788159 5.96053008,-1.3907904 67.15530554,-0.3973687 72.32109834,1.192106 z m -52.4526647,149.0132519 c 24.0408046,1.589475 44.9026599,3.377634 46.4921346,3.973687 2.1855277,0.794737 2.384212,4.768424 1.192106,22.252645 -0.7947373,11.722376 -2.1855277,42.319764 -2.7815807,67.950043 l -1.192106,46.690819 -52.4526647,-0.397368 c -32.9815998,-0.397369 -53.44608641,-1.390791 -54.63819242,-2.582897 -3.97368672,-3.973686 -0.79473735,-133.317189 3.17894937,-138.681666 2.58289637,-3.17895 7.55000477,-2.980265 60.20135385,0.794737 z m 55.2342454,160.735628 c 78.2816284,0.794737 95.9645343,1.39079 100.534274,3.973687 9.5368481,4.768424 11.1263228,14.901325 2.980265,20.067118 -4.5697397,3.178949 -15.8947469,3.576318 -112.2566498,4.371055 -84.24215848,0.794737 -107.68691013,0.397369 -110.07112216,-1.589475 -1.98684336,-1.788159 -2.98026504,-6.159214 -2.98026504,-14.901325 0,-6.755267 0.59605301,-12.715797 1.19210602,-13.510535 0.79473734,-0.596053 6.75526742,-0.794737 13.51053484,-0.397368 6.55658309,0.596053 54.83687674,1.39079 107.09085714,1.986843 z m 45.1013442,388.626561 c 11.5236915,1.192106 22.8486987,2.582896 25.2329107,2.980265 5.5631614,0.993422 11.1263228,8.940795 9.3381638,13.510535 -2.384212,6.159214 -9.5368481,7.748689 -36.5579178,8.344742 -60.4000382,1.39079 -119.40928596,3.178949 -138.88035088,3.973687 -26.22633236,0.993422 -28.01449138,-0.198685 -28.01449138,-18.080275 0,-6.755267 0.59605301,-12.914482 1.58947469,-13.907903 1.98684336,-1.986844 141.06587857,0.596053 167.29221087,3.178949 z m -59.4066164,45.498713 c 3.3776337,1.986843 3.7750024,4.371055 3.7750024,25.431595 0,12.715798 0.9934216,39.538183 2.1855277,59.605301 1.3907903,21.060539 1.5894746,37.153971 0.596053,38.147392 -0.9934217,0.794738 -20.067118,2.980265 -42.5184479,4.768424 -22.45133001,1.788159 -45.69739732,3.775003 -51.85661174,4.172371 -8.14605777,0.794738 -11.72237582,0.397369 -13.51053484,-1.788159 -4.9671084,-5.96053 -8.54342645,-121.197444 -3.77500239,-125.965869 1.58947469,-1.589474 11.12632282,-2.384212 28.21317571,-2.582896 14.3052722,-0.198684 32.38554676,-0.993422 39.93555156,-1.788159 21.6565926,-2.185528 32.7829154,-2.185528 36.9552865,0 z m 10.1329011,152.986939 c 0.7947374,3.775002 2.1855277,42.915816 2.7815807,86.825055 1.192106,65.367146 0.9934217,80.467156 -1.192106,83.050052 -2.384212,2.980265 -8.1460578,3.178949 -52.4526647,1.788159 -32.78291544,-0.794737 -50.66450568,-1.986843 -52.25398037,-3.576318 -1.58947469,-1.39079 -2.78158071,-14.901325 -3.57631805,-39.935552 -0.59605301,-20.861855 -1.98684336,-57.221088 -3.17894938,-81.063209 -1.39079035,-30.597387 -1.39079035,-44.107922 0,-45.896081 1.39079036,-1.788159 11.12632282,-2.980265 28.41186005,-3.973687 14.50395653,-0.794737 32.78291545,-2.185528 40.33292025,-2.980265 7.7486891,-0.993422 19.6697492,-1.589475 26.8223853,-1.39079 l 12.7157975,0.198684 z m 23.047383,191.929068 c 28.8092287,0.993422 40.1342359,1.986844 40.1342359,3.576318 0,1.589475 -11.5236915,2.980265 -38.1473926,4.768424 -79.27505,4.967109 -124.37639429,6.953952 -127.55534366,5.761846 -3.17894938,-1.192106 -4.76842407,-13.113166 -1.98684336,-15.894747 1.19210601,-1.192106 47.08818762,-0.397368 127.55534372,1.788159 z"
     id="path1-0"
     style="fill:#ffffff;stroke:none;stroke-width:0.198684" />
  <path
     d="m 249.0882685,74.74355043 c -13.7092191,4.3710554 -22.0539613,15.29869388 -25.8289636,34.17370577 -5.9605301,29.2065974 15.8947468,49.671084 49.671084,46.8895033 25.431595,-2.1855277 51.8566117,-16.4907999 55.631614,-30.3987034 2.1855277,-8.3447421 1.3907904,-10.5302698 -9.1394794,-25.2329107 C 310.6804127,88.45276962 299.9514586,82.09487087 280.083025,76.92907813 263.7909094,72.75670707 257.4330107,72.3593384 249.0882685,74.74355043 Z m 43.114501,22.65001431 c 9.3381637,4.76842406 22.6500143,17.08685286 22.6500143,21.25922396 0,5.1657927 -3.7750024,8.7421108 -14.7026409,14.3052722 -10.3315855,5.3644771 -14.9013252,6.3578987 -30.3987034,7.1526361 l -18.4776433,0.7947373 -6.9539517,-6.9539517 c -6.1592144,-6.1592145 -6.9539518,-8.1460578 -6.9539518,-17.0868529 0,-10.9276385 3.7750024,-20.46448664 9.3381638,-24.04080469 6.3578988,-3.97368672 34.1737058,-1.19210602 45.498713,4.56973973 z"
     id="path2"
     style="fill:#ffffff;stroke:none;stroke-width:0.198684" />
  <path
     d="m 707.4530317,573.8386025 c -1.3907904,4.9671084 -7.9473734,91.7921632 -8.5434265,115.6342835 -0.596053,15.1000096 0,24.4381733 1.3907904,26.027648 1.9868434,2.5828964 20.8618553,5.3644771 51.8566117,8.1460578 9.7355325,0.9934217 13.7092192,0.596053 14.9013252,-1.192106 0.7947373,-1.5894747 2.384212,-19.6697493 3.1789494,-40.5316045 0.7947373,-20.663171 2.5828963,-44.5052913 3.576318,-52.6513491 5.7618458,-41.5250262 4.7684241,-49.4723997 -6.5565831,-53.843455 -3.576318,-1.1921061 -18.2789589,-2.7815807 -32.5842311,-3.3776338 -21.2592239,-0.596053 -26.623701,-0.3973686 -27.219754,1.7881591 z m 50.267137,17.0868529 c 4.7684241,3.1789493 4.7684241,3.576318 3.5763181,27.219754 -1.7881591,33.1802841 -6.9539518,80.0697874 -9.3381638,84.6395271 -2.5828964,4.9671084 -13.9079036,6.9539518 -25.6302794,4.7684241 -7.9473734,-1.5894747 -9.3381638,-2.5828964 -10.3315855,-7.7486891 -4.3710553,-20.0671179 1.3907904,-101.72638 7.3513205,-108.6803318 4.5697397,-4.9671084 27.4184383,-5.1657927 34.3723901,-0.1986843 z"
     id="path3"
     style="fill:#ffffff;stroke:none;stroke-width:0.198684" />
  <path
     d="m 601.5542806,968.8230624 c -9.9342168,4.5697398 -24.4381733,19.0736963 -29.2065974,28.8092288 -4.3710554,9.1394798 -3.9736867,24.0408048 0.7947374,39.3394988 2.1855277,6.755267 3.9736867,14.305272 3.9736867,16.689484 0,2.185528 1.788159,9.139479 3.7750024,15.497378 2.1855277,6.159215 4.768424,17.285537 5.96053,24.835542 2.1855277,16.292116 11.5236915,35.167128 21.4579083,43.909238 3.5763181,3.17895 11.7223759,7.351321 17.8815903,9.13948 10.3315854,2.980265 11.9210601,2.980265 23.0473829,0 18.6763276,-5.165793 25.6302794,-10.927639 33.9750215,-28.014492 4.7684241,-9.536848 4.9671084,-10.530269 2.384212,-21.855277 -1.3907903,-6.556583 -3.576318,-15.100009 -4.768424,-18.875011 -1.192106,-3.775003 -3.7750024,-14.503957 -5.5631614,-23.842121 -9.9342168,-48.677662 -23.047383,-76.4934691 -39.9355516,-84.4408426 -11.3250071,-5.364477 -23.8421203,-5.7618457 -33.7763371,-1.192106 z m 27.0210697,14.9013252 c 11.1263228,5.7618458 21.6565926,24.6368574 26.027648,45.8960814 1.3907904,6.556583 3.5763181,18.080275 5.1657928,25.431595 1.5894746,7.550005 4.3710553,17.484222 6.556583,22.252646 5.9605301,13.31185 7.1526361,27.219754 3.1789494,34.968443 -7.7486891,15.10001 -17.4842215,21.656593 -32.5842311,21.656593 -21.6565926,0 -30.9947564,-16.4908 -45.6973973,-80.665841 -4.768424,-21.060539 -5.5631614,-46.094766 -1.3907903,-54.0421392 7.9473734,-15.2986938 25.431595,-22.2526456 38.7434455,-15.4973782 z"
     id="path4"
     style="fill:#ffffff;stroke:none;stroke-width:0.198684" />
  <path
     d="m 247.3001095,976.3730672 c -12.1197445,4.3710554 -28.2131757,20.6631709 -32.3855467,33.1802838 -4.1723711,12.119745 -4.1723711,15.894747 -0.1986844,27.815807 4.1723711,11.921061 27.8158071,37.352656 55.2342454,59.009248 26.2263324,20.663171 46.094766,36.557918 65.7645152,52.452665 29.8026504,24.438173 45.3000286,28.213176 68.1487273,16.689484 28.6105444,-14.305272 37.5513395,-46.29345 20.2658023,-73.31452 -5.9605301,-9.338164 -20.067118,-22.252646 -41.7237106,-38.743445 -7.1526361,-5.364478 -21.855277,-17.881591 -32.9815998,-27.815807 -32.3855467,-29.0079135 -57.0224044,-46.8895038 -68.7447802,-50.0684531 -13.1131662,-3.3776338 -22.0539613,-3.1789494 -33.3789685,0.7947373 z m 34.7697588,16.2921156 c 6.5565831,2.980265 15.8947469,9.1394792 20.8618553,13.5105352 4.9671084,4.371055 18.8750119,15.696062 30.7960721,25.431595 39.1408142,31.590809 75.8974163,64.572409 80.0697874,72.321098 4.9671084,8.940795 5.7618457,21.656593 1.5894747,29.80265 -6.1592144,11.92106 -24.4381734,24.040805 -36.5579178,24.040805 -6.3578988,0 -27.6171228,-13.311851 -41.5250263,-26.027648 -8.5434264,-7.748689 -24.0408046,-20.464487 -34.3723901,-28.213176 -10.3315855,-7.947373 -24.239489,-19.27238 -30.9947564,-25.23291 -6.5565831,-5.960531 -17.4842216,-15.497379 -24.0408047,-21.259224 -13.9079035,-11.921061 -18.4776432,-20.265803 -18.4776432,-33.776338 0,-7.35132 1.3907903,-11.92106 5.7618457,-18.875011 6.3578988,-9.9342172 11.3250072,-13.5105353 22.0539613,-15.696063 11.3250072,-2.1855277 12.3184289,-1.9868433 24.835542,3.9736868 z"
     id="path5"
     style="fill:#ffffff;stroke:none;stroke-width:0.198684" />
  <path
     d="m 402.2738916,1279.36668 c -51.8566117,30.200019 -55.8302984,34.173705 -51.8566117,52.651349 2.980265,13.113166 17.8815902,35.961864 32.3855468,49.472399 11.7223758,11.126323 18.2789589,15.10001 30.200019,18.477644 10.3315855,2.78158 18.875012,-1.192106 26.2263324,-12.318429 2.980265,-4.56974 12.7157975,-18.278959 21.6565926,-30.200019 9.1394795,-12.119745 16.8881686,-23.643436 17.6829059,-25.828964 1.5894747,-5.563161 -3.1789494,-12.715798 -26.4250167,-38.147393 -17.2855372,-19.073696 -25.2329106,-26.425016 -28.41186,-26.425016 -0.3973687,0 -9.9342168,5.563161 -21.4579083,12.318429 z m 33.5776528,19.073696 c 4.5697397,6.357899 12.1197445,14.901325 17.0868529,18.875012 4.9671084,4.172371 8.9407951,9.139479 8.9407951,10.927638 0,3.377634 -13.5105348,22.650015 -31.1934408,44.505292 -9.9342168,12.318428 -14.1065878,13.907903 -24.0408046,8.74211 -8.1460578,-4.172371 -28.6105444,-26.623701 -35.7631805,-39.140814 -10.9276385,-19.27238 -9.1394794,-22.650014 20.4644866,-38.544761 9.9342168,-5.165793 20.067118,-11.126323 22.8486987,-13.113166 8.7421107,-6.357899 12.9144818,-4.967109 21.6565926,7.748689 z"
     id="path6"
     style="fill:#ffffff;stroke:none;stroke-width:0.198684" />
  <path
     d="m 64.70920474,1336.389084 c -2.58289637,1.589475 -2.78158071,22.053961 -2.38421204,145.436934 0.19868434,78.877681 0.99342168,144.642197 1.58947469,146.032987 1.78815903,4.768424 10.33158547,5.563161 60.40003811,5.761846 39.7368672,0 49.4723997,-0.596053 52.2539804,-2.781581 3.3776337,-2.781581 3.3776337,-12.119745 2.7815807,-145.635618 -0.596053,-133.515874 -0.7947373,-142.655354 -4.172371,-146.032987 -3.1789494,-3.17895 -8.7421108,-3.576318 -55.6316141,-4.172371 -30.79607211,-0.198685 -53.24740208,0.198684 -54.83687676,1.39079 z m 93.58032226,17.682906 c 2.384212,2.384212 3.576318,257.097531 1.192106,260.077796 -1.5894747,1.986843 -11.7223758,2.582896 -38.3460768,2.582896 -26.62370106,0 -36.7566022,-0.596053 -38.34607689,-2.582896 -2.7815807,-3.377634 -4.17237105,-256.700162 -1.39079035,-259.481743 3.77500238,-3.775002 73.11583564,-4.371055 76.89083804,-0.596053 z"
     id="path7"
     style="fill:#ffffff;stroke:none;stroke-width:0.198684" />
  <path
     d="m 583.8713747,1370.761474 c -4.1723711,2.185528 -14.7026409,11.523692 -23.2460673,20.663171 l -15.4973782,16.689484 0.1986843,83.84479 c 0.1986844,46.29345 1.192106,88.811898 2.3842121,94.573744 1.5894746,9.13948 3.7750023,12.517113 14.9013252,24.239489 12.9144818,13.709219 25.6302793,21.855277 34.3723901,21.855277 12.5171131,0 31.9881781,-16.689484 39.9355515,-34.571074 3.9736867,-8.543427 0.596053,-18.080275 -11.1263228,-30.796073 l -10.9276385,-11.722375 v -52.850034 c 0,-58.015826 0.1986844,-58.611879 11.9210602,-69.738202 12.5171131,-11.722375 14.5039565,-20.265802 7.9473734,-33.776337 -12.1197445,-24.835542 -34.1737058,-37.352655 -50.86319,-28.41186 z m 15.6960625,13.907904 c 6.5565831,3.377633 23.047383,19.669749 24.4381734,24.040804 0.7947373,2.781581 -1.5894747,6.755268 -9.7355325,15.10001 -18.4776432,19.073696 -17.2855372,13.510535 -17.2855372,77.88426 v 57.022404 l 12.9144818,12.517113 c 13.5105349,12.914482 15.6960626,18.676328 10.7289542,27.815807 -3.3776337,6.556583 -17.6829059,15.696063 -24.4381734,15.696063 -10.5302698,0 -24.6368576,-11.523692 -31.9881781,-26.027648 -4.5697397,-8.940795 -4.768424,-10.132901 -5.1657927,-79.473735 -0.596053,-88.215845 -0.7947373,-87.619792 2.980265,-94.573744 3.3776338,-6.556583 28.2131758,-32.385546 31.1934408,-32.385546 1.192106,0 3.9736867,0.993421 6.3578987,2.384212 z"
     id="path8"
     style="fill:#ffffff;stroke:none;stroke-width:0.198684" />
  <path
     d="m 223.4579892,1403.54439 c -5.9605301,0.397368 -11.9210602,1.788159 -13.3118505,2.980265 -3.7750024,2.980265 -3.7750024,157.159309 0,160.139574 1.3907903,1.192106 17.4842216,1.788159 40.7302889,1.589475 31.5908094,-0.198684 38.5447612,-0.794737 40.1342358,-3.178949 3.1789494,-4.967109 2.5828964,-155.967204 -0.596053,-158.5501 -2.7815807,-2.384212 -49.4723996,-4.371056 -66.9566212,-2.980265 z m 51.2605587,79.871103 c 0.3973687,42.915816 -0.1986843,61.194775 -1.788159,62.982934 -1.5894747,1.986844 -7.7486891,2.781581 -22.8486987,2.781581 -11.1263228,0 -20.8618553,-0.596053 -21.2592239,-1.589475 -1.5894747,-2.384212 -3.7750024,-121.396129 -2.3842121,-123.581657 0.7947374,-1.39079 10.1329012,-1.986843 24.4381734,-1.589474 l 23.2460673,0.596053 z"
     id="path9"
     style="fill:#ffffff;stroke:none;stroke-width:0.198684" />
  <path
     d="m 669.3056392,1455.003633 c -26.623701,16.888168 -32.5842311,22.45133 -32.5842311,30.398703 0,15.696063 25.2329107,47.485556 44.5052912,56.028983 10.1329012,4.371055 14.5039566,3.377633 24.835542,-5.165793 8.3447422,-7.152636 33.9750215,-43.313185 33.9750215,-48.280294 0,-2.185527 -8.5434264,-13.709219 -19.0736963,-26.027648 -13.7092191,-15.894746 -20.2658022,-22.053961 -23.4447516,-22.053961 -2.384212,0 -15.1000095,6.755268 -28.2131757,15.10001 z m 38.5447612,17.484221 c 13.5105348,13.907904 14.7026408,18.080275 8.3447421,28.41186 -6.7552674,11.126323 -22.8486987,26.425017 -27.6171227,26.425017 -5.5631614,0 -29.6039661,-22.650014 -35.1671275,-32.782916 -3.576318,-6.755267 -3.576318,-6.953951 0.1986843,-10.728954 7.5500048,-7.35132 33.7763372,-23.84212 37.9487082,-24.040804 2.5828964,0 8.7421108,4.967108 16.2921156,12.715797 z"
     id="path10"
     style="fill:#ffffff;stroke:none;stroke-width:0.198684" />
  <path
     d="m 365.5172894,1572.028707 c -40.7302888,10.927638 -68.7447802,31.988178 -65.9631995,49.472399 0.596053,3.576318 8.5434264,18.080275 17.8815902,32.186863 9.1394795,14.106587 19.0736963,29.603966 22.0539613,34.37239 6.7552674,10.53027 7.7486891,10.53027 37.9487082,-3.377634 28.41186,-12.914482 44.5052913,-22.252646 45.6973973,-26.425017 0.596053,-1.986843 -0.7947374,-10.927638 -3.1789494,-20.067118 -2.1855277,-9.139479 -5.3644771,-22.848698 -6.7552674,-30.796072 -3.7750024,-20.861855 -6.5565831,-27.617122 -13.1131662,-33.378968 -6.9539518,-5.761846 -18.2789589,-6.357899 -34.5710745,-1.986843 z m 27.4184384,19.073696 c 4.1723711,5.761846 13.3118505,40.531604 13.3118505,51.061874 0,4.56974 -1.5894747,8.146058 -5.3644771,11.722376 -8.3447421,7.550005 -39.7368672,22.848699 -45.8960816,22.053961 -4.3710554,-0.397368 -8.3447421,-5.165792 -21.6565926,-25.034226 -17.0868529,-25.431595 -20.4644866,-32.584231 -17.0868529,-37.948708 2.1855277,-3.775003 33.9750215,-20.861856 46.2934503,-24.835542 13.7092192,-4.56974 25.6302793,-3.377634 30.3987034,2.980265 z"
     id="path11"
     style="fill:#ffffff;stroke:none;stroke-width:0.198684" />
  <path
     d="m 420.3541662,1714.485375 c -14.7026409,1.192106 -28.8092287,2.781581 -31.3921251,3.775003 -6.7552674,2.582896 -8.3447421,8.543426 -9.7355325,38.147392 -1.192106,23.047383 -0.9934217,26.623701 1.9868434,29.007913 2.5828964,2.185528 9.7355324,2.582897 36.5579178,1.589475 34.5710745,-1.39079 47.4855563,-3.178949 50.267137,-7.748689 1.788159,-2.781581 1.192106,-6.357899 -4.5697397,-25.828964 -2.1855277,-7.35132 -4.5697397,-19.27238 -5.1657927,-26.822385 -1.5894747,-15.894747 1.5894746,-14.901325 -37.9487082,-12.119745 z m 25.2329106,17.881591 c 3.3776338,4.172371 5.3644771,30.796072 2.3842121,34.37239 -3.1789494,3.775002 -47.4855563,4.371055 -51.2605587,0.596053 -3.1789494,-3.17895 -3.1789494,-30.200019 0.1986843,-32.9816 3.7750024,-3.178949 9.1394795,-3.973687 28.4118601,-4.172371 12.3184288,-0.198684 18.8750119,0.596053 20.2658022,2.185528 z"
     id="path12"
     style="fill:#ffffff;stroke:none;stroke-width:0.198684" />
  <path
     d="m 357.3712317,1817.403861 c -18.2789589,0.993422 -20.663171,1.589475 -27.6171227,6.755268 -8.3447422,6.556583 -18.6763276,20.265802 -22.2526457,29.603966 -3.3776337,9.139479 -2.980265,25.034226 0.596053,35.76318 1.7881591,5.165793 7.1526361,13.70922 11.9210602,19.073697 7.1526361,7.947373 11.5236915,10.728954 22.2526456,14.503956 12.9144819,4.371056 14.9013252,4.56974 79.4737344,3.973687 52.6513491,-0.198684 68.7447803,-0.993422 78.4803127,-3.576318 21.259224,-5.364477 32.9815998,-15.497378 40.9289733,-36.160549 5.1657927,-13.113166 5.1657927,-17.484222 0,-34.571075 -4.9671084,-17.086853 -14.3052722,-27.219754 -29.8026504,-32.584231 -9.3381638,-2.980265 -18.4776433,-3.576318 -72.3210983,-3.576318 -33.7763372,-0.198684 -70.5329393,0.198684 -81.6592621,0.794737 z m 154.1790447,19.868434 c 11.1263228,6.159215 21.855277,21.457908 21.855277,31.193441 0,13.113166 -11.9210602,30.001335 -25.8289637,36.160549 -8.5434265,3.775002 -12.7157975,4.172371 -82.0566308,4.172371 -79.4737344,0 -81.6592621,-0.198684 -93.3816379,-11.523691 -12.5171132,-11.722376 -16.0934312,-25.828964 -10.3315855,-39.736868 5.9605301,-13.709219 16.6894842,-21.855277 32.7829155,-24.438173 4.9671084,-0.794737 40.3329202,-1.192106 78.4803127,-0.993422 l 69.5395176,0.198685 z"
     id="path13"
     style="fill:#ffffff;stroke:none;stroke-width:0.198684" />
  <path
     d="m 561.6187291,1829.72229 c -1.7881591,1.788159 -2.3842121,13.70922 -2.3842121,41.525027 0,32.981599 0.3973687,39.736867 3.1789494,42.319763 6.7552674,6.953952 61.9895128,1.986843 67.7513586,-5.96053 3.576318,-4.967108 3.7750024,-66.956621 0.1986843,-69.738202 -4.172371,-3.178949 -42.5184479,-10.53027 -54.8368767,-10.53027 -6.3578988,0 -12.5171132,0.993422 -13.9079035,2.384212 z m 45.3000286,17.484222 c 9.1394794,4.768424 11.9210601,11.92106 11.9210601,32.186862 0,11.523692 -0.596053,13.70922 -4.3710554,16.292116 -5.364477,3.973687 -31.392125,4.371055 -34.9684431,0.794737 -1.5894747,-1.589474 -2.384212,-10.132901 -2.384212,-25.431595 0,-15.298694 0.7947373,-23.84212 2.384212,-25.431595 3.7750024,-3.775002 18.8750119,-2.781581 27.4184384,1.589475 z"
     id="path14"
     style="fill:#ffffff;stroke:none;stroke-width:0.198684" />
  <path
     d="m 234.7829964,1835.285452 c -18.4776433,4.768424 -20.663171,9.536848 -22.45133,47.088187 -1.5894747,31.392125 -0.3973687,34.37239 12.5171132,34.37239 3.7750023,0 15.8947468,1.78816 27.0210696,4.172372 10.9276385,2.185527 22.6500144,3.775002 26.0276481,3.377633 l 6.1592144,-0.596053 0.596053,-41.922395 c 0.3973687,-34.968443 0,-42.319763 -2.384212,-44.306607 -3.7750024,-3.178949 -37.5513395,-4.569739 -47.4855563,-2.185527 z m 35.3658118,18.676327 c 3.3776337,2.384212 3.3776337,4.371056 1.788159,26.226333 l -1.788159,23.643436 -10.9276385,0.596053 c -6.5565831,0.397368 -14.1065879,-0.596053 -19.2723806,-2.582897 -6.9539518,-2.78158 -8.7421108,-4.569739 -10.5302698,-10.53027 -3.9736867,-14.503956 -0.9934217,-31.789493 6.5565831,-37.15397 5.5631614,-3.775003 29.007913,-4.172371 34.1737058,-0.198685 z"
     id="path15"
     style="fill:#ffffff;stroke:none;stroke-width:0.198684" />
  <path
     d="m 381.213352,1937.607885 c -0.7947374,1.589474 -0.7947374,6.357899 -0.1986844,10.331585 0.3973687,4.172371 1.9868434,17.285537 3.3776338,29.405282 1.192106,11.92106 2.980265,23.246067 3.7750023,24.835542 0.9934217,1.589475 4.5697398,3.576318 8.3447422,4.371055 6.556583,1.589475 51.0618743,0.198685 57.8171417,-1.589474 7.7486891,-2.185528 16.0934312,-45.896082 11.7223759,-61.989513 l -2.3842121,-8.344742 h -40.7302889 c -34.1737057,0 -40.9289732,0.397368 -41.7237105,2.980265 z m 63.5789875,8.940795 c 4.9671084,1.788159 5.1657927,2.384212 5.1657927,19.669749 0,23.444752 -0.596053,24.040805 -25.0342263,24.040805 -24.0408047,0 -27.4184384,-2.582897 -29.6039661,-22.252646 -1.9868433,-18.080274 -1.192106,-20.265802 6.9539518,-21.656592 11.3250072,-1.986844 37.1539708,-1.986844 42.5184479,0.198684 z"
     id="path16"
     style="fill:#ffffff;stroke:none;stroke-width:0.198684" />
  <path
     d="m 609.501654,69.18038903 c -1.788159,1.78815902 -2.5828963,11.32500715 -2.5828963,32.78291547 0,25.8289636 0.3973687,30.796072 3.576318,34.1737058 2.9802651,3.576318 7.3513205,4.172371 44.1079226,6.3578987 86.4276862,4.7684241 90.2026886,4.9671084 93.3816379,0.9934217 3.7750024,-4.5697397 3.9736868,-58.81056347 0.1986844,-63.38030319 -4.3710554,-5.16579274 -50.0684527,-10.72895415 -101.3290114,-12.51711317 -27.4184384,-0.79473735 -35.5644961,-0.59605301 -37.3526552,1.58947469 z m 105.3026981,15.4973782 c 23.643436,1.58947469 25.2329107,2.78158071 25.2329107,21.65659267 0,12.1197445 -2.1855277,19.6697492 -6.7552674,22.6500143 -1.192106,0.7947373 -26.4250167,1.5894747 -56.2276671,1.5894747 -63.9763562,0 -60.2013538,1.5894746 -60.2013538,-24.4381734 0,-24.63685764 -2.1855277,-23.44475163 41.3263419,-23.04738295 20.4644866,0 45.8960816,0.79473734 56.6250357,1.58947468 z"
     id="path17"
     style="fill:#ffffff;stroke:none;stroke-width:0.198684" />
</svg>
