<?xml version="1.0" encoding="UTF-8" standalone="no"?>
<svg
   version="1.0"
   width="357.000000px"
   height="520.000000px"
   viewBox="0 0 357.000000 520.000000"
   preserveAspectRatio="xMidYMid meet"
   id="svg1"
   sodipodi:docname="VOY_TRANSP.svg"
   inkscape:version="1.3.1 (91b66b0783, 2023-11-16)"
   xmlns:inkscape="http://www.inkscape.org/namespaces/inkscape"
   xmlns:sodipodi="http://sodipodi.sourceforge.net/DTD/sodipodi-0.dtd"
   xmlns="http://www.w3.org/2000/svg"
   xmlns:svg="http://www.w3.org/2000/svg">
  <defs
     id="defs1" />
  <metadata
     id="metadata1">
Created by potrace 1.16, written by Peter Selinger 2001-2019
</metadata>
  <sodipodi:namedview
     pagecolor="#222"
     bordercolor="#666666"
     inkscape:deskcolor="#444"
     id="namedview1"
     borderopacity="1.0"
     inkscape:showpageshadow="2"
     inkscape:pageopacity="0.0"
     inkscape:pagecheckerboard="0"
     inkscape:zoom="1.656261653"
     inkscape:cx="207.6966519"
     inkscape:cy="303.0922071"
     inkscape:window-width="2419"
     inkscape:window-height="1417"
     inkscape:window-x="1672"
     inkscape:window-y="4"
     inkscape:window-maximized="1"
     inkscape:current-layer="svg1" />
  <rect
     width="100%"
     height="100%"
     x="0"
     y="0"
     fill="black"
     id="rect1" />
  <path
     d="m 196.8659578,3.343045756 c -3.9648912,0.562417648 -8.6933637,2.549609122 -14.9417022,6.220494257 -1.3397949,0.796881887 -9.0139141,4.773766127 -17.133765,8.883784037 -17.1777095,8.74990431 -19.2755868,10.03305653 -20.5768869,12.61090968 -0.5334104,1.02483819 -2.9610444,5.42111642 -5.4254656,9.77544745 -2.4656208,4.35482981 -5.4703584,9.68611016 -6.6366291,11.90841924 -1.1703233,2.17416498 -2.779072,5.10981335 -3.5869482,6.44280799 -0.807371,1.33329499 -2.5551077,4.35383112 -3.944893,6.66382552 -1.3872869,2.40163056 -2.6030999,4.97773508 -2.7395787,6.000527 -0.2849521,2.18066485 -0.6813957,14.87036441 -1.1323221,39.18122587 -0.3399504,15.8065689 -0.4749333,18.3441281 -1.0543346,19.0542692 -0.3999356,0.4449342 -2.6340948,1.8607135 -4.9995307,3.18701 -7.2735817,4.0243815 -39.26631201,20.8203983 -53.99014752,28.2886 -7.71901337,3.9328948 -16.68713357,8.529338 -19.85509666,10.20898 -9.37060872,4.9062452 -18.02407794,8.7911981 -18.55629677,8.2548803 -0.27995221,-0.2749524 -0.35994994,-9.7088066 -0.29495183,-26.7631835 l 0.10502395,-26.3609468 -9.35086185,-0.035317 -9.3509625,-0.035317 -0.114943926,29.2554017 c -0.08994456,31.0811704 0.23496688,42.3035446 1.343793411,44.0000831 0.349950193,0.5824171 1.773728054,1.4787736 3.110021652,2.0151907 l 2.445124103,1.032338 -0.31495133,9.973467 -0.314951211,9.9731667 27.118329401,0.013492 27.11802917,0.013359 0.0550253,9.5294838 c 0.0699716,5.2544929 0.10502396,20.8398951 0.0800246,34.6883656 l 0.0251311,25.1570815 -25.38154744,-0.00654 c -13.93755656,-0.023544 -25.82752799,0.1149439 -26.36239613,0.2499664 -1.64824631,0.3999354 -2.10117632,1.8612134 -2.257152003,7.6950669 -0.105023964,3.0285345 -0.239966641,5.6545303 -0.379949454,5.8761471 -0.124996359,0.1849681 -0.896865706,0.4849198 -1.695238254,0.6169001 -1.78372643,0.2999517 -3.257000132,1.7697281 -3.977888178,3.8589075 -0.359949954,1.069837 -0.621900079,11.3523043 -0.800373819,34.3733641 l -0.345086518,32.8165928 7.614378726,0.02844 7.61432854,0.028439 0.18996802,-25.29171 0.21996726,-25.2471677 1.29030683,0.094971 c 2.00219234,0.1300227 8.35761399,3.5499534 28.26170396,15.1160757 21.59217886,12.5524192 28.7026859,16.2310038 32.08551583,16.6005963 1.28980419,0.1300227 6.67747316,0.4749334 11.93091461,0.7603882 5.25344272,0.2399667 10.06130313,0.5729068 10.63936453,0.7558778 0.9323541,0.2799522 1.0213463,0.4899197 0.7918819,2.5866015 -0.1249963,1.2468158 -0.8653718,5.1623065 -1.6807412,8.72111 -2.40113071,10.7671943 -2.90905261,14.8616134 -2.95054608,25.5929144 -0.0749987,11.3544036 0.25996592,14.0719351 3.23500208,26.9527046 2.3206435,10.0279575 5.0930177,18.543899 8.0525621,24.7448952 2.0316874,4.3718279 9.5537303,16.6021465 12.1681789,19.8627949 8.685414,10.8543807 13.3412484,15.9487976 18.1805032,19.6632263 5.5090531,4.2468474 9.149344,6.9335837 10.9205708,8.1494468 2.2646517,1.4767737 13.5061735,7.9341805 16.528359,9.4595956 2.7100834,1.3902867 12.3587489,5.3018341 15.4719701,6.294082 3.2904941,1.0358433 14.147175,3.3499843 18.4642108,3.9453931 2.0906792,0.2849522 4.806761,0.7323864 6.0076764,0.9578561 2.8920556,0.5869143 18.1210631,0.6034086 22.9322739,0.060052 19.0673179,-2.2856485 33.0219214,-6.6399291 47.3921112,-14.8219702 14.5486132,-8.2257859 24.5995674,-16.4692179 32.5205998,-26.6355048 2.0141895,-2.6190965 4.2498462,-5.3726231 4.9207434,-6.0825644 1.6537448,-1.8182202 9.4988391,-15.058535 11.8339797,-19.9915253 5.2530921,-11.022655 7.3705167,-17.3376848 10.27167,-30.6408881 1.0888311,-5.0276278 1.7597298,-6.1383565 2.2861484,-3.9538928 0.1849683,0.665391 0.3499504,13.0484433 0.4299348,27.520769 0.03611,14.4275808 0.189968,31.5273004 0.2999517,37.9400642 l 0.2299669,11.7120997 7.1694974,0.026189 7.1248043,0.029497 -0.044046,-59.8028042 c -0.055025,-32.8612965 0.00733,-81.6649914 0.1099175,-108.4267267 0.1499825,-38.6507052 0.064945,-48.6700148 -0.3449505,-48.5827781 -0.3149512,0.030687 -1.8717119,0.022883 -3.473466,-0.013889 l -2.8940545,-0.041533 -0.019048,-42.5253597 0.042326,-42.4805673 3.2505004,-0.1099176 3.2949938,-0.1099173 0.2499662,-32.5054007 c 0.1599822,-17.9001476 0.1749686,-45.1964005 0.049999,-60.69316623 l -0.1649688,-28.14302218 -7.3475702,-0.0281742 -7.3470703,-0.0280413 -0.012499,34.82199531 0.048675,34.8664386 -1.5577607,-0.036904 c -1.5577607,-0.036904 -19.0281735,-7.7776043 -20.5370916,-9.074805 -0.6638964,-0.5809092 -0.7448859,-2.9425476 -0.8273704,-27.3886379 -0.060052,-32.50650117 0.1499825,-30.94714117 -5.7257188,-39.07429097 -3.0130377,-4.1973554 -5.0926166,-7.23403787 -10.051605,-14.51101888 -1.8142203,-2.72358168 -4.2058524,-6.20619587 -5.3138827,-7.81279906 -1.1063307,-1.60825266 -3.1885089,-4.59779233 -4.6047921,-6.69741971 C 289.0558014,30.30355645 288.5238828,29.9016183 272.711814,19.73143204 268.3159917,16.90786078 261.9631678,12.78729412 258.5873377,10.59233087 251.6140594,5.97903791 248.2361791,4.318643946 244.4988541,3.635098762 241.5183116,3.089678028 200.5513621,2.887210205 196.8090875,3.415131504 Z m 47.2290868,15.635396654 c 2.9315492,1.70323797 10.0394056,6.13970557 16.6131952,10.39540054 3.7764192,2.46312234 8.8834837,5.73446859 11.3266582,7.30227802 5.1522578,3.27099584 6.7068692,4.78876303 10.1589881,9.83583737 3.0550297,4.50880671 6.9957735,10.22442662 13.9927482,20.22618908 2.9210508,4.15286203 5.6228355,8.30412355 6.0650675,9.15154225 0.7068976,1.42878034 0.7868821,3.92189768 0.9163625,27.38898823 0.064945,14.2053161 0.1149438,25.9167148 0.085051,25.9610084 -0.2149673,0.3499502 -8.9388749,-2.9750428 -17.7408718,-6.7485122 -5.1123131,-2.2011614 -9.913675,-4.2248507 -10.6700593,-4.4488165 -0.7093844,-0.2199671 -1.9102056,-0.8538642 -2.6225964,-1.4342787 -1.2428082,-1.0288461 -1.2428082,-1.0288461 -0.5239136,-2.7175818 1.4822708,-3.5569533 0.7723853,-4.4498165 -5.1852528,-6.3431747 -2.4916176,-0.7653881 -2.6240966,-0.76638 -4.1408637,0.015476 -1.5607593,0.8378728 -1.5607593,0.8378728 -5.2088991,-0.3349507 -5.470459,-1.75673 -6.2717349,-1.8947087 -7.0765622,-0.961348 -0.35995,0.4449343 -1.6122513,2.7105834 -2.8245655,5.0206781 -1.1688155,2.310144 -2.5131129,4.7107745 -2.9150511,5.3320291 -0.8918659,1.2463135 -10.5369799,7.127754 -12.9439092,7.8756889 -1.9626989,0.6159082 -15.945999,1.139319 -19.2394915,0.7273864 -1.8247199,-0.2199671 -3.7364255,-1.0383431 -7.290929,-3.0575297 -7.3315232,-4.0803734 -8.2640295,-4.7962628 -9.6798114,-7.5164941 -2.8725588,-5.5326992 -5.1752043,-8.9257775 -6.2870836,-9.1971361 -0.6244002,-0.1849682 -2.1386713,0.085051 -3.6544372,0.6094004 -4.6377874,1.6747428 -6.3750707,1.9786959 -8.1097032,1.3937867 -1.3787884,-0.4499341 -2.0481857,-0.3649498 -5.5245513,0.8233757 -2.1841634,0.7473859 -4.1918543,1.5412625 -4.4603136,1.807222 -0.3149513,0.3049514 -0.1249964,1.0688315 0.5244162,2.4516224 1.103328,2.3206436 1.2338137,3.4779661 0.4299348,4.1428636 -0.3049516,0.2199673 -4.5942938,2.0311876 -9.5000892,3.9708897 -12.6658022,4.9827338 -19.8910414,7.9826725 -21.0964564,8.7350065 -0.5344159,0.3549503 -1.2033119,0.5304214 -1.4702738,0.3499504 -0.3099515,-0.1799684 -0.3649367,-9.0853033 -0.2049676,-27.4752253 l 0.2299668,-27.20621577 1.973196,-3.37698086 c 1.0803391,-1.81772027 3.4524693,-6.04282089 5.2909865,-9.33046569 1.8832104,-3.28799399 4.2148523,-7.41980899 5.2011003,-9.10794956 1.0313461,-1.7307333 2.7815722,-5.02097721 3.9913866,-7.42140813 3.2310023,-6.48855269 3.2759957,-6.53279616 19.7845576,-14.97389721 3.9263963,-1.98719545 10.6636099,-5.43576425 14.9468518,-7.64547437 4.283341,-2.21065998 8.699661,-4.28584098 9.8141897,-4.54830032 1.4267805,-0.39493578 8.1508966,-0.54591022 23.8249362,-0.48491998 19.993426,0.0469568 21.9528246,0.085051 23.1967333,0.80438158 z m -55.5661049,89.95556629 c 1.2423054,1.4292802 2.9235509,4.2413475 3.9378946,6.5606406 l 0.8373702,1.9172054 -1.0293488,0.8388779 c -0.5814118,0.4899198 -1.2918013,0.8413647 -1.5607606,0.8378727 -0.7558777,-0.00315 -2.2166584,-2.8595606 -2.9185509,-5.5772429 -0.3049515,-1.2483106 -0.7033925,-2.4086291 -0.8803583,-2.5876016 -0.35995,-0.3949356 -2.0936777,0.3049516 -4.6382857,1.8067218 -1.250308,0.7508913 -1.82872,0.9263624 -2.1836648,0.5689124 -0.797874,-0.806379 0.037433,-1.7352332 3.2649973,-3.6389403 3.3029923,-1.990694 3.9708898,-2.0771811 5.1679055,-0.7358916 z m 66.4339839,0.881866 c 4.4458166,1.7527301 5.9962284,3.9863868 4.3398327,6.250889 -0.6268999,0.8423701 -0.6699013,0.8418674 -2.8050686,-0.013049 -1.1553239,-0.4499341 -2.8900558,-1.0343352 -3.8249125,-1.2623048 -1.6022528,-0.4499341 -1.7802265,-0.4099354 -3.3884792,1.1453242 -1.429779,1.4207819 -3.170012,2.1261729 -3.167012,1.3242964 0.0031,-0.8908606 4.7532694,-8.6205242 5.2878862,-8.6184251 0.3099514,0.00219 1.957699,0.5409103 3.5574531,1.1718179 z m 22.129846,11.7527929 c 3.4229743,1.4387787 8.0912064,3.3704811 10.403001,4.2708426 2.3136436,0.8998683 6.9358335,2.7005851 10.2261276,4.0028849 l 6.0019266,2.3831337 0.7413807,3.7434241 c 0.4349345,2.0511846 1.007352,4.0113832 1.3193008,4.4128215 0.6184081,0.7603881 1.3737898,1.117825 18.5790936,8.8443897 14.3575921,6.4680057 15.2905481,7.0508157 15.4596226,9.3666102 0.1149438,1.6927395 0.1149438,1.6927395 -1.117825,1.3742885 -1.7802266,-0.454934 -4.5797967,-1.7107379 -19.2475904,-8.6242744 -5.3779733,-2.5586062 -11.6900021,-5.3896214 -20.4479564,-9.1190472 -4.5343022,-1.9322036 -13.3356495,-5.8857459 -19.5585921,-8.7594529 -6.2227429,-2.8725589 -11.6902521,-5.3445288 -12.0906402,-5.4796585 -0.5794145,-0.1799683 -1.0243487,0.3499502 -1.8817103,2.2616532 -1.4807723,3.2445006 -5.4142675,7.3725655 -9.4337498,9.7595987 -12.3631495,7.3884145 -18.7898601,11.0593987 -20.4394064,11.5426747 -2.5871029,0.7453885 -22.6696639,1.1133276 -27.0309431,0.5179215 -4.6732824,-0.6853905 -7.6515247,-1.9901927 -17.9143457,-7.9516271 -11.1517346,-6.4997997 -11.4622879,-6.7238659 -12.7883331,-9.3560601 -0.5729069,-1.1598211 -1.3272964,-2.4106304 -1.6362492,-2.7220818 -0.2749525,-0.3149511 -0.5304212,-0.8053736 -0.5289135,-1.0268355 0.0032,-0.7558911 -1.9022071,-3.0795263 -2.4831176,-3.0815265 -0.7553882,-0.00285 -6.2889328,2.6020998 -37.8743757,17.7534205 -8.0744581,3.8874013 -19.9416339,9.5407824 -26.3206024,12.4992276 -6.3795189,3.0045378 -15.12317476,7.1550494 -19.40606604,9.2312304 -4.28284102,2.076181 -8.16394492,3.7974158 -8.56448238,3.7964159 -1.33679487,-0.00549 -0.9273543,-1.785225 0.7683774,-3.3364873 1.87921042,-1.7732267 3.84090933,-2.8795561 19.32312912,-10.7899409 6.6924701,-3.4469694 14.5457626,-7.5133936 17.4017228,-9.0608558 2.8575607,-1.5457622 7.2286387,-3.845909 9.6823616,-5.0832689 5.4432124,-2.784072 6.9185365,-4.2478459 6.9284343,-6.7412624 0.00351,-0.9798528 0.224967,-2.226658 0.4999195,-2.7140832 0.6264106,-1.1113305 6.0255739,-3.6724354 18.0226785,-8.4351529 9.7671978,-3.9248963 14.5828581,-5.5984883 15.8296159,-5.5936895 0.4399345,0.0043 1.0683423,0.7578883 1.5502609,1.8312184 1.0598372,2.3206436 2.3931323,3.2599989 3.8624061,2.6900867 0.6249027,-0.2099674 1.2918015,-0.2699526 1.5577608,-0.1149438 0.2749524,0.184968 1.1943173,1.7397328 2.0786808,3.5254579 1.7217349,3.4799647 2.343639,4.0168831 9.1420941,7.9616254 2.0871793,1.2103091 6.3978159,3.7204286 9.5964236,5.6479328 8.4413021,5.0202272 7.8629908,4.8842483 22.1118506,4.9402401 16.1191711,0.064945 14.2469592,0.5899036 29.7332277,-8.2559807 9.5946736,-5.439813 10.7119021,-6.3703207 12.7318916,-10.5479784 1.5707591,-3.3334872 1.6167511,-3.3779807 3.0400329,-3.1510151 1.9127055,0.2849523 3.3409859,-0.3449502 3.8809028,-1.6772427 0.2799522,-0.6219001 0.6304051,-1.6012528 0.8988631,-2.2241568 0.2149672,-0.6264105 0.6263974,-1.1113306 0.8043816,-1.1108279 0.2149673,-9.51e-4 3.2010072,1.170813 6.5798383,2.6090983 z m -92.5692635,-1.7392331 c 0.031613,0.4449344 0.1799682,1.5157673 0.3449503,2.4061307 0.2699527,1.4267802 0.1749685,1.6932395 -1.1233274,2.7580753 -1.789725,1.5062689 -2.3651357,1.5057688 -3.5179582,0.019443 -1.37229,-1.7872251 -1.1488294,-2.498616 1.4422772,-4.2698427 2.7230816,-1.9037072 2.7695736,-1.9032085 2.8545607,-0.9228572 z m 17.2623446,3.8519078 c 3.2435018,1.7947234 6.7101679,3.455468 8.1785925,3.7724192 1.602753,0.4049354 5.5636945,0.644902 11.218574,0.6674014 l 8.7724514,0.033068 0.2699525,1.069837 c 0.1199703,0.5839117 0.3949358,1.4267803 0.5269161,1.8277186 0.2749523,0.6234079 -0.00575,0.7108922 -1.6492461,0.6169002 -4.4963085,-0.2899521 -5.7440173,-0.049999 -6.1943484,1.1773206 -0.2799521,0.6643989 -0.3649497,1.8697121 -0.1949678,2.715082 0.4349345,2.2721503 1.5932544,2.6335948 6.5382444,2.0281877 4.7667663,-0.5589126 4.988732,-0.4699338 5.4220159,2.6940863 0.2699526,1.7827252 0.1749686,2.1386714 -0.5874036,2.5356096 -1.0713318,0.5769146 -27.6555481,0.7373863 -28.5441615,0.1999679 -0.3999358,-0.2749525 -0.3549502,-0.5344159 0.2199671,-1.200812 0.6279051,-0.7083923 1.382287,-0.83987 4.5892939,-0.8273704 4.0518768,0.016136 5.7464168,-0.5124191 4.502307,-1.3187981 -0.3499503,-0.2149674 -2.0471845,-0.454934 -3.7834175,-0.4599338 -3.2505006,-0.010252 -4.540302,-0.4649337 -4.0468784,-1.3068011 0.2199674,-0.3099514 1.9162055,-0.4799199 4.5438018,-0.4749334 l 4.1858558,0.016271 0.038491,-1.9137055 c 0.1050239,-2.8045688 -0.074998,-4.4973085 -0.4249349,-4.8997466 -0.1799685,-0.1799683 -1.6022541,-0.4499342 -3.2030085,-0.5889116 -3.3834792,-0.3699497 -3.0270345,-0.5869144 -5.9859784,4.9197433 -1.1703235,2.1741663 -2.5551076,4.48731 -3.1365183,5.0642723 -1.0733288,1.0648371 -1.1208275,1.0603397 -2.9415474,0.3499502 -2.6225966,-1.0338458 -15.8183176,-8.833341 -17.2376985,-10.1749849 l -1.1533267,-1.1173223 1.247808,-0.1199705 c 0.8453725,-0.089944 3.0695267,0.813376 7.2465349,3.0115377 3.2884939,1.7482302 6.2662867,3.1850102 6.6224813,3.1875089 0.9343515,0.00361 0.8473699,-0.8423701 -0.089944,-1.2013147 -1.9117068,-0.7208919 -9.9066764,-6.0498193 -9.6823112,-6.4496082 0.1849682,-0.2149673 3.201507,1.1243329 6.756361,3.0555299 7.1547997,3.7684207 7.1993935,3.7679207 8.902781,0.7883767 2.0631827,-3.5544545 1.5317641,-4.3578308 -4.8242581,-7.5445407 -2.4896174,-1.2103092 -3.4654676,-1.9272038 -3.4629678,-2.5086142 0.006,-1.4257806 1.4722738,-0.9743504 7.3385216,2.3876334 z m 44.4935079,-2.3216435 c 0.1849683,0.3999354 0.2099675,0.8023843 0.1799685,0.8453723 -0.094972,0.025793 -2.5436093,1.5047691 -5.4895061,3.2290038 -2.9470462,1.7242348 -5.5800419,3.5404563 -5.893894,4.0293814 -0.3599499,0.5769146 -0.4049354,1.2893015 -0.1949679,2.13817 0.7033925,2.3626369 1.0123386,2.8090686 1.9492006,2.8125686 1.0233436,0.00376 7.1809957,-3.0010394 11.6442086,-5.6990742 1.6502462,-0.973345 3.4799647,-1.8122217 4.0148831,-1.8092219 0.9803553,0.00386 3.373481,2.1081763 3.3729811,2.9535461 -0.00674,1.6927396 -14.3341459,10.3641555 -17.0503282,10.3536082 -0.4899198,-0.00545 -1.2862991,-0.8083763 -2.040686,-2.0576842 -0.6604043,-1.1633263 -1.636248,-2.7230817 -2.1681664,-3.4814648 -1.5492624,-2.1876632 -2.786572,-4.819758 -2.7810722,-6.1559537 0.00341,-1.0228409 0.5849037,-1.5107673 4.3788264,-3.8124128 2.3651358,-1.4597754 4.9542384,-2.9635443 5.6678778,-3.3174904 1.7857252,-0.9728556 4.0553768,-0.9648533 4.408823,-0.015078 z m 13.9349073,0.7223866 c 0.3549502,0.3599499 0.2749523,0.8918658 -0.3649498,1.9581989 -1.1648211,1.956699 -1.9222039,2.531111 -2.8135672,2.1706663 -0.9773527,-0.3599499 -0.6154055,-2.1836646 0.726884,-3.6489386 1.0733288,-1.064837 1.697238,-1.2408107 2.4501225,-0.47992 z m -85.5861894,11.7342959 c 1.7682282,3.4359713 3.8084155,5.4918049 7.0077228,7.1522003 1.4222821,0.718392 5.7761118,3.3174891 9.596224,5.7367674 3.8199126,2.4211274 8.1738931,5.0189283 9.5958245,5.737118 4.3998244,2.2446552 6.2245934,2.4296259 20.8752908,2.3091452 11.1323873,-0.080025 13.6269043,-0.259966 14.9204556,-0.8328729 1.8742106,-0.8833606 16.6018967,-9.5092871 21.8245426,-12.8285263 3.0805264,-1.9482006 4.152862,-2.9665442 6.3910675,-5.9865301 1.703238,-2.3981308 2.9545458,-3.6844337 3.4889643,-3.6819338 0.4899198,0.0054 5.1134627,1.8907088 10.3142138,4.2258506 5.2008001,2.2906472 10.7577949,4.7612678 12.3578998,5.4363636 3.6449388,1.5287654 18.2252466,8.1307501 22.6699627,10.2410253 4.7562692,2.2456549 15.3352426,7.0058724 21.2479825,9.5227351 l 4.9787349,2.1581681 0.022354,2.0491858 c 0.026454,1.1128253 0.1549824,7.3478191 0.3049516,13.8498198 l 0.2299669,11.8008349 2.7615752,0.1300228 2.8040691,0.1300228 -0.2899522,42.613246 -0.2599659,42.6135475 -2.7160833,0.1099176 -2.7165818,0.1149439 0.049733,34.5995785 c 0.018253,19.0138761 -0.1050239,34.8212452 -0.3199511,35.1322482 -0.4899199,0.664399 -8.509591,1.214317 -12.2039227,0.7973712 l -2.8500621,-0.3249509 -2.1656665,-4.1048687 c -4.8182597,-9.1038002 -8.0958054,-13.7027935 -9.8321377,-13.7096914 -2.3166436,-0.00921 -3.2854955,-2.1526696 -9.6704136,-20.9663769 -2.5970999,-7.6245266 -3.5669516,-10.2555727 -5.0678212,-13.6010081 -1.5012689,-3.4334712 -5.4664087,-14.1814688 -7.2266385,-19.6208825 -0.880861,-2.7195819 -1.8942086,-5.3064346 -2.293647,-5.7979588 -0.6219001,-0.8458751 -1.330295,-0.9003576 -14.3340955,-1.1678236 l -13.6694982,-0.2649659 -0.1050239,-4.94324 -0.1050239,-4.9432401 -3.3819795,-0.3249508 c -1.8702133,-0.1300228 -20.1703984,-0.3549501 -40.7425353,-0.4349347 l -37.3596048,-0.1449826 0.2949519,5.3450791 c 0.259966,4.4093214 0.1949678,5.3439281 -0.3349508,5.3866215 -0.35495,0.031746 -6.0115757,0.0084 -12.5567694,-0.048809 -6.5906359,-0.055025 -12.5127752,-0.017196 -13.1812228,0.1349829 -0.9348541,0.1799684 -1.4712736,0.7498859 -2.0581841,2.1301728 -0.454934,1.0188465 -1.032338,2.4451241 -1.3917854,3.2010071 -0.3149512,0.7138949 -1.0798365,2.7115835 -1.75273,4.4458166 -0.6733933,1.689741 -1.3927866,3.5124597 -1.5742588,4.0008848 -0.2149674,0.4899197 -1.3502919,3.4679664 -2.4746194,6.6697751 -3.2859941,9.1601913 -7.1551499,19.3422252 -8.3688623,22.2318311 -0.2149674,0.4899198 -1.2138143,3.2015073 -2.1621681,6.003027 -4.5937936,13.2961043 -4.7727659,13.5627632 -6.8638937,13.0645408 -0.8038789,-0.1199704 -1.5577607,-0.036904 -2.0046922,0.3499503 -0.8433751,0.6674014 -4.3423328,5.9944783 -7.4803496,11.3257574 -3.3614826,5.6868258 -1.7127364,5.248243 -17.07242538,4.5647985 -7.30152682,-0.3449505 -14.46942495,-0.637905 -15.93879802,-0.6848878 l -2.67208976,-0.099997 0.15998218,-41.6339978 c 0.0899445,-22.8877303 0.0550253,-61.1828916 -0.0699716,-85.0958132 l -0.23496676,-43.4611171 1.42978029,-0.974853 c 0.75638036,-0.5324185 5.44406293,-2.9620443 10.44059376,-5.3474771 9.05615729,-4.3283344 10.08220049,-4.8142596 19.49455279,-9.0527077 7.003223,-3.1340183 9.3677092,-4.2383489 17.3975747,-8.0811074 3.7919159,-1.8097217 10.4389443,-4.9022464 14.7217364,-6.933934 4.282341,-1.9861942 12.1343333,-5.7859103 17.3988737,-8.348117 5.2641912,-2.6065983 9.9922139,-4.6367858 10.481988,-4.5902938 0.5784093,0.094971 1.3747886,1.0738314 2.2596533,2.6820881 z M 73.86752213,200.2629627 c -0.005804,9.3509121 -0.18496813,15.3619879 -0.46493363,15.895106 -0.44993414,0.7988793 -1.51826723,0.8388781 -27.61110494,0.7838797 -18.39027114,-0.074998 -27.47367514,-0.2299669 -28.05123519,-0.554918 -0.75388043,-0.4049354 -0.88936601,-0.9353565 -0.83037293,-3.6989306 0.006648,-1.7817263 0.19996775,-3.561953 0.32995083,-3.9623911 0.18496813,-0.4499342 1.78972488,-1.5062677 3.61644358,-2.3446389 1.78572498,-0.8838635 3.79191724,-1.9452008 4.46231333,-2.3881337 0.6274026,-0.4399346 5.48905636,-3.1850102 10.75509664,-6.1035612 5.26568973,-2.9200508 12.80757985,-7.1636987 16.7348266,-9.4196006 3.92739623,-2.2556534 10.17473505,-5.6603305 13.83347241,-7.5606872 l 6.6925216,-3.4474709 0.25995283,3.8744042 c 0.17496852,2.1381714 0.26995259,10.6436635 0.28495221,18.9261896 z m 5.18375299,52.5197745 c -0.0649452,16.4755655 -0.094971,32.1054623 -0.0121531,34.7329079 l 0.0749981,4.8092611 -2.22765678,0.019179 c -4.45381491,0.1050237 -9.75155014,-0.069972 -10.06200275,-0.4399344 -0.39993565,-0.3549502 -0.85037243,-67.3758893 -0.48991984,-68.3097463 0.18496827,-0.4499341 1.69523962,-0.6169001 6.54894385,-0.6873876 l 6.27913416,-0.094971 z m 174.73567978,10.5650742 c 0.3049515,1.6042541 0.5369157,22.3113196 0.2649525,23.3789053 -0.2199671,0.8438647 -0.4899196,0.9788476 -1.4282803,0.7503885 -16.6396903,-3.6714354 -22.2917711,-4.4948086 -31.8655988,-4.4883102 -8.9502241,-0.034919 -17.3254354,0.9123549 -27.9765985,3.1860105 -3.4304714,0.6998873 -6.282683,1.1768178 -6.3716699,1.0878389 -0.1199703,-0.1199703 -0.3349505,-5.7455158 -0.4399344,-12.4699824 l -0.2299668,-12.2909095 3.0735278,-0.1149441 c 1.6937397,-0.085051 16.9659907,-0.1149438 33.9312816,-0.055025 l 30.8138118,0.089944 z m 30.1953559,10.2700709 c 0.6188975,0.9838474 6.3063807,15.7878221 10.4034995,27.1142304 1.0123387,2.8090686 2.4226275,6.6443287 3.0840263,8.4727972 1.6297496,4.2808423 1.8932089,5.3510774 1.4477771,5.3489769 -0.2149673,9.498e-4 -1.9531988,-1.4357786 -3.9063994,-3.1765104 -6.3455238,-5.6798272 -16.5580526,-12.5799158 -24.6483595,-16.7498249 -2.3106439,-1.1688155 -4.4883099,-2.3336404 -4.7542679,-2.6030995 -0.4449344,-0.3099515 -0.5669149,-2.7645753 -0.540421,-9.4867417 0.041003,-10.5085335 -0.5869142,-9.4423474 5.8256035,-9.5959236 2.0926778,-0.085051 5.7448162,-0.1599689 8.1051543,-0.2449665 4.097369,-0.1099175 4.3643282,-0.080025 4.9837337,0.9103574 z m -109.721077,0.3749364 c 0.2799524,0.5304212 0.3849361,4.1423621 0.3199512,9.441248 l -0.1549823,8.593778 -5.5771926,2.8730589 c -6.8715933,3.5354564 -11.6475087,6.5448935 -18.2571414,11.4619373 -7.5919826,5.7146702 -8.5741819,6.379069 -8.8844838,6.021574 -0.711395,-0.667904 -0.014417,-4.1403636 1.2273061,-6.6299308 0.7598854,-1.466774 1.3912853,-2.9345492 1.3917852,-3.2460005 0.00224,-0.3099515 0.3599499,-1.4242818 0.8548696,-2.4916175 1.0783288,-2.4011307 2.5636061,-6.5801875 3.3764809,-9.4269497 0.35995,-1.2448054 1.4452786,-5.1156636 2.4391255,-8.5846801 1.0838314,-3.8699045 2.1186733,-6.7601599 2.6555916,-7.2921289 1.1623211,-1.153816 3.8349095,-1.4537769 12.6964971,-1.5077674 6.9471321,-0.064945 7.4810494,-0.0017 7.9235314,0.7858768 z m 49.2421771,47.6150279 -0.089944,23.3774543 -3.7849189,-0.015873 -3.7844175,-0.015873 -0.00728,-5.9222396 c 0.012548,-3.206507 0.02275,-13.7593845 -0.0014,-23.3331618 l -0.024074,-17.5003591 3.919398,0.016005 3.8739042,0.014285 z m -12.9405098,-15.8585622 c -0.134983,3.6959321 -0.384936,6.8116029 -0.5154218,6.944582 -0.5399184,0.5734093 -2.5366095,-0.3649367 -10.4896373,-4.9387402 -4.6202891,-2.6450931 -7.9077342,-4.7957629 -7.5505884,-4.9282418 2.6305951,-0.9233596 15.6881372,-3.5899483 18.1821039,-3.7139289 0.4899197,-0.029761 0.5764121,1.1143332 0.3749362,6.6361292 z m 21.9321769,-6.1487542 c 1.6022543,0.2799522 5.6506814,1.1353244 9.0322613,1.9057071 4.7157743,1.1303246 6.0051763,1.5382639 5.5586457,1.9357021 -0.5399185,0.4849201 -3.9733897,2.5226126 -12.8542241,7.6086806 -1.8292186,1.0623372 -3.658937,1.9002071 -4.0593752,1.8987073 -0.6229054,-5e-4 -0.7998712,-0.8458751 -1.2288139,-4.8142596 -0.4299348,-4.3208347 -0.636397,-7.7952016 -0.5009248,-8.6854141 0.030423,-0.4049355 0.5834091,-0.3949358 4.0518781,0.1349829 z m -158.79138055,0.094971 c 0.35495021,0.9353565 0.23996664,30.325237 -0.1349828,34.598679 -0.18996815,1.9137067 -0.5024194,3.4269741 -0.72589188,3.4254741 -0.89136319,-0.00346 -9.06715575,-4.2653442 -14.44262937,-7.5814339 -5.6412318,-3.4514695 -22.70325802,-13.1799739 -39.76573396,-22.5976752 -1.02134638,-0.6259079 -1.19482013,-1.0293486 -1.45227699,-4.0578766 -0.17496851,-1.8257186 -0.19996789,-3.6519386 -0.0153441,-4.0523768 0.21996714,-0.5759093 3.56445165,-0.6529045 28.2779005,-0.5569152 25.11423905,0.094971 28.00819406,0.1999679 28.27270229,0.8248706 z M 197.9790367,312.557873 c 8.4861951,4.8867482 12.6174096,7.4853495 12.7930328,8.1096529 0.3499502,1.20232 0.1949679,20.7514095 -0.224967,26.1822745 -0.229967,3.9178965 -0.3749362,4.4518151 -1.3562917,5.1606054 -1.6517462,1.2408109 -23.7871422,13.622456 -24.901671,13.9742011 -0.6259079,0.1799684 -1.6927397,-0.099998 -2.8915543,-0.6783932 -2.8000702,-1.4362802 -21.7264092,-12.4633835 -22.969568,-13.4029397 -0.8883606,-0.6703907 -1.1038306,-1.3457932 -1.3612915,-4.6812794 -0.2999516,-3.0280345 -0.5704068,-24.8046857 -0.384936,-27.2977528 0.031083,-0.3049515 1.6072527,-1.331795 3.5264568,-2.3026453 1.9177052,-0.9728556 6.6932716,-3.58045 10.6211666,-5.8364036 10.5770739,-6.0591179 12.6736022,-7.0754617 13.6967935,-6.7597102 0.4849201,0.1300227 6.5318466,3.543455 13.4630308,7.5331416 z m 62.0945507,-5.3247303 c 2.0911779,1.162321 4.48731,2.5556063 5.3317301,3.0495299 0.8433753,0.4899198 4.7542693,2.7345801 8.6638183,5.0208292 3.910398,2.2431551 7.3747653,4.4368167 7.6849177,4.8392549 0.5754068,0.8028736 0.6349024,20.0849116 0.080025,27.2965531 l -0.3249509,3.7839176 -2.4546225,1.5942545 c -5.4913049,3.6304417 -20.7988512,12.3872453 -22.403854,12.8708213 -2.362637,0.7038952 -2.7635752,0.4799202 -25.1090896,-12.7883329 -1.2853071,-0.7633777 -2.4466242,-1.6517462 -2.5766032,-2.0586843 -0.1249963,-0.3499502 -0.3749363,-7.5269924 -0.4749333,-15.8987051 l -0.2149675,-15.2299085 1.9641976,-0.9728555 c 1.650246,-0.8388647 11.6918527,-6.5002006 21.7777014,-12.2499664 1.3832868,-0.796379 2.899554,-1.4567754 3.389979,-1.4547755 0.4899198,0.00545 2.5801031,0.990342 4.6667825,2.1996616 z m 31.790412,23.7684444 c 4.7892629,5.1841034 7.7141629,8.7133603 7.712114,9.2919217 -4.008e-4,0.4449343 -4.4208212,3.1890088 -10.1773353,6.3279766 -1.6502463,0.8843662 -2.0061911,0.9263623 -2.3181437,0.3899359 -0.2749524,-0.3499501 -0.424935,-5.2555418 -0.4049356,-10.8221356 0.045766,-11.7999355 -0.4899197,-11.2675673 5.1855533,-5.1895028 z m -140.1106549,5.6003891 c -0.021693,5.6106865 -0.1649688,10.3301115 -0.3149513,10.4631407 -0.2749523,0.2799522 -11.8674745,-5.5680434 -12.7996315,-6.4174635 -0.5784094,-0.5759094 11.7203477,-14.204865 12.7906331,-14.1995662 0.2149675,-8.994e-4 0.3399506,4.5882952 0.3149512,10.1538388 z m 153.2711808,11.0158562 c 0.8853582,1.5607593 1.6347482,3.1230187 1.6327479,3.5244568 -4.998e-4,0.6229055 -3.8879011,3.5019628 -4.6452854,3.4989627 -0.1199704,2e-4 -4.1948542,2.3426391 -9.0597062,5.2191977 -17.9867841,10.6614606 -25.0380495,14.6861913 -25.7059469,14.6835922 -0.2149673,9.498e-4 -4.740271,-6.1640024 -4.739271,-6.4306113 -10e-4,-0.2149673 6.159902,-3.8949011 14.2826539,-8.58338 3.7939159,-2.1666678 10.3537577,-5.9265887 14.5488617,-8.314922 10.264772,-5.8821959 11.0232555,-6.3246276 11.6023157,-6.366871 0.2799521,0.00249 1.195812,1.2528077 2.0816807,2.7700736 z m -166.4441548,-1.449277 c 1.2433108,0.5844145 6.8425979,3.7669207 12.4403866,7.0839601 5.6426327,3.3164893 13.4621298,7.8003007 17.416622,9.9977626 3.9548914,2.2426552 7.2862295,4.2588444 7.3743154,4.4818103 0.2099676,0.4449343 -2.6485917,5.5558453 -3.6324403,6.5316957 -0.3599499,0.3499501 -8.6668671,-4.130864 -26.5273716,-14.4862221 -3.1530151,-1.838717 -7.7309602,-4.4828101 -10.0854981,-5.8279541 -2.4016307,-1.2982959 -4.3533311,-2.6895866 -4.3528312,-2.999538 0.004,-1.0688316 3.5849484,-5.8640482 4.3848263,-5.8624491 0.3999355,0.00224 1.7802252,0.5009248 2.9795411,1.0813314 z m 170.9879554,12.3760455 c 0.970845,2.3641371 4.0938703,12.1278349 4.3993231,13.8212254 0.2099676,1.1133278 0.114944,1.4692739 -0.3599499,1.4672738 -1.2473054,-0.00509 -17.2396998,-9.6409167 -17.2365001,-10.398001 0.00315,-0.1799683 0.6718987,-0.6189108 1.4727738,-1.016849 0.7598854,-0.3499503 3.4359712,-1.7227348 5.890144,-3.0940247 2.4536225,-1.3267951 4.5957938,-2.4306258 4.7742661,-2.4296259 0.1799682,0.0032 0.6638962,0.7583777 1.0628397,1.6512462 z m -170.5148778,3.3444859 c 1.2857963,0.8968657 2.3086451,1.8347183 2.2191584,2.058184 -0.35995,1.069837 -17.7182258,10.3510581 -17.7149255,9.5048879 -0.00285,-0.3499501 5.3609251,-15.876059 5.6295841,-16.3201903 0.3149511,-0.5309239 6.1359068,2.2946469 9.8671328,4.7587678 z m 75.7343035,2.4746192 c -0.1349829,2.8505622 0.114944,2.5836031 -5.1838535,4.7892643 -5.0844673,2.072681 -8.1199502,3.9758884 -11.5614212,7.2129406 -2.5931014,2.4381243 -3.0400329,2.7035837 -3.8829029,2.2556533 -1.871212,-0.9828552 -3.3774808,-2.2381565 -3.3764808,-2.7715737 0.00381,-0.9803553 5.3699234,-6.4351111 8.1367486,-8.295125 4.0183818,-2.7460771 11.5102296,-5.5215011 14.9839961,-5.6415822 0.9808448,-0.027249 1.0223382,0.094971 0.8813636,2.4521223 z m 14.6115531,-1.500769 c 6.2275919,1.6277495 10.7152023,4.2723427 15.6385949,9.144844 1.7297335,1.7877251 3.1920088,3.5744502 3.1905088,3.9753883 -0.00229,0.3999356 -0.9403565,1.3317951 -2.1016763,2.040186 -2.4116291,1.5052688 -1.702738,1.8157216 -6.9349829,-3.0100363 -3.2824955,-3.0855264 -6.5281972,-4.9212434 -11.6854536,-6.6354798 -1.9117054,-0.6309079 -3.6904321,-1.3507918 -4.0463782,-1.619251 -0.6638961,-0.5814119 -0.7478886,-2.0951779 -0.1099175,-3.6964319 0.5404211,-1.4227806 1.3422935,-1.4632754 6.0569687,-0.1899682 z m 110.6647322,8.9353764 c 0.1649688,12.7803837 -0.3649497,13.6244044 -2.3311418,3.9093982 -0.5244161,-2.5866014 -1.3547917,-6.3288271 -1.838717,-8.3342179 -0.4799333,-2.0511843 -0.7858769,-4.0113831 -0.606411,-4.3668294 0.1849681,-0.4899197 0.8958605,-0.6613962 2.4511225,-0.6574017 l 2.2266582,0.010799 z m -46.6972686,-3.5659514 c 1.2468028,0.6693985 4.7097745,2.645093 7.6416239,4.4383166 2.9360492,1.7892249 7.4194599,4.3923247 9.9967125,5.7829605 2.5761044,1.3912867 4.976235,2.870559 5.3309311,3.2265039 0.572907,0.5399183 0.7003899,3.0320343 0.7848849,15.3656875 -8.491e-4,8.0594611 -0.060052,15.1397217 -0.1849682,15.7625754 -0.1249964,0.5779067 -0.8073709,1.3327963 -1.5202658,1.6412478 -0.6708934,0.3499502 -3.7039304,2.0346875 -6.7835072,3.7584224 -13.3875908,7.4734013 -17.0912225,9.4182024 -17.9815844,9.4148016 -1.2473053,-0.00519 -23.8642313,-12.3384518 -25.5945148,-13.9483538 -0.7108921,-0.6679042 -0.8838635,-1.739233 -1.1278248,-7.8858881 -0.2849522,-6.6808224 0.080025,-20.7058659 0.5789119,-23.2419755 0.1849682,-0.8913633 1.5677593,-1.8627136 7.4117102,-5.091917 3.9718895,-2.21166 8.9256782,-5.0416749 11.0235543,-6.3694701 4.4193215,-2.7450784 6.6952718,-3.9813881 7.5410409,-4.0223816 0.3099514,0.00219 1.6017543,0.5424182 2.889556,1.1693182 z m -139.5166455,1.7737266 c 11.2416712,6.1888986 18.0839188,10.1341912 19.2382916,11.0287039 1.4212807,1.1178249 1.715735,5.1718551 1.4852708,18.6635806 l -0.2349667,12.8233771 -1.1148225,1.020341 c -0.5809093,0.5764119 -3.5714514,2.3911322 -6.6506776,4.0263802 -3.0785267,1.6347492 -7.8984858,4.3328342 -10.7097528,5.9699327 -2.8115684,1.635248 -5.8017576,3.3169892 -6.5602913,3.7149288 l -1.4712739,0.7068978 -5.6436324,-3.0510313 c -3.1555139,-1.7047382 -9.3319141,-4.9787338 -13.7756818,-7.3115754 l -8.132299,-4.217351 0.089944,-15.1395219 c 0.032407,-8.3267698 0.2449665,-15.4953175 0.3699365,-15.9400996 0.1849682,-0.3999355 2.055683,-1.7277333 4.1073672,-2.9240494 15.0396373,-8.4908946 22.1794903,-12.42619 22.7582513,-12.4239402 0.3549502,3.003e-4 3.1565136,1.3917867 6.2220934,3.0505313 z m 72.2094447,4.3328343 c 6.9396337,1.8092218 11.5123805,5.2991849 14.4740253,11.0987932 2.122173,4.2383476 2.7350788,6.9129861 2.714082,12.345101 -0.021164,5.3884218 -1.1038307,8.9460746 -4.1038688,13.3429984 -4.6582839,6.9730771 -10.1012965,9.5788261 -19.8083042,9.5412321 -7.6587214,-0.030158 -12.7279421,-1.8742107 -16.8526078,-6.1213583 -2.530111,-2.5451079 -5.225097,-7.501296 -5.9690822,-10.8885252 -1.0933284,-4.94674 -0.3099514,-12.5136758 1.7592299,-17.0477781 4.5807953,-10.0012625 16.4457199,-15.2094618 27.7895758,-12.2710636 z m -36.5981215,10.188433 c 1.5107674,0.7628883 1.7752266,1.0793341 1.5502623,1.8772107 -1.3087984,4.7597677 -1.7257348,8.3643638 -1.5197671,13.1745242 0.1100491,2.8515622 0.5534099,6.1465547 0.9053575,7.3510703 0.3949358,1.1598212 0.5684096,2.3621358 0.4349345,2.5851015 -0.4449343,0.6654041 -3.8369108,2.0771809 -4.4598147,1.8072218 -0.7143974,-0.2749523 -2.2461551,-6.2427397 -2.5876015,-10.1626863 -0.2949518,-3.7854176 0.4499342,-12.1100379 1.3957852,-15.2681018 0.8123708,-2.6700898 1.4367789,-2.8455637 4.2803412,-1.3627914 z m 63.5436278,-0.1100492 c 1.1493189,1.3877868 1.8462169,6.4194635 1.8202202,13.0987355 -0.023678,6.0117252 -0.1499825,7.1686985 -1.1523214,10.3263126 -0.9448537,2.8470623 -1.3507918,3.6019455 -2.0171893,3.5984468 -1.0233436,-0.00371 -4.0023848,-1.3947853 -4.0003848,-1.8412168 0.00315,-0.1799685 0.35995,-1.6022541 0.7678746,-3.1580149 1.1278247,-4.0033848 1.0333433,-13.7110421 -0.1449826,-17.8122111 -0.9213623,-3.2994923 -0.878361,-3.4324714 1.4852721,-4.2693427 1.873712,-0.6164109 2.7185819,-0.6129058 3.2505004,0.045236 z m -56.0168351,34.1142036 c 3.9058995,3.0885263 9.0610065,5.912941 13.3742937,7.3996629 2.1786647,0.7213944 4.1348637,1.6197508 4.3118363,1.9307023 0.5754066,0.8918659 0.4349345,3.2080069 -0.1999679,4.1413636 -0.5374184,0.6643989 -0.9853419,0.7508911 -2.5406094,0.4799332 -3.1150203,-0.5014274 -8.6271235,-2.8845572 -12.3140068,-5.3025855 -3.7324257,-2.460621 -9.5866249,-7.8311952 -9.1848375,-8.4514499 0.2099675,-0.3949357 3.2589988,-2.125673 3.7929174,-2.1671664 0.1199703,-1.006e-4 1.3782883,0.8933604 2.7545767,1.9706972 z m 49.6082709,-0.69789 c 1.0643345,0.9393512 1.152824,1.2063145 0.7928741,2.3196436 -0.6304052,1.7787266 -6.3922169,6.3873175 -10.899373,8.7296072 -4.3728278,2.2541535 -9.6780126,3.9698897 -11.7699404,3.7389255 -1.4252804,-0.1300226 -1.4252804,-0.1300226 -1.4152821,-2.5896013 l 0.0094,-2.449124 4.2353489,-1.4522769 c 4.503807,-1.5402627 9.6351183,-4.3263347 13.476828,-7.4284571 2.7245801,-2.2171597 3.8389092,-2.3901323 5.569993,-0.8698691 z m -112.7792562,8.0666595 c 4.3098364,2.5121141 7.7297116,4.7502707 7.6393742,5.0613226 -0.1249963,0.7108922 -11.4720853,7.1245038 -12.1389828,6.8993888 -0.35995,-0.1899682 -5.9477348,-16.3652342 -5.9440854,-17.3004401 0.0054,-0.4899198 2.6235964,0.8548695 10.4432431,5.3405289 z m 39.6437536,-3.3189893 c 0.6618989,1.2033119 1.5477609,2.5006159 1.9482005,2.9445477 0.661899,0.8073708 0.6194002,0.8943658 -0.630405,1.7787265 -0.7163949,0.5299186 -3.2140055,2.0801795 -5.5793925,3.4514696 -2.3216422,1.3707886 -9.2386283,5.3964689 -15.3081957,8.9799691 -10.8900756,6.3696195 -18.1640568,10.4380434 -18.7429673,10.4357446 -0.2149674,9.496e-4 -4.2078525,-5.7603145 -4.6492856,-6.7419635 -0.094971,-0.1799683 0.6279052,-0.7083923 1.5632605,-1.1938147 4.0163819,-2.0771811 16.110272,-9.0213132 28.249756,-16.1431175 5.4447627,-3.1855102 10.1746346,-5.6157366 11.0205043,-5.6124867 0.6663961,0.00285 1.2893015,0.6263973 2.1291729,2.1016762 z m 99.3864166,0.7428887 c 4.9767337,2.6465933 10.0857482,5.6946246 16.4378219,9.7268036 2.2631517,1.43728 4.1758574,2.5996011 4.3088376,2.6006009 0.1799685,0.0032 10.0419055,5.6497807 11.7297459,6.7250156 0.5339132,0.3549501 0.9758449,0.98435 0.9783448,1.3357948 0.027249,0.9808448 -2.829064,6.223243 -3.4084746,6.2207933 -0.8913634,-0.00346 -6.5344457,-2.9655443 -14.1759202,-7.4917487 -13.194771,-7.7546565 -23.5899732,-14.0737855 -24.8773753,-15.1029768 l -1.2428083,-1.0288461 1.922704,-2.7100834 c 1.2543024,-1.8202201 2.241155,-2.7510769 2.8150672,-2.7515769 0.4899197,0.00545 2.9790426,1.1243328 5.5119524,2.4701208 z m 41.55341,-2.0196891 c -0.0055,0.4049353 -4.4148213,13.1636252 -5.1793046,14.9864444 -0.35995,0.8883606 -0.8978578,1.6417478 -1.1158277,1.6442476 -1.2018173,-0.0049 -11.9974048,-6.459207 -11.9948559,-7.1271044 -2.5e-4,-0.1199703 0.7578882,-0.6633938 1.6977394,-1.1948201 0.8953579,-0.48492 3.7484239,-2.1236731 6.3372755,-3.5819486 8.3455164,-4.7322725 10.2636715,-5.6148874 10.2601718,-4.724774 z m -129.1647382,7.6914162 c 0.9808449,0.4949196 5.1099641,2.870559 9.197136,5.2904866 4.0873719,2.4211287 9.1965357,5.3789737 11.2850153,6.5003514 2.0906781,1.1618183 4.0423784,2.375634 4.3533297,2.6895852 0.3549502,0.4899199 0.4699336,4.8547544 0.3349508,15.9423495 l -0.1799683,15.2730009 -7.140903,4.1578606 c -13.3001043,7.7856027 -17.8517548,10.3059151 -18.8769967,10.568975 -1.4702737,0.3499503 -4.4933098,-1.0398379 -11.0234049,-5.1633065 -3.1525151,-1.9277039 -7.7742551,-4.7057759 -10.2179281,-6.0956618 -2.4886176,-1.3477933 -4.9762351,-2.870559 -5.5530466,-3.3619841 l -1.0658292,-0.8483749 0.055025,-14.4271815 c 0.030687,-7.8815866 0.2399667,-14.8720628 0.3699366,-15.4948663 0.2799522,-0.8428726 1.787725,-1.908207 6.6976696,-4.6492856 3.5254582,-1.9467005 9.4160518,-5.262191 13.0756397,-7.3854633 3.7039305,-2.1236743 6.7391129,-3.8919026 6.8280998,-3.8919026 0.030555,1.508e-4 0.890358,0.3999355 1.8652122,0.9013629 z m 74.7566042,2.0266889 c 2.3546385,1.4327803 6.3528236,3.8094143 8.9298276,5.2001508 7.1540997,3.946393 11.906918,6.9484813 12.2599647,7.7511578 0.3999356,0.9813475 0.694398,27.6554475 0.3299508,29.6578384 -0.2799522,1.4252817 -0.901363,1.8647135 -10.0028616,7.263934 -11.8277311,6.9893754 -15.3528889,8.9351753 -16.2877945,8.9315259 -0.8913633,-0.00351 -4.5343034,-2.0206892 -17.284742,-9.5962741 l -9.6850614,-5.7381179 0.060052,-15.139772 c 0.055025,-14.5160175 0.2499661,-16.8309114 1.4017836,-16.8264115 0.2149674,-9.998e-4 2.1421712,-1.0148384 4.1943556,-2.2106598 8.6140245,-5.0426247 20.9752747,-11.9411644 21.3759629,-11.9396644 0.2149673,-8.504e-4 2.3546373,1.2098196 4.7097758,2.6450931 z m -108.5001148,18.4138181 c 0.1199704,1.2907963 0.2549663,6.0125756 0.2349668,10.5098842 -0.026587,6.7234162 -0.1249964,8.1483964 -0.6549018,8.0127177 -0.5779067,-0.1199704 -13.1289318,-13.276409 -13.1268815,-13.7665826 -0.00105,-0.2149675 12.4506351,-6.9424828 12.9852532,-7.0294698 0.1199704,-0.025132 0.3949358,1.0243488 0.5684097,2.2731502 z m 141.8650342,1.2178089 c 3.1555151,1.7047381 5.7762122,3.2729971 5.7750613,3.5849484 -0.00475,1.1578238 -11.9881562,14.6502478 -12.4784305,14.0226441 -0.4399345,-0.6268999 0.04947,-20.6167796 0.5254214,-20.6149794 0.2149674,-9.498e-4 3.0235359,1.3482919 6.178051,3.0075377 z m -70.3396835,7.2520347 c 0.1649821,4.6312887 0.2499663,15.0962786 0.2649658,23.2006327 l -0.026984,14.8278695 -1.8712133,0.085051 c -1.0688316,0.028836 -2.715582,0.080025 -3.6964306,0.080025 l -1.7817265,0.026453 -0.2299669,-12.4690326 c -0.159969,-6.8581454 -0.2449666,-17.3229356 -0.264966,-23.2451751 l 0.011196,-10.7760432 3.2510004,-0.1099175 c 1.736233,-0.085051 3.4294727,-0.1099174 3.6519384,-0.1099174 0.2799524,0.034389 0.5219163,3.4309727 0.679888,8.5077923 z m -12.766187,30.809013 0.2499664,6.279384 -1.6472476,-0.00845 c -3.6064452,-0.013889 -16.376431,-2.6475918 -17.3076382,-3.5849485 -0.2099674,-0.219967 0.4499342,-0.798879 1.4737738,-1.3312949 1.027338,-0.5294161 4.284341,-2.2996469 7.2737311,-3.9798882 8.3448671,-4.6432856 8.9691705,-4.907745 9.3676589,-4.2383475 0.1849684,0.3549501 0.429935,3.4304712 0.5969142,6.8600447 z m 21.3541171,-6.3292769 c 2.0461844,0.98685 14.662045,8.4284533 15.2827997,9.0544576 0.4849197,0.4499342 -1.383787,0.9743504 -7.9792229,2.2391552 -6.3723207,1.2228088 -8.6895647,1.5697591 -10.1584378,1.4287803 -0.9323541,-0.094971 -0.6588964,-13.85092 0.2699525,-13.84737 0.1199704,-1.507e-4 1.288799,0.4949195 2.579103,1.1223222 z"
     id="path989"
     style="display:inline;fill:#ffffff;stroke:none;stroke-width:1.76361" />
</svg>
