<?xml version="1.0" encoding="UTF-8" standalone="no"?>
<svg
   version="1.0"
   width="1052.000000pt"
   height="1708.000000pt"
   viewBox="0 0 1052.000000 1708.000000"
   preserveAspectRatio="xMidYMid meet"
   id="svg1"
   sodipodi:docname="worf.svg"
   inkscape:version="1.3.1 (91b66b0783, 2023-11-16)"
   xmlns:inkscape="http://www.inkscape.org/namespaces/inkscape"
   xmlns:sodipodi="http://sodipodi.sourceforge.net/DTD/sodipodi-0.dtd"
   xmlns="http://www.w3.org/2000/svg"
   xmlns:svg="http://www.w3.org/2000/svg">
  <defs
     id="defs1" />
  <metadata
     id="metadata1">
Created by potrace 1.16, written by Peter Selinger 2001-2019
</metadata>
  <sodipodi:namedview
     pagecolor="#222"
     bordercolor="#666666"
     inkscape:deskcolor="#444"
     id="namedview1"
     borderopacity="1.0"
     inkscape:showpageshadow="2"
     inkscape:pageopacity="0.0"
     inkscape:pagecheckerboard="0"
     inkscape:document-units="pt"
     inkscape:zoom="0.3767564403"
     inkscape:cx="735.2229992"
     inkscape:cy="1616.428904"
     inkscape:window-width="1727"
     inkscape:window-height="1057"
     inkscape:window-x="-8"
     inkscape:window-y="-8"
     inkscape:window-maximized="1"
     inkscape:current-layer="svg1" />
  <rect
     width="100%"
     height="100%"
     x="0"
     y="0"
     fill="black"
     id="rect1" />
  <path
     id="path30"
     style="fill:#ffffff;stroke:none;stroke-width:0.201081"
     d="m 552.4646483,5.910996701 c -138.9469583,0 -275.2797728,0.40118109 -303.2300291,1.00442403 l -50.4715738,1.00736967 -8.6451154,6.032435479 c -6.4345919,4.62486257 -9.8543555,8.84659739 -12.4684088,16.08551272 -3.8205385,9.65188711 -3.8213267,17.09245249 -2.8159228,176.3485897 l 1.0073705,166.2925671 4.4212323,9.2518944 c 2.4129721,5.0270246 7.6426614,11.661337 11.664281,14.6775518 l 7.0368581,5.4286026 h 200.2780362 c 110.1923794,0 201.8843308,0.8060931 203.8951407,1.8114981 7.4399977,3.6194576 3.4187501,8.4434608 -19.7055617,23.1223723 -12.6681025,7.8421583 -24.3318065,16.488463 -26.1415371,18.9014348 -2.6140514,3.8205387 -3.0162177,19.9075349 -3.0162177,125.0728882 0,91.2907656 -0.6026565,121.4546072 -2.412385,123.2643359 -1.8097288,1.8097289 -29.3565597,2.4123851 -111.1965186,2.4123851 -119.8442641,0 -123.6657255,0.402174 -135.5295031,12.064871 -10.6572907,10.657292 -13.2719454,22.9227018 -12.6687039,59.720522 0.2010812,18.0972883 -0.4017702,34.9885219 -1.6082552,37.6025732 -1.005406,2.6140534 -4.4241822,6.0320453 -7.4403979,7.6406929 l -5.6288977,2.6156258 v 170.7167456 c 0,187.0053129 -1.0057881,170.1137059 10.6569106,175.9450539 3.0162136,1.407566 3.4173987,5.431185 4.0206402,34.185765 0.4021625,32.172956 0.4031398,32.373089 -4.0206402,34.182818 -2.6140534,1.005405 -51.2773304,1.810713 -108.1832487,2.011795 -102.35021933,0.20108 -125.27181723,1.606888 -133.91830003,7.237155 -13.27134398,8.646481 -26.34242717,27.147942 -32.97809816,46.250635 -3.619459264,10.25513 -4.020642365,16.891251 -4.020642365,55.699882 v 43.835303 h 5.025064995 5.02801284 v 63.340572 63.340574 H 14.16993069 8.741327934 l 1.407960376,50.671868 c 0.80432473,27.749177 2.21032458,54.493201 3.41680966,59.520226 5.83134827,26.140529 22.52248995,45.645044 45.64680384,52.883959 13.27134397,4.02162 16.68950689,4.020642 179.56510179,4.020642 175.7447785,-0.201082 169.3105549,-0.602448 171.1202834,8.848357 0.6032436,4.02162 2.2132,4.020643 130.9050281,4.020643 h 130.2982497 l 1.2076655,-5.6289 c 0.6032435,-3.016214 2.8139601,-6.434989 4.8247699,-7.440396 2.0108098,-1.206484 33.3801077,-2.011793 76.0092762,-2.011793 82.04104,0 89.4821176,-0.804531 98.5307607,-11.260743 10.8583738,-12.064859 10.8568114,-13.472375 9.4492452,-145.582579 -2.0108098,-199.070172 -1.8083533,-265.627655 0.4035377,-267.839546 1.4075663,-1.407569 28.3522999,-2.211304 79.2257888,-2.412385 72.5902342,-0.201082 77.4168522,-0.403345 85.0579282,-4.223883 5.831349,-3.016217 9.449838,-6.633723 13.069296,-14.073721 5.027025,-10.054048 5.027225,-10.254808 5.228306,-70.981264 l 0.200297,-60.727892 h -4.624475 -4.824769 v -70.377432 c 0,-68.9707754 -9.78e-4,-70.3803766 4.020641,-70.3803766 4.02162,0 4.020641,-1.4061144 4.020641,-118.0330837 0,-115.8226445 0.0017,-118.0346622 -4.220937,-126.6811449 -2.412971,-4.8259436 -7.43942,-11.2607457 -11.461039,-14.2769605 -6.635671,-5.0270245 -8.647691,-5.4291925 -31.3698421,-6.0324355 -13.4724253,-0.4021618 -25.5359368,-1.609436 -26.7424219,-2.815922 -2.0108099,-1.6086478 -2.6156258,-24.9329679 -2.6156258,-104.3599556 0,-67.3621287 -0.8045239,-105.7706723 -2.2120901,-112.6074257 -2.4129723,-10.858373 -31.7706539,-70.5773759 -55.096047,-111.3968151 -7.4399977,-13.2713448 -20.9110777,-38.6085866 -29.7586417,-56.303713 -8.8475619,-17.6951263 -17.0940621,-32.7776082 -18.3005471,-33.581932 -1.2064851,-0.8043239 -6.8351938,1.2090432 -12.4654629,4.6274199 -16.2875598,9.2497251 -16.8918006,8.2423316 -17.0928817,-25.1371114 0,-15.4832356 -0.6022623,-71.3830869 -1.0044247,-123.8652229 -1.005404,-91.69292759 -1.2066862,-95.91533965 -5.2283058,-104.15965989 -2.4129723,-5.2281055 -7.4392235,-10.85936894 -12.265168,-14.07666465 L 804.8225158,5.910996701 Z M 417.8158586,28.60921331 c 34.2089019,-0.42729691 88.501527,-0.37859766 170.6431076,0.0235642 77.6172582,0.40216196 120.2455659,1.20805936 121.6531342,2.61562621 1.2064851,1.2064859 2.2134635,38.4053937 2.6156258,104.35995568 0.4021624,76.2096919 1.2064892,102.7528782 3.0162177,103.9593641 1.4075664,0.8043238 19.7034243,1.2049154 40.6158452,0.4005915 25.3362049,-0.603243 39.8160428,-0.4001974 43.2344189,1.0073694 5.0270234,2.2118909 5.025656,2.6123138 5.6288976,28.3506795 l 0.6038327,26.1415356 -12.2651658,8.8483574 c -11.8637778,8.6464822 -12.064869,9.0490504 -9.0486533,13.4728319 3.0162138,4.6248626 2.8146942,4.8249961 -46.6512265,34.1828194 -27.5480957,16.2875595 -50.6716737,29.960311 -51.4759984,30.3624729 -0.8043228,0.603243 -2.8163149,0.00177 -4.2238832,-1.2047197 -1.6086475,-1.4075669 -51.2762003,-2.0133643 -158.2512827,-1.6112022 l -155.6356571,0.4035369 v -29.7586404 c 0,-24.1297178 0.6032457,-29.9614905 3.0162178,-31.5701384 1.6086475,-1.0054049 11.2597701,-5.2302748 21.3138192,-9.2518944 10.0540491,-3.8205386 22.7211983,-10.4548512 28.1503842,-14.6775517 25.7383653,-19.5048552 47.0547643,-59.3187816 47.0547643,-88.2744429 0,-11.059454 -7.6422714,-37.4022961 -16.2887541,-55.4995844 -9.6518868,-20.5102601 -38.4047645,-43.2310874 -64.5452922,-50.8721647 -9.0486451,-2.61405268 -17.2929817,-5.42840729 -18.0973064,-6.23273119 -0.8043247,-0.804324 -2.011598,-14.67953164 -2.8159229,-30.76601015 -1.0054038,-24.12971777 -0.8047146,-29.55932855 1.6082575,-31.57013837 1.8097286,-1.50810726 15.9357179,-2.41218917 50.1446199,-2.83948618 z m 345.3834415,0.42710126 h 36.1946128 l 3.2165128,6.03243548 c 2.8151345,5.22810551 3.2165126,18.69886169 3.2165126,97.72368735 0,60.3242944 -0.6042268,92.4979345 -2.0117931,94.1065824 -1.6086474,1.8097288 -12.0647,2.6148412 -36.9987405,2.8159221 -29.7599849,0.402162 -35.3906842,-0.00158 -37.6025753,-2.6156264 -2.2118889,-2.6140528 -2.8127798,-23.9277525 -3.6171045,-97.5233915 -0.6032416,-51.87889326 -0.4029466,-95.71444808 0.2002969,-97.32309594 1.2064851,-2.81513374 6.4358063,-3.21651349 37.4022783,-3.21651349 z m -554.7837688,0.20029575 67.3612149,0.40059133 c 64.9491556,0.40216197 67.1626874,0.60364007 68.972416,4.42417872 3.6194573,8.04323926 -0.2016824,12.26772105 -12.6687036,13.8763689 -18.0972883,2.01080981 -52.0810278,15.88424835 -71.3848011,28.95451215 -21.7167476,14.67891168 -28.9545281,21.9180677 -44.0356007,44.43913768 -11.6626985,17.2929643 -14.8809928,20.308803 -17.0928837,16.6893453 -0.4021604,-0.8043239 -1.2060951,-23.5245613 -1.6082554,-50.26833177 l -0.6038327,-49.06655777 5.6318435,-4.62447449 z m 369.6251133,20.14444639 c -6.4848621,0.15081069 -10.1432166,1.32018724 -15.7232134,4.18559108 -11.8637776,6.23351043 -15.8848263,13.67353992 -17.4934736,33.17839507 -2.6140535,33.78160484 15.4836652,64.94882924 37.6025732,64.94882924 22.7221514,0 38.20346,-24.5295841 38.20346,-60.92524175 0,-18.70053132 -3.417996,-27.34803058 -13.6731262,-35.19018886 -5.8313482,-4.42378159 -9.4500434,-5.42919253 -21.3138211,-6.03243547 -2.9659435,-0.15081068 -5.4407782,-0.2152196 -7.6023989,-0.16494931 z m 3.4433181,11.21066864 c 1.4802712,-0.0157588 3.1157791,0.0642125 4.9632105,0.21502335 5.0270235,0.60324293 9.6509175,2.61484401 13.0692936,5.83213971 7.84216,8.04323927 10.2563166,18.69977927 7.2401008,33.37869079 -3.6194572,17.6951264 -12.8695938,36.3949115 -19.5052668,39.4111262 -4.8259443,2.2118908 -6.0326365,1.8105112 -11.2607432,-3.2165132 -11.4616154,-10.858373 -14.4764698,-19.5048975 -14.677551,-42.2270484 0,-18.90161224 0.4002039,-20.7109741 5.0250649,-25.73799864 5.2281069,-5.7182405 8.7313794,-7.58713284 15.1458912,-7.65541981 z m -245.123656,0.59205057 c 2.8339858,-0.12567574 4.7191238,0.32557979 5.3726378,1.43152508 0.4021624,1.00540491 1.4077653,7.23991129 2.21209,14.07666466 1.2064852,11.05945402 0.8035345,13.0698878 -2.8159228,16.68934539 -2.211891,2.21189087 -6.6376455,4.02064187 -10.0560236,4.02064187 -9.4508055,0 -31.97153,9.45121828 -46.8515214,19.50526748 -28.5534998,19.7059361 -44.2380573,51.4783921 -44.4391384,90.0859406 0,22.5210699 5.228714,39.2102619 18.7011391,59.720522 15.8853974,24.1297178 30.7646649,34.9867611 60.5246498,44.8397292 14.2767498,4.6248626 21.3157856,7.8425614 22.3211895,10.4566141 0.8043247,2.0108099 1.6082574,8.8467931 1.6082574,15.2813845 0.2010812,10.4562111 -0.1999069,11.8655591 -4.8247701,13.876369 -4.0216196,1.8097287 -7.2383435,1.4081536 -17.4934738,-2.4123851 -24.9340424,-8.8475632 -51.0762068,-23.9290671 -65.9561982,-37.6025739 -16.6897221,-15.4832356 -24.7320162,-26.9458866 -37.1990374,-53.2874951 l -9.0486533,-19.1017306 v -28.1533292 c 0,-18.4994504 1.005408,-31.9695594 3.0162177,-39.8117177 10.2551302,-40.0151153 40.2162767,-75.00369368 81.437879,-94.91071082 17.9464774,-8.74702278 34.9887229,-14.32703465 43.4906787,-14.70406146 z m 423.2218868,34.642321 c -2.592059,0.056554 -5.232826,0.7721217 -7.8468774,2.1796887 -6.4345919,3.61945758 -14.0739174,15.68473468 -16.2858084,25.53770288 -3.8205384,16.6897214 6.6349069,35.7916687 21.3138192,39.4111263 19.3037733,5.0270245 33.7804503,-26.9443132 22.9220765,-50.671869 -4.9767533,-10.858373 -12.3270307,-16.62631098 -20.1032099,-16.45664888 z m -0.00589,11.73202678 c 2.4007847,0.1787746 4.803564,2.0300597 6.839509,5.9322876 3.6194572,6.8367532 4.0214245,24.529554 0.8041276,30.7630643 -7.6410768,14.2767497 -19.9088045,7.0391974 -19.9088045,-11.6613339 0,-15.0308033 6.1298291,-25.4908871 12.2651679,-25.034018 z m -406.8094216,0.4005912 c 13.2964791,-0.1508106 26.2652603,3.1169615 39.8382261,9.7526339 22.7221514,11.059454 37.0005201,25.3370371 47.8588939,48.0591879 8.0432392,16.8908025 8.2415776,17.4940847 8.2415776,39.2108306 0,21.917827 -0.2005001,22.320618 -8.4448204,39.8146634 -11.059453,23.1243128 -25.7382185,38.0039626 -49.0636115,49.8677405 -16.6897221,8.4454012 -17.0927068,8.4440353 -39.0105357,8.6451163 -22.118908,0.2010811 -22.118747,0.2014659 -36.9987406,-7.6406923 -21.1135019,-11.4616159 -42.4267641,-32.5745807 -50.8721637,-50.6718691 -5.2281067,-11.4616158 -6.4357781,-17.0928971 -7.2401009,-32.1739708 -1.6086474,-32.1729571 5.4303904,-52.0790658 25.3374074,-73.3936499 9.4508055,-10.2551301 15.8858176,-14.8786388 28.5539199,-20.7099872 14.8799935,-7.0378344 28.5034668,-10.6091926 41.7999479,-10.7600033 z m -149.779954,162.3750186 c 1.6086474,0 7.6406988,8.2435531 13.6731283,18.2976022 14.8799914,24.9340417 28.1500103,39.0091719 47.855946,50.6718688 21.3145833,12.6681019 53.8905573,25.5373118 69.172713,27.1459597 13.4724252,1.6086478 18.9020173,6.032637 13.4728315,11.2607424 -2.4129722,2.2118908 -16.0877273,3.2184784 -70.5806734,4.2238832 l -67.56151,1.6082568 -4.2238831,-4.8277157 c -4.2227008,-4.4237816 -4.4241781,-6.0326824 -4.4241781,-56.5040087 0,-42.0259252 0.6048161,-51.8765887 2.6156258,-51.8765887 z m 645.1789879,36.5716401 c 3.1705617,-0.048305 5.0663069,1.8091447 7.3284681,5.0515755 2.0108098,3.2172958 6.0332238,10.054654 8.8483563,15.6849214 2.8151345,5.4291866 9.8506273,18.6985967 15.6819756,29.1548077 11.059455,20.1080981 25.9402808,48.2601159 48.0591888,91.0903649 l 13.2725364,25.9412399 0.6038327,107.5764689 c 0.4021623,78.8237447 -0.2028507,108.3845266 -1.8114981,110.3953364 -1.8097287,2.2118909 -11.0600865,2.8151368 -42.8308811,3.0162178 -22.118908,0.2010812 -49.4651967,0.8039328 -60.5246497,1.6082567 l -20.1091014,1.2047198 -0.6008871,6.4359724 c -0.6032414,5.0270246 0.4017743,7.037648 4.6244752,9.8527818 4.8259443,3.2172956 12.8675065,3.4183797 91.6912517,3.0162177 94.3069798,-0.402162 101.3460968,0.1995188 103.7590688,9.4492437 1.005406,3.0162157 1.608257,56.7067253 1.608257,119.4439899 v 114.2127383 h 5.631844 5.428603 v 70.3803766 70.377432 h -4.827716 -4.824771 l -0.804127,60.52465 c -0.603244,59.318891 -0.604231,60.526029 -5.028013,63.944406 -3.820539,3.217296 -11.057547,3.821525 -56.3007667,5.028013 -28.5534997,0.804322 -98.1282625,1.205503 -154.4309372,1.004422 -56.5037561,-0.40216 -103.7573031,-1.96e-4 -104.9637881,0.80413 -3.0162157,2.01081 -4.627222,11.863596 -2.4153309,15.885216 1.8097286,3.418376 6.8383909,3.620051 65.9561983,3.620051 h 63.9444052 l 4.6244751,5.028011 c 4.0216196,4.2227 4.8245751,7.638742 5.6288977,21.71441 0.6032435,12.467021 0.2022575,17.094651 -1.8085523,18.904382 -1.6086474,1.206486 -13.0698968,3.015236 -25.7379973,4.02064 -25.9394463,2.211892 -27.1461587,3.015448 -29.3580497,18.297604 -3.4183761,22.521068 -10.2553795,26.542132 -53.4877916,32.574562 -56.9059163,7.641077 -79.0266903,10.056022 -98.3304657,10.056022 -21.9178268,0 -41.4213603,2.612294 -53.8883815,7.237155 -17.0918824,6.23351 -26.5429132,29.157593 -26.341832,63.140277 0.2010812,40.216197 2.816713,63.341372 8.6480633,75.205149 9.0486432,18.29837 12.0649131,19.705566 54.2919193,22.721779 20.108098,1.206488 44.0340382,3.418775 53.4848437,4.42418 9.4508076,1.005404 31.9729095,3.014451 50.2712789,4.220938 18.2983696,1.206485 36.9983524,3.619659 41.6232157,5.228307 11.4616153,4.222701 21.517458,15.887588 25.94124,30.365419 2.0108098,6.43459 4.4231969,12.866447 5.4286028,14.274013 1.4075663,1.608649 8.8481773,2.415331 24.7335746,2.415331 30.1621472,0 29.7604052,-0.401935 28.55392,29.358049 -1.0054059,24.330801 -3.621631,31.969554 -12.2681117,33.779283 -2.4129722,0.603242 -42.6272944,1.409335 -89.4791636,1.811498 l -85.0579295,1.004425 -2.6156259,-4.42418 c -3.418376,-5.228105 -7.6402986,-22.92149 -6.2327303,-25.334461 0.6032415,-0.804324 0.6032415,-2.815532 0,-4.42418 -0.8043248,-2.21189 -19.3044672,-2.615035 -103.1552359,-2.011793 -56.1015936,0.201082 -102.9539595,0.403536 -103.9593654,0.403536 -1.2064851,0 -3.6180879,7.238736 -5.6288978,15.885219 -2.0108097,8.847562 -4.624869,16.888659 -6.0324354,17.894064 -1.4075663,1.206487 -24.7334158,2.012579 -61.7323151,1.811498 l -59.3199321,-0.403536 -1.0044226,-28.350679 c -1.005406,-28.352419 -2.8151427,-34.989893 -9.0486533,-34.989893 -5.8313482,0 -7.4402009,6.43698 -8.2445255,32.577508 -0.6032435,14.67891 -1.40639,27.947534 -1.8085524,29.355102 -0.8043247,2.01081 -21.7184245,2.413955 -108.1832466,2.011795 l -107.37617309,-0.603833 -9.8527829,-6.032435 c -7.6410769,-4.825945 -11.46123932,-9.047683 -16.68934402,-19.101732 l -7.03980596,-13.069296 -0.80412767,-52.883956 c -0.80432473,-49.868086 -1.206099,-52.683663 -4.62447509,-52.683663 -3.61945726,0 -3.8203454,-2.815198 -3.8203454,-63.340574 0,-59.117807 0.20167236,-63.340572 3.62005045,-63.340572 3.21729489,0 3.41680765,-3.419012 3.41680765,-45.847099 v -45.646802 l 5.63184556,-12.06487 c 6.63567099,-14.27675 11.86360276,-20.106358 21.91765183,-25.334461 8.64648282,-4.423784 15.88659578,-4.82634 19.30497186,-1.407963 1.60864747,1.608649 2.41159878,10.253584 2.61267997,24.530334 0,12.26594 0.80393263,23.930429 1.60825733,25.941239 0.60324362,2.01081 5.02624945,5.628313 9.24894822,8.041283 l 8.04423056,4.627421 1.2076654,27.746846 c 1.0054039,19.303774 2.2109118,28.554906 4.0206404,30.565716 3.6194593,3.418376 133.5190875,4.626041 136.9374636,1.207666 1.4075683,-1.407569 2.0096334,-12.467838 1.8085522,-29.961883 -0.4021603,-30.162147 0.2012884,-32.373486 11.2607434,-35.59078 6.2335106,-2.01081 7.0372542,-5.429415 8.4448204,-32.374269 1.2064852,-23.727554 1.2070824,-24.13151 6.6362682,-25.941239 4.0216198,-1.407567 6.6360752,-1.005796 10.4566136,1.608258 5.2281068,3.217294 5.228308,3.62145 5.228308,28.15333 0,26.94485 1.4063998,30.966892 10.8572054,28.55392 6.0324295,-1.407568 7.2401009,-7.240524 7.2401009,-35.794022 0,-17.896206 0.6024614,-22.119913 3.2165127,-23.125318 6.8367541,-2.614051 7.8411849,2.615072 7.03686,38.206407 -0.4021623,27.749176 1.991e-4,35.189012 2.2120901,36.998741 3.0162138,2.614053 99.9377439,4.224471 103.9593635,1.811498 1.4075664,-1.005406 2.2120901,-12.468039 2.2120901,-35.190188 0,-38.004305 0.8055151,-40.216238 13.2725364,-42.227048 7.6410769,-1.206488 7.841577,-1.607677 8.4448204,-10.053079 0.4021604,-4.825944 -0.2000998,-9.65229 -1.0044246,-10.456613 -1.0054058,-1.005405 -27.7494324,-2.213465 -59.520227,-2.615627 -42.4280873,-0.40216 -58.5159996,-1.406785 -60.7278906,-3.216513 -2.4129721,-2.01081 -3.0162177,-8.24514 -3.0162177,-32.9781 0,-16.689721 -0.6036376,-35.188035 -1.4079624,-41.019384 -1.005404,-9.651886 -1.8093424,-10.859564 -7.6406908,-13.272536 -5.6302691,-2.412971 -6.6352869,-4.02104 -7.6406929,-11.461038 -1.4075661,-9.651887 -2.0104176,-114.616777 -1.6082573,-224.6080733 l 0.2002971,-68.7691752 5.0280107,-2.011793 c 2.8151346,-1.0054059 6.0314543,-4.2217257 7.0368601,-7.0368602 1.2064851,-3.0162137 2.0117932,-25.5383176 2.0117932,-50.2712768 0,-58.112404 -2.2118548,-54.8932004 36.1946128,-56.3007686 14.8799934,-0.6032422 42.0259853,-0.4037319 60.3243548,0.4005919 l 33.178395,1.6082574 -0.8041276,30.3654181 c -0.6032435,28.9556621 -0.4015691,30.7650329 3.6200505,34.7866525 4.2226987,4.2227007 5.2264257,4.2209373 88.675034,4.2209373 83.0464439,0 84.2539988,0.00177 86.4658898,-4.2209373 1.4075661,-2.4129723 2.21209,-16.0863176 2.21209,-33.9825248 0,-24.9340405 0.6024594,-30.3656173 3.2165127,-32.5775082 2.2118909,-1.8097279 11.4626268,-2.8135654 29.1577527,-3.4168083 l 25.7379993,-0.6038327 v -8.6451163 c 0,-6.0324294 -1.0046237,-9.0484577 -3.2165128,-9.8527817 -1.8097305,-0.603243 -24.7337977,-1.2076652 -51.0754065,-1.2076652 -26.3416088,0 -48.46037,-0.8039329 -49.0636115,-1.6082568 -0.6032435,-1.0054048 -1.6088466,-54.0914913 -2.21209,-118.2363245 -1.005406,-109.5891349 -0.80491,-116.6263044 2.4123849,-120.849005 4.2227009,-5.2281056 31.3687088,-20.5103023 75.4054435,-42.2270483 24.9340425,-12.4670209 31.5701378,-16.4882676 31.5701378,-19.7055633 0.2010812,-3.2172956 12.0633408,-11.059096 51.6762935,-34.7866518 48.2594355,-28.5534993 51.8809116,-30.3654156 55.2992897,-27.3492008 3.2172949,3.0162147 4.624095,2.4145362 18.2976014,-6.433027 19.9824224,-13.0702638 28.810186,-18.4438966 34.0944525,-18.5244075 z M 620.029102,548.1026448 c -5.7810779,-0.075406 -11.9657117,0.4257276 -18.5008422,1.5316728 -4.423782,0.8043241 -9.2501285,2.0115984 -10.4566156,2.8159223 -2.0108098,1.2064859 -2.61268,13.4728681 -2.61268,49.6674448 0,50.8734882 1.8077741,67.1601362 8.0412829,70.377432 2.0108097,1.2064859 13.6760861,2.0117936 25.7409449,2.0117936 18.0972884,0 22.5187379,-0.6046208 24.7306288,-3.4197546 2.211891,-2.4129718 3.0175932,-14.677591 3.4197556,-53.8883824 0.8043227,-60.5253753 0.20087,-63.34038 -14.2769611,-67.1609186 -4.926485,-1.2064858 -10.3044353,-1.8598046 -16.0855133,-1.9352099 z m -3.9470024,13.9234972 c 4.4991854,-0.1256756 9.0747717,0.8809106 12.191528,3.0928013 10.054049,6.8367534 11.0578925,12.6675637 9.4492452,50.671869 -1.4075684,33.178362 -1.8089506,35.3900964 -6.2327325,40.014959 -8.2443204,8.2443201 -27.548124,3.8207283 -30.1621775,-6.8365638 -0.8043226,-3.0162147 -1.6082552,-22.118165 -1.6082552,-42.4273441 -0.2010812,-36.3956576 -0.2014694,-37.0014941 4.6244731,-40.8220328 2.8151344,-2.3124313 7.2387315,-3.568013 11.7379189,-3.6936886 z m 311.2536408,169.8654885 c -1.383169,0.042171 -2.7444464,0.1480622 -4.0766073,0.3240082 -19.1026942,2.6140534 -43.4347217,16.0867038 -52.4833669,29.3580498 -6.4345918,9.4508054 -10.8572055,26.1409598 -10.8572055,40.6187908 0,33.3794423 17.6938049,54.494189 53.8883815,64.548238 10.8583738,2.8151345 14.6795255,3.0144482 24.7335745,1.2047197 23.1243139,-4.2227008 41.8252903,-17.6932017 52.6836644,-38.2034603 10.6572899,-19.7059377 8.8465749,-43.6356199 -5.0280133,-65.3523675 -12.2533724,-19.0398543 -38.1129051,-33.1305298 -58.8604274,-32.4979787 z m -339.1536548,0.3740814 c 14.0002632,0.5027031 18.2740386,1.6589219 19.7821455,3.7702722 3.6194572,5.0270256 3.6172976,35.5929439 -0.2032408,38.8102408 -2.0108098,1.6086473 -22.9235002,2.4108145 -71.5850981,2.8129749 -60.3242944,0.4021624 -68.9680988,0.00216 -71.5821502,-2.8129749 -1.8097306,-2.2118911 -2.8159227,-8.0454191 -2.8159227,-18.3005494 0,-24.3307968 -1.2064369,-23.5264982 48.2594839,-24.1297418 40.4172774,-0.502701 64.144519,-0.6529227 78.1447824,-0.1502218 z m -229.0381449,4.8542265 c -7.9364148,-0.028278 -11.6324721,0.8777677 -16.0059837,3.139929 -10.2551283,5.2281066 -12.6653637,16.0865308 -11.2577954,51.2757015 1.4075662,33.3794441 3.6188821,40.4169295 14.477256,43.8353056 9.0486431,3.0162158 35.9937347,1.6092346 44.4391364,-2.412385 7.842158,-3.6194573 10.2555343,-14.6785664 10.4566155,-46.8515235 0.2010792,-43.4334911 -2.415361,-47.2554532 -32.5775082,-48.6630195 -3.7702681,-0.2010812 -6.8862483,-0.3145835 -9.5317206,-0.3240081 z m 10.3358482,7.7644039 c 0.6032437,0 4.2236903,2.0104219 8.0442287,4.6244751 9.8529678,6.6356711 12.4672283,15.8848505 11.2607432,41.6232157 -0.4021624,11.6626965 -2.011403,23.729152 -3.6200503,26.7453677 -5.2281049,11.059453 -21.1141235,14.878232 -30.7660102,7.2371551 l -5.2283078,-4.0206424 v -30.966305 c 0,-16.8908032 0.6036376,-32.3730912 1.4079625,-34.1828198 1.0054038,-3.0162137 14.8798143,-10.8593651 18.9014339,-11.0604464 z m 558.4421113,2.0235766 c 6.8695465,0.046686 14.0366126,1.3319677 21.2755271,4.008859 11.4616154,4.423782 22.3204094,14.2761869 28.5539201,26.5421269 5.2281068,9.8529679 6.2344959,33.7810595 2.011795,44.6394333 -9.4508074,24.9340426 -47.454596,40.6191731 -71.7853929,29.9618824 -21.113504,-9.4508075 -33.9854705,-27.7476528 -33.9854705,-48.6600756 0,-33.6559288 24.1615849,-56.6945358 53.9296212,-56.492226 z M 372.5460799,854.7995576 c -19.2032327,-0.1759461 -39.2597294,0.076389 -44.0856739,0.8807134 -4.2227008,0.6032415 -8.6455095,2.2124822 -10.0530778,3.6200505 -3.418376,3.4183761 -4.6260415,237.8786525 -1.2076654,245.9218915 1.2064871,3.016216 2.8157277,5.628901 3.6200505,5.628901 0.6032435,0 3.8195651,2.211502 7.0368602,4.624472 l 5.8321403,4.827717 0.8041278,36.998741 c 0.6032435,37.199981 2.8149435,57.106864 6.8365631,61.128483 2.211891,2.211892 43.6354108,4.021819 51.0754065,2.21209 3.2172949,-0.804324 5.4282108,-3.618878 7.0368602,-8.444821 2.6140514,-7.641078 3.0160186,-59.522014 0.8041277,-79.429032 -1.2064851,-11.260533 -1.2064791,-11.460454 6.0324354,-16.88964 l 7.240101,-5.428602 V 983.9696714 c 0,-84.6550934 -0.6042269,-126.680948 -2.0117932,-127.4852728 -1.4075682,-0.9048653 -19.7572275,-1.508895 -38.9604624,-1.684841 z m -7.0869333,10.7334943 c 27.3470147,0 29.9599199,0.4019694 31.9707297,3.8203454 3.2172969,6.0324295 2.816705,106.172439 -0.4005899,108.1832487 -4.6248632,2.8151325 -57.9121729,3.2157245 -63.1402775,0.4005899 l -4.8247701,-2.412385 v -51.2757016 c 0,-45.0421387 0.4005939,-51.8787521 3.4168096,-55.0960469 2.8151325,-3.2172949 6.6364895,-3.6200505 32.9780982,-3.6200505 z m 124.539749,48.1269351 c -15.1370395,-0.1073632 -32.3565944,0.9125266 -34.0532169,2.9484715 -3.0162137,3.6194573 -5.0272225,112.4028145 -2.2120881,118.0330815 2.0108099,3.418378 4.4234141,3.820347 25.7379974,3.820347 27.5480958,0 31.9717149,-1.005216 33.9825247,-6.836564 1.8097287,-5.429186 1.6094317,-112.6044835 -0.2002969,-115.6206972 -0.9677012,-1.4955413 -11.4816672,-2.2611338 -23.2549202,-2.3446388 z m -9.5111017,14.2121586 c 5.809159,-0.065832 12.2062592,1.0645157 14.4684204,3.2135689 2.8151346,2.8151325 3.2159236,8.6457407 2.6126801,45.4435611 -0.6032416,41.6237624 -0.6026584,42.2268554 -5.4286028,46.0473944 -6.635671,5.429187 -17.2929858,5.026436 -21.1135242,-0.603833 -2.6140513,-3.820539 -3.2165126,-11.863433 -3.2165126,-46.8515219 0,-30.3632284 0.6026563,-43.0300017 2.4123849,-44.8397303 1.5835124,-1.5835123 5.7469204,-2.3582359 10.2651542,-2.4094392 z m -116.2363127,62.0298148 c 15.6843181,0 31.3686665,1.1047701 33.1783951,3.3166611 3.418378,4.0216195 5.4315466,96.9225095 2.4153308,102.9549385 -1.6086474,2.815136 -5.0268364,4.62428 -9.8527809,5.428603 -11.4616153,1.809729 -54.2944729,2.412777 -55.9031224,0.80413 -3.2172949,-3.016216 -4.2215265,-17.29224 -4.82477,-60.524652 -0.4021604,-33.781605 -0.00117,-46.451129 1.8085522,-48.6630195 1.8097307,-2.211891 17.494079,-3.3166611 33.1783952,-3.3166611 z m 447.2073007,22.6717066 c -7.8421601,-0.100537 -15.3848781,0.752878 -21.316767,2.562606 -13.271344,4.222701 -21.1137312,10.054074 -32.3742654,24.129742 -5.8313483,7.238915 -11.8641839,13.272537 -13.4728334,13.272537 -1.4075662,0 -6.0306719,-2.011208 -10.2533727,-4.424179 -10.2551303,-6.032429 -22.1185461,-5.630463 -31.7704328,0.804128 -18.0972882,12.467022 -23.7291419,31.771828 -14.6804987,50.271277 9.6518887,19.303776 25.1373295,25.337007 45.4465088,17.897012 6.4345898,-2.412972 13.0681173,-3.820543 14.8778459,-3.016218 1.6086495,0.603243 7.440599,6.633918 12.6687036,13.269591 5.429188,6.635672 11.6623185,14.276374 13.6731284,16.689345 3.4183761,4.222702 3.6198513,5.831756 1.4079603,16.489049 -1.6086474,9.048647 -1.6086474,13.673329 0,18.901435 7.6410789,22.923232 31.9729115,33.78163 53.2874967,24.129742 15.8853973,-7.238915 22.1169635,-20.710206 20.1061538,-44.035602 l -1.2047197,-15.081088 16.889641,-17.293177 17.0928818,-17.293178 6.6362682,2.815922 c 11.2605362,4.624862 15.0807047,4.623883 22.7217816,1.004424 12.0648588,-5.630268 18.4994707,-13.674515 21.1135241,-26.141536 4.423782,-21.515664 -5.6308804,-39.610837 -24.7335746,-45.040025 -8.8475641,-2.412972 -18.0959431,-1.407565 -29.7586397,3.016217 -1.6086494,0.603244 -8.6482664,-4.625464 -16.8925867,-12.668703 -11.8637779,-11.461616 -16.0867019,-14.277748 -26.3418321,-17.092882 -7.1383738,-2.01081 -15.2802133,-3.065899 -23.1223714,-3.166439 z m 0.2739329,13.649563 c 9.0737803,-0.226216 18.0222991,1.078459 23.6525662,3.994132 9.6518888,5.027025 23.7271935,20.107933 28.754217,30.966305 5.0270255,11.461617 5.028596,29.762385 -0.400592,41.626161 -12.26594,27.548096 -46.8529208,43.031561 -71.384801,32.374267 -28.5534998,-12.668102 -44.6400105,-48.460982 -33.1783951,-73.797185 5.2281047,-11.461618 17.2949563,-24.331615 28.1533301,-29.961883 6.1329701,-3.217294 15.3298965,-4.97558 24.4036748,-5.201797 z m 85.9887161,26.515617 c 0.2010811,-0.201081 3.6206416,1.006979 7.2401008,2.615627 3.6194573,1.608647 8.2433473,4.826343 10.0530759,7.440396 4.0216197,6.03243 4.2219167,22.116778 0.200297,29.958937 -5.6302691,10.858372 -17.8958413,15.484618 -25.7379993,9.452188 -3.4183761,-2.412969 -9.4521909,-24.935057 -9.4521909,-35.190188 0,-5.027023 5.6308703,-10.657107 12.6687036,-12.868997 2.4129722,-0.603244 4.6258505,-1.206882 5.0280129,-1.407963 z m -176.6401972,5.811521 c 2.8163612,0.153757 5.7579154,0.875412 8.7364265,2.232709 6.635673,3.016214 11.4610382,12.063308 11.4610382,21.514115 0,12.26594 -3.0142612,18.299767 -11.0575006,21.517061 -10.8583737,4.624863 -16.6889598,3.820731 -24.3300367,-3.820346 -6.0324294,-6.032428 -6.8395111,-8.044238 -6.8395111,-17.092883 0,-15.030802 9.8253514,-25.016932 22.0295837,-24.350656 z m -355.6220871,70.398051 c 5.2281067,0 11.8653642,0.805309 14.6804988,2.011793 6.8367521,2.614054 8.64374,11.661364 8.2415777,41.823511 -0.2010792,21.113504 -1.0036404,25.538101 -4.2209373,29.961883 -7.6410769,10.25513 -20.912451,10.857982 -30.1621775,1.608258 -4.6248611,-4.624864 -4.8277158,-5.62952 -4.8277158,-36.39491 0,-37.19998 0.8055191,-39.010535 16.2887541,-39.010535 z m 448.889194,22.421337 c 5.9570239,0.05028 11.3856348,0.503489 12.5921199,1.307814 4.0216197,2.614053 6.8365652,10.053477 6.8365652,17.493474 0,11.059454 -10.6563335,21.113523 -22.1179489,21.113523 -4.624863,0 -10.0532768,-1.006389 -12.2651659,-2.011792 -5.4291879,-3.016217 -9.8557286,-12.665769 -9.8557286,-21.714411 0,-8.646484 3.0162237,-13.673523 9.0486531,-15.081089 3.3178375,-0.804324 9.8044812,-1.15779 15.7615052,-1.107519 z m -642.9315519,104.009438 c 34.7367382,0.100538 69.6746318,1.156022 72.3892258,3.066292 3.2172948,2.412972 4.0220157,5.830976 4.4241781,19.705563 0.4021623,11.662697 -0.2020645,17.696129 -2.0117931,20.109099 -2.4129722,3.217298 -9.4518591,3.618286 -71.3848031,4.824771 -83.04644389,1.809729 -77.01369872,3.620219 -77.01369872,-24.330037 0,-11.461615 0.80373752,-19.101338 2.41238502,-20.709986 1.9102692,-1.910271 36.4477661,-2.766242 71.184506,-2.665702 z m 176.6225221,16.824841 c 5.7308097,-0.24821 13.397438,-0.08621 23.6525682,0.114873 22.5210703,0.201082 32.3760349,1.20649 34.1857637,3.016218 3.0162157,3.016217 4.2230949,31.169359 1.4079622,38.006112 -1.6086493,4.624863 -2.2133024,4.624474 -36.5981505,4.624474 -24.330799,0 -35.59039,-0.803737 -37.1990375,-2.412384 -1.6086474,-1.608647 -2.4153309,-9.050431 -2.4153309,-19.908805 0,-18.248099 -0.2261982,-22.69586 16.9662248,-23.440488 z m 466.6359838,43.749884 c 9.0486431,0 13.8734273,1.006784 16.889641,3.419754 4.0216196,3.418378 4.4235889,5.226755 3.8203454,23.726206 l -0.6038327,20.109099 -11.0575005,0.200295 c -6.635673,0 -15.0826651,1.810127 -20.7129322,4.424181 -15.2821558,6.836752 -15.4816807,8.042335 -15.4816807,79.426083 0,60.123216 -3.88e-4,61.330161 4.6244751,67.764753 2.4129703,3.619458 7.841384,8.44502 12.265166,10.656909 6.8367541,3.619458 9.0486632,3.821524 18.0973063,2.011795 7.0378354,-1.407569 11.0592701,-1.607863 12.8689987,-0.200297 3.2172969,2.815135 3.4183781,42.025185 0,45.443563 -2.6140514,2.614052 -26.9435091,3.419556 -32.7748573,1.207666 -1.8097287,-0.804326 -5.629686,-6.034013 -8.4448206,-11.664282 -8.4454016,-16.890801 -16.6921009,-27.547337 -23.528855,-30.362473 -8.2443205,-3.418375 -118.2332319,-15.885219 -167.2969901,-18.901433 -14.477831,-0.804325 -23.7293491,-2.414155 -25.9412401,-4.223883 -8.847564,-7.238916 -10.8585808,-21.916137 -11.2607432,-76.610163 -0.2010812,-25.537286 0.2010832,-32.37447 3.0162177,-37.602575 4.8259444,-9.249724 14.4788364,-14.879615 23.1253173,-13.673127 3.8205384,0.603242 17.0928958,-0.20285 29.1577547,-1.811498 12.265938,-1.608648 43.6338566,-5.226151 69.573303,-8.041284 60.1232131,-6.434593 70.9818625,-8.245512 80.6337512,-13.272537 8.0432392,-4.02162 15.078933,-13.271373 20.9102814,-27.14596 5.4291879,-13.070262 8.2463071,-14.880792 22.1208946,-14.880792 z m -640.6458259,0.403536 53.4877916,0.603833 0.6038328,23.325615 c 0.4021602,17.695125 -0.2012803,23.926109 -2.21209,25.534756 -4.0216197,3.418378 -100.9421686,3.620832 -104.9637882,0.403538 -2.4129722,-2.010811 -3.0162177,-7.64012 -3.0162177,-25.134166 0,-12.265941 0.6036376,-23.125907 1.4079604,-23.729151 0.8043247,-0.804325 25.3346887,-1.205506 54.6925111,-1.004425 z m 641.2496586,63.944405 c 3.0162137,0 6.6358761,0.803149 8.2445256,1.808553 2.2118889,1.407568 3.4158283,8.244935 4.4212322,24.733575 2.2118911,34.78701 2.2126753,95.714452 -0.200295,100.339314 -3.0162157,5.228105 -17.0907261,5.429187 -19.9058587,0 -1.2064871,-2.01081 -2.6154307,-28.35287 -3.4197554,-58.7161 -1.2064851,-49.46592 -1.0044207,-55.900965 2.011793,-61.732314 2.4129722,-4.825944 4.6256575,-6.433028 8.8483583,-6.433028 z M 81.5988898,1576.208737 c -2.25533056,0.06455 -4.56674467,0.435349 -6.90431141,1.151701 -8.4453996,2.614054 -19.90487947,12.668909 -23.92649909,20.913229 -6.635673,14.075669 -1.6086374,32.372508 12.06487094,42.627638 15.28215379,11.863779 36.19521004,5.227896 45.84709876,-14.276958 11.4804668,-22.960936 -5.2796257,-51.039532 -27.0811592,-50.41561 z m 0.88954901,11.53173 c 3.11675424,0.175948 5.98040176,1.98627 9.4993183,5.505187 4.62486327,4.825945 5.83214057,7.642664 5.83214057,14.6805 0,10.255128 -5.8303811,20.711363 -13.06929557,24.129741 -4.2227008,2.01081 -6.03204742,1.606878 -10.6569106,-1.811498 -3.0162137,-2.211892 -7.24029797,-7.239908 -9.45218896,-11.060449 -5.4291879,-10.054049 -2.61424238,-20.711367 6.83656314,-27.14596 4.52432259,-3.016213 7.89361878,-4.473467 11.01037312,-4.297521 z m 533.51707699,45.169629 c 7.2891848,0.452432 10.155386,1.457251 11.864574,3.16644 1.6086495,1.407567 3.8215258,8.04345 5.0280128,14.27696 2.2118911,10.657293 2.0104158,12.063304 -1.4079623,15.481681 -3.4183761,3.418376 -7.8425945,3.821721 -43.6350087,4.223883 -25.5372841,0.40216 -40.4167306,-0.201474 -41.6232157,-1.407962 -1.206485,-1.206485 -2.8165119,-8.444434 -3.4197555,-16.085512 -0.8043228,-10.858373 -0.4003928,-14.479025 1.8114982,-16.288754 1.8097286,-1.60865 13.4702998,-2.814351 32.9751543,-3.216514 19.404314,-0.502701 31.1175161,-0.602653 38.4067029,-0.150222 z m -130.0979546,0.754055 c 35.591333,0 38.2044453,0.200888 40.2152553,3.820347 2.6140512,5.228105 2.6148375,25.537903 -0.2002971,30.76601 -2.2118909,4.021619 -3.2177292,4.221328 -40.618791,2.61268 -20.9124229,-0.804325 -39.6139762,-1.809141 -41.2226237,-2.412385 -2.4129721,-1.005406 -2.6136612,-3.82075 -1.6082572,-14.276961 2.2118909,-21.716746 -0.4009399,-20.509691 43.4347137,-20.509691 z" />
</svg>
