<?xml version="1.0" standalone="no"?>
<!DOCTYPE svg PUBLIC "-//W3C//DTD SVG 20010904//EN"
 "http://www.w3.org/TR/2001/REC-SVG-20010904/DTD/svg10.dtd">
<svg   version="1.0"
   xmlns:inkscape="http://www.inkscape.org/namespaces/inkscape"
   xmlns:sodipodi="http://sodipodi.sourceforge.net/DTD/sodipodi-0.dtd"
   xmlns="http://www.w3.org/2000/svg"
   xmlns:svg="http://www.w3.org/2000/svg"
   xmlns:rdf="http://www.w3.org/1999/02/22-rdf-syntax-ns#"
   xmlns:cc="http://creativecommons.org/ns#"
   xmlns:dc="http://purl.org/dc/elements/1.1/"

 width="1052.000000pt" height="1708.000000pt" viewBox="0 0 1052.000000 1708.000000"
 preserveAspectRatio="xMidYMid meet">
<metadata>
Created by potrace 1.16, written by Peter Selinger 2001-2019
</metadata>  <sodipodi:namedview
     pagecolor="#222"
     bordercolor="#666666"
     inkscape:deskcolor="#444" /><rect width="100%" height="100%" x="0" y="0" fill="black" />
<g transform="translate(0.000000,1708.000000) scale(1.000000,-1.000000)"
fill="#ffffff" stroke="none">
<path d="M383 1702 c-18 -1 -53 -1 -76 -1 -59 1 -100 0 -110 -3 -14 -4 -19 -7
-22 -16 -1 -5 -1 -19 -2 -114 -1 -127 -1 -123 1 -186 1 -63 3 -71 11 -79 10
-7 19 -8 78 -8 38 1 265 3 316 3 12 0 18 -1 19 -2 1 0 -1 -2 -8 -6 -5 -3 -15
-9 -21 -14 -10 -7 -12 -8 -14 -13 l-3 -6 0 -121 c0 -79 -1 -121 -1 -122 -1 0
-32 0 -68 0 -145 2 -153 2 -169 -4 -14 -4 -18 -10 -22 -31 -3 -11 -3 -16 -4
-41 0 -16 -1 -30 -1 -32 -1 -2 -3 -7 -4 -10 -5 -7 -7 -16 -8 -31 -1 -18 0
-251 1 -276 1 -26 3 -36 9 -46 4 -7 4 -12 6 -39 2 -16 1 -19 0 -20 -1 -1 -14
-2 -100 -2 -122 0 -131 -1 -145 -8 -8 -4 -11 -6 -17 -14 -7 -9 -11 -16 -14
-27 -4 -13 -5 -22 -6 -68 l0 -44 3 0 4 0 0 -56 0 -57 -3 0 -3 0 0 -39 c0 -53
1 -78 4 -89 3 -13 9 -24 17 -32 14 -14 26 -20 42 -22 6 -1 70 -1 166 -1 85 0
157 0 159 -1 2 0 5 -2 9 -6 7 -7 10 -8 23 -6 8 1 23 1 63 0 29 0 53 -1 53 0 1
0 44 1 90 2 39 0 39 0 42 7 0 1 2 3 3 4 2 1 20 2 69 2 66 1 79 2 96 5 7 1 12
5 14 9 1 2 3 8 5 14 l2 10 0 64 c0 35 0 78 0 95 -1 17 -1 76 -1 129 l0 98 60
1 c66 0 80 0 94 3 18 2 23 6 26 22 1 7 1 17 1 67 0 34 0 62 -1 66 -1 3 -1 19
-2 34 l0 27 -3 0 -2 0 0 23 c0 12 0 40 -1 62 l0 39 4 0 5 0 0 76 c0 91 -1 117
-4 126 -2 8 -6 12 -13 16 l-5 3 -26 0 c-22 0 -26 0 -27 2 -1 1 -2 20 -2 103 0
122 1 111 -14 141 -5 11 -10 22 -12 24 -1 2 -6 11 -10 21 -11 20 -21 40 -30
54 -9 17 -25 47 -29 57 -6 16 -9 18 -18 18 -4 0 -6 0 -12 -4 -4 -2 -8 -4 -8
-3 -1 0 -1 2 0 4 0 4 0 161 -1 196 -1 44 -4 60 -14 68 -6 6 3 5 -208 5 -109 0
-213 0 -231 0z m-34 -26 c4 -1 4 -2 1 -13 -2 -5 -3 -11 -4 -13 l0 -3 -4 3 c-6
4 -14 4 -24 1 -4 -2 -9 -3 -9 -3 -2 0 -24 -9 -31 -13 -23 -11 -40 -27 -56 -51
-5 -8 -12 -18 -15 -22 l-6 -7 -1 5 c-1 3 -1 10 -1 15 0 5 0 23 -1 40 0 30 1
55 3 57 2 2 12 3 59 3 28 0 54 1 59 1 15 1 26 1 30 0z m314 0 c2 0 14 0 26 0
13 1 23 1 24 0 1 -1 1 -4 1 -19 0 -23 -1 -57 -2 -80 0 -10 0 -27 0 -38 1 -11
1 -33 1 -49 -1 -27 -1 -29 1 -30 1 0 2 -1 2 -1 1 1 34 3 55 3 11 1 24 1 29 2
l8 0 0 -5 c1 -3 1 -9 1 -13 -1 -4 -1 -13 -1 -20 -1 -17 -3 -22 -14 -34 -8 -8
-14 -12 -42 -27 -23 -12 -42 -22 -46 -25 -4 -3 -19 -11 -27 -14 l-6 -2 -134
-1 c-74 0 -142 0 -151 0 -12 0 -17 0 -18 1 -2 2 -4 52 -2 57 1 3 6 7 12 8 2 1
7 3 11 4 3 2 9 5 12 6 20 9 39 27 48 46 2 2 5 9 8 15 8 14 10 26 10 40 -2 27
-19 63 -39 80 -16 14 -20 16 -47 25 l-15 5 -1 4 c-1 5 0 60 0 61 1 0 41 0 90
1 49 0 89 0 90 0 0 1 92 0 116 0z m142 -1 c1 -1 2 -6 2 -11 1 -17 1 -182 0
-189 l0 -3 -41 0 -40 0 0 8 c0 23 -1 53 -2 58 -2 10 -1 74 1 117 l1 21 19 0
c11 0 28 1 39 1 18 0 20 -1 21 -2z m-459 -35 c1 -1 3 -3 4 -5 1 -4 1 -21 0
-23 0 -1 -8 -3 -27 -8 -10 -2 -26 -10 -36 -18 -8 -5 -19 -16 -24 -24 -5 -8
-14 -28 -17 -38 -2 -9 -2 -12 -2 -27 0 -17 0 -18 6 -34 3 -9 10 -23 15 -31 3
-5 20 -23 22 -23 0 0 3 -1 5 -3 9 -6 35 -17 40 -17 3 0 14 -6 15 -8 2 -3 2
-19 0 -24 -1 -4 -1 -4 -6 -4 -8 0 -31 6 -41 10 -2 1 -8 4 -12 7 -5 3 -11 6
-13 7 -2 1 -9 5 -14 10 -11 10 -27 28 -27 30 0 0 -2 4 -4 7 -2 4 -7 14 -11 22
-7 14 -8 17 -9 25 -1 5 -1 10 -2 10 0 1 0 9 0 19 0 21 1 32 5 42 4 9 17 32 21
38 3 3 6 7 8 10 6 7 20 20 28 25 26 17 65 30 76 25z m24 -45 c11 -2 21 -6 37
-13 9 -5 22 -17 29 -28 10 -15 19 -42 19 -56 0 -16 -14 -49 -25 -61 -10 -12
-27 -23 -40 -29 -23 -9 -29 -10 -46 -8 -16 2 -25 5 -40 15 -23 15 -35 31 -44
59 -2 7 -2 9 -2 26 1 18 1 20 3 27 4 12 7 18 18 33 5 8 17 18 28 24 12 7 22
10 38 12 9 2 9 2 25 -1z m-164 -160 c3 -4 7 -8 8 -9 1 -2 2 -3 2 -4 1 -1 2 -3
3 -5 2 -3 4 -6 5 -7 5 -10 22 -29 29 -34 2 -2 6 -4 9 -7 3 -2 9 -6 14 -8 5 -2
12 -6 16 -8 4 -2 9 -3 10 -4 2 0 4 -1 6 -2 1 0 3 -1 6 -2 2 0 5 -1 7 -2 2 0 8
-1 15 -2 13 -1 14 -1 17 -11 2 -3 3 -6 3 -6 -1 0 -70 -2 -107 -2 -38 0 -44 0
-45 1 -2 1 -2 8 -2 46 0 24 -1 46 -1 49 -2 7 -2 25 -1 25 0 0 3 -3 6 -8z m648
-37 c2 -2 10 -16 10 -17 0 -1 3 -7 8 -14 4 -8 9 -17 12 -22 2 -5 6 -12 8 -15
3 -6 13 -25 13 -27 0 0 1 -1 2 -3 1 -1 4 -6 6 -10 2 -5 6 -12 9 -16 4 -8 13
-28 15 -31 4 -10 6 -16 6 -18 1 -2 1 -51 2 -109 0 -87 0 -106 -1 -106 -1 -1
-29 -1 -63 -1 -33 -1 -61 -1 -62 -1 -1 -1 -1 -4 -1 -7 l0 -7 7 -1 c8 -2 46 -2
112 -1 29 1 77 -1 80 -2 1 -1 2 -22 2 -122 l0 -73 4 0 4 0 0 -20 c0 -11 0 -39
1 -62 l0 -42 -2 0 c-2 0 -3 -1 -3 -1 0 -1 0 -14 0 -29 0 -15 0 -33 -1 -39 -1
-14 -1 -16 -2 -74 -1 -43 -1 -48 -4 -48 -5 -2 -58 -3 -181 -4 -83 0 -140 -1
-141 -1 -2 -1 -4 -9 -2 -12 0 -2 2 -3 3 -4 1 0 9 0 16 0 7 0 23 0 34 0 11 -1
36 -1 55 -1 27 1 36 1 37 0 1 -4 2 -38 2 -45 l-1 -6 -8 1 c-14 1 -37 0 -42 -2
-3 -1 -6 -6 -8 -13 -5 -21 -9 -26 -21 -30 -7 -2 -26 -5 -40 -7 -22 -2 -38 -4
-45 -4 -5 -1 -11 -1 -14 -2 -3 0 -13 -1 -22 -2 -10 -1 -24 -2 -31 -3 -7 0 -16
-1 -19 -2 -9 0 -22 -5 -26 -8 -5 -4 -10 -14 -10 -23 -2 -15 -1 -88 1 -95 0 -2
2 -8 3 -12 3 -9 4 -10 8 -14 7 -7 13 -8 48 -10 10 -1 22 -1 27 -2 13 -2 19 -2
32 -3 7 0 14 0 17 -1 2 0 10 0 18 -1 31 -2 53 -5 58 -8 4 -2 10 -8 13 -15 1
-2 4 -10 7 -16 3 -7 6 -14 8 -15 l2 -2 18 1 c10 1 21 1 24 2 l5 0 0 -5 c1 -6
-1 -49 -2 -55 -1 -4 -1 -4 -5 -6 -7 -1 -31 -2 -97 -3 -47 0 -60 0 -67 -1 -10
-2 -16 -2 -18 -1 -2 3 -5 16 -6 28 -1 9 -2 11 -3 12 -1 1 -10 1 -25 0 -19 -1
-92 -1 -102 0 -2 0 -5 0 -7 0 -5 -1 -59 -1 -66 0 -3 0 -6 0 -7 0 0 0 -1 -3 -1
-6 -1 -4 -1 -7 -2 -8 0 -2 -1 -7 -1 -12 -2 -8 -3 -15 -4 -17 -1 0 -4 1 -9 1
-9 2 -35 3 -78 3 -18 0 -33 1 -34 1 -1 1 -1 4 -1 10 0 22 -4 55 -6 59 -2 2 -5
1 -7 -3 -1 -3 -2 -8 -2 -35 l0 -31 -93 0 c-90 0 -120 1 -130 3 -8 2 -19 8 -21
11 -3 4 -8 11 -10 16 -2 6 -3 18 -2 51 0 17 0 38 0 46 0 8 0 18 0 22 l0 7 -4
0 -4 0 0 57 0 56 4 0 4 0 0 26 c0 55 1 67 6 81 4 12 9 20 15 23 4 3 16 6 22 6
8 0 8 -1 9 -23 1 -10 1 -20 1 -22 0 -4 3 -11 7 -16 10 -11 11 -17 11 -45 0
-16 0 -20 1 -21 1 0 29 -1 62 -1 34 0 65 0 69 -1 3 -1 8 -1 9 -1 l2 0 0 25 c0
22 1 36 2 41 1 1 3 3 5 4 4 3 6 6 7 17 1 5 1 10 2 12 1 2 1 9 2 16 l0 13 3 1
c1 1 7 1 13 1 l11 1 0 -12 c0 -22 1 -41 3 -45 2 -4 11 -13 14 -13 1 0 2 0 3
-1 0 -1 1 -1 2 -1 1 0 3 -1 4 -2 4 -5 6 -5 52 -6 23 0 45 0 47 0 l5 0 1 4 c1
3 0 54 -1 64 l0 5 5 2 c2 1 7 3 10 4 2 1 6 3 8 5 4 3 4 4 4 8 0 7 0 8 -20 6
-19 -2 -29 -2 -32 -1 -2 1 -3 5 -1 13 3 17 4 29 4 63 l0 35 4 5 c6 6 8 10 8
21 1 5 1 15 2 21 1 25 2 123 1 148 -1 10 -1 26 -1 35 -1 31 -2 33 -3 35 -1 2
-3 4 -5 4 -2 1 -2 1 -6 -3 -4 -4 -5 -4 -18 -5 -4 -1 -7 -1 -7 -1 -1 -1 -27 3
-31 4 -5 3 -11 2 -16 0 -7 -4 -7 -5 -7 -24 0 -10 0 -26 0 -37 0 -11 0 -57 0
-103 0 -70 0 -82 1 -85 1 -2 4 -6 7 -8 7 -6 8 -8 8 -16 0 -3 1 -9 1 -13 1 -4
1 -19 2 -34 1 -34 1 -35 5 -43 3 -6 4 -7 8 -7 4 0 4 0 6 4 2 5 1 8 -3 18 l-4
8 0 36 0 37 17 -1 c10 0 19 0 19 0 0 -1 0 -11 1 -24 0 -28 -1 -49 -5 -53 -2
-2 -6 -15 -6 -17 0 -2 1 -4 2 -7 2 -4 3 -8 1 -8 -3 -1 -13 0 -18 2 -7 2 -15 2
-20 0 -7 -3 -21 -1 -24 3 -1 2 -2 17 -3 48 0 17 -1 32 -1 34 -1 1 -3 5 -5 8
-3 3 -6 7 -7 10 -2 8 -3 27 -3 113 0 87 1 156 3 169 1 3 1 9 2 12 0 4 1 7 2 7
5 5 6 6 6 11 1 6 2 23 3 61 0 30 1 36 4 38 5 3 118 1 128 -2 2 -1 2 -1 2 -6 0
-3 -1 -11 -2 -17 -2 -16 -1 -46 1 -49 0 -1 8 -1 18 -1 43 2 53 2 98 2 26 0 50
0 54 0 l6 0 -1 29 c-1 47 -1 42 2 43 4 1 41 4 53 4 l5 0 0 7 0 8 -15 0 c-9 1
-25 1 -36 0 -26 -1 -58 -2 -59 -1 -1 1 -1 7 1 51 2 45 2 64 1 140 l0 53 2 3
c1 1 5 3 8 5 2 1 7 4 11 6 3 3 10 6 15 9 7 3 20 10 27 14 1 0 6 3 12 7 12 7
20 12 24 15 4 4 16 11 28 17 5 3 10 6 11 6 1 1 6 4 12 7 6 3 13 8 17 10 3 2
11 7 18 10 6 4 16 9 22 12 5 4 13 7 17 8 9 3 24 11 31 15 10 7 17 9 21 4z
m-242 -427 c0 -5 1 -12 2 -16 1 -6 1 -25 0 -27 -1 0 -15 0 -32 0 -17 0 -51 0
-75 0 l-44 0 -1 2 c0 2 0 10 0 19 1 18 3 25 7 27 1 1 15 1 35 1 35 -1 78 0 94
2 13 1 12 2 14 -8z m-257 -131 c8 -2 34 -2 42 -1 l5 1 1 -4 c0 -2 1 -12 1 -23
0 -11 0 -33 0 -49 0 -26 0 -32 -2 -37 0 -1 -1 -1 -4 0 -3 1 -17 1 -33 1 -16 0
-29 1 -30 1 -1 1 -2 105 0 108 2 4 8 5 20 3z m48 -120 c1 -2 2 -76 1 -99 -2
-18 -1 -17 -14 -17 -6 -1 -14 -1 -17 -2 -4 -1 -12 -1 -18 -1 -13 -1 -15 0 -18
7 -2 4 -2 7 -3 57 l0 52 2 0 c1 1 15 1 30 1 21 0 28 1 29 2 2 1 6 1 8 0z m-82
-264 c1 -1 2 -10 2 -24 0 -20 1 -24 2 -29 l2 -5 -4 -4 c-5 -6 -9 -6 -12 -2 -4
5 -5 19 -2 49 2 19 1 17 7 17 2 -1 5 -1 5 -2z m-67 -2 c0 -2 -2 -35 -3 -40 -1
-2 -2 -4 -2 -5 -1 -1 -16 -1 -55 -1 -29 0 -57 0 -63 -1 -6 -1 -14 -1 -18 -2
l-7 0 -3 5 c-2 4 -2 5 -3 21 -1 10 -1 19 -1 20 l0 3 54 -1 c30 0 62 0 71 1 27
1 29 1 30 0z m96 -15 c3 -1 16 -1 32 -1 l28 0 1 -8 c2 -13 2 -34 0 -36 -1 -2
-5 -2 -31 -2 -39 -1 -42 0 -44 2 -1 1 -1 6 -1 13 0 19 0 20 4 32 0 1 5 1 11 0z
m-124 -46 l11 0 -1 -7 c0 -4 0 -15 0 -25 -1 -10 -1 -18 -1 -18 -1 -1 -11 -1
-66 -1 l-51 0 0 18 c0 13 0 19 -1 24 -1 3 -2 6 -2 7 2 2 27 4 69 3 17 0 36 0
42 -1z m611 1 c1 -2 1 -5 1 -24 1 -16 0 -23 -2 -24 -1 -1 -5 0 -10 0 -5 1 -10
1 -12 1 -18 -4 -22 -6 -24 -18 0 -5 0 -113 0 -126 1 -5 2 -10 2 -11 2 -3 6 -6
13 -8 6 -2 9 -2 17 -2 6 1 12 1 14 2 l3 0 1 -6 c0 -7 -1 -37 -2 -40 -1 -2 -2
-3 -7 -4 -4 -1 -11 -1 -16 -1 -12 -1 -13 0 -25 20 -1 2 -6 10 -10 16 -6 10
-18 14 -48 16 -6 1 -16 1 -20 2 -12 1 -20 2 -33 3 -7 0 -13 1 -14 1 -2 1 -10
1 -17 1 -7 1 -17 1 -22 2 -5 1 -16 1 -24 2 -16 1 -29 3 -31 6 0 1 -2 4 -3 8
-1 6 -1 11 -1 57 0 46 0 51 1 54 3 5 9 7 38 9 7 1 17 2 22 2 4 1 17 3 28 3 10
1 21 2 25 3 3 0 8 1 11 1 3 1 9 1 14 2 11 0 42 5 51 7 3 1 10 2 13 4 6 2 8 3
12 8 2 3 7 12 10 18 3 7 7 13 8 14 2 2 4 2 22 3 10 0 14 0 15 -1z m-6 -63 c0
0 1 -8 1 -17 1 -10 1 -25 2 -34 1 -22 1 -83 0 -84 -1 0 -6 0 -13 0 -11 0 -12
0 -14 2 -2 1 -3 4 -4 6 -1 4 -1 114 0 121 1 6 2 7 7 8 6 1 20 0 21 -2z m-301
-252 c1 -1 1 -40 0 -41 0 -1 -3 -1 -7 -1 -4 1 -16 1 -27 1 -12 1 -24 1 -27 2
-3 0 -9 0 -13 0 -5 1 -10 2 -11 2 l-4 2 1 7 c0 3 1 11 2 17 l1 11 33 0 c18 0
36 0 40 1 7 1 11 1 12 -1z m41 -1 c7 0 24 0 37 1 19 1 24 1 25 0 1 -2 5 -24 5
-30 0 -3 -1 -5 -1 -6 -3 -2 -21 -3 -67 -5 l-24 0 -1 2 c-1 4 -3 31 -2 35 0 2
1 3 2 3 5 2 8 2 10 1 1 0 9 0 16 -1z M568 1653 c-2 -1 -6 -3 -9 -6 -5 -3 -7
-5 -9 -9 -2 -6 -2 -7 -2 -22 0 -12 0 -17 2 -24 4 -18 15 -35 24 -40 4 -2 6 -2
12 -2 6 1 10 2 12 3 4 2 13 14 13 16 0 1 0 2 1 3 0 0 2 4 3 8 2 4 4 11 5 15 2
6 2 8 2 19 0 20 -3 27 -17 34 -4 2 -9 4 -11 5 -7 1 -20 1 -26 0z m31 -14 c11
-6 14 -16 11 -34 -4 -16 -12 -36 -18 -42 -3 -3 -3 -3 -7 -2 -8 1 -11 4 -18 18
-5 10 -5 11 -5 24 -1 6 -1 11 -2 11 0 1 1 6 1 12 2 13 4 15 13 16 9 1 20 -1
25 -3z M757 1607 c-6 -3 -15 -13 -18 -19 -6 -10 -6 -19 -1 -31 3 -7 9 -14 16
-17 8 -4 14 -2 22 5 4 5 5 7 7 14 4 10 4 13 1 24 -4 11 -7 16 -13 21 -7 5 -9
5 -14 3z m13 -13 c3 -6 5 -20 5 -27 -1 -5 -4 -14 -6 -18 -2 -3 -14 4 -20 11
-3 4 -3 5 -3 12 1 7 2 10 8 18 3 4 9 8 12 8 1 0 2 -1 4 -4z M614 1155 c-16 -3
-29 -7 -31 -11 0 -1 1 -5 3 -9 l4 -8 0 -42 c0 -23 0 -43 0 -45 1 -4 4 -6 9 -6
3 -1 23 -2 46 -2 3 0 4 0 5 5 1 6 2 48 0 93 l0 25 -7 0 c-8 1 -23 1 -29 0z
m21 -13 c2 -1 3 -3 4 -5 1 -6 1 -82 0 -85 -1 -4 -8 -7 -16 -7 -13 -1 -20 4
-22 12 0 3 0 15 0 28 -1 13 -1 29 -1 37 l-1 13 3 3 c3 4 11 6 22 6 6 0 8 0 11
-2z M917 976 c-6 -1 -19 -6 -26 -11 -8 -6 -22 -20 -24 -26 -6 -13 -7 -20 -7
-33 0 -12 0 -15 2 -20 4 -13 6 -16 15 -25 10 -10 14 -12 31 -20 8 -3 9 -3 19
-3 10 0 18 2 29 7 8 3 23 16 27 23 8 12 10 15 12 21 1 4 1 10 1 14 0 12 -6 32
-13 43 -8 11 -25 24 -37 28 -8 2 -22 3 -29 2z m24 -15 c12 -4 18 -7 27 -17 4
-4 7 -9 11 -16 l5 -9 0 -15 c0 -14 -1 -15 -4 -21 -2 -5 -4 -8 -10 -13 -9 -8
-15 -12 -23 -15 -7 -3 -8 -3 -21 -3 l-13 0 -10 4 c-16 8 -26 20 -30 38 -1 7
-2 10 -1 13 1 2 1 7 2 10 2 13 12 29 23 37 5 3 14 7 18 7 6 1 21 1 26 0z M349
972 c-3 -1 -5 -4 -6 -10 -2 -12 -3 -27 -3 -54 1 -26 1 -28 3 -33 2 -7 4 -8 16
-8 8 -1 11 -1 24 2 8 2 15 4 16 4 1 0 2 2 2 4 0 1 1 18 1 38 l0 36 -3 8 c-2 4
-4 9 -4 11 -2 2 -3 2 -8 2 -3 -1 -9 -1 -12 -2 -4 0 -9 0 -12 1 -11 2 -11 2
-14 1z m30 -11 c4 0 6 -3 9 -10 2 -4 3 -5 3 -30 0 -29 -1 -35 -7 -40 -5 -5
-17 -8 -25 -5 -5 2 -5 4 -5 44 l1 36 2 3 c1 1 3 3 5 3 1 1 10 1 17 -1z M456
794 c-1 -2 -2 -114 -1 -119 1 -6 2 -6 25 -6 23 1 33 2 34 3 0 1 0 23 0 88 0
37 0 36 -9 34 -8 -1 -38 -1 -43 0 -4 1 -5 1 -6 0z m40 -13 c2 0 3 -1 4 -3 2
-4 3 -80 1 -88 0 -4 -1 -8 -2 -8 0 -1 -7 -1 -15 -1 l-13 0 -2 2 c-2 4 -2 13
-2 42 0 21 1 32 3 51 0 6 0 6 3 6 4 1 18 0 23 -1z M798 695 c-6 -1 -16 -4 -19
-6 -6 -4 -20 -17 -25 -24 -3 -4 -7 -9 -9 -10 l-2 -3 -5 4 c-11 8 -12 9 -18 8
-5 0 -8 0 -13 -3 -8 -5 -13 -9 -19 -18 l-5 -7 0 -7 c1 -10 6 -22 13 -31 7 -8
23 -11 39 -6 9 3 12 4 16 2 4 -2 8 -6 14 -16 8 -12 9 -16 10 -31 1 -12 1 -14
4 -21 4 -9 10 -16 19 -21 6 -3 8 -3 14 -3 13 0 25 6 31 17 4 8 6 17 7 32 0 16
1 18 9 29 11 13 18 16 35 14 l11 -1 8 4 c8 4 14 9 16 12 1 1 2 6 3 10 1 6 1 8
-1 18 -2 10 -4 13 -9 20 -1 1 -5 4 -10 7 -8 4 -10 4 -15 4 -4 0 -9 -1 -14 -3
-4 -1 -8 -2 -10 -2 -1 1 -5 4 -9 8 -4 4 -11 10 -15 14 -7 5 -9 6 -17 8 -9 2
-28 4 -34 2z m24 -13 c6 -1 10 -2 16 -5 10 -5 22 -16 27 -27 3 -7 5 -20 5 -27
-2 -14 -3 -17 -5 -19 -1 -1 -3 -4 -4 -5 -5 -7 -19 -22 -21 -24 -3 -2 -5 -3
-11 -3 -4 0 -10 -1 -13 -2 -4 -1 -8 -1 -18 0 l-12 1 -6 6 c-8 8 -13 15 -17 22
-1 3 -4 8 -6 10 -2 5 -2 7 -3 17 l0 13 4 7 c6 12 13 21 20 27 9 7 10 7 21 9
11 1 12 1 23 0z m73 -26 c14 -4 17 -6 22 -16 3 -6 3 -7 3 -14 -1 -5 -1 -8 -4
-12 -2 -4 -3 -5 -8 -7 -3 -1 -8 -2 -12 -3 -10 0 -12 1 -13 12 -1 10 -2 40 -1
41 1 1 2 1 13 -1z m-162 -9 c2 -1 5 -3 6 -4 0 -1 1 -6 2 -10 2 -11 1 -21 -1
-25 -2 -3 -10 -5 -20 -5 -7 0 -8 0 -12 3 -8 5 -14 18 -11 26 2 5 8 13 12 16 4
2 5 2 11 1 4 0 10 -1 13 -2z m103 -91 c1 -2 1 -8 0 -16 -2 -10 -3 -12 -8 -18
-9 -9 -18 -11 -26 -5 -5 3 -11 9 -14 15 -2 4 -2 6 -2 13 0 5 0 9 1 10 1 2 7 3
29 2 16 0 19 0 20 -1z M79 135 c-2 -1 -6 -4 -10 -7 -3 -3 -7 -7 -9 -8 -4 -3
-9 -12 -9 -17 0 -4 4 -15 8 -23 2 -5 8 -10 15 -15 7 -4 7 -4 16 0 10 4 25 22
27 31 1 5 -6 23 -11 30 -5 7 -21 12 -27 9z m15 -13 c2 -1 4 -4 6 -7 3 -5 3 -7
3 -12 0 -6 0 -8 -2 -12 -4 -7 -9 -12 -14 -14 -3 -1 -4 -1 -7 1 -7 4 -13 13
-15 20 -2 9 1 16 7 21 7 5 16 6 22 3z"/>
</g>
</svg>
