<svg  viewBox="0 0 18.5891 24.1642" version="1.1" xmlns="http://www.w3.org/2000/svg">
  <style>
    .cameraPoint:hover {
      cursor: pointer;
    }
  </style>
  <rect fill="#000" stroke="none" width="100%" height="100%" />
  <image xlink:href="./entd.png" y="0" x="0" height="100%" width="100%" />
  <circle class="cameraPoint" cx="11.8722" cy="16.6018" r="0.02em" id="ENTD_BRIDGE_00" />
  <circle class="cameraPoint" cx="11.8722" cy="14.5879" r="0.02em" id="ENTD_BRIDGE_01" />
  <circle class="cameraPoint" cx="12.1683" cy="12.3334" r="0.02em" id="ENTD_BRIDGE_02" />
  <circle class="cameraPoint" cx="10.4544" cy="12.2327" r="0.02em" id="ENTD_BRIDGE_03" />
  <circle class="cameraPoint" cx="8.8927" cy="12.1363" r="0.02em" id="ENTD_BRIDGE_04" />
  <circle class="cameraPoint" cx="5.1730" cy="12.0655" r="0.02em" id="ENTD_BRIDGE_05" />
  <circle class="cameraPoint" cx="6.5980" cy="13.4752" r="0.02em" id="ENTD_BRIDGE_06" />
  <circle class="cameraPoint" cx="6.4684" cy="16.5505" r="0.02em" id="ENTD_BRIDGE_07" />
  <circle class="cameraPoint" cx="6.7645" cy="19.0335" r="0.02em" id="ENTD_BRIDGE_08" />
  <circle class="cameraPoint" cx="8.8742" cy="20.0546" r="0.02em" id="ENTD_BRIDGE_09" />
  <circle class="cameraPoint" cx="12.2423" cy="19.0400" r="0.02em" id="ENTD_BRIDGE_10" />
  <circle class="cameraPoint" cx="8.8927" cy="16.8225" r="0.02em" id="ENTD_BRIDGE_11" />
  <circle class="cameraPoint" cx="8.8557" cy="13.9944" r="0.02em" id="ENTD_BRIDGE_12" />
  <circle class="cameraPoint" cx="11.2430" cy="11.4808" r="0.02em" id="ENTD_BRIDGE_13" />
  <circle class="cameraPoint" cx="12.4164" cy="5.5928" r="0.02em" id="ENTD_CONFERENCE_00" />
  <circle class="cameraPoint" cx="9.0781" cy="5.0024" r="0.02em" id="ENTD_CONFERENCE_01" />
  <circle class="cameraPoint" cx="5.6898" cy="5.6322" r="0.02em" id="ENTD_CONFERENCE_02" />
  <circle class="cameraPoint" cx="5.0094" cy="2.7727" r="0.02em" id="ENTD_CONFERENCE_03" />
  <circle class="cameraPoint" cx="12.8794" cy="2.8197" r="0.02em" id="ENTD_CONFERENCE_04" />
  <circle class="cameraPoint" cx="8.9811" cy="1.1862" r="0.02em" id="ENTD_CONFERENCE_05" />
  <circle class="cameraPoint" cx="14.2047" cy="17.4897" r="0.02em" id="ENTD_READYROOM_00" />
  <circle class="cameraPoint" cx="16.0187" cy="17.9848" r="0.02em" id="ENTD_READYROOM_01" />
  <circle class="cameraPoint" cx="15.1995" cy="16.0462" r="0.02em" id="ENTD_READYROOM_02" />
  <circle class="cameraPoint" cx="15.6695" cy="14.6885" r="0.02em" id="ENTD_READYROOM_03" />
  <circle class="cameraPoint" cx="17.0718" cy="15.6793" r="0.02em" id="ENTD_READYROOM_04" />
</svg>