<?xml version="1.0" standalone="no"?>
<!DOCTYPE svg PUBLIC "-//W3C//DTD SVG 20010904//EN"
 "http://www.w3.org/TR/2001/REC-SVG-20010904/DTD/svg10.dtd">
<svg version="1.0" xmlns="http://www.w3.org/2000/svg"
 width="1100.000000pt" height="550.000000pt" viewBox="0 0 1100.000000 550.000000"
 preserveAspectRatio="xMidYMid meet">
<metadata>
Created by potrace 1.16, written by Peter Selinger 2001-2019
</metadata>
<g transform="translate(0.000000,550.000000) scale(1.000000,-1.000000)"
fill="#ffffff" stroke="none">
<path d="M705 508 l0 -8 -10 0 c-6 0 -12 0 -12 -1 -5 -1 -5 -3 -5 -51 l0 -46
-23 -1 c-39 -2 -82 -6 -119 -10 -10 -2 -19 -3 -19 -2 0 0 -1 3 -1 7 -1 6 -1 7
0 8 3 1 5 4 5 7 0 2 -3 25 -8 50 -8 52 -8 51 -15 51 -5 0 -95 -15 -97 -16 -1
-1 -2 -2 -3 -3 -1 -3 14 -98 16 -102 1 -1 3 -2 4 -2 2 0 3 -1 4 -8 1 -4 1 -7
1 -8 -1 0 -12 -3 -26 -5 -14 -3 -33 -8 -43 -10 -9 -2 -17 -4 -18 -4 -1 0 -8
22 -23 74 -12 40 -22 74 -23 75 -2 3 -5 3 -16 0 -5 -2 -10 -3 -11 -3 0 0 -1 3
-2 6 -1 3 -3 6 -3 6 -2 0 -35 -10 -36 -10 0 -1 4 -19 5 -20 1 0 9 2 20 6 11 3
19 5 20 5 0 -1 11 -38 24 -84 14 -45 25 -83 25 -84 1 -2 3 -1 20 3 23 6 62 15
90 20 12 2 22 4 22 5 0 0 -7 45 -8 46 0 0 -4 -1 -10 -1 -5 -1 -9 -2 -10 -2 0
1 -15 93 -15 93 1 1 93 16 94 16 0 0 3 -21 7 -45 4 -24 7 -45 8 -47 0 -2 -1
-2 -11 -3 -6 -1 -12 -3 -12 -3 -1 0 -1 -3 0 -5 0 -3 2 -13 4 -22 2 -12 3 -18
4 -19 1 0 10 1 21 2 51 7 99 12 153 14 12 1 23 1 25 1 l4 0 0 57 1 58 20 0 21
0 0 11 0 11 -19 0 -20 0 0 -7z m-420 -12 c3 -11 44 -151 45 -151 0 0 5 1 12 2
31 8 48 12 68 15 12 3 21 5 21 5 1 0 0 5 -1 11 -1 6 -2 11 -2 12 0 0 3 0 5 1
l5 0 0 -3 c4 -17 6 -32 5 -33 -1 0 -13 -2 -27 -5 -27 -5 -58 -12 -82 -18 -8
-2 -15 -4 -15 -4 0 1 -47 162 -47 164 0 2 1 3 5 4 7 2 8 2 8 0z m413 -58 l0
-56 -12 0 c-7 -1 -22 -1 -33 -2 -39 -2 -101 -8 -137 -13 -8 -1 -14 -2 -15 -2
0 1 -6 35 -6 36 1 0 3 0 6 1 7 0 6 1 8 -12 1 -5 2 -9 2 -9 0 -1 11 0 25 2 29
4 58 6 85 8 21 2 56 4 62 4 l3 0 0 49 0 49 6 0 6 0 0 -55z M746 504 l0 -11 21
0 20 0 0 -57 0 -58 18 0 c77 -3 154 -11 228 -24 9 -2 17 -3 19 -3 2 -1 2 -1
-2 -18 -1 -10 -3 -19 -3 -20 0 -2 0 -3 10 -5 6 -1 11 -2 11 -2 0 1 7 35 7 36
0 1 -3 2 -6 3 -4 0 -6 1 -7 1 0 1 1 5 1 10 1 6 2 11 2 13 -1 5 -4 6 -32 10
-69 12 -130 19 -196 22 -12 1 -22 1 -23 2 -1 0 -1 10 -1 46 0 46 0 47 -2 49
-2 2 -3 2 -14 2 l-12 0 0 8 0 7 -19 0 -20 0 0 -11z m60 -60 l0 -49 13 0 c24
-2 60 -4 72 -5 54 -5 89 -9 138 -18 15 -2 28 -4 28 -5 1 -1 -1 -11 -2 -12 0
-1 -8 0 -17 2 -53 10 -119 18 -175 21 -22 2 -61 4 -68 4 l-4 0 0 55 c0 30 0
55 1 55 0 1 3 1 7 1 l7 0 0 -49z M200 496 c-9 -3 -17 -6 -17 -6 -1 0 0 -3 1
-7 l2 -6 -11 -3 c-10 -3 -13 -5 -13 -9 0 -1 10 -35 21 -75 12 -40 22 -74 21
-74 0 0 -7 -3 -14 -5 -9 -3 -14 -6 -15 -7 -2 -3 -1 -6 2 -16 2 -4 3 -9 3 -9 0
0 -2 -1 -4 -2 -5 -2 -5 -2 -9 2 -11 8 -25 14 -38 16 -10 2 -26 1 -34 -2 -24
-6 -46 -24 -56 -47 -8 -19 -9 -44 -1 -64 7 -16 22 -34 36 -42 36 -20 80 -12
106 19 7 9 14 23 17 33 l1 8 5 1 c4 2 4 2 5 0 7 -20 8 -22 12 -22 2 0 7 2 13
3 l10 4 1 -3 c0 -2 10 -35 22 -74 14 -50 21 -72 22 -74 3 -3 4 -3 16 1 10 3
10 3 12 -6 1 -3 2 -5 2 -6 1 0 36 10 37 11 0 0 -1 5 -3 11 l-3 11 -3 -1 c-2
-1 -11 -3 -20 -6 -15 -4 -17 -5 -17 -3 -1 1 -12 40 -26 86 -13 46 -24 85 -24
85 0 0 -10 -4 -22 -8 -13 -4 -23 -7 -23 -6 0 0 -3 9 -7 19 -7 21 -6 20 -16 16
l-6 -2 2 -7 c3 -11 2 -30 -1 -40 -4 -11 -11 -22 -19 -30 -40 -39 -107 -21
-122 34 -3 11 -3 26 0 37 7 25 25 44 49 52 32 11 71 -6 87 -37 2 -3 4 -6 4 -6
1 0 14 5 14 5 0 0 -3 9 -6 19 -4 10 -7 19 -7 19 1 0 12 4 25 9 19 6 24 8 24 9
-4 12 -49 166 -49 167 0 1 6 3 18 7 10 3 19 6 20 6 1 1 -4 19 -6 20 0 0 -8 -3
-18 -5z m5 -110 c14 -45 24 -82 25 -83 0 0 -8 -4 -22 -8 l-23 -8 -1 5 c-1 3
-2 6 -3 7 0 0 6 3 16 6 8 3 16 6 16 6 1 0 -9 35 -21 76 -12 42 -22 76 -22 77
0 1 8 4 11 4 0 0 11 -37 24 -82z m76 -259 c13 -45 24 -83 24 -83 -1 -1 -11 -3
-12 -3 0 1 -10 35 -22 77 -12 41 -23 76 -23 76 0 1 -6 -1 -13 -3 -7 -2 -13 -4
-14 -4 -1 0 -5 12 -4 13 0 0 9 3 20 6 16 6 19 7 19 5 1 -1 12 -39 25 -84z
M479 485 c0 -1 0 -1 1 -1 0 1 0 1 0 2 -1 0 -1 0 -1 -1z M483 485 c0 -1 1 -1 1
-1 1 0 1 0 1 1 0 1 -1 1 -2 1 0 0 -1 0 0 -1z M473 484 c0 -1 0 -1 1 -1 0 1 0
1 0 2 -1 0 -1 0 -1 -1z M467 483 c0 -1 0 -1 1 -1 1 0 1 0 1 1 -1 1 -1 1 -2 1
0 0 0 0 0 -1z M470 483 c1 0 1 0 2 0 0 1 0 1 -1 1 -1 0 -1 0 -1 -1z M461 482
c0 -1 0 -1 1 -1 1 0 1 0 1 1 -1 1 -1 1 -2 1 0 0 0 0 0 -1z M464 482 c1 0 1 0
2 0 0 1 0 1 -1 1 -1 0 -1 0 -1 -1z M484 482 c0 -1 0 -1 1 -1 0 1 0 1 0 2 -1 0
-1 0 -1 -1z M456 481 c-1 -1 -1 -1 0 -1 1 0 1 0 1 1 0 1 0 1 0 1 -1 0 -1 0 -1
-1z M458 481 c1 0 1 0 2 0 0 1 0 1 -1 1 -1 0 -1 0 -1 -1z M450 480 c-1 -1 -1
-1 0 -1 1 0 1 0 1 1 0 1 0 1 0 1 -1 0 -1 0 -1 -1z M452 480 c1 0 1 0 2 0 0 1
0 1 -1 1 -1 0 -1 0 -1 -1z M444 479 c0 -1 0 -1 1 -1 0 1 0 1 0 2 -1 0 -1 0 -1
-1z M446 479 c1 0 1 0 2 0 0 1 0 1 -1 1 -1 0 -1 0 -1 -1z M485 479 c0 -1 0 -1
1 -1 0 1 0 1 0 2 -1 0 -1 0 -1 -1z M438 478 c0 -1 0 -1 1 -1 0 1 0 1 0 2 -1 0
-1 0 -1 -1z M440 478 c1 0 1 0 2 0 0 1 0 1 -1 1 -1 0 -1 0 -1 -1z M432 477 c0
-1 0 -1 1 -1 0 1 0 1 0 2 -1 0 -1 0 -1 -1z M426 476 c0 -1 0 -1 1 -1 0 1 0 1
0 2 -1 0 -1 0 -1 -1z M485 476 c0 -1 0 -1 1 -1 0 1 0 1 0 2 -1 0 -1 0 -1 -1z
M425 473 c0 -1 0 -1 1 -1 0 1 0 1 0 2 -1 0 -1 0 -1 -1z M485 473 c1 0 1 0 2 0
0 1 0 1 -1 1 -1 0 -1 0 -1 -1z M425 470 c0 -1 0 -1 1 -1 0 1 0 1 0 2 -1 0 -1
0 -1 -1z M426 467 c0 -1 0 -1 1 -1 0 1 0 1 0 2 -1 0 -1 0 -1 -1z M486 467 c1
0 1 0 2 0 0 1 0 1 -1 1 -1 0 -1 0 -1 -1z M426 464 c0 -1 0 -1 1 -1 0 1 0 1 0
2 -1 0 -1 0 -1 -1z M427 461 c0 -1 0 -1 1 -1 0 1 0 1 0 2 -1 0 -1 0 -1 -1z
M487 461 c1 0 1 0 2 0 0 1 0 1 -1 1 -1 0 -1 0 -1 -1z M427 458 c0 -1 0 -1 1
-1 0 1 0 1 0 2 -1 0 -1 0 -1 -1z M427 455 c1 0 1 0 2 0 0 1 0 1 -1 1 -1 0 -1
0 -1 -1z M488 455 c1 0 1 0 2 0 0 1 0 1 -1 1 -1 0 -1 0 -1 -1z M428 449 c1 0
1 0 2 0 0 1 0 1 -1 1 -1 0 -1 0 -1 -1z M489 449 c1 0 1 0 2 0 0 1 0 1 -1 1 -1
0 -1 0 -1 -1z M429 443 c1 0 1 0 2 0 0 1 0 1 -1 1 -1 0 -1 0 -1 -1z M490 443
c1 0 1 0 2 0 0 1 0 1 -1 1 -1 0 -1 0 -1 -1z M430 437 c1 0 1 0 2 0 0 1 0 1 -1
1 -1 0 -1 0 -1 -1z M491 437 c1 0 1 0 2 0 0 1 0 1 -1 1 -1 0 -1 0 -1 -1z M492
435 c0 -1 0 -1 1 -1 0 1 0 1 0 2 -1 0 -1 0 -1 -1z M431 431 c1 0 1 0 2 0 0 1
0 1 -1 1 -1 0 -1 0 -1 -1z M492 431 c1 0 1 0 2 0 0 1 0 1 -1 1 -1 0 -1 0 -1
-1z M493 429 c0 -1 0 -1 1 -1 0 1 0 1 0 2 -1 0 -1 0 -1 -1z M491 426 c0 -1 0
-1 1 -1 1 0 1 0 1 1 0 1 0 1 -1 1 -1 0 -1 0 -1 -1z M432 425 c1 0 1 0 2 0 0 1
0 1 -1 1 -1 0 -1 0 -1 -1z M486 425 c0 -1 0 -1 1 -1 0 1 0 1 0 2 -1 0 -1 0 -1
-1z M488 425 c1 0 1 0 2 0 0 1 0 1 -1 1 -1 0 -1 0 -1 -1z M480 424 c0 -1 0 -1
1 -1 0 1 0 1 0 2 -1 0 -1 0 -1 -1z M482 424 c1 0 1 0 2 0 0 1 0 1 -1 1 -1 0
-1 0 -1 -1z M474 423 c0 -1 0 -1 1 -1 0 1 0 1 0 2 -1 0 -1 0 -1 -1z M476 423
c1 0 1 0 2 0 0 1 0 1 -1 1 -1 0 -1 0 -1 -1z M468 422 c0 -1 0 -1 1 -1 0 1 0 1
0 2 -1 0 -1 0 -1 -1z M462 421 c0 -1 0 -1 1 -1 0 1 0 1 0 2 -1 0 -1 0 -1 -1z
M456 420 c0 -1 0 -1 1 -1 0 1 0 1 0 2 -1 0 -1 0 -1 -1z M433 419 c1 0 1 0 2 0
0 1 0 1 -1 1 -1 0 -1 0 -1 -1z M450 419 c0 -1 0 -1 1 -1 0 1 0 1 0 2 -1 0 -1
0 -1 -1z M444 418 c0 -1 0 -1 1 -1 0 1 0 1 0 2 -1 0 -1 0 -1 -1z M434 417 c0
-1 1 -1 2 -1 0 0 1 0 1 0 0 1 -1 1 -1 1 -1 1 -2 1 -2 0z M438 417 c0 -1 0 -1
1 -1 0 1 0 1 0 2 -1 0 -1 0 -1 -1z M1046 306 c-1 -1 -3 -10 -4 -20 -2 -10 -4
-18 -4 -19 -1 0 -12 2 -25 4 -66 11 -128 18 -197 21 -12 1 -23 1 -25 1 l-4 0
0 -26 0 -27 -20 0 -21 0 0 -12 0 -13 20 0 21 0 3 -3 c6 -5 6 -6 6 -32 0 -26 0
-27 -6 -32 l-3 -3 -21 0 -20 0 0 -10 0 -11 20 0 19 0 0 5 0 6 5 1 c6 2 13 10
15 16 1 5 1 51 0 56 -2 6 -9 14 -15 16 -5 1 -5 2 -5 5 l0 3 11 0 c10 0 12 0
14 2 l3 2 0 16 0 15 11 0 c72 -5 121 -10 185 -21 35 -5 33 -6 36 12 2 8 2 8 5
8 1 0 4 0 6 0 l4 -1 3 18 c2 10 4 19 4 20 0 0 -4 1 -9 2 -5 1 -9 2 -10 3 -1 0
-2 -1 -2 -2z m-210 -19 c38 -2 89 -7 129 -13 19 -2 72 -11 73 -12 0 0 0 -3 -1
-6 l-1 -7 -5 1 c-54 10 -129 20 -189 23 -10 1 -22 1 -27 2 l-9 0 0 -17 0 -18
-7 0 -8 0 0 25 0 24 13 0 c7 -1 21 -2 32 -2z M685 292 c-120 -5 -214 -19 -321
-45 -18 -4 -23 -6 -23 -7 0 -1 11 -40 25 -86 16 -54 24 -85 24 -85 -1 0 -10
-3 -20 -6 -11 -3 -19 -6 -19 -6 1 -1 2 -6 4 -11 1 -7 3 -10 4 -10 1 0 8 2 17
5 8 2 16 4 17 5 2 0 2 1 0 7 -2 4 -2 7 -1 8 0 0 5 2 10 3 10 3 14 6 14 10 0 0
-10 34 -22 75 -11 40 -21 74 -21 74 0 2 52 13 91 20 65 12 130 19 202 24 l12
0 0 -13 c0 -21 1 -22 17 -22 l10 0 0 -3 c0 -3 0 -4 -4 -5 -6 -2 -12 -6 -15
-13 l-2 -5 0 -26 0 -25 2 -6 c3 -7 9 -11 15 -13 4 -1 4 -1 4 -7 l0 -5 20 0 19
0 0 10 0 11 -21 0 c-22 1 -22 1 -26 6 -3 3 -4 9 -4 29 0 20 1 26 4 30 4 4 4 4
26 5 l21 1 0 12 0 12 -21 0 -21 0 0 27 0 26 -6 0 c-3 0 -8 -1 -11 -1z m13 -27
l0 -25 -6 0 -6 0 0 18 0 17 -10 0 c-5 -1 -17 -1 -27 -2 -69 -4 -147 -14 -217
-29 -29 -5 -68 -14 -68 -15 -1 0 9 -34 21 -75 12 -41 22 -76 22 -77 0 -3 0 -3
-6 -5 -3 -1 -6 -2 -6 -2 -1 1 -49 167 -49 168 0 1 48 13 92 21 82 17 163 26
256 30 l4 0 0 -24z"/>
</g>
</svg>
