<?xml version="1.0" standalone="no"?>
<!DOCTYPE svg PUBLIC "-//W3C//DTD SVG 20010904//EN"
 "http://www.w3.org/TR/2001/REC-SVG-20010904/DTD/svg10.dtd">
<svg version="1.0" xmlns="http://www.w3.org/2000/svg"
 width="891.000000pt" height="2113.000000pt" viewBox="0 0 891.000000 2113.000000"
 preserveAspectRatio="xMidYMid meet">
<metadata>
Created by potrace 1.16, written by Peter Selinger 2001-2019
</metadata>
<g transform="translate(0.000000,2113.000000) scale(1.000000,-1.000000)"
fill="#ffffff" stroke="none">
<path d="M112 2107 c-7 -2 -9 -7 -11 -29 -1 -6 -2 -18 -4 -26 -2 -9 -3 -18 -3
-20 0 -5 -3 -32 -3 -35 -1 -4 -5 -42 -6 -53 0 -16 -3 -38 -4 -45 -2 -8 -4 -25
-7 -54 -1 -11 -3 -27 -4 -35 -1 -9 -2 -21 -3 -27 -2 -25 -3 -33 -6 -48 -2 -20
-3 -24 -4 -38 -2 -20 -3 -33 -6 -55 -2 -13 -4 -32 -5 -44 -1 -13 -3 -29 -3
-37 -3 -22 -4 -40 -4 -65 -1 -32 -3 -65 -4 -75 0 -5 -1 -16 -2 -25 -1 -9 -2
-19 -2 -22 -1 -4 -2 -26 -2 -49 -1 -37 -4 -100 -5 -102 -1 -1 -3 -47 -4 -96
-1 -44 -2 -83 -4 -108 -1 -4 -1 -18 -2 -31 -1 -14 -2 -29 -2 -33 -2 -10 -2
-613 -1 -641 1 -20 3 -58 5 -88 1 -9 1 -26 2 -39 1 -13 2 -44 3 -70 1 -26 2
-53 3 -62 1 -8 1 -18 1 -22 0 -5 0 -7 2 -9 2 -3 2 -3 14 -3 6 0 149 8 318 18
277 16 307 17 314 19 4 1 7 3 7 3 0 0 1 3 3 5 2 3 4 8 5 14 1 5 3 13 4 17 1 4
3 12 4 18 1 5 3 12 3 16 1 3 3 9 4 14 1 4 3 12 4 17 3 9 8 28 9 35 1 2 3 8 6
14 2 5 5 14 6 19 2 4 5 13 7 18 1 5 3 10 3 10 0 1 -2 1 -5 1 -3 0 -4 0 -4 2 1
1 8 29 17 63 9 34 17 62 17 63 1 0 2 0 3 -1 2 -1 2 -1 3 0 1 2 11 49 12 59 2
13 2 48 3 198 0 152 0 155 -5 170 -1 5 -3 11 -3 15 -2 9 -2 10 -6 10 -3 0 -4
0 -5 3 0 2 -6 25 -13 51 -6 25 -11 47 -12 48 0 1 1 2 4 1 3 0 3 0 3 2 -1 1 -2
7 -4 13 -4 14 -9 35 -9 41 0 5 3 13 8 22 2 4 6 12 8 18 3 6 8 17 12 26 4 8 8
17 9 20 2 6 14 34 20 47 1 4 4 11 5 15 4 16 8 52 8 82 0 26 4 79 7 96 0 5 1
18 2 30 1 11 1 24 2 28 0 4 1 21 2 37 0 16 1 35 2 41 1 12 3 63 4 87 0 15 1
23 4 42 3 18 5 32 5 46 1 7 2 17 3 22 0 5 1 14 2 19 3 23 4 33 8 59 4 18 5 31
5 41 0 11 2 26 5 44 2 13 4 27 8 54 1 11 3 24 3 29 1 4 1 15 2 24 1 8 2 25 4
36 2 11 4 23 4 26 1 2 1 9 2 14 1 4 1 13 2 19 1 6 2 14 3 19 1 5 2 12 2 15 0
6 0 7 -3 10 l-3 3 -20 0 c-11 1 -24 1 -28 2 -4 0 -22 1 -39 2 -40 1 -82 4
-119 6 -11 1 -43 2 -71 3 -28 1 -54 1 -59 2 -5 0 -15 1 -22 2 -8 1 -20 2 -27
3 -18 2 -41 3 -88 4 -23 1 -49 2 -58 2 -10 1 -40 3 -67 3 -53 2 -80 3 -96 5
-6 1 -17 1 -24 2 -8 1 -19 2 -25 3 -12 1 -19 1 -24 0z m53 -30 c11 0 16 -1 16
-2 1 -1 0 -10 -3 -28 -1 -7 -3 -19 -3 -26 -2 -16 -5 -33 -7 -44 0 -5 -1 -11
-2 -13 0 -7 -2 -22 -3 -28 -1 -6 -2 -17 -2 -20 0 0 -1 -2 -1 -3 -1 -1 -2 -12
-4 -25 -1 -12 -2 -23 -2 -24 -1 -1 -1 -4 -1 -7 -1 -3 -1 -7 -2 -8 -1 -3 -4
-23 -4 -31 -1 -8 -3 -25 -4 -31 -1 -4 -2 -13 -2 -19 -1 -7 -3 -16 -3 -20 -1
-5 -3 -13 -4 -18 0 -5 -1 -11 -2 -12 -1 -4 -3 -18 -6 -40 -1 -9 -3 -18 -3 -21
-3 -18 -4 -25 -6 -36 -1 -13 -2 -15 -4 -15 -1 -1 -10 -1 -19 -1 -16 -1 -18 -1
-19 1 0 2 3 28 7 53 2 11 3 18 5 49 3 23 3 25 4 36 0 4 1 12 2 17 1 16 3 38 6
52 3 21 4 28 5 41 3 36 8 88 10 101 1 4 2 12 2 18 1 5 2 12 3 15 1 3 1 9 2 14
0 5 0 11 1 14 0 2 0 9 0 16 1 15 3 36 5 43 l1 4 15 0 c8 -1 18 -1 22 -2z m95
-5 c6 -1 21 -1 33 -2 12 -1 24 -1 26 -2 2 0 8 -1 13 -1 l8 0 0 -4 c0 -8 0 -21
-2 -42 -1 -25 -2 -27 -4 -32 l-2 -3 -4 5 c-2 3 -6 8 -8 12 -5 6 -15 14 -24 18
-5 3 -18 7 -29 8 -11 2 -27 1 -32 -3 -8 -5 -12 -14 -14 -30 -1 -14 -1 -21 2
-27 5 -9 9 -12 23 -17 14 -4 31 -2 52 6 11 4 17 8 26 16 4 3 8 6 8 6 1 0 0
-39 -1 -45 -1 -9 -4 -15 -6 -16 -1 0 -4 0 -7 0 -9 2 -48 -7 -63 -13 -8 -3 -26
-12 -33 -17 -10 -7 -26 -22 -35 -34 -4 -6 -8 -12 -9 -13 -1 -1 -2 -3 -2 -3 0
-1 -9 -8 -10 -8 -1 2 -1 7 0 17 1 6 2 13 2 17 1 3 1 9 2 13 1 4 1 11 2 16 0 4
2 12 2 17 3 15 5 30 6 40 1 4 2 13 2 19 1 6 2 14 3 19 5 35 7 50 9 62 1 5 2
12 2 14 2 10 0 9 27 9 14 -1 30 -1 37 -2z m142 -10 c32 0 84 -2 88 -3 1 0 14
-1 29 -1 15 -1 27 -2 27 -2 1 0 0 -8 0 -17 0 -8 -1 -23 -2 -32 0 -8 0 -16 -1
-17 0 -2 -1 -22 -1 -36 l0 -13 21 0 c20 -1 36 -2 62 -5 7 0 23 -1 34 -2 11 -1
24 -1 28 -2 4 -1 28 -1 58 -2 47 0 92 -2 94 -4 0 0 0 -5 -1 -9 -1 -12 -4 -33
-6 -50 -1 -9 -2 -15 -3 -34 0 -7 -1 -13 -2 -15 0 -3 -1 -6 -1 -8 0 -2 -1 -5
-2 -7 -1 -4 -3 -22 -4 -36 -1 -9 -3 -26 -4 -29 -1 -4 -3 -23 -5 -45 -1 -14 -4
-34 -5 -37 -1 -3 -2 -9 -3 -27 -1 -2 -1 -11 -2 -18 -1 -17 -4 -44 -5 -45 0 0
-14 0 -30 0 -30 0 -30 0 -33 -3 -2 -2 -4 -6 -3 -8 1 -2 11 -4 34 -5 11 -1 22
-1 25 -2 5 0 5 -1 6 -4 2 -13 0 -99 -3 -125 -1 -5 -1 -13 -2 -19 -1 -6 -1 -15
-2 -19 -1 -5 -1 -15 -2 -22 -1 -12 -4 -32 -5 -35 0 0 -1 -2 -3 -2 -1 -1 -4 -4
-5 -6 -2 -2 -7 -8 -11 -14 -8 -13 -14 -19 -20 -27 -6 -8 -23 -30 -26 -34 -2
-3 -6 -7 -8 -11 -3 -3 -8 -9 -12 -14 -4 -4 -9 -11 -12 -15 -8 -10 -19 -23 -23
-26 -2 -1 -3 -2 -5 -1 -5 2 -27 4 -33 4 -3 0 -9 -4 -9 -6 0 -3 16 -9 28 -11 3
0 9 -2 12 -3 5 -2 5 -2 8 -9 5 -11 14 -40 18 -56 1 -3 2 -9 4 -14 5 -16 14
-54 21 -83 2 -9 5 -23 7 -32 2 -9 5 -19 6 -22 1 -5 2 -7 3 -7 0 1 2 1 4 2 4 0
4 0 5 -4 2 -9 25 -94 26 -95 0 -2 -1 -3 -4 -5 l-5 -3 1 -5 c1 -2 2 -8 3 -13 4
-19 4 -20 4 -262 0 -80 -1 -111 -3 -117 -1 -2 -3 -11 -4 -19 -2 -9 -4 -17 -4
-19 -1 -1 -1 -2 5 -3 3 -1 6 -1 6 -1 0 0 -8 -30 -17 -65 l-17 -64 -5 0 c-4 0
-5 -1 -6 -2 0 -2 -1 -5 -2 -9 0 -4 -3 -14 -5 -22 -1 -9 -5 -23 -7 -32 -5 -19
-10 -41 -13 -55 -1 -6 -3 -14 -5 -18 -2 -7 -4 -17 -7 -33 -1 -5 -2 -6 -5 -6
-2 -1 -109 -7 -239 -14 -130 -7 -238 -13 -241 -14 -4 0 -5 0 -5 1 -1 1 -1 14
-1 28 0 24 -1 59 -2 76 -1 3 -1 13 -1 22 -1 20 -2 35 -3 41 0 3 -2 41 -4 97
-2 40 -2 66 -1 66 1 1 10 2 29 2 11 0 22 1 25 1 3 0 10 1 15 2 15 2 20 5 24
16 4 11 2 18 -6 26 -6 5 -12 8 -29 11 l-14 2 -71 1 c-40 0 -74 0 -76 0 -3 0
-10 0 -16 0 l-11 -1 -1 5 c0 3 0 21 0 40 1 18 1 90 2 158 0 70 1 126 1 127 1
2 1 2 7 2 14 -2 189 -3 202 -1 11 1 26 4 31 6 3 2 4 3 7 9 4 9 4 14 0 26 -2 5
-4 10 -4 11 -1 0 -4 2 -8 3 -5 2 -9 2 -39 3 -18 1 -40 1 -48 1 -12 0 -15 1
-18 2 -3 2 -3 2 -3 5 1 2 1 11 2 20 0 9 0 20 0 24 1 4 1 23 2 43 1 20 1 45 2
56 1 11 1 29 2 40 0 11 1 28 2 37 0 9 1 29 1 43 1 19 1 28 2 28 1 1 10 2 29 2
19 0 29 1 31 2 1 0 4 1 6 2 2 0 5 1 6 1 1 1 6 1 11 1 5 0 13 1 18 1 7 1 10 2
14 5 8 4 19 7 30 8 5 0 11 1 13 1 6 1 12 1 12 -1 0 -1 -2 -4 -4 -7 -8 -8 -12
-15 -15 -26 -2 -9 -2 -12 0 -18 3 -11 20 -22 31 -22 6 0 13 2 19 5 4 2 10 8
15 15 4 5 4 11 1 18 -3 7 -11 20 -17 27 -4 3 -6 7 -6 7 0 2 4 2 36 2 29 0 33
0 38 1 7 2 10 6 10 9 0 2 -2 3 -13 5 -7 1 -13 1 -15 1 -2 0 -21 -1 -42 -1 -22
-1 -48 -1 -58 -2 -15 0 -20 0 -22 1 -1 1 -5 4 -7 8 -3 3 -7 7 -9 8 -6 4 -17 6
-38 7 -20 1 -116 1 -130 -1 -7 0 -19 1 -21 2 0 1 3 9 7 20 2 3 4 6 4 6 2 0 13
-5 22 -10 9 -6 10 -5 11 4 1 7 1 8 9 19 8 13 20 22 31 26 1 0 6 0 10 0 4 0 10
0 13 1 6 1 41 3 78 4 34 0 40 0 67 2 16 1 20 1 26 4 4 1 8 3 9 4 2 1 5 16 7
35 1 13 1 25 1 60 1 46 0 50 -4 54 -3 2 -14 6 -23 7 -3 1 -10 2 -13 2 -4 1
-11 2 -15 3 -5 1 -13 2 -19 3 -7 1 -16 3 -22 3 -6 1 -11 2 -12 2 0 1 -6 1 -13
2 -10 1 -25 3 -49 8 -3 0 -11 2 -17 3 -15 3 -22 6 -26 14 -2 2 -4 8 -5 12 -1
3 -3 8 -3 9 -1 2 -1 5 -1 8 0 3 -1 5 -1 6 -3 2 -14 5 -19 5 -7 0 -33 3 -35 4
0 1 -1 2 -1 3 0 1 -1 4 -2 7 -1 3 -2 7 -2 9 l0 4 7 0 c4 1 19 1 33 0 98 -2 96
-2 125 1 15 1 27 5 34 9 4 3 7 4 9 4 2 0 6 1 9 1 4 1 12 1 32 0 14 0 38 -1 54
-1 16 -1 43 -1 61 -2 42 -1 52 -1 56 1 5 2 7 6 5 10 0 3 -1 4 -5 4 -3 1 -16 1
-31 1 -14 1 -37 1 -52 2 -15 1 -36 1 -48 1 -13 1 -29 1 -37 2 -9 0 -20 0 -26
1 -15 0 -20 2 -27 9 -3 3 -8 9 -10 13 -4 7 -5 9 -5 13 0 3 0 8 1 11 1 2 2 6 3
9 1 2 2 5 3 6 1 1 6 3 14 4 29 7 34 9 46 16 16 10 22 15 37 33 6 6 11 15 11
18 0 0 2 5 4 10 2 4 3 11 4 15 0 3 1 7 2 10 1 5 1 24 0 30 -1 2 -3 9 -4 14 -5
18 -7 22 -15 33 -13 17 -33 34 -51 42 -3 1 -6 3 -7 3 -4 1 -11 4 -14 5 -2 0
-2 1 -2 2 2 8 7 31 7 36 1 4 2 9 2 10 1 4 4 34 5 49 1 15 2 21 4 30 0 4 1 12
2 18 0 5 1 15 2 21 0 6 1 14 1 17 0 3 0 7 1 9 l0 4 10 0 c5 -1 21 -1 35 -2z
m264 -7 c6 -1 17 -1 24 -2 7 -1 16 -2 19 -2 3 -1 9 -2 13 -3 4 0 11 -1 15 -2
3 0 18 -1 32 -1 14 0 30 -1 35 -1 6 -1 19 -1 29 -2 l19 0 0 -6 c-1 -3 -1 -15
-2 -27 -1 -13 -2 -26 -2 -29 -1 -13 -4 -34 -4 -35 -1 -1 -22 -1 -55 0 -128 1
-146 1 -189 9 -6 1 -17 1 -24 2 -7 0 -15 0 -16 1 -4 1 -4 1 -2 25 0 9 1 22 1
28 1 6 1 14 2 18 0 8 3 25 4 26 0 1 11 1 23 1 12 0 24 0 26 1 6 1 39 0 52 -1z
m-398 -39 c21 -5 28 -8 35 -13 7 -6 13 -15 14 -19 1 -4 -22 -16 -39 -20 -3 -1
-10 -1 -18 -1 -13 1 -14 1 -18 3 -3 2 -6 5 -7 7 -2 3 -2 5 -2 17 0 11 0 13 2
17 3 5 3 6 12 8 8 4 10 4 21 1z m56 -114 c-1 -1 -1 -9 -2 -18 l-1 -16 -7 0
c-4 0 -8 0 -9 -1 -2 0 -7 -1 -12 -2 -26 -5 -46 -16 -64 -34 -8 -9 -12 -16 -18
-28 -5 -11 -7 -17 -9 -26 -2 -8 -2 -33 0 -43 4 -27 21 -54 42 -70 4 -3 14 -9
21 -12 26 -13 28 -15 28 -16 0 0 -1 -3 -1 -5 -1 -3 -2 -7 -3 -10 -1 -3 -2 -7
-3 -9 -1 -3 -2 -4 -5 -4 -6 0 -14 2 -29 11 -21 10 -26 13 -41 29 -16 16 -21
22 -29 38 -12 24 -15 34 -17 54 -1 15 -1 27 2 44 3 18 6 26 16 42 15 23 26 36
44 49 14 10 41 23 49 23 2 0 7 1 14 2 13 2 23 4 29 4 5 0 5 0 5 -2z m4 -50 c4
-1 9 -2 11 -2 9 -2 34 -16 43 -24 5 -5 16 -20 16 -21 0 -1 1 -2 2 -4 2 -2 8
-18 10 -26 3 -13 3 -26 0 -39 -3 -13 -4 -16 -13 -35 -3 -8 -21 -25 -30 -31
-16 -8 -26 -12 -34 -14 -3 0 -8 -1 -11 -2 -9 -1 -16 -1 -27 1 -18 4 -38 14
-49 25 -11 11 -24 32 -27 42 0 1 -1 3 -1 4 -2 2 -3 32 -2 45 1 11 1 14 5 22 5
13 14 25 24 34 7 7 10 9 22 15 13 6 16 7 26 9 13 2 26 2 35 1z m-176 -140 c2
-3 8 -13 13 -23 5 -9 11 -20 13 -24 7 -10 36 -39 45 -44 8 -5 27 -20 27 -21 0
-1 -1 -1 -3 -1 -9 2 -36 4 -59 4 -35 2 -46 2 -52 3 -6 0 -6 0 -5 3 0 1 1 8 2
15 2 20 5 39 6 41 0 1 1 8 2 16 1 17 4 30 6 37 0 2 1 1 5 -6z m-65 -121 c3 -1
7 -1 10 0 6 1 14 1 55 0 45 -1 57 -2 71 -3 6 -1 19 -2 29 -2 10 -1 21 -2 25
-2 3 -1 9 -1 13 -2 6 0 7 -1 13 -6 3 -4 6 -7 6 -8 0 -1 -2 -4 -5 -6 -4 -5 -5
-5 -12 -5 -7 -1 -142 -1 -189 -1 -11 0 -23 0 -27 -1 l-7 0 0 6 c2 12 4 28 5
30 1 2 2 2 13 0z m19 -50 c1 -1 0 -12 -3 -51 0 -8 -1 -26 -2 -40 0 -28 -2 -68
-2 -77 -1 -3 -1 -15 -2 -27 -1 -12 -1 -23 -1 -24 -1 -2 -1 -9 -1 -15 -1 -6 -1
-13 -2 -15 0 -2 0 -23 -1 -47 0 -25 0 -45 -1 -45 0 -1 -30 0 -36 1 l-4 0 0 13
c1 16 2 29 3 39 0 4 0 10 0 14 1 4 1 9 1 13 1 3 1 17 2 32 1 14 1 33 2 42 1 8
1 25 2 38 1 12 1 27 2 35 0 7 1 17 1 23 1 6 1 15 2 20 0 5 0 15 0 22 1 15 3
40 4 45 0 4 0 4 4 4 5 1 30 0 32 0z m37 -40 c9 0 9 0 13 -4 2 -2 5 -7 8 -14
10 -20 11 -22 17 -27 4 -4 7 -5 13 -7 10 -4 21 -7 27 -7 2 -1 7 -2 11 -2 10
-3 29 -6 40 -7 12 -1 26 -3 36 -5 5 -2 35 -7 64 -11 10 -1 12 -3 13 -9 0 -2 0
-23 0 -46 0 -37 0 -43 -2 -58 -2 -10 -3 -17 -4 -18 -2 -2 -23 -3 -74 -3 -86
-1 -95 -2 -115 -6 -18 -4 -23 -7 -37 -22 -6 -7 -14 -15 -16 -17 -6 -6 -15 -10
-21 -10 -4 0 -5 0 -6 3 -2 2 -2 5 -2 25 0 22 1 30 3 31 1 0 5 -1 9 -2 9 -2 18
-3 26 -1 4 1 5 2 7 5 4 11 7 60 7 138 0 4 0 8 -2 13 -3 7 -4 7 -7 8 -3 1 -11
1 -19 1 l-15 0 -1 9 c0 12 1 27 3 36 1 5 2 8 2 9 0 0 3 0 7 0 3 -1 10 -1 15
-2z m0 -65 c1 0 2 -3 3 -5 0 -3 -1 -82 -2 -92 0 -3 0 -9 0 -12 -1 -4 -1 -12
-2 -16 -1 -8 -1 -10 -4 -12 -3 -3 -14 -3 -21 0 l-4 2 0 6 c1 3 1 16 2 28 1 12
2 25 2 28 1 10 3 38 4 53 1 21 2 22 15 22 4 0 6 0 7 -2z m639 -184 c0 -19 0
-35 0 -36 -1 0 -1 -8 -1 -17 -2 -27 -5 -49 -12 -64 -2 -5 -4 -10 -4 -10 0 -1
-3 -6 -6 -13 -3 -6 -7 -14 -8 -17 -1 -4 -4 -10 -5 -14 -2 -4 -5 -10 -6 -13 -1
-3 -3 -7 -4 -9 -1 -3 -3 -8 -4 -11 -2 -4 -4 -9 -4 -11 -2 -4 -7 -9 -8 -9 -2 0
-6 7 -7 13 -1 6 -6 21 -7 25 -1 3 -8 27 -11 40 -2 7 -6 21 -9 31 -3 10 -6 20
-6 22 0 5 4 12 10 19 3 3 6 8 8 11 3 2 6 7 9 10 2 2 7 8 10 13 4 4 12 15 19
25 7 9 15 19 18 23 2 3 8 10 11 16 4 5 9 12 11 15 l4 5 1 -5 c1 -2 1 -20 1
-39z m-671 -69 c6 -1 36 -1 69 -1 60 0 84 -1 95 -3 4 -1 15 -5 21 -9 1 0 -2
-3 -7 -6 -8 -5 -14 -7 -33 -7 -9 -1 -21 -2 -26 -2 -10 -1 -92 -2 -147 -2 -26
0 -34 0 -35 1 -1 1 -1 4 0 15 1 11 1 14 3 15 1 1 6 1 26 1 13 -1 29 -2 34 -2z
m260 -44 c7 -5 13 -16 13 -23 0 -4 -3 -12 -5 -15 -8 -8 -26 -4 -32 7 l-2 5 1
9 c1 5 3 10 3 12 1 3 5 7 9 8 3 2 9 0 13 -3z m-208 -3 c1 -1 1 -33 0 -67 -1
-13 -1 -31 -2 -40 0 -10 0 -20 -1 -24 0 -7 2 -6 -20 -5 -8 0 -21 1 -29 1 -8 1
-17 1 -20 2 -3 0 -14 1 -26 1 l-20 1 0 8 c0 5 0 20 0 34 1 30 2 51 2 70 1 7 1
14 1 15 0 3 5 3 40 4 34 2 73 1 75 0z m-75 -148 c6 -1 17 -1 24 -1 27 -2 45
-3 46 -5 0 0 0 -22 -1 -47 -1 -26 -1 -57 -1 -70 l0 -24 -3 -2 c-3 -1 -54 -2
-93 0 l-20 1 0 43 c0 23 0 47 1 53 0 5 0 16 1 25 0 16 1 27 2 28 0 1 26 0 44
-1z m121 -164 c36 -1 39 -1 48 -2 15 -2 20 -5 20 -16 0 -4 0 -5 -2 -7 -7 -6
-17 -7 -122 -7 -88 0 -102 0 -107 -1 -7 -2 -7 -3 -7 15 0 13 0 17 1 18 1 0 7
1 13 1 17 1 134 0 156 -1z m-157 -387 c3 -1 19 -1 36 -1 59 -1 118 -3 125 -4
3 -1 11 -1 16 -2 10 -1 18 -4 20 -7 1 -1 1 -4 1 -6 0 -4 -4 -8 -10 -10 -6 -2
-28 -3 -69 -4 -15 0 -37 0 -50 -1 -13 0 -37 -1 -53 -1 l-30 0 -1 17 c0 10 0
18 0 19 1 1 6 1 15 0z m101 -50 c1 -1 1 -9 3 -51 0 -10 0 -29 1 -43 1 -14 1
-28 1 -31 l0 -5 -9 0 c-5 0 -14 -1 -21 -2 -8 0 -19 -1 -25 -2 -6 -1 -20 -2
-31 -3 -11 0 -22 -1 -24 -1 -6 1 -5 -2 -7 24 0 9 0 18 -1 20 -1 9 -1 86 -1 89
1 2 4 3 31 3 31 1 56 2 57 2 1 1 26 1 26 0z m5 -147 c2 -3 3 -16 3 -34 1 -10
1 -24 2 -31 0 -8 0 -29 0 -47 1 -18 1 -42 2 -53 l0 -19 -3 0 c-2 0 -27 -1 -56
-3 -29 -2 -53 -3 -53 -3 -1 0 -2 7 -3 21 0 5 0 10 0 10 -1 0 -1 12 -1 27 -1
15 -1 30 -2 35 0 5 -1 19 -1 33 -1 13 -1 30 -2 37 0 7 0 15 0 17 0 3 0 3 15 4
4 1 9 1 12 2 3 0 12 1 19 1 19 1 32 2 37 3 21 2 30 3 31 0z M708 1528 c-1 -1
-1 -4 -1 -10 0 -11 -4 -64 -4 -66 -1 0 -1 -7 -3 -44 0 -8 0 -17 0 -19 1 -4 1
-4 6 -5 3 -1 10 -2 17 -2 6 0 14 -2 19 -2 8 -2 22 -2 24 -1 1 1 2 13 0 15 0 1
1 14 4 30 1 5 2 14 3 20 0 6 1 13 2 17 0 4 1 9 2 13 0 3 1 8 1 11 1 2 2 7 2
10 1 2 2 7 2 11 1 9 0 14 -3 16 -6 4 -23 6 -49 7 -16 0 -21 0 -22 -1z m51 -14
c4 -1 5 -2 6 -6 1 -3 1 -6 0 -18 -1 -18 -3 -31 -5 -43 -1 -6 -2 -14 -2 -19 -1
-5 -2 -11 -2 -14 -1 -2 -2 -7 -3 -10 0 -7 -4 -14 -7 -14 -4 -1 -16 1 -24 3
l-6 3 -1 8 c-1 13 0 61 2 83 2 16 3 26 3 27 3 2 30 2 39 0z M252 1132 c-1 -1
-5 -3 -7 -5 -2 -2 -7 -6 -12 -10 -7 -5 -10 -9 -18 -18 -4 -6 -9 -16 -9 -19 0
-5 5 -16 10 -24 7 -11 26 -29 45 -44 13 -10 18 -15 47 -38 32 -27 47 -38 61
-46 7 -3 14 -3 22 0 12 6 25 16 32 26 8 10 8 12 8 26 l-1 12 -5 9 c-3 7 -7 12
-12 18 -10 10 -25 23 -39 33 -17 12 -24 18 -31 24 -4 3 -10 8 -15 12 -4 3 -13
11 -19 16 -6 5 -12 10 -14 11 -1 1 -6 4 -10 7 -15 10 -24 13 -33 10z m16 -17
c12 -4 20 -9 41 -26 17 -14 23 -20 28 -23 11 -9 29 -23 35 -28 3 -3 9 -8 13
-12 23 -20 31 -29 33 -42 2 -10 -2 -22 -10 -30 -4 -4 -19 -15 -23 -16 -10 -2
-31 12 -69 46 -4 3 -11 8 -15 12 -11 8 -20 16 -33 26 -6 5 -13 12 -16 14 -19
16 -33 38 -30 47 2 6 10 17 16 22 7 5 19 12 21 12 1 0 5 -1 9 -2z M608 1132
c-11 -3 -30 -18 -35 -29 -2 -4 -2 -6 -2 -17 0 -9 0 -15 2 -20 1 -5 3 -13 4
-18 2 -6 3 -13 4 -16 1 -3 4 -12 6 -20 5 -22 12 -41 19 -48 2 -3 9 -9 12 -10
4 -1 22 -2 30 0 18 3 31 14 37 30 2 7 2 20 -2 32 -1 6 -4 15 -5 21 -1 5 -3 11
-4 14 0 2 -1 6 -2 10 -2 13 -11 41 -15 47 -1 2 -6 7 -10 11 -9 10 -16 13 -27
14 -5 0 -10 0 -12 -1z m19 -13 c8 -4 15 -12 21 -22 2 -5 5 -12 5 -15 1 -3 3
-10 5 -16 4 -13 6 -25 10 -43 2 -8 3 -16 4 -18 1 -4 1 -17 -1 -20 0 -2 -2 -4
-3 -6 -2 -6 -6 -9 -16 -12 -12 -5 -25 -4 -35 2 -1 1 -3 5 -5 9 -2 4 -4 9 -5
12 -1 2 -2 6 -3 8 -1 2 -2 9 -4 14 -2 5 -4 15 -6 22 -1 7 -3 16 -4 20 -1 4 -2
10 -3 14 -1 3 -2 9 -2 11 0 2 -1 8 -1 12 0 6 0 7 3 11 4 7 13 13 22 17 9 3 10
3 18 0z M418 827 c-2 -1 -6 -3 -7 -4 -1 -1 -5 -3 -8 -4 -3 -2 -8 -5 -10 -6 -5
-3 -7 -4 -15 -9 -8 -4 -26 -17 -29 -21 -2 -2 -3 -4 -3 -5 0 -4 4 -17 8 -23 13
-25 44 -56 58 -59 1 0 5 0 7 1 7 2 17 13 36 38 2 3 6 8 9 11 6 8 13 20 13 23
0 3 -9 17 -19 28 -9 10 -32 33 -33 33 -1 0 -4 -1 -7 -3z m8 -16 c5 -4 14 -13
24 -25 6 -6 11 -14 11 -17 0 -3 -7 -16 -13 -23 -2 -2 -3 -4 -3 -5 0 -1 -11
-14 -19 -23 -5 -5 -11 -10 -13 -10 -3 0 -20 14 -25 20 -11 12 -19 25 -25 36
-4 9 -4 13 0 16 4 4 21 14 32 20 4 2 12 6 16 9 3 3 7 5 8 5 1 0 4 -2 7 -3z
M60 763 c-1 -1 -1 -5 -1 -15 0 -8 0 -62 0 -120 1 -108 2 -155 4 -169 l1 -8 2
3 c1 2 2 3 3 3 0 0 2 2 5 4 l4 4 12 0 c7 0 17 -1 22 -1 12 -1 30 -1 41 -1 7 1
8 1 11 -1 4 -5 7 -4 8 2 3 12 3 18 3 44 0 15 0 54 0 86 0 32 0 61 -1 65 0 3 0
24 0 46 -1 61 -1 61 -15 57 -10 -3 -76 -2 -89 2 -8 1 -8 1 -10 -1z m64 -16
c20 0 32 -1 33 -1 2 -3 4 -267 1 -269 0 -1 -11 -1 -32 -1 -17 0 -33 -1 -36 -1
-3 -1 -7 -1 -10 -1 -7 2 -7 -5 -7 140 -1 70 -1 129 0 130 0 4 2 4 12 3 4 0 22
0 39 0z M584 726 c-5 -3 -10 -7 -20 -17 -8 -7 -15 -16 -16 -18 l-2 -4 0 -83
c0 -90 0 -91 6 -104 5 -10 28 -32 38 -35 4 -2 5 -1 11 0 3 1 7 3 9 4 15 11 29
28 29 35 0 4 -2 7 -13 23 -5 8 -10 15 -10 17 -3 7 -5 83 -3 97 1 9 6 18 15 28
8 9 11 16 10 22 -1 6 -10 20 -18 27 -8 8 -14 10 -22 11 -7 0 -8 0 -14 -3z m21
-13 c6 -3 13 -10 16 -17 3 -5 3 -5 1 -10 0 -3 -2 -5 -2 -6 -1 0 -2 -2 -4 -4
-1 -2 -4 -6 -6 -8 -6 -6 -8 -9 -10 -16 l-2 -6 0 -47 c0 -60 -1 -58 14 -75 4
-5 9 -12 11 -15 l2 -5 -2 -4 c-5 -14 -21 -24 -32 -21 -7 2 -24 18 -29 28 -1 2
-2 8 -3 13 -2 7 -2 18 -2 83 0 86 -1 77 9 90 5 7 19 19 25 22 3 1 9 1 14 -2z
M207 693 c-2 -1 -2 -3 -1 -67 0 -37 0 -73 1 -82 l0 -15 32 0 c17 1 35 0 40 0
6 0 8 0 9 1 1 1 1 6 1 16 0 9 0 45 0 81 l0 66 -40 0 c-22 0 -41 0 -42 0z m65
-15 c1 -1 2 -125 1 -132 0 -3 -1 -4 -2 -3 -1 0 -13 1 -26 1 -13 1 -25 1 -25 1
0 0 0 30 0 67 l0 66 8 0 c4 0 10 1 13 1 8 1 30 1 31 -1z M689 653 c-19 -10
-44 -27 -49 -35 -3 -4 -3 -4 -2 -11 0 -5 1 -7 6 -15 8 -11 25 -29 34 -35 6 -4
7 -4 11 -4 6 1 14 5 19 10 11 11 32 42 32 47 0 3 -19 26 -34 42 -5 5 -8 5 -17
1z m10 -16 c12 -6 23 -21 23 -30 0 -4 -1 -7 -8 -19 -2 -3 -17 -19 -21 -20 -6
-3 -9 -2 -21 10 -19 20 -24 28 -21 35 2 2 10 9 22 17 6 4 18 10 19 10 1 0 4
-1 7 -3z M374 526 c-33 -9 -41 -12 -61 -26 -13 -8 -16 -12 -16 -19 0 -3 1 -7
2 -9 2 -6 16 -28 21 -35 5 -7 14 -22 19 -31 2 -4 4 -8 5 -8 1 -1 4 0 9 3 15 8
46 23 57 27 4 2 8 4 9 5 l3 3 -1 8 c-1 5 -2 11 -3 14 -1 3 -2 7 -2 9 0 2 -1 6
-2 8 0 3 -2 8 -2 12 -1 8 -8 30 -11 35 -1 2 -3 4 -5 5 -3 2 -13 1 -22 -1z m15
-15 c7 -6 14 -34 16 -58 l0 -9 -4 -4 c-5 -5 -38 -22 -46 -23 -3 -1 -6 -1 -7 0
-1 0 -5 5 -8 12 -1 2 -5 8 -9 13 -8 13 -20 35 -21 39 0 2 0 3 4 6 4 3 16 10
26 15 7 3 38 12 44 12 1 0 3 -1 5 -3z M445 383 c-2 -1 -6 -2 -10 -2 -3 -1 -11
-2 -15 -2 -5 -1 -15 -1 -21 -2 -17 -1 -18 -2 -20 -26 0 -7 0 -13 -1 -14 0 -2
0 -9 -1 -15 l0 -11 4 -2 c3 -1 6 -1 27 -1 13 1 26 2 30 2 4 0 11 1 16 2 11 1
13 3 13 8 0 2 -1 5 -1 7 -1 1 -2 5 -2 9 -1 3 -2 8 -2 11 -1 3 -3 11 -4 18 -4
19 -4 19 -7 19 -2 0 -5 -1 -6 -1z m0 -19 c3 -5 4 -11 6 -28 0 -7 0 -9 -2 -10
-1 -1 -6 -2 -19 -2 -23 -2 -36 -2 -38 -1 -2 1 -2 2 -2 11 0 13 2 25 4 27 1 1
9 3 14 4 1 1 10 1 19 1 17 0 17 0 18 -2z M402 277 c0 0 -15 0 -32 0 l-31 -1
-7 -4 c-4 -1 -8 -4 -10 -5 -8 -6 -20 -33 -20 -44 0 -8 7 -24 15 -36 2 -4 11
-10 20 -14 6 -2 17 -4 31 -4 5 0 10 -1 11 -1 l3 -1 0 -24 c0 -13 0 -25 0 -27
1 -2 1 -9 2 -15 0 -6 1 -12 2 -12 0 0 10 -1 21 -1 12 0 23 0 25 0 4 0 26 3 27
3 0 1 1 4 1 9 1 4 2 10 3 14 1 5 1 11 1 21 -1 15 -2 20 -6 27 -2 2 -3 4 -2 4
1 1 12 3 26 4 8 0 17 2 20 3 21 6 21 6 26 12 5 5 6 7 9 17 5 12 5 15 4 29 -1
11 -1 13 -5 22 -2 5 -5 11 -6 12 -5 5 -15 9 -29 11 -4 1 -99 2 -99 1z m90 -12
c26 -2 34 -9 38 -35 2 -10 2 -14 -4 -26 -4 -9 -7 -13 -15 -16 -6 -3 -9 -3 -25
-5 -5 0 -9 0 -9 0 0 -1 -9 -1 -19 -1 -50 -2 -110 0 -120 5 -5 2 -12 9 -17 18
-4 6 -4 7 -5 15 -1 17 6 32 17 39 4 3 13 4 34 5 22 2 110 2 125 1z m-52 -108
c1 -1 3 -3 4 -6 1 -2 3 -4 3 -5 3 -6 4 -32 2 -39 -2 -6 -4 -6 -25 -6 -16 1
-19 1 -24 3 -4 1 -7 2 -7 2 0 1 0 8 0 17 0 14 0 16 2 24 l3 9 8 0 c6 -1 10 0
14 0 7 2 17 2 20 1z M560 265 c0 0 0 -8 -1 -16 0 -9 0 -18 0 -20 -1 -8 2 -49
4 -50 2 -2 36 0 50 3 9 1 17 5 18 8 1 2 1 53 0 61 -1 8 -1 9 -9 9 -3 1 -10 2
-14 3 -12 2 -48 4 -48 2z m49 -14 c7 -3 9 -6 10 -16 2 -8 3 -32 1 -37 -1 -4
-7 -5 -25 -5 -9 0 -17 0 -18 1 -3 2 -5 28 -2 43 1 12 2 15 4 16 1 1 7 1 13 1
9 -1 12 -1 17 -3z M251 260 c-5 0 -11 -1 -13 -2 -2 0 -7 -1 -10 -1 -2 0 -6 -1
-8 -1 -4 -2 -8 -7 -9 -11 -2 -5 -2 -56 -1 -61 1 -4 3 -5 18 -6 6 -1 15 -3 20
-4 16 -4 31 -6 33 -3 1 1 1 3 1 7 -1 7 -1 75 0 81 0 1 0 2 -11 2 -6 0 -15 -1
-20 -1z m15 -13 c3 -2 4 -9 4 -34 -1 -30 -1 -30 -11 -29 -9 1 -31 9 -34 12 -2
3 -3 23 -2 31 1 9 3 12 10 15 9 5 30 8 33 5z M608 2043 c-2 -5 -3 -35 -2 -50
0 -16 1 -26 4 -31 0 -2 1 -4 1 -5 0 -2 -1 -2 23 -1 9 1 24 2 32 2 7 0 18 1 24
1 5 0 21 1 34 2 13 1 25 1 25 2 1 0 2 24 2 36 0 13 -2 27 -5 31 -2 3 -4 4 -16
4 -5 1 -11 2 -13 2 -12 3 -32 4 -67 5 -33 0 -37 1 -39 2 -2 3 -3 2 -3 0z m103
-19 c28 0 30 -2 30 -28 0 -15 -1 -20 -5 -22 -1 0 -10 -1 -20 -1 -9 -1 -24 -1
-32 -2 -8 0 -15 -1 -16 -1 -1 0 -12 0 -25 -1 -22 0 -23 0 -24 2 -2 4 -3 12 -3
30 0 20 1 23 6 24 2 1 51 0 89 -1z"/>
</g>
</svg>
