<?xml version="1.0" standalone="no"?>
<!DOCTYPE svg PUBLIC "-//W3C//DTD SVG 20010904//EN"
 "http://www.w3.org/TR/2001/REC-SVG-20010904/DTD/svg10.dtd">
<svg version="1.0" xmlns="http://www.w3.org/2000/svg"
 width="576.000000pt" height="282.000000pt" viewBox="0 0 576.000000 282.000000"
 preserveAspectRatio="xMidYMid meet">
<metadata>
Created by potrace 1.16, written by Peter Selinger 2001-2019
</metadata>
<g transform="translate(0.000000,282.000000) scale(1.000000,-1.000000)"
fill="#ffffff" stroke="none">
<path d="M28 265 c-3 -1 -6 -5 -7 -9 -19 -59 -21 -69 -20 -75 1 -1 5 -8 9 -14
5 -8 8 -12 8 -14 0 -2 -3 -17 -8 -34 -8 -36 -10 -44 -10 -48 0 -2 2 -4 8 -10
4 -4 7 -8 7 -9 0 -1 5 -5 16 -14 l17 -12 140 0 c152 1 142 0 167 6 14 4 24 7
35 13 l10 4 0 6 c1 3 1 6 1 6 0 1 14 4 31 8 67 16 103 28 131 44 13 7 12 6 12
14 l0 8 -12 11 c-16 14 -26 22 -45 34 -59 40 -128 62 -205 68 -25 2 -34 3 -40
7 -4 1 -10 4 -13 5 -7 2 -12 2 -110 4 -106 2 -119 2 -122 1z m104 -7 c36 -1
78 -2 93 -3 l27 0 -1 -3 c-4 -6 -19 -66 -19 -73 0 -6 3 -13 7 -17 l4 -4 -110
0 -109 0 -1 2 c-1 1 -4 7 -8 12 -4 5 -7 10 -7 11 -1 1 0 5 1 8 3 14 18 64 20
66 1 2 1 2 19 2 10 0 48 -1 84 -1z m159 -69 l0 -55 -133 0 c-74 0 -134 0 -135
1 -1 1 -1 2 1 10 l2 9 126 0 c139 1 143 1 115 6 -12 2 -21 6 -24 10 -4 6 -2
15 6 46 l7 28 18 0 17 0 0 -55z m5 -28 c0 -15 -1 -3 -1 27 0 30 1 42 1 27 0
-15 0 -39 0 -54z m37 79 c56 -7 114 -25 159 -51 22 -13 49 -32 68 -50 l6 -5
-133 0 -133 0 0 54 0 53 10 0 c6 0 16 -1 23 -1z m-42 -126 c0 -7 0 -14 -1 -17
l0 -4 -121 0 -120 0 -5 -4 c-4 -2 -11 -7 -16 -11 -8 -7 -10 -8 -11 -12 l0 -3
-5 4 c-5 4 -5 5 -5 9 1 2 3 10 4 18 l4 13 11 0 c11 0 12 0 12 2 1 2 2 4 4 7 2
2 3 4 3 5 0 2 -1 3 -13 3 -9 0 -12 1 -13 2 0 1 27 1 136 1 l136 0 0 -13z m5
-13 c0 -5 -1 -1 -1 9 0 10 1 14 1 9 0 -5 0 -13 0 -18z m272 25 c0 -2 -5 -6
-17 -11 -28 -15 -72 -28 -137 -44 -15 -3 -15 -3 -17 -1 -4 3 -15 8 -28 13 -8
2 -14 4 -15 4 -1 0 -2 1 -2 2 -1 0 -2 1 -2 1 -1 0 -3 1 -4 2 -3 3 -14 5 -17 3
-1 -1 -16 -2 -24 -2 l-4 0 -1 17 0 17 134 0 c113 0 134 0 134 -1z m-530 -9
c-2 -2 -3 -4 -3 -5 0 -1 -2 -1 -7 -1 l-8 0 2 5 1 4 9 0 8 0 -2 -3z m240 -56
l0 -29 -109 0 -109 0 0 29 0 28 109 0 109 0 0 -28z m46 26 c-4 -1 -5 -2 -5
-10 0 -10 0 -11 11 -11 10 -1 17 0 20 2 1 1 1 8 0 12 0 2 -1 3 -14 5 -7 2 -8
2 -3 1 13 -1 37 -8 53 -15 l8 -4 0 -7 0 -6 -7 -3 c-10 -5 -26 -10 -36 -13 -9
-2 -31 -5 -36 -5 l-2 0 0 28 0 27 6 0 c4 0 6 0 5 -1z m-275 -27 c-1 -14 -2
-25 -2 -25 0 0 -6 5 -13 10 l-12 9 0 6 1 7 12 10 c8 5 14 10 14 9 0 0 0 -11 0
-26z m281 22 c3 -1 8 -2 11 -2 l5 -1 0 -5 0 -4 -11 0 -12 0 0 7 c0 3 0 6 0 6
0 0 3 0 7 -1z M20 189 c-3 0 -2 -4 1 -10 l4 -6 12 0 c7 -1 15 0 17 0 4 0 4 1
5 5 1 2 1 5 0 8 l0 4 -19 0 c-10 0 -19 0 -20 -1z M61 189 c0 -1 0 -5 0 -9 0
-6 1 -7 3 -7 3 0 3 0 4 3 0 2 0 6 0 9 0 4 -1 5 -3 5 -2 0 -3 0 -4 -1z M363
205 c-16 0 -18 0 -19 -2 0 -1 -2 -10 -3 -19 -2 -15 -2 -18 -1 -19 1 -2 5 -2
31 -2 l29 0 10 -6 10 -6 50 0 c27 1 53 1 57 2 l7 1 -6 4 c-22 16 -50 32 -75
43 l-11 5 -30 0 c-17 0 -39 -1 -49 -1z M513 146 c-2 -1 -2 -2 -2 -6 l1 -4 18
-1 c12 0 19 0 20 1 2 1 2 1 -1 5 -5 5 -8 6 -22 6 -6 0 -13 -1 -14 -1z m30 -5
c1 -2 1 -2 -13 -2 -14 0 -15 0 -15 2 0 2 1 2 13 2 11 0 13 0 15 -2z M230 73
l-17 -5 -74 0 -74 0 0 -7 0 -7 72 0 73 0 20 -6 c19 -6 21 -6 30 -6 l10 0 0 19
0 18 -11 0 c-11 0 -13 -1 -29 -6z M66 46 c-1 -2 -1 -8 0 -10 1 -2 2 -2 21 -2
20 0 21 0 22 2 2 3 2 6 1 10 0 2 0 2 -22 2 -19 0 -22 0 -22 -2z m41 -5 l0 -2
-18 -1 -17 0 0 3 0 3 18 0 17 0 0 -3z"/>
</g>
</svg>
