<?xml version="1.0" encoding="UTF-8" standalone="no"?>
<svg
   xmlns:dc="http://purl.org/dc/elements/1.1/"
   xmlns:cc="http://creativecommons.org/ns#"
   xmlns:rdf="http://www.w3.org/1999/02/22-rdf-syntax-ns#"
   xmlns:svg="http://www.w3.org/2000/svg"
   xmlns="http://www.w3.org/2000/svg"
   xmlns:sodipodi="http://sodipodi.sourceforge.net/DTD/sodipodi-0.dtd"
   xmlns:inkscape="http://www.inkscape.org/namespaces/inkscape"
   version="1.0"
   width="825pt"
   height="330pt"
   viewBox="0 0 1100 440"
   preserveAspectRatio="xMidYMid meet"
   id="svg24"
   sodipodi:docname="type6.svg"
   inkscape:version="1.0.2-2 (e86c870879, 2021-01-15)"
   inkscape:export-filename="D:\Users\Michael\repos\st-panorama\src\panorama-assets\rooms\type6.png"
   inkscape:export-xdpi="87.269997"
   inkscape:export-ydpi="87.269997">
  <defs
     id="defs28" />
  <sodipodi:namedview
     pagecolor="#000000"
     bordercolor="#666666"
     borderopacity="1"
     objecttolerance="10"
     gridtolerance="10"
     guidetolerance="10"
     inkscape:pageopacity="0"
     inkscape:pageshadow="2"
     inkscape:window-width="2367"
     inkscape:window-height="1417"
     id="namedview26"
     showgrid="false"
     inkscape:zoom="0.41746795"
     inkscape:cx="742.50455"
     inkscape:cy="292.41567"
     inkscape:window-x="2105"
     inkscape:window-y="-8"
     inkscape:window-maximized="1"
     inkscape:current-layer="svg24"
     inkscape:document-rotation="0" />
  <metadata
     id="metadata2">
Created by potrace 1.16, written by Peter Selinger 2001-2019
<rdf:RDF>
  <cc:Work
     rdf:about="">
    <dc:format>image/svg+xml</dc:format>
    <dc:type
       rdf:resource="http://purl.org/dc/dcmitype/StillImage" />
    <dc:title />
  </cc:Work>
</rdf:RDF>
</metadata>
  <g
     id="g857"
     style="stroke-width:5.99998;stroke-miterlimit:4;stroke-dasharray:none">
    <path
       d="m 120.738,27.8263 c -2.656,1.3517 -5.312,3.5353 -6.056,4.991 -0.743,1.4557 -9.031,27.5544 -18.3801,57.9163 -17.8493,58.1244 -18.8055,62.4904 -15.7244,71.1214 0.6375,1.872 6.9059,10.918 13.7057,19.861 6.9058,9.045 13.0678,18.195 13.8118,20.484 1.381,4.471 2.444,-0.521 -18.8053,84.118 -10.6246,42.423 -12.3245,51.989 -10.0934,56.148 0.5313,0.936 6.056,5.927 12.2183,11.127 9.5624,8.006 11.2624,9.774 11.2624,12.477 0,4.263 0.318,4.575 10.518,11.958 4.993,3.638 9.456,6.966 10.093,7.382 0.638,0.52 7.862,5.718 16.043,11.645 l 14.875,10.607 94.027,0.519 c 51.741,0.312 154.268,0.208 227.896,-0.104 129.726,-0.52 134.295,-0.624 147.682,-2.704 43.348,-6.966 78.091,-17.363 104.12,-31.297 l 5.312,-2.807 0.532,-9.774 0.531,-9.774 15.405,-3.64 c 96.365,-22.043 160.537,-39.824 202.08,-55.837 18.805,-7.278 50.679,-22.563 61.729,-29.529 l 8.18,-5.199 v -10.19 -10.294 l -7.65,-7.278 C 957.74,175.997 888.362,132.845 807.615,101.444 741.636,75.8646 654.197,57.2524 589.812,55.0688 c -9.35,-0.3119 -17.956,-0.9358 -19.124,-1.4557 -3.612,-1.5597 -9.137,-2.2875 -22.312,-3.0154 -11.899,-0.6239 -13.068,-0.8318 -18.38,-4.0551 -6.906,-4.0553 -16.15,-8.0065 -26.774,-11.3338 L 495.253,32.7133 323.668,29.178 C 114.576,24.8109 126.795,24.9149 120.738,27.8263 Z m 228.429,8.1104 c 79.152,1.6637 145.449,3.4313 147.149,3.9512 l 3.187,0.9358 -3.4,1.7677 c -6.161,3.0153 -4.249,-2.7035 -26.773,80.1676 -3.506,13.102 -6.906,27.554 -7.543,32.025 -2.657,20.589 4.461,35.665 20.186,42.736 l 5.844,2.703 H 301.143 114.364 l -2.232,-4.471 c -1.274,-2.392 -7.012,-10.605 -12.8553,-18.3 -11.7933,-15.389 -13.5994,-18.716 -13.5994,-25.371 0,-2.704 4.8873,-20.38 12.8558,-46.063 7.1179,-22.7709 14.8739,-48.0378 17.3179,-56.0442 4.25,-13.8291 4.675,-14.661 8.075,-16.4287 4.355,-2.2875 -0.744,-2.2875 225.241,2.3916 z m 164.679,16.6367 3.719,1.9755 -9.774,0.104 c -5.526,0 -9.881,-0.4159 -9.881,-0.9358 0,-0.6239 1.062,-1.7676 2.443,-2.7035 2.763,-1.9755 7.756,-1.3517 13.493,1.5598 z m 43.562,95.1406 v 90.982 H 332.592 c -213.554,0 -224.709,-0.104 -224.178,-1.872 2.337,-7.902 7.012,-29.01 7.012,-31.506 v -3.015 h 210.897 c 116.34,0 210.897,-0.415 210.897,-0.936 0,-0.415 -3.506,-1.144 -7.649,-1.559 -17.106,-1.56 -33.255,-5.407 -42.924,-10.398 -7.117,-3.64 -10.412,-6.551 -13.28,-12.062 -2.125,-4.055 -2.55,-6.135 -2.443,-15.077 0,-9.462 0.637,-12.685 6.693,-34.833 13.175,-48.662 16.255,-59.8918 17.849,-65.2987 l 1.488,-5.4069 h 30.279 30.175 z m 9.348,1.248 0.213,89.734 h -3.719 -3.717 V 148.65 58.7081 l 3.506,0.3119 3.399,0.3119 z M 619.03,62.8672 c 32.085,3.3274 70.122,10.19 104.758,18.8202 82.234,20.3806 157.243,54.2776 220.14,99.1956 21.993,15.805 45.154,34.521 60.132,48.662 l 9.67,9.047 -222.795,0.104 H 568.032 V 149.689 60.6836 l 19.974,0.52 c 10.943,0.3119 24.861,1.0398 31.024,1.6636 z M 557.408,274.464 c 0,28.595 -0.107,29.531 -2.125,30.05 -1.276,0.312 -2.125,1.456 -2.125,2.704 0,2.911 -1.913,2.808 -2.338,-0.208 -0.213,-1.872 -0.956,-2.288 -4.037,-2.288 -3.081,0 -3.825,0.416 -4.038,2.288 -0.212,1.351 -1.062,2.392 -1.806,2.392 -0.743,0 -1.594,-1.041 -1.806,-2.392 l -0.319,-2.288 -184.336,-0.312 c -164.786,-0.208 -184.442,-0.103 -185.504,1.352 -1.063,1.456 -1.275,1.456 -1.912,0 -0.32,-1.04 -2.019,-1.56 -4.676,-1.56 -4.25,0 -11.368,4.679 -46.429,30.674 l -8.499,6.342 -0.532,8.008 -0.531,8.109 -9.562,-8.006 c -5.2059,-4.367 -10.1995,-8.63 -10.837,-9.566 -2.2311,-2.704 -1.5936,-7.383 3.825,-29.01 2.8685,-11.334 5.8434,-23.292 6.5871,-26.618 l 1.4874,-5.927 h 19.2305 19.337 l 0.637,-3.639 c 0.425,-2.184 2.656,-5.824 5.418,-8.943 2.657,-2.808 4.782,-5.822 4.782,-6.655 0,-0.727 0.318,-2.079 0.637,-3.014 0.531,-1.457 -1.806,-1.665 -21.886,-1.665 -21.037,0 -22.524,-0.103 -21.781,-1.872 0.319,-0.935 0.956,-3.014 1.275,-4.678 l 0.638,-2.807 h 225.559 225.666 z m 9.561,0 c 0,25.267 -0.213,29.634 -1.594,30.155 -0.849,0.312 -1.593,1.559 -1.593,2.703 0,1.144 -0.425,2.08 -1.063,2.08 -0.531,0 -1.062,-0.936 -1.062,-1.977 0,-1.143 -0.425,-2.391 -1.063,-2.703 -0.637,-0.415 -1.061,-11.645 -1.061,-30.258 v -29.529 h 3.717 3.719 z m 448.361,-26.306 c 0,4.886 -1.39,6.446 -10.84,12.061 -43.988,26.307 -132.915,54.901 -249.466,80.272 -10.837,2.392 -20.718,4.576 -21.993,4.783 -1.806,0.416 -2.337,0 -2.657,-1.767 -0.849,-5.719 -45.578,-23.604 -73.202,-29.322 -1.594,-0.312 -3.081,-1.457 -3.4,-2.704 -0.319,-1.455 -1.806,-2.184 -4.781,-2.703 -3.613,-0.521 -4.462,-1.144 -4.994,-3.64 -0.744,-3.12 -0.531,-3.12 -14.768,-5.199 -5.737,-0.832 -8.606,-0.935 -8.818,-0.208 -1.276,3.744 -2.869,4.367 -9.35,3.328 -5.419,-0.936 -6.481,-0.832 -7.649,0.728 -0.957,1.351 -2.762,1.559 -9.032,1.351 -7.33,-0.416 -7.756,-0.312 -8.074,1.872 -0.213,1.351 -1.063,2.392 -1.807,2.392 -0.743,0 -1.592,-1.041 -1.805,-2.392 -0.213,-1.872 -0.957,-2.288 -4.037,-2.288 -3.082,0 -3.826,0.416 -4.038,2.288 -0.425,3.016 -2.337,3.119 -2.337,0.208 0,-1.248 -0.85,-2.392 -2.125,-2.704 -2.019,-0.519 -2.125,-1.455 -2.125,-30.05 v -29.529 h 223.647 223.651 z m -870.155,10.605 c 0,1.56 -1.487,3.64 -4.144,5.72 -2.763,2.182 -4.462,4.471 -5.099,7.174 l -0.957,3.951 -17.212,0.312 c -12.218,0.208 -17.211,-0.104 -17.211,-0.936 0,-0.623 0.637,-3.847 1.487,-7.071 0.85,-3.223 1.806,-7.07 2.125,-8.733 l 0.638,-2.808 h 20.186 20.187 z m 493.828,45.544 c 3.188,1.248 2.975,3.015 -0.424,3.015 -2.763,0 -16.469,-2.184 -17.319,-2.703 -0.105,-0.105 0,-0.832 0.426,-1.456 0.85,-1.248 12.856,-0.521 17.317,1.144 z m -12.005,3.118 c 9.669,1.353 25.499,4.888 22.312,4.991 -1.169,0 -7.119,-0.831 -13.281,-1.871 -6.163,-1.143 -14.769,-2.391 -19.124,-2.703 -4.356,-0.417 -8.712,-1.248 -9.562,-1.768 -1.806,-1.04 5.63,-0.519 19.655,1.351 z m -462.274,2.184 c 0.319,1.352 0.637,22.876 0.637,47.831 v 45.543 h -2.656 -2.655 v -47.83 c 0,-46.168 0.105,-47.831 2.018,-47.831 1.168,0 2.231,0.935 2.656,2.287 z m 371.859,0.936 c 0.319,1.768 0.637,23.291 0.637,47.831 v 44.607 H 354.478 171.736 v -47.83 -47.831 h 182.105 182.105 z m 11.687,0 c 0.319,1.768 0.638,23.291 0.638,47.831 0,43.879 0,44.607 -2.125,44.607 -2.125,0 -2.125,-0.728 -2.125,-44.607 0,-42.632 0.318,-51.054 2.125,-51.054 0.425,0 1.062,1.456 1.487,3.223 z m 10.624,0 c 0.319,1.768 0.639,23.291 0.639,47.831 0,43.879 0,44.607 -2.125,44.607 -2.125,0 -2.125,-0.728 -2.125,-44.607 0,-42.632 0.318,-51.054 2.125,-51.054 0.424,0 1.062,1.456 1.486,3.223 z m 10.626,0 c 0.318,1.768 0.637,23.291 0.637,47.831 0,43.879 0,44.607 -2.125,44.607 -2.125,0 -2.125,-0.728 -2.125,-44.607 0,-42.632 0.318,-51.054 2.125,-51.054 0.425,0 1.062,1.456 1.488,3.223 z m 10.624,0 c 0.318,1.768 0.638,23.291 0.638,47.831 0,43.879 0,44.607 -2.125,44.607 -2.125,0 -2.125,-0.728 -2.125,-44.607 0,-42.632 0.318,-51.054 2.125,-51.054 0.424,0 1.062,1.456 1.487,3.223 z m 44.304,0 c 8.606,1.144 18.168,2.704 21.249,3.431 30.174,7.279 49.723,13.726 68.741,22.46 l 12.962,6.135 v 12.373 12.374 l -9.88,4.782 c -20.294,9.671 -52.274,19.861 -74.267,23.604 -3.718,0.624 -7.862,1.351 -9.349,1.663 -4.462,0.833 -33.149,4.368 -38.992,4.888 l -5.631,0.416 v -47.623 -47.623 l 9.881,0.521 c 5.312,0.311 16.787,1.456 25.286,2.599 z m -466.523,44.711 v 46.791 l -3.401,-2.288 c -5.418,-3.743 -27.836,-19.963 -29.217,-21.211 -0.638,-0.52 -4.675,-3.328 -8.818,-6.136 l -7.544,-5.198 0.638,-11.958 c 0.743,-13.414 0.212,-12.373 11.58,-20.38 2.444,-1.767 11.687,-8.318 20.4,-14.764 8.711,-6.448 15.936,-11.646 16.149,-11.751 0.106,0 0.213,21.108 0.213,46.895 z"
       id="path4"
       style="fill:#ffffff;stroke:#ffffff;stroke-width:5.99998;stroke-miterlimit:4;stroke-dasharray:none;stroke-opacity:1" />
    <path
       d="m 108.733,148.962 c -1.913,1.768 -0.213,6.758 4.887,14.348 l 5.525,8.319 24.967,0.312 c 22.524,0.208 25.075,0.104 26.243,-1.559 1.381,-1.768 1.912,-15.493 0.744,-19.86 l -0.638,-2.288 h -30.492 c -16.787,0 -30.918,0.312 -31.236,0.728 z"
       id="path6"
       style="fill:#ffffff;stroke:#ffffff;stroke-width:5.99998;stroke-miterlimit:4;stroke-dasharray:none;stroke-opacity:1" />
    <path
       d="m 178.748,149.898 c -0.955,2.392 -0.637,19.548 0.426,21.211 0.424,0.624 1.912,1.04 3.293,0.832 2.549,-0.312 2.549,-0.52 2.549,-11.749 v -11.438 l -2.762,-0.312 c -1.912,-0.208 -3.08,0.312 -3.506,1.456 z"
       id="path8"
       style="fill:#ffffff;stroke:#ffffff;stroke-width:5.99998;stroke-miterlimit:4;stroke-dasharray:none;stroke-opacity:1" />
    <path
       d="m 645.06,124.215 c -0.744,1.248 -7.969,54.381 -7.969,58.54 0,1.768 0.85,3.223 2.019,3.951 1.381,0.624 19.018,1.04 50.042,1.04 h 47.916 l 16.043,9.358 16.044,9.358 h 91.796 c 50.36,0 91.69,-0.208 91.69,-0.415 0,-0.936 -23.906,-17.677 -38.461,-27.035 -31.661,-20.172 -63.429,-36.913 -96.259,-50.638 l -12.112,-5.095 h -80.003 c -49.298,0 -80.322,0.416 -80.746,0.936 z"
       id="path10"
       style="fill:#ffffff;stroke:#ffffff;stroke-width:5.99998;stroke-miterlimit:4;stroke-dasharray:none;stroke-opacity:1" />
    <path
       d="m 921.192,219.356 c -0.319,0.727 -0.425,3.95 -0.213,6.966 l 0.319,5.615 31.13,0.312 c 16.999,0.104 31.023,-0.208 31.023,-0.624 0,-0.832 -8.499,-8.526 -13.706,-12.374 -2.549,-1.975 -47.809,-1.871 -48.553,0.105 z m 52.698,5.822 5.843,5.095 -28.368,0.105 h -28.473 v -5.2 -5.198 h 22.63 l 22.524,0.103 z"
       id="path12"
       style="fill:#ffffff;stroke:#ffffff;stroke-width:5.99998;stroke-miterlimit:4;stroke-dasharray:none;stroke-opacity:1" />
    <path
       d="m 105.97,262.299 c -2.762,10.19 -2.762,9.878 -0.106,9.462 2.019,-0.208 2.762,-1.456 4.356,-6.863 l 1.806,-6.446 h -2.443 c -2.125,0 -2.763,0.728 -3.613,3.847 z"
       id="path14"
       style="fill:#ffffff;stroke:#ffffff;stroke-width:5.99998;stroke-miterlimit:4;stroke-dasharray:none;stroke-opacity:1" />
    <path
       d="m 466.568,333.421 c -11.688,3.327 -26.243,7.59 -32.3,9.254 l -11.049,3.119 H 304.437 185.548 v 8.838 8.839 h 118.463 118.571 l 32.724,9.357 32.829,9.359 h 15.511 15.513 v -27.555 -27.554 l -15.618,0.104 -15.724,0.103 z"
       id="path16"
       style="fill:#ffffff;stroke:#ffffff;stroke-width:5.99998;stroke-miterlimit:4;stroke-dasharray:none;stroke-opacity:1" />
    <path
       d="m 186.93,377.716 c -1.807,0.623 -1.914,14.972 -0.107,16.74 0.956,0.936 9.881,1.248 33.468,1.248 30.81,0 32.298,-0.104 34.317,-2.08 2.337,-2.287 2.868,-9.357 1.063,-13.933 l -1.063,-2.703 -33.149,0.104 c -18.274,0 -33.892,0.312 -34.529,0.624 z m 67.147,8.63 v 6.759 l -32.405,0.207 c -18.38,0.208 -31.768,-0.104 -31.025,-0.624 1.063,-0.624 1.382,-2.703 1.063,-7.278 l -0.319,-6.343 31.343,0.208 31.343,0.312 z m -63.217,0 c 0,2.807 -0.424,5.199 -1.062,5.199 -0.532,0 -1.063,-2.392 -1.063,-5.199 0,-2.912 0.531,-5.199 1.063,-5.199 0.638,0 1.062,2.287 1.062,5.199 z"
       id="path18"
       style="fill:#ffffff;stroke:#ffffff;stroke-width:5.99998;stroke-miterlimit:4;stroke-dasharray:none;stroke-opacity:1" />
    <path
       d="m 605.218,316.16 c -1.913,2.287 -1.062,26.306 1.063,27.554 0.849,0.52 10.729,1.041 21.886,1.041 24.542,0 23.799,0.415 23.799,-12.063 0,-4.471 -0.425,-8.838 -0.957,-9.669 -0.849,-1.352 -9.562,-3.432 -19.762,-4.888 -2.336,-0.312 -7.862,-1.248 -12.217,-2.079 -9.987,-1.871 -12.218,-1.871 -13.812,0.104 z m 24.437,3.64 c 9.668,1.767 18.167,3.326 18.911,3.638 0.957,0.312 1.275,2.912 1.062,9.566 l -0.318,9.15 h -21.249 -21.249 l -0.32,-12.789 -0.318,-12.685 h 2.975 c 1.593,0 10.837,1.455 20.506,3.12 z"
       id="path20"
       style="fill:#ffffff;stroke:#ffffff;stroke-width:5.99998;stroke-miterlimit:4;stroke-dasharray:none;stroke-opacity:1" />
  </g>
</svg>
