<?xml version="1.0" standalone="no"?>
<!DOCTYPE svg PUBLIC "-//W3C//DTD SVG 20010904//EN"
 "http://www.w3.org/TR/2001/REC-SVG-20010904/DTD/svg10.dtd">
<svg version="1.0" xmlns="http://www.w3.org/2000/svg"
 width="650.000000pt" height="550.000000pt" viewBox="0 0 650.000000 550.000000"
 preserveAspectRatio="xMidYMid meet">
<metadata>
Created by potrace 1.16, written by Peter Selinger 2001-2019
</metadata>
<g transform="translate(0.000000,550.000000) scale(1.000000,-1.000000)"
fill="#ffffff" stroke="none">
<path d="M244 522 c-6 -3 -34 -20 -62 -36 l-50 -30 -9 0 c-23 0 -55 -1 -56 -2
-2 -2 -4 -19 -2 -19 1 0 2 -1 3 -1 2 -1 2 -4 -1 -35 -2 -19 -4 -39 -5 -44 0
-6 -1 -11 -1 -11 -1 -1 -3 -1 -4 -1 -3 0 -3 0 -5 -18 -2 -17 -2 -17 -9 -17 -6
0 -13 -3 -15 -6 -1 -2 -2 -9 -6 -65 -2 -22 -4 -57 -6 -77 -2 -21 -4 -47 -4
-58 -1 -11 -3 -29 -4 -40 -1 -12 -1 -19 0 -20 1 -1 22 -4 59 -8 85 -10 146
-14 237 -15 94 -1 169 3 257 12 23 2 69 7 76 9 l3 0 0 15 c-1 8 -2 23 -2 33
-1 10 -3 35 -5 56 -1 20 -2 42 -3 49 -1 7 -2 24 -2 39 -2 32 -5 65 -6 68 0 1
-2 4 -5 6 -4 4 -5 4 -10 4 l-5 0 -1 3 c-1 2 -1 9 -2 15 -2 15 -2 16 -6 16 -4
-1 -3 -2 -6 25 -1 12 -3 29 -4 38 -2 17 -3 23 -1 24 0 0 2 1 3 1 2 0 2 1 2 6
0 10 -1 13 -4 14 -2 1 -10 1 -26 1 l-23 -1 -49 26 c-27 14 -60 31 -73 38 l-23
13 -67 0 -66 0 -12 -7z m161 -20 l21 -11 0 -18 0 -18 -24 -1 -24 0 0 -4 c-2
-10 -1 -12 8 -12 6 0 6 0 6 -3 1 -2 1 -26 1 -52 l0 -49 -39 -1 c-32 0 -38 -1
-39 -2 -1 -1 -1 -7 -1 -14 l0 -12 50 0 c28 0 52 0 54 1 l3 0 0 66 c0 62 0 66
2 66 1 0 2 -2 2 -17 l0 -16 4 0 c4 0 5 0 5 3 1 2 1 6 1 9 l0 6 27 13 c14 7 28
14 31 15 l5 2 16 -8 16 -8 19 0 19 0 0 -3 c0 -3 1 -4 5 -4 5 0 4 1 7 -21 0 -9
2 -26 4 -38 3 -29 3 -28 -2 -29 -2 0 -3 -1 -4 -2 0 -1 3 -37 5 -43 1 -4 8 -8
15 -9 l6 0 0 -4 c0 -3 0 -3 -6 -4 -3 -1 -5 -2 -6 -2 -1 -1 2 -25 4 -37 l0 -4
5 0 c5 0 6 0 6 -3 1 -1 2 -19 3 -40 l2 -37 -3 -3 -3 -3 -1 -11 c0 -6 1 -21 1
-34 1 -14 2 -30 3 -37 l0 -13 -3 0 c-8 -2 -37 -5 -62 -7 -35 -4 -102 -8 -103
-7 0 0 -1 5 -1 11 -1 11 -3 16 -7 19 -3 2 -13 3 -19 1 -8 -3 -9 -4 -10 -20 0
-6 -1 -12 -1 -13 -1 -1 -126 -1 -139 -1 l-12 1 0 13 c-1 13 -2 16 -8 19 -4 3
-16 2 -21 0 -6 -3 -7 -6 -8 -18 0 -6 -1 -11 -1 -12 -1 -1 -47 2 -80 5 -38 3
-94 9 -95 10 -1 1 -1 12 0 30 2 55 2 61 1 65 -1 2 -3 4 -5 5 -3 2 -3 -4 1 43
3 33 2 31 6 31 2 0 4 0 4 1 1 1 5 32 5 36 0 3 0 4 -4 5 -2 1 -4 2 -5 3 0 0 0
4 1 7 l1 7 7 0 c8 1 13 3 14 7 1 2 5 25 6 40 1 5 1 5 -1 5 -5 0 -5 1 -4 17 1
8 2 22 3 31 1 9 2 22 3 30 l1 13 3 0 c3 0 3 0 4 4 l0 3 28 0 27 0 11 4 11 4 8
-3 c7 -3 41 -19 53 -25 l5 -2 0 -24 c1 -21 1 -24 3 -26 l2 -2 55 -1 55 0 0 6
0 7 -50 0 -51 0 0 25 0 25 -17 8 c-9 4 -24 11 -33 15 -16 8 -18 9 -17 9 0 1
19 12 58 35 6 4 16 10 21 13 l10 6 63 0 63 0 20 -12z m11 -128 c1 -35 1 -63 1
-64 -1 -1 -89 -1 -95 0 l-4 0 0 9 0 9 26 0 c14 1 32 1 39 1 l14 0 0 54 c0 29
0 54 1 54 0 1 4 1 9 1 l9 0 0 -64z m-380 -227 c1 -2 -2 -79 -4 -84 0 -2 -1 -3
-1 -3 -3 0 -4 2 -4 7 0 6 5 76 6 81 0 4 2 4 3 -1z m578 -14 c4 -54 5 -74 4
-75 -1 -1 -1 -1 -2 0 0 0 -2 16 -3 34 -1 18 -2 38 -3 43 0 9 1 15 2 12 1 -1 1
-7 2 -14z m-373 -66 c5 -2 6 -4 6 -17 0 -9 0 -10 -2 -10 -2 0 -2 1 -2 12 l0
11 -9 0 -9 0 -1 -11 c0 -6 0 -11 -1 -11 -1 0 -2 6 -2 15 0 6 0 7 3 9 1 2 3 3
4 3 3 1 9 1 13 -1z m191 0 c2 -3 3 -26 1 -26 -2 0 -2 2 -2 11 l0 11 -9 0 c-8
0 -8 0 -9 -3 -1 -1 -1 -6 -1 -10 0 -5 0 -9 0 -9 -2 0 -2 22 -1 24 4 4 17 5 21
2z M360 260 l-4 0 -1 -10 c-1 -5 -1 -9 -1 -9 0 0 -2 -1 -4 -2 -6 -3 -7 -7 -7
-26 0 -14 1 -16 3 -19 1 -1 3 -3 5 -3 2 -1 3 -2 3 -6 1 -2 1 -6 1 -8 0 -3 1
-5 1 -6 2 -1 25 -1 27 0 1 1 3 8 3 15 0 3 0 4 2 5 6 2 8 3 9 7 1 6 2 20 1 28
-1 8 -3 11 -9 13 -3 2 -4 5 -4 15 0 3 0 5 -1 5 -3 1 -20 2 -24 1z m17 -13 c3
0 3 -1 3 -3 0 -2 -1 -3 -10 -3 l-9 0 0 3 c0 2 1 3 1 3 2 1 11 1 15 0z m11 -15
c3 -1 4 -4 4 -9 l0 -2 -21 -1 -21 0 0 5 c0 5 0 6 2 7 2 1 33 1 36 0z m5 -16
c2 -2 -4 -3 -22 -3 -10 0 -20 0 -20 1 -3 0 -2 2 0 2 3 1 41 1 42 0z m-1 -12
c0 -3 0 -5 -1 -6 -1 -1 -7 -1 -21 -1 l-18 1 -1 3 c0 2 0 5 0 6 l0 3 20 0 21 0
0 -6z m-12 -18 l0 -3 -9 0 c-8 0 -10 1 -10 2 -1 4 1 5 10 5 l9 0 0 -4z M444
260 c-2 -1 -3 -5 -3 -14 0 -5 0 -5 -3 -7 -7 -3 -7 -4 -8 -19 0 -23 1 -28 8
-29 3 -1 3 -1 3 -10 1 -6 1 -10 2 -10 2 -1 26 -1 27 1 1 0 1 5 2 9 0 9 0 9 3
10 4 0 8 5 9 10 1 4 1 25 0 31 -1 4 -3 6 -8 8 -3 1 -4 1 -4 10 -1 4 -1 9 -2 9
-1 1 -23 2 -26 1z m22 -15 l0 -4 -9 0 c-7 0 -9 0 -9 2 -2 4 -1 5 10 5 l8 0 0
-3z m11 -13 c0 -1 1 -4 1 -6 0 -5 0 -5 -4 -6 -5 -1 -35 1 -36 2 -1 1 -1 2 0 5
1 5 3 6 24 6 9 0 14 0 15 -1z m1 -16 c2 -3 -1 -3 -21 -3 -19 0 -21 0 -21 3 0
2 40 2 42 0z m-2 -7 c2 0 2 -1 2 -4 0 -7 0 -7 -17 -8 -8 0 -17 0 -19 0 -5 1
-5 1 -5 6 -1 7 -2 7 19 7 10 0 20 0 20 -1z m-10 -23 l0 -3 -7 0 c-10 0 -12 1
-12 4 l0 3 9 0 10 0 0 -4z M534 260 c-4 0 -5 -1 -5 -7 0 -9 -1 -12 -5 -13 -7
-4 -7 -6 -7 -25 0 -16 0 -17 2 -20 1 -1 3 -3 5 -4 l4 -1 0 -9 c0 -4 1 -9 1
-10 1 -1 25 -2 27 0 1 1 2 3 2 10 l0 10 4 1 c5 1 7 4 8 16 0 5 0 13 0 18 -1
10 -2 12 -9 14 l-3 0 0 11 0 10 -11 0 c-6 0 -12 0 -13 -1z m13 -13 c5 0 5 0 5
-3 0 -2 -1 -3 -8 -3 -5 0 -9 0 -9 1 -1 0 -1 2 0 3 0 3 1 3 4 3 2 0 6 0 8 -1z
m17 -19 c0 -3 0 -6 -1 -6 0 -1 -10 -1 -21 -1 l-19 0 0 3 c0 7 1 8 5 8 2 0 11
1 19 1 l16 0 1 -5z m-5 -11 c3 0 5 -1 5 -2 0 -2 -3 -2 -23 -2 -17 0 -19 1 -19
2 0 2 1 2 10 2 6 0 13 1 16 1 3 0 8 0 11 -1z m5 -11 c0 -1 0 -4 -1 -5 l-1 -3
-19 0 -19 1 -1 5 0 6 20 0 21 0 0 -4z m-12 -18 c0 -5 -1 -5 -9 -5 -8 0 -8 0
-9 2 -1 4 1 5 10 5 7 0 8 0 8 -2z M269 259 c0 0 -1 -2 -1 -4 0 -3 0 -7 -1 -10
0 -4 0 -5 -5 -7 -3 -1 -5 -3 -6 -5 -1 -4 -2 -22 -1 -29 1 -7 3 -11 8 -13 4 -2
4 -2 4 -10 1 -5 2 -9 2 -10 1 -1 26 -2 28 0 0 0 1 5 2 10 0 9 0 9 3 10 2 0 4
1 5 3 2 2 3 3 3 21 0 17 -1 18 -3 21 -1 1 -3 3 -5 3 -3 1 -3 1 -3 10 -1 4 -1
9 -2 10 -1 1 -4 1 -14 1 -7 0 -13 0 -14 -1z m24 -14 c0 -2 0 -3 -1 -3 0 -1 -5
-1 -10 -1 l-8 0 -1 3 0 3 10 0 c10 0 10 0 10 -2z m9 -14 c1 -1 1 -4 1 -6 0 -3
0 -4 -3 -4 -2 -1 -11 -1 -21 -1 l-18 0 0 3 c1 2 1 4 1 6 0 1 1 2 2 3 1 0 10 1
20 1 16 0 17 0 18 -2z m2 -15 c2 -2 -3 -3 -22 -3 -18 0 -21 0 -21 1 0 1 1 2 2
2 2 1 40 0 41 0z m-1 -12 l0 -6 -19 -1 c-22 0 -22 0 -22 8 l0 5 21 0 20 0 0
-6z m-10 -18 c0 -5 0 -5 -12 -3 -7 0 -7 0 -7 3 0 1 0 3 1 3 0 1 4 1 9 1 l9 0
0 -4z M79 205 l0 -20 4 -1 c1 0 27 0 56 0 43 0 54 1 55 2 2 1 2 4 2 20 l0 19
-58 0 -59 0 0 -20z m113 13 c0 -1 -1 -2 -2 -2 0 -1 -25 -1 -54 -1 l-52 0 0 3
0 2 54 0 c52 0 54 0 54 -2z m-1 -18 l0 -10 -5 0 c-7 -1 -87 -1 -95 0 l-7 0 0
10 c0 6 0 9 1 9 1 1 25 1 54 1 l52 0 0 -10z M64 174 l-4 0 -1 -8 c-1 -4 -1
-20 0 -35 0 -25 0 -27 2 -28 3 -2 25 -1 28 0 1 2 2 3 2 35 0 27 -1 34 -2 35
-1 2 -19 2 -25 1z m21 -5 c1 -1 1 -9 1 -31 l0 -30 -5 0 c-2 0 -8 0 -11 -1 l-7
0 0 31 c0 17 0 31 1 31 1 2 20 1 21 0z M103 166 l-8 0 -1 -4 c-2 -7 -1 -51 1
-52 1 -1 9 -1 40 -1 37 0 38 0 40 2 1 1 1 6 1 27 0 20 -1 26 -2 27 -1 1 -8 2
-32 2 -17 0 -35 -1 -39 -1z m66 -8 c1 -2 1 -12 1 -23 l0 -20 -35 -1 -35 0 0
23 0 24 34 0 35 0 0 -3z M178 155 c-1 -5 0 -35 2 -36 1 -1 6 -1 19 -1 22 0 21
-2 21 20 0 8 0 16 -1 17 -1 2 -2 2 -21 2 l-19 0 -1 -2z m26 -17 l0 -15 -5 0
c-2 0 -7 0 -10 -1 l-5 0 0 15 0 15 10 0 10 0 0 -14z m11 0 l0 -15 -3 0 -3 0 0
13 c0 7 0 14 -1 14 0 2 1 2 3 2 l4 0 0 -14z M556 149 c-4 0 -4 0 -4 -4 0 -2 0
-6 -1 -10 l0 -6 -6 0 -6 0 0 8 c-1 4 -1 8 -1 10 0 1 -1 2 -13 2 -8 0 -14 0
-15 -1 -1 -1 -1 -4 -2 -10 l0 -8 -6 -1 c-6 0 -6 0 -6 3 -1 2 -1 6 -1 9 0 8 -1
8 -16 8 l-12 0 -1 -10 0 -9 -4 -2 c-8 -2 -8 -3 -9 -20 0 -8 0 -16 0 -19 1 -5
5 -10 9 -10 3 0 3 0 3 -10 l1 -10 14 0 c17 0 16 -1 16 12 l0 8 6 0 6 0 0 -8
c1 -4 1 -8 1 -9 0 -2 1 -3 13 -3 7 0 13 0 14 1 1 1 2 3 3 10 l1 9 5 0 6 0 0
-10 1 -10 13 0 c7 0 14 0 15 1 2 1 2 2 2 10 l0 9 4 0 c2 1 4 2 5 3 2 4 3 20 2
31 -1 11 -2 13 -7 15 -3 1 -3 2 -5 14 0 4 -1 6 -2 6 -2 1 -18 2 -23 1z m16
-13 c4 0 4 -1 4 -3 0 -2 -1 -3 -8 -3 -10 -1 -11 -1 -11 3 0 3 0 3 3 3 6 1 8 1
12 0z m-83 -3 c0 -3 -2 -4 -11 -4 l-6 0 0 4 0 3 9 0 8 0 0 -3z m44 0 c0 -3 -1
-4 -10 -4 -7 0 -10 1 -9 5 1 2 2 2 10 2 l9 0 0 -3z m52 -13 c1 -1 2 -3 2 -4 2
-5 2 -5 -36 -6 -34 -1 -85 -1 -88 1 -1 0 -1 2 -1 5 l0 5 4 0 c3 0 30 1 61 1
52 0 56 0 58 -2z m-2 -15 c2 0 4 -1 4 -1 0 -2 -66 -3 -100 -2 -20 0 -28 1 -28
1 1 1 6 2 16 2 22 1 102 1 108 0z m4 -12 l0 -6 -62 -1 -62 0 -1 2 c-3 4 -3 9
-1 10 1 1 23 1 64 1 l62 0 0 -6z m-102 -15 c4 0 4 -1 4 -3 l0 -3 -8 0 -9 0 0
3 c0 3 0 3 3 3 6 1 6 1 10 0z m46 0 c1 -1 2 -2 2 -3 0 -2 -1 -3 -10 -3 l-9 0
0 3 c0 2 1 3 1 3 3 1 13 1 16 0z m43 0 c1 0 2 -1 2 -3 l0 -3 -9 0 c-8 0 -9 1
-9 3 0 1 0 3 1 3 2 1 11 1 15 0z M271 143 c0 0 -1 -4 -1 -9 l0 -9 -4 -2 c-8
-4 -8 -6 -9 -22 0 -19 1 -23 7 -26 2 -1 5 -2 5 -2 0 -1 1 -5 1 -9 1 -10 1 -11
16 -10 9 0 13 0 13 1 1 1 1 5 1 9 0 10 0 10 6 9 3 0 6 -1 6 -1 1 -1 1 -4 1 -8
0 -10 0 -10 15 -10 10 0 14 0 15 1 0 1 1 5 1 10 l1 9 6 0 6 0 0 -9 c0 -5 1 -9
1 -10 1 -2 28 -2 29 0 0 1 1 5 1 10 l1 8 3 1 c7 2 9 9 9 29 -1 14 -2 16 -9 19
l-4 2 0 9 c-1 11 -1 11 -16 11 -6 0 -12 0 -13 -1 -1 0 -1 -4 -2 -10 l0 -9 -7
0 -6 0 0 10 0 10 -14 0 c-8 0 -15 -1 -16 -1 0 -1 -1 -5 -1 -9 0 -5 -1 -9 -1
-9 0 -1 -3 -1 -6 -2 l-6 0 0 9 c0 9 0 10 -2 11 -2 1 -25 1 -27 0z m23 -15 l0
-4 -9 0 -9 0 0 4 0 3 9 0 9 0 0 -3z m42 2 c1 0 2 -1 2 -3 l0 -3 -9 0 c-8 0 -9
0 -10 2 -2 4 0 5 8 5 4 0 9 0 9 -1z m46 -3 l0 -3 -9 0 c-8 0 -10 1 -10 2 -1 4
1 5 10 5 l9 0 0 -4z m11 -12 c1 -2 2 -9 0 -10 0 -1 -102 -2 -121 -1 l-7 0 0 6
c0 3 0 5 0 5 0 0 28 1 63 1 34 0 62 1 62 1 0 0 2 -1 3 -2z m2 -16 c0 -1 0 -1
0 -2 -1 -1 -131 -1 -132 0 -2 3 3 3 66 3 36 0 65 -1 66 -1z m-13 -6 l12 0 0
-5 c0 -2 0 -5 -1 -6 -1 -1 -11 -1 -64 -1 l-64 0 0 3 c-1 2 -1 5 -1 6 l0 3 26
0 c49 1 80 1 92 0z m-45 -21 c0 0 1 -1 1 -2 0 -3 0 -3 -9 -3 -4 -1 -9 -1 -9 0
-1 0 -1 2 -1 3 l0 4 8 -1 c5 0 9 0 10 -1z m-43 -2 l0 -4 -7 0 c-4 0 -9 0 -9 1
-2 0 -3 4 -1 5 0 1 4 1 9 1 l8 0 0 -3z m88 0 l0 -3 -9 0 c-9 0 -11 1 -10 5 1
1 3 1 10 1 l9 0 0 -3z M77 93 c0 -5 0 -36 1 -37 1 0 27 0 58 0 47 0 57 0 58 1
1 1 1 10 1 20 l0 19 -58 0 -59 0 -1 -3z m112 -4 c1 -1 1 -6 1 -10 l0 -8 -54 0
-53 1 -1 7 c-1 4 -1 9 -1 10 l1 2 53 0 54 0 0 -2z m2 -25 c0 -1 -1 -2 -2 -2
-3 -1 -82 -2 -95 -2 l-13 1 1 3 0 2 54 0 c50 0 54 -1 55 -2z"/>
</g>
</svg>
