<?xml version="1.0" encoding="UTF-8" standalone="no"?>
<svg
   version="1.0"
   width="792.000000pt"
   height="1046.000000pt"
   viewBox="0 0 792.000000 1046.000000"
   preserveAspectRatio="xMidYMid meet"
   id="svg1"
   sodipodi:docname="data.svg"
   inkscape:version="1.3.1 (91b66b0783, 2023-11-16)"
   xmlns:inkscape="http://www.inkscape.org/namespaces/inkscape"
   xmlns:sodipodi="http://sodipodi.sourceforge.net/DTD/sodipodi-0.dtd"
   xmlns="http://www.w3.org/2000/svg"
   xmlns:svg="http://www.w3.org/2000/svg">
  <defs
     id="defs1" />
  <metadata
     id="metadata1">
Created by potrace 1.16, written by Peter Selinger 2001-2019
</metadata>
  <sodipodi:namedview
     pagecolor="#222"
     bordercolor="#666666"
     inkscape:deskcolor="#444"
     id="namedview1"
     borderopacity="1.0"
     inkscape:showpageshadow="2"
     inkscape:pageopacity="0.0"
     inkscape:pagecheckerboard="0"
     inkscape:document-units="pt"
     inkscape:zoom="0.1538001914"
     inkscape:cx="221.0660448"
     inkscape:cy="-728.2175594"
     inkscape:window-width="1727"
     inkscape:window-height="1057"
     inkscape:window-x="-8"
     inkscape:window-y="-8"
     inkscape:window-maximized="1"
     inkscape:current-layer="svg1" />
  <rect
     width="100%"
     height="100%"
     x="0"
     y="0"
     fill="black"
     id="rect1" />
  <path
     d="m 483.9258763,10.04182744 c -45.5969541,0.40351286 -68.3954311,1.41229503 -70.211239,2.82459007 -1.412295,1.2105386 -2.6228337,5.24566726 -2.6228337,8.87728308 0,3.6316158 -1.2105385,7.46498804 -2.4210771,8.67552665 -3.0263465,2.42107719 -78.4832526,4.03512866 -238.6778609,5.4474237 -57.7023401,0.6052693 -108.14144845,1.8158079 -112.17657713,2.82459008 -13.92119392,3.22810293 -22.79847699,12.71065531 -25.62306706,26.63184924 -1.00878218,4.8421544 -2.01756434,24.21077205 -2.21932078,42.97412044 -0.20175643,18.7633482 -1.2105386,36.1144015 -2.21932076,38.7372352 -1.00878218,2.6228336 -4.64039798,6.052693 -8.07025736,7.8685009 -3.22810293,1.6140514 -6.052693,3.8333723 -6.25444944,4.6403979 -0.20175643,2.2193208 -0.20175643,49.4303264 0,197.5195486 0.20175644,151.9225945 -1.00878217,138.0014006 12.30714246,147.8874659 4.8421544,3.6316158 5.04391084,4.2368852 4.64039797,25.6230671 -0.40351287,11.9036295 0.40351287,26.8336056 1.61405147,32.8862986 1.81580789,9.6843088 3.63161581,12.5088989 13.51768105,21.9914512 l 11.50011673,10.8948475 v 23.4037464 23.4037462 l -19.1668612,1.0087823 -19.16686119,1.008782 -1.21053861,14.1229504 c -2.01756433,24.8160414 0.40351286,310.5031514 2.82459006,313.3277414 1.41229504,2.0175644 5.64918015,2.2193208 15.93875827,1.2105387 19.97388693,-2.0175643 21.78969483,0.2017564 21.78969483,24.6142849 0,12.7106561 0.80702574,19.1668621 2.62283364,20.3773991 1.2105386,0.807027 19.57037406,1.210539 40.35128675,0.807027 40.3512867,-0.605269 43.7811461,0 43.7811461,9.079039 0,2.421078 1.0087821,5.245668 2.2193208,6.052693 3.8333723,2.421077 258.4499914,0.807026 261.4763379,-1.61405 1.412295,-1.21054 2.6228335,-3.228104 2.6228335,-4.6404 0,-1.210538 1.6140515,-3.833371 3.6316159,-5.64918 3.0263466,-2.82459 13.1141681,-3.228102 80.0973042,-3.833371 l 76.6674447,-0.605269 9.8860653,-5.043911 c 6.052693,-3.026348 12.3071424,-8.473771 16.1405146,-13.921195 l 6.2544495,-8.6755265 -0.6052692,-25.8248236 c -0.4035129,-25.2195542 -0.2017565,-26.2283364 4.4386415,-31.2722472 3.0263465,-3.2281029 5.64918,-9.0790396 6.4562059,-14.5264632 0.6052692,-4.8421544 1.0087822,-66.3778667 0.4035127,-136.5891056 l -0.8070256,-127.510066 -5.4474237,-10.4913347 c -5.2456673,-9.8860653 -5.4474237,-12.105386 -5.0439108,-31.2722471 l 0.6052692,-20.5791562 78.6850092,-1.0087823 c 91.193908,-1.2105386 87.7640486,-0.4035128 97.246601,-19.570374 l 5.6491801,-11.7018731 0.6052693,-82.316625 0.8070257,-82.1148684 h -7.2632316 -7.2632316 v -68.5971876 -68.5971874 h 6.052693 6.2544494 l -0.8070256,-96.4395752 C 783.1306673,69.35821893 782.9289108,65.72660312 778.6920258,57.05107648 776.4727051,52.00716563 772.8410893,46.15622905 770.8235248,43.73515186 762.1479982,33.8490866 762.7532676,33.8490866 664.296128,32.84030443 L 571.6899248,31.83152227 569.874117,22.75248275 C 567.4530397,11.0506096 565.233719,8.427775966 557.5669745,9.033045263 554.1371152,9.436558139 521.04906,9.840071006 483.9258763,10.04182744 Z m 72.2288032,15.73700182 c 2.4210772,2.4210772 3.0263464,7.86850092 3.0263464,24.81604134 0,11.90362958 -0.6052692,22.79847699 -1.4122949,24.0090156 -1.2105386,2.01756433 -16.5440277,2.62283364 -64.9655717,2.62283364 -61.3339558,0 -63.5532766,-0.20175643 -65.5708409,-4.03512867 -1.2105386,-2.42107721 -1.8158079,-13.31592463 -1.6140515,-26.63184924 0.6052693,-21.78969484 0.8070257,-22.59672057 5.2456673,-23.80725918 2.6228336,-0.6052693 31.0704908,-0.80702573 63.3515201,-0.6052693 50.0355956,0.40351287 59.3163915,0.80702574 61.9392252,3.63161581 z M 407.2584314,59.27039724 c 3.0263466,1.41229504 3.8333722,4.23688512 3.8333722,11.90362959 0,17.55280977 -7.061475,16.14051472 78.6850092,16.14051472 58.5093657,0 76.6674449,-0.60526935 78.0797398,-2.62283367 1.2105386,-1.2105386 2.6228336,-6.85971874 3.228103,-12.30714245 0.6052692,-6.45620588 2.4210772,-11.09660385 4.640398,-12.71065531 2.8245901,-2.01756435 21.386182,-2.62283364 87.5622922,-2.62283364 72.6323161,0 84.5359456,0.40351286 88.3693179,3.22810294 l 4.4386415,3.02634649 v 97.85187029 97.6501139 h 5.0439109 5.0439108 v 68.5971874 68.5971876 h -5.0439108 -5.0439109 v 83.5271635 c 0,65.5708408 -0.6052693,83.9306763 -2.6228336,85.5447278 -3.0263465,2.6228337 -126.097771,4.0351287 -130.1328997,1.6140515 -2.0175643,-1.2105386 -2.4210773,-4.4386416 -1.4122951,-11.0966038 2.0175644,-15.9387583 1.8158079,-64.7638153 -0.4035128,-66.9831361 -1.412295,-1.412295 -28.6494136,-1.8158078 -79.6937912,-1.412295 -62.1409817,0.4035128 -78.2814964,1.2105386 -80.90433,3.4298594 -3.0263465,2.2193208 -3.4298594,7.6667444 -3.4298594,36.9214274 0,19.7721304 -0.8070257,35.9126451 -2.0175643,38.1319659 -1.6140515,2.82459 -4.2368851,3.8333722 -9.6843088,3.8333722 -9.4825524,0 -12.5088989,2.8245901 -12.5088989,12.1053861 0,4.0351286 1.0087822,8.2720137 2.4210771,9.6843088 1.815808,1.8158078 19.7721306,2.4210772 68.3954311,2.4210772 57.9040964,0 66.1761102,0.4035128 68.5971874,3.2281029 3.228103,4.0351288 5.2456673,40.5530431 2.4210771,43.3776333 -1.2105385,1.2105386 -9.0790393,2.82459 -17.5528096,3.6316158 -10.0878217,0.8070257 -16.3422712,2.4210772 -17.3510532,4.4386414 -2.4210773,3.4298595 -0.8070258,278.2221221 1.412295,280.4414429 0.8070257,0.8070257 9.2807959,2.2193207 18.7633483,3.2281029 l 17.1492968,1.6140515 0.6052693,20.1756434 c 0.8070257,27.2371185 -0.4035129,32.6845422 -8.2720137,37.3249401 -6.052693,3.8333723 -10.6930911,4.0351288 -91.3956645,4.0351288 -67.5884053,0 -85.5447278,-0.6052694 -88.3693179,-2.6228337 -2.8245901,-2.2193207 -3.8333723,-5.8509366 -4.2368852,-15.9387582 -0.2017563,-7.2632317 -1.0087821,-14.1229503 -1.6140514,-15.1317326 -1.6140515,-2.6228337 -209.4231781,-0.8070257 -212.6512809,1.8158079 -1.2105387,1.0087822 -2.8245902,8.0702573 -3.6316158,15.9387582 -1.0087822,9.8860654 -2.4210773,14.5264633 -4.8421544,15.7370019 -3.2281031,1.6140515 -73.43934191,1.0087821 -78.28149631,-0.8070257 -2.01756434,-0.6052693 -2.62283364,-7.6667445 -2.62283364,-26.02658 v -25.4213105 l 5.64918013,-3.4298596 c 3.02634652,-2.0175642 6.25444945,-4.4386415 7.06147519,-5.64918 1.00878217,-1.0087822 1.00878217,-21.1844256 0.40351287,-44.3864154 -0.60526931,-23.4037464 -1.21053861,-79.088522 -1.21053861,-123.8784503 -0.20175643,-44.9916847 -0.6052693,-82.9218942 -1.21053861,-84.3341892 -0.6052693,-1.6140515 -3.83337224,-4.2368852 -7.06147517,-5.8509367 -5.85093658,-3.0263464 -6.052693,-3.6316157 -4.64039798,-12.5088987 0.80702574,-5.2456674 2.21932077,-22.5967207 2.82459008,-38.7372353 l 1.2105386,-29.254683 h 47.41276195 c 26.0265799,0 48.6233004,-0.8070256 50.0355955,-1.6140515 3.0263464,-2.0175642 3.2281029,-20.7809126 0.2017564,-22.7984769 -1.4122949,-0.8070258 -28.4476571,-1.2105386 -60.52693,-1.0087821 -56.29004504,0.4035127 -58.10585295,0.4035127 -62.14098162,-3.6316159 -4.03512867,-4.0351286 -4.23688511,-6.4562059 -4.23688511,-41.9653382 v -37.7284532 l -7.06147518,-6.4562057 -7.06147517,-6.4562059 -0.40351286,-25.8248235 c -0.20175644,-14.3247068 -0.6052693,-31.0704908 -0.80702574,-37.1231838 -0.20175644,-6.052693 -0.40351287,-59.7199044 -0.6052693,-119.0362959 l -0.40351287,-107.9396919 4.64039797,-3.6316159 c 12.71065533,-9.8860652 11.70187315,-4.640398 11.70187315,-62.7462509 0,-40.75479957 0.6052693,-53.66721132 2.62283363,-55.28126279 3.83337225,-3.22810294 11.29836029,-3.42985937 184.8088931,-3.83337224 102.6940248,-0.20175643 161.6069033,0.20175644 163.8262241,1.61405147 z M 605.7867622,525.5295154 c 0,13.3159246 -0.8070258,20.3773999 -2.6228336,22.1932077 -3.228103,3.228103 -119.8433216,4.640398 -125.6942582,1.4122951 -3.4298593,-1.6140515 -3.8333723,-4.4386415 -3.8333723,-21.7896949 0,-10.8948474 0.6052694,-20.3773998 1.412295,-20.982669 0.8070258,-0.8070259 30.4652215,-1.2105387 65.9743538,-1.0087822 l 64.7638153,0.6052692 z m -12.3071425,132.7557333 c 3.0263465,3.0263466 5.4474237,254.01135 2.4210772,258.0464786 -2.8245901,3.6316159 -37.7284532,2.2193208 -42.3688511,-1.6140515 -3.0263466,-2.4210771 -3.2281029,-15.1317324 -2.82459,-130.1328997 l 0.6052693,-127.3083095 12.105386,-1.2105387 c 15.3334889,-1.6140515 27.035362,-0.8070256 30.0617086,2.2193208 z M 67.70235373,671.8029298 c 0.6052693,3.4298593 -0.60526931,5.2456673 -4.23688511,6.4562059 -2.82459007,1.2105386 -5.85093657,3.2281029 -6.85971875,4.6403979 -2.21932076,3.6316158 -0.6052693,256.4324271 1.81580791,258.0464786 1.00878217,0.6052694 3.83337224,0.8070258 6.45620588,0.403513 2.62283363,-0.6052694 5.64918014,0.4035128 7.2632316,2.4210772 2.42107722,3.0263464 2.42107722,3.8333723 -1.00878216,6.2544494 -4.64039798,3.4298594 -21.99145126,3.6316159 -24.81604134,0.2017564 C 45.10563315,948.8145133 44.096851,897.3666227 43.4915817,810.2078433 42.28104308,654.8553894 41.27226092,665.7502368 58.01804491,666.7590189 c 7.66674448,0.6052694 9.07903951,1.4122951 9.68430882,5.0439109 z m 12.30714244,20.1756434 c 2.01756434,4.0351286 4.23688512,73.8428547 5.24566728,167.0543271 0.40351287,52.2549162 0.20175644,60.9304429 -2.62283364,63.9567895 -3.6316158,4.2368849 -8.47377021,4.6403979 -13.31592462,1.008782 -3.42985937,-2.4210771 -3.6316158,-9.8860652 -4.43864153,-114.3958978 -0.60526931,-97.2466011 -0.40351287,-112.3783336 2.21932076,-116.4134622 3.63161582,-5.4474238 10.28957812,-6.052693 12.91241175,-1.2105386 z M 266.4324408,975.4463624 c 4.8421544,2.4210773 5.0439108,28.0441446 0.2017564,32.0792726 -2.4210771,2.017564 -13.517681,2.82459 -41.7635817,3.429859 -45.5969539,1.008784 -44.5881718,1.614053 -42.5706075,-19.7721298 0.8070259,-7.464988 2.4210773,-14.1229503 4.0351287,-15.3334889 3.4298593,-2.8245901 74.8516368,-3.228103 80.0973041,-0.4035129 z m 102.4922682,1.0087822 c 1.815808,2.0175644 2.8245902,8.4737702 2.8245902,17.5528097 v 14.1229497 l -8.0702574,1.614053 c -4.4386415,0.807026 -23.20199,1.412295 -41.7635818,1.412295 -38.5354788,0.201756 -36.5179145,1.210537 -38.5354788,-18.7633492 -2.0175643,-19.9738869 -3.4298593,-19.3686176 42.7723639,-19.3686176 34.7021067,0 40.3512867,0.403513 42.7723639,3.4298594 z"
     id="path40"
     style="fill:#ffffff;stroke:none;stroke-width:0.201756" />
  <path
     d="m 187.1421624,94.98128595 c 0,22.19320775 0.8070258,32.68454235 2.4210771,34.29859385 3.4298594,3.4298593 171.2912123,3.4298593 174.7210716,0 1.6140515,-1.6140515 2.4210771,-12.1053861 2.4210771,-34.29859385 V 63.10376948 H 276.9237753 187.1421624 Z M 352.1789251,79.04252774 c 3.4298593,4.03512867 2.4210772,29.25468296 -1.2105386,32.88629866 -3.6316158,3.6316159 -142.4400422,5.2456673 -146.6769274,1.6140514 -4.0351285,-3.4298593 -4.2368849,-32.68454215 -0.4035127,-36.11440153 1.8158078,-1.41229504 22.7984769,-2.4210772 63.1497636,-2.82459007 71.623534,-0.60526931 81.5095993,-0.20175643 85.1412151,4.43864154 z"
     id="path41"
     style="fill:#ffffff;stroke:none;stroke-width:0.201756" />
  <path
     d="m 105.4308069,72.78807829 c -13.11416828,6.25444945 -20.57915631,13.71943746 -24.21077213,24.61428486 -2.82459006,8.27201385 -3.0263465,11.29836025 -1.00878216,17.55280975 5.44742371,16.745784 15.73700183,27.0353621 32.68454229,32.6845424 10.693091,3.4298593 21.9914512,-0.403513 34.7021065,-12.1053862 l 10.2895781,-9.4825524 v -13.7194374 c 0,-10.2895781 -1.2105386,-16.14051475 -4.2368851,-21.9914513 -9.0790395,-17.55280971 -31.0704907,-25.62306704 -48.2197875,-17.55280971 z m 29.4564392,20.37739981 c 6.6579623,6.65796237 7.8685009,9.0790395 7.8685009,16.3422712 0,7.2632315 -1.2105386,9.6843088 -7.8685009,16.342271 -10.0878216,10.2895782 -18.9651047,10.693091 -29.4564392,1.6140515 -13.71943758,-12.1053859 -13.11416828,-29.25468285 1.6140513,-38.13196595 10.4913347,-6.45620587 18.7633484,-5.24566727 27.8423879,3.83337225 z"
     id="path42"
     style="fill:#ffffff;stroke:none;stroke-width:0.201756" />
  <path
     d="m 574.5145149,126.2535333 c -4.8421544,2.4210771 -5.0439108,3.6316157 -6.052693,22.394964 -0.6052693,13.5176811 -1.8158079,20.3773999 -3.4298593,20.9826692 -1.4122951,0.4035129 -2.6228337,-0.2017565 -2.6228337,-1.2105386 0,-3.6316158 -17.5528097,-9.0790396 -25.4213106,-7.868501 -16.9475404,2.8245901 -35.3073759,20.5791563 -38.3337223,37.1231838 -6.052693,31.6757601 40.7547995,63.9567895 61.939225,42.7723639 2.0175644,-2.0175642 4.640398,-3.8333722 5.6491802,-3.8333722 1.0087821,0 2.2193207,9.0790396 2.6228336,20.1756434 0.4035129,15.3334889 1.412295,20.7809126 3.6316159,22.1932077 4.6403979,3.0263464 95.430793,2.6228337 98.4571395,-0.4035129 1.412295,-1.4122951 2.4210772,-8.2720137 2.4210772,-17.1492968 0,-16.9475404 2.2193208,-19.5703741 13.7194375,-16.3422712 15.1317325,4.2368852 40.956556,-7.6667444 47.8162748,-21.7896948 6.2544494,-13.3159246 6.4562058,-25.2195541 0,-38.131966 -2.82459,-6.052693 -8.2720138,-13.3159246 -11.9036296,-16.1405146 -7.6667445,-5.8509366 -25.0177978,-10.0878218 -35.1056194,-8.4737703 -11.5001167,2.0175644 -13.7194375,-0.6052692 -15.5352455,-17.1492968 -0.6052692,-8.0702573 -2.2193207,-15.9387583 -3.4298593,-17.3510534 -3.0263465,-3.4298593 -87.3605358,-3.4298593 -94.422011,0.2017566 z m 79.8955477,17.7545661 c 2.2193209,3.6316159 3.4298594,104.9133455 1.4122951,112.7818464 l -1.8158079,7.0614751 -32.079273,0.6052694 c -18.7633482,0.2017565 -32.6845422,-0.2017564 -33.8950808,-1.412295 -2.0175643,-2.0175643 -2.2193208,-116.4134623 -0.2017564,-119.6415652 1.6140515,-2.6228337 64.9655715,-2.0175643 66.579623,0.6052693 z m 55.4830193,33.0880551 c 7.8685009,4.0351287 17.9563226,18.3598355 17.9563226,25.2195542 0,6.8597188 -10.0878217,21.1844255 -17.9563226,25.2195543 -8.2720138,4.2368849 -15.7370018,3.8333722 -18.3598355,-0.8070259 -2.2193207,-4.236885 -2.82459,-49.2285698 -0.6052693,-51.246134 2.4210773,-2.4210773 12.7106553,-1.4122951 18.9651048,1.6140514 z m -159.589339,4.8421544 c 1.0087822,2.2193207 2.0175644,12.7106554 2.0175644,23.2019899 0,16.7457839 -0.6052693,19.9738869 -4.0351288,23.4037463 -5.2456671,5.2456673 -9.8860652,5.0439109 -18.3598354,-0.6052694 -8.4737703,-5.6491801 -15.9387582,-16.5440275 -15.9387582,-23.4037462 0,-7.2632317 6.8597187,-17.5528097 14.5264631,-22.3949641 8.6755267,-5.2456673 18.9651048,-5.2456673 21.7896949,-0.2017565 z"
     id="path43"
     style="fill:#ffffff;stroke:none;stroke-width:0.201756" />
  <path
     d="m 273.493916,143.806343 c -41.3600689,1.8158078 -46.2022234,5.8509365 -35.1056194,29.4564392 12.3071424,26.2283364 34.50035,38.5354789 54.6759934,30.2634651 19.570374,-8.2720137 31.2722473,-24.6142849 31.2722473,-43.9829026 0,-13.9211939 -3.228103,-17.9563224 -13.7194375,-17.3510532 -4.0351288,0.2017564 -20.7809127,0.8070257 -37.1231838,1.6140515 z m 32.8862986,13.3159246 c 3.8333723,2.2193207 1.8158079,14.5264632 -3.4298593,20.982669 -7.2632317,8.4737703 -14.9299762,12.105386 -25.8248236,12.105386 -7.8685009,0 -10.4913345,-1.2105385 -17.1492968,-7.2632315 -8.0702573,-7.2632316 -13.5176811,-18.7633484 -11.5001168,-24.0090157 1.6140515,-4.236885 51.4478906,-5.8509365 57.9040965,-1.8158078 z"
     id="path44"
     style="fill:#ffffff;stroke:none;stroke-width:0.201756" />
  <path
     d="m 63.26371219,198.8858493 c -9.48255238,3.2281029 -9.68430882,8.2720137 -8.27201378,135.9838363 1.2105386,89.5798565 2.21932076,118.0275137 4.03512867,119.6415652 1.61405147,1.2105386 19.97388693,2.2193207 46.00046692,2.6228337 36.5179144,0.4035128 44.1846589,0 46.6057361,-2.6228337 2.4210772,-2.4210773 3.228103,-10.4913345 4.0351287,-36.3161581 1.4122951,-50.8426213 -1.412295,-215.2741146 -3.8333723,-217.6951919 -2.6228336,-2.4210771 -81.50959914,-4.0351287 -88.57107431,-1.6140515 z m 75.86041901,13.1141682 c 2.0175644,2.0175644 2.6228337,14.7282196 2.6228337,54.4742371 v 51.8514035 l -36.1144016,0.6052692 c -19.97388698,0.2017565 -37.12318384,-0.4035128 -37.93020957,-1.2105385 -1.00878217,-1.0087822 -2.21932077,-24.4125285 -2.42107721,-51.8514034 -0.6052693,-47.412762 -0.6052693,-50.0355957 3.22810294,-53.8689679 3.6316158,-3.6316158 6.45620587,-3.8333722 35.91264524,-3.228103 22.7984769,0.403513 32.8862987,1.4122951 34.7021065,3.228103 z m 1.4122951,126.9047967 c 2.4210771,4.640398 0.4035128,97.4483576 -2.4210773,100.8782169 -2.4210771,3.2281029 -62.34273793,3.6316159 -68.19367451,0.6052694 -3.6316158,-2.0175645 -3.83337223,-4.8421545 -3.83337223,-52.2549164 0,-27.438875 0.6052693,-50.6408648 1.41229503,-51.2461341 0.6052693,-0.8070258 16.94754043,-1.4122951 36.11440161,-1.4122951 31.0704908,0 35.1056195,0.4035129 36.9214274,3.4298593 z"
     id="path45"
     style="fill:#ffffff;stroke:none;stroke-width:0.201756" />
  <path
     d="m 190.9755346,258.2022409 c -2.2193208,2.4210771 -3.0263464,15.5352453 -3.4298592,58.9128786 -1.0087822,70.0094825 -3.8333723,64.5620587 34.0968371,64.9655716 15.1317326,0.2017565 28.2459007,0 29.2546829,-0.8070257 1.412295,-0.8070258 2.2193208,-99.8694347 1.0087822,-118.8345394 -0.4035129,-5.2456673 -11.2983603,-7.6667444 -35.5091325,-7.6667444 -18.5615918,0 -23.2019898,0.6052692 -25.4213105,3.4298593 z m 45.596954,60.1234172 v 46.4039797 l -12.7106554,0.6052694 c -7.6667444,0.4035127 -13.9211938,-0.403513 -15.7370018,-1.8158081 -2.2193208,-1.8158078 -2.8245901,-10.8948474 -2.8245901,-46.2022232 0,-24.0090156 0.6052693,-44.3864154 1.4122951,-45.1934412 0.8070258,-0.8070257 7.8685009,-1.0087822 15.7370019,-0.8070257 l 14.1229503,0.6052694 z"
     id="path46"
     style="fill:#ffffff;stroke:none;stroke-width:0.201756" />
  <path
     d="m 425.8200233,635.4867718 c -4.0351287,1.412295 -3.0263465,6.052693 1.8158079,10.6930909 2.4210773,2.2193207 13.1141683,10.2895782 23.6055028,17.7545663 10.4913345,7.4649878 22.1932076,16.5440274 25.8248234,19.9738868 7.0614753,7.0614752 12.7106554,8.4737702 16.7457841,3.6316158 5.0439109,-6.2544494 3.0263464,-8.4737703 -37.3249403,-39.3425046 -17.9563225,-13.9211938 -23.0002334,-15.9387582 -30.6669779,-12.7106552 z"
     id="path47"
     style="fill:#ffffff;stroke:none;stroke-width:0.201756" />
  <path
     d="m 223.0548076,666.5572625 c -10.0878218,2.8245901 -24.4125285,15.9387583 -29.8599523,27.2371185 -6.0526929,12.5088989 -4.8421544,25.2195544 3.6316159,38.7372353 7.4649879,11.2983604 14.7282196,15.7370019 20.7809126,12.3071425 2.2193209,-1.2105385 11.5001168,-8.0702574 20.5791563,-15.333489 9.0790394,-7.2632316 20.5791562,-15.9387582 25.623067,-19.3686176 14.7282197,-10.0878217 15.3334889,-12.7106554 5.0439109,-26.0265799 -11.0966039,-14.7282197 -29.8599522,-21.7896948 -45.7987104,-17.5528098 z m 26.6318491,17.7545662 c 5.8509367,4.2368852 7.4649881,11.0966038 3.6316158,15.7370018 -4.640398,5.6491802 -34.7021065,26.8336057 -37.9302094,26.8336057 -7.2632317,-0.2017564 -12.1053861,-8.0702574 -12.1053861,-19.9738869 0,-6.8597188 1.2105387,-9.4825525 8.0702574,-16.3422711 12.3071425,-12.3071425 26.8336057,-14.7282197 38.3337223,-6.2544495 z"
     id="path48"
     style="fill:#ffffff;stroke:none;stroke-width:0.201756" />
  <path
     d="m 385.0652237,686.7329058 c -12.5088989,3.8333724 -23.6055027,13.1141682 -29.2546829,24.4125285 -5.2456672,10.2895782 -6.6579623,20.5791563 -3.6316157,25.2195543 3.4298593,5.4474236 17.7545661,9.2807959 35.7108887,9.6843088 11.0966039,0.2017564 22.1932078,1.6140514 28.6494136,3.8333723 17.3510532,5.8509366 21.9914513,0.6052692 20.3773998,-23.8072593 -1.0087821,-15.7370017 -9.0790396,-30.263465 -19.7721305,-35.9126451 -9.0790396,-4.640398 -23.2019899,-6.052693 -32.079273,-3.4298595 z m 26.0265799,17.149297 c 3.4298595,3.0263465 7.4649881,7.8685009 9.0790396,11.0966038 3.6316159,6.8597187 4.0351286,19.7721305 0.6052693,20.9826692 -3.4298593,1.2105385 -48.2197877,-5.6491802 -51.4478906,-7.6667446 -4.4386415,-2.8245901 -3.0263465,-13.3159246 2.4210773,-18.7633484 11.701873,-11.701873 29.0529264,-14.1229503 39.3425044,-5.64918 z"
     id="path49"
     style="fill:#ffffff;stroke:none;stroke-width:0.201756" />
  <path
     d="m 248.4761181,771.2688516 c -58.1058528,0.8070258 -75.6586624,1.6140515 -78.0797397,3.6316158 -6.2544494,5.2456672 -8.0702573,16.1405147 -6.8597187,43.5793896 1.2105386,29.254683 2.2193208,34.903863 7.2632317,36.3161581 1.8158078,0.6052694 20.9826688,1.0087822 42.5706073,0.8070258 104.1063197,-0.6052694 132.5539769,-0.4035129 137.3961313,0.8070257 6.2544495,1.8158078 11.0966038,11.7018731 13.7194375,27.8423878 2.8245901,18.561592 12.3071425,51.0443778 16.745784,56.8953144 7.2632316,10.2895781 8.6755267,10.4913344 63.5532766,9.8860652 31.2722472,-0.2017565 32.6845423,-2.2193207 25.0177978,-35.3073759 -2.2193208,-8.8772831 -4.4386415,-25.8248235 -5.2456674,-37.5266967 -0.8070256,-11.7018731 -2.6228335,-27.0353621 -4.2368849,-34.2985937 -1.6140516,-7.2632316 -3.8333724,-25.2195541 -4.8421545,-40.1495303 -1.2105386,-18.7633483 -2.6228336,-28.0441442 -4.640398,-30.0617086 -3.4298594,-3.2281029 -73.2375854,-4.2368851 -202.361703,-2.4210772 z m 188.844022,13.1141682 c 1.2105386,1.6140514 3.2281029,9.0790395 4.236885,16.5440275 1.0087822,7.4649881 2.6228337,17.3510533 3.8333723,21.7896948 1.0087821,4.4386416 2.0175643,12.9124119 2.0175643,18.7633483 0,11.7018733 4.2368852,42.1670948 9.0790395,64.9655717 4.0351288,19.1668612 2.6228337,25.8248236 -6.2544494,29.4564393 -8.0702573,3.4298593 -47.4127619,3.8333723 -53.4654549,0.8070259 -5.2456672,-2.8245902 -11.0966038,-14.9299762 -13.7194375,-28.2459008 -5.0439108,-25.4213107 -6.2544494,-30.0617086 -11.2983602,-46.4039798 -3.0263466,-9.4825523 -6.4562059,-17.7545661 -7.868501,-18.5615919 -1.2105386,-0.8070257 -42.5706075,-1.6140514 -92.0009337,-1.6140514 -67.1848924,0 -90.5886387,-0.6052694 -92.4044466,-2.4210772 -3.4298593,-3.4298594 -3.2281029,-48.0180312 0.2017564,-52.6584291 2.2193209,-3.228103 12.3071424,-3.4298595 120.4485909,-4.0351288 64.9655715,-0.2017564 121.8608859,-0.6052693 126.2995274,-1.0087821 5.4474237,-0.2017565 9.2807959,0.6052692 10.8948475,2.6228336 z"
     id="path50"
     style="fill:#ffffff;stroke:none;stroke-width:0.201756" />
  <path
     d="m 242.4234251,869.120722 c -6.6579622,10.289578 0.6052694,38.7372352 12.5088989,49.6320826 16.1405147,14.7282197 43.9829025,12.7106553 60.7286866,-4.0351288 11.7018731,-11.5001166 14.7282197,-36.7196709 5.6491801,-45.5969538 -4.8421544,-5.0439109 -5.4474238,-5.0439109 -40.1495302,-5.0439109 h -35.5091324 z m 66.9831361,11.2983602 c 4.0351286,3.4298594 3.4298593,13.9211939 -1.2105387,21.5879384 -5.2456672,8.4737703 -15.333489,14.5264632 -24.4125284,14.5264632 -14.3247069,0 -30.8687344,-16.7457839 -29.6581958,-30.263465 l 0.6052693,-7.0614753 17.1492969,-1.2105386 c 20.5791563,-1.412295 33.8950809,-0.6052692 37.5266967,2.4210773 z"
     id="path51"
     style="fill:#ffffff;stroke:none;stroke-width:0.201756" />
</svg>
