<?xml version="1.0" encoding="UTF-8" standalone="no"?>
<svg
   version="1.0"
   width="838"
   height="400"
   viewBox="0 0 838 400"
   preserveAspectRatio="xMidYMid"
   id="svg1"
   sodipodi:docname="disco_hall.svg"
   inkscape:version="1.3.1 (91b66b0783, 2023-11-16)"
   xmlns:inkscape="http://www.inkscape.org/namespaces/inkscape"
   xmlns:sodipodi="http://sodipodi.sourceforge.net/DTD/sodipodi-0.dtd"
   xmlns="http://www.w3.org/2000/svg"
   xmlns:svg="http://www.w3.org/2000/svg">
  <defs
     id="defs1" />
  <sodipodi:namedview
     id="namedview1"
     pagecolor="#282828"
     bordercolor="#666666"
     borderopacity="1.0"
     inkscape:showpageshadow="2"
     inkscape:pageopacity="0.0"
     inkscape:pagecheckerboard="0"
     inkscape:deskcolor="#464646"
     inkscape:document-units="pt"
     inkscape:zoom="1.816285616"
     inkscape:cx="643.3459527"
     inkscape:cy="257.6687256"
     inkscape:window-width="2418"
     inkscape:window-height="1417"
     inkscape:window-x="1672"
     inkscape:window-y="4"
     inkscape:window-maximized="1"
     inkscape:current-layer="svg1" />
  <rect
     width="100%"
     height="100%"
     x="0"
     y="0"
     fill="black"
     id="rect1" />
  <path
     id="path265-0"
     style="font-variation-settings:normal;fill:none;fill-opacity:1;fill-rule:nonzero;stroke:#ffffff;stroke-width:30.2516;stroke-linecap:butt;stroke-linejoin:miter;stroke-miterlimit:4;stroke-dasharray:none;stroke-dashoffset:0;stroke-opacity:1;paint-order:markers stroke fill;stop-color:#ffffff"
     d="m 626.351588,-69.02348296 v 11.72071051 H 611.740839 V 75.15732816 h 14.610749 v 11.72071051 16.53743983 h -18.865526 l -45.5983844,45.5983895 v 18.9458067 h -16.537443 v -0.080261 H 533.629519 V 153.3489459 H 401.1694235 v 14.5304682 h -11.7207156 v 0.080261 h -12.2023853 v -14.6910298 l -38.7746821,-38.6944064 h -5.8603578 l -86.8617111,86.8617162 v 14.610749 h -0.4014041 -11.8009913 -11.7207105 v -14.610749 H 89.36636504 v 14.610749 H 77.64565453 65.92493897 v -14.610749 H -66.53515659 v 14.610749 h -11.72071556 -11.72071051 v -14.610749 H -222.4366782 v 14.610749 h -11.7207105 -11.7207105 v -14.610749 h -16.537443 v -15.413542 h -99.3852146 v 15.413542 h -16.537443 v 14.610749 h -11.7207105 -16.5374431 v -18.9458067 l -45.5983844,-45.5181087 h -18.8655309 v -16.537443 -11.7207105 h 14.610749 V -9.135457476 h -14.610749 V -20.85616815 h -115.5212637 v 11.720710674 h -14.610749 V 123.3246348 h 14.610749 v 11.7207105 16.537443 h -18.865531 l -45.5983844,45.5983844 v 18.865531 h -16.537443 v 115.5212636 h 16.537443 v 18.865531 l 45.5983844,45.5983844 h 18.865531 v 76.5860199 h 115.5212637 v -76.5860199 h 18.8655309 l 45.5983844,-45.5983844 v -18.865531 h 16.5374431 11.7207105 v 14.610749 h 16.537443 v 15.4135369 h 99.3852146 v -15.4135369 h 16.537443 v -14.610749 h 11.7207105 11.7207105 v 14.610749 h 132.46009554 v -14.610749 h 11.72071051 11.72071556 v 14.610749 H 65.92493897 v -14.610749 h 11.72071556 11.72071051 v 14.610749 H 221.8264657 v -14.610749 h 11.7207105 11.8009913 v 14.610749 l 38.6944064,38.6944064 h 5.8603528 l 86.8617161,-86.8617161 h 0.4816647 v -14.610749 h 12.2023853 v 0.080261 h 11.7207155 v 14.5304682 h 132.4600956 v -14.5304682 h 11.7207156 v -0.080261 h 16.537443 v 18.8655309 l 45.5983844,45.5983845 h 18.8655259 v 16.537443 h 115.5212687 v -16.537443 h 18.865531 l 45.5983844,-45.5983845 v -18.8655309 h 16.537443 V 167.9596747 h -16.537443 V 149.013868 l -45.5983844,-45.5983895 h -18.865531 V 86.87803867 75.1573332 h 14.610749 V -57.3027674 h -14.610749 v -11.72071052 z" />
  <path
     id="path261-6-0"
     style="font-variation-settings:normal;vector-effect:none;fill:#000000;fill-opacity:1;fill-rule:nonzero;stroke:none;stroke-width:40.3573;stroke-linecap:butt;stroke-linejoin:miter;stroke-miterlimit:4;stroke-dasharray:none;stroke-dashoffset:0;stroke-opacity:1;-inkscape-stroke:none;paint-order:markers stroke fill;stop-color:#ffffff"
     d="m 626.351588,-100.8122878 v 43.50951535 H 611.740839 V 75.15732816 h 14.610749 v 11.72071051 16.53743983 h -18.865526 l -45.5983844,45.5983895 v 18.9458067 h -16.537443 v -0.080261 H 533.629519 V 153.3489459 H 401.1694235 v 14.5304682 h -11.7207156 v 0.080261 h -12.2023853 v -14.6910298 l -38.7746821,-38.6944064 h -5.8603578 l -86.8617111,86.8617162 v 14.610749 h -0.4014041 -11.8009913 -11.7207105 v -14.610749 H 89.36636504 v 14.610749 H 77.64565453 65.92493897 v -14.610749 H -66.53515659 v 14.610749 h -11.72071556 -11.72071051 v -14.610749 H -222.4366782 v 14.610749 h -11.7207105 -11.7207105 v -14.610749 h -16.537443 v -15.413542 h -99.3852146 v 15.413542 h -16.537443 v 14.610749 h -11.7207105 -16.5374431 v -18.9458067 l -45.5983844,-45.5181087 h -18.8655309 v -16.537443 -11.7207105 h 14.610749 V -9.135457476 h -14.610749 V -51.73672046 h -115.5212637 v 42.601262984 h -14.610749 V 123.3246348 h 14.610749 v 11.7207105 16.537443 h -18.865531 l -45.5983844,45.5983844 v 18.865531 h -16.537443 v 115.5212636 h 16.537443 v 18.865531 l 45.5983844,45.5983844 h 18.865531 v 76.5860199 h 115.5212637 v -76.5860199 h 18.8655309 l 45.5983844,-45.5983844 v -18.865531 h 16.5374431 11.7207105 v 14.610749 h 16.537443 v 15.4135369 h 99.3852146 v -15.4135369 h 16.537443 v -14.610749 h 11.7207105 11.7207105 v 14.610749 h 132.46009554 v -14.610749 h 11.72071051 11.72071556 v 14.610749 H 65.92493897 v -14.610749 h 11.72071556 11.72071051 v 14.610749 H 221.8264657 v -14.610749 h 11.7207105 11.8009913 v 14.610749 l 38.6944064,38.6944064 h 5.8603528 l 86.8617161,-86.8617161 h 0.4816647 v -14.610749 h 12.2023853 v 0.080261 h 11.7207155 v 14.5304682 h 132.4600956 v -14.5304682 h 11.7207156 v -0.080261 h 16.537443 v 18.8655309 l 45.5983844,45.5983845 h 18.8655259 v 16.537443 h 115.5212687 v -16.537443 h 18.865531 l 45.5983844,-45.5983845 v -18.8655309 h 16.537443 V 167.9596747 h -16.537443 V 149.013868 l -45.5983844,-45.5983895 h -18.865531 V 86.87803867 75.1573332 h 14.610749 V -57.3027674 h -14.610749 v -43.5095154 z"
     sodipodi:nodetypes="ccccccccccccccccccccccccccccccccccccccccccccccccccccccccccccccccccccccccccccccccccccccccccccccccccccccccccccccccccccccccccccccccccccccccccccccccc" />
  <rect
     style="font-variation-settings:normal;vector-effect:none;fill:#000000;fill-opacity:1;fill-rule:nonzero;stroke:none;stroke-width:40.3573;stroke-linecap:butt;stroke-linejoin:bevel;stroke-miterlimit:4;stroke-dasharray:none;stroke-dashoffset:0;stroke-opacity:1;-inkscape-stroke:none;paint-order:fill markers stroke;stop-color:#ffffff"
     id="rect138-7"
     width="75.04711151"
     height="184.3628998"
     x="-351.0202637"
     y="181.7890625" />
  <rect
     style="font-variation-settings:normal;vector-effect:none;fill:#000000;fill-opacity:1;fill-rule:nonzero;stroke:none;stroke-width:40.3573;stroke-linecap:butt;stroke-linejoin:bevel;stroke-miterlimit:4;stroke-dasharray:none;stroke-dashoffset:0;stroke-opacity:1;-inkscape-stroke:none;paint-order:fill markers stroke;stop-color:#ffffff"
     id="rect138-8-2"
     width="75.04711151"
     height="190.7402802"
     x="-567.2179565"
     y="286.3248596" />
  <path
     id="path137-4-9"
     style="font-variation-settings:normal;fill:#000000;fill-opacity:1;fill-rule:nonzero;stroke:#ffffff;stroke-width:5.04467;stroke-linecap:butt;stroke-linejoin:bevel;stroke-miterlimit:4;stroke-dasharray:none;stroke-dashoffset:0;stroke-opacity:1;paint-order:fill markers stroke;stop-color:#ffffff"
     d="m -619.2171289,330.4530155 33.7148674,33.7148674 h 113.3330138 l 33.7219602,-33.7219602 V 217.1129089 l -33.7148674,-33.7148674 h -113.3471944 l -33.7077796,33.7077796 z" />
  <path
     id="path136-8-5"
     style="font-variation-settings:normal;fill:#000000;fill-opacity:1;fill-rule:nonzero;stroke:#ffffff;stroke-width:5.04467;stroke-linecap:butt;stroke-linejoin:bevel;stroke-miterlimit:4;stroke-dasharray:none;stroke-dashoffset:0;stroke-opacity:1;paint-order:fill markers stroke;stop-color:#ffffff"
     d="m 593.7195126,282.3217801 33.7148674,33.7148725 h 113.3330138 l 33.7219603,-33.7219602 V 168.9816786 L 740.7744866,135.2668061 H 627.4272923 l -33.7077797,33.7077797 z" />
  <rect
     style="font-variation-settings:normal;vector-effect:none;fill:#000000;fill-opacity:1;fill-rule:nonzero;stroke:none;stroke-width:40.3572;stroke-linecap:butt;stroke-linejoin:bevel;stroke-miterlimit:4;stroke-dasharray:none;stroke-dashoffset:0;stroke-opacity:1;-inkscape-stroke:none;paint-order:fill markers stroke;stop-color:#ffffff"
     id="rect142-7"
     width="75.04711151"
     height="51.9838562"
     x="-351.0202637"
     y="372.9284363" />
  <rect
     style="font-variation-settings:normal;vector-effect:none;fill:#000000;fill-opacity:1;fill-rule:nonzero;stroke:none;stroke-width:40.3572;stroke-linecap:butt;stroke-linejoin:bevel;stroke-miterlimit:4;stroke-dasharray:none;stroke-dashoffset:0;stroke-opacity:1;-inkscape-stroke:none;paint-order:fill markers stroke;stop-color:#ffffff"
     id="rect143-2"
     width="75.04711151"
     height="55.5153923"
     x="-350.8595276"
     y="120.2610168" />
  <rect
     style="font-variation-settings:normal;vector-effect:none;fill:#000000;fill-opacity:1;fill-rule:nonzero;stroke:none;stroke-width:40.3572;stroke-linecap:butt;stroke-linejoin:bevel;stroke-miterlimit:4;stroke-dasharray:none;stroke-dashoffset:0;stroke-opacity:1;-inkscape-stroke:none;paint-order:fill markers stroke;stop-color:#ffffff"
     id="rect143-8-5"
     width="75.04711151"
     height="51.9838562"
     x="-567.2179565"
     y="483.6659851" />
  <rect
     style="font-variation-settings:normal;opacity:1;vector-effect:none;fill:#000000;fill-opacity:1;fill-rule:nonzero;stroke:none;stroke-width:3.53186;stroke-linecap:butt;stroke-linejoin:bevel;stroke-miterlimit:4;stroke-dasharray:none;stroke-dashoffset:0;stroke-opacity:1;-inkscape-stroke:none;paint-order:fill markers stroke;stop-color:#000000;stop-opacity:1"
     id="rect2"
     width="38.38757324"
     height="75.04710388"
     x="789.7081909"
     y="187.291275" />
  <rect
     style="font-variation-settings:normal;opacity:1;vector-effect:none;fill:#000000;fill-opacity:1;fill-rule:nonzero;stroke:none;stroke-width:8;stroke-linecap:butt;stroke-linejoin:bevel;stroke-miterlimit:4;stroke-dasharray:none;stroke-dashoffset:0;stroke-opacity:1;-inkscape-stroke:none;paint-order:fill markers stroke;stop-color:#000000;stop-opacity:1"
     id="rect3"
     width="98.47644043"
     height="75.04710388"
     x="833.6837158"
     y="187.291275" />
</svg>
