<?xml version="1.0" standalone="no"?>
<!DOCTYPE svg PUBLIC "-//W3C//DTD SVG 20010904//EN"
 "http://www.w3.org/TR/2001/REC-SVG-20010904/DTD/svg10.dtd">
<svg   version="1.0"
   xmlns:inkscape="http://www.inkscape.org/namespaces/inkscape"
   xmlns:sodipodi="http://sodipodi.sourceforge.net/DTD/sodipodi-0.dtd"
   xmlns="http://www.w3.org/2000/svg"
   xmlns:svg="http://www.w3.org/2000/svg"
   xmlns:rdf="http://www.w3.org/1999/02/22-rdf-syntax-ns#"
   xmlns:cc="http://creativecommons.org/ns#"
   xmlns:dc="http://purl.org/dc/elements/1.1/"

 width="1980.000000pt" height="1860.000000pt" viewBox="0 0 1980.000000 1860.000000"
 preserveAspectRatio="xMidYMid meet">
<metadata>
Created by potrace 1.16, written by Peter Selinger 2001-2019
</metadata>  <sodipodi:namedview
     pagecolor="#222"
     bordercolor="#666666"
     inkscape:deskcolor="#444" /><rect width="100%" height="100%" x="0" y="0" fill="black" />
<g transform="translate(0.000000,1860.000000) scale(1.000000,-1.000000)"
fill="#ffffff" stroke="none">
<path d="M165 1843 c-19 -2 -42 -8 -58 -17 -46 -23 -77 -64 -88 -115 -3 -13
-2 -46 1 -60 7 -33 22 -61 43 -82 30 -30 64 -46 105 -49 18 -1 46 1 61 5 2 1
5 2 6 2 2 0 19 -14 20 -15 0 -1 -9 -13 -20 -26 -22 -29 -27 -36 -26 -44 1 -5
1 -7 4 -10 2 -2 6 -5 9 -7 6 -3 58 -31 84 -46 16 -9 59 -32 67 -37 2 -1 3 -2
2 -3 -1 -4 -15 -28 -15 -28 -1 0 -10 5 -22 11 -27 13 -31 14 -33 12 -1 0 -7
-11 -13 -23 -9 -17 -12 -21 -13 -20 -1 0 -16 7 -34 15 -17 8 -33 15 -34 15 -3
0 -4 0 -7 -7 -11 -21 -34 -88 -44 -126 -3 -14 -9 -42 -8 -44 0 -1 2 -2 5 -3 5
-2 33 -8 57 -13 l16 -3 0 -7 c-1 -3 -1 -6 -1 -7 0 0 -9 1 -19 3 -37 6 -59 9
-61 9 0 -1 -2 -3 -3 -4 -1 -4 -5 -38 -7 -63 -1 -18 -1 -110 1 -117 0 -2 2 -5
3 -6 2 -2 10 -1 37 1 12 2 27 3 33 4 l10 0 0 -5 c0 -4 0 -5 -2 -5 -1 -1 -17
-3 -35 -5 -40 -5 -40 -5 -41 -7 -3 -5 0 -30 7 -75 5 -29 9 -48 17 -79 5 -22 6
-24 9 -24 3 0 6 0 40 13 19 6 35 12 35 12 1 0 6 -11 11 -23 8 -19 10 -23 12
-23 1 0 9 3 18 7 23 10 33 13 34 13 0 -1 7 -18 8 -21 1 -2 0 -3 -17 -11 -18
-8 -19 -9 -21 -13 -1 -2 -7 -16 -12 -30 -6 -15 -20 -49 -31 -76 -31 -75 -31
-76 -34 -88 -3 -10 -3 -13 -3 -21 1 -8 1 -10 4 -15 1 -3 4 -7 6 -8 2 -2 16 -9
30 -16 14 -7 26 -12 26 -13 0 0 -2 -3 -4 -8 -11 -19 -11 -20 -5 -24 4 -3 7 -2
9 3 1 2 3 4 3 4 0 0 12 -5 25 -12 14 -6 36 -16 49 -23 13 -6 25 -12 25 -12 1
0 0 -2 -1 -4 -1 -1 -2 -3 -2 -4 -1 -1 7 -6 9 -6 2 0 6 4 13 17 l7 11 24 -12
25 -12 17 -1 17 0 0 -8 0 -8 -11 0 c-9 0 -11 -1 -12 -2 -2 -3 -3 -23 -3 -32 2
-19 7 -38 15 -51 18 -33 44 -59 71 -72 11 -5 24 -9 30 -9 l5 0 4 9 c2 5 5 9 5
10 1 0 4 -1 7 -3 l6 -3 -3 -8 c-2 -5 -7 -16 -12 -25 -14 -31 -15 -34 -14 -36
1 -4 48 -26 81 -38 50 -18 117 -32 185 -41 52 -6 81 -8 147 -8 53 0 80 1 126
6 81 8 167 29 223 54 16 7 38 19 40 21 2 2 2 2 0 7 0 3 -5 16 -11 30 -5 14
-10 26 -10 26 0 2 16 10 17 9 0 0 2 -3 3 -7 4 -8 5 -9 8 -9 3 0 21 9 32 17 29
19 55 50 66 79 7 19 13 47 15 64 0 5 0 10 1 13 l0 4 -13 0 -12 0 0 10 1 9 36
13 c21 7 38 13 38 13 0 0 4 -7 7 -15 3 -9 7 -16 7 -16 1 0 12 3 13 3 0 1 -1 4
-3 7 -2 4 -3 8 -3 8 1 1 75 31 97 39 3 1 3 1 5 -5 1 -3 3 -7 4 -8 l2 -2 4 2
c3 1 5 3 5 4 1 0 -2 9 -6 18 -3 10 -6 18 -5 18 0 0 11 5 24 10 44 18 56 23 59
25 1 1 2 2 2 4 0 2 -5 15 -11 29 -12 28 -28 65 -52 125 -8 19 -18 42 -22 50
l-7 14 -9 4 c-15 9 -29 17 -29 18 -1 1 5 13 7 16 2 2 3 2 25 -7 13 -6 24 -10
24 -10 3 0 4 2 10 15 3 7 8 17 11 23 6 11 6 11 9 11 2 -1 17 -6 35 -12 17 -7
33 -12 34 -13 8 -1 11 6 21 48 9 32 15 66 19 105 4 30 4 30 -2 31 -3 1 -71 6
-76 6 -2 0 -2 0 -2 6 l0 6 17 -1 c32 -1 67 -2 67 -1 0 0 0 29 0 64 -1 50 -1
67 -2 79 -3 24 -5 36 -7 39 -2 3 -2 3 -7 3 -5 0 -29 -4 -55 -8 -14 -3 -19 -3
-19 -2 -1 0 -1 3 -2 6 0 5 0 6 2 6 1 1 17 4 35 8 18 3 35 7 37 8 5 2 6 4 4 13
-2 9 -11 45 -17 65 -8 27 -27 78 -36 96 -4 9 -4 9 -36 -7 -34 -16 -37 -17 -38
-17 -1 1 -12 21 -20 37 -2 4 -5 8 -6 9 -1 1 -8 -2 -27 -12 -15 -6 -27 -12 -27
-12 -1 0 -5 5 -11 18 -5 9 -6 12 -5 12 2 1 10 6 100 54 30 16 56 30 58 32 7 5
8 5 7 14 0 12 0 12 -26 47 -18 22 -19 24 -18 24 1 1 1 1 1 1 0 -1 4 2 9 6 l9
7 8 -2 c18 -5 33 -6 54 -6 16 0 21 0 30 2 47 10 88 40 111 82 5 9 12 28 16 40
2 10 2 11 2 38 l0 27 -3 11 c-8 31 -21 55 -42 76 -28 27 -61 43 -97 47 -15 2
-41 1 -54 -2 -44 -9 -82 -35 -105 -71 -11 -16 -19 -38 -24 -57 -2 -10 -2 -40
-1 -57 l1 -10 -8 -8 c-4 -4 -8 -8 -8 -8 -1 0 -13 11 -27 25 -32 32 -34 33 -47
27 -9 -4 -15 -9 -25 -22 -4 -6 -27 -35 -50 -64 l-42 -53 -4 3 c-2 2 -11 9 -21
16 l-17 14 2 3 c1 2 5 8 8 13 3 4 6 9 6 10 0 3 -4 6 -8 6 -3 0 -7 -4 -11 -10
-1 -2 -2 -3 -3 -3 0 0 -6 3 -12 7 -25 16 -58 31 -87 41 -1 0 0 1 1 3 3 4 3 8
0 9 -6 4 -8 2 -16 -13 -3 -5 -6 -10 -6 -10 0 -1 -7 2 -15 6 l-14 7 -2 -2 c-2
-1 -3 -4 -4 -6 -2 -5 -29 -70 -30 -71 0 -1 -16 5 -16 6 0 1 5 12 10 25 17 38
22 51 22 54 -1 3 -2 4 -23 12 l-16 6 0 4 c-1 2 -1 5 -1 6 0 2 -1 3 -2 4 -1 0
-10 1 -20 2 -10 1 -26 2 -35 3 -117 10 -125 10 -196 5 -86 -7 -104 -8 -108 -9
-4 0 -6 -3 -4 -8 1 -3 0 -4 0 -5 -1 0 -9 -3 -18 -6 -20 -6 -21 -7 -22 -11 0
-2 3 -12 10 -31 10 -26 17 -45 18 -51 1 -3 1 -3 -9 -7 l-5 -2 -8 23 c-4 13
-11 33 -14 45 -9 24 -8 23 -19 18 -11 -5 -29 -13 -30 -12 -1 0 -4 6 -8 13 -3
6 -7 13 -8 14 -3 3 -6 2 -10 -1 l-3 -3 2 -3 c1 -2 2 -4 2 -5 0 -1 -10 -6 -28
-15 -15 -8 -33 -17 -40 -21 -17 -10 -24 -14 -26 -14 0 0 -2 2 -4 5 l-3 5 -3
-2 c-4 -2 -7 -5 -7 -7 0 -1 3 -7 7 -13 l8 -12 -3 -2 c-2 -2 -8 -6 -12 -9 -5
-4 -13 -10 -18 -14 -5 -4 -10 -7 -10 -6 -3 4 -102 115 -110 123 -9 9 -14 11
-23 11 -6 -1 -7 -1 -12 -5 -3 -2 -14 -12 -25 -23 l-20 -19 -9 8 -8 9 1 13 c2
17 1 47 -1 57 -5 20 -16 44 -27 61 -8 11 -29 32 -40 40 -30 21 -71 31 -107 28z
m27 -14 c14 -1 27 -4 41 -9 20 -8 35 -18 51 -34 22 -22 34 -45 41 -77 3 -10 3
-14 3 -27 0 -8 -1 -20 -2 -27 0 -6 -1 -13 0 -14 0 -2 3 -6 6 -9 l6 -6 -16 -16
c-17 -17 -27 -27 -53 -58 -9 -10 -16 -19 -17 -19 0 0 -2 2 -5 4 -3 2 -6 4 -8
5 -1 0 -8 -1 -15 -3 -29 -7 -51 -8 -76 -2 -58 13 -103 58 -115 117 -3 13 -4
32 -2 43 7 52 37 95 83 117 18 9 34 14 51 15 12 1 12 1 27 0z m1631 -8 c34 -5
58 -18 82 -43 18 -17 28 -33 35 -56 6 -18 7 -25 7 -47 0 -23 -1 -31 -7 -48 -8
-24 -17 -39 -35 -57 -21 -21 -44 -34 -72 -40 -26 -6 -54 -5 -86 4 l-9 2 -7 -5
-7 -5 -8 12 c-17 23 -31 39 -58 67 l-18 18 6 6 7 6 -2 10 c-3 14 -3 42 -1 56
8 40 30 74 65 98 31 21 71 29 108 22z m-857 -174 l0 -31 -3 0 c-6 -2 -34 -6
-57 -10 -13 -1 -38 -5 -54 -8 -16 -2 -29 -4 -30 -4 0 0 -1 12 -2 25 -3 40 -4
48 -4 49 0 0 8 0 17 1 8 1 38 3 65 5 50 3 57 3 64 4 l4 0 0 -31z m116 26 c28
-2 57 -4 65 -5 8 0 15 -1 16 -1 0 -1 -5 -72 -6 -73 -1 -1 -6 0 -19 2 -15 3
-50 8 -110 17 l-14 2 0 32 0 31 8 -1 c5 0 31 -2 60 -4z m-85 3 l3 0 0 -35 0
-35 -10 0 -10 0 0 36 0 35 7 0 c4 0 8 0 10 -1z m560 -12 c4 -1 33 -29 48 -45
7 -8 13 -14 14 -15 1 0 3 1 5 2 2 1 3 2 4 2 2 0 35 -34 48 -48 19 -22 36 -45
33 -46 -2 0 -5 -4 -5 -5 0 -3 5 -10 24 -33 27 -34 29 -38 23 -43 -1 -2 -6 -5
-11 -8 -8 -3 -69 -36 -101 -53 -8 -4 -23 -12 -33 -17 -10 -6 -20 -11 -21 -12
-2 -3 -2 -3 -1 -6 1 -2 6 -13 13 -25 10 -19 12 -23 14 -23 2 0 12 5 28 13 14
6 26 12 26 11 1 0 6 -9 12 -20 5 -11 11 -22 12 -23 9 -13 26 -60 37 -105 5
-17 8 -35 8 -36 -1 0 -12 -3 -35 -7 -12 -2 -24 -5 -25 -5 -2 -1 -2 -2 -2 -5 0
-5 2 -24 4 -30 l0 -3 28 5 c15 2 30 4 32 5 6 1 6 1 8 -9 3 -20 4 -45 4 -88 l0
-45 -8 0 c-4 0 -17 1 -29 1 -17 2 -22 2 -24 1 -3 -1 -3 -2 -3 -14 -1 -7 -1
-15 -1 -18 l0 -5 16 0 c23 -1 44 -3 45 -4 1 -1 -1 -21 -3 -36 -5 -28 -13 -67
-19 -86 -2 -5 -5 -11 -8 -15 -2 -4 -9 -16 -14 -27 -5 -11 -9 -20 -10 -20 0 -1
-7 3 -49 21 -21 10 -42 19 -47 21 -4 1 -12 5 -17 8 -8 4 -9 5 -8 7 0 4 -1 6
-8 9 -24 11 -29 13 -30 13 -3 0 -5 -3 -10 -15 -2 -7 -5 -12 -5 -12 0 -1 -15 5
-33 12 -18 8 -32 14 -33 14 0 0 -9 4 -21 9 -11 5 -29 12 -40 17 -11 4 -21 8
-22 9 -1 1 -2 13 -2 99 -1 105 -1 104 -7 135 -10 54 -31 100 -66 144 -16 21
-57 59 -62 59 -1 0 -10 -8 -22 -19 -11 -11 -21 -20 -23 -21 -4 -1 -30 -8 -53
-13 -28 -5 -46 -10 -48 -12 -3 -2 -6 -8 -10 -20 -5 -11 -16 -29 -20 -33 -16
-15 -114 -16 -142 -2 -7 3 -11 10 -23 35 -4 10 -9 19 -11 20 -1 2 -4 3 -6 4
-2 0 -22 5 -44 10 -23 6 -44 11 -47 12 -5 1 -7 3 -25 20 -11 11 -21 20 -22 21
-3 1 -3 1 -16 -11 -27 -23 -37 -34 -54 -55 -17 -22 -31 -45 -45 -76 -8 -19
-16 -46 -19 -70 -3 -19 -4 -37 -4 -123 0 -48 0 -89 -1 -93 l0 -5 -9 -4 c-5 -3
-26 -12 -47 -22 -21 -9 -47 -22 -58 -27 -12 -5 -25 -11 -29 -13 -5 -2 -8 -4
-9 -4 0 1 -11 26 -13 30 -3 7 -5 8 -11 3 -4 -3 -12 -7 -22 -12 -9 -3 -10 -5
-9 -11 l1 -4 -15 -7 c-19 -9 -31 -15 -43 -19 -10 -3 -18 -7 -36 -15 -6 -2 -11
-4 -12 -4 -1 0 -3 5 -7 14 -8 20 -11 27 -15 31 -5 5 -6 8 -11 29 -10 39 -22
107 -20 107 2 0 27 3 42 5 8 1 16 3 18 3 l4 1 -1 15 c0 9 -1 17 -1 18 -1 2 -1
2 -10 2 -5 -1 -18 -2 -30 -3 -12 -2 -23 -3 -23 -2 -1 1 -2 32 -2 57 1 31 3 53
5 68 0 6 1 12 1 14 0 2 0 3 1 3 1 0 9 -1 19 -3 22 -4 36 -5 38 -3 1 1 3 12 4
25 1 9 0 10 -27 15 -9 2 -18 4 -21 4 l-4 1 1 4 c2 18 9 43 22 84 9 28 14 41
18 47 9 13 12 17 19 32 5 8 9 15 10 16 1 0 31 -15 46 -23 6 -4 8 -3 17 14 6
12 10 18 19 33 1 2 1 2 0 4 -1 1 -6 4 -12 7 -11 6 -69 38 -97 54 -11 6 -28 15
-39 21 -10 6 -20 11 -21 13 l-3 2 3 6 c1 3 5 8 8 12 3 4 12 14 19 24 23 28 23
29 18 34 l-3 3 3 4 c10 14 41 49 53 62 10 10 23 22 25 22 1 0 2 0 3 -1 1 -3 5
0 20 14 25 24 38 36 40 37 5 3 13 -3 32 -24 7 -9 25 -29 40 -45 29 -32 47 -53
55 -63 7 -9 9 -9 15 -2 7 6 28 23 40 31 16 11 16 11 11 18 l-4 5 3 2 c19 11
88 46 92 46 0 0 1 -3 2 -6 3 -8 4 -9 6 -9 2 0 8 2 15 5 6 3 14 7 17 8 l6 2 3
-7 c6 -14 25 -68 24 -68 0 -1 -3 -2 -6 -3 -3 -1 -6 -3 -7 -4 -1 -2 1 -12 6
-25 4 -12 7 -16 9 -16 1 0 10 3 20 6 10 4 24 9 32 12 14 4 17 6 17 9 0 1 -2 6
-4 11 -1 4 -4 12 -6 16 -1 5 -2 9 -3 10 -1 3 -5 3 -12 0 -3 -1 -5 -2 -6 -2 0
1 -4 13 -9 27 -6 15 -11 31 -13 36 -2 5 -4 10 -4 11 0 1 23 9 24 8 0 -1 2 -13
4 -40 1 -14 2 -22 3 -23 2 -3 4 -3 106 12 18 3 35 6 38 6 8 2 7 4 7 -21 0 -19
0 -23 2 -24 1 -1 6 -1 24 0 l23 1 0 22 0 22 3 0 c3 0 78 -11 119 -18 28 -5 29
-5 30 1 1 2 2 15 2 29 1 14 2 27 3 29 l0 3 13 -5 c7 -2 13 -4 13 -4 0 -1 -4
-10 -10 -22 -5 -12 -11 -25 -13 -30 -4 -11 -8 -18 -9 -18 0 0 -3 1 -5 2 -8 3
-9 3 -16 -16 -3 -8 -6 -17 -6 -18 0 -3 0 -4 6 -7 3 -1 14 -6 24 -9 10 -4 22
-9 27 -11 4 -1 9 -3 9 -3 1 0 3 1 3 3 17 36 17 39 8 42 -3 1 -5 2 -5 2 0 2 23
59 26 64 1 2 2 2 9 -2 4 -2 10 -5 14 -6 8 -4 10 -3 13 5 2 5 2 6 4 5 30 -11
39 -16 54 -23 15 -7 40 -21 42 -24 1 0 1 -2 0 -3 -1 -1 -2 -3 -2 -4 0 -2 6 -7
13 -11 10 -6 28 -20 37 -29 5 -5 10 -9 11 -9 2 0 -7 -10 64 79 41 53 50 64 55
67 4 2 4 2 7 1z m-557 -72 c1 0 1 -5 1 -11 l0 -10 -5 0 c-2 1 -7 1 -11 1 l-6
0 0 4 c0 3 0 8 1 11 l0 7 10 0 c5 -1 10 -1 10 -2z m162 -36 c5 -3 39 -15 41
-15 1 0 2 -1 2 -1 0 -3 -6 -16 -7 -16 -1 0 -44 16 -45 17 0 0 5 16 6 16 0 0 1
-1 3 -1z m-342 -8 c2 -4 3 -8 3 -9 0 -2 -6 -4 -29 -13 -20 -7 -18 -7 -21 4 -1
4 -2 8 -2 8 0 1 9 3 19 7 9 3 19 7 22 8 2 1 4 2 5 2 0 0 2 -3 3 -7z m-578
-256 c15 -6 27 -13 28 -13 1 -1 0 -5 -6 -19 -12 -31 -26 -75 -33 -107 -2 -11
-3 -13 -4 -13 -1 0 -14 3 -30 6 -15 3 -29 6 -30 7 -3 0 -3 0 -3 5 3 20 22 84
38 125 9 24 9 23 11 23 2 -1 15 -7 29 -14z m1523 7 c3 -4 24 -60 33 -90 4 -12
17 -60 17 -63 0 0 -3 -1 -7 -2 -3 -1 -18 -3 -31 -6 -13 -3 -26 -5 -27 -6 -3 0
-3 0 -4 6 -7 36 -22 85 -35 117 -3 9 -6 16 -6 17 0 0 2 2 5 3 2 1 15 7 29 13
13 7 24 12 24 12 0 0 1 -1 2 -1z m-988 -74 c4 -1 14 -4 24 -6 40 -10 67 -16
69 -16 1 0 4 -5 10 -18 15 -31 21 -39 32 -43 29 -9 73 -11 114 -5 20 3 31 7
38 15 4 4 16 26 22 41 2 6 4 8 6 9 1 1 18 4 36 9 58 12 56 12 63 16 3 2 13 11
22 20 l17 16 3 -2 c5 -4 26 -23 35 -33 12 -14 18 -20 26 -31 23 -34 37 -62 47
-97 12 -40 15 -70 15 -147 l0 -23 -10 0 -10 0 0 26 c0 30 -1 47 -3 48 -2 1 6
2 -72 -13 -36 -7 -80 -16 -98 -19 -34 -6 -36 -7 -38 -9 0 -1 -1 -20 -1 -43 0
-24 -1 -44 -2 -45 -1 -6 -8 -8 -40 -15 -27 -6 -37 -7 -67 -8 -36 -2 -72 -1
-94 2 -24 3 -66 12 -75 16 -8 3 -8 4 -9 50 0 22 0 41 -1 43 0 3 5 2 -40 11
-17 3 -45 9 -62 12 -17 4 -40 9 -50 11 -11 2 -28 5 -38 7 -14 3 -19 4 -20 3
-2 -1 -2 -2 -2 -38 l0 -37 -9 0 -9 0 0 51 c0 64 1 73 9 106 4 18 9 31 17 50
16 33 30 55 55 83 10 12 27 28 38 37 l7 6 19 -19 c19 -18 20 -19 26 -21z
m-509 -105 c10 -2 17 -4 17 -5 0 0 0 -4 0 -8 -1 -6 -2 -8 -3 -8 -1 0 -38 6
-39 6 0 0 1 4 1 9 2 11 -1 10 24 6z m1464 -4 c4 -17 5 -16 -5 -18 -8 -2 -41
-7 -43 -7 0 0 -1 3 -1 6 -1 4 -1 8 -2 9 0 2 0 3 7 4 3 0 14 3 24 4 10 2 18 4
19 4 0 0 1 -1 1 -2z m-1533 -14 c11 -2 20 -4 20 -4 1 0 0 -5 -1 -11 -3 -27 -4
-46 -5 -90 l0 -46 -8 0 c-4 -1 -18 -2 -31 -4 -13 -1 -24 -2 -25 -2 -1 2 -1 79
0 101 1 18 4 48 6 59 l0 4 12 -2 c7 -1 21 -4 32 -5z m1625 -11 c1 -8 3 -23 4
-35 1 -25 3 -111 1 -112 0 -1 -11 0 -24 1 -14 0 -29 1 -34 1 l-10 0 0 48 c0
26 0 50 0 52 -3 25 -5 45 -4 46 0 0 10 2 22 5 24 4 41 7 42 8 1 1 2 -3 3 -14z
m-1148 -103 c21 -4 56 -12 78 -16 22 -5 48 -10 57 -12 l16 -2 0 -13 0 -13 -96
0 -97 0 0 20 c-1 10 -1 25 -1 32 l0 12 3 0 c1 -1 19 -4 40 -8z m650 -26 l0
-32 -54 0 c-29 0 -73 0 -96 1 l-42 0 0 13 c0 10 0 12 2 12 1 1 9 2 19 4 16 3
90 18 146 29 12 3 23 5 24 5 1 0 1 -7 1 -32z m-1043 -17 c0 -3 0 -7 1 -9 l0
-5 -3 0 c-2 0 -12 -1 -23 -3 -11 -1 -20 -2 -20 -2 -1 0 -1 4 -1 9 l-1 8 8 1
c10 1 36 5 38 5 1 0 1 -1 1 -4z m1434 -7 c11 -1 21 -1 22 -2 2 0 2 -3 1 -11
l0 -5 -14 0 c-7 1 -18 1 -23 2 l-10 0 0 9 c0 7 0 9 1 9 1 -1 11 -1 23 -2z
m-891 -17 c1 -1 1 -4 1 -9 0 -11 2 -33 3 -38 1 -5 7 -12 12 -14 2 -1 7 -3 10
-4 6 -1 7 -2 8 -4 0 -3 -1 -55 -2 -61 -1 -6 -2 -7 -9 -10 -8 -2 -8 -3 -9 -25
0 -11 0 -36 1 -56 1 -40 1 -42 8 -50 8 -9 32 -17 66 -21 17 -2 23 -2 69 -2 43
0 53 0 65 1 36 5 61 14 67 25 3 6 3 21 3 72 0 49 0 50 -2 53 -1 1 -4 3 -6 4
-2 1 -5 3 -6 4 -2 2 -3 2 -3 35 0 27 0 33 1 33 1 1 5 2 10 3 11 4 15 7 18 14
2 5 2 8 3 27 l1 22 110 0 111 0 0 -45 0 -45 35 -14 c19 -8 50 -21 68 -28 18
-8 38 -16 43 -19 5 -2 10 -3 10 -4 0 0 -2 -4 -4 -9 -6 -14 -8 -21 -7 -24 0 -1
2 -2 2 -2 1 0 6 -2 11 -4 11 -5 21 -8 25 -8 4 0 18 -6 48 -19 24 -10 43 -18
48 -19 2 0 3 0 5 3 2 2 3 3 3 4 1 3 24 -11 26 -15 2 -3 16 -35 39 -90 8 -19
21 -50 29 -70 9 -21 16 -38 16 -38 0 -2 -17 -9 -53 -23 -28 -11 -32 -13 -32
-16 -1 -2 1 -9 3 -14 0 -1 -1 -2 -5 -3 -2 -1 -22 -9 -43 -17 -48 -19 -52 -20
-53 -19 -1 0 -1 1 -1 2 0 0 -1 2 -2 4 -2 5 -2 5 -58 -14 l-29 -10 0 5 1 6 -3
1 c-5 0 -41 0 -42 -1 0 -1 -1 -18 -1 -38 l0 -37 19 1 c11 0 21 0 23 1 l3 0 0
8 0 8 6 0 7 0 -2 -9 c-3 -22 -11 -51 -17 -64 -13 -28 -42 -57 -72 -72 l-6 -3
-1 3 c-1 1 -2 4 -3 7 -1 2 -2 5 -3 6 l-3 2 -6 -2 c-3 -2 -10 -5 -15 -7 -4 -3
-8 -5 -9 -5 0 0 -3 7 -6 15 -4 9 -13 28 -20 43 -14 31 -22 48 -22 50 0 2 -4 5
-7 5 -1 0 -5 -1 -8 -3 -13 -6 -39 -16 -69 -25 -74 -22 -146 -32 -237 -32 -71
0 -129 7 -194 23 -32 8 -82 25 -112 39 -9 4 -12 3 -13 -1 -1 -4 -16 -40 -35
-82 -3 -8 -7 -16 -8 -18 -1 -2 -2 -4 -2 -4 -1 0 -8 3 -21 10 -6 3 -6 3 -8 1
-1 -1 -4 -5 -7 -10 -2 -5 -4 -9 -5 -10 -1 -1 -2 -1 -9 2 -19 8 -32 17 -48 32
-26 27 -39 53 -41 84 0 5 0 12 0 14 l-1 5 7 0 6 0 0 -8 0 -7 22 -1 23 0 0 9
c0 5 0 22 1 37 l0 28 -22 0 c-26 0 -24 1 -24 -9 l0 -6 -3 0 c-8 0 -26 2 -30 3
-3 2 -16 8 -48 24 -7 4 -8 4 -14 -6 -2 -3 -4 -6 -5 -6 -4 1 -100 47 -100 48 0
0 1 2 2 3 3 3 6 8 5 10 0 1 -10 6 -24 13 -28 13 -42 21 -45 25 -1 2 -2 4 -2 8
0 12 5 27 24 73 22 55 36 88 44 109 5 13 9 24 10 25 1 1 5 4 10 6 8 4 8 4 10
2 3 -5 4 -5 8 -5 5 1 47 18 66 26 4 3 11 5 15 7 8 3 36 16 38 17 2 2 1 6 -4
16 -2 6 -4 11 -4 11 0 1 5 3 11 6 26 12 86 39 96 44 6 3 18 9 28 13 10 4 18 9
19 10 1 1 2 7 2 42 0 23 1 42 1 42 0 1 217 0 220 0z m-610 -11 c1 -2 1 -7 2
-11 5 -36 16 -90 24 -116 l3 -8 -4 -2 c-3 -1 -14 -5 -26 -9 -12 -4 -24 -9 -27
-10 -3 -1 -6 -2 -6 -1 -1 1 -12 50 -16 72 -6 30 -13 79 -12 80 1 1 30 4 48 6
7 1 13 2 13 2 1 0 1 -1 1 -3z m1580 -5 c17 -1 31 -2 31 -2 1 0 -1 -10 -2 -22
-5 -38 -11 -69 -20 -104 -6 -25 -8 -32 -9 -32 -1 0 -3 1 -6 2 -2 1 -15 6 -28
10 -30 11 -30 11 -30 12 0 1 4 16 8 33 10 42 14 63 18 98 l0 7 4 0 c2 0 17 -1
34 -2z m-913 -55 c34 -7 58 -9 102 -9 44 0 67 2 98 9 6 1 8 1 8 1 0 -1 1 -15
1 -31 0 -16 1 -31 2 -33 1 -5 5 -9 11 -12 l4 -3 0 -56 0 -57 -2 -3 c-7 -8 -34
-15 -71 -18 -21 -2 -89 -2 -111 0 -40 4 -67 13 -72 22 -1 3 -2 8 -2 34 -1 17
-1 41 -1 54 l0 23 5 3 c7 4 12 8 12 12 1 1 1 15 2 31 0 25 0 35 1 35 0 0 6 -1
13 -2z m-451 -83 c5 -12 10 -21 10 -22 0 0 -4 -2 -9 -4 l-8 -4 -2 3 c-1 2 -5
12 -10 22 -5 10 -9 19 -9 20 0 0 3 3 8 5 6 3 8 4 9 3 0 -1 5 -11 11 -23z
m1112 17 c9 -5 10 -3 -1 -28 -5 -12 -10 -22 -10 -22 0 -1 -4 1 -9 3 l-8 3 2 5
c1 3 5 13 10 23 8 20 8 20 16 16z m-1147 -20 c2 -3 3 -6 3 -7 0 -1 -1 -2 -27
-15 -29 -14 -26 -13 -29 -5 -2 4 -3 7 -3 8 0 0 9 4 20 9 11 5 22 11 26 12 3 2
6 4 6 4 1 0 2 -3 4 -6z m1176 1 c6 -3 16 -8 22 -10 14 -6 39 -18 40 -19 1 0
-4 -12 -5 -14 -1 0 -6 2 -12 5 -6 3 -19 8 -28 12 -10 4 -21 9 -26 11 -8 4 -8
4 -7 7 1 1 2 5 3 8 1 3 2 5 2 5 1 0 5 -2 11 -5z m-1164 -27 c5 -9 5 -8 -6 -13
-4 -2 -17 -7 -29 -13 -19 -8 -25 -11 -21 -8 3 1 2 5 0 12 -1 3 -2 5 -2 6 0 0
7 3 15 6 8 4 20 9 26 12 6 3 12 6 13 6 0 0 2 -4 4 -8z m1155 1 c6 -3 20 -8 30
-12 15 -7 28 -13 30 -15 0 0 0 -1 -1 -2 -1 -1 -2 -3 -2 -4 -1 -3 2 -8 8 -10 6
-3 5 -6 -1 -3 -17 7 -22 9 -41 17 -12 5 -26 11 -31 14 -6 2 -10 4 -10 5 0 2 5
15 6 15 1 0 6 -2 12 -5z m-1217 -39 c-1 0 -1 0 -2 0 0 1 0 1 1 1 1 0 1 0 1 -1z
m-4 -1 c-1 -1 -2 -1 -2 -1 -1 0 -1 0 0 1 1 1 2 1 3 1 0 0 0 0 -1 -1z m1124
-346 c-1 -5 -1 -15 -1 -23 l0 -15 -8 0 -9 0 0 23 0 23 9 0 9 0 0 -8z m-939
-20 l0 -24 -9 0 -9 0 0 24 0 24 9 0 9 0 0 -24z m168 -62 c39 -16 85 -30 125
-38 132 -28 288 -21 411 18 18 6 47 16 58 21 5 2 9 4 9 4 1 0 3 -5 5 -11 3 -7
10 -22 17 -36 13 -28 13 -24 -2 -31 -19 -9 -69 -25 -106 -35 -51 -12 -89 -19
-146 -23 -11 -1 -35 -1 -70 -1 -68 0 -84 1 -138 9 -34 4 -73 13 -122 27 -24 7
-35 11 -71 25 -13 5 -20 9 -20 10 0 0 2 6 5 12 3 6 9 20 13 30 11 28 11 27 13
27 1 -1 9 -4 19 -8z m-26 -83 c13 -6 31 -12 39 -15 19 -6 76 -22 98 -27 38 -8
87 -14 128 -17 25 -2 99 -2 125 0 48 3 100 11 149 23 35 9 91 27 113 37 7 3
14 6 14 6 1 0 9 -19 9 -20 -1 -2 -36 -15 -64 -25 -67 -22 -125 -34 -199 -40
-49 -5 -119 -5 -166 0 -83 7 -153 23 -230 51 -30 10 -51 18 -52 19 -1 1 0 5 3
10 4 7 4 8 6 8 1 -1 13 -5 27 -10z m-6 -30 c45 -17 76 -27 119 -37 52 -13 110
-22 161 -24 28 -1 108 -1 128 1 29 3 73 9 100 14 48 9 118 29 158 46 4 1 10 4
13 5 l5 2 3 -6 c3 -8 20 -49 20 -52 1 -3 0 -3 -19 -12 -51 -23 -114 -42 -181
-52 -33 -5 -38 -6 -67 -8 -47 -4 -65 -4 -111 -4 -50 0 -75 1 -124 6 -64 7
-135 21 -190 39 -29 10 -78 31 -78 35 0 3 18 43 24 54 3 5 4 5 6 5 1 -1 16 -6
33 -12z M452 1320 c-2 -1 -10 -16 -20 -33 -15 -29 -16 -31 -14 -33 4 -3 37
-19 38 -19 1 1 14 23 28 50 2 2 4 7 5 9 5 8 4 8 -12 17 -7 4 -15 9 -17 10 -4
3 -5 3 -8 -1z m21 -23 c1 -1 -1 -6 -11 -23 l-11 -21 -8 4 c-4 2 -8 4 -8 5 0 0
5 10 19 36 l4 7 7 -4 c3 -2 7 -4 8 -4z M1504 1309 c0 -1 -7 -5 -15 -9 -17 -10
-19 -12 -15 -19 6 -11 28 -53 30 -55 3 -4 6 -4 10 -1 2 2 9 6 15 9 7 3 13 7
14 9 1 2 1 3 -5 14 -8 16 -25 48 -27 51 -2 2 -5 3 -7 1z m12 -39 c6 -11 11
-21 11 -21 -1 -2 -15 -9 -16 -8 -1 1 -17 31 -20 37 l-3 6 8 4 c6 4 8 5 9 3 0
0 6 -10 11 -21z M718 242 c-1 -1 -2 -4 -3 -7 -1 -3 -4 -9 -6 -14 -4 -10 -4
-12 5 -16 7 -4 35 -14 55 -20 31 -11 92 -22 142 -26 37 -4 101 -4 142 -1 68 5
140 20 195 39 19 6 21 7 21 11 0 2 -3 9 -6 16 -5 11 -6 13 -8 13 -2 0 -10 -2
-19 -5 -43 -15 -95 -26 -149 -32 -34 -4 -45 -4 -107 -4 -55 1 -62 1 -78 3 -46
5 -72 10 -103 18 -21 6 -59 18 -70 23 -8 3 -9 4 -11 2z m15 -15 c5 -2 17 -6
27 -9 54 -17 91 -24 150 -31 14 -1 25 -1 79 -1 62 0 63 0 87 2 62 7 112 17
156 32 10 3 19 6 19 6 1 0 7 -13 7 -14 0 -2 -15 -7 -36 -13 -58 -18 -127 -29
-198 -32 -31 -2 -98 0 -123 3 -37 4 -83 12 -106 18 -24 6 -76 24 -77 27 0 1 5
15 6 15 0 0 4 -2 9 -3z"/>
</g>
</svg>
