<?xml version="1.0" encoding="UTF-8" standalone="no"?>
<svg
   width="75"
   height="55.5"
   version="1.0"
   viewBox="0 0 75 55.5"
   xml:space="preserve"
   id="svg696"
   sodipodi:docname="iss.svg"
   inkscape:version="1.3.1 (91b66b0783, 2023-11-16)"
   xmlns:inkscape="http://www.inkscape.org/namespaces/inkscape"
   xmlns:sodipodi="http://sodipodi.sourceforge.net/DTD/sodipodi-0.dtd"
   xmlns="http://www.w3.org/2000/svg"
   xmlns:svg="http://www.w3.org/2000/svg"
   xmlns:rdf="http://www.w3.org/1999/02/22-rdf-syntax-ns#"
   xmlns:cc="http://creativecommons.org/ns#"
   xmlns:dc="http://purl.org/dc/elements/1.1/"><defs
   id="defs696" />
	<sodipodi:namedview
   pagecolor="#222"
   bordercolor="#666666"
   inkscape:deskcolor="#444"
   id="namedview1"
   borderopacity="1.0"
   inkscape:showpageshadow="2"
   inkscape:pageopacity="0.0"
   inkscape:pagecheckerboard="0"
   inkscape:zoom="19.13333333"
   inkscape:cx="35.30487805"
   inkscape:cy="33.60627178"
   inkscape:window-width="2418"
   inkscape:window-height="1417"
   inkscape:window-x="1672"
   inkscape:window-y="4"
   inkscape:window-maximized="1"
   inkscape:current-layer="svg696" />
	<rect
   width="100%"
   height="100%"
   x="0"
   y="0"
   fill="black"
   id="rect1" /><path
   d="m71.4399 24.4146h3.0064v-23.996h-3.0064z"
   fill="none"
   id="path611" /><path
   d="m66.6169 24.4146h3.0065v-23.996h-3.0065z"
   fill="none"
   id="path612" /><path
   d="m60.9399 24.4146h3.0064v-23.996h-3.0064z"
   fill="none"
   id="path613" /><path
   d="m56.1169 24.4146h3.0065v-23.996h-3.0065z"
   fill="none"
   id="path614" /><path
   d="m56.1169 30.9406h3.0065v23.996h-3.0065z"
   fill="none"
   id="path615" /><path
   d="m60.9399 30.9406h3.0064v23.996h-3.0064z"
   fill="none"
   id="path616" /><path
   d="m66.6169 30.9406h3.0065v23.996h-3.0065z"
   fill="none"
   id="path617" /><path
   d="m71.4399 30.9406h3.0064v23.996h-3.0064z"
   fill="none"
   id="path618" /><path
   d="m3.49137 30.9406h-3.0064v23.996h3.0064z"
   fill="none"
   id="path619" /><path
   d="m8.31457 30.9406h-3.0065v23.996h3.0065z"
   fill="none"
   id="path620" /><path
   d="m13.9919 30.9406h-3.0064v23.996h3.0064z"
   fill="none"
   id="path621" /><path
   d="m18.8149 30.9406h-3.0065v23.996h3.0065z"
   fill="none"
   id="path622" /><path
   d="m18.8149 24.4146h-3.0065v-23.996h3.0065z"
   fill="none"
   id="path623" /><path
   d="m13.9919 24.4146h-3.0064v-23.996h3.0064z"
   fill="none"
   id="path624" /><path
   d="m3.49137 24.4146h-3.0064v-23.996h3.0064z"
   fill="none"
   id="path625" /><path
   d="m8.31457 24.4146h-3.0065v-23.996h3.0065z"
   fill="none"
   id="path626" />
	<style
   id="style1">

	path {
		fill: #111111; stroke-width: 0.3; stroke: #ffffff;
	}
	.solargrid path {
		stroke: #cccccc;
		stroke-width: 0.1;
	}
	</style>
	<g
   class="solargrid"
   fill="#000000"
   id="g608">
		<path
   d="m72.0409 0.418675v23.996"
   id="path1" />
		<path
   d="m72.6429 24.4146v-23.996"
   id="path2" />
		<path
   d="m73.2439 0.418675v23.996"
   id="path3" />
		<path
   d="m73.8449 24.4146v-23.996"
   id="path4" />
		<path
   d="m71.4399 1.91837h3.0061"
   id="path5" />
		<path
   d="m74.4459 3.41817h-3.0061"
   id="path6" />
		<path
   d="m71.4399 4.91798h3.0061"
   id="path7" />
		<path
   d="m74.4459 6.41758h-3.0061"
   id="path8" />
		<path
   d="m71.4399 7.91758h3.0061"
   id="path9" />
		<path
   d="m74.4459 9.41758h-3.0061"
   id="path10" />
		<path
   d="m71.4399 10.9166h3.0061"
   id="path11" />
		<path
   d="m74.4459 12.4166h-3.0061"
   id="path12" />
		<path
   d="m71.4399 13.9166h3.0061"
   id="path13" />
		<path
   d="m74.4459 15.4166h-3.0061"
   id="path14" />
		<path
   d="m71.4399 16.9166h3.0061"
   id="path15" />
		<path
   d="m74.4459 18.4156h-3.0061"
   id="path16" />
		<path
   d="m71.4399 19.9156h3.0061"
   id="path17" />
		<path
   d="m74.4459 21.4156h-3.0061"
   id="path18" />
		<path
   d="m71.4399 22.9156h3.0061"
   id="path19" />
		<path
   d="m67.2179 0.418675v23.996"
   id="path20" />
		<path
   d="m67.8189 24.4146v-23.996"
   id="path21" />
		<path
   d="m68.4209 0.418675v23.996"
   id="path22" />
		<path
   d="m69.0219 24.4146v-23.996"
   id="path23" />
		<path
   d="m66.6169 1.91837h3.0062"
   id="path24" />
		<path
   d="m69.6229 3.41817h-3.0062"
   id="path25" />
		<path
   d="m66.6169 4.91798h3.0062"
   id="path26" />
		<path
   d="m69.6229 6.41758h-3.0062"
   id="path27" />
		<path
   d="m66.6169 7.91758h3.0062"
   id="path28" />
		<path
   d="m69.6229 9.41758h-3.0062"
   id="path29" />
		<path
   d="m66.6169 10.9166h3.0062"
   id="path30" />
		<path
   d="m69.6229 12.4166h-3.0062"
   id="path31" />
		<path
   d="m66.6169 13.9166h3.0062"
   id="path32" />
		<path
   d="m69.6229 15.4166h-3.0062"
   id="path33" />
		<path
   d="m66.6169 16.9166h3.0062"
   id="path34" />
		<path
   d="m69.6229 18.4156h-3.0062"
   id="path35" />
		<path
   d="m66.6169 19.9156h3.0062"
   id="path36" />
		<path
   d="m69.6229 21.4156h-3.0062"
   id="path37" />
		<path
   d="m66.6169 22.9156h3.0062"
   id="path38" />
		<path
   d="m72.0409 24.4146v-23.996"
   id="path39" />
		<path
   d="m72.6429 0.418675v23.996"
   id="path40" />
		<path
   d="m73.2439 24.4146v-23.996"
   id="path41" />
		<path
   d="m73.8449 0.418675v23.996"
   id="path42" />
		<path
   d="m71.4399 22.9156h3.0061"
   id="path43" />
		<path
   d="m74.4459 21.4156h-3.0061"
   id="path44" />
		<path
   d="m71.4399 19.9156h3.0061"
   id="path45" />
		<path
   d="m74.4459 18.4156h-3.0061"
   id="path46" />
		<path
   d="m71.4399 16.9156h3.0061"
   id="path47" />
		<path
   d="m74.4459 15.4166h-3.0061"
   id="path48" />
		<path
   d="m71.4399 13.9166h3.0061"
   id="path49" />
		<path
   d="m74.4459 12.4166h-3.0061"
   id="path50" />
		<path
   d="m71.4399 10.9166h3.0061"
   id="path51" />
		<path
   d="m74.4459 9.41758h-3.0061"
   id="path52" />
		<path
   d="m71.4399 7.91758h3.0061"
   id="path53" />
		<path
   d="m74.4459 6.41758h-3.0061"
   id="path54" />
		<path
   d="m71.4399 4.91787h3.0061"
   id="path55" />
		<path
   d="m74.4459 3.41807h-3.0061"
   id="path56" />
		<path
   d="m71.4399 1.91827h3.0061"
   id="path57" />
		<path
   d="m67.2179 24.4146v-23.996"
   id="path58" />
		<path
   d="m67.8189 0.418675v23.996"
   id="path59" />
		<path
   d="m68.4209 24.4146v-23.996"
   id="path60" />
		<path
   d="m69.0219 0.418675v23.996"
   id="path61" />
		<path
   d="m66.6169 22.9156h3.0062"
   id="path62" />
		<path
   d="m69.6229 21.4156h-3.0062"
   id="path63" />
		<path
   d="m66.6169 19.9156h3.0062"
   id="path64" />
		<path
   d="m69.6229 18.4156h-3.0062"
   id="path65" />
		<path
   d="m66.6169 16.9156h3.0062"
   id="path66" />
		<path
   d="m69.6229 15.4166h-3.0062"
   id="path67" />
		<path
   d="m66.6169 13.9166h3.0062"
   id="path68" />
		<path
   d="m69.6229 12.4166h-3.0062"
   id="path69" />
		<path
   d="m66.6169 10.9166h3.0062"
   id="path70" />
		<path
   d="m69.6229 9.41758h-3.0062"
   id="path71" />
		<path
   d="m66.6169 7.91758h3.0062"
   id="path72" />
		<path
   d="m69.6229 6.41758h-3.0062"
   id="path73" />
		<path
   d="m66.6169 4.91787h3.0062"
   id="path74" />
		<path
   d="m69.6229 3.41807h-3.0062"
   id="path75" />
		<path
   d="m66.6169 1.91827h3.0062"
   id="path76" />
		<path
   d="m61.5409 0.418675v23.996"
   id="path77" />
		<path
   d="m62.1429 24.4146v-23.996"
   id="path78" />
		<path
   d="m62.7439 0.418675v23.996"
   id="path79" />
		<path
   d="m63.3449 24.4146v-23.996"
   id="path80" />
		<path
   d="m60.9399 1.91837h3.0061"
   id="path81" />
		<path
   d="m63.9459 3.41817h-3.0061"
   id="path82" />
		<path
   d="m60.9399 4.91798h3.0061"
   id="path83" />
		<path
   d="m63.9459 6.41758h-3.0061"
   id="path84" />
		<path
   d="m60.9399 7.91758h3.0061"
   id="path85" />
		<path
   d="m63.9459 9.41758h-3.0061"
   id="path86" />
		<path
   d="m60.9399 10.9166h3.0061"
   id="path87" />
		<path
   d="m63.9459 12.4166h-3.0061"
   id="path88" />
		<path
   d="m60.9399 13.9166h3.0061"
   id="path89" />
		<path
   d="m63.9459 15.4166h-3.0061"
   id="path90" />
		<path
   d="m60.9399 16.9166h3.0061"
   id="path91" />
		<path
   d="m63.9459 18.4156h-3.0061"
   id="path92" />
		<path
   d="m60.9399 19.9156h3.0061"
   id="path93" />
		<path
   d="m63.9459 21.4156h-3.0061"
   id="path94" />
		<path
   d="m60.9399 22.9156h3.0061"
   id="path95" />
		<path
   d="m56.7179 0.418675v23.996"
   id="path96" />
		<path
   d="m57.3189 24.4146v-23.996"
   id="path97" />
		<path
   d="m57.9209 0.418675v23.996"
   id="path98" />
		<path
   d="m58.5219 24.4146v-23.996"
   id="path99" />
		<path
   d="m56.1169 1.91837h3.0062"
   id="path100" />
		<path
   d="m59.1229 3.41817h-3.0062"
   id="path101" />
		<path
   d="m56.1169 4.91798h3.0062"
   id="path102" />
		<path
   d="m59.1229 6.41758h-3.0062"
   id="path103" />
		<path
   d="m56.1169 7.91758h3.0062"
   id="path104" />
		<path
   d="m59.1229 9.41758h-3.0062"
   id="path105" />
		<path
   d="m56.1169 10.9166h3.0062"
   id="path106" />
		<path
   d="m59.1229 12.4166h-3.0062"
   id="path107" />
		<path
   d="m56.1169 13.9166h3.0062"
   id="path108" />
		<path
   d="m59.1229 15.4166h-3.0062"
   id="path109" />
		<path
   d="m56.1169 16.9166h3.0062"
   id="path110" />
		<path
   d="m59.1229 18.4156h-3.0062"
   id="path111" />
		<path
   d="m56.1169 19.9156h3.0062"
   id="path112" />
		<path
   d="m59.1229 21.4156h-3.0062"
   id="path113" />
		<path
   d="m56.1169 22.9156h3.0062"
   id="path114" />
		<path
   d="m61.5409 24.4146v-23.996"
   id="path115" />
		<path
   d="m62.1429 0.418675v23.996"
   id="path116" />
		<path
   d="m62.7439 24.4146v-23.996"
   id="path117" />
		<path
   d="m63.3449 0.418675v23.996"
   id="path118" />
		<path
   d="m60.9399 22.9156h3.0061"
   id="path119" />
		<path
   d="m63.9459 21.4156h-3.0061"
   id="path120" />
		<path
   d="m60.9399 19.9156h3.0061"
   id="path121" />
		<path
   d="m63.9459 18.4156h-3.0061"
   id="path122" />
		<path
   d="m60.9399 16.9156h3.0061"
   id="path123" />
		<path
   d="m63.9459 15.4166h-3.0061"
   id="path124" />
		<path
   d="m60.9399 13.9166h3.0061"
   id="path125" />
		<path
   d="m63.9459 12.4166h-3.0061"
   id="path126" />
		<path
   d="m60.9399 10.9166h3.0061"
   id="path127" />
		<path
   d="m63.9459 9.41758h-3.0061"
   id="path128" />
		<path
   d="m60.9399 7.91758h3.0061"
   id="path129" />
		<path
   d="m63.9459 6.41758h-3.0061"
   id="path130" />
		<path
   d="m60.9399 4.91787h3.0061"
   id="path131" />
		<path
   d="m63.9459 3.41807h-3.0061"
   id="path132" />
		<path
   d="m60.9399 1.91827h3.0061"
   id="path133" />
		<path
   d="m56.7179 24.4146v-23.996"
   id="path134" />
		<path
   d="m57.3189 0.418675v23.996"
   id="path135" />
		<path
   d="m57.9209 24.4146v-23.996"
   id="path136" />
		<path
   d="m58.5219 0.418675v23.996"
   id="path137" />
		<path
   d="m56.1169 22.9156h3.0062"
   id="path138" />
		<path
   d="m59.1229 21.4156h-3.0062"
   id="path139" />
		<path
   d="m56.1169 19.9156h3.0062"
   id="path140" />
		<path
   d="m59.1229 18.4156h-3.0062"
   id="path141" />
		<path
   d="m56.1169 16.9156h3.0062"
   id="path142" />
		<path
   d="m59.1229 15.4166h-3.0062"
   id="path143" />
		<path
   d="m56.1169 13.9166h3.0062"
   id="path144" />
		<path
   d="m59.1229 12.4166h-3.0062"
   id="path145" />
		<path
   d="m56.1169 10.9166h3.0062"
   id="path146" />
		<path
   d="m59.1229 9.41758h-3.0062"
   id="path147" />
		<path
   d="m56.1169 7.91758h3.0062"
   id="path148" />
		<path
   d="m59.1229 6.41758h-3.0062"
   id="path149" />
		<path
   d="m56.1169 4.91787h3.0062"
   id="path150" />
		<path
   d="m59.1229 3.41807h-3.0062"
   id="path151" />
		<path
   d="m56.1169 1.91827h3.0062"
   id="path152" />
		<path
   d="m72.0409 54.9366v-23.996"
   id="path153" />
		<path
   d="m72.6429 30.9406v23.996"
   id="path154" />
		<path
   d="m73.2439 54.9366v-23.996"
   id="path155" />
		<path
   d="m73.8449 30.9406v23.996"
   id="path156" />
		<path
   d="m71.4399 53.4366h3.0061"
   id="path157" />
		<path
   d="m74.4459 51.9376h-3.0061"
   id="path158" />
		<path
   d="m71.4399 50.4376h3.0061"
   id="path159" />
		<path
   d="m74.4459 48.9376h-3.0061"
   id="path160" />
		<path
   d="m71.4399 47.4376h3.0061"
   id="path161" />
		<path
   d="m74.4459 45.9386h-3.0061"
   id="path162" />
		<path
   d="m71.4399 44.4386h3.0061"
   id="path163" />
		<path
   d="m74.4459 42.9386h-3.0061"
   id="path164" />
		<path
   d="m71.4399 41.4386h3.0061"
   id="path165" />
		<path
   d="m74.4459 39.9386h-3.0061"
   id="path166" />
		<path
   d="m71.4399 38.4396h3.0061"
   id="path167" />
		<path
   d="m74.4459 36.9396h-3.0061"
   id="path168" />
		<path
   d="m71.4399 35.4396h3.0061"
   id="path169" />
		<path
   d="m74.4459 33.9396h-3.0061"
   id="path170" />
		<path
   d="m71.4399 32.4406h3.0061"
   id="path171" />
		<path
   d="m67.2179 54.9366v-23.996"
   id="path172" />
		<path
   d="m67.8189 30.9406v23.996"
   id="path173" />
		<path
   d="m68.4209 54.9366v-23.996"
   id="path174" />
		<path
   d="m69.0219 30.9406v23.996"
   id="path175" />
		<path
   d="m66.6169 53.4366h3.0062"
   id="path176" />
		<path
   d="m69.6229 51.9376h-3.0062"
   id="path177" />
		<path
   d="m66.6169 50.4376h3.0062"
   id="path178" />
		<path
   d="m69.6229 48.9376h-3.0062"
   id="path179" />
		<path
   d="m66.6169 47.4376h3.0062"
   id="path180" />
		<path
   d="m69.6229 45.9386h-3.0062"
   id="path181" />
		<path
   d="m66.6169 44.4386h3.0062"
   id="path182" />
		<path
   d="m69.6229 42.9386h-3.0062"
   id="path183" />
		<path
   d="m66.6169 41.4386h3.0062"
   id="path184" />
		<path
   d="m69.6229 39.9386h-3.0062"
   id="path185" />
		<path
   d="m66.6169 38.4396h3.0062"
   id="path186" />
		<path
   d="m69.6229 36.9396h-3.0062"
   id="path187" />
		<path
   d="m66.6169 35.4396h3.0062"
   id="path188" />
		<path
   d="m69.6229 33.9396h-3.0062"
   id="path189" />
		<path
   d="m66.6169 32.4406h3.0062"
   id="path190" />
		<path
   d="m72.0409 30.9406v23.996"
   id="path191" />
		<path
   d="m72.6429 54.9366v-23.996"
   id="path192" />
		<path
   d="m73.2439 30.9406v23.996"
   id="path193" />
		<path
   d="m73.8449 54.9366v-23.996"
   id="path194" />
		<path
   d="m71.4399 32.4406h3.0061"
   id="path195" />
		<path
   d="m74.4459 33.9396h-3.0061"
   id="path196" />
		<path
   d="m71.4399 35.4396h3.0061"
   id="path197" />
		<path
   d="m74.4459 36.9396h-3.0061"
   id="path198" />
		<path
   d="m71.4399 38.4396h3.0061"
   id="path199" />
		<path
   d="m74.4459 39.9386h-3.0061"
   id="path200" />
		<path
   d="m71.4399 41.4386h3.0061"
   id="path201" />
		<path
   d="m74.4459 42.9386h-3.0061"
   id="path202" />
		<path
   d="m71.4399 44.4386h3.0061"
   id="path203" />
		<path
   d="m74.4459 45.9386h-3.0061"
   id="path204" />
		<path
   d="m71.4399 47.4376h3.0061"
   id="path205" />
		<path
   d="m74.4459 48.9376h-3.0061"
   id="path206" />
		<path
   d="m71.4399 50.4376h3.0061"
   id="path207" />
		<path
   d="m74.4459 51.9376h-3.0061"
   id="path208" />
		<path
   d="m71.4399 53.4366h3.0061"
   id="path209" />
		<path
   d="m67.2179 30.9406v23.996"
   id="path210" />
		<path
   d="m67.8189 54.9366v-23.996"
   id="path211" />
		<path
   d="m68.4209 30.9406v23.996"
   id="path212" />
		<path
   d="m69.0219 54.9366v-23.996"
   id="path213" />
		<path
   d="m66.6169 32.4406h3.0062"
   id="path214" />
		<path
   d="m69.6229 33.9396h-3.0062"
   id="path215" />
		<path
   d="m66.6169 35.4396h3.0062"
   id="path216" />
		<path
   d="m69.6229 36.9396h-3.0062"
   id="path217" />
		<path
   d="m66.6169 38.4396h3.0062"
   id="path218" />
		<path
   d="m69.6229 39.9386h-3.0062"
   id="path219" />
		<path
   d="m66.6169 41.4386h3.0062"
   id="path220" />
		<path
   d="m69.6229 42.9386h-3.0062"
   id="path221" />
		<path
   d="m66.6169 44.4386h3.0062"
   id="path222" />
		<path
   d="m69.6229 45.9386h-3.0062"
   id="path223" />
		<path
   d="m66.6169 47.4376h3.0062"
   id="path224" />
		<path
   d="m69.6229 48.9376h-3.0062"
   id="path225" />
		<path
   d="m66.6169 50.4376h3.0062"
   id="path226" />
		<path
   d="m69.6229 51.9376h-3.0062"
   id="path227" />
		<path
   d="m66.6169 53.4366h3.0062"
   id="path228" />
		<path
   d="m61.5409 54.9366v-23.996"
   id="path229" />
		<path
   d="m62.1429 30.9406v23.996"
   id="path230" />
		<path
   d="m62.7439 54.9366v-23.996"
   id="path231" />
		<path
   d="m63.3449 30.9406v23.996"
   id="path232" />
		<path
   d="m60.9399 53.4366h3.0061"
   id="path233" />
		<path
   d="m63.9459 51.9376h-3.0061"
   id="path234" />
		<path
   d="m60.9399 50.4376h3.0061"
   id="path235" />
		<path
   d="m63.9459 48.9376h-3.0061"
   id="path236" />
		<path
   d="m60.9399 47.4376h3.0061"
   id="path237" />
		<path
   d="m63.9459 45.9386h-3.0061"
   id="path238" />
		<path
   d="m60.9399 44.4386h3.0061"
   id="path239" />
		<path
   d="m63.9459 42.9386h-3.0061"
   id="path240" />
		<path
   d="m60.9399 41.4386h3.0061"
   id="path241" />
		<path
   d="m63.9459 39.9386h-3.0061"
   id="path242" />
		<path
   d="m60.9399 38.4396h3.0061"
   id="path243" />
		<path
   d="m63.9459 36.9396h-3.0061"
   id="path244" />
		<path
   d="m60.9399 35.4396h3.0061"
   id="path245" />
		<path
   d="m63.9459 33.9396h-3.0061"
   id="path246" />
		<path
   d="m60.9399 32.4406h3.0061"
   id="path247" />
		<path
   d="m56.7179 54.9366v-23.996"
   id="path248" />
		<path
   d="m57.3189 30.9406v23.996"
   id="path249" />
		<path
   d="m57.9209 54.9366v-23.996"
   id="path250" />
		<path
   d="m58.5219 30.9406v23.996"
   id="path251" />
		<path
   d="m56.1169 53.4366h3.0062"
   id="path252" />
		<path
   d="m59.1229 51.9376h-3.0062"
   id="path253" />
		<path
   d="m56.1169 50.4376h3.0062"
   id="path254" />
		<path
   d="m59.1229 48.9376h-3.0062"
   id="path255" />
		<path
   d="m56.1169 47.4376h3.0062"
   id="path256" />
		<path
   d="m59.1229 45.9386h-3.0062"
   id="path257" />
		<path
   d="m56.1169 44.4386h3.0062"
   id="path258" />
		<path
   d="m59.1229 42.9386h-3.0062"
   id="path259" />
		<path
   d="m56.1169 41.4386h3.0062"
   id="path260" />
		<path
   d="m59.1229 39.9386h-3.0062"
   id="path261" />
		<path
   d="m56.1169 38.4396h3.0062"
   id="path262" />
		<path
   d="m59.1229 36.9396h-3.0062"
   id="path263" />
		<path
   d="m56.1169 35.4396h3.0062"
   id="path264" />
		<path
   d="m59.1229 33.9396h-3.0062"
   id="path265" />
		<path
   d="m56.1169 32.4406h3.0062"
   id="path266" />
		<path
   d="m61.5409 30.9406v23.996"
   id="path267" />
		<path
   d="m62.1429 54.9366v-23.996"
   id="path268" />
		<path
   d="m62.7439 30.9406v23.996"
   id="path269" />
		<path
   d="m63.3449 54.9366v-23.996"
   id="path270" />
		<path
   d="m60.9399 32.4406h3.0061"
   id="path271" />
		<path
   d="m63.9459 33.9396h-3.0061"
   id="path272" />
		<path
   d="m60.9399 35.4396h3.0061"
   id="path273" />
		<path
   d="m63.9459 36.9396h-3.0061"
   id="path274" />
		<path
   d="m60.9399 38.4396h3.0061"
   id="path275" />
		<path
   d="m63.9459 39.9386h-3.0061"
   id="path276" />
		<path
   d="m60.9399 41.4386h3.0061"
   id="path277" />
		<path
   d="m63.9459 42.9386h-3.0061"
   id="path278" />
		<path
   d="m60.9399 44.4386h3.0061"
   id="path279" />
		<path
   d="m63.9459 45.9386h-3.0061"
   id="path280" />
		<path
   d="m60.9399 47.4376h3.0061"
   id="path281" />
		<path
   d="m63.9459 48.9376h-3.0061"
   id="path282" />
		<path
   d="m60.9399 50.4376h3.0061"
   id="path283" />
		<path
   d="m63.9459 51.9376h-3.0061"
   id="path284" />
		<path
   d="m60.9399 53.4366h3.0061"
   id="path285" />
		<path
   d="m56.7179 30.9406v23.996"
   id="path286" />
		<path
   d="m57.3189 54.9366v-23.996"
   id="path287" />
		<path
   d="m57.9209 30.9406v23.996"
   id="path288" />
		<path
   d="m58.5219 54.9366v-23.996"
   id="path289" />
		<path
   d="m56.1169 32.4406h3.0062"
   id="path290" />
		<path
   d="m59.1229 33.9396h-3.0062"
   id="path291" />
		<path
   d="m56.1169 35.4396h3.0062"
   id="path292" />
		<path
   d="m59.1229 36.9396h-3.0062"
   id="path293" />
		<path
   d="m56.1169 38.4396h3.0062"
   id="path294" />
		<path
   d="m59.1229 39.9386h-3.0062"
   id="path295" />
		<path
   d="m56.1169 41.4386h3.0062"
   id="path296" />
		<path
   d="m59.1229 42.9386h-3.0062"
   id="path297" />
		<path
   d="m56.1169 44.4386h3.0062"
   id="path298" />
		<path
   d="m59.1229 45.9386h-3.0062"
   id="path299" />
		<path
   d="m56.1169 47.4376h3.0062"
   id="path300" />
		<path
   d="m59.1229 48.9376h-3.0062"
   id="path301" />
		<path
   d="m56.1169 50.4376h3.0062"
   id="path302" />
		<path
   d="m59.1229 51.9376h-3.0062"
   id="path303" />
		<path
   d="m56.1169 53.4366h3.0062"
   id="path304" />
		<path
   d="m2.88987 0.418675v23.996"
   id="path305" />
		<path
   d="m2.28867 24.4146v-23.996"
   id="path306" />
		<path
   d="m1.68737 0.418675v23.996"
   id="path307" />
		<path
   d="m1.08617 24.4146v-23.996"
   id="path308" />
		<path
   d="m3.49107 1.91837h-3.0061"
   id="path309" />
		<path
   d="m0.484966 3.41817h3.0061"
   id="path310" />
		<path
   d="m3.49107 4.91798h-3.0061"
   id="path311" />
		<path
   d="m0.484966 6.41758h3.0061"
   id="path312" />
		<path
   d="m3.49107 7.91758h-3.0061"
   id="path313" />
		<path
   d="m0.484966 9.41758h3.0061"
   id="path314" />
		<path
   d="m3.49107 10.9166h-3.0061"
   id="path315" />
		<path
   d="m0.484966 12.4166h3.0061"
   id="path316" />
		<path
   d="m3.49107 13.9166h-3.0061"
   id="path317" />
		<path
   d="m0.484966 15.4166h3.0061"
   id="path318" />
		<path
   d="m3.49107 16.9166h-3.0061"
   id="path319" />
		<path
   d="m0.484966 18.4156h3.0061"
   id="path320" />
		<path
   d="m3.49107 19.9156h-3.0061"
   id="path321" />
		<path
   d="m0.484966 21.4156h3.0061"
   id="path322" />
		<path
   d="m3.49107 22.9156h-3.0061"
   id="path323" />
		<path
   d="m7.71297 0.418675v23.996"
   id="path324" />
		<path
   d="m7.11187 24.4146v-23.996"
   id="path325" />
		<path
   d="m6.51057 0.418675v23.996"
   id="path326" />
		<path
   d="m5.90937 24.4146v-23.996"
   id="path327" />
		<path
   d="m8.31427 1.91837h-3.0062"
   id="path328" />
		<path
   d="m5.30807 3.41817h3.0062"
   id="path329" />
		<path
   d="m8.31427 4.91798h-3.0062"
   id="path330" />
		<path
   d="m5.30807 6.41758h3.0062"
   id="path331" />
		<path
   d="m8.31427 7.91758h-3.0062"
   id="path332" />
		<path
   d="m5.30807 9.41758h3.0062"
   id="path333" />
		<path
   d="m8.31427 10.9166h-3.0062"
   id="path334" />
		<path
   d="m5.30807 12.4166h3.0062"
   id="path335" />
		<path
   d="m8.31427 13.9166h-3.0062"
   id="path336" />
		<path
   d="m5.30807 15.4166h3.0062"
   id="path337" />
		<path
   d="m8.31427 16.9166h-3.0062"
   id="path338" />
		<path
   d="m5.30807 18.4156h3.0062"
   id="path339" />
		<path
   d="m8.31427 19.9156h-3.0062"
   id="path340" />
		<path
   d="m5.30807 21.4156h3.0062"
   id="path341" />
		<path
   d="m8.31427 22.9156h-3.0062"
   id="path342" />
		<path
   d="m2.88987 24.4146v-23.996"
   id="path343" />
		<path
   d="m2.28867 0.418675v23.996"
   id="path344" />
		<path
   d="m1.68737 24.4146v-23.996"
   id="path345" />
		<path
   d="m1.08617 0.418675v23.996"
   id="path346" />
		<path
   d="m3.49107 22.9156h-3.0061"
   id="path347" />
		<path
   d="m0.484966 21.4156h3.0061"
   id="path348" />
		<path
   d="m3.49107 19.9156h-3.0061"
   id="path349" />
		<path
   d="m0.484966 18.4156h3.0061"
   id="path350" />
		<path
   d="m3.49107 16.9156h-3.0061"
   id="path351" />
		<path
   d="m0.484966 15.4166h3.0061"
   id="path352" />
		<path
   d="m3.49107 13.9166h-3.0061"
   id="path353" />
		<path
   d="m0.484966 12.4166h3.0061"
   id="path354" />
		<path
   d="m3.49107 10.9166h-3.0061"
   id="path355" />
		<path
   d="m0.484966 9.41758h3.0061"
   id="path356" />
		<path
   d="m3.49107 7.91758h-3.0061"
   id="path357" />
		<path
   d="m0.484966 6.41758h3.0061"
   id="path358" />
		<path
   d="m3.49107 4.91787h-3.0061"
   id="path359" />
		<path
   d="m0.484966 3.41807h3.0061"
   id="path360" />
		<path
   d="m3.49107 1.91827h-3.0061"
   id="path361" />
		<path
   d="m7.71297 24.4146v-23.996"
   id="path362" />
		<path
   d="m7.11187 0.418675v23.996"
   id="path363" />
		<path
   d="m6.51057 24.4146v-23.996"
   id="path364" />
		<path
   d="m5.90937 0.418675v23.996"
   id="path365" />
		<path
   d="m8.31427 22.9156h-3.0062"
   id="path366" />
		<path
   d="m5.30807 21.4156h3.0062"
   id="path367" />
		<path
   d="m8.31427 19.9156h-3.0062"
   id="path368" />
		<path
   d="m5.30807 18.4156h3.0062"
   id="path369" />
		<path
   d="m8.31427 16.9156h-3.0062"
   id="path370" />
		<path
   d="m5.30807 15.4166h3.0062"
   id="path371" />
		<path
   d="m8.31427 13.9166h-3.0062"
   id="path372" />
		<path
   d="m5.30807 12.4166h3.0062"
   id="path373" />
		<path
   d="m8.31427 10.9166h-3.0062"
   id="path374" />
		<path
   d="m5.30807 9.41758h3.0062"
   id="path375" />
		<path
   d="m8.31427 7.91758h-3.0062"
   id="path376" />
		<path
   d="m5.30807 6.41758h3.0062"
   id="path377" />
		<path
   d="m8.31427 4.91787h-3.0062"
   id="path378" />
		<path
   d="m5.30807 3.41807h3.0062"
   id="path379" />
		<path
   d="m8.31427 1.91827h-3.0062"
   id="path380" />
		<path
   d="m13.3899 0.418675v23.996"
   id="path381" />
		<path
   d="m12.7889 24.4146v-23.996"
   id="path382" />
		<path
   d="m12.1879 0.418675v23.996"
   id="path383" />
		<path
   d="m11.5859 24.4146v-23.996"
   id="path384" />
		<path
   d="m13.9909 1.91837h-3.0061"
   id="path385" />
		<path
   d="m10.9849 3.41817h3.0061"
   id="path386" />
		<path
   d="m13.9909 4.91798h-3.0061"
   id="path387" />
		<path
   d="m10.9849 6.41758h3.0061"
   id="path388" />
		<path
   d="m13.9909 7.91758h-3.0061"
   id="path389" />
		<path
   d="m10.9849 9.41758h3.0061"
   id="path390" />
		<path
   d="m13.9909 10.9166h-3.0061"
   id="path391" />
		<path
   d="m10.9849 12.4166h3.0061"
   id="path392" />
		<path
   d="m13.9909 13.9166h-3.0061"
   id="path393" />
		<path
   d="m10.9849 15.4166h3.0061"
   id="path394" />
		<path
   d="m13.9909 16.9166h-3.0061"
   id="path395" />
		<path
   d="m10.9849 18.4156h3.0061"
   id="path396" />
		<path
   d="m13.9909 19.9156h-3.0061"
   id="path397" />
		<path
   d="m10.9849 21.4156h3.0061"
   id="path398" />
		<path
   d="m13.9909 22.9156h-3.0061"
   id="path399" />
		<path
   d="m18.2129 0.418675v23.996"
   id="path400" />
		<path
   d="m17.6119 24.4146v-23.996"
   id="path401" />
		<path
   d="m17.0109 0.418675v23.996"
   id="path402" />
		<path
   d="m16.4099 24.4146v-23.996"
   id="path403" />
		<path
   d="m18.8139 1.91837h-3.0062"
   id="path404" />
		<path
   d="m15.8079 3.41817h3.0062"
   id="path405" />
		<path
   d="m18.8139 4.91798h-3.0062"
   id="path406" />
		<path
   d="m15.8079 6.41758h3.0062"
   id="path407" />
		<path
   d="m18.8139 7.91758h-3.0062"
   id="path408" />
		<path
   d="m15.8079 9.41758h3.0062"
   id="path409" />
		<path
   d="m18.8139 10.9166h-3.0062"
   id="path410" />
		<path
   d="m15.8079 12.4166h3.0062"
   id="path411" />
		<path
   d="m18.8139 13.9166h-3.0062"
   id="path412" />
		<path
   d="m15.8079 15.4166h3.0062"
   id="path413" />
		<path
   d="m18.8139 16.9166h-3.0062"
   id="path414" />
		<path
   d="m15.8079 18.4156h3.0062"
   id="path415" />
		<path
   d="m18.8139 19.9156h-3.0062"
   id="path416" />
		<path
   d="m15.8079 21.4156h3.0062"
   id="path417" />
		<path
   d="m18.8139 22.9156h-3.0062"
   id="path418" />
		<path
   d="m13.3899 24.4146v-23.996"
   id="path419" />
		<path
   d="m12.7889 0.418675v23.996"
   id="path420" />
		<path
   d="m12.1879 24.4146v-23.996"
   id="path421" />
		<path
   d="m11.5859 0.418675v23.996"
   id="path422" />
		<path
   d="m13.9909 22.9156h-3.0061"
   id="path423" />
		<path
   d="m10.9849 21.4156h3.0061"
   id="path424" />
		<path
   d="m13.9909 19.9156h-3.0061"
   id="path425" />
		<path
   d="m10.9849 18.4156h3.0061"
   id="path426" />
		<path
   d="m13.9909 16.9156h-3.0061"
   id="path427" />
		<path
   d="m10.9849 15.4166h3.0061"
   id="path428" />
		<path
   d="m13.9909 13.9166h-3.0061"
   id="path429" />
		<path
   d="m10.9849 12.4166h3.0061"
   id="path430" />
		<path
   d="m13.9909 10.9166h-3.0061"
   id="path431" />
		<path
   d="m10.9849 9.41758h3.0061"
   id="path432" />
		<path
   d="m13.9909 7.91758h-3.0061"
   id="path433" />
		<path
   d="m10.9849 6.41758h3.0061"
   id="path434" />
		<path
   d="m13.9909 4.91787h-3.0061"
   id="path435" />
		<path
   d="m10.9849 3.41807h3.0061"
   id="path436" />
		<path
   d="m13.9909 1.91827h-3.0061"
   id="path437" />
		<path
   d="m18.2129 24.4146v-23.996"
   id="path438" />
		<path
   d="m17.6119 0.418675v23.996"
   id="path439" />
		<path
   d="m17.0109 24.4146v-23.996"
   id="path440" />
		<path
   d="m16.4099 0.418675v23.996"
   id="path441" />
		<path
   d="m18.8139 22.9156h-3.0062"
   id="path442" />
		<path
   d="m15.8079 21.4156h3.0062"
   id="path443" />
		<path
   d="m18.8139 19.9156h-3.0062"
   id="path444" />
		<path
   d="m15.8079 18.4156h3.0062"
   id="path445" />
		<path
   d="m18.8139 16.9156h-3.0062"
   id="path446" />
		<path
   d="m15.8079 15.4166h3.0062"
   id="path447" />
		<path
   d="m18.8139 13.9166h-3.0062"
   id="path448" />
		<path
   d="m15.8079 12.4166h3.0062"
   id="path449" />
		<path
   d="m18.8139 10.9166h-3.0062"
   id="path450" />
		<path
   d="m15.8079 9.41758h3.0062"
   id="path451" />
		<path
   d="m18.8139 7.91758h-3.0062"
   id="path452" />
		<path
   d="m15.8079 6.41758h3.0062"
   id="path453" />
		<path
   d="m18.8139 4.91787h-3.0062"
   id="path454" />
		<path
   d="m15.8079 3.41807h3.0062"
   id="path455" />
		<path
   d="m18.8139 1.91827h-3.0062"
   id="path456" />
		<path
   d="m2.88987 54.9366v-23.996"
   id="path457" />
		<path
   d="m2.28867 30.9406v23.996"
   id="path458" />
		<path
   d="m1.68737 54.9366v-23.996"
   id="path459" />
		<path
   d="m1.08617 30.9406v23.996"
   id="path460" />
		<path
   d="m3.49107 53.4366h-3.0061"
   id="path461" />
		<path
   d="m0.484966 51.9376h3.0061"
   id="path462" />
		<path
   d="m3.49107 50.4376h-3.0061"
   id="path463" />
		<path
   d="m0.484966 48.9376h3.0061"
   id="path464" />
		<path
   d="m3.49107 47.4376h-3.0061"
   id="path465" />
		<path
   d="m0.484966 45.9386h3.0061"
   id="path466" />
		<path
   d="m3.49107 44.4386h-3.0061"
   id="path467" />
		<path
   d="m0.484966 42.9386h3.0061"
   id="path468" />
		<path
   d="m3.49107 41.4386h-3.0061"
   id="path469" />
		<path
   d="m0.484966 39.9386h3.0061"
   id="path470" />
		<path
   d="m3.49107 38.4396h-3.0061"
   id="path471" />
		<path
   d="m0.484966 36.9396h3.0061"
   id="path472" />
		<path
   d="m3.49107 35.4396h-3.0061"
   id="path473" />
		<path
   d="m0.484966 33.9396h3.0061"
   id="path474" />
		<path
   d="m3.49107 32.4406h-3.0061"
   id="path475" />
		<path
   d="m7.71297 54.9366v-23.996"
   id="path476" />
		<path
   d="m7.11187 30.9406v23.996"
   id="path477" />
		<path
   d="m6.51057 54.9366v-23.996"
   id="path478" />
		<path
   d="m5.90937 30.9406v23.996"
   id="path479" />
		<path
   d="m8.31427 53.4366h-3.0062"
   id="path480" />
		<path
   d="m5.30807 51.9376h3.0062"
   id="path481" />
		<path
   d="m8.31427 50.4376h-3.0062"
   id="path482" />
		<path
   d="m5.30807 48.9376h3.0062"
   id="path483" />
		<path
   d="m8.31427 47.4376h-3.0062"
   id="path484" />
		<path
   d="m5.30807 45.9386h3.0062"
   id="path485" />
		<path
   d="m8.31427 44.4386h-3.0062"
   id="path486" />
		<path
   d="m5.30807 42.9386h3.0062"
   id="path487" />
		<path
   d="m8.31427 41.4386h-3.0062"
   id="path488" />
		<path
   d="m5.30807 39.9386h3.0062"
   id="path489" />
		<path
   d="m8.31427 38.4396h-3.0062"
   id="path490" />
		<path
   d="m5.30807 36.9396h3.0062"
   id="path491" />
		<path
   d="m8.31427 35.4396h-3.0062"
   id="path492" />
		<path
   d="m5.30807 33.9396h3.0062"
   id="path493" />
		<path
   d="m8.31427 32.4406h-3.0062"
   id="path494" />
		<path
   d="m2.88987 30.9406v23.996"
   id="path495" />
		<path
   d="m2.28867 54.9366v-23.996"
   id="path496" />
		<path
   d="m1.68737 30.9406v23.996"
   id="path497" />
		<path
   d="m1.08617 54.9366v-23.996"
   id="path498" />
		<path
   d="m3.49107 32.4406h-3.0061"
   id="path499" />
		<path
   d="m0.484966 33.9396h3.0061"
   id="path500" />
		<path
   d="m3.49107 35.4396h-3.0061"
   id="path501" />
		<path
   d="m0.484966 36.9396h3.0061"
   id="path502" />
		<path
   d="m3.49107 38.4396h-3.0061"
   id="path503" />
		<path
   d="m0.484966 39.9386h3.0061"
   id="path504" />
		<path
   d="m3.49107 41.4386h-3.0061"
   id="path505" />
		<path
   d="m0.484966 42.9386h3.0061"
   id="path506" />
		<path
   d="m3.49107 44.4386h-3.0061"
   id="path507" />
		<path
   d="m0.484966 45.9386h3.0061"
   id="path508" />
		<path
   d="m3.49107 47.4376h-3.0061"
   id="path509" />
		<path
   d="m0.484966 48.9376h3.0061"
   id="path510" />
		<path
   d="m3.49107 50.4376h-3.0061"
   id="path511" />
		<path
   d="m0.484966 51.9376h3.0061"
   id="path512" />
		<path
   d="m3.49107 53.4366h-3.0061"
   id="path513" />
		<path
   d="m7.71297 30.9406v23.996"
   id="path514" />
		<path
   d="m7.11187 54.9366v-23.996"
   id="path515" />
		<path
   d="m6.51057 30.9406v23.996"
   id="path516" />
		<path
   d="m5.90937 54.9366v-23.996"
   id="path517" />
		<path
   d="m8.31427 32.4406h-3.0062"
   id="path518" />
		<path
   d="m5.30807 33.9396h3.0062"
   id="path519" />
		<path
   d="m8.31427 35.4396h-3.0062"
   id="path520" />
		<path
   d="m5.30807 36.9396h3.0062"
   id="path521" />
		<path
   d="m8.31427 38.4396h-3.0062"
   id="path522" />
		<path
   d="m5.30807 39.9386h3.0062"
   id="path523" />
		<path
   d="m8.31427 41.4386h-3.0062"
   id="path524" />
		<path
   d="m5.30807 42.9386h3.0062"
   id="path525" />
		<path
   d="m8.31427 44.4386h-3.0062"
   id="path526" />
		<path
   d="m5.30807 45.9386h3.0062"
   id="path527" />
		<path
   d="m8.31427 47.4376h-3.0062"
   id="path528" />
		<path
   d="m5.30807 48.9376h3.0062"
   id="path529" />
		<path
   d="m8.31427 50.4376h-3.0062"
   id="path530" />
		<path
   d="m5.30807 51.9376h3.0062"
   id="path531" />
		<path
   d="m8.31427 53.4366h-3.0062"
   id="path532" />
		<path
   d="m13.3899 54.9366v-23.996"
   id="path533" />
		<path
   d="m12.7889 30.9406v23.996"
   id="path534" />
		<path
   d="m12.1879 54.9366v-23.996"
   id="path535" />
		<path
   d="m11.5859 30.9406v23.996"
   id="path536" />
		<path
   d="m13.9909 53.4366h-3.0061"
   id="path537" />
		<path
   d="m10.9849 51.9376h3.0061"
   id="path538" />
		<path
   d="m13.9909 50.4376h-3.0061"
   id="path539" />
		<path
   d="m10.9849 48.9376h3.0061"
   id="path540" />
		<path
   d="m13.9909 47.4376h-3.0061"
   id="path541" />
		<path
   d="m10.9849 45.9386h3.0061"
   id="path542" />
		<path
   d="m13.9909 44.4386h-3.0061"
   id="path543" />
		<path
   d="m10.9849 42.9386h3.0061"
   id="path544" />
		<path
   d="m13.9909 41.4386h-3.0061"
   id="path545" />
		<path
   d="m10.9849 39.9386h3.0061"
   id="path546" />
		<path
   d="m13.9909 38.4396h-3.0061"
   id="path547" />
		<path
   d="m10.9849 36.9396h3.0061"
   id="path548" />
		<path
   d="m13.9909 35.4396h-3.0061"
   id="path549" />
		<path
   d="m10.9849 33.9396h3.0061"
   id="path550" />
		<path
   d="m13.9909 32.4406h-3.0061"
   id="path551" />
		<path
   d="m18.2129 54.9366v-23.996"
   id="path552" />
		<path
   d="m17.6119 30.9406v23.996"
   id="path553" />
		<path
   d="m17.0109 54.9366v-23.996"
   id="path554" />
		<path
   d="m16.4099 30.9406v23.996"
   id="path555" />
		<path
   d="m18.8139 53.4366h-3.0062"
   id="path556" />
		<path
   d="m15.8079 51.9376h3.0062"
   id="path557" />
		<path
   d="m18.8139 50.4376h-3.0062"
   id="path558" />
		<path
   d="m15.8079 48.9376h3.0062"
   id="path559" />
		<path
   d="m18.8139 47.4376h-3.0062"
   id="path560" />
		<path
   d="m15.8079 45.9386h3.0062"
   id="path561" />
		<path
   d="m18.8139 44.4386h-3.0062"
   id="path562" />
		<path
   d="m15.8079 42.9386h3.0062"
   id="path563" />
		<path
   d="m18.8139 41.4386h-3.0062"
   id="path564" />
		<path
   d="m15.8079 39.9386h3.0062"
   id="path565" />
		<path
   d="m18.8139 38.4396h-3.0062"
   id="path566" />
		<path
   d="m15.8079 36.9396h3.0062"
   id="path567" />
		<path
   d="m18.8139 35.4396h-3.0062"
   id="path568" />
		<path
   d="m15.8079 33.9396h3.0062"
   id="path569" />
		<path
   d="m18.8139 32.4406h-3.0062"
   id="path570" />
		<path
   d="m13.3899 30.9406v23.996"
   id="path571" />
		<path
   d="m12.7889 54.9366v-23.996"
   id="path572" />
		<path
   d="m12.1879 30.9406v23.996"
   id="path573" />
		<path
   d="m11.5859 54.9366v-23.996"
   id="path574" />
		<path
   d="m13.9909 32.4406h-3.0061"
   id="path575" />
		<path
   d="m10.9849 33.9396h3.0061"
   id="path576" />
		<path
   d="m13.9909 35.4396h-3.0061"
   id="path577" />
		<path
   d="m10.9849 36.9396h3.0061"
   id="path578" />
		<path
   d="m13.9909 38.4396h-3.0061"
   id="path579" />
		<path
   d="m10.9849 39.9386h3.0061"
   id="path580" />
		<path
   d="m13.9909 41.4386h-3.0061"
   id="path581" />
		<path
   d="m10.9849 42.9386h3.0061"
   id="path582" />
		<path
   d="m13.9909 44.4386h-3.0061"
   id="path583" />
		<path
   d="m10.9849 45.9376h3.0061"
   id="path584" />
		<path
   d="m13.9909 47.4376h-3.0061"
   id="path585" />
		<path
   d="m10.9849 48.9376h3.0061"
   id="path586" />
		<path
   d="m13.9909 50.4376h-3.0061"
   id="path587" />
		<path
   d="m10.9849 51.9376h3.0061"
   id="path588" />
		<path
   d="m13.9909 53.4366h-3.0061"
   id="path589" />
		<path
   d="m18.2129 30.9406v23.996"
   id="path590" />
		<path
   d="m17.6119 54.9366v-23.996"
   id="path591" />
		<path
   d="m17.0109 30.9406v23.996"
   id="path592" />
		<path
   d="m16.4099 54.9366v-23.996"
   id="path593" />
		<path
   d="m18.8139 32.4406h-3.0062"
   id="path594" />
		<path
   d="m15.8079 33.9396h3.0062"
   id="path595" />
		<path
   d="m18.8139 35.4396h-3.0062"
   id="path596" />
		<path
   d="m15.8079 36.9396h3.0062"
   id="path597" />
		<path
   d="m18.8139 38.4396h-3.0062"
   id="path598" />
		<path
   d="m15.8079 39.9386h3.0062"
   id="path599" />
		<path
   d="m18.8139 41.4386h-3.0062"
   id="path600" />
		<path
   d="m15.8079 42.9386h3.0062"
   id="path601" />
		<path
   d="m18.8139 44.4386h-3.0062"
   id="path602" />
		<path
   d="m15.8079 45.9376h3.0062"
   id="path603" />
		<path
   d="m18.8139 47.4376h-3.0062"
   id="path604" />
		<path
   d="m15.8079 48.9376h3.0062"
   id="path605" />
		<path
   d="m18.8139 50.4376h-3.0062"
   id="path606" />
		<path
   d="m15.8079 51.9376h3.0062"
   id="path607" />
		<path
   d="m18.8139 53.4366h-3.0062"
   id="path608" />
	</g>
	<path
   d="m44.0376 30.8706h0.211264v1.2499h-0.211264"
   fill="#000000"
   id="path609" />
	<path
   d="m40.0499 33.1296h3.5312s0.4848 0.0187 0.4848-1.6342c0-1.653-0.4848-1.6343-0.4848-1.6343h-3.5312l-0.4301 0.2766v2.7476z"
   fill="none"
   id="path610" />
	
	
	
	
	
	
	
	
	
	
	
	
	
	
	
	
	<path
   d="m35.7793 26.168h-15.7539l-0.933594 0.787109h-14.6836v1.44531h14.6836l0.867188 0.220703h3.31641v-1.06055h9.80859l1.7168 0.990234h0.978516m3.49219 0h0.859375l1.7168-0.990234h9.81055v1.06055h3.31445l0.867188-0.220703h14.6836v-1.44531h-14.6836l-0.933594-0.787109h-15.6348"
   fill="none"
   id="path627" />
	<path
   d="m69.6229 0.418675h1.8167"
   fill="#000000"
   id="path628" />
	<path
   d="m69.6229 24.4146h1.8167"
   fill="#000000"
   id="path629" />
	<path
   d="m69.9879 26.9556h1.0865v-2.5403h-1.0865z"
   fill="none"
   id="path630" />
	<path
   d="m59.1229 0.418675h1.8167"
   fill="#000000"
   id="path631" />
	<path
   d="m59.1229 24.4146h1.8167"
   fill="#000000"
   id="path632" />
	<path
   d="m59.4879 26.9556h1.0865v-2.5403h-1.0865z"
   fill="none"
   id="path633" />
	<path
   d="m69.6229 30.9406h1.8167"
   fill="#000000"
   id="path634" />
	<path
   d="m69.9879 28.4006h1.0865v2.5403h-1.0865z"
   fill="none"
   id="path635" />
	<path
   d="m59.1229 30.9406h1.8167"
   fill="#000000"
   id="path636" />
	<path
   d="m59.4879 28.4006h1.0865v2.5403h-1.0865z"
   fill="none"
   id="path637" />
	<path
   d="m5.30807 0.418675h-1.8167"
   fill="#000000"
   id="path638" />
	<path
   d="m5.30807 24.4146h-1.8167"
   fill="#000000"
   id="path639" />
	<path
   d="m4.94297 26.9556h-1.0865v-2.5403h1.0865z"
   fill="none"
   id="path640" />
	<path
   d="m15.8079 0.418675h-1.8167"
   fill="#000000"
   id="path641" />
	<path
   d="m15.8079 24.4146h-1.8167"
   fill="#000000"
   id="path642" />
	<path
   d="m15.4429 26.9556h-1.0865v-2.5403h1.0865z"
   fill="none"
   id="path643" />
	<path
   d="m5.30807 54.9366h-1.8167"
   fill="#000000"
   id="path644" />
	<path
   d="m5.30807 30.9406h-1.8167"
   fill="#000000"
   id="path645" />
	<path
   d="m4.94297 28.4006h-1.0865v2.5403h1.0865z"
   fill="none"
   id="path646" />
	<path
   d="m15.8079 54.9366h-1.8167"
   fill="#000000"
   id="path647" />
	<path
   d="m15.8079 30.9406h-1.8167"
   fill="#000000"
   id="path648" />
	<path
   d="m15.4429 28.4006h-1.0865v2.5403h1.0865z"
   fill="none"
   id="path649" />
	<path
   d="m33.1889 32.2006 0.5029 0.0133 0.2117 1.0191h1.4842l0.1535-0.635v-0.3573h0.345v-0.7739 0.0397-0.774h-0.345v-0.3572l-0.1535-0.635h-1.4842l-0.2117 0.8935h-0.4822l-0.259 0.8132z"
   fill="none"
   id="path650" />
	<path
   d="m39.66 30.7016h-0.388072m0 1.9976h0.388072"
   fill="#000000"
   id="path651" />
	<path
   d="m36.8926 34.7784-0.217603-1.13198m1.71946-0.006698-0.236675 1.14886"
   fill="#000000"
   id="path652" />
	<path
   d="m36.9188 36.2713-0.641 1.14h-0.1935v1.8492h0.129v0.387h-0.129v2.8811l-0.1828 0.387v0.14l0.9999 1v0.794226m1.2471 0v-0.794226l0.9998-1v-0.14l-0.1827-0.387v-2.8811h-0.129v-0.387h0.129v-1.8492h-0.1936l-0.6235-1.1181"
   fill="none"
   id="path653" />
	<path
   d="m35.2987 21.2292 0.592447-1e-4m0-2.7475h-0.592447"
   fill="#000000"
   id="path654" />
	<path
   d="m36.1902 22.3448v0.24464l-0.411 0.2977v6.2312l0.635 0.2182h0.3572m1.5668 0.0207 0.2987-0.0207 0.635-0.2182v-6.2312l-0.3787-0.2977v-0.24464l-1.3478-0.01366-1.3631 0.0079"
   fill="none"
   id="path655" />
	<path
   d="m36.7714 29.3366-0.0133 0.1278-0.9789 0.2125v3.7469l0.635 0.2181h0.3572v0.345h0.774-0.0397 0.7093l0.0646-0.345h0.3573l0.635-0.2181v-3.7469l-0.9337-0.2125v-0.1071l-0.8132-0.01887z"
   fill="none"
   id="path656" />
	<path
   d="m39.2714 21.7686-0.635 0.2183h-0.3573v0.3449h-0.7739 0.0397-0.774v-0.3449h-0.3571l-0.6351-0.2183v-3.7468l1.0191-0.4703 0.0133-0.503 0.7536-0.2383 0.8132 0.259v0.4823l0.8935 0.4703z"
   fill="none"
   id="path657" />
	<path
   d="m38.0772 46.3766 0.6474 1.183v2.59l0.5134 0.982v3.929h-3.4257v-3.929l0.5135-0.982v-2.59l0.6474-1.183"
   fill="none"
   id="path658" />
	<path
   d="m30.9286 20.4805h-0.209987v-1.2499h0.209987"
   fill="#000000"
   id="path659" />
	<path
   d="m34.9179 18.2056h-3.5311s-0.4849-0.0187-0.4849 1.6342c0 1.653 0.4849 1.6343 0.4849 1.6343l3.5311-1e-4 0.4301-0.2765v-2.7476z"
   fill="none"
   id="path660" />
	<path
   d="m45.2629 21.4896s0.4849 0.0187 0.4849-1.6343c0-1.6529-0.4849-1.6342-0.4849-1.6342h-5.4761v3.2685z"
   fill="none"
   id="path661" />
	<path
   d="m39.3909 47.1536v0.61748h-0.62988v0.6224h0.63281l0.01465 0.52436 8.6191 0.10783-0.31055-1.7593z"
   fill="none"
   id="path662" />
	<path
   d="m35.6903 47.1536v0.61748h0.62988v0.6224h-0.63281l-0.01465 0.52436-8.6191 0.10783 0.31055-1.7593z"
   fill="none"
   id="path663" />
	<path
   d="m47.2389 28.4226h0.5032l0.346 2.0129h-0.5032z"
   fill="none"
   id="path664" />
	<path
   d="m47.2389 32.4486h0.5032l0.346-2.0128h-0.5032z"
   fill="none"
   id="path665" />
	<path
   d="m47.2389 32.4486h0.5032l0.346 2.0128h-0.5032z"
   fill="none"
   id="path666" />
	<path
   d="m47.2389 36.4736h0.5032l0.346-2.0129h-0.5032z"
   fill="none"
   id="path667" />
	<path
   d="m47.2389 36.4736h0.5032l0.346 2.0128h-0.5032z"
   fill="none"
   id="path668" />
	<path
   d="m47.2389 40.4996h0.5032l0.346-2.0128h-0.5032z"
   fill="none"
   id="path669" />
	<path
   d="m47.2389 40.4996h0.5032l0.346 2.0129h-0.5032z"
   fill="none"
   id="path670" />
	<path
   d="m47.2389 44.5256h0.5032l0.346-2.0128h-0.5032z"
   fill="none"
   id="path671" />
	<path
   d="m45.9629 27.7856h3.0176l-0.22373 0.47461h-2.4541z"
   fill="none"
   id="path672" />
	<path
   d="m47.3869 28.4286v-0.16041"
   fill="none"
   id="path673" />
	<path
   d="m47.6189 28.2706v0.15986"
   fill="none"
   id="path674" />
	<path
   d="m47.3869 27.7656v-0.17923"
   fill="none"
   id="path675" />
	<path
   d="m47.6189 27.5876v0.17861"
   fill="none"
   id="path676" />
	<path
   d="m27.4859 28.4226h-0.5032l-0.346 2.0129h0.5032z"
   fill="none"
   id="path677" />
	<path
   d="m27.4859 32.4486h-0.5032l-0.346-2.0128h0.5032z"
   fill="none"
   id="path678" />
	<path
   d="m27.4859 32.4486h-0.5032l-0.346 2.0128h0.5032z"
   fill="none"
   id="path679" />
	<path
   d="m27.4859 36.4736h-0.5032l-0.346-2.0129h0.5032z"
   fill="none"
   id="path680" />
	<path
   d="m27.4859 36.4736h-0.5032l-0.346 2.0128h0.5032z"
   fill="none"
   id="path681" />
	<path
   d="m27.4859 40.4996h-0.5032l-0.346-2.0128h0.5032z"
   fill="none"
   id="path682" />
	<path
   d="m27.4859 40.4996h-0.5032l-0.346 2.0129h0.5032z"
   fill="none"
   id="path683" />
	<path
   d="m27.4859 44.5256h-0.5032l-0.346-2.0128h0.5032z"
   fill="none"
   id="path684" />
	<path
   d="m28.7619 27.7856h-3.0176l0.22373 0.47461h2.4541z"
   fill="none"
   id="path685" />
	<path
   d="m27.3379 28.4286v-0.16041"
   fill="none"
   id="path686" />
	<path
   d="m27.1069 28.2706v0.15986"
   fill="none"
   id="path687" />
	<path
   d="m27.3379 27.7656v-0.17923"
   fill="none"
   id="path688" />
	<path
   d="m27.1069 27.5876v0.17861"
   fill="none"
   id="path689" />
	<path
   d="m39.3439 38.1756-0.37685 2.9899 0.14209 0.01502 0.30519-2.4285 0.30766 2.4446h0.14086l0.30766-2.4377 0.30642 2.4319h0.14086l0.3126-2.4435 0.31013 2.4585 0.14209-0.01617-0.38056-3.0119h-0.14086l-0.3126 2.4423-0.30766-2.4412h-0.14209l-0.30642 2.4412-0.30766-2.4446z"
   fill="#000000"
   id="path690" />
	<path
   d="m34.0679 38.1756-0.37685 2.9899 0.14209 0.01502 0.30519-2.4285 0.30766 2.4446h0.14086l0.30766-2.4377 0.30642 2.4319h0.14086l0.3126-2.4435 0.31013 2.4585 0.14209-0.01617-0.38056-3.0119h-0.14086l-0.3126 2.4423-0.30766-2.4412h-0.14209l-0.30642 2.4412-0.30766-2.4446z"
   fill="#000000"
   id="path691" />
	<path
   d="m38.4864 45.5806a0.96094 0.96094 0 0 1-0.96094 0.96094 0.96094 0.96094 0 0 1-0.96094-0.96094 0.96094 0.96094 0 0 1 0.96094-0.96094 0.96094 0.96094 0 0 1 0.96094 0.96094"
   fill="none"
   id="path692" />
	<path
   d="m38.4268 35.5496a0.96094 0.96094 0 0 1-0.96094 0.96094 0.96094 0.96094 0 0 1-0.96094-0.96094 0.96094 0.96094 0 0 1 0.96094-0.96094 0.96094 0.96094 0 0 1 0.96094 0.96094"
   fill="none"
   id="path693" />
	<path
   d="m69.6229 54.9366h1.8167"
   fill="#000000"
   id="path694" />
	<path
   d="m59.1229 54.9366h1.8167"
   fill="#000000"
   id="path695" />
	<path
   d="m39.1943 21.2292 0.592447-1e-4m0-2.7475h-0.592447"
   fill="#000000"
   id="path696" />
</svg>
