<?xml version="1.0" encoding="UTF-8" standalone="no"?>
<svg
   sodipodi:docname="JJ.svg"
   inkscape:version="1.3.1 (91b66b0783, 2023-11-16)"
   id="svg8"
   version="1.1"
   viewBox="0 0 18 14.000001"
   height="14mm"
   width="18mm"
   inkscape:export-filename="D:\Users\Michael\repos\st-panorama\src\panorama-assets\rooms\JJ.png"
   inkscape:export-xdpi="2116.6699"
   inkscape:export-ydpi="2116.6699"
   xmlns:inkscape="http://www.inkscape.org/namespaces/inkscape"
   xmlns:sodipodi="http://sodipodi.sourceforge.net/DTD/sodipodi-0.dtd"
   xmlns="http://www.w3.org/2000/svg"
   xmlns:svg="http://www.w3.org/2000/svg"
   xmlns:rdf="http://www.w3.org/1999/02/22-rdf-syntax-ns#"
   xmlns:cc="http://creativecommons.org/ns#"
   xmlns:dc="http://purl.org/dc/elements/1.1/">
  <defs
     id="defs2" />
  <sodipodi:namedview
     id="base"
     pagecolor="#000000"
     bordercolor="#666666"
     borderopacity="1.0"
     inkscape:pageopacity="0"
     inkscape:pageshadow="2"
     inkscape:zoom="7.857724108"
     inkscape:cx="67.19502909"
     inkscape:cy="-3.181582817"
     inkscape:document-units="mm"
     inkscape:current-layer="svg8"
     inkscape:document-rotation="0"
     showgrid="false"
     inkscape:window-width="2367"
     inkscape:window-height="1417"
     inkscape:window-x="1672"
     inkscape:window-y="-8"
     inkscape:window-maximized="1"
     inkscape:showpageshadow="2"
     inkscape:pagecheckerboard="0"
     inkscape:deskcolor="#d1d1d1" />
  <metadata
     id="metadata5">
    <rdf:RDF>
      <cc:Work
         rdf:about="">
        <dc:format>image/svg+xml</dc:format>
        <dc:type
           rdf:resource="http://purl.org/dc/dcmitype/StillImage" />
      </cc:Work>
    </rdf:RDF>
  </metadata>
  <rect width="100%" height="100%" x="0" y="0" fill="black" />
  <path
     id="path246"
     style="display:inline;color:#000000;fill:none;stroke-linecap:round;stroke-linejoin:round;stroke:#ffffff;stroke-width:0.3;stroke-dasharray:none"
     d="M 127.6739261 147.7422622 C 126.9895236 147.7422622 126.3048461 147.8194834 125.6399418 147.9742894 L 125.6228885 147.9081436 L 125.621855 147.9081436 A 0.0900000036 0.0900000036 0 0 0 125.5138513 147.8435481 C 123.866284 148.2415502 122.4275893 149.085367 121.4277958 150.240301 A 0.0900000036 0.0900000036 0 0 0 121.4298628 150.3560562 L 121.4277958 150.3576065 L 121.4923913 150.430987 C 121.4151034 150.5240579 121.3418976 150.6191349 121.2717329 150.7157242 C 121.261773 150.7130542 121.2513673 150.7106862 121.2402103 150.7090062 C 121.1729094 150.6988752 121.0789618 150.7133364 120.9900964 150.7834203 C 120.9185635 150.8401532 120.8472627 150.9372477 120.7616866 151.0722915 C 120.6761106 151.2073355 120.5819678 151.3775081 120.4940026 151.5642512 C 120.3180723 151.9377375 120.1641832 152.3746707 120.1524214 152.7419571 C 120.1506214 152.790908 120.1396755 152.8624004 120.1544885 152.939361 C 120.1618985 152.977841 120.1776208 153.0207601 120.2087487 153.0566665 C 120.2214457 153.0713115 120.2367042 153.0842601 120.2537072 153.0949071 C 120.2454872 153.1461731 120.2379296 153.1977652 120.2309696 153.2494196 L 120.1271 153.246319 L 120.1271 153.2473526 A 0.0900000036 0.0900000036 0 0 0 120.0351159 153.3264175 C 119.8336707 155.11399 120.563111 156.887241 122.0349938 158.2031224 A 0.0900000036 0.0900000036 0 0 0 122.1621179 158.195371 L 122.2148278 158.1349095 C 122.6853901 158.5490491 123.2236357 158.9073864 123.8131799 159.1999608 L 123.4669478 159.9198135 L 123.4684981 159.9203303 A 0.0900000036 0.0900000036 0 0 0 123.4669478 159.9218806 A 0.0900000036 0.0900000036 0 0 0 123.5098392 160.0412531 C 126.102151 161.2379378 129.2590808 161.2347699 131.8493819 160.035052 A 0.0900000036 0.0900000036 0 0 0 131.8927901 159.9161962 A 0.0900000036 0.0900000036 0 0 0 131.8917565 159.9151626 L 131.5677453 159.1839411 C 132.1428703 158.8957115 132.6670453 158.5442019 133.1288903 158.1385269 L 133.1779829 158.195371 L 133.1790165 158.1943374 A 0.0900000036 0.0900000036 0 0 0 133.1795332 158.195371 A 0.0900000036 0.0900000036 0 0 0 133.3066573 158.2031224 C 134.779552 156.8872421 135.509001 155.1140175 135.3065352 153.3264175 A 0.0900000036 0.0900000036 0 0 0 135.2150679 153.2473526 L 135.2150679 153.246319 L 135.20835 153.246319 A 0.0900000036 0.0900000036 0 0 0 135.2067997 153.246319 A 0.0900000036 0.0900000036 0 0 0 135.2062829 153.2468358 L 135.1168827 153.2494196 C 135.0989737 153.1149515 135.0758982 152.9810247 135.0476363 152.8478938 C 135.6446247 153.1681805 136.3800624 153.0852568 136.896619 152.6210342 C 137.459424 152.1152487 137.6301689 151.2834607 137.3162316 150.5839493 C 137.0013363 149.8835966 136.2749534 149.4833332 135.5390791 149.6093317 C 134.8795226 149.722263 134.3596201 150.2311791 134.199626 150.8878067 C 134.0919685 150.7301686 133.975917 150.5761161 133.8523604 150.4268529 L 133.912305 150.3576065 L 133.9117883 150.3570897 A 0.0900000036 0.0900000036 0 0 0 133.912305 150.2382339 C 132.9134734 149.0832398 131.4738086 148.2415483 129.8262495 147.8435481 A 0.0900000036 0.0900000036 0 0 0 129.7197961 147.9081436 L 129.7187626 147.9081436 L 129.7027429 147.9732559 C 129.0392945 147.8191739 128.3567361 147.7422622 127.6739261 147.7422622 z "
     transform="translate(-119.6863,-147.20121)" />
  <g
     inkscape:label="Layer 1"
     inkscape:groupmode="layer"
     id="layer1"
     transform="translate(-119.6863,-147.20121)"
     style="display:inline">
    <path
       style="color:#000000;font-style:normal;font-variant:normal;font-weight:normal;font-stretch:normal;font-size:medium;line-height:normal;font-family:sans-serif;font-variant-ligatures:normal;font-variant-position:normal;font-variant-caps:normal;font-variant-numeric:normal;font-variant-alternates:normal;font-variant-east-asian:normal;font-feature-settings:normal;font-variation-settings:normal;text-indent:0;text-align:start;text-decoration:none;text-decoration-line:none;text-decoration-style:solid;text-decoration-color:#000000;letter-spacing:normal;word-spacing:normal;text-transform:none;writing-mode:lr-tb;direction:ltr;text-orientation:mixed;dominant-baseline:auto;baseline-shift:baseline;text-anchor:start;white-space:normal;shape-padding:0;shape-margin:0;inline-size:0;clip-rule:nonzero;display:inline;overflow:visible;visibility:visible;isolation:auto;mix-blend-mode:normal;color-interpolation:sRGB;color-interpolation-filters:linearRGB;solid-color:#000000;solid-opacity:1;vector-effect:none;fill:none;fill-opacity:1;fill-rule:nonzero;stroke:#ffffff;stroke-width:0.1;stroke-linecap:round;stroke-linejoin:round;stroke-miterlimit:4;stroke-dasharray:none;stroke-dashoffset:0;stroke-opacity:1;color-rendering:auto;image-rendering:auto;shape-rendering:auto;text-rendering:auto;enable-background:accumulate;stop-color:#000000"
       d="m 129.80196,147.9532 -0.197,0.886 c 1.467,0.355 2.729,1.104 3.578,2.096 l 0.652,-0.605 c -0.988,-1.156 -2.41,-1.985 -4.033,-2.377 z"
       id="ellipse893" />
    <path
       style="color:#000000;font-style:normal;font-variant:normal;font-weight:normal;font-stretch:normal;font-size:medium;line-height:normal;font-family:sans-serif;font-variant-ligatures:normal;font-variant-position:normal;font-variant-caps:normal;font-variant-numeric:normal;font-variant-alternates:normal;font-variant-east-asian:normal;font-feature-settings:normal;font-variation-settings:normal;text-indent:0;text-align:start;text-decoration:none;text-decoration-line:none;text-decoration-style:solid;text-decoration-color:#000000;letter-spacing:normal;word-spacing:normal;text-transform:none;writing-mode:lr-tb;direction:ltr;text-orientation:mixed;dominant-baseline:auto;baseline-shift:baseline;text-anchor:start;white-space:normal;shape-padding:0;shape-margin:0;inline-size:0;clip-rule:nonzero;display:inline;overflow:visible;visibility:visible;isolation:auto;mix-blend-mode:normal;color-interpolation:sRGB;color-interpolation-filters:linearRGB;solid-color:#000000;solid-opacity:1;vector-effect:none;fill:none;fill-opacity:1;fill-rule:nonzero;stroke:#ffffff;stroke-width:0.1;stroke-linecap:round;stroke-linejoin:round;stroke-miterlimit:4;stroke-dasharray:none;stroke-dashoffset:0;stroke-opacity:1;color-rendering:auto;image-rendering:auto;shape-rendering:auto;text-rendering:auto;enable-background:accumulate;stop-color:#000000"
       d="m 135.17996,153.3412 -0.868,0.105 c 0.16,1.438 -0.417,2.87 -1.651,3.979 l 0.571,0.689 c 1.417,-1.274 2.144,-3.014 1.948,-4.773 z"
       id="path895" />
    <path
       style="color:#000000;font-style:normal;font-variant:normal;font-weight:normal;font-stretch:normal;font-size:medium;line-height:normal;font-family:sans-serif;font-variant-ligatures:normal;font-variant-position:normal;font-variant-caps:normal;font-variant-numeric:normal;font-variant-alternates:normal;font-variant-east-asian:normal;font-feature-settings:normal;font-variation-settings:normal;text-indent:0;text-align:start;text-decoration:none;text-decoration-line:none;text-decoration-style:solid;text-decoration-color:#000000;letter-spacing:normal;word-spacing:normal;text-transform:none;writing-mode:lr-tb;direction:ltr;text-orientation:mixed;dominant-baseline:auto;baseline-shift:baseline;text-anchor:start;white-space:normal;shape-padding:0;shape-margin:0;inline-size:0;clip-rule:nonzero;display:inline;overflow:visible;visibility:visible;isolation:auto;mix-blend-mode:normal;color-interpolation:sRGB;color-interpolation-filters:linearRGB;solid-color:#000000;solid-opacity:1;vector-effect:none;fill:none;fill-opacity:1;fill-rule:nonzero;stroke:#ffffff;stroke-width:0.1;stroke-linecap:round;stroke-linejoin:round;stroke-miterlimit:4;stroke-dasharray:none;stroke-dashoffset:0;stroke-opacity:1;color-rendering:auto;image-rendering:auto;shape-rendering:auto;text-rendering:auto;enable-background:accumulate;stop-color:#000000"
       d="m 125.54596,147.9532 0.198,0.886 c -1.467,0.355 -2.73,1.104 -3.578,2.096 l -0.653,-0.605 c 0.989,-1.156 2.411,-1.985 4.033,-2.377 z"
       id="path904" />
    <path
       style="display:inline;fill:none;stroke:#ffffff;stroke-width:0.1;stroke-linecap:round;stroke-linejoin:round;stroke-miterlimit:4;stroke-dasharray:none"
       id="ellipse964"
       d="m 123.66196,151.7212 c 0.98,-0.821 2.458,-1.297 4.018,-1.295 1.561,0.001 3.037,0.479 4.015,1.302" />
    <path
       style="display:inline;fill:none;stroke:#ffffff;stroke-width:0.1;stroke-linecap:round;stroke-linejoin:round;stroke-miterlimit:4;stroke-dasharray:none"
       id="ellipse972"
       d="m 130.18496,159.0672 c -1.665,0.539 -3.505,0.522 -5.157,-0.046" />
    <path
       style="color:#000000;font-style:normal;font-variant:normal;font-weight:normal;font-stretch:normal;font-size:medium;line-height:normal;font-family:sans-serif;font-variant-ligatures:normal;font-variant-position:normal;font-variant-caps:normal;font-variant-numeric:normal;font-variant-alternates:normal;font-variant-east-asian:normal;font-feature-settings:normal;font-variation-settings:normal;text-indent:0;text-align:start;text-decoration:none;text-decoration-line:none;text-decoration-style:solid;text-decoration-color:#000000;letter-spacing:normal;word-spacing:normal;text-transform:none;writing-mode:lr-tb;direction:ltr;text-orientation:mixed;dominant-baseline:auto;baseline-shift:baseline;text-anchor:start;white-space:normal;shape-padding:0;shape-margin:0;inline-size:0;clip-rule:nonzero;display:inline;overflow:visible;visibility:visible;isolation:auto;mix-blend-mode:normal;color-interpolation:sRGB;color-interpolation-filters:linearRGB;solid-color:#000000;solid-opacity:1;vector-effect:none;fill:none;fill-opacity:1;fill-rule:nonzero;stroke:#ffffff;stroke-width:0.1;stroke-linecap:round;stroke-linejoin:round;stroke-miterlimit:4;stroke-dasharray:none;stroke-dashoffset:0;stroke-opacity:1;color-rendering:auto;image-rendering:auto;shape-rendering:auto;text-rendering:auto;enable-background:accumulate;stop-color:#000000"
       d="m 120.16896,153.3412 0.868,0.105 c -0.161,1.438 0.416,2.87 1.65,3.979 l -0.57,0.689 c -1.418,-1.274 -2.145,-3.014 -1.948,-4.773 z"
       id="path906" />
    <path
       style="display:inline;fill:none;stroke:#ffffff;stroke-width:0.1;stroke-linecap:round;stroke-linejoin:round;stroke-miterlimit:4;stroke-dasharray:none"
       id="path976"
       d="m 126.29296,155.0602 c -0.359,-0.127 -0.714,-0.303 -1.062,-0.527" />
    <path
       style="color:#000000;font-style:normal;font-variant:normal;font-weight:normal;font-stretch:normal;font-size:medium;line-height:normal;font-family:sans-serif;font-variant-ligatures:normal;font-variant-position:normal;font-variant-caps:normal;font-variant-numeric:normal;font-variant-alternates:normal;font-variant-east-asian:normal;font-feature-settings:normal;font-variation-settings:normal;text-indent:0;text-align:start;text-decoration:none;text-decoration-line:none;text-decoration-style:solid;text-decoration-color:#000000;letter-spacing:normal;word-spacing:normal;text-transform:none;writing-mode:lr-tb;direction:ltr;text-orientation:mixed;dominant-baseline:auto;baseline-shift:baseline;text-anchor:start;white-space:normal;shape-padding:0;shape-margin:0;inline-size:0;clip-rule:nonzero;display:inline;overflow:visible;visibility:visible;isolation:auto;mix-blend-mode:normal;color-interpolation:sRGB;color-interpolation-filters:linearRGB;solid-color:#000000;solid-opacity:1;vector-effect:none;fill:none;fill-opacity:1;fill-rule:nonzero;stroke:#ffffff;stroke-width:0.1;stroke-linecap:round;stroke-linejoin:round;stroke-miterlimit:4;stroke-dasharray:none;stroke-dashoffset:0;stroke-opacity:1;color-rendering:auto;image-rendering:auto;shape-rendering:auto;text-rendering:auto;enable-background:accumulate;stop-color:#000000"
       d="m 129.06696,155.1152 -0.144,-0.512 c -0.87,0.252 -1.743,0.242 -2.467,-0.015 l -0.174,0.501 c 0.843,0.299 1.823,0.304 2.785,0.026 z"
       id="path962" />
    <path
       style="display:inline;fill:none;stroke:#ffffff;stroke-width:0.1;stroke-linecap:round;stroke-linejoin:round;stroke-miterlimit:4;stroke-dasharray:none"
       id="path978"
       d="m 129.79996,152.5832 c -1.388,0.79 -2.845,0.794 -4.233,0.01" />
    <path
       style="display:inline;fill:none;stroke:#ffffff;stroke-width:0.1;stroke-linecap:butt;stroke-linejoin:round;stroke-miterlimit:4;stroke-dasharray:none;stroke-opacity:1"
       d="m 130.18496,159.0672 c 0.428,-0.152 0.399,-0.464 0.29,-0.805 l -0.482,-1.269"
       id="path988" />
    <path
       style="display:inline;fill:none;stroke:#ffffff;stroke-width:0.1;stroke-linecap:butt;stroke-linejoin:round;stroke-miterlimit:4;stroke-dasharray:none;stroke-opacity:1"
       d="m 131.97996,154.0992 2.35,0.191"
       id="path990" />
    <g
       id="g1001"
       style="display:inline;fill:none;stroke:#ffffff;stroke-width:0.1;stroke-linejoin:round;stroke-miterlimit:4;stroke-dasharray:none"
       inkscape:export-xdpi="84.849998"
       inkscape:export-ydpi="84.849998">
      <path
         style="fill:none;stroke:#ffffff;stroke-width:0.1;stroke-linecap:round;stroke-linejoin:round;stroke-miterlimit:4;stroke-dasharray:none"
         id="ellipse966"
         d="m 131.598,151.857 c 0.86,0.808 1.177,1.841 0.868,2.827 -0.309,0.987 -1.213,1.829 -2.475,2.306" />
      <path
         style="fill:none;stroke:#ffffff;stroke-width:0.1;stroke-linecap:round;stroke-linejoin:round;stroke-miterlimit:4;stroke-dasharray:none"
         id="ellipse968"
         d="m 131.249,152.358 c 0.538,0.512 0.795,1.125 0.731,1.741" />
      <path
         style="fill:none;stroke:#ffffff;stroke-width:0.1;stroke-linecap:round;stroke-linejoin:round;stroke-miterlimit:4;stroke-dasharray:none"
         id="ellipse970"
         d="m 131.425,152.12 c 0.604,0.576 0.899,1.273 0.837,1.977" />
      <path
         style="fill:none;stroke:#ffffff;stroke-width:0.1;stroke-linecap:round;stroke-linejoin:round;stroke-miterlimit:4;stroke-dasharray:none;stroke-opacity:1"
         d="m 129.8,152.583 c 0.169,0.076 0.426,0.231 0.853,0.533"
         id="path982" />
      <path
         style="fill:none;stroke:#ffffff;stroke-width:0.1;stroke-linecap:butt;stroke-linejoin:round;stroke-miterlimit:4;stroke-dasharray:none;stroke-opacity:1"
         d="m 130.129,154.526 c -0.093,-0.116 -0.144,-0.235 -0.213,-0.322 -0.264,-0.334 -0.168,-0.578 -0.015,-0.804 0.117,-0.172 0.231,-0.363 0.344,-0.555"
         id="path984" />
      <path
         style="fill:none;stroke:#ffffff;stroke-width:0.1;stroke-linecap:butt;stroke-linejoin:round;stroke-miterlimit:4;stroke-dasharray:none;stroke-opacity:1"
         d="m 129.988,152.695 -0.421,0.737 c -0.079,0.138 -0.196,0.412 -0.075,0.634 l 0.17,0.314 0.25,-0.167"
         id="path986" />
      <path
         style="fill:none;stroke:#ffffff;stroke-width:0.1;stroke-linecap:butt;stroke-linejoin:round;stroke-miterlimit:4;stroke-dasharray:none;stroke-opacity:1"
         d="m 131.79,155.829 1.206,1.281"
         id="path992" />
    </g>
    <g
       id="g1017"
       style="display:inline;fill:none;stroke:#ffffff;stroke-width:0.1;stroke-linejoin:round;stroke-miterlimit:4;stroke-dasharray:none"
       inkscape:export-xdpi="84.849998"
       inkscape:export-ydpi="84.849998">
      <path
         style="fill:none;stroke:#ffffff;stroke-width:0.1;stroke-linecap:round;stroke-linejoin:round;stroke-miterlimit:4;stroke-dasharray:none"
         id="path1003"
         d="m 123.749,151.857 c -0.86,0.808 -1.177,1.841 -0.868,2.827 0.309,0.987 1.212,1.829 2.474,2.306" />
      <path
         style="fill:none;stroke:#ffffff;stroke-width:0.1;stroke-linecap:round;stroke-linejoin:round;stroke-miterlimit:4;stroke-dasharray:none"
         id="path1005"
         d="m 124.104,152.352 c -0.542,0.513 -0.802,1.128 -0.737,1.747" />
      <path
         style="fill:none;stroke:#ffffff;stroke-width:0.1;stroke-linecap:round;stroke-linejoin:round;stroke-miterlimit:4;stroke-dasharray:none"
         id="path1007"
         d="m 123.922,152.12 c -0.604,0.576 -0.899,1.273 -0.837,1.977" />
      <path
         style="fill:none;stroke:#ffffff;stroke-width:0.1;stroke-linecap:round;stroke-linejoin:round;stroke-miterlimit:4;stroke-dasharray:none;stroke-opacity:1"
         d="m 125.547,152.583 c -0.169,0.076 -0.426,0.231 -0.854,0.533"
         id="path1009" />
      <path
         style="fill:none;stroke:#ffffff;stroke-width:0.1;stroke-linecap:butt;stroke-linejoin:round;stroke-miterlimit:4;stroke-dasharray:none;stroke-opacity:1"
         d="m 125.218,154.526 c 0.093,-0.116 0.144,-0.235 0.213,-0.322 0.264,-0.334 0.168,-0.578 0.014,-0.804 -0.116,-0.172 -0.23,-0.363 -0.343,-0.555"
         id="path1011" />
      <path
         style="fill:none;stroke:#ffffff;stroke-width:0.1;stroke-linecap:butt;stroke-linejoin:round;stroke-miterlimit:4;stroke-dasharray:none;stroke-opacity:1"
         d="m 125.359,152.695 0.421,0.737 c 0.079,0.138 0.195,0.412 0.075,0.634 l -0.17,0.314 -0.25,-0.167"
         id="path1013" />
      <path
         style="fill:none;stroke:#ffffff;stroke-width:0.1;stroke-linecap:butt;stroke-linejoin:round;stroke-miterlimit:4;stroke-dasharray:none;stroke-opacity:1"
         d="m 123.556,155.829 -1.205,1.281"
         id="path1015" />
    </g>
    <path
       style="display:inline;fill:none;stroke:#ffffff;stroke-width:0.1;stroke-linecap:butt;stroke-linejoin:round;stroke-miterlimit:4;stroke-dasharray:none;stroke-opacity:1"
       d="m 123.65996,151.7202 1.033,1.396"
       id="path1021" />
    <path
       style="display:inline;fill:none;stroke:#ffffff;stroke-width:0.1;stroke-linecap:butt;stroke-linejoin:round;stroke-miterlimit:4;stroke-dasharray:none;stroke-opacity:1"
       d="m 130.65296,153.1162 c 0.315,-0.419 1.052,-1.403 1.042,-1.388"
       id="path1023" />
    <path
       style="display:inline;fill:none;stroke:#ffffff;stroke-width:0.1;stroke-linecap:round;stroke-linejoin:round;stroke-miterlimit:4;stroke-dasharray:none"
       id="path1025"
       d="m 132.76396,157.5662 c -0.453,0.411 -0.98,0.765 -1.563,1.05" />
    <path
       style="display:inline;fill:none;stroke:#ffffff;stroke-width:0.1;stroke-linecap:round;stroke-linejoin:round;stroke-miterlimit:4;stroke-dasharray:none"
       id="ellipse1027"
       d="m 124.16196,158.6232 c -0.583,-0.283 -1.11,-0.635 -1.563,-1.044" />
    <path
       style="display:inline;fill:none;stroke:#ffffff;stroke-width:0.1;stroke-linecap:butt;stroke-linejoin:round;stroke-miterlimit:4;stroke-dasharray:none;stroke-opacity:1"
       d="m 125.17596,159.0672 c -0.428,-0.152 -0.399,-0.464 -0.29,-0.805 l 0.482,-1.269"
       id="path1039" />
    <path
       style="display:inline;fill:none;stroke:#ffffff;stroke-width:0.1;stroke-linecap:butt;stroke-linejoin:round;stroke-miterlimit:4;stroke-dasharray:none;stroke-opacity:1"
       d="m 123.36696,154.0992 -2.34,0.217"
       id="path1154" />
    <path
       style="display:inline;fill:none;stroke:#ffffff;stroke-width:0.1;stroke-linecap:butt;stroke-linejoin:round;stroke-miterlimit:4;stroke-dasharray:none;stroke-opacity:1"
       d="m 131.45096,159.1422 -0.25,-0.526"
       id="path1158" />
    <path
       style="display:inline;fill:none;stroke:#ffffff;stroke-width:0.1;stroke-linecap:butt;stroke-linejoin:round;stroke-miterlimit:4;stroke-dasharray:none;stroke-opacity:1"
       d="m 123.93296,159.1592 0.229,-0.536"
       id="path1160" />
    <path
       style="display:inline;fill:none;stroke:#ffffff;stroke-width:0.1;stroke-linecap:round;stroke-linejoin:round;stroke-miterlimit:4;stroke-dasharray:none"
       id="path1242"
       d="m 130.12896,154.5262 c -0.352,0.228 -0.711,0.406 -1.075,0.534" />
    <path
       style="display:inline;fill:none;stroke:#ffffff;stroke-width:0.1;stroke-linecap:round;stroke-linejoin:round;stroke-miterlimit:4;stroke-dasharray:none"
       id="path1250"
       d="m 134.21696,151.0792 c 0.334,0.52 0.573,1.077 0.712,1.653" />
  </g>
  <g
     inkscape:groupmode="layer"
     id="layer2"
     inkscape:label="wall"
     style="display:inline;opacity:1"
     transform="translate(-119.6863,-147.20121)">
    <path
       style="display:inline;fill:none;stroke:#ffffff;stroke-width:0.18;stroke-linecap:round;stroke-linejoin:round;stroke-miterlimit:4;stroke-dasharray:none"
       id="path1256"
       d="m 121.49596,150.2982 c 0.986,-1.139 2.408,-1.973 4.039,-2.367" />
    <path
       style="display:inline;fill:none;stroke:#ffffff;stroke-width:0.18;stroke-linecap:round;stroke-linejoin:round;stroke-miterlimit:4;stroke-dasharray:none"
       id="path1258"
       d="m 122.09496,158.1362 c -1.453,-1.299 -2.169,-3.043 -1.971,-4.8" />
    <g
       id="g1304"
       style="display:inline;mix-blend-mode:normal;stroke:#ffffff;stroke-width:0.18;stroke-miterlimit:4;stroke-dasharray:none"
       inkscape:export-xdpi="84.849998"
       inkscape:export-ydpi="84.849998">
      <path
         style="fill:none;stroke:#ffffff;stroke-width:0.18;stroke-linecap:round;stroke-linejoin:round;stroke-miterlimit:4;stroke-dasharray:none"
         id="path1292"
         d="m 133.845,150.298 c -0.985,-1.139 -2.408,-1.973 -4.039,-2.367" />
      <path
         style="fill:none;stroke:#ffffff;stroke-width:0.18;stroke-linecap:round;stroke-linejoin:round;stroke-miterlimit:4;stroke-dasharray:none"
         id="path1294"
         d="m 133.246,158.136 c 1.454,-1.299 2.17,-3.043 1.971,-4.8" />
      <path
         style="fill:none;stroke:#ffffff;stroke-width:0.18;stroke-linecap:butt;stroke-linejoin:miter;stroke-miterlimit:4;stroke-dasharray:none;stroke-opacity:1"
         d="m 135.217,153.336 -0.187,0.005"
         id="path1296" />
      <path
         style="fill:none;stroke:#ffffff;stroke-width:0.18;stroke-linecap:butt;stroke-linejoin:miter;stroke-miterlimit:4;stroke-dasharray:none;stroke-opacity:1"
         d="m 133.135,158.008 0.111,0.128"
         id="path1298" />
      <path
         style="fill:#ff0000;stroke:#ffffff;stroke-width:0.18;stroke-linecap:butt;stroke-linejoin:miter;stroke-miterlimit:4;stroke-dasharray:none;stroke-opacity:1"
         d="m 133.73,150.43 0.115,-0.132"
         id="path1300" />
      <path
         style="fill:none;stroke:#ffffff;stroke-width:0.18;stroke-linecap:butt;stroke-linejoin:miter;stroke-miterlimit:4;stroke-dasharray:none;stroke-opacity:1"
         d="m 129.768,148.082 0.038,-0.151"
         id="path1302" />
    </g>
    <path
       style="display:inline;fill:none;stroke:#ffffff;stroke-width:0.18;stroke-linecap:round;stroke-linejoin:round;stroke-miterlimit:4;stroke-dasharray:none"
       id="path849"
       d="m 121.30296,150.8252 c 0.096,-0.135 0.199,-0.267 0.309,-0.395" />
    <path
       style="display:inline;fill:none;stroke:#ffffff;stroke-width:0.18;stroke-linecap:round;stroke-linejoin:round;stroke-miterlimit:4;stroke-dasharray:none"
       id="ellipse960"
       d="m 131.81096,159.9542 c -2.565,1.188 -5.696,1.19 -8.263,0.005" />
    <path
       style="display:inline;fill:none;stroke:#ffffff;stroke-width:0.18;stroke-linecap:round;stroke-linejoin:round;stroke-miterlimit:4;stroke-dasharray:none"
       id="path974"
       d="m 120.31096,153.3412 c 0.012,-0.101 0.027,-0.202 0.044,-0.302" />
    <path
       style="display:inline;fill:none;stroke:#ffffff;stroke-width:0.18;stroke-linecap:butt;stroke-linejoin:round;stroke-miterlimit:4;stroke-dasharray:none;stroke-opacity:1"
       d="m 131.81096,159.9542 -0.36,-0.812"
       id="path1031" />
    <path
       style="display:inline;fill:none;stroke:#ffffff;stroke-width:0.18;stroke-linecap:butt;stroke-linejoin:round;stroke-miterlimit:4;stroke-dasharray:none;stroke-opacity:1"
       d="m 123.93296,159.1592 -0.385,0.8"
       id="path1037" />
    <path
       style="display:inline;fill:none;stroke:#ffffff;stroke-width:0.18;stroke-linecap:butt;stroke-linejoin:round;stroke-miterlimit:4;stroke-dasharray:none;stroke-opacity:1"
       d="m 121.30296,150.8252 v 0 c 0,0 -0.115,-0.084 -0.257,0.028 -0.203,0.161 -0.782,1.205 -0.804,1.892 -0.004,0.109 -0.03,0.267 0.113,0.294"
       id="path1156" />
    <path
       style="display:inline;fill:none;stroke:#ffffff;stroke-width:0.18;stroke-linecap:round;stroke-linejoin:round;stroke-miterlimit:4;stroke-dasharray:none"
       id="path1244"
       d="m 125.57396,148.0822 c 1.37,-0.334 2.829,-0.334 4.199,0" />
    <path
       style="display:inline;fill:none;stroke:#ffffff;stroke-width:0.18;stroke-linecap:round;stroke-linejoin:round;stroke-miterlimit:4;stroke-dasharray:none"
       id="path1252"
       d="m 133.13796,158.0112 c -0.49,0.442 -1.056,0.822 -1.68,1.127" />
    <path
       style="display:inline;fill:none;stroke:#ffffff;stroke-width:0.18;stroke-linecap:round;stroke-linejoin:round;stroke-miterlimit:4;stroke-dasharray:none"
       id="path1254"
       d="m 123.93296,159.1592 c -0.643,-0.31 -1.225,-0.698 -1.726,-1.151" />
    <path
       style="display:inline;fill:none;stroke:#ffffff;stroke-width:0.18;stroke-linecap:round;stroke-linejoin:round;stroke-miterlimit:4;stroke-dasharray:none"
       id="path958"
       d="m 134.24796,151.1312 c 0.078,-0.729 0.612,-1.315 1.307,-1.434 0.695,-0.119 1.381,0.258 1.68,0.923 0.298,0.664 0.135,1.454 -0.398,1.933 -0.533,0.479 -1.308,0.53 -1.895,0.125" />
    <path
       style="display:inline;fill:none;stroke:#ffffff;stroke-width:0.18;stroke-linecap:round;stroke-linejoin:round;stroke-miterlimit:4;stroke-dasharray:none"
       id="path1246"
       d="m 133.73196,150.4242 c 0.192,0.226 0.365,0.462 0.519,0.707" />
    <path
       style="display:inline;fill:none;stroke:#ffffff;stroke-width:0.18;stroke-linecap:round;stroke-linejoin:round;stroke-miterlimit:4;stroke-dasharray:none"
       id="path1248"
       d="m 134.91796,152.6872 c 0.054,0.215 0.093,0.432 0.119,0.651" />
    <g
       id="g1290"
       style="display:inline;stroke:#ffffff;stroke-width:0.18;stroke-miterlimit:4;stroke-dasharray:none"
       inkscape:export-xdpi="84.849998"
       inkscape:export-ydpi="84.849998">
      <path
         style="fill:none;stroke:#ffffff;stroke-width:0.18;stroke-linecap:butt;stroke-linejoin:miter;stroke-miterlimit:4;stroke-dasharray:none;stroke-opacity:1"
         d="m 120.124,153.336 0.187,0.005"
         id="path1274" />
      <path
         style="fill:none;stroke:#ffffff;stroke-width:0.18;stroke-linecap:butt;stroke-linejoin:miter;stroke-miterlimit:4;stroke-dasharray:none;stroke-opacity:1"
         d="m 122.207,158.008 -0.112,0.128"
         id="path1278" />
      <path
         style="fill:#ff0000;stroke:#ffffff;stroke-width:0.18;stroke-linecap:butt;stroke-linejoin:miter;stroke-miterlimit:4;stroke-dasharray:none;stroke-opacity:1"
         d="m 121.612,150.43 -0.116,-0.132"
         id="path1280" />
      <path
         style="fill:none;stroke:#ffffff;stroke-width:0.18;stroke-linecap:butt;stroke-linejoin:miter;stroke-miterlimit:4;stroke-dasharray:none;stroke-opacity:1"
         d="m 125.574,148.082 -0.039,-0.151"
         id="path1282" />
    </g>
  </g>
  <g
     inkscape:groupmode="layer"
     id="layer4"
     inkscape:label="CHAIRS"
     style="display:inline"
     transform="translate(-119.6863,-147.20121)">
    <rect
       style="display:inline;fill:none;fill-opacity:1;stroke:#ffffff;stroke-width:0.0500171;stroke-linecap:round;stroke-linejoin:round;stroke-miterlimit:4;stroke-dasharray:none"
       id="rect1041"
       width="0.4786022007"
       height="0.5523864627"
       x="28.23066521"
       y="201.7971191"
       rx="1"
       ry="0.1000000015"
       transform="matrix(0.82790113,-0.56087406,0.52984976,0.84809152,0,0)" />
    <rect
       style="display:inline;fill:none;fill-opacity:1;stroke:#ffffff;stroke-width:0.0500181;stroke-linecap:round;stroke-linejoin:round;stroke-miterlimit:4;stroke-dasharray:none"
       id="rect1041-2"
       width="0.4792053103"
       height="0.5517120361"
       x="21.5763073"
       y="204.8695679"
       rx="1"
       ry="0.1000000015"
       transform="matrix(0.80862846,-0.58831965,0.55715793,0.83040655,0,0)" />
    <rect
       style="display:inline;fill:none;fill-opacity:1;stroke:#ffffff;stroke-width:0.0500196;stroke-linecap:round;stroke-linejoin:round;stroke-miterlimit:4;stroke-dasharray:none"
       id="rect1041-28"
       width="0.4846459031"
       height="0.5455513597"
       x="-34.48989105"
       y="200.8161163"
       rx="1"
       ry="0.1000000015"
       transform="matrix(0.61209437,-0.79078472,0.76595448,0.6428948,0,0)" />
    <rect
       style="display:inline;fill:none;fill-opacity:1;stroke:#ffffff;stroke-width:0.0500013;stroke-linecap:round;stroke-linejoin:round;stroke-miterlimit:4;stroke-dasharray:none"
       id="rect1041-0"
       width="0.4919297695"
       height="0.53708148"
       x="-135.6859283"
       y="151.6165314"
       rx="1"
       ry="0.1000000015"
       transform="matrix(0.12346102,-0.99234942,0.99102212,0.13369802,0,0)" />
    <rect
       style="display:inline;fill:none;fill-opacity:1;stroke:#ffffff;stroke-width:0.0500192;stroke-linecap:round;stroke-linejoin:round;stroke-miterlimit:4;stroke-dasharray:none"
       id="rect1041-5"
       width="0.480137974"
       height="0.5506657958"
       x="195.7295685"
       y="33.91878128"
       rx="1"
       ry="0.1000000015"
       transform="matrix(0.77803521,0.62822067,-0.597236,0.80206556,0,0)" />
    <rect
       style="display:inline;fill:none;fill-opacity:1;stroke:#ffffff;stroke-width:0.0500089;stroke-linecap:round;stroke-linejoin:round;stroke-miterlimit:4;stroke-dasharray:none"
       id="rect1041-56"
       width="0.4751607478"
       height="0.5562033653"
       x="173.0188293"
       y="91.68306732"
       rx="1"
       ry="0.1000000015"
       transform="matrix(0.93150518,0.36372806,-0.3387969,0.94085953,0,0)" />
    <rect
       style="display:inline;fill:none;fill-opacity:1;stroke:#ffffff;stroke-width:0.0500171;stroke-linecap:round;stroke-linejoin:round;stroke-miterlimit:4;stroke-dasharray:none"
       id="rect1138"
       width="0.4786022007"
       height="0.5523864627"
       x="-188.4380188"
       y="58.50587082"
       rx="1"
       ry="0.1000000015"
       transform="matrix(-0.82790113,-0.56087406,-0.52984976,0.84809152,0,0)" />
    <rect
       style="display:inline;fill:none;fill-opacity:1;stroke:#ffffff;stroke-width:0.0500181;stroke-linecap:round;stroke-linejoin:round;stroke-miterlimit:4;stroke-dasharray:none"
       id="rect1140"
       width="0.4792053103"
       height="0.5517120361"
       x="-190.5825348"
       y="54.56086349"
       rx="1"
       ry="0.1000000015"
       transform="matrix(-0.80862846,-0.58831965,-0.55715793,0.83040655,0,0)" />
    <rect
       style="display:inline;fill:none;fill-opacity:1;stroke:#ffffff;stroke-width:0.0500196;stroke-linecap:round;stroke-linejoin:round;stroke-miterlimit:4;stroke-dasharray:none"
       id="rect1142"
       width="0.4846459031"
       height="0.5455513597"
       x="-198.7515717"
       y="-1.231963634"
       rx="1"
       ry="0.1000000015"
       transform="matrix(-0.61209437,-0.79078472,-0.76595448,0.6428948,0,0)" />
    <rect
       style="display:inline;fill:none;fill-opacity:1;stroke:#ffffff;stroke-width:0.0500013;stroke-linecap:round;stroke-linejoin:round;stroke-miterlimit:4;stroke-dasharray:none"
       id="rect1144"
       width="0.4919297695"
       height="0.53708148"
       x="-169.8214569"
       y="-101.7473068"
       rx="1"
       ry="0.1000000015"
       transform="matrix(-0.12346102,-0.99234942,-0.99102212,0.13369802,0,0)" />
    <rect
       style="display:inline;fill:none;fill-opacity:1;stroke:#ffffff;stroke-width:0.0500192;stroke-linecap:round;stroke-linejoin:round;stroke-miterlimit:4;stroke-dasharray:none"
       id="rect1146"
       width="0.480137974"
       height="0.5506657958"
       x="-9.197869301"
       y="194.4289246"
       rx="2.64585948"
       ry="0.1000000015"
       transform="matrix(-0.77803521,0.62822067,0.597236,0.80206556,0,0)" />
    <rect
       style="display:inline;fill:none;fill-opacity:1;stroke:#ffffff;stroke-width:0.0500089;stroke-linecap:round;stroke-linejoin:round;stroke-miterlimit:4;stroke-dasharray:none"
       id="rect1148"
       width="0.4751607478"
       height="0.5562033653"
       x="-67.27082825"
       y="184.5770874"
       rx="1"
       ry="0.1000000015"
       transform="matrix(-0.93150518,0.36372806,0.3387969,0.94085953,0,0)" />
    <rect
       style="display:inline;fill:none;fill-opacity:1;stroke:#ffffff;stroke-width:0.0500008;stroke-linecap:round;stroke-linejoin:round;stroke-miterlimit:4;stroke-dasharray:none"
       id="rect1150"
       width="0.4729120433"
       height="0.558668375"
       x="-141.5675201"
       y="139.6345673"
       rx="1"
       ry="0.1000000015"
       transform="matrix(-0.99446399,-0.10507796,-0.09698259,0.99528608,0,0)" />
    <rect
       style="display:inline;fill:none;fill-opacity:1;stroke:#ffffff;stroke-width:0.0500008;stroke-linecap:round;stroke-linejoin:round;stroke-miterlimit:4;stroke-dasharray:none"
       id="rect1041-9-7"
       width="0.4729120433"
       height="0.558668375"
       x="112.5405502"
       y="166.4545441"
       rx="1"
       ry="0.1000000015"
       transform="matrix(0.99446399,-0.10507796,0.09698259,0.99528608,0,0)" />
    <rect
       style="display:inline;fill:none;fill-opacity:1;stroke:#ffffff;stroke-width:0.05;stroke-linecap:round;stroke-linejoin:round;stroke-miterlimit:4;stroke-dasharray:none"
       id="rect1240"
       width="0.8481553197"
       height="0.984842062"
       x="127.2311096"
       y="150.8341827"
       rx="1"
       ry="0.1000000015" />
  </g>
</svg>
