<?xml version="1.0" encoding="UTF-8" standalone="no"?>
<svg
   version="1.0"
   width="902.000000pt"
   height="1735.000000pt"
   viewBox="0 0 902.000000 1735.000000"
   preserveAspectRatio="xMidYMid meet"
   id="svg1"
   sodipodi:docname="troi.svg"
   inkscape:version="1.3.1 (91b66b0783, 2023-11-16)"
   xmlns:inkscape="http://www.inkscape.org/namespaces/inkscape"
   xmlns:sodipodi="http://sodipodi.sourceforge.net/DTD/sodipodi-0.dtd"
   xmlns="http://www.w3.org/2000/svg"
   xmlns:svg="http://www.w3.org/2000/svg">
  <defs
     id="defs1" />
  <metadata
     id="metadata1">
Created by potrace 1.16, written by Peter Selinger 2001-2019
</metadata>
  <sodipodi:namedview
     pagecolor="#222"
     bordercolor="#666666"
     inkscape:deskcolor="#444"
     id="namedview1"
     borderopacity="1.0"
     inkscape:showpageshadow="2"
     inkscape:pageopacity="0.0"
     inkscape:pagecheckerboard="0"
     inkscape:document-units="pt"
     inkscape:zoom="0.1311306092"
     inkscape:cx="-122.0157528"
     inkscape:cy="2264.917411"
     inkscape:window-width="1727"
     inkscape:window-height="1057"
     inkscape:window-x="-8"
     inkscape:window-y="-8"
     inkscape:window-maximized="1"
     inkscape:current-layer="svg1" />
  <rect
     width="100%"
     height="100%"
     x="0"
     y="0"
     fill="black"
     id="rect1" />
  <path
     d="m 18.92071836,10.44828704 c -2.81804679,2.8180468 -3.01933585,215.78186876 -0.40257811,359.90483336 1.81160151,97.4239035 9.05800755,297.7065149 13.48636679,371.3783096 0.40257812,8.8567185 1.20773435,25.1611321 1.4090234,36.2320302 2.21417963,79.9117556 6.0386717,142.5126522 17.31085888,281.8046798 3.82449208,48.711951 6.0386717,89.171052 6.0386717,113.728317 0.20128906,13.888945 1.4090234,34.621717 3.22062491,46.296483 1.61031245,11.674765 3.82449207,26.972733 4.83093736,34.219139 1.00644528,7.246406 3.62320302,23.752109 6.0386717,36.835898 2.21417962,13.285077 4.02578113,30.394647 4.02578113,38.24492 0,8.051563 1.4090234,24.959844 3.01933585,37.641054 1.61031246,12.681211 4.02578114,33.011405 5.23351548,45.290038 1.20773434,12.077343 3.42191396,28.180468 4.83093736,35.628163 1.61031245,7.447695 3.82449207,24.154687 5.03222642,37.238475 2.81804679,31.803671 3.42191396,37.037187 7.04511697,56.964803 1.6103125,9.460586 3.0193359,21.739219 3.0193359,27.375312 0,5.837383 1.8116015,19.32375 4.0257811,29.99207 2.2141796,11.070898 4.0257811,27.5766 4.0257811,38.043631 0,10.064453 1.8116015,27.77789 3.8244921,39.452655 2.2141796,11.674766 4.6296483,27.77789 5.2335155,35.628163 0.8051562,8.252852 2.6167577,15.700547 4.2270702,16.908281 2.8180468,2.415469 12.0773434,2.012891 60.1854279,-2.01289 14.4928121,-1.207735 49.718397,-3.019336 78.5027321,-4.227071 28.7843351,-1.207734 56.3609359,-3.019335 61.3931623,-4.22707 5.0322264,-1.006445 32.2062491,-2.818047 60.386717,-3.824492 28.180468,-1.006445 57.7699593,-2.818047 65.4189435,-3.824492 7.8502732,-1.207734 39.050077,-3.019336 69.4447245,-4.025781 61.5944514,-2.415469 83.1323804,-4.025781 90.3787865,-6.642539 2.6167577,-1.006445 31.1998038,-2.616758 63.4060528,-3.623203 32.2062491,-1.207734 65.4189435,-2.818047 73.6717948,-4.025781 18.1160151,-2.415469 91.3852317,-6.038672 120.3708559,-6.038672 h 20.5314838 v -29.79078 c 0,-16.304414 -0.8051562,-32.810116 -2.0128906,-36.634608 -1.0064453,-3.824493 -3.4219139,-20.934062 -5.0322264,-38.244921 -1.8116015,-17.10957 -4.8309374,-38.244921 -7.045117,-46.699061 -2.4154687,-9.661875 -4.0257811,-22.343086 -4.0257811,-33.212695 0,-9.863164 -1.8116015,-27.576601 -4.0257811,-39.653944 -2.2141797,-12.077343 -4.0257812,-28.381757 -4.0257812,-36.23203 0,-8.454141 -1.6103124,-19.32375 -4.0257811,-26.771445 -3.8244921,-12.479921 -7.6489842,-43.679725 -7.8502732,-65.217654 0,-6.239961 -1.0064453,-13.687656 -2.0128906,-16.505703 -1.2077343,-3.019336 -2.6167577,-11.473476 -3.421914,-18.921171 -0.6038671,-7.648984 -3.0193358,-22.745663 -5.2335154,-33.816562 -2.2141797,-11.070898 -4.8309374,-32.407538 -5.8373827,-47.302928 -0.8051562,-14.89539 -2.6167577,-31.803671 -3.623203,-37.641053 -2.2141796,-11.674766 -3.2206249,-29.99207 -6.2399608,-100.241951 -1.2077343,-26.570155 -3.0193358,-56.562225 -4.0257811,-66.425388 -1.0064453,-10.064453 -3.421914,-38.0436321 -5.2335155,-62.399608 -1.6103124,-24.1546868 -3.4219139,-44.6861706 -4.0257811,-45.4913268 -0.4025781,-0.6038672 -1.2077343,-17.9147261 -1.8116015,-38.2449208 -2.8180468,-84.7426929 -4.6296483,-98.0277706 -17.713437,-123.7927699 -2.8180468,-5.4348045 -8.6554294,-19.1224603 -13.0837887,-29.9920694 -4.4283592,-11.0708981 -15.4992573,-35.628163 -24.5572649,-54.3480453 -20.1289057,-41.6668347 -21.33664,-48.3093736 -13.2850777,-77.2949978 4.6296483,-17.5121479 4.8309373,-19.1224604 1.8116015,-21.33664 -3.0193359,-2.2141796 -2.0128906,-7.4476951 11.4734762,-60.1854279 13.4863668,-51.9325767 15.2979683,-57.5686703 19.1224604,-57.5686703 3.623203,0 4.6296483,-2.2141796 7.045117,-14.6941011 2.2141796,-11.4734762 2.8180468,-36.2320302 2.4154687,-123.1889027 C 781.2023761,131.020432 779.3907746,44.46613763 776.1701497,41.44680178 772.7482357,38.02488781 761.2747595,36.61586442 713.9718311,34.20039574 693.0377692,32.99266139 659.8250749,31.38234894 640.5013254,30.1746146 621.177576,29.16816932 581.3223428,27.75914592 551.9341405,27.15527875 522.5459382,26.55141158 481.4829707,24.73981007 460.3476197,23.12949762 439.4135578,21.51918516 379.0268408,19.30500554 326.490397,18.0972712 273.9539532,16.88953686 211.9569237,15.07793535 188.6073932,13.87020101 165.4591516,12.86375572 131.4413011,11.45473233 113.1239969,11.05215421 94.80669274,10.44828704 66.6262248,9.643130818 50.52310026,9.039263648 29.99161648,8.435396477 20.53103081,8.837974591 18.92071836,10.44828704 Z M 157.4075894,38.42746593 c 28.1804679,1.20773434 52.7377328,3.01933585 54.3480453,4.02578113 2.6167577,1.4090234 2.6167577,1.81160151 0,2.01289057 -1.6103125,0 -5.2335155,0.40257811 -8.0515623,0.80515622 -9.8631638,1.20773434 -100.2419502,5.03222642 -131.84433213,5.43480453 L 39.6534912,51.30996555 39.04962403,45.67387197 c -1.20773434,-10.66832001 0.80515623,-11.27218718 35.42687398,-10.46703095 17.31085887,0.60386717 54.75062339,2.01289057 82.93109139,3.22062491 z m 220.0089389,8.05156226 c 22.3430853,1.20773434 44.6861706,2.61675774 49.718397,3.42191397 l 9.0580076,1.40902339 0.6038672,19.72632756 c 0.4025781,16.70699171 1.0064453,19.72632756 4.4283592,21.53792907 4.8309374,2.61675774 47.1016393,5.43480453 104.6703095,7.24640604 55.5557796,1.61031248 52.7377329,3.01933588 51.9325766,-24.1546868 l -0.6038671,-18.31730416 h 22.1417962 c 55.7570687,0.20128905 133.8572227,3.62320302 135.8701133,6.0386717 2.6167577,3.01933585 1.8116015,364.13190354 -0.8051563,370.97573154 -1.4090234,3.824492 -1.0064452,4.8309373 2.4154687,5.6360935 3.8244921,1.2077344 3.8244921,2.0128906 -4.8309373,35.6281631 -21.7392182,84.3401147 -21.135351,81.9246461 -25.7649993,81.9246461 -4.0257811,0 -5.0322264,2.0128905 -8.0515623,15.4992573 -2.0128905,8.6554295 -5.6360936,22.5443744 -8.2528513,30.7972257 -2.4154687,8.2528513 -5.4348045,20.5314838 -6.6425389,27.1740227 -1.0064452,6.6425388 -4.8309373,21.1353509 -8.0515622,32.206249 -3.421914,11.0708981 -10.0644529,36.4333193 -14.6941012,56.3609359 -10.2657419,44.2835925 -12.8824996,50.9261313 -19.7263275,53.7441781 -2.8180468,1.0064453 -16.9082808,2.4154687 -30.9985148,3.0193359 -20.1289056,1.0064453 -26.7714445,2.0128906 -30.1933585,4.6296483 -4.0257811,3.421914 -4.2270702,3.623203 -0.6038671,9.0580075 l 3.623203,5.4348046 31.8036709,-0.8051563 c 36.0307412,-0.6038671 37.4397646,-0.201289 48.9132408,15.7005465 18.7198823,25.7649992 24.758554,33.4139834 46.9003502,60.588006 13.4863668,16.5057027 25.9662884,32.8101163 27.5766008,36.2320302 1.8116015,3.421914 8.0515623,10.66832 13.6876559,16.1031246 5.6360935,5.2335155 11.4734762,12.0773434 12.8824996,14.8953902 6.4412498,12.4799215 10.8696091,54.1467562 14.8953902,142.7139416 3.0193358,65.016365 2.8180468,79.509177 -0.2012891,82.125935 -1.6103124,1.207734 -14.0902339,2.818047 -28.583046,3.623203 -17.9147261,1.006445 -26.5701555,2.214179 -28.5830461,4.22707 -3.8244921,3.824492 -3.623203,5.837383 1.4090234,10.869609 4.2270702,4.22707 5.6360936,4.428359 30.1933585,3.220625 18.1160151,-0.805156 26.3688665,-0.402578 28.381757,1.207734 1.8116015,1.610313 3.8244921,10.064453 5.4348046,22.544375 1.2077343,11.070898 3.824492,26.368866 5.4348045,34.219139 1.8116015,7.648984 3.8244921,27.174023 4.8309373,43.277147 1.0064453,16.103125 4.6296483,46.296483 8.0515623,67.431834 3.421914,20.934062 7.045117,49.315819 8.0515623,63.003475 1.0064453,13.687656 2.8180468,28.180468 3.8244921,32.206249 2.4154686,8.454141 10.66832,75.684686 11.0708981,87.963318 0.201289,7.447695 -0.2012891,7.850273 -6.843828,9.259297 -3.824492,0.805156 -28.3817569,2.01289 -54.3480453,2.818046 -49.5171079,1.207735 -84.7426928,3.824492 -101.6509736,7.045117 -5.4348045,1.207735 -34.0178506,2.818047 -63.4060529,3.824492 -29.3882022,1.006446 -55.7570687,2.616758 -58.5751155,3.824493 -5.0322264,2.01289 -5.4348045,3.019335 -6.2399607,18.921171 -0.8051562,13.687656 0.4025781,48.108084 3.0193358,89.171052 l 0.4025782,6.038672 -39.2513661,1.409023 c -21.5379291,0.805156 -50.9261313,2.616758 -65.4189434,3.824492 -52.5364438,4.428359 -74.476951,5.434805 -77.898865,3.623203 -4.4283592,-2.415468 -7.6489841,-13.888945 -7.6489841,-26.972733 0,-5.636094 -2.2141797,-23.752109 -4.8309374,-40.257812 -2.6167577,-16.706991 -5.4348045,-38.44621 -6.2399607,-48.309373 -0.6038672,-10.064453 -3.0193359,-28.180468 -5.2335155,-40.257812 -4.4283593,-25.966288 -4.8309374,-34.01785 -1.2077344,-36.835897 1.2077344,-1.207734 7.045117,-3.824492 12.6812106,-6.038672 21.135351,-7.850273 48.5106627,-31.803671 57.5686702,-49.919686 6.0386717,-11.876054 14.8953902,-38.848788 16.7069917,-50.523553 1.6103125,-9.661875 -3.4219139,-38.244921 -9.2592966,-53.744178 -5.8373826,-16.103125 -19.9276166,-34.621718 -35.2255849,-46.90035 -20.5314838,-16.304414 -32.8101162,-21.33664 -61.7957404,-25.563711 l -16.5057027,-2.214179 -1.4090234,-8.051563 c -0.8051562,-4.428359 -1.4090233,-13.083788 -1.4090233,-19.12246 -0.2012891,-10.869609 0.201289,-11.473476 11.4734762,-23.752109 l 11.6747653,-12.479921 h 36.0307411 c 19.9276166,-0.201289 66.8279668,-1.811602 104.2677314,-3.824492 57.9712483,-3.019336 68.4382793,-4.025781 71.4576151,-7.045117 3.0193359,-3.019336 3.0193359,-3.824492 0.4025781,-8.856719 l -3.2206249,-5.434804 -32.00496,-0.603867 c -17.713437,-0.402578 -54.7506234,0.805156 -82.5285132,2.415468 -27.5766008,1.811602 -61.9970295,3.623203 -76.0872635,4.42836 l -25.9662883,1.207734 -7.8502732,-6.44125 c -16.3044136,-13.083789 -14.291523,-12.68121 -105.4754657,-11.272187 -88.768474,1.409023 -87.5607397,1.409023 -87.5607397,-8.856719 0,-7.045117 3.421914,-10.064452 11.8760544,-10.064452 10.2657419,-0.201289 39.050077,-4.629649 42.0694128,-6.642539 1.2077344,-1.006446 2.4154687,-5.233516 2.4154687,-9.661875 0,-19.525039 13.6876559,-36.030741 35.0242959,-42.471991 3.4219139,-1.006445 41.0629675,-7.648984 83.7362476,-14.89539 85.1452709,-14.291523 95.2097238,-17.310859 104.2677313,-30.797226 5.4348046,-8.252851 5.4348046,-14.694101 1.4090234,-60.5880059 -1.6103124,-18.3173042 -3.0193358,-40.0565223 -3.0193358,-48.3093736 0,-19.5250385 -3.8244921,-27.3753117 -16.1031246,-33.6152725 -12.8824996,-6.4412498 -30.9985147,-8.0515623 -118.7605434,-10.869609 -71.055037,-2.4154687 -77.898865,-3.0193359 -85.3465601,-6.6425389 -9.4605856,-4.8309374 -15.7005464,-13.2850778 -19.5250385,-26.5701555 -4.2270701,-14.4928121 -8.2528513,-16.1031245 -30.9985147,-12.8824996 -10.4670309,1.4090234 -20.3301947,2.0128905 -22.1417962,1.4090234 -4.2270702,-1.8116015 -3.8244921,-10.8696091 0.6038671,-13.2850778 1.8116016,-1.0064453 18.3173042,-1.8116015 36.6346084,-2.0128905 18.3173041,0 40.0565223,-0.6038672 48.3093736,-1.2077344 8.2528513,-0.6038672 28.7843351,-1.4090234 45.4913268,-2.0128906 36.4333193,-1.2077343 47.1016393,-4.0257811 60.1854279,-15.4992573 l 9.6618748,-8.4541404 69.6460136,-0.2012891 c 38.2449208,0 70.6524589,-0.8051562 71.8601932,-1.6103124 3.8244921,-2.2141796 5.2335155,-11.4734762 2.6167578,-14.8953902 -2.2141797,-2.4154687 -13.0837887,-2.8180468 -74.476951,-2.4154687 l -72.0614823,0.4025781 -8.8567185,-8.0515622 c -11.4734762,-10.467031 -19.1224604,-12.6812106 -47.7055064,-12.8824997 -12.6812106,-0.201289 -32.6088272,-0.8051562 -44.2835925,-1.6103124 -20.3301947,-1.2077344 -21.135351,-1.4090234 -23.7521087,-6.6425389 -1.8116015,-3.8244921 -3.421914,-31.803671 -5.6360936,-94.6058566 -6.2399608,-175.3227684 -6.4412498,-185.3872213 -3.0193359,-189.0104243 2.6167578,-2.8180468 10.8696091,-3.623203 45.4913269,-5.4348045 50.3222641,-2.4154687 62.6008966,-5.6360936 68.4382792,-17.713437 3.0193359,-6.4412498 3.0193359,-7.8502732 0.2012891,-17.5121479 -3.8244921,-12.8824997 -10.8696091,-20.7327729 -20.9340619,-23.3495306 -4.0257811,-1.0064453 -26.7714445,-2.2141796 -50.5235532,-3.0193359 -26.3688665,-0.6038671 -43.8810144,-1.8116015 -45.2900378,-3.2206249 -1.2077343,-1.2077343 -2.6167577,-17.3108588 -3.421914,-38.8487879 -2.4154686,-66.0228106 -6.4412498,-284.62272619 -5.2335154,-287.64206204 0.8051562,-2.61675774 7.8502732,-3.42191396 39.251366,-4.6296483 39.4526551,-1.4090234 47.1016393,-3.01933585 48.3093736,-10.06445284 1.6103125,-8.65542944 3.2206249,-9.05800755 42.8745691,-9.05800755 20.9340619,0 56.3609359,1.00644528 78.9053102,2.21417962 z m 156.8041752,9.66187473 c 31.4010929,1.00644528 44.4848815,2.21417962 46.9003502,4.22707019 2.2141796,1.81160151 3.0193359,5.23351547 2.6167578,11.87605434 l -0.6038672,9.25929661 -49.3158189,0.60386717 c -27.1740227,0.20128906 -56.1596468,-0.20128906 -64.4124981,-1.00644528 l -15.0966793,-1.61031246 -0.6038672,-9.66187472 c -0.4025781,-5.43480453 0.4025781,-11.07089812 1.8116015,-12.68121057 2.6167578,-3.22062491 11.6747653,-3.42191397 78.7040212,-1.00644528 z M 145.1289569,68.41953537 c 3.2206249,1.61031246 3.8244921,6.44124982 5.0322264,45.69261583 2.4154687,83.3336695 4.2270702,180.958862 4.2270702,231.0798371 v 50.3222642 l -29.1869132,0.6038672 c -16.1031245,0.4025781 -40.25781134,0 -53.9454672,-0.6038672 -20.73277284,-1.2077343 -24.95984303,-2.0128906 -26.57015548,-5.0322264 -1.20773434,-2.2141796 -2.41546868,-55.3544906 -3.01933585,-131.240465 C 41.0625146,189.1929694 40.05606931,118.9430886 39.45220214,103.0412531 38.64704592,80.49687878 39.04962403,74.25691802 41.0625146,73.45176179 c 1.40902339,-0.40257811 23.55081963,-2.21417962 48.91324077,-3.62320302 25.56371023,-1.61031245 47.50421743,-3.01933585 48.91324083,-3.22062491 1.4090233,0 4.2270701,0.60386717 6.2399607,1.81160151 z M 273.5513751,419.8702284 c 6.0386717,3.824492 6.0386717,11.8760543 0.201289,15.0966792 -7.0451169,3.8244921 -68.4382792,7.4476951 -149.35648,9.0580076 -84.13882573,1.4090234 -78.7040212,2.4154687 -80.91820082,-13.8889449 -2.41546868,-17.3108589 -10.86960907,-16.3044136 114.93605142,-14.6941012 92.592966,1.2077344 111.5141374,1.8116015 115.1373404,4.4283593 z m -116.1437857,46.9003502 c 1.0064453,2.2141796 2.0128905,11.8760543 2.0128905,21.7392181 0,9.6618747 1.0064453,30.7972257 2.0128906,46.9003502 3.623203,53.7441782 6.4412498,213.5676892 3.8244921,216.587025 -1.8116015,2.2141797 -12.4799215,2.8180468 -54.3480453,2.8180468 -47.50421741,0 -52.13386571,-0.4025781 -53.74417817,-3.623203 -1.00644528,-1.8116015 -2.41546868,-27.9791789 -3.2206249,-57.7699593 -0.60386717,-29.9920694 -2.21417963,-72.0614823 -3.42191397,-93.5994113 -4.02578113,-77.898865 -5.43480453,-129.8314416 -3.42191396,-132.2469103 2.01289056,-2.6167577 17.10956982,-3.421914 75.4833963,-4.2270702 30.3946475,-0.4025781 32.8101162,-0.201289 34.8230068,3.421914 z m 587.3614674,217.1908922 c 7.8502732,16.3044136 15.7005464,33.2126943 17.3108589,37.6410536 1.6103124,4.4283592 7.246406,17.5121479 12.8824996,29.1869132 l 9.8631638,21.1353509 1.6103125,31.1998038 c 0.8051562,17.1095698 1.6103124,38.848788 2.0128905,48.3093736 0.4025781,9.4605857 1.4090234,23.7521087 2.2141796,31.6023819 1.2077344,13.4863668 1.0064453,14.6941012 -2.4154686,14.6941012 -4.2270702,0 -16.5057027,-13.4863668 -34.2191397,-37.2384755 -16.5057026,-22.3430853 -37.8423426,-49.718397 -51.5299985,-66.2240997 -12.4799215,-14.8953902 -13.8889449,-19.9276166 -8.8567185,-31.8036709 2.8180468,-6.4412498 6.8438279,-20.9340619 15.0966793,-55.9583578 2.2141796,-9.4605857 5.0322264,-20.7327728 6.2399607,-25.1611321 1.0064453,-4.4283592 2.4154687,-11.4734762 3.0193359,-15.4992573 1.2077343,-8.2528514 5.8373826,-14.090234 9.8631638,-12.4799216 1.4090234,0.6038672 9.0580075,14.2915231 16.9082807,30.5959367 z M 290.862234,780.781507 c 10.2657419,8.4541404 -2.4154687,18.3173042 -23.7521087,18.3173042 -7.6489842,0 -34.8230068,1.4090234 -60.386717,3.0193358 -25.3624212,1.6103125 -68.6395684,3.0193359 -96.0148801,3.0193359 -47.10163925,0 -49.91968605,-0.2012891 -51.93257661,-3.8244921 -2.21417963,-4.4283592 -2.8180468,-20.9340619 -0.60386717,-23.1482415 0.80515622,-0.6038672 52.73773288,-1.0064453 115.33862948,-0.8051562 93.1968333,0.4025781 114.7347623,1.2077343 117.3515201,3.4219139 z M 94.60540368,827.6818572 c 1.00644528,1.6103125 2.41546868,23.3495306 3.22062491,49.9196861 1.20773434,48.1080846 3.01933581,80.3143336 8.25285131,151.9732377 1.6103125,22.141796 3.2206249,60.588006 3.421914,85.547849 l 0.6038671,45.290038 -10.86960902,0.603867 c -16.10312453,1.006445 -17.51214793,-1.006445 -19.12246038,-28.381757 -0.80515623,-12.278632 -2.41546868,-27.174023 -3.62320302,-32.608827 -1.00644529,-5.636094 -2.61675774,-38.647499 -3.62320303,-73.470506 -0.80515622,-34.8230065 -2.61675773,-72.6653492 -3.82449207,-83.9375364 -1.4090234,-11.4734762 -3.22062491,-33.6152724 -4.22707019,-49.3158189 -1.00644529,-15.9018354 -3.01933585,-36.2320302 -4.22707019,-45.4913268 -2.8180468,-21.5379291 -2.01289057,-22.5443743 17.31085887,-22.5443743 9.25929661,0 15.29796831,1.0064452 16.70699171,2.4154686 z m 49.51710792,28.9856242 c 1.8116015,0.6038672 6.4412498,6.4412498 10.2657419,12.8824996 7.6489842,12.6812106 18.3173042,23.1482416 26.9727336,26.5701555 8.6554295,3.2206249 78.100154,7.4476951 129.0262854,7.6489842 55.7570687,0.4025781 66.4253887,1.4090234 73.4705057,8.0515622 4.6296483,4.4283593 5.0322264,6.0386717 5.0322264,22.9469525 0,17.713437 4.4283592,63.808631 7.246406,77.0937086 3.623203,17.512148 -19.7263275,28.180468 -76.6911306,34.823007 -11.0708981,1.409023 -25.9662883,3.623203 -33.2126943,5.032226 -7.2464061,1.610313 -22.9469525,4.227071 -35.225585,6.038672 -51.9325766,7.447695 -70.0485917,18.317304 -78.5027321,46.699061 -1.6103124,5.636094 -4.4283592,11.272187 -6.2399607,12.681211 -4.6296483,4.025781 -34.6217178,5.434804 -36.0307412,1.811601 -0.4025781,-1.610312 -1.2077343,-11.876054 -1.4090234,-22.946952 l -0.6038672,-20.128906 12.0773434,-1.207734 c 16.3044136,-1.610313 25.5637103,-6.239961 30.7972257,-15.700547 5.2335155,-9.259296 5.4348046,-15.297968 1.2077344,-47.504217 -1.6103125,-13.2850777 -3.6232031,-38.2449208 -4.4283593,-55.5557796 -1.8116015,-36.4333193 -4.0257811,-42.2707019 -18.5185932,-49.718397 -7.4476951,-3.8244921 -10.8696091,-4.4283593 -19.5250385,-3.421914 -13.4863668,1.6103124 -15.0966793,-1.0064453 -14.291523,-24.5572649 0.6038671,-16.5057027 1.0064453,-17.713437 5.6360936,-20.1289057 5.2335154,-2.6167577 17.713437,-3.421914 22.9469524,-1.4090234 z m -2.8180468,70.2498808 c 3.2206249,1.8116015 6.4412498,5.0322264 6.843828,7.6489842 1.6103124,7.8502732 7.4476951,88.5671846 7.246406,100.8458176 0,17.914726 -9.0580075,24.758554 -20.3301947,15.499257 -4.4283593,-3.623203 -4.6296483,-5.434804 -7.045117,-53.744178 -1.4090234,-27.5766008 -3.2206249,-53.9454672 -3.8244921,-58.7764046 -2.0128906,-13.6876558 4.4283593,-18.1160151 17.1095698,-11.4734762 z m 165.0570265,252.6177658 c 5.4348046,2.818047 8.4541404,9.460586 7.045117,14.291523 -0.8051562,2.012891 -4.8309373,5.636094 -9.0580075,7.850274 -7.045117,3.623203 -12.0773434,4.025781 -43.6797253,4.22707 -19.7263276,0 -48.1080846,0.805156 -63.0034748,1.811601 -104.46902042,6.642539 -106.8844891,6.642539 -111.31284835,2.415469 -4.83093736,-5.032226 -7.24640604,-23.148242 -3.2206249,-25.56371 1.40902339,-1.006446 10.66832,-2.012891 20.73277285,-2.415469 116.5463638,-4.830937 196.6594084,-5.837383 202.496791,-2.616758 z m -58.3738264,47.302929 c 3.4219139,4.22707 0.8051562,6.843828 -15.9018355,16.90828 -27.1740226,16.103125 -47.3029283,42.069413 -58.9776936,75.684686 -3.0193359,8.856718 -5.6360936,16.304413 -5.6360936,16.505702 0,1.409024 -5.8373826,0.402579 -6.8438279,-1.006445 -2.0128906,-3.421914 -11.2721872,-48.108084 -13.2850778,-64.815076 -2.6167577,-22.745664 -2.6167577,-35.225585 0.6038672,-37.842343 3.0193359,-2.415468 54.1467563,-7.850273 79.1065993,-8.252851 14.090234,-0.201289 18.9211713,0.402578 20.9340619,2.818047 z m -119.3644106,25.56371 c 0.201289,11.473476 3.4219139,35.829452 7.6489841,60.386717 9.4605857,53.140311 10.66832,60.789295 13.0837887,87.158161 1.2077343,12.077344 3.421914,27.174023 5.0322264,33.413984 1.6103125,6.239961 3.0193359,15.700546 3.0193359,20.934062 0,5.233515 1.4090234,14.090234 2.8180468,19.726327 1.6103124,5.837383 4.4283592,21.33664 6.0386717,34.621718 1.8116015,13.285078 4.4283592,30.394648 6.2399607,38.244921 1.6103125,7.648984 3.0193359,17.310859 3.0193359,21.33664 0,4.22707 1.8116015,16.908281 4.0257811,28.180468 2.2141796,11.473476 5.4348045,32.608827 7.045117,47.101639 1.8116015,14.291523 4.0257811,32.407538 5.2335155,39.855233 1.6103124,8.856719 1.6103124,14.492812 0.4025781,15.700547 -3.0193359,3.019336 -43.8810144,4.830937 -45.6926159,2.214179 -1.4090234,-2.415468 -7.8502732,-42.069413 -11.2721872,-70.853748 -1.2077343,-10.467031 -3.623203,-24.154686 -5.2335154,-30.394647 -1.6103125,-6.239961 -2.8180468,-20.732773 -3.0193359,-32.206249 0,-11.473476 -0.8051562,-25.56371 -2.0128906,-30.998515 -1.0064452,-5.636094 -3.2206249,-21.739218 -4.8309373,-35.829452 -1.6103125,-14.291523 -4.4283593,-32.810116 -6.2399608,-41.264257 -1.8116015,-8.45414 -4.0257811,-29.589491 -4.8309373,-46.699061 -0.8051563,-17.10957 -3.0193359,-39.855233 -4.6296483,-50.322264 -1.6103125,-10.467031 -4.0257812,-28.180468 -5.43480457,-39.251366 -1.20773434,-11.070898 -3.01933585,-25.56371 -4.02578114,-32.206249 -4.22707019,-29.186913 -6.44124981,-53.744178 -4.83093736,-55.354491 3.01933585,-2.818047 9.25929661,-3.623203 23.95339777,-3.421914 l 14.0902339,0.402578 z m 166.6673389,-13.687656 c 4.4283593,6.642539 6.0386717,18.719882 3.2206249,22.141796 -1.2077343,1.409024 -7.6489841,4.629649 -14.090234,7.045117 -26.5701554,9.661875 -48.3093736,29.790781 -63.6073419,58.575116 -9.0580075,17.512148 -11.4734762,28.784335 -11.2721871,54.549334 0.201289,17.10957 1.0064452,23.55082 4.6296483,33.212694 13.0837886,34.017851 30.3946475,54.348046 57.1660921,67.431834 16.7069917,8.051563 37.8423426,13.888945 51.7312875,13.888945 6.2399608,0 7.8502732,0.805157 9.6618748,5.434805 1.0064452,3.019336 1.8116015,9.460586 1.4090234,14.492812 l -0.6038672,9.259297 -9.4605857,0.603867 c -17.5121479,1.207734 -43.0758581,-4.629649 -62.8021857,-14.291523 -27.9791789,-13.486367 -46.296483,-30.998515 -63.8086309,-60.789295 -10.2657419,-17.512148 -11.2721872,-20.531484 -15.0966793,-45.088749 -2.8180468,-18.921171 -3.0193359,-26.167577 -1.2077343,-46.095194 2.0128905,-22.745663 2.4154686,-24.355976 12.6812105,-44.283593 11.4734763,-22.141796 28.5830461,-42.874569 45.6926159,-55.35449 11.6747653,-8.65543 44.2835925,-25.56371 49.1145298,-25.56371 2.0128906,0 5.0322265,2.214179 6.6425389,4.830937 z m 45.0887487,41.465546 c 37.8423427,7.045117 68.2369902,35.628163 79.5091774,74.879529 6.0386717,21.135351 2.4154687,47.705506 -10.0644528,72.262771 -6.2399608,12.278633 -28.5830461,32.608827 -44.8874597,40.66039 -12.0773434,5.837382 -15.0966792,6.441249 -36.0307411,7.045117 -17.3108589,0.603867 -25.3624212,0 -33.2126944,-2.616758 -13.4863668,-4.22707 -37.6410536,-19.32375 -45.2900377,-27.979179 -15.4992574,-17.713437 -24.1546868,-48.309374 -21.9405072,-77.294998 2.0128906,-27.375312 21.9405072,-59.78285 44.2835925,-72.665349 25.161132,-14.291523 45.0887487,-18.518593 67.633123,-14.291523 z m -149.5577691,192.633627 c 18.7198823,25.161132 40.0565223,44.283592 60.1854279,54.549334 4.4283593,2.21418 21.135351,7.648984 37.2384755,12.278633 23.1482415,6.44125 31.1998038,8.051562 38.4462099,7.045117 12.0773434,-1.610313 13.6876558,0.603867 15.9018354,22.745663 1.0064453,9.661875 2.8180468,22.141796 3.8244921,27.77789 1.0064453,5.434805 1.4090234,10.66832 1.0064453,11.272187 -0.4025781,0.805156 0.4025781,4.428359 2.0128906,8.051562 3.623203,9.058008 5.8373826,67.431834 2.4154686,69.847303 -1.2077343,1.006445 -11.6747652,2.818047 -23.3495305,4.22707 -11.6747653,1.207735 -30.5959367,3.623203 -42.2707019,5.233516 -11.6747653,1.610312 -31.6023819,3.019336 -44.4848816,3.019336 -20.3301947,0 -23.7521087,-0.402578 -26.7714445,-3.824492 -5.6360936,-6.239961 -9.0580076,-21.33664 -11.2721872,-49.315819 -2.2141796,-29.186914 -3.421914,-37.037187 -11.0708981,-74.275662 -2.8180468,-14.090234 -6.4412498,-38.647499 -8.0515623,-54.348046 -1.6103124,-15.700546 -4.0257811,-32.810116 -5.2335155,-38.043631 -3.623203,-15.499258 2.0128906,-18.518593 11.4734763,-6.239961 z m 659.6242388,97.625192 c 5.8373826,9.460586 16.9082807,82.931092 13.2850777,87.359451 -1.8116015,2.21418 -10.66832,2.818047 -40.8616785,2.818047 -21.1353509,0 -45.2900377,1.006445 -53.5428891,2.01289 -25.9662883,3.421914 -122.1824574,9.863164 -158.0119095,10.467031 l -34.2191396,0.603868 -1.8116015,-40.056523 c -1.0064453,-23.550819 -1.0064453,-42.069413 0,-45.088748 1.0064453,-3.019336 4.0257811,-5.636094 7.045117,-6.44125 2.8180468,-0.805156 27.7778898,-2.616758 55.3544906,-3.824492 27.5766007,-1.207735 58.7764045,-3.421914 69.2434355,-4.629649 21.9405071,-2.415468 97.2226143,-7.045117 123.1889027,-7.447695 16.3044136,-0.201289 17.914726,0.201289 20.3301947,4.22707 z"
     id="path18"
     style="fill:#ffffff;stroke:none;stroke-width:0.201289" />
  <path
     d="m 256.4418053,89.55488633 c -24.557265,7.85027321 -44.2835925,23.34953057 -47.7055065,37.64105357 -1.8116015,7.2464061 2.8180468,16.3044136 17.512148,33.8165616 l 12.0773434,14.492812 -6.0386717,13.2850778 c -11.4734763,25.3624211 -12.4799216,41.0629675 -4.0257812,68.4382793 2.0128906,7.0451169 3.2206249,14.492812 2.6167578,16.5057026 -0.8051563,2.2141796 -7.4476951,9.0580076 -14.8953902,15.0966793 -7.4476951,6.2399607 -15.0966793,13.8889449 -17.1095699,17.3108588 -3.4219139,5.6360936 -3.4219139,6.4412499 0,16.5057027 5.0322265,14.8953902 21.5379291,31.1998038 39.6539442,38.2449208 15.4992574,6.2399607 21.33664,6.6425388 29.5894914,2.4154686 6.8438279,-3.623203 8.8567184,-6.8438279 16.1031245,-26.1675773 l 5.2335155,-14.090234 26.1675773,-1.0064453 c 25.1611321,-1.0064453 26.7714446,-1.2077343 41.4655457,-8.4541404 12.0773434,-6.0386717 18.3173042,-11.0708981 31.1998038,-24.7585539 l 16.1031245,-17.1095699 11.0708982,5.0322265 c 23.9533977,10.869609 38.6474988,7.8502732 47.9067955,-10.2657419 4.4283592,-8.4541404 5.0322264,-12.2786325 5.0322264,-29.9920695 0,-37.4397645 -7.4476951,-46.9003502 -35.225585,-44.4848815 -8.2528513,0.6038672 -17.5121479,1.6103124 -20.3301947,2.4154687 -4.8309373,1.0064453 -6.4412498,-0.6038672 -18.7198823,-17.3108589 -20.3301947,-27.3753117 -39.4526551,-38.2449208 -74.0743728,-41.2642566 -7.4476951,-0.8051563 -14.291523,-2.4154687 -15.4992574,-3.6232031 -1.0064453,-1.4090233 -4.8309373,-11.2721871 -8.2528513,-21.9405071 C 287.44032,82.50976934 283.817117,80.69816783 256.4418053,89.55488633 Z m 26.9727336,24.15468677 c 6.2399607,14.2915231 6.2399607,22.1417963 0.4025781,25.7649993 -21.5379291,13.0837887 -33.6152725,19.5250385 -36.0307412,19.5250385 -3.824492,0 -16.5057026,-13.0837887 -20.7327728,-21.7392181 -4.0257811,-7.6489842 -2.6167577,-11.2721872 7.246406,-19.7263276 9.6618748,-8.0515623 25.5637102,-14.6941011 35.426874,-14.6941011 8.6554294,-0.2012891 8.6554294,-0.2012891 13.6876559,10.869609 z m 64.2112091,43.2771472 c 16.9082807,8.0515623 31.1998037,21.5379291 39.4526551,36.6346083 6.6425388,12.2786325 6.8438279,13.2850778 6.6425388,34.8230069 0,18.5185932 -0.8051562,23.9533977 -4.6296483,32.6088271 -5.6360936,12.6812106 -26.9727336,33.8165616 -41.2642566,40.6603895 -8.4541404,4.2270702 -11.6747653,4.6296483 -35.0242959,3.8244921 -24.959843,-0.6038672 -25.9662883,-0.8051563 -35.628163,-7.045117 -14.291523,-9.0580076 -28.1804679,-24.1546868 -33.6152725,-35.8294521 -4.0257811,-8.6554294 -4.6296483,-13.2850778 -4.6296483,-32.2062491 0.2012891,-20.7327728 0.6038672,-22.9469524 7.045117,-36.8358974 7.8502732,-16.9082807 17.9147261,-27.1740226 35.2255849,-35.8294521 20.9340619,-10.0644528 46.095194,-10.4670309 66.4253888,-0.8051562 z m 103.6638642,54.7506234 c 4.6296483,5.0322265 5.4348045,20.7327729 1.8116015,38.0436318 -4.0257812,18.3173041 -13.4863668,22.3430853 -31.803671,12.8824996 -11.8760543,-5.8373827 -14.291523,-11.4734762 -14.291523,-32.4075381 0,-20.5314838 2.6167577,-22.9469525 24.1546868,-22.9469525 13.8889449,0 16.5057026,0.6038672 20.1289057,4.4283592 z m -196.2568303,88.3658959 c 19.1224604,15.4992574 21.1353509,17.9147261 21.1353509,22.9469525 0,7.8502732 -7.045117,20.1289057 -13.0837887,22.7456634 -8.0515622,3.8244921 -12.4799215,3.0193359 -27.5766007,-5.0322264 -17.1095699,-8.8567185 -25.5637102,-19.7263276 -22.5443744,-28.381757 2.2141796,-6.2399608 21.5379291,-20.5314838 27.7778898,-20.5314838 2.4154687,0 8.8567185,3.623203 14.2915231,8.2528513 z"
     id="path19"
     style="fill:#ffffff;stroke:none;stroke-width:0.201289" />
  <path
     d="m 644.5271066,120.1508229 c -6.0386717,0.6038672 -11.6747653,2.0128906 -12.4799215,3.220625 -0.8051563,1.4090233 -1.6103125,51.9325766 -1.6103125,112.3192936 0,89.1710521 0.6038672,110.5076921 2.6167578,112.3192936 3.623203,3.0193359 96.6187472,3.2206249 107.6896453,0.4025781 4.4283592,-1.2077343 8.6554294,-3.824492 9.2592966,-5.6360935 0.8051562,-1.8116016 1.8116015,-52.3351548 2.4154687,-112.3192937 l 1.0064453,-109.0986687 -15.4992574,-1.2077344 c -15.7005464,-1.4090234 -72.8666385,-1.2077343 -93.3981223,0 z m 86.1517163,21.135351 c 3.4219139,3.421914 3.4219139,182.9717525 0,186.3936665 -3.0193359,3.0193359 -79.3078884,3.421914 -81.1194899,0.4025781 -1.6103125,-2.8180468 -2.0128906,-183.9781978 -0.2012891,-186.7962446 2.0128906,-3.421914 77.898865,-3.421914 81.320779,0 z"
     id="path20"
     style="fill:#ffffff;stroke:none;stroke-width:0.201289" />
  <path
     d="m 554.7521873,203.2832034 c -36.2320302,11.8760543 -39.6539442,16.7069917 -30.9985147,44.8874596 6.2399607,20.1289057 28.381757,47.7055064 38.2449207,47.7055064 2.2141797,0 16.5057027,-8.4541403 32.2062491,-18.7198822 24.758554,-16.3044136 28.1804679,-19.1224604 28.1804679,-23.9533978 0,-3.0193358 -1.2077343,-6.2399607 -2.8180467,-7.045117 -1.6103125,-0.8051562 -6.6425389,-9.6618747 -11.0708982,-19.5250385 -10.869609,-23.5508196 -16.9082807,-31.4010928 -23.9533977,-31.1998037 -3.0193359,0 -16.3044136,3.623203 -29.7907804,7.8502732 z m 29.5894913,10.2657419 c 4.2270702,2.2141796 17.9147261,29.7907803 17.9147261,36.2320302 0,5.8373826 -30.7972257,27.9791788 -38.848788,27.9791788 -7.6489841,0 -30.5959366,-35.4268739 -29.1869132,-44.8874596 0.8051562,-5.4348045 10.8696091,-11.2721872 29.7907804,-16.9082808 8.2528513,-2.4154686 15.2979683,-4.4283592 15.7005464,-4.4283592 0.4025781,-0.2012891 2.4154687,0.8051562 4.6296483,2.0128906 z"
     id="path21"
     style="fill:#ffffff;stroke:none;stroke-width:0.201289" />
  <path
     d="m 406.6034416,442.8171808 c -11.2721872,8.6554295 -27.3753117,20.9340619 -35.426874,27.1740227 -8.0515623,6.2399607 -15.0966793,12.4799215 -15.7005464,13.8889449 -1.2077344,3.2206249 38.2449207,56.5622249 51.1274204,69.0421465 4.8309373,4.8309373 10.2657419,8.6554294 11.8760543,8.6554294 1.6103125,0 9.4605857,-5.6360936 17.5121479,-12.6812106 7.8502733,-7.045117 23.5508197,-19.9276166 35.0242959,-28.583046 11.2721872,-8.8567185 20.5314838,-17.512148 20.5314838,-19.3237495 0,-1.8116015 -3.2206249,-7.246406 -7.045117,-12.0773434 -3.8244921,-4.8309373 -13.6876558,-17.5121479 -21.5379291,-27.9791789 -18.3173041,-23.5508196 -28.1804679,-34.2191396 -32.206249,-34.2191396 -1.8116015,0 -12.6812106,7.246406 -24.1546868,16.1031245 z m 34.6217177,18.9211714 c 3.8244921,5.4348045 11.4734762,14.6941011 16.7069917,20.7327728 14.291523,16.3044136 13.4863668,18.3173042 -13.6876558,36.2320302 -12.0773434,8.0515623 -23.7521087,14.6941012 -25.7649993,14.6941012 -2.2141796,0 -6.2399607,-2.8180468 -9.0580075,-6.4412499 -3.0193359,-3.623203 -8.8567185,-9.6618747 -12.8824997,-13.6876558 -9.0580075,-8.6554295 -17.713437,-19.9276166 -17.713437,-23.5508197 0,-3.0193358 11.2721872,-13.4863668 27.1740227,-25.161132 22.9469525,-16.9082808 24.959843,-17.1095699 35.2255849,-2.8180468 z"
     id="path22"
     style="fill:#ffffff;stroke:none;stroke-width:0.201289" />
  <path
     d="m 276.5707109,555.7403416 c -15.9018354,7.8502733 -31.1998038,24.3559759 -34.4204287,36.8358974 -3.0193358,12.4799215 -2.8180468,21.9405072 1.2077344,36.2320302 2.8180468,10.0644529 5.4348045,14.2915231 14.6941011,23.7521087 13.0837887,12.8824996 27.1740227,18.5185932 45.8939049,18.1160151 18.1160151,-0.4025781 26.3688665,-4.0257811 39.8552333,-17.5121479 11.0708981,-10.8696091 12.6812105,-13.6876559 14.8953902,-24.1546868 8.0515622,-38.2449208 -7.4476951,-66.0228106 -42.471991,-76.2885525 -15.9018355,-4.8309374 -25.5637102,-4.0257811 -39.6539442,3.0193358 z m 38.6474989,10.0644529 c 9.6618747,2.6167577 26.5701555,18.1160151 29.1869132,26.5701555 5.0322265,16.3044136 4.8309374,25.1611321 -0.6038671,36.6346083 -11.2721872,22.9469524 -36.4333193,34.6217177 -56.3609359,26.3688664 -9.2592966,-3.8244921 -22.9469525,-16.5057026 -27.5766008,-25.5637102 -4.2270702,-8.4541404 -5.2335154,-27.9791789 -1.8116015,-37.0371864 8.2528513,-21.7392181 33.4139834,-33.6152725 57.1660921,-26.9727336 z"
     id="path23"
     style="fill:#ffffff;stroke:none;stroke-width:0.201289" />
  <path
     d="m 633.0536304,568.4215522 c -13.4863668,4.2270702 -24.1546869,13.0837887 -29.7907804,24.5572649 -9.8631638,20.9340619 -25.9662884,90.7813646 -26.1675774,113.7283171 0,13.2850777 0.8051562,16.3044136 5.6360936,23.5508196 8.2528513,12.4799215 18.9211713,18.7198823 34.2191396,19.9276166 16.7069917,1.4090234 31.4010929,-3.2206249 41.4655457,-13.2850777 8.0515623,-8.0515623 17.713437,-33.2126944 23.1482415,-60.5880061 1.8116015,-8.2528513 5.6360936,-24.3559759 8.6554295,-35.8294521 l 5.6360935,-20.5314838 -4.6296483,-13.6876558 c -6.8438279,-19.7263276 -12.4799215,-27.3753117 -24.959843,-33.2126944 -13.8889449,-6.6425389 -22.7456634,-7.8502732 -33.2126943,-4.6296483 z m 29.1869132,18.7198823 c 13.0837887,9.6618747 20.1289056,32.00496 14.4928121,45.8939049 -3.421914,8.4541404 -7.2464061,21.9405072 -10.0644529,36.2320302 -7.045117,34.6217178 -16.5057026,57.3673812 -26.1675774,62.3996076 -7.8502732,4.0257811 -25.5637102,3.8244921 -34.2191396,-0.6038672 -14.291523,-7.045117 -17.5121479,-25.5637102 -10.0644528,-56.964803 5.6360936,-22.9469525 7.4476951,-30.7972257 10.2657419,-46.095194 3.4219139,-17.914726 11.6747653,-34.0178506 21.1353509,-40.8616785 6.8438279,-4.8309374 9.2592966,-5.6360936 18.5185932,-4.8309374 6.4412499,0.4025781 12.8824997,2.4154687 16.1031246,4.8309374 z"
     id="path24"
     style="fill:#ffffff;stroke:none;stroke-width:0.201289" />
  <path
     d="m 400.5647699,633.6392066 c -2.8180468,1.8116015 -10.0644529,9.2592966 -15.9018355,16.5057026 -5.6360936,7.2464061 -18.1160151,20.9340619 -27.5766008,30.3946476 -12.4799215,12.8824996 -16.5057026,18.3173042 -15.2979683,20.3301947 1.0064453,1.6103125 16.3044136,16.1031246 34.0178506,32.4075382 24.758554,22.7456634 33.4139834,29.5894913 37.6410536,29.5894913 4.2270702,0 10.4670309,-5.0322264 29.3882023,-24.758554 21.33664,-21.7392181 38.6474989,-40.8616785 38.6474989,-42.67328 0,-2.4154687 -18.9211714,-21.9405072 -37.2384755,-38.6474989 -32.4075382,-29.1869132 -33.6152725,-29.7907804 -43.6797253,-23.1482415 z m 19.7263275,26.7714445 c 15.4992574,12.2786325 33.0114053,30.3946476 33.0114053,34.4204287 0,5.2335155 -32.00496,41.6668348 -37.8423426,43.2771472 -2.6167578,0.6038672 -6.6425389,-0.4025781 -9.8631638,-2.4154687 -5.2335155,-3.623203 -39.4526551,-34.8230068 -40.4591004,-37.0371864 -0.8051562,-2.2141796 41.0629676,-44.4848815 44.0823034,-44.4848815 1.8116015,0 6.8438279,2.8180468 11.0708981,6.2399607 z"
     id="path25"
     style="fill:#ffffff;stroke:none;stroke-width:0.201289" />
  <path
     d="m 710.7512062,909.4052143 c -8.4541403,4.2270702 -11.8760543,7.6489841 -15.2979683,14.492812 -6.0386717,11.4734763 -5.8373826,18.9211714 0.6038672,31.602382 8.8567185,18.1160151 28.7843351,23.5508196 48.9132408,13.0837886 10.66832,-5.6360936 15.2979683,-13.0837886 15.0966792,-24.1546868 -0.201289,-19.1224604 -6.6425388,-29.5894913 -21.9405072,-36.8358973 -10.869609,-5.0322265 -14.6941011,-4.8309374 -27.3753117,1.8116015 z m 20.9340619,12.6812105 c 5.4348046,2.4154687 11.4734763,13.4863668 11.4734763,21.135351 0,16.5057026 -27.3753117,20.1289057 -35.426874,4.6296483 -4.4283593,-8.8567185 -3.421914,-12.8824996 5.2335155,-20.7327728 8.6554294,-7.8502733 11.2721871,-8.4541404 18.7198822,-5.0322265 z"
     id="path26"
     style="fill:#ffffff;stroke:none;stroke-width:0.201289" />
  <path
     d="m 616.7492168,935.9753698 c -16.5057027,3.4219139 -31.4010929,18.7198822 -36.4333193,37.2384754 -3.2206249,11.8760544 -2.8180468,19.5250385 2.0128906,32.2062488 3.623203,10.064453 10.66832,18.116015 63.4060528,72.262772 32.6088272,33.413983 62.6008967,62.802185 66.8279668,65.016365 17.1095699,9.661875 32.0049601,9.058008 53.7441782,-1.409023 9.6618747,-4.830938 21.9405072,-21.537929 25.3624211,-34.621718 5.4348046,-20.330195 -3.0193358,-33.816562 -56.5622249,-89.171052 -61.7957404,-63.6073422 -71.2563261,-72.6653498 -80.5156227,-77.093709 -10.869609,-5.0322264 -25.9662883,-6.8438279 -37.8423426,-4.4283592 z m 30.3946475,16.9082807 c 7.045117,3.0193359 19.9276166,15.2979683 71.055037,68.8408575 47.5042174,49.517108 56.763514,60.588006 59.3802718,69.243435 2.8180468,9.460586 1.6103124,15.09668 -6.0386717,25.563711 -11.8760544,16.505702 -33.6152725,21.33664 -50.9261314,11.070898 -5.6360936,-3.220625 -31.8036709,-28.381757 -64.4124981,-61.795741 -71.6589042,-73.4705054 -74.476951,-78.3014427 -55.3544906,-99.0342156 4.6296483,-5.0322264 11.2721872,-10.869609 14.4928121,-12.8824996 7.246406,-4.4283593 22.5443743,-5.0322264 31.8036709,-1.0064453 z"
     id="path27"
     style="fill:#ffffff;stroke:none;stroke-width:0.201289" />
  <path
     d="m 260.4675864,1579.697773 c -17.3108589,6.239961 -26.5701555,17.914726 -26.5701555,33.212694 0,10.467031 5.8373827,29.790781 11.0708981,36.835898 14.2915231,18.518593 59.7828499,10.869609 84.5414038,-14.291523 5.6360936,-5.636094 11.6747653,-13.083789 13.6876559,-16.706992 l 3.623203,-6.44125 -11.6747653,-11.674765 c -20.1289056,-20.128906 -51.9325766,-28.985624 -74.67824,-20.934062 z m 48.7119517,21.135351 c 6.6425389,3.623203 13.0837887,8.252851 14.4928121,10.467031 7.246406,11.070898 -19.1224604,29.186913 -44.4848815,30.797226 -8.8567185,0.603867 -16.1031246,0 -18.7198823,-1.409024 -5.6360936,-3.019336 -12.4799215,-16.304413 -12.4799215,-24.355976 0,-15.297968 10.2657419,-22.141796 33.2126943,-22.141796 14.2915231,0.201289 17.512148,0.805156 27.9791789,6.642539 z"
     id="path28"
     style="fill:#ffffff;stroke:none;stroke-width:0.201289" />
  <path
     d="m 730.8801119,1580.905507 c -0.4025781,0.402579 -20.7327728,2.415469 -45.0887487,4.227071 -50.5235532,3.824492 -64.00992,6.038671 -68.6395683,10.66832 -4.6296483,4.428359 -2.8180468,37.439764 2.6167577,51.731287 5.4348045,14.492812 8.6554294,15.499258 39.050077,13.083789 13.6876559,-1.006445 40.4591004,-2.818047 59.1789827,-3.824492 40.8616785,-2.415469 46.296483,-3.824492 49.5171079,-13.687656 5.0322264,-15.499257 -0.8051562,-56.360936 -8.8567185,-61.393162 -2.4154686,-1.610313 -26.1675773,-2.21418 -27.7778898,-0.805157 z m 18.3173042,16.304414 c 4.0257811,4.830937 7.246406,32.00496 4.4283592,38.043632 -2.8180468,6.44125 -3.0193358,6.44125 -49.718397,9.259296 -20.9340619,1.409024 -43.0758581,2.818047 -48.9132408,3.421914 -15.4992573,1.409024 -19.9276166,-0.201289 -24.5572649,-9.460585 -8.0515623,-15.901836 -3.2206249,-32.206249 10.66832,-35.426874 13.2850778,-2.818047 67.431834,-8.252852 86.1517163,-8.65543 15.0966792,-0.201289 19.9276166,0.402578 21.9405072,2.818047 z"
     id="path29"
     style="fill:#ffffff;stroke:none;stroke-width:0.201289" />
</svg>
