<?xml version="1.0" encoding="UTF-8" standalone="no"?>
<svg
   version="1.0"
   width="1200.000000px"
   height="800.000000px"
   viewBox="0 0 1200.000000 800.000000"
   preserveAspectRatio="xMidYMid meet"
   id="svg1"
   sodipodi:docname="VOY_SICKBAY.svg"
   inkscape:version="1.3.1 (91b66b0783, 2023-11-16)"
   xmlns:inkscape="http://www.inkscape.org/namespaces/inkscape"
   xmlns:sodipodi="http://sodipodi.sourceforge.net/DTD/sodipodi-0.dtd"
   xmlns="http://www.w3.org/2000/svg"
   xmlns:svg="http://www.w3.org/2000/svg">
  <defs
     id="defs1" />
  <metadata
     id="metadata1">
Created by potrace 1.16, written by Peter Selinger 2001-2019
</metadata>
  <sodipodi:namedview
     pagecolor="#222"
     bordercolor="#666666"
     inkscape:deskcolor="#444"
     id="namedview1"
     borderopacity="1.0"
     inkscape:showpageshadow="2"
     inkscape:pageopacity="0.0"
     inkscape:pagecheckerboard="0"
     inkscape:zoom="0.846171115"
     inkscape:cx="440.8091855"
     inkscape:cy="495.1717124"
     inkscape:window-width="2419"
     inkscape:window-height="1417"
     inkscape:window-x="1672"
     inkscape:window-y="4"
     inkscape:window-maximized="1"
     inkscape:current-layer="svg1" />
  <rect
     width="100%"
     height="100%"
     x="0"
     y="0"
     fill="#000000"
     id="rect1"
     sodipodi:insensitive="true" />
  <path
     d="m 11.67844522,319.2851212 c 1.61747552,24.8635935 9.1220432,46.9219388 22.51630039,66.2200798 1.20461461,1.7659314 2.18179302,3.3619098 2.17379593,3.64032 -0.03941,1.3465704 6.62715114,8.8341931 12.47535555,14.0193113 2.1772939,1.9218791 5.4843721,4.8984028 7.38850481,6.5789677 4.57901536,4.0806687 9.59134124,7.5684927 16.13601939,11.1475286 13.4564882,7.309629 24.17666285,11.1454393 39.84718241,14.1505152 12.3431491,2.3392433 26.3716014,2.6106574 39.5316856,0.7401966 12.5051459,-1.7284387 17.51842,-3.1289931 28.4311833,-7.6994587 4.4685506,-1.8608994 8.3228016,-3.3864024 8.508541,-3.3814032 0.6017981,0.015869 12.841838,-7.0261142 15.545711,-8.947094 4.6000085,-3.2134604 9.3921059,-8.285215 13.9899654,-14.7059338 2.4686987,-3.4643762 5.02857,-6.828389 5.6996017,-7.5533502 2.0108482,-2.0273477 2.5176839,-1.9168803 22.0821924,4.7169705 12.6600951,4.2661082 15.3696165,5.4110919 15.344575,6.2923051 -0.010598,0.3148845 -1.7149442,3.1259912 -3.7582819,6.3098017 -5.1047453,7.8942481 -9.3191283,15.5347238 -10.9798901,19.9962295 -5.3351214,14.3493911 -8.1232672,33.9309942 -6.9302534,49.1620085 1.3725546,17.1440858 3.3029294,26.0307156 7.6147309,34.5647967 1.1466236,2.2132761 1.9753605,4.0521822 1.8803914,4.1421512 -0.3298947,0.3098589 -5.3791073,1.1951322 -16.3084137,3.0700103 -12.6563976,2.1413064 -20.5232977,4.2041362 -24.4439258,6.4137624 l -2.5531727,1.4665334 -10.7625617,-3.9777131 c -13.6607213,-5.0387718 -18.3605976,-6.4711585 -21.7973841,-6.5689168 -5.479873,-0.1499711 -8.1447086,2.0463385 -11.5252127,9.7574353 -1.4925163,3.3948926 -33.234277,91.5449702 -33.6148534,93.4838963 -0.1050055,0.4398594 1.8219097,1.3665532 6.2822132,3.0000242 l 6.4858976,2.3652302 14.5991679,-40.9973119 c 15.9661234,-44.9539179 18.8829288,-52.7244473 19.7282539,-53.0274029 0.4698535,-0.2999402 21.5465159,7.2128098 22.1369248,7.6946052 0.094955,0.0025 -0.5803078,2.4856955 -1.4545291,5.3492126 -0.8682134,2.7965991 -1.5000135,5.3958962 -1.3715548,5.7236486 0.2049326,0.6157504 4.9563924,2.2257735 6.767705,2.2767554 0.6017981,0.01587 2.2157823,0.5763402 3.5428514,1.256099 1.7424361,0.8516822 2.4816962,1.0322021 2.630648,0.6198503 0.1050056,-0.31991 0.6662827,-2.2262763 1.2815835,-4.2381243 2.058832,-6.9610477 3.1969638,-9.4395883 5.0537607,-11.0126349 2.4302131,-2.1113125 8.33235,-3.713295 22.4365768,-6.0990764 11.3487216,-1.9218659 14.8071002,-2.5926582 19.9581802,-3.9402208 2.2932576,-0.5763403 2.4836959,-0.7297489 2.2817613,-1.7619242 -0.4098655,-1.7754267 0.06996,-1.3130982 1.8084135,1.8159083 8.4828994,15.4865853 33.2999546,33.5288388 54.5064801,39.6160127 8.8981658,2.5296815 26.2431427,5.4897665 27.1986337,4.5870098 0.4248627,-0.3999202 0.751755,-3.5573471 0.662289,-6.9527422 0.018917,-1.7314411 0.3298943,-1.6254701 -8.5677225,-2.7126214 -8.7536126,-1.0827207 -15.1683828,-2.6761336 -22.0649471,-5.3225774 -17.1903281,-6.765002 -23.895354,-11.2305546 -36.5339071,-24.417386 -9.2981853,-9.7023009 -10.6823368,-11.691402 -12.5037466,-17.9259937 -0.5493219,-1.8763855 -1.8124129,-4.9323908 -2.8295835,-6.7282633 -4.2376256,-7.8810894 -6.5503264,-16.4513139 -7.1815209,-26.9266747 -0.5468221,-8.5231307 0.4948354,-30.6620553 1.667459,-35.7405544 1.3200679,-5.5871943 5.5111631,-17.2721556 7.6217798,-21.2109745 3.2884337,-6.1339636 8.2210851,-12.8722776 12.8141452,-17.481135 1.4820197,-1.4975193 3.0780022,-3.5843391 3.5248576,-4.6425014 0.4398596,-1.0456913 1.2286046,-2.370229 1.6644609,-2.9350505 1.8249076,-2.0323333 11.5690995,-9.6632078 15.5920457,-12.1974386 11.496323,-7.1094442 27.1207577,-12.2895236 39.8797711,-13.1353472 2.7965938,-0.2398993 6.5216865,-0.5207958 8.2010412,-0.7272361 2.9880323,-0.4249154 8.8329369,-0.07009 16.2312386,1.2636374 1.8494016,0.3749252 2.2207801,0.384844 2.4322114,-0.4749055 0.6118094,-1.8748912 0.9736818,-6.4790537 0.5738143,-7.0932965 -0.5318251,-0.9131779 -7.2388533,-2.0328492 -12.9965861,-2.2297808 -8.4059755,-0.2348739 -21.5026294,1.0577259 -31.2327751,3.2484537 -10.6185083,2.3907145 -23.863815,8.8931098 -36.3884544,17.8333665 -3.5588469,2.5601647 -6.6856328,4.6424881 -6.8711224,4.6364974 -0.1899359,-0.00614 -1.7054473,-0.4648547 -3.3634095,-1.0257216 -1.6579635,-0.5603383 -4.742963,-1.5779927 -6.907561,-2.2487718 -2.1647991,-0.6707659 -9.116695,-3.0170183 -15.4251993,-5.0851515 -6.3531409,-2.1363073 -14.5059988,-4.7354722 -18.1948528,-5.7705306 -6.2710672,-1.74944 -6.8265359,-1.8299135 -9.3955535,-1.3900538 -4.2981069,0.7747133 -5.4366884,1.6109754 -8.0689341,5.904988 -1.3130718,2.1108229 -3.5953356,5.4742271 -5.0919,7.4295918 -3.0909982,4.0486909 -10.9399536,12.0539883 -11.7294975,12.031506 -0.3198966,-0.00952 -1.8424029,-2.2002892 -3.4408848,-4.840438 -4.2166325,-6.9986328 -6.5850154,-10.3178526 -7.374509,-10.3402424 -1.115135,-0.033061 -12.0196037,5.8854416 -14.1609099,7.6365216 l -1.9063824,1.6134748 1.7144444,3.4418809 c 6.6786858,13.5752594 6.6797345,13.530414 4.2731159,14.8531928 -2.7396132,1.493512 -14.9742971,5.1983563 -20.813703,6.2415744 -2.944046,0.5592803 -5.4684282,1.0626192 -5.6105321,1.155061 -0.1300007,-0.00406 -1.7269392,0.2699199 -3.4493819,0.3499302 -1.7269391,0.26992 -4.981385,0.3098591 -7.2183601,0.4948752 -6.0080523,0.434834 -20.6659004,-0.5887717 -27.223125,-2.0893194 -9.1477338,-1.9278833 -18.59092331,-4.8964191 -22.80170776,-7.200418 -1.83240625,-0.9827407 -1.91937836,-1.1776756 -1.6434677,-2.6441428 0.14995685,-0.8937373 2.09482092,-5.0074815 4.25812029,-9.1752759 2.16329802,-4.119669 3.84875205,-7.8370107 3.71979361,-8.2126897 -0.46985352,-1.2640343 -13.34922254,-9.4423393 -14.97449542,-9.4886265 -0.45985551,-0.012147 -2.53367929,2.493194 -5.39525096,6.6769377 -4.84792874,7.0196734 -7.15453023,9.6958072 -8.31575401,9.6628111 -1.81091318,-0.050254 -14.61016454,-12.4990983 -19.94483497,-19.3884537 -6.81309161,-8.8394435 -14.3618436,-22.859601 -17.43889618,-32.3334685 -3.20596075,-9.8526675 -5.50736486,-20.4681196 -5.79692096,-26.5666405 -0.21493074,-3.8157614 -0.21493074,-3.8157614 0.89621041,-3.7837704 0.60181136,0.015869 3.02751878,-0.2299805 5.35356484,-0.2898894 2.37672905,-0.2548432 6.70042754,-0.2548432 9.67436306,-0.2348738 l 5.3866548,0.1499712 0.25992177,-9.1928252 c 0.17993782,-6.3635343 0.13495995,-9.2926335 -0.23492676,-9.5375054 -0.31489761,-0.3298286 -3.97921022,-0.6267271 -8.24642656,-0.9406857 -4.21713239,-0.434834 -8.61970536,-0.8867283 -9.76963245,-1.3035766 -1.84390264,-0.5662894 -2.06833018,-0.7962699 -2.17129644,-2.1462921 -0.26990657,-3.5863492 4.04618761,-18.057806 7.96741728,-26.8228063 2.33324304,-5.2341561 7.58269234,-14.9363642 10.45346059,-19.4563504 3.84075497,-5.9323768 12.82234331,-16.1340621 16.95380496,-19.2233674 0.99517218,-0.7092505 3.66381138,-2.9745308 5.94912081,-4.8969125 7.09954912,-6.1186624 7.05181393,-6.0749808 7.90758662,-5.1207395 0.39986746,0.4249155 2.77060167,3.9367161 5.16897458,7.8177197 2.4462073,3.8797432 4.7234694,7.1509833 5.04396509,7.3012312 1.33106827,0.5508162 12.28086916,-5.2753912 14.86643099,-7.9434751 l 1.19461657,-1.1845523 -2.71112147,-6.0257973 c -3.49686577,-7.7701855 -4.22413101,-9.974773 -3.41339298,-10.6956877 0.66779029,-0.5907551 12.52349015,-4.0111983 17.24565955,-4.9938732 5.1413836,-1.0077358 11.1574328,-1.7349454 18.1872538,-2.1438058 5.7252447,-0.2848639 7.9532217,-0.1899092 14.759066,0.7401964 4.4000735,0.5427491 9.4456877,1.2631083 11.1546331,1.6324661 4.7589583,0.9687222 6.2694181,0.1799911 12.1006775,-5.4665303 6.4543087,-6.3228944 13.4458911,-13.5605536 16.0914344,-16.6920333 1.2490899,-1.4080528 3.7837729,-3.9362265 5.6438205,-5.6020323 6.4863472,-5.8120701 7.2144112,-8.5332345 4.5280321,-17.0211342 -2.9865322,-9.3815182 -5.8099171,-17.9663297 -8.0037062,-24.1635215 -5.8084664,-16.385242 -14.6426529,-42.38735221 -14.8406386,-43.60191215 -0.2549227,-1.28955787 -0.085037,-1.44653725 2.6821299,-2.74511461 1.6024811,-0.75527282 3.14948,-1.25755374 3.4728744,-1.15215152 0.2849038,0.008835 0.8457312,1.27408483 1.324071,2.50718594 0.4248625,1.26257931 1.293076,3.52335926 1.9023832,5.02796703 1.0401631,2.59666538 1.1766175,2.72711553 2.4387101,2.53917687 1.0766507,-0.28988944 4.550025,-1.44152518 18.2237424,-6.68393357 1.1746206,-0.47477317 3.9012349,-1.52399549 6.1103189,-2.3912169 12.1693544,-4.62399975 14.3784381,-5.49132701 15.0870591,-5.89134009 0.4198634,-0.31488424 3.617827,-1.37205478 7.0453165,-2.58966932 8.3577403,-2.96903834 11.4118001,-4.13914934 14.5191932,-5.53544539 3.1104916,-1.45103377 3.3619098,-2.18129835 2.1018183,-6.91175828 -1.2595905,-4.73097587 -1.2046147,-5.05531608 1.3820515,-6.09853419 4.3260987,-1.76791517 15.4968767,-5.6007234 16.2864206,-5.577937 1.1151351,0.0330633 1.4155408,0.8422927 9.9330298,24.96221145 3.5693434,10.14205452 5.8467549,15.03962401 7.3102306,15.87330737 1.2345955,0.67724587 9.0430683,0.70726645 14.3618939,-0.008094 4.5245341,-0.57686923 9.4114499,-2.42421287 9.9589719,-3.71178718 0.2399257,-0.60226115 0.7077689,-10.20639355 1.0291601,-21.53651808 0.3198965,-11.19228168 0.709766,-20.42958222 0.9096998,-20.47207382 1.6339709,-0.27494535 10.2722703,-0.0277733 10.6720902,0.62474332 0.3648877,0.32982848 0.5578254,1.58748797 0.5158364,3.09250581 -0.041526,1.37755635 0.1149243,3.90522745 0.3498908,5.5385003 0.3898694,2.60866025 0.5633136,2.99903236 1.6714581,3.34691264 1.6119778,0.48984954 58.5038346,2.04984326 64.2733643,1.82941097 3.8172636,-0.20987829 4.6120061,-0.38484399 5.0532118,-1.16960833 0.2949018,-0.50532276 0.7407652,-3.15347263 0.9561853,-5.87330135 l 0.4648544,-4.91589929 5.2938349,0.14997122 c 2.9255509,0.0793492 5.4802233,0.15499558 5.6564659,0.47979863 0.1849372,0.32493518 0.2599218,8.9316604 0.1399595,19.43409274 -0.1699402,10.45261405 -0.1549564,19.8876136 0.0077,20.91497518 0.1849371,1.38455234 0.5938104,2.00434942 1.7344376,2.74261508 4.9324013,3.05850482 20.4422228,5.18371652 23.288201,3.16347062 1.3745543,-0.9867082 4.2021381,-7.17587255 12.2001946,-26.93631564 2.6011567,-6.43262123 5.0352183,-11.98482227 5.3699096,-12.30241791 0.4748525,-0.49487498 2.0443376,0.0595108 8.8864696,2.94654299 4.5455261,1.95787712 8.5361825,3.82226794 8.804096,4.20114735 0.4448586,0.55835441 0.2349267,1.6429665 -1.0826548,5.36000403 -1.2126025,3.40290713 -1.5784886,4.88041701 -1.2231028,5.44894139 0.2149308,0.41988982 1.5479971,1.16656653 2.8815648,1.65346696 3.3569123,1.25054456 31.134907,13.24835376 36.501268,15.77082764 7.8883433,3.71030619 23.3140927,10.42508009 24.0571007,10.44621339 0.8362355,0.022483 2.2462723,-2.1812852 4.1311615,-6.3440937 1.2895845,-2.84907566 2.1168139,-4.16964594 2.6286472,-4.15515152 1.0666526,0.0317399 6.809243,2.43870752 9.5072191,3.99071322 2.1952875,1.2805652 2.2847593,1.4115443 2.1433045,3.1394808 -0.06004,1.0241346 -1.345564,4.7949444 -2.8450775,8.4683531 -3.7462857,9.1450307 -5.6760098,14.8977211 -6.1402599,18.139364 -0.3698735,2.7466222 -0.3698735,2.7466222 1.4040456,4.501048 2.0788255,2.1113122 6.3920273,4.0391955 20.0101633,8.9359981 10.5821691,3.7862829 11.2681461,4.1786521 11.2258609,5.6652739 -0.01759,0.6402166 -0.8422265,3.4618768 -1.8509012,6.2198327 -2.9355478,8.3759247 -11.5749964,29.4649922 -12.2928137,30.1886046 -0.6178004,0.5268792 -1.171116,0.384844 -4.1531545,-1.0476748 -1.9258756,-0.9532495 -4.129162,-1.8813847 -4.8674221,-2.093816 -1.798917,-0.4298084 -1.8494003,-0.3749254 -6.9434995,12.0716305 -2.1453043,5.1919289 -5.4413863,13.1854826 -7.3831555,17.7319582 -4.1841442,9.8253185 -4.3875786,10.4704545 -3.5713429,11.192771 0.3648875,0.3299606 2.4272135,1.2235658 4.588512,2.0863304 2.2077853,0.864246 4.2226314,1.8833855 4.5365305,2.2772623 0.760748,0.9841954 -0.1149247,4.0401874 -3.352913,11.6639601 -2.8890637,6.7515126 -3.5023647,8.7318721 -2.9675386,9.4910729 0.1849372,0.3249352 1.1396273,0.7378161 2.1558008,0.9912047 1.1061422,0.3449048 1.8808901,0.8557821 1.9618646,1.2740849 0.1699402,0.9667387 -14.7174792,36.9983066 -16.0201074,38.6800615 -0.9191952,1.2886325 -1.0591541,1.2841361 -3.6988003,0.9201874 l -2.730615,-0.3999207 -0.7982405,1.9008915 c -0.4448585,1.013687 -0.9801883,1.7674259 -1.2106054,1.7289412 -0.6502937,-0.017197 -10.6789884,20.8450421 -16.9522047,35.4915962 l -2.8885637,6.7514069 -3.0275188,-1.4655282 c -1.6499651,-0.8482438 -4.262618,-2.0768221 -5.7745775,-2.857566 -1.5120098,-0.7487927 -3.2564454,-1.535501 -3.9007365,-1.746438 -0.6407851,-0.334854 -2.2077838,-0.8647748 -3.4433831,-1.4770205 -3.8967372,-1.8738995 -4.2201317,-1.9478661 -4.5850141,-0.5797787 -0.2049323,0.6358521 -1.3415649,3.0725096 -2.5726662,5.41375 -4.1276608,7.8290625 -11.0583151,22.7358292 -11.0915042,23.8989971 -0.017459,0.6407455 -0.2249286,1.2440645 -0.4498574,1.4295432 -0.2199299,-0.00679 -3.5898366,-1.2255494 -7.3968523,-3.0320151 -11.191323,-5.2444583 -13.0553684,-5.0667159 -17.6644744,1.7414388 -2.8150874,4.1496498 -18.714683,30.467623 -21.0720682,34.9093311 -2.6526411,4.9908844 -2.2792617,8.2086828 1.5729898,13.3818588 0.9866817,1.2785813 1.737437,2.6146515 1.7269405,2.9675441 -0.010841,0.384844 -0.8162396,0.9707062 -1.803916,1.2956415 -0.9416906,0.3898694 -4.6274989,2.5621618 -8.133113,4.8799145 -3.5053642,2.3052552 -8.1425611,5.2070186 -10.2692711,6.4484645 -2.1263108,1.2546442 -4.3081039,2.7631004 -4.8374323,3.3923931 -0.9132043,1.0966071 -0.9182033,1.2890289 -0.2999005,2.8775752 0.3448916,0.9716317 1.268094,2.7930945 2.0218446,4.1011672 0.7527601,1.2715722 3.1469806,5.3873001 5.272642,9.0714607 5.0918984,8.8834689 6.2081365,10.4961902 7.4062486,10.8541743 1.4750223,0.4598293 2.4607015,0.07009 7.2431516,-3.0000241 2.4117179,-1.5030075 5.3470673,-3.3334235 6.5290829,-4.0441814 10.4971981,-6.3009144 13.7716862,-8.6704956 13.8087741,-9.9714666 0.028698,-1.0566679 1.0796528,-0.4148644 1.9638643,1.2106053 1.4130412,2.6051558 5.4301897,16.6054631 6.0038533,20.9445592 1.0291733,7.8859957 1.6229743,18.1260728 1.2026043,21.4140557 -0.5603118,5.050608 -1.8808899,12.2188895 -2.7596053,15.2596068 -2.4222146,8.3906304 -6.605859,18.1710108 -7.7203474,18.1392711 -0.2199296,-0.00685 -0.7287568,-0.5317724 -1.0836466,-1.1530774 -0.3998675,-0.6202467 -2.9870321,-2.746609 -5.8158152,-4.674492 -6.7917983,-4.6984693 -11.8485586,-8.2835623 -14.9431551,-10.6035633 -3.5493502,-2.6656331 -4.9364006,-2.9300382 -6.8428318,-1.2525282 -0.8087411,0.6822714 -3.2344524,4.2301232 -5.4300906,7.8849376 -2.1952877,3.657314 -5.1593269,8.1749065 -6.5152382,10.0860866 -1.4025449,1.9488581 -2.8190854,4.2900982 -3.1694721,5.2107615 -0.8047339,2.1572951 -0.4848372,2.4876922 5.6319247,6.2468246 5.1620264,3.160971 14.2286877,9.5635982 16.6307584,11.7227449 l 1.5859857,1.4240417 -1.4360343,1.4340265 c -0.811743,0.8112143 -4.6609883,3.7257926 -8.5975127,6.4960479 -7.9207823,5.5852897 -8.7379675,6.5369257 -8.8596284,10.8081515 -0.06004,2.0503327 0.1399595,2.889557 0.9596898,3.840254 1.1666196,1.4765182 2.1348089,1.7279363 24.5211021,7.2044118 7.8474559,1.8908799 15.9707218,3.8922406 18.0008148,4.4150732 l 3.6913033,0.9381729 1.4355342,8.3626995 c 0.7997348,4.5765093 3.0275189,17.7459371 4.9329011,29.1875342 l 3.5428514,20.8777734 1.828907,-0.5893007 c 1.0326648,-0.3499303 2.2002867,-0.5803075 2.6196503,-0.5678762 0.6947823,0.018526 1.8803914,5.8638985 7.6641655,37.7249211 3.7772756,20.791468 6.8256882,37.7941535 6.7301689,37.8844264 -0.032003,-9.508e-4 -1.4480303,0.2749453 -3.0800017,0.5207958 -1.6339708,0.2749452 -2.9880319,0.4247832 -3.0335162,0.4598291 -0.032005,-8.463e-4 1.3420647,8.4047813 3.0505101,18.5389402 1.7089469,10.1340667 3.0884988,18.8636905 2.9810349,19.3705208 -0.1199492,0.7982537 -0.8652245,1.0016523 -6.179747,1.5889826 -3.3584119,0.4148644 -6.2068883,0.8811737 -6.3534914,1.1336367 -0.199934,0.3148843 -137.6154887,24.297119 -141.9990178,24.8200571 -1.0226668,-0.030417 -1.243099,-0.3499303 -3.4528798,-7.7176033 l -2.334744,-7.7819686 -1.6139763,-0.4249155 c -0.872723,-0.3449049 -2.2187805,-0.4448849 -3.0070254,-0.4698799 l -1.346064,-0.039675 -5.6409217,-18.9846985 c -3.0964958,-10.4523098 -5.6355232,-19.2150224 -5.6263756,-19.538622 0.010498,-0.3148842 0.765747,-0.7797389 1.6564625,-1.0755794 3.4258905,-1.1530774 3.4283886,-1.2805652 -0.080011,-13.5286155 -1.7344377,-5.997906 -3.1624748,-11.33638 -3.1484788,-11.8492144 0.017457,-0.510348 -0.2749055,-1.5789845 -0.6777751,-2.3282399 -0.5713147,-1.1706663 -0.5978042,-1.8459023 -0.1098986,-3.9537232 0.4198635,-1.8803795 10.7668094,-66.3887763 10.7947008,-67.3660554 0.01759,-0.7042249 -3.1674738,-1.4045483 -11.1327909,-2.4007254 -5.1403335,-0.6592603 -9.4037015,-1.1011035 -9.4974711,-1.0721412 -0.1349599,0.3148845 -7.5327591,45.8449442 -7.5617494,46.8671615 -0.017589,0.6407453 -0.901712,0.6797587 -7.1182927,0.2398993 -18.2766752,-1.2575539 -28.1547727,-2.0198493 -30.563342,-2.3127539 l -2.5931597,-0.3948949 -10.6567453,-15.8723549 c -7.3121285,-10.899615 -10.8447346,-15.7846343 -11.3130817,-15.6600824 -0.3698735,-0.00849 -4.5910118,1.246577 -9.3218792,2.5566734 -4.7314651,1.3080727 -8.66449,2.3187578 -8.7544616,2.2207877 -0.094955,-0.0025 2.121313,-7.6070827 4.9368991,-16.6824447 2.8155875,-9.1233948 4.9369005,-16.6856454 4.756459,-16.8767318 -0.9052034,-0.8602784 -7.1654276,-2.9940332 -9.8962422,-3.3923931 l -3.0999952,-0.4698799 -0.5628111,1.8439052 c -4.1081675,13.685211 -10.389632,33.539326 -10.982539,34.7763682 -1.1806115,2.2752612 -0.8012427,5.2780889 0.9501942,7.4186547 0.7617532,0.9516623 9.0188759,12.9909843 18.3427043,26.6896451 9.3229279,13.7435462 17.4976769,25.3635735 18.1824558,25.7999812 0.6817822,0.4648546 2.2042846,0.9926594 3.3609101,1.1212053 32.203161,3.4823754 59.5372003,6.5751192 59.7176909,6.7663114 0.1300006,0.00399 1.542001,4.5979997 3.0625078,9.9389201 l 2.8370804,9.7046547 2.7875957,0.07935 2.787597,0.079349 5.5114132,18.6536001 c 3.0070252,10.2643182 5.6401214,19.0771136 5.7611316,19.6393297 0.1999338,0.8061887 -0.1300004,1.1190895 -1.9143792,1.9328823 -1.1766176,0.5768691 -2.268264,1.2825488 -2.4167159,1.6624598 -0.13496,0.3148844 0.7212717,4.0646801 1.9493684,8.2360318 1.2266076,4.2201251 2.5791636,8.9503473 3.0015266,10.5423318 0.4648545,1.6484549 1.0761482,2.9490424 1.3110749,2.9555358 0.2849035,0.00899 0.9152013,0.5373268 1.3610583,1.1611444 1.253097,1.7039596 3.6293235,3.1179903 6.1688509,3.709301 2.033341,0.4398595 9.177175,-0.7312036 76.5268922,-12.2783617 40.821417,-7.018827 75.0141831,-13.0173414 75.9070926,-13.3639787 0.8922165,-0.3598492 3.5083634,-0.7966668 5.8375585,-0.9881631 5.8725458,-0.5707857 8.8238895,-1.3840499 11.2449549,-3.1664726 1.1846186,-0.8012955 2.5081857,-1.5964811 2.9785337,-1.7754269 1.7309385,-0.4648544 2.1493035,-6.9104094 0.9271964,-12.9868317 -0.4448585,-2.1932933 -0.7962435,-4.6689908 -0.7732455,-5.5057157 0.049991,-1.7304491 -1.206109,-9.9336831 -2.4287119,-15.9652334 -0.4848374,-2.3232409 -1.0101693,-5.281382 -1.1611181,-6.5396236 -0.149956,-1.3195785 -0.5893139,-3.7367955 -0.9591874,-5.5109131 l -0.7012756,-3.1304876 -2.182293,-0.064802 -2.1368073,-0.059511 -6.747213,-37.2819143 c -3.6933028,-20.4620624 -6.6954789,-37.4665466 -6.6875321,-37.7453138 0.01045,-0.3148844 1.0876536,-0.7072664 2.3522381,-0.9921304 l 2.3847261,-0.5428814 -0.2099327,-2.6676302 c -1.1916146,-18.530754 -0.2949015,-38.4902317 3.7262923,-80.346407 7.4919711,-78.7063892 19.6740225,-149.0987202 29.9941274,-173.6705993 1.2955752,-3.0415239 3.7372874,-8.8181514 5.4784738,-12.8573337 6.2758653,-14.7426195 6.8740212,-16.165458 8.5759695,-20.4397788 0.949189,-2.3777274 3.3409164,-7.9925088 5.3725583,-12.3953357 6.0515884,-13.3990513 12.1401642,-28.0989414 12.2249871,-29.4465962 0.010602,-0.3148844 -1.0456646,-0.7677043 -2.2877584,-1.3160078 -1.285088,-0.5817623 -2.2897572,-1.2201274 -2.2847593,-1.4115442 0.010493,-0.3148845 3.7037992,-9.284196 8.1949433,-20.1235719 l 8.1848475,-19.7552059 3.0665057,0.084639 c 3.3904003,0.095219 3.6783073,-0.2149048 4.546526,-2.981536 0.3148975,-0.920716 0.8467227,-2.0283395 1.2760818,-2.3692372 0.3848703,-0.4048135 3.1484801,-4.4675494 6.1133182,-9.0295245 33.3526885,-51.5691391 58.7438082,-84.7296781 107.6470045,-140.55063834 4.9488952,-5.66986307 9.0372202,-10.52724227 9.0451181,-10.80594346 0.010537,-0.31488423 0.1399594,-0.43985948 0.3348935,-0.434834 0.2199297,0.006684 0.736758,-12.80955211 1.183111,-28.50700815 0.7982404,-28.04840894 0.812735,-28.55919341 1.8239093,-29.83167824 0.5318252,-0.68028782 2.0028509,-1.75494152 3.3204234,-2.36873463 2.263266,-1.096607 2.5416761,-1.08867207 14.9446058,-0.87773514 l 12.683638,0.16994025 0.06996,-2.50919611 c 0.064934,-2.23027003 0.1999341,-2.50468637 1.0986438,-2.66513061 0.6072996,-0.10976541 11.4360916,-0.0899291 24.0756947,-0.0110371 12.639803,0.070093 24.631965,0.0502545 26.5863311,-0.0330611 l 3.6303235,-0.18990928 -0.085035,3.06700826 -0.085036,3.06300116 7.0651604,-0.0238048 c 3.9042342,-0.0198319 28.7690235,0.0290948 55.2108013,0.17496461 26.443078,0.0952191 77.795182,0.30985882 114.0905163,0.44977805 36.2948342,0.14997121 70.6844338,0.28988934 76.4471168,0.31488447 5.762382,0.0370296 13.431746,0.0102969 17.058072,-0.0238048 l 6.556124,-0.10447765 38.284338,39.66679625 38.237956,39.66624086 2.629647,-2.58717 2.582663,-2.5236774 8.114768,8.8284405 c 4.463055,4.8669143 12.440818,13.6014446 17.759744,19.4224548 l 9.691409,10.5920571 -1.742937,2.4192274 -1.742934,2.419214 14.218792,14.8128965 14.219189,14.8127909 -0.259922,19.3744749 -0.21993,19.4205507 -2.137306,-0.059511 -2.137308,-0.059513 -0.105005,3.7128057 -0.09998,3.7162969 2.787597,0.07935 2.787596,0.079349 -0.09495,3.5763382 c -0.06005,1.986853 -0.204933,29.9715881 -0.374873,62.1758493 -0.16994,32.2043141 -0.279905,58.9266513 -0.294902,59.3433144 -0.01772,0.7042246 -0.434861,0.821794 -2.346738,0.7677041 l -2.323247,-0.07009 -0.13496,4.8769256 -0.134958,4.8769124 1.624473,0.046289 c 1.579988,0.046287 1.624974,0.046287 1.57549,1.7769215 -0.02857,0.9931883 -0.299901,22.2080509 -0.552826,47.1596163 -0.294902,24.9981964 -0.644793,45.5310912 -0.789751,45.6648478 -0.199934,0.3148843 -128.604311,1.637465 -133.714253,1.5405001 -0.414864,-0.011842 -0.6073,1.7144468 -0.75526,6.9500975 l -0.199934,6.9660465 1.717944,0.050254 c 0.974183,0.030419 33.147505,-0.309859 71.50262,-0.6912646 77.872556,-0.7662494 72.053792,-0.444885 74.62086,-4.1041694 1.015671,-1.4460216 1.32057,-2.3357386 1.280592,-4.1941383 -0.03571,-6.6486363 0.562321,-88.3860889 0.730768,-94.285086 0.154956,-6.5471222 0.194935,-6.8249901 1.075645,-6.7998891 0.881213,0.027772 0.938702,-0.2898894 1.061654,-4.6160121 l 0.134958,-4.6459927 -1.858896,-0.055545 -1.858899,-0.050254 0.369886,-12.9098628 c 0.531826,-18.6677903 0.967692,-63.4158896 0.881716,-88.0979848 -0.08504,-27.8409809 -0.264907,-24.918137 1.403545,-24.8706464 l 1.393049,0.040996 0.105007,-3.7162971 c 0.08001,-2.7875929 -0.01996,-3.7177913 -0.489836,-3.7302887 -0.510334,-0.013236 -0.619798,-2.7111137 -0.543821,-13.6346791 0.01931,-7.4360852 0.169941,-17.2831983 0.289903,-21.836326 0.144958,-5.1078849 0.04166,-8.2242747 -0.224929,-8.2322229 -0.21993,-0.00679 -0.399867,-0.394895 -0.294901,-0.8746936 0.04999,-0.544336 -5.074356,-6.2341289 -16.587623,-18.1352245 -16.397034,-16.9665948 -16.712932,-17.3026918 -17.438596,-16.300365 -2.229779,3.1919703 -0.449859,4.681991 -20.067995,-16.6981825 l -17.850064,-19.51801779 0.915704,-1.19314864 c 0.479839,-0.69179351 0.919698,-1.32050424 0.923202,-1.44952614 0,0 -14.260326,-14.99998898 -31.732812,-33.06743596 -17.426352,-18.06478873 -35.211286,-36.60437696 -39.54403,-41.14315581 -7.262647,-7.73625039 -7.943327,-8.31325176 -9.522365,-8.35819001 -0.928199,-0.0238048 -43.822393,-0.21992964 -95.315251,-0.38484399 -51.491754,-0.20987582 -111.953154,-0.43985701 -134.305508,-0.56985747 -22.3520038,-0.12431388 -43.0340994,-0.16002213 -45.9174655,-0.0952191 l -5.2092115,0.13992032 -0.064934,2.23028329 -0.064934,2.22978086 -3.8627479,0.17999116 c -2.092323,0.0700907 -13.7595906,0.0753807 -25.8885086,0.007097 -12.1290183,-0.0595131 -22.8644876,-0.0899291 -23.8420707,-0.0277733 l -1.7234412,0.13992031 0.080011,-2.78709033 0.080011,-2.787593 -13.3810626,-0.14997121 c -14.5887708,-0.18990928 -15.9888173,0.0101009 -21.4527451,2.5516742 -3.4868705,1.66796163 -7.351667,5.18202371 -8.9696926,8.15715878 -2.5506732,4.66848825 -2.6806314,5.96566366 -3.475374,33.87436519 l -0.7377632,25.9156458 -7.8300121,8.93261258 c -28.7759214,32.87824096 -51.6029708,60.85901796 -69.8788976,85.71441196 -6.9623924,9.4703759 -7.972215,10.6505511 -7.2767398,9.0894068 3.6408187,-8.7278783 10.7644092,-27.1151161 12.2898646,-31.7215664 1.0686496,-3.3139301 4.3225996,-11.4503388 7.255649,-18.1524697 7.1075952,-16.2037969 7.6672642,-17.9066457 7.2332049,-20.6159736 -0.4248624,-2.929549 -1.8284068,-6.0002469 -3.0575088,-6.8727187 -1.3225712,-0.8721809 -13.473732,-6.704075 -18.708585,-8.9438935 -2.1558022,-0.95920068 -6.8856685,-3.01752085 -10.5556782,-4.71597891 -3.6703102,-1.67545993 -10.3724873,-4.61799555 -14.9199641,-6.51433748 -4.5475255,-1.89289039 -9.4145973,-3.98470909 -10.7905521,-4.62999073 -1.376054,-0.64828355 -4.406571,-1.95336759 -6.6552924,-2.94754805 -9.7358441,-4.13516837 -16.6716453,-7.0259816 -18.8318447,-7.87959479 -1.2890822,-0.4499104 -3.3554127,-1.31402401 -4.5945111,-1.8623937 -1.2860798,-0.54936149 -5.4208927,-2.23878684 -9.1876214,-3.79227371 -8.4976451,-3.54135843 -16.9010203,-7.12868634 -25.0272872,-10.6597026 -3.3968987,-1.47551319 -8.0810296,-3.48536419 -10.3312507,-4.43106216 -2.2967556,-0.96369686 -6.5216855,-2.75060295 -9.4159476,-3.93971793 -8.1289143,-3.43838942 -9.1425365,-3.74578852 -15.8991459,-4.77545108 -15.9186898,-2.4407178 -28.2145533,-3.17596819 -75.3978076,-4.51903405 -48.3445788,-1.37505679 -59.545798,-1.37356232 -77.1495409,-0.13992031 -12.7619639,0.95219131 -17.1019064,1.56648708 -22.3121175,3.36041552 -4.6929782,1.59847802 -30.2923801,11.03856897 -41.4291702,15.32003107 -4.7929464,1.82040477 -10.805897,4.06318562 -13.387859,4.96439488 -2.5806633,0.85617869 -13.1486382,4.7369535 -23.4819388,8.53537704 -10.334299,3.84275313 -19.911245,7.19387162 -21.2686044,7.52705913 -2.1528027,0.47979862 -2.6731343,0.85326922 -4.3151023,2.98752681 -1.0606485,1.34906986 -1.793918,2.64315073 -1.7064459,2.83808571 0.1199495,0.31990973 0.3648877,2.06282977 0.5318253,4.10416929 0.1699398,2.05683898 0.6192946,4.34059066 1.0171652,5.05060797 0.8362356,1.59498669 5.3862038,14.88543518 15.9209894,46.46449038 7.4940208,22.4782218 8.2560238,25.10057 7.7161989,26.1081338 -0.3448917,0.5993516 -4.8459291,5.3009418 -10.0593897,10.4983062 -5.1662754,5.1506277 -10.5287867,10.6675846 -11.9204356,12.2089443 -2.8335812,3.2189489 -2.8335812,3.2189489 -9.5438058,2.1977765 -10.3207541,-1.5439913 -13.4761323,-1.729933 -21.1569413,-1.3075437 -19.2754525,1.1830978 -30.59548252,3.7272868 -45.19165116,10.3319503 -9.60333623,4.2801133 -14.65834807,7.1573842 -22.57783047,12.6977889 -8.34809412,5.8970267 -15.08251093,12.2568182 -20.06399641,19.0867056 -1.30307383,1.726442 -3.72229313,5.0537157 -5.3676599,7.3318731 -10.59081681,14.4788627 -18.21949335,32.6656113 -21.68721947,51.6250765 -1.10214821,6.0550241 -2.18779047,22.9881864 -1.87339277,28.2980681 z M 183.3988789,86.2974416 c 1.7404351,-0.75077652 3.5248562,-1.37455442 3.9427214,-1.36105173 0.4148644,0.0117992 1.0766507,-0.28988934 1.4115417,-0.60186434 0.3798715,-0.30985887 2.2637661,-1.08959771 4.1846442,-1.67695442 1.9218765,-0.58586211 9.2984855,-3.35840532 16.3955351,-6.13290556 11.7050553,-4.64100707 19.8754071,-7.56679995 28.7864182,-10.38208595 l 3.1899653,-0.96713555 0.8867148,1.50050811 c 0.4848373,0.84665678 0.9656807,2.01485011 1.1321291,2.69312773 0.1149243,0.64378713 0.6472918,1.74943996 1.139125,2.43820496 0.5373269,0.72075593 0.8422263,1.40255127 0.7017782,1.49501962 -0.3798713,0.37492544 -38.909787,14.97479571 -39.4208214,14.96024837 -0.2849037,-0.008994 -1.7354375,0.56033802 -3.1949644,1.25557007 -4.4770489,2.14980987 -16.4075817,6.55272942 -17.6613742,6.51708844 -1.9028831,-0.0555446 -4.6584903,-4.50353451 -4.6649878,-7.56939219 0.011894,-0.41486438 1.2900871,-1.27752337 3.1754708,-2.15430637 z m 10.844384,544.9372495 c 4.7749526,-1.2116634 8.7519635,-2.1238097 8.8418835,-2.0248348 1.3490632,1.6099703 20.3322589,30.2768806 20.3217122,30.6485128 -0.010498,0.3148844 0.3998675,0.5558418 0.9142094,0.571315 0.5103349,0.013236 10.2539263,0.6123119 21.6208412,1.320504 11.4128502,0.7412546 20.7870614,1.2325589 20.8827805,1.1391911 0.1300006,0.00401 1.8828896,-10.589809 3.9152308,-23.2662528 2.0343395,-12.6763381 3.7772755,-23.3182928 3.8292586,-23.5476651 0.2049328,-0.4398595 15.3053384,1.140646 15.7085569,1.6654621 0.1300006,0.00406 -10.2052917,66.2637218 -10.3485953,66.4007182 -0.6627911,0.4249154 -64.3735307,-6.4787492 -64.9136057,-7.1001997 -0.4448586,-0.5268793 -29.4412071,-43.3633353 -29.4372077,-43.5042993 0,0 3.8892384,-1.1075837 8.6644411,-2.3187444 z M 282.8233978,53.3390315 c 2.0058492,-0.25986899 4.8959126,-0.56734732 6.4788499,-0.65132542 l 2.8425782,-0.23989932 0.2299277,2.05833353 c 0.3248955,3.26343744 -0.4648545,29.40931522 -0.886715,30.0482489 -0.3348936,0.50532253 -0.5268262,0.49487497 -0.8812134,-0.0277708 -0.7607479,-0.98419549 -3.7092983,-8.47220171 -7.2425523,-18.24118224 -1.8099133,-5.02528223 -3.492868,-9.5819938 -3.7097983,-10.0981344 -0.8712154,-2.10881293 -0.5833097,-2.38972244 3.1944644,-2.82758503 z m 49.7642683,-1.14858088 c 11.2940378,8.0677e-4 53.2667824,1.51600766 54.277704,1.92937776 0.733756,0.33987942 0.5813128,8.98598821 -0.1499558,9.84706022 -0.4748528,0.53177231 -4.1516535,0.52079576 -22.9123724,-0.0423196 -12.3067596,-0.34490486 -26.0066689,-0.74019661 -30.520606,-0.54777451 -4.467552,0.18990928 -8.8790214,0.0648009 -9.7987232,-0.27494536 -1.4295368,-0.36487431 -1.6579622,-0.55980903 -2.0238443,-2.33474655 -0.2549227,-1.06566101 -0.4098656,-3.4528839 -0.4098656,-5.26404431 l 0.064934,-3.29792792 z m 60.1670457,373.11870198 c 1.7139444,-1.3935453 4.511037,-3.3569107 6.167051,-4.3810852 l 3.0720032,-1.8044027 1.0286708,1.344058 c 2.600157,3.4193982 11.2034687,17.88575 11.1756767,18.8630819 -0.015347,0.545394 -12.4702072,8.659347 -13.2597006,8.6369044 -0.6017982,-0.015869 -1.5919847,-1.2005547 -2.7910951,-3.1904625 -3.0150225,-5.1496359 -8.7006297,-16.0027126 -8.5948148,-16.4647108 0.041657,-0.3199095 1.4860189,-1.6249804 3.1989634,-2.9875397 z m -2.9180551,87.8989503 c 4.3061041,-7.5930777 7.2830391,-12.5751147 8.2463274,-13.7566387 l 0.9142095,-1.1280822 1.9658624,1.1136672 c 3.8882388,2.1952901 11.0760588,7.6588185 11.1929707,8.4543083 0.1050066,0.8047339 -1.5859857,3.4408889 -9.490922,15.0199851 l -3.0550107,4.467047 -5.1062437,-3.4908659 c -6.7040273,-4.5130299 -7.1577808,-4.8984027 -7.1830721,-5.6431222 0.010537,-0.3148842 1.1406324,-2.5651635 2.5136845,-5.0404114 z m 16.4025338,11.5752478 c 1.0211723,-1.6384567 2.6721332,-4.1091553 3.6893036,-5.5198001 1.0131713,-1.350062 2.8070906,-3.8707504 4.0156979,-5.5553091 2.273264,-3.1414777 3.216957,-3.6278226 4.8074419,-2.3327365 0.4498575,0.3299608 0.806744,1.0486007 0.7922495,1.5619905 -0.041657,1.4420275 -12.7597129,18.8328502 -13.7347474,18.8050514 -0.21993,-0.00675 -0.826727,-0.344905 -1.2805916,-0.7737878 -1.0376639,-1.05561 -0.6777751,-2.3282399 1.7084468,-6.1789942 z m 1.6739577,-109.4105263 c 0.4748393,-0.3999204 1.2290939,-0.670766 1.5959823,-0.4948749 1.1466236,0.4797986 12.2954139,18.7057853 12.257026,20.0546968 -0.015348,0.543807 -2.6236494,2.3942188 -3.3669086,2.3737335 -0.1899355,-0.0064 -1.4735217,-2.0938292 -2.8885639,-4.6355054 -1.4160405,-2.5096854 -3.4983656,-6.0963256 -4.6090052,-7.8948829 -4.398074,-7.1416332 -4.6534913,-7.9410773 -2.9865324,-9.381518 z M 418.9469707,55.3921676 c 0.9741843,0.0290947 3.9322247,0.65674751 6.5698702,1.05362604 2.9160542,0.39992035 4.8534264,0.94015679 4.9823848,1.29603818 0.2949015,0.84268932 -2.4677004,8.25142572 -6.9944326,18.76602474 -2.1882903,5.00397721 -4.2251307,9.6381204 -4.5195351,10.18769349 -0.6412876,1.36106494 -1.8459009,1.16656669 -2.2207798,-0.38484399 -0.1749385,-0.64682877 -0.094956,-7.94932964 0.085035,-16.21755085 l 0.3948687,-15.04796884 z M 417.77235,544.1214442 c 12.763162,-12.4190744 20.6819462,-24.4629195 26.3723009,-39.8732767 3.0735032,-8.3720363 5.7624821,-24.4675743 5.2704915,-31.6871284 -0.9271964,-13.1775877 -3.0085249,-24.9513142 -6.3051557,-34.8516047 -3.1614748,-9.7583873 -6.5752686,-17.1991806 -9.8887451,-21.6163433 -0.7592534,-1.0471459 -3.0824997,-4.3620811 -5.1356847,-7.3486159 -2.0538345,-2.9765369 -4.8259359,-6.8298833 -6.1734981,-8.4492567 l -2.4697001,-3.0520112 1.3270705,-2.5596754 c 0.7847378,-1.4530307 2.9785337,-5.074902 4.8779175,-8.0867228 1.9463702,-3.0235251 4.8254358,-7.8572581 6.3941273,-10.7404801 2.6976255,-4.945391 5.3726087,-9.1435762 5.8835428,-9.1290287 0.094956,0.00255 1.6049805,0.7513055 3.2989316,1.664457 1.6939497,0.8822317 9.1677773,4.4905475 16.5984193,7.9539186 7.4309407,3.4663733 13.6662691,6.4786966 13.8481099,6.62175 0.1849372,0.3249354 -0.5803078,4.0751805 -1.732938,8.5962644 -9.021325,36.0892018 -17.2206672,90.6538646 -23.4947337,155.9614938 -0.7277651,7.6500243 -1.3365673,14.2772229 -1.3510617,14.789912 -0.024201,0.8016922 -0.1549565,0.7327905 -1.1486337,-0.4148646 -0.5838123,-0.6578056 -1.2665863,-1.2546441 -1.453028,-1.2595376 -1.8588985,-0.055545 -8.2388792,-1.1976451 -8.6470969,-1.5609853 -0.6797852,-0.5648347 -3.8637478,-1.425047 -8.5840182,-2.1358048 -4.3016048,-0.7322616 -12.6835375,-3.438892 -13.907241,-4.5325366 -0.7247629,-0.6612439 -0.6712815,-0.8532693 1.0541554,-2.7920895 1.0066777,-1.1260986 3.4503817,-3.6213289 5.3623117,-5.5170231 z m -0.8312365,-127.5616076 c 0.6297951,0.755273 1.1136407,1.6664672 1.1066447,1.891396 -0.010449,0.3148842 0.3948686,0.7477347 0.8527269,1.0501876 0.4948353,0.3348539 1.7514332,2.1343105 2.7676037,4.0297002 1.0136739,1.8883807 2.3457393,4.1106628 2.8810652,4.9144048 0.5818152,0.753686 1.3740555,2.2832623 1.7654288,3.3049239 l 0.6922695,1.8159214 -1.17712,-1.155193 c -0.6317923,-0.6592604 -1.9708602,-2.6536382 -2.9415465,-4.4995406 -0.9701904,-1.8564029 -2.481695,-4.3006117 -3.3299202,-5.4854817 -0.8032396,-1.1776754 -1.5150091,-2.3197363 -1.5100102,-2.5121848 -0.023143,-0.31991 -0.5268263,-1.1696084 -1.1481312,-2.1168141 -1.4245377,-2.2212771 -1.3990452,-3.1179901 0.037163,-1.2501477 z M 464.5140906,71.04908934 c 0.6942798,-1.51951232 1.0721543,-1.73394039 1.7969186,-1.07068625 0.5883089,0.5317723 6.704427,2.85256668 9.4261943,3.568337 1.1511199,0.3499303 9.5128661,3.80477126 18.602269,7.77993208 9.0893035,3.97870485 20.2022015,8.7107257 24.6581568,10.55632372 4.5040394,1.79591205 8.1739503,3.4873743 8.1674027,3.71829383 -0.010406,0.31488445 -0.8002376,1.96536268 -1.7369372,3.90073118 -0.9362026,1.9298803 -1.7369371,3.9012469 -1.7519317,4.4100741 -0.017589,0.6403487 -0.2399256,0.8266874 -0.8562183,0.6813458 -2.0718281,-0.6682531 -38.0734072,-16.04964783 -38.6624657,-16.57952894 -0.3648877,-0.3298285 -1.4180405,-0.77775508 -2.2967556,-0.96369688 -0.8727231,-0.34490483 -5.33562,-1.94786626 -9.8802468,-3.95322082 l -8.2640222,-3.57984251 -0.2349268,-1.86638773 c -0.2599216,-2.18829435 0.094956,-4.55352433 1.0256686,-6.61850991 z m 0.0079,272.45398676 5.2081123,-9.8890492 1.7564308,0.3698997 c 0.929193,0.029095 3.0385138,1.0476753 4.6849808,1.9613558 1.6484655,0.8807769 3.8027666,1.9373787 4.8154392,2.2862642 2.7141196,0.9752027 3.5253562,1.8643907 3.1084922,3.4818726 -0.5268264,2.165799 -9.0390704,18.7527206 -10.1881972,19.9289811 -1.4360342,1.4340396 -2.5901603,1.1766175 -9.4607338,-2.3537378 l -5.6356225,-2.8540743 0.2649078,-1.4680147 c 0.119949,-0.8311834 2.5861608,-5.9231854 5.4374872,-11.4187048 z m 87.0252399,-222.7535537 c 1.5829864,-5.0211693 3.0859991,-8.8367323 4.3111017,-11.0338609 0.6372938,-1.2005544 0.919698,-1.3206363 2.212783,-0.9957013 0.8267269,0.3449048 2.071828,0.6682533 2.8540747,1.0106453 0.732764,0.3999203 3.8542507,1.7449437 6.8857186,3.0175208 3.0335162,1.2411551 6.3822304,2.7466226 7.4377383,3.2269632 1.0531634,0.5427491 2.1128146,0.9257416 2.2987551,0.9311638 0.1899354,0.00655 0.7342586,0.3398795 1.2331011,0.7407255 0.7707459,0.6313558 0.7167751,0.9507366 -1.9388706,7.7053041 -3.0545106,7.7216899 -3.8512514,9.5589431 -4.2681168,9.5471465 -2.6461426,-0.075381 -22.5870285,-8.2204794 -22.5618866,-9.1016398 0.010493,-0.3148845 0.6732786,-2.482204 1.5385018,-5.0682103 z m 628.7687685,100.7166624 c 0.742763,0.019833 0.9202,0.3449048 0.886716,1.5005081 -0.0221,0.8327706 0.04073,27.9805295 0.139959,60.3305951 0.105004,32.3532661 0.149955,60.0101524 0.114925,61.4488343 -0.07498,2.6916199 -0.07498,2.6916199 -1.471023,2.6516412 l -1.393049,-0.040995 0.04999,-2.9175538 c 0.04589,-1.5704941 0.154956,-26.3941485 0.264921,-55.1590684 0.07499,-28.7693765 0.239927,-55.7691714 0.314899,-60.0865789 0.179935,-7.4796786 0.219929,-7.7574804 1.101646,-7.7323399 z M 79.27512826,318.6888643 c 1.11963152,4.6824802 4.15465276,14.0614986 5.42464193,16.7945524 l 1.09614414,2.2762661 5.80506882,0.1699404 5.86044931,-0.1598894 1.05566282,2.1138118 c 0.57081222,1.1706664 1.50701072,2.6086603 2.14230482,3.1714717 l 1.0861461,1.0571967 3.4208902,-0.9617131 c 1.8763922,-0.5558418 5.4399868,-1.7044491 7.8813458,-2.5656663 8.2161363,-2.9085611 8.4981449,-3.0095197 8.9430009,-2.3102543 0.2099317,0.3898694 0.6962767,1.6869524 1.0741511,3.0135268 1.0161733,3.5148556 1.3820529,3.7557865 4.372083,3.1384755 5.8434051,-1.1805849 26.6653564,-7.7005431 27.9017556,-8.6885739 1.2825886,-1.021225 1.2860799,-1.1171057 0.7392576,-3.0895037 -0.2899026,-1.130595 -0.5693178,-2.7750956 -0.5913108,-3.64032 0.006,-1.3460548 0.2399257,-1.6609656 1.6934498,-2.3562372 1.6984501,-0.8502274 9.7848292,-2.5131766 15.6142384,-3.1824614 3.4518813,-0.4148645 11.7069556,-3.0585179 12.8513348,-4.0951766 0.6178003,-0.5268793 0.5898032,-1.1050709 0.080011,-3.9927101 -0.5208353,-2.9015519 -0.5468224,-3.5953291 0.045889,-4.9278943 1.2895845,-2.8490755 1.0901534,-4.0566922 -3.3614099,-17.4315551 -1.0676579,-3.2379532 -2.2527695,-7.35991 -2.6671356,-9.1383785 l -0.744759,-3.2754457 -1.858897,-0.055544 c -2.3237463,-0.07009 -2.49969,-0.3898695 -3.7957691,-3.780279 -0.55932,-1.5549946 -1.311075,-2.955549 -1.7194435,-3.2554496 -0.6387881,-0.4298087 -2.7401116,-0.07935 -14.3614943,3.2629481 -0.3198968,-0.00956 -0.952694,0.7743167 -1.4370341,1.4980086 -0.9761813,1.6074841 -1.5869854,1.9108891 -7.7775278,3.8227705 -6.4726027,2.0608198 -6.4264173,2.0608198 -8.033346,-1.8963948 -1.1751231,-2.7905952 -1.5320031,-3.2984307 -2.5096867,-3.3259118 -2.1363074,-0.059511 -17.649628,4.4715433 -25.637089,7.4989166 l -4.4640528,1.7004419 -0.025789,2.0833285 c 5.501e-4,1.1216019 0.1399589,2.9865348 0.2949016,4.145656 l 0.2599218,2.1552981 -1.7879204,0.7513055 c -1.0346618,0.3848439 -5.0202225,1.653467 -8.86587599,2.8585842 -10.6912849,3.3229228 -9.97931558,2.7945889 -9.40795052,7.2169621 0.31489761,2.1892864 0.23992576,2.9890212 -0.28990259,3.6628024 -0.77324548,1.0361692 -6.21563388,4.4700489 -7.00507851,4.4480559 -0.50983233,-0.013236 -2.17979342,1.4130521 -2.09832025,1.8329155 0,0 0.36988667,1.677457 0.7832435,3.5073571 z m 3.83725565,-2.5516745 c 1.08215224,-0.4797986 3.11948989,-1.7709172 4.49804207,-2.8865547 1.42603877,-1.0816628 2.75260792,-1.973866 2.98403272,-1.9678621 0.5573229,0.014542 1.11614017,1.5719886 4.34859036,12.1621549 3.0155225,9.9405731 3.26344266,11.0156234 2.50918682,11.4586835 -1.04016322,0.6112539 -1.89038676,-0.5047938 -2.73461282,-3.5183602 -1.09664668,-3.9342297 -1.59348427,-4.4120711 -4.11366756,-4.0676819 -3.0810002,0.4249153 -3.8062658,1.4305351 -3.53535283,5.0145303 0.43486049,5.7750274 -1.43153635,2.9740242 -4.10067146,-6.158456 -1.01917535,-3.3299189 -1.80391458,-6.7920999 -1.7814217,-7.5801439 0.007946,-1.3150821 0.23492675,-1.6289745 1.92937371,-2.4462061 z m 9.20856563,-11.6353282 c 0.89921247,-0.6157503 11.26989576,-4.0506881 11.54070836,-3.7627825 0.6317921,0.6592602 -0.7422597,1.6459684 -3.5563474,2.4642051 -1.73343785,0.4898496 -4.17714559,1.4535331 -5.40294777,2.02584 -1.98185799,1.0021812 -3.18896678,1.0291601 -3.16497422,0.224955 0.0105472,-0.3148842 0.29990061,-0.6002771 0.5813128,-0.8167685 z m 7.79047506,3.8932459 c 1.2256024,-0.5732987 3.0525098,-1.1311241 4.0316918,-1.2330879 l 1.81991,-0.2699199 1.9738609,5.7739825 c 3.4263891,10.2759166 4.9299019,16.2192437 4.3036046,16.9934942 -0.6742837,0.8147847 -7.7309935,2.1847896 -8.179748,1.6264749 -0.2099317,-0.3298285 -1.3410649,-3.4763844 -2.5361776,-7.2298168 -4.73296606,-14.9596928 -4.66048975,-14.261776 -1.4130425,-15.7469963 z m 3.6503167,28.5002634 c 0.4298614,-0.628843 7.6526189,-2.7006263 9.3243269,-2.6536516 2.6016565,0.075381 -0.080011,1.8893992 -4.5970103,3.1239943 -1.1696217,0.284864 -2.2972556,0.7378162 -2.582663,0.9536463 -0.2299279,0.3148842 -0.891714,0.3298284 -1.4965142,0.3148842 -1.0671553,-0.03174 -1.3255707,-0.7427093 -0.6467891,-1.7494267 z m 6.8533772,-35.0350467 c 0.6142957,-0.3999203 6.1510065,-2.1977899 12.2914663,-4.0172026 6.1870444,-1.8099042 15.0036854,-4.5945085 19.6486795,-6.1335142 10.1819499,-3.3818927 14.1625593,-4.433059 14.7486702,-3.8112648 0.1849367,0.3249354 2.2772608,6.5232909 4.6205017,14.0266644 2.8100886,9.0975003 4.0686805,13.7802319 3.7812736,14.1434533 -0.2299279,0.3148843 -1.1351312,0.6727496 -1.9263744,0.7792098 -2.617652,0.4698799 -21.4124091,6.0384404 -31.5001886,9.3749189 -6.4269173,2.0943182 -13.1739307,3.9956988 -14.1026294,3.9697119 -0.2849035,-0.00894 -0.9032063,-0.9237578 -1.2895844,-2.0243455 -1.5604934,-3.9922075 -7.4160958,-23.5885563 -7.4348897,-24.5639838 0.015473,-0.6088735 0.5053359,-1.3325785 1.165125,-1.7299465 z m 53.586725,-22.7826192 c 2.2542693,-0.7682331 4.3580872,-1.255041 4.585514,-1.088672 0.731759,0.4348339 1.3205704,2.6031589 1.0161734,3.5148555 -0.2049329,0.5373269 -1.5215079,1.1746337 -4.1916415,1.9328824 -2.1553023,0.5803077 -4.0266955,1.038682 -4.2131345,1.0341856 -0.4598556,-0.012081 -1.6019813,-2.5466755 -1.4390335,-3.2924264 0.045758,-0.4148645 1.802916,-1.2631084 4.2436244,-2.1238098 z m 0.2699066,8.3264503 c 3.2284535,-0.7087211 3.3639107,-0.6427291 4.3945758,2.3697398 0.5103349,1.5549945 1.3050707,3.1479711 1.8014164,3.6298194 0.7672545,0.7592405 0.9551934,0.7322618 3.0275188,-0.2299806 l 2.1662974,-0.9651516 -0.023541,-2.6616262 c -0.012897,-3.999706 0.1050055,-4.7399688 0.784738,-4.7204752 0.3698733,0.00833 0.9966798,0.9252125 1.3825526,1.9953566 1.5569955,4.1331583 6.0847274,19.7410951 5.8844419,20.2453333 -0.1050055,0.3199099 -1.0896508,0.770746 -2.2127829,0.9957011 -1.0766506,0.2898894 -3.8412548,1.0451623 -6.1392588,1.780426 -6.7082263,2.1837979 -6.0320448,2.9060613 -10.0270495,-10.2297353 -1.9148806,-6.1891377 -3.3924012,-11.3913029 -3.2979319,-11.5290666 0.09998,-0.3199097 1.1296296,-0.5157703 2.2542695,-0.7677041 z m 8.9884375,27.1223104 c 2.8230845,-1.1386622 6.1301125,-1.4615212 7.0380679,-0.6993317 0.3648876,0.329961 0.6652908,1.0776957 0.6492886,1.6859607 -0.041526,1.3775561 -1.7884203,2.4507023 -5.7239446,3.508362 -2.8115896,0.7547441 -2.9040594,0.7507766 -3.4833712,-0.095219 -0.3598887,-0.4598288 -0.6088074,-1.4925202 -0.5888114,-2.1972873 0.030813,-1.1526804 0.3698736,-1.464523 2.1093154,-2.2167808 z m 12.9933872,265.2940463 c 0.5103348,0.013236 0.6497913,0.017197 0.2949017,-0.3148844 -0.3198968,-0.00956 -0.7427622,-0.019833 -0.8812134,-0.027773 -0.1899357,-0.00636 0.085036,0.3249354 0.5933076,0.3348539 z m 16.3270078,-462.6439288 c 2.2577674,5.6408209 4.1336596,11.5530564 4.0976708,12.8060078 -0.035046,1.2176147 -0.7932415,1.7409364 -3.2239546,2.3137457 -4.0231961,0.9117231 -3.9072338,1.7479322 1.7409352,17.2444626 1.8089134,5.0251633 3.8797431,10.6607341 4.5235343,12.5389844 0.6422927,1.8783824 1.4815197,3.4833671 1.8019163,3.6298195 0.3198965,0.00956 2.0078488,-0.3299608 3.6538146,-1.0181834 1.6949508,-0.7547441 3.2899335,-1.2855907 3.5218582,-1.2796395 0.9746867,0.030419 4.2061373,10.6251592 4.4640528,14.6283037 0.2049327,2.8920696 1.2925866,6.8703779 3.0755039,11.1508879 1.8309066,4.2816209 2.1967874,4.5230409 5.8373573,3.9312278 2.4302119,-0.4398595 3.4513815,-0.4148646 5.3405688,0.1499711 3.0395151,0.888183 4.306604,0.5718439 15.6777178,-3.7832809 4.8879156,-1.9133756 9.9603207,-3.760283 11.2737456,-4.1886367 2.346739,-0.7677044 2.3487387,-0.8317129 2.6436429,-3.0995019 l 0.2849036,-2.2682651 2.1018182,-0.3499303 c 4.293608,-0.6162794 4.1996385,-0.5858621 4.2441244,-2.155801 0.045757,-1.5380006 -2.0733278,-8.8456854 -3.4738731,-11.8583658 -0.4748526,-1.039608 -1.7704266,-3.1289802 -2.8885636,-4.6394864 -2.1018195,-2.8820715 -3.8897399,-7.034168 -4.7064753,-11.0082309 -0.616306,-2.8390906 -0.3198968,-3.2164626 3.23945,-4.4165674 1.1711159,-0.3848441 2.3052526,-0.9926595 2.4087199,-1.3745544 0.1349601,-0.3148845 0.04589,-1.634476 -0.2399257,-2.8930613 -0.5833097,-2.3897358 -7.0466152,-20.2333516 -9.3095323,-25.6404495 -1.5215064,-3.6703009 -2.028842,-3.8707373 -6.3067056,-2.1353024 -3.2004618,1.3515564 -3.2429481,1.2870454 -4.8709202,-3.5793399 -1.5839861,-4.7844441 -5.4510837,-14.23618629 -6.1716492,-15.04562814 -0.4448586,-0.55782539 -1.0516558,-0.57528218 -3.2509465,-0.0899288 -3.8312582,0.69271912 -4.246624,0.61773399 -5.5927368,-1.08920129 -3.413893,-4.18613722 -5.6706115,-6.52687464 -6.6857824,-6.78983815 -0.778747,-0.33987946 -3.0340174,0.45982891 -7.5010683,2.28875054 -3.5268571,1.43903886 -6.5810175,2.60265627 -6.8599261,2.59465511 -0.2199299,-0.006834 -1.4060455,0.37492542 -2.5351791,0.85723671 -2.4472071,1.05217137 -2.4472071,1.05217137 -3.1704718,8.51044792 l -0.4798514,5.5627943 -1.6479657,0.7547441 c -0.8937109,0.3898693 -1.9328729,0.9712351 -2.2677652,1.2501476 -1.0931421,0.8987629 -0.6682796,3.8837372 1.2425964,8.6328047 z m 3.2899335,-6.1789414 c 0.2849035,0.00899 0.8107379,0.921245 1.1976053,1.9903575 0.3848705,1.1331078 1.257091,3.1469792 1.9158791,4.5635224 1.1846186,2.4387073 1.6054806,5.6704051 0.6767833,5.6439686 -0.510335,-0.013236 -1.9913535,-3.4978748 -2.350237,-5.643572 -0.1050056,-0.9011433 -0.6308004,-2.2947545 -1.0731461,-3.045015 -0.9781783,-1.5669896 -1.152125,-3.5188629 -0.3698735,-3.4963674 z m 9.7992734,-19.33712807 c 8.7462146,-3.56135419 8.6532939,-3.56385382 11.4908241,-0.37981852 1.3070809,1.41553824 2.825584,3.61032596 3.3489151,4.83493645 0.9616868,2.17579701 0.9601923,2.2082773 0.114924,2.82607762 -0.4698534,0.2999402 -1.9798583,0.937247 -3.2899334,1.28559032 -1.3125693,0.3798186 -5.2575456,1.8389064 -8.7831028,3.2364457 -7.1468836,2.8750755 -9.3395222,3.1749762 -9.2881396,1.3710627 0.028698,-1.0577259 0.7912444,-1.6449765 2.2297781,-1.6034902 1.3010769,0.034384 3.8032664,-1.3350648 4.0591837,-2.1937826 0.1399588,-0.4398594 0.055015,-1.85890238 -0.13496,-3.0180233 -0.4748525,-2.61215182 -1.7129445,-3.48886859 -4.059185,-2.71262111 -2.0153461,0.64828365 -2.3862258,0.57237283 -2.1737946,-0.38484399 0.1050056,-0.43985949 2.5606699,-1.75543091 6.5092394,-3.34941246 z m 1.653463,18.64009747 c 2.8215862,-1.0735959 7.4289425,-2.9950253 10.3451964,-4.2146237 2.9175553,-1.231633 5.5009178,-2.2162913 5.7330923,-2.2097847 0.6017982,0.015869 1.8309068,2.6181426 2.943045,6.0322379 l 0.7632474,2.5231879 -1.1386356,0.8007666 c -0.66578,0.4898495 -2.4547043,1.2771264 -4.0017031,1.8104064 -1.5464988,0.4948751 -5.2596946,1.9028882 -8.2218851,3.1104917 -3.3854025,1.3790509 -6.1049205,2.198795 -7.2656947,2.1663014 -1.8109117,-0.050254 -1.8109117,-0.050254 -2.9825331,-3.0675108 -1.8598966,-4.8404248 -1.9558656,-4.7499535 3.8237611,-6.9558369 z m -2.0673291,15.5102709 c 2.1847911,-1.6049714 23.4686916,-9.6964949 25.3261893,-9.6435688 1.0671553,0.03174 1.3735559,0.7442962 4.917407,10.1323603 1.5559942,4.1361604 3.4588785,9.1160021 4.1946395,11.0417297 4.0721798,10.4354086 8.6763872,25.019581 8.2279329,26.0778492 -0.3998676,0.9516623 -2.6101536,1.912873 -12.9415551,5.6252157 -4.9783856,1.8154189 -9.9575712,3.667312 -11.0881556,4.1941516 -1.7904199,0.8466567 -2.1153141,0.870197 -2.703623,0.2398993 -1.0851542,-1.0886721 -5.2341534,-12.0462387 -7.9596199,-20.8174551 -1.3610583,-4.4065694 -3.0715047,-9.6597164 -3.8497518,-11.7277965 -1.8154122,-4.8394199 -4.6824829,-13.4735337 -4.6639878,-14.1240128 -0.023012,-0.3199098 0.2399257,-0.7308069 0.5373267,-0.9471659 z m 13.5359619,53.5092646 c 0.4148644,0.011886 1.2186065,-0.2799707 1.81991,-0.2699198 1.2525945,0.03703 2.5316797,2.5411739 3.3389171,6.7877488 0.4848373,2.5161921 0.4248625,2.80259 -0.3848704,3.3369149 -2.1328095,1.4780258 -3.2149577,0.2898893 -4.7829497,-5.0614524 -0.9312034,-3.2369479 -0.9387019,-4.4910501 0.00899,-4.8359285 z m 9.1213925,-80.42693303 c 0.9287039,0.0238047 1.9578653,1.43403973 2.2817611,3.07900313 0.1699399,0.7417836 0.89871,2.7191147 1.5974822,4.2716097 1.3075702,3.0515087 1.5070107,4.1796438 0.7502606,4.6230078 -0.6133037,0.3699 -1.6319712,-1.4900208 -2.7840976,-5.0496161 -0.5103349,-1.6814507 -1.2935784,-3.5703471 -1.6929511,-4.1851454 -0.9357,-1.3735492 -0.9871846,-2.78609838 -0.1449582,-2.76160594 z m 1.485519,76.82608923 c 7.1419348,-2.7151076 12.4531628,-4.8059343 15.0869096,-5.8913795 1.5050123,-0.5982937 3.0080238,-1.1325789 3.3319197,-1.1235858 0.928704,0.029094 2.2752626,4.9903817 1.6029797,5.7599773 -0.2899026,0.3148842 -1.6049793,0.8527402 -2.9150544,1.137075 -1.2620899,0.2749452 -2.4836945,0.7297489 -2.6321465,0.9841956 -0.4848505,0.7237975 0.1649407,4.4650631 1.0031733,5.5571076 0.7607478,0.9836666 0.9002043,1.0511135 3.7482852,0.5558417 2.0553328,-0.3648744 3.0750027,-0.3298285 3.3899004,0.095219 0.7222636,0.7583145 -0.6472917,1.5529977 -5.1093939,3.153975 -2.067329,0.7423127 -5.1201893,1.9063928 -6.8133415,2.596163 -4.3720817,1.7674257 -6.9523457,2.5926583 -8.4388645,2.5486724 -1.1601261,-0.030417 -1.3825514,-0.4198902 -3.4538796,-6.0469442 -1.2076034,-3.2859327 -2.2352757,-6.4291033 -2.2182804,-6.9868757 0.024069,-0.8007665 0.685776,-1.2311039 3.4113933,-2.2752612 z m 24.6706027,-9.4764198 c 0.9471924,-0.6142954 1.0831442,-0.5159024 2.1053177,1.1821722 1.3310681,2.2502659 2.5616697,6.3453896 2.3347427,7.7343326 -0.2249289,1.2125894 -2.4242144,1.9193798 -3.1429813,1.0341856 -0.2749057,-0.3299606 -0.9751894,-1.6954559 -1.5849859,-3.1234916 -1.349562,-3.1804646 -1.2715854,-5.8917896 0.2899026,-6.8221864 z m -32.0535094,468.1414982 c 2.137807,4.8489285 6.6535426,7.9048279 11.9012925,8.0542294 7.5231605,0.2098784 13.3981056,-5.3362125 13.6132864,-12.9048639 0.2149307,-7.6163801 -5.1971647,-13.3469716 -12.8584817,-13.6131885 -5.4336387,-0.1549956 -10.1156706,2.6956273 -12.4850031,7.5462089 -1.4795201,2.9720403 -1.5245058,7.8133118 -0.1849367,10.9171646 z m 1.5499968,-10.4133758 c 2.1218129,-4.3555876 6.1892437,-6.7954457 11.0654141,-6.6566903 6.7801021,0.1899092 11.6980078,5.3997448 11.5050699,12.1798494 -0.1899355,6.687187 -5.5394048,11.7395405 -12.1805015,11.550557 -2.8815664,-0.07935 -6.2318304,-1.4915151 -8.2218349,-3.4408889 -3.2529447,-3.2679337 -4.2416249,-9.3691657 -2.1677971,-13.632986 z m 10.468607,-368.9693921 c 1.8633961,4.7029788 14.5552311,43.8247911 14.5247915,44.8918406 -0.041659,1.4415382 3.2689402,7.6226352 6.66474,12.4140752 1.8309067,2.6181559 4.5965092,6.6855866 6.1551036,9.0997091 1.5135095,2.3832291 3.0800018,4.4555544 3.4473837,4.6065033 1.0096666,0.4398596 2.6166508,-0.434834 13.7360462,-7.4176498 6.7667067,-4.22363 10.0861304,-6.5466725 10.1019262,-7.1009933 0.028434,-0.9931886 -3.4838711,-6.6089617 -10.0910791,-16.138413 -7.5484532,-10.7652637 -7.286988,-10.1517086 -16.4426197,-37.929854 -2.2687651,-6.8021505 -4.3790803,-12.7178376 -4.7414632,-13.0552704 -0.5423259,-0.5603383 -1.9423698,-0.3749254 -9.7271965,2.0958127 -12.0963795,3.7003082 -13.6967101,4.3980792 -13.8876986,6.2076924 -0.055015,0.7997083 0.041526,1.8294108 0.2599218,2.3167476 z m 8.5369322,-2.7396131 c 1.7799233,-0.4598289 2.338242,-0.4749054 2.8815664,0.079349 0.3648876,0.3299608 1.5874854,3.0590072 2.6611367,6.1206199 1.0741512,3.0130241 2.3792299,6.2022435 2.8680704,7.0532116 0.7962436,1.4010439 1.0706598,1.5699916 2.565169,1.3555633 0.8812134,0.027772 2.154801,-0.5468486 2.817587,-0.94624 1.5140081,-0.9187325 1.3920482,-1.5964812 -1.4350356,-9.9435226 -2.3607349,-6.8528282 -2.4392087,-7.3649088 -1.3595586,-7.7511415 1.6414681,-0.5633799 2.0348394,0.3798186 7.3576644,15.82337 5.6214785,16.4281306 7.3188282,22.1011939 6.9210569,23.0198998 -0.1399589,0.4098391 -0.815737,0.938173 -1.3800533,1.1796593 -5.1662753,1.9053877 -6.993233,2.3982262 -8.7135755,2.4137257 -1.7649276,-0.050254 -2.1917884,0.2598688 -3.0200203,1.5499956 -0.9221972,1.4160408 -1.0161732,1.4460347 -1.5994817,0.660715 -0.4848373,-0.7513054 -3.6768088,-11.2579962 -5.5670449,-18.3315478 -0.3298945,-1.3240749 -1.3735558,-4.0341967 -2.2887584,-6.1067732 -0.9157038,-2.0778271 -2.2977554,-5.7800263 -3.1589768,-8.2223441 -0.8137399,-2.4277045 -1.5819864,-4.7879356 -1.7134445,-5.1603744 -0.4648544,-1.4560196 0.027772,-2.0513376 2.1672987,-2.6961165 z m 12.8067989,48.0947606 c 0.4748393,-0.3999203 1.562493,-1.0136869 2.4112182,-1.4710297 l 1.6009814,-0.6923223 1.7134444,1.9083764 c 0.9916809,1.0866884 2.8200853,3.797273 4.1036697,6.0653399 1.2820858,2.2812521 3.5168603,5.4458334 4.9109081,7.0665028 1.442033,1.6129856 2.6106534,3.0560182 2.6061543,3.1849742 -0.010696,0.384844 -5.5485999,3.885734 -6.0594348,3.8712396 -0.2849034,-0.00894 -1.0836466,-1.1530773 -1.7879204,-2.5201859 -0.75075,-1.3365593 -2.3562358,-3.7387792 -3.6143291,-5.3107282 -3.1854662,-4.0406901 -6.7440631,-9.6262707 -6.7163728,-10.600402 0.013197,-0.444885 0.3998675,-1.1431586 0.8327311,-1.5155186 z m 10.4152234,-6.6752314 c 2.0023513,-1.7384369 3.8422547,-2.7131237 4.5780156,-2.4352161 0.5928052,0.3348541 7.7846268,10.6340068 10.5795215,15.3153364 2.0858239,3.4528838 2.0318414,3.7292839 -0.7607481,5.4619282 -1.3720561,0.8906956 -2.8345809,1.587488 -3.2984318,1.5739855 -0.4148644,-0.011799 -1.3665558,-1.0011235 -2.0728279,-2.3042501 -1.9528663,-3.2624458 -8.1828467,-12.9671401 -9.3465196,-14.536338 -1.2540889,-1.6709637 -1.2530971,-1.7039465 0.3148975,-3.1009964 z m 7.4830746,181.29182 c 1.2680941,1.1906358 8.2188857,3.5343622 13.811723,4.6230079 9.9371784,1.9508682 21.0840142,0.5997482 30.5056101,-3.8272671 13.2835941,-6.2213799 21.6257899,-16.8134505 26.1341792,-33.1394055 1.6029796,-5.7169965 1.8039144,-11.1018501 0.7492555,-18.4274678 -1.0066778,-7.0932569 -3.1754707,-14.1746641 -4.6819829,-15.1474465 -0.9137071,-0.5713148 -3.3344193,1.2210532 -8.4512097,6.2660273 l -5.2618452,5.2412446 -2.1253109,6.0773345 c -2.5286803,7.1305775 -3.6103299,9.2835351 -7.4804746,14.6121563 -3.5808397,4.9653869 -7.0236726,8.352596 -10.6642427,10.5258932 -1.5594949,0.9176745 -3.6908033,2.2997536 -4.7359656,3.1199872 -2.1363072,1.6064792 -6.4617554,3.3014325 -11.0456693,4.3325896 -1.6839542,0.3698999 -3.7887719,0.8561788 -4.7249677,1.0851012 -1.1691191,0.284864 -3.0225198,1.6454661 -6.2170344,4.5180291 -6.3959776,5.9043929 -7.7653332,8.2833635 -5.819714,10.1505578 z m 10.9457514,-7.3560087 c 2.3487386,-2.5306865 4.3186004,-4.7569627 4.3230994,-4.9438964 0.013358,-0.5103482 1.2336035,-0.8631881 4.9693887,-1.4930227 1.867394,-0.2648943 4.6324981,-1.1186927 6.2350282,-1.8738862 1.554496,-0.7587112 3.5263572,-1.4390388 4.3655857,-1.5105191 0.8362223,0.021159 2.0553327,-0.3648746 2.7126197,-0.5662894 1.8783918,-0.65278 11.5799466,-10.0347873 14.1932991,-13.6803577 2.6606381,-3.6888023 7.0882525,-12.2535253 8.0180514,-15.5267758 0.6187924,-2.1308055 1.8319065,-3.9467138 4.8024433,-7.069108 0.9581821,-0.9991397 2.3047526,-2.5321677 3.0245192,-3.3998915 l 1.2975855,-1.5349986 0.4698536,1.360549 c 0.7772525,2.1068292 2.0058493,11.2103204 1.9263757,13.9980194 -0.1599417,5.6202826 -2.7111215,15.261101 -5.6806584,21.5901977 -2.1283103,4.5860179 -7.0204749,9.8855444 -14.6295087,15.9447876 -3.0440128,2.3822239 -3.9862074,2.9015519 -4.8619232,2.6521305 -0.8727231,-0.3449048 -1.2525945,-0.03703 -1.9368722,1.09912 -1.0726568,1.7334376 -3.2329515,2.5056914 -9.0622628,3.2284575 -2.5646679,0.3098587 -5.6457699,0.769291 -6.8128906,0.9602585 -3.553848,0.7327906 -7.4507346,0.4898495 -8.8146931,-0.5718439 -1.7284401,-1.3640537 -1.9578654,-1.4340398 -4.6659875,-2.6016644 -1.3310682,-0.5833495 -2.8530746,-1.0426496 -3.3174239,-1.056668 -0.5103349,-0.013236 -0.8812134,-0.027773 -0.8727231,-0.3449047 0,0 1.9238762,-2.2542601 4.3201,-4.8029324 z m 2.0513349,-29.5949132 c 2.7830979,3.5168657 11.8728009,12.3281138 13.0709631,12.689338 0.7342585,0.3398795 1.6249728,0.046287 2.4307116,-0.4398594 2.5571721,-1.5949734 13.4541396,-12.2135333 13.7685876,-13.458378 0.3148975,-0.9527204 0.080011,-1.633471 -0.7567542,-2.8120987 -1.967862,-2.749598 -11.8875955,-13.447679 -13.1228958,-14.1339182 -1.0976385,-0.6402165 -1.285088,-0.5812335 -3.9007351,1.5240088 -6.8965142,5.518319 -13.0300269,11.9914612 -13.0816092,13.801828 -0.011748,0.4148645 0.6942797,1.7519395 1.5939829,2.8350837 z m 12.9669468,-4.8844108 c 2.626149,-2.4906946 4.6215016,-3.9567119 5.2249066,-3.9402206 1.3015793,0.034384 6.2633691,5.2900839 6.2263817,6.5908567 -0.02645,1.0246638 -7.4945709,8.570026 -9.3796598,9.4912712 -0.8472254,0.3898694 -1.2625926,0.2749453 -2.7171191,-0.878661 -0.9546908,-0.7322615 -2.3522378,-2.3112459 -3.1549775,-3.4368817 -1.8324061,-2.5536714 -1.8324061,-2.5536714 3.8017681,-7.8383595 z m 12.0776847,-301.9013369 c 0.064934,5.6234701 0.3348937,6.0513877 4.1831445,6.5326805 1.5804868,0.046287 3.0065243,0.5053227 3.2329515,0.7333198 0.2099316,0.3298285 0.4598553,3.4053931 0.5463197,6.9870345 0.1098987,6.3237007 0.036766,6.6006034 -1.0166759,8.0104018 -0.8707127,1.1946037 -1.1806114,2.2752613 -1.446532,5.0707495 -0.3448916,4.3605868 0.2849036,11.1165959 1.1891149,12.0722917 0.3598888,0.394895 1.8808901,0.8557819 3.5038646,0.997685 2.6376439,0.3948949 2.9160541,0.3999203 3.7112966,1.8689004 0.7962436,1.4010438 1.0706597,1.5704939 3.8942377,1.970864 4.4915433,0.5772659 23.7771921,0.676717 25.5631129,-0.010166 0.796746,-0.2949148 1.8399033,-0.9741447 2.2287771,-1.5724912 0.6283008,-0.8802479 1.2840829,-1.0851013 4.4990417,-1.2825488 2.2842595,-0.2549756 4.0107002,-0.4948749 4.4410601,-0.9002176 1.3370672,-1.2451223 1.1556296,-14.4683223 -0.2199298,-16.6432067 -0.978178,-1.5670028 -1.3065782,-4.6869899 -1.0191751,-10.0213113 l 0.2899024,-5.8023627 3.8182621,-0.2098783 c 2.1363075,0.059511 4.1011715,-0.394895 4.4360625,-0.7083247 0.4748523,-0.4298085 0.7222634,-4.2061331 1.0596565,-16.0488013 0.5208356,-18.3922368 0.7847512,-17.4547382 -4.4250657,-17.6030948 -1.9953526,-0.059511 -3.2884339,-0.4098391 -3.5123615,-0.7092504 -0.1849372,-0.3249351 -0.3148977,-5.39914972 -0.2799045,-11.25750685 l 0.080011,-10.68608615 -3.474374,-0.41486458 -3.4263891,-0.41486436 -1.7429347,-5.62661759 c -0.9341924,-3.10549276 -1.8773922,-5.9125395 -2.0973205,-6.28737221 -0.3098986,-0.55332895 -1.9338729,-0.66322781 -9.278992,-0.58586216 -4.885416,0.18501553 -9.9044895,0.16994026 -11.1636804,0.32493519 l -2.3332442,0.25497568 -1.6354693,5.16141923 c -0.8682136,2.79760429 -1.7779236,5.33996839 -1.9273755,5.61483429 -0.1999342,0.31488426 -1.5969823,0.56337986 -3.1339843,0.71229201 -4.2851109,0.32996063 -4.4380606,0.77180396 -5.2369518,14.16616044 -0.2099316,4.03719853 -0.5373269,7.46942496 -0.6812797,7.60323436 -0.1300007,-0.00406 -1.6369691,0.3699001 -3.3619098,0.5443361 -1.7269405,0.2699199 -3.4553807,0.5428815 -3.8382555,0.9162197 -0.5728093,0.5268792 -0.7717511,2.6716372 -1.0711492,11.4947744 -0.1999338,5.9461703 -0.3698867,12.9130104 -0.3448916,15.4695384 z m 11.026775,27.3632809 c 0.2949016,-0.4048134 0.9971824,-0.7732587 1.6024812,-0.7552727 1.067155,0.03174 1.1511331,0.3499302 1.1846186,2.4387074 0.06004,5.8571008 -0.4348607,7.517061 -2.3437397,7.1839265 -0.6502937,-0.017197 -1.0491561,-0.6392908 -1.2570909,-1.5754931 -0.3248956,-1.6769546 0.1749387,-6.177791 0.811743,-7.3204734 z m 4.5415281,-73.02773201 c 0.8607148,-0.80975952 0.8547239,-0.6168084 0.3448916,5.67960966 -0.5208353,6.72602828 -0.6213047,7.18797343 -1.4125427,7.16547774 -0.3198967,-0.009595 -0.3498908,-2.15880286 -0.149956,-6.04593869 0.2749055,-5.10734268 0.4598555,-6.12146631 1.216107,-6.79914871 z m 2.0868238,16.46551731 c 0.6617863,-0.3948949 27.6474372,0.2398993 28.2355463,0.8027502 0.4498576,0.3299607 0.4298614,6.008909 -0.1349591,25.9295981 -0.3998674,14.0247997 -0.7577592,25.4949891 -0.8542214,25.4923308 -0.032005,-8.993e-4 -6.5016431,-0.1848827 -14.3591961,-0.08464 l -14.2201402,-0.07935 -0.1899354,-1.3520587 c -0.2899024,-2.7666053 1.1046477,-50.3027472 1.5340028,-50.524634 z m 9.7917763,56.0547763 c 10.2721698,-0.027773 15.1970727,0.046287 15.4644864,0.4348339 0.094956,0.00255 -0.037293,1.3140239 -0.2649207,2.6856291 l -0.4398597,2.4891868 -3.5288568,-0.095219 -3.5293551,-0.095219 -0.4148645,3.1949722 c -0.2399258,1.8209071 -0.3198966,3.4313801 -0.1999343,3.6658044 0.1199492,0.3199096 1.3310682,0.5508161 2.6291472,0.6833294 2.6376454,0.3948951 4.0951725,1.4635314 3.2304531,2.4652104 -0.4298615,0.4948748 -2.8075904,0.6272558 -10.4291692,0.6333392 -5.4333383,-0.1499712 -10.4024282,-0.2949148 -11.0525672,-0.3148842 l -1.1511202,-0.3499303 0.1899354,-7.8511614 0.1899354,-7.8032212 z m -6.4596569,-68.60151062 c 0.1999342,-0.31488425 5.2129103,-0.26991972 11.1610328,-0.22495507 8.5449291,0.23989932 10.9598966,0.31488424 11.5508544,0.777226 0.5898165,0.46485469 0.794736,1.46552825 0.8112407,4.20762796 0.041262,1.95786398 -0.069961,3.66932207 -0.2049323,3.75929087 -0.1300001,-0.004052 -5.6300244,0.2199297 -12.2754708,0.19493359 l -12.0373979,-0.022483 0.3448917,-4.22012521 c 0.1649397,-2.30376074 0.4448585,-4.35508518 0.6372937,-4.49054759 z m 4.5660207,-8.56053065 3.6683106,0.10050909 0.2749054,-5.15217489 0.2749057,-5.1521751 2.8425782,-0.23989932 c 1.5315029,0.0462881 4.2811127,-0.19996019 6.04649,-0.14494468 2.8815666,0.0793492 3.2044614,0.0899292 3.5463509,1.12715658 0.7747532,2.17079769 2.1852909,9.77552679 1.9363722,10.41941973 -0.2349267,0.50532258 -2.2932577,0.57686928 -11.7674859,0.30985881 -7.9877597,-0.22495509 -11.3313267,-0.31990971 -10.9937365,-0.76175306 0.2299276,-0.31488426 2.1523029,-0.44488494 4.1491551,-0.42491526 z m 22.6584044,77.56665627 c 1.8678938,-0.2648944 2.6201503,1.004694 2.8505764,4.4030782 0.21993,2.3792219 0.094956,3.2544444 -0.4848371,4.1191665 -0.7242606,1.004694 -2.9780342,1.7754266 -3.7537828,1.2386423 -0.1899355,-0.00638 -0.2199299,-2.3152402 -0.080011,-4.931399 0.259922,-4.732457 0.259922,-4.732457 1.4845179,-4.835426 z m 28.220552,329.5877146 c 0.1749384,0.5508164 0.755749,1.1440846 1.2156046,1.3495594 1.0096664,0.4398595 29.0141941,1.2111346 30.0933946,0.8567078 0.3798713,-0.309859 0.995172,-0.7092504 1.2900868,-1.2780523 1.1706268,-1.9223819 1.737937,-26.8139592 0.6872838,-28.6589622 -0.3148976,-0.5543869 -3.048012,-0.728294 -15.8178724,-1.0906557 -8.4985442,-0.2398993 -15.8361664,-0.444885 -16.3096635,-0.1399182 -0.751755,0.2999403 -0.8287238,1.4195455 -1.1466232,14.1414696 -0.2149311,7.6165254 -0.2099328,14.2642756 -0.00509,14.8282374 z m 8.0327455,-25.8460167 c 4.0052024,-0.2699199 12.074536,0.3449048 12.5736245,0.7741844 0.3998674,0.459829 0.013496,23.9841257 -0.3898694,23.9724745 -0.2199299,-0.00679 -3.9472208,-0.1150574 -8.2662204,-0.2299805 -5.9909087,-0.1699403 -7.9413259,-0.2199298 -8.2027409,-0.8426894 -0.2099305,-0.3298284 -0.2449248,-5.7699752 -0.074985,-12.0852783 l 0.3248955,-11.4261904 z m 19.1333472,0.544865 c 1.7174437,0.050253 2.6466422,0.075381 2.8675705,0.5317724 0.4398594,0.7187722 -0.074985,22.2146499 -0.537327,23.3174332 -0.2049323,0.5373267 -0.9501942,0.7107051 -2.5746645,0.6637566 -1.2525946,-0.03703 -2.3237475,-0.07009 -2.3682334,-0.0648 -0.13,-0.00406 -0.1199491,-16.9706414 -0.00455,-21.0112391 l 0.089929,-3.2494453 z m 4.127662,-280.5618564 c 0.6308004,0.7232687 2.1403067,1.5360037 3.291933,1.9213766 1.9358725,0.5997484 2.1138145,0.8617333 2.6151527,2.8650645 0.4598555,1.647476 0.9077027,2.3032583 1.8778907,2.6506494 2.2492714,0.9622422 14.4581138,6.4050207 18.3568996,8.2348812 4.6319982,2.1847898 6.8583273,2.3437395 8.4375154,0.7532892 1.0031734,-0.997685 1.1901071,-1.0241347 1.8713932,-0.394895 1.0861461,1.056668 4.5375291,2.2772581 5.7075989,1.9588693 2.2457724,-0.4797987 5.751286,-7.7379037 6.7680569,-14.0744989 0.3448917,-2.0743222 1.0106717,-4.5280267 1.5000135,-5.3958963 0.4848373,-0.8842155 1.340565,-3.0395138 1.9493684,-4.8259305 1.2181041,-3.5888355 2.2412732,-5.2819905 3.1254861,-5.2570482 0.3198966,0.00965 1.4275371,0.4499104 2.4352108,0.9671353 3.3434161,1.7299333 4.0856758,1.7839173 5.1923164,0.4648546 1.1601261,-1.5385033 10.1654545,-22.3924324 11.1469865,-25.8503151 0.4098654,-1.3665533 0.6402958,-2.9000575 0.5598223,-3.3319158 -0.080011,-0.4448849 -1.3525612,-1.5140107 -2.8165859,-2.3567396 -1.4635258,-0.8432184 -2.782598,-1.8429003 -2.9125563,-2.2317778 -0.2699195,-0.7446928 1.4045446,-5.305782 3.5793401,-9.8008261 2.0728281,-4.2156287 3.8027666,-9.5121135 3.5133601,-10.7742564 -0.1749385,-0.7107051 -1.0266609,-1.4405333 -2.5406752,-2.2202722 l -2.2912583,-1.1875942 0.1899355,-5.571139 c 0.085036,-3.1079924 0.074985,-5.9465275 -0.1050067,-6.3687848 -0.2699066,-0.7442962 -1.0816496,-1.1861394 -5.8566009,-3.24545148 -1.0551602,-0.43985939 -2.7561071,-1.20108347 -3.7637809,-1.67795956 -5.0465637,-2.32424614 -9.0907529,-3.93022258 -10.2054915,-3.96271618 -0.7877397,-0.0251264 -1.6869523,0.4898495 -2.6961256,1.65496162 -0.8147319,0.90616875 -2.6841296,2.8425819 -4.1666492,4.34510025 l -2.6321463,2.68212465 -2.2097835,-0.8002376 c -1.2416046,-0.4448848 -2.6286485,-0.7157304 -3.096497,-0.6013351 -1.1706136,0.3449049 -2.7825981,2.9985297 -5.5652464,9.3691658 -2.9320483,6.6539923 -5.0408652,10.5447785 -5.6909051,10.52629 -0.2199297,-0.0069 -1.2380999,-0.5488325 -2.1488035,-1.21616 -1.9583638,-1.4020488 -3.8127632,-1.5834941 -4.818937,-0.5213247 -2.4447077,2.6236574 -11.7663355,24.7648301 -11.8615546,28.1068367 -0.045756,1.537511 0.8137401,2.4277174 3.7947696,3.8282587 2.6616364,1.2305749 2.6706347,0.9097394 -0.8137404,8.9911855 -2.0913215,4.8694271 -2.4816962,5.505967 -3.8897385,6.0239989 -0.8472254,0.3598488 -1.6059804,0.8842155 -1.7079469,1.2026705 -0.1050066,0.3199099 -1.3520614,3.4473822 -2.7531078,6.9381025 -1.4000453,3.4463771 -2.5541714,6.4819895 -2.5606699,6.712724 -0.010493,0.3148844 0.5318251,0.9451822 1.163128,1.6044689 z m 6.0944742,-8.423468 c 0.83773,-1.7074509 1.7639292,-3.1564877 2.0913231,-3.288935 0.9387019,-0.2898895 2.4517048,0.3898694 2.7126197,1.007207 0.2649207,0.8081722 -2.0318415,7.7506387 -3.0535097,9.2544533 -0.8747198,1.3215621 -1.1986104,1.3120401 -2.6941261,-0.075381 -1.4010463,-1.387052 -1.3345676,-2.122818 0.9371942,-6.8038436 z m 4.4365621,10.7215158 c 0.6397934,-1.2970962 1.7874206,-3.9931995 2.5406767,-6.0142523 0.801745,-2.0293312 1.6449675,-3.9517129 1.981858,-4.2661079 0.4248626,-0.4298086 1.6724578,0.046287 6.1609027,2.3557345 3.1154894,1.628472 7.9803128,3.7577835 10.8782239,4.8184319 3.6808067,1.3235725 5.2406509,2.0408371 5.2260055,2.5536714 -0.028699,1.0577258 -1.9928543,4.6859849 -2.5026895,4.6719929 -0.2849035,-0.00894 -1.2415914,-0.444885 -2.2487702,-0.9941141 -3.5698435,-1.961858 -5.6866574,-1.0601063 -6.397976,2.7041176 -0.2599219,1.3715653 -0.1449577,1.7589353 1.129127,2.853585 0.7682465,0.7277652 1.636969,1.2976251 1.8234092,1.3021216 0.557323,0.014542 1.4780207,1.9023857 1.146121,2.2137919 -0.1349591,0.3148846 -1.1596235,-0.030419 -2.2207798,-0.3848439 -2.3952227,-0.8052628 -17.3547237,-7.5104091 -18.173508,-8.1397547 -0.7707459,-0.6313557 -0.6652776,-1.0776953 0.6637832,-3.7457883 z m 6.0327947,-20.8808286 c 2.3577354,-6.1155678 14.7628142,-35.3229524 16.4900548,-38.8526064 1.1846185,-2.3712342 1.7609283,-3.0599993 2.5051876,-3.0390115 0.5573229,0.014542 1.1996155,0.3499303 1.4750211,0.4598292 0.4448584,0.5268793 12.5690261,5.8414027 19.2326157,8.4938378 4.6869807,1.8973865 5.2797383,2.2987615 5.2498487,3.3559187 -0.049991,1.7614219 -18.2606308,43.9139135 -19.6499308,45.3622891 -0.9117099,1.0322018 -1.0521582,1.0282344 -2.3362423,0.3798187 -0.7767502,-0.4048136 -3.854751,-1.7449437 -6.8868178,-2.9860324 -6.7072753,-2.7561177 -16.2496819,-7.1550303 -17.0654679,-7.8773467 -0.7697542,-0.6633599 -0.7697542,-0.6633599 0.9881763,-5.3144837 z m 21.6001483,-58.3680719 c 0.6712816,-0.7187724 1.8838894,-0.8446732 1.8683937,-0.2648946 -0.022085,0.8331675 -4.8849161,9.9464718 -5.5969857,10.4841028 -0.7617531,0.6193211 2.8205863,-9.2642927 3.7342893,-10.3542474 z m 0.8647218,83.9178912 c 1.9378722,-4.4055777 2.4662008,-4.9488954 4.0601836,-3.8347522 1.7779238,1.2055798 1.847902,2.008846 0.4848374,5.5458003 -1.3560594,3.5883331 -2.6766324,5.8275564 -3.3724066,5.807719 -0.7882423,-0.025128 -2.7201184,-2.4507156 -2.695126,-3.3319289 0.013105,-0.444885 0.6697872,-2.3542269 1.5140093,-4.1866397 z m 1.94237,-75.0064385 c 0.7422595,-1.6459684 1.5764889,-3.0974916 1.8583983,-3.1989662 0.7042779,-0.2999403 16.5122964,6.0915252 19.208573,7.7042595 1.2800889,0.7737878 2.1857909,1.6339735 2.172296,2.1143144 -0.041527,1.3770537 -2.0233443,5.7530341 -2.9765354,6.5629258 -0.9536858,0.8067176 -1.0906428,0.8027502 -3.6223263,-0.1044776 -4.4170675,-1.5694891 -15.3900105,-6.3384996 -16.7553179,-7.3554663 -1.5479987,-1.1665668 -1.5260058,-1.9353818 0.134959,-5.7588797 z m 5.4137947,-10.5823106 c 0.4148647,0.011735 1.8588984,0.055544 3.1454809,0.6022609 3.8197616,1.3275663 4.7999436,1.1625993 5.6912554,-0.7342451 0.841724,-1.8683978 1.1641201,-4.93740301 0.5208356,-5.18966772 -0.9202004,-0.34490483 -3.471375,-2.15130427 -3.2794371,-2.3382512 0.1300001,0.004093 3.770777,1.42154244 8.1777485,3.34342146 l 7.9390261,3.57434126 -0.4298614,5.0542579 c -0.1799367,2.7850934 -0.5698203,5.2336536 -0.8532163,5.504314 -0.3798848,0.3749253 -1.8588985,-0.055545 -5.026421,-1.3930427 -2.4816961,-1.032202 -6.6145557,-2.7531026 -9.2341571,-3.7932657 -7.2127621,-2.9635502 -8.6250537,-3.9657182 -6.6535427,-4.653002 z m 20.1126813,24.9281179 c 0.3948683,-0.822191 1.0051703,-2.6331531 1.3685556,-4.0052079 1.1511197,-4.5210307 2.4212148,-6.6716872 3.4133942,-5.6205738 0.3998675,0.4249154 -4.0871753,11.3192273 -5.0904004,12.2654676 -0.6702766,0.6867678 -0.4748523,-1.0396079 0.2949017,-2.6531357 z m 75.4307468,439.4111084 c 0.4498575,57.4597741 9.1397381,108.3681148 27.2094293,159.357484 1.3790534,3.8047717 1.3790534,3.8047717 2.7361136,3.4708832 0.7517551,-0.2999403 2.1662976,-0.9646228 3.1609752,-1.673463 0.9971823,-0.7732588 3.0295183,-1.9018833 4.5345295,-2.5646613 1.5519977,-0.6608471 2.8765688,-1.4570378 3.0220212,-1.7419416 0.09998,-0.3199096 -1.0401633,-4.2591251 -2.5401766,-8.7184224 -14.4968512,-42.6139871 -21.6502825,-81.9503865 -23.8130806,-131.6982042 -0.6407982,-13.4515408 0.3148977,-51.720282 1.568492,-65.2556554 2.524181,-26.6088147 5.6418208,-47.9929426 10.3153557,-70.1215647 15.4853804,-73.7840759 42.9034918,-134.0774792 93.0111982,-204.4583703 14.2337858,-19.9998704 23.2630591,-31.874265 48.9075459,-64.1425081 l 15.569803,-19.5898951 19.0542728,-8.0998287 19.0556721,-8.1513133 95.4412116,-0.769688 c 52.4847358,-0.3999204 96.1838205,-0.7487927 97.112769,-0.7218141 1.5320031,0.046289 3.3404168,1.8594049 37.9753893,39.1005733 l 36.303031,39.0531487 0.329895,63.6357173 c 0.16494,35.0486949 0.274905,63.7303905 0.224929,63.7739268 -0.03214,-8.464e-4 -4.745963,0.1899093 -10.467658,0.3398794 l -10.326751,0.3148843 -0.199934,7.1036515 -0.199936,7.0589513 1.262594,-0.274945 c 1.682455,-0.2699199 19.586701,-0.6932482 22.930666,-0.5982936 1.39305,0.040999 3.621827,0.100509 4.977887,-0.1799911 2.146304,-0.2598689 2.520183,-0.3148843 3.634322,-1.9493737 0.722264,-0.9421404 1.539001,-1.7849225 1.862895,-1.7749244 0.414865,0.011799 0.549826,-1.2985508 0.568816,-5.1917703 -0.08001,-47.8286365 -0.781749,-137.4564926 -1.09014,-138.0681959 -0.214932,-0.4198902 -17.850065,-19.5179652 -39.134015,-42.481527 -42.3937069,-45.5481779 -38.547904,-41.8598782 -45.2860185,-43.5363829 -1.798917,-0.4298085 -25.3210923,-0.3348539 -102.3983063,0.2598691 -90.8369038,0.6697078 -100.0442183,0.8241743 -100.0641124,1.5230033 -0.015348,0.5452619 -5.6680127,3.182964 -20.2069998,9.4173442 l -20.1393212,8.6754812 -14.6530992,18.4069429 c -44.0058344,55.2162527 -65.205963,84.8243023 -86.1996564,120.2489671 -41.1047256,69.2421103 -63.6257751,140.3631451 -71.6503739,226.3530711 -0.9881764,10.2881628 -2.4547045,43.7577146 -2.4017216,53.4276406 z"
     id="path975"
     style="display:inline;fill:#ffffff;stroke:none;stroke-width:1.76332" />
</svg>
