<?xml version="1.0" encoding="UTF-8" standalone="no"?>
<svg
   version="1.0"
   width="650.000000px"
   height="550.000000px"
   viewBox="0 0 650.000000 550.000000"
   preserveAspectRatio="xMidYMid meet"
   id="svg1"
   sodipodi:docname="VOY_MESS.svg"
   inkscape:version="1.3.1 (91b66b0783, 2023-11-16)"
   xmlns:inkscape="http://www.inkscape.org/namespaces/inkscape"
   xmlns:sodipodi="http://sodipodi.sourceforge.net/DTD/sodipodi-0.dtd"
   xmlns="http://www.w3.org/2000/svg"
   xmlns:svg="http://www.w3.org/2000/svg">
  <defs
     id="defs1" />
  <metadata
     id="metadata1">
Created by potrace 1.16, written by Peter Selinger 2001-2019
</metadata>
  <sodipodi:namedview
     pagecolor="#222"
     bordercolor="#666666"
     inkscape:deskcolor="#444"
     id="namedview1"
     borderopacity="1.0"
     inkscape:showpageshadow="2"
     inkscape:pageopacity="0.0"
     inkscape:pagecheckerboard="0"
     inkscape:zoom="1.562162059"
     inkscape:cx="213.1661041"
     inkscape:cy="359.1176709"
     inkscape:window-width="2419"
     inkscape:window-height="1417"
     inkscape:window-x="1672"
     inkscape:window-y="4"
     inkscape:window-maximized="1"
     inkscape:current-layer="svg1" />
  <rect
     width="100%"
     height="100%"
     x="0"
     y="0"
     fill="black"
     id="rect1" />
  <path
     d="m 240.224365,30.20160939 c -8.979623,5.09037738 -36.8906541,21.6196713 -61.9992114,36.71916376 l -45.6986878,27.45344066 -31.5143761,0.28464797 c -28.76893297,0.28464799 -31.68586717,0.39451419 -33.34453919,1.31539526 -1.42925318,0.74358884 -1.88769195,1.37282168 -1.88769195,2.57385433 0,2.57385303 -1.14359961,14.64195093 -1.48668351,15.67144303 -0.22972148,0.8010257 0.22972147,1.0297431 2.63128344,1.3728216 1.77283376,0.2297216 3.08822512,0.7435888 3.26001541,1.2584604 0.16978725,0.459443 0.0599869,3.6600263 -0.34458225,7.2065897 -3.48923481,31.9718676 -7.49249151,73.8957184 -7.49249151,78.3569661 0,4.1174661 -0.22972149,4.347185 -4.34718635,4.347185 -2.0020518,0 -3.66002488,0.054965 -3.66002488,0.1697871 0,0.459443 -2.40256344,23.0494741 -3.0312955,28.4258024 -0.8574454,7.0348997 -0.45944295,6.6917194 -8.92239219,6.80623 -4.57590615,0.054965 -5.83381958,0.284648 -8.40767259,1.544612 -4.40361772,2.1164119 -6.34858936,4.5759062 -6.74895028,8.3503914 -0.16978725,1.6584726 -0.57229527,5.547869 -0.9153845,8.5792635 -0.28464794,3.0312942 -0.57229527,7.4925907 -0.57229527,9.9518842 0,2.4589936 -0.22972147,6.5202291 -0.57229528,9.0368037 -0.28464803,2.5738531 -0.8010258,8.7507523 -1.14410179,13.7839492 -0.34458215,5.0330975 -0.85744539,12.1252784 -1.1435996,15.7285732 -0.28464803,3.6030955 -0.80102582,10.0091151 -1.1435997,14.1271309 -0.28464794,4.1753959 -0.80102581,10.8670164 -1.1441017,14.870622 -0.28464805,4.0610359 -0.80102581,11.1530159 -1.14359971,15.9001138 -0.74358879,10.2379341 -2.11591362,27.3964094 -4.861557,60.3406386 -1.08667792,13.3835393 -2.28770402,28.8261619 -2.57385436,34.3169001 -0.62923019,10.6381961 -3.088223761,39.9791292 -4.003106074,48.0436703 -0.284648035,2.6882143 -0.572295369,6.3485894 -0.572295369,8.1215222 0,3.8897451 -1.315884159,3.3179439 12.010967403,5.2619682 16.41498426,2.4589937 21.10495179,3.0882238 33.74494984,4.5759062 75.89752246,8.8652129 117.07788246,11.9537365 203.32759926,15.271082 24.193375,0.9153845 94.828979,1.3158841 115.8195694,0.6297322 10.523836,-0.3945141 27.9110312,-0.9153843 38.6064077,-1.2579583 10.6954255,-0.3445821 25.3946073,-0.9723061 32.6010477,-1.4297511 7.2637703,-0.4594431 18.5883771,-1.086678 25.1657868,-1.4297527 41.5806216,-2.1733427 101.5779795,-7.6640811 142.4151087,-13.154719 6.9205411,-0.9148824 16.1861137,-2.0589841 20.5900802,-2.5738543 4.4036178,-0.5148715 8.1216729,-1.086678 8.3504933,-1.3158842 0.5153737,-0.6851608 -1.6010435,-35.5751624 -3.5461658,-57.023194 -0.6297323,-6.9206403 -1.7733319,-22.6492136 -2.5159245,-34.8889511 -0.8010258,-12.2968681 -2.0584833,-30.8279152 -2.8025743,-41.1802107 -2.230773,-29.6269339 -3.088225,-42.5529832 -4.3466867,-64.3441449 -1.2005346,-20.87613 -1.6584727,-28.3114912 -3.1461536,-47.1857187 -1.0297431,-12.5256883 -1.3733213,-15.6142134 -2.0594822,-16.9869345 -0.2846481,-0.5153737 -2.6312835,-2.5164241 -5.2046885,-4.4610469 l -4.7471957,-3.5456662 -4.5759075,0.3945141 c -2.5169221,0.2297216 -4.8046262,0.3945142 -5.1475568,0.459443 -0.8574454,0.1697873 -1.8871938,-5.7195085 -3.1456555,-18.0164756 -1.6015416,-16.0716545 -1.5451101,-15.785754 -3.4318045,-16.1860646 -0.9153844,-0.1697873 -2.5159245,-0.1697873 -3.6030953,0 -2.345133,0.4594429 -2.4594929,0.2297214 -2.6312833,-4.5179765 -0.054965,-1.8876932 -0.2297216,-3.6030953 -0.3445823,-3.832316 -0.3445822,-0.5148716 -1.3733211,-9.5514731 -1.7733319,-15.099392 -0.1747817,-2.5164239 -0.685663,-7.6641313 -1.0866779,-11.4390169 -0.459443,-3.7753838 -1.086678,-9.5515233 -1.3728217,-12.8687683 -0.3445822,-3.317944 -0.9728082,-8.9796231 -1.4297526,-12.5828689 -0.459443,-3.6030954 -1.0297431,-8.5220326 -1.2005346,-10.8670652 -0.2297214,-2.3451345 -0.6297322,-4.4610469 -0.9728081,-4.6333367 -0.3945142,-0.2297214 -0.6292302,-2.6312832 -0.685663,-5.6622789 -0.054965,-5.8911481 0.5153736,-6.8634093 4.0036056,-6.8634093 4.117466,0 4.2328249,-0.459443 2.8025742,-10.6954255 -1.2584603,-8.86521295 -1.0866779,-8.35044313 -3.9461765,-9.4371647 -2.3446336,-0.85745862 -4.6897667,-0.91538448 -26.0235877,-0.39451422 L 533.6882823,98.15055289 486.044923,73.15640577 C 459.8497947,59.42963589 438.1729427,47.99071803 437.8297122,47.76189768 437.3702692,47.41731546 420.8428768,38.4963741 393.1034364,23.68288263 l -5.2047915,-2.80257954 -65.7168662,0.0599871 h -65.6587873 z m 145.217633,7.2066399 c 0.5722951,0.57229531 9.8375242,5.66222874 20.5901303,11.26737725 l 19.5034087,10.23783499 v 18.4167361 18.47391807 l -20.4185409,0.0549662 c -11.2673758,0.0549661 -22.0200321,0.22972147 -23.9074242,0.45944294 l -3.4318057,0.34458221 -0.284648,6.74900055 c -0.1697872,3.7179548 -0.054965,7.1494103 0.1697873,7.6069506 0.3445822,0.6292303 1.9446227,0.8010259 6.9777707,0.8010259 3.5461644,0 6.8633604,0.1697872 7.3782307,0.3445821 0.8010257,0.3445823 0.9153845,5.4335077 0.9153845,52.3332768 0,28.5973917 -0.054965,52.0472269 -0.1198421,52.1044565 -0.119842,0.054965 -17.4444763,0.2297213 -38.6065068,0.3945143 -29.4553432,0.2846479 -38.606507,0.5148713 -39.121278,1.029743 -0.5153737,0.5148715 -0.8010258,4.4610467 -0.9723062,13.8984108 l -0.284648,13.1547692 53.9919487,-0.119842 c 47.7004913,-0.1697873 53.9347194,-0.284648 53.7059993,-1.0297431 -0.1198419,-0.4594429 -0.3445821,-30.2560149 -0.4594428,-66.2315872 l -0.1697873,-65.3736859 1.8871923,0.1697873 1.8871939,0.1697871 0.284648,16.3005741 0.284648,16.3005238 h 4.5759061 4.5759063 l 0.2846479,-9.0939844 0.2846479,-9.1511134 30.8852452,-15.0422615 c 16.9867854,-8.2361321 31.2283264,-15.04231201 31.5715569,-15.04231201 0.3945141,0 8.0072613,3.83231471 16.872424,8.52208281 8.922293,4.6333352 16.3004748,8.3503413 16.4721146,8.1216715 0.1747817,-0.1697872 8.579262,-0.4594428 18.7599177,-0.5722951 l 18.4167863,-0.1697873 v 2.4589935 c 0,1.372823 0.1697872,3.1456555 0.3945142,3.8897451 0.3445822,1.3153953 0.459443,1.3153953 4.2323268,0.9723062 2.1159125,-0.1697873 4.0036057,-0.1198421 4.1753959,0.1697873 0.459443,0.7435887 1.3153954,7.4354113 2.3451331,18.359558 1.2005346,13.0976388 1.9446228,20.1324897 2.573853,25.1656864 0.3445824,2.345133 0.9728083,8.007412 1.4297526,12.5829178 1.2005345,11.1530174 1.3153952,12.0109675 2.0015537,18.5883283 0.3445823,3.1456542 0.8010259,7.03495 0.9723061,8.6363925 0.1747818,1.6010423 0.059988,3.0882251 -0.2297214,3.2600141 -0.2846479,0.1697872 -2.1733427,0.6292302 -4.1753959,0.9153844 -2.0015524,0.3445823 -3.8323147,0.8010259 -4.1179656,1.086678 -0.2846479,0.284648 0.5148716,8.3504418 1.7728325,18.4739167 1.2584604,9.894705 2.4594945,19.9037698 2.6882143,22.2487537 0.459443,4.9764164 0.9153844,5.6622775 6.4058691,9.2655736 3.6600262,2.3451332 3.8892457,2.4594931 9.379984,2.6312834 l 5.6050983,0.2297215 v 3.6030954 3.6030954 l -1.8307622,0.3945141 c -7.0350003,1.4297526 -9.6087541,2.1733427 -10.1807548,2.8595039 -0.5148716,0.6292302 -0.1198421,5.2047875 1.7159028,19.8466896 1.2579583,10.4665547 2.5169235,19.5034086 2.688213,20.1325398 0.284648,0.9723061 0.7435888,1.0297431 5.6051987,0.6292301 l 5.3190974,-0.3945141 0.3445822,1.6584725 c 0.3445821,1.5446107 1.3733212,16.9868342 2.6882129,39.064047 0.284648,5.4907384 0.8010257,12.6399982 1.0866781,15.785803 0.2846479,3.202585 0.6856628,9.8947048 0.9153843,14.9279016 l 0.3945142,9.0366529 -2.2307731,1.7154036 c -3.088225,2.3451331 -4.0610359,3.6600262 -4.7476964,6.4058202 -1.2005347,4.5179762 -0.6297324,19.6749983 1.8871923,55.6505216 1.4866834,20.7045896 2.2877041,35.2320813 1.9446229,36.147212 -0.2297216,0.459443 -1.3733212,1.0297431 -2.5738529,1.2005345 -12.7544097,1.9446228 -24.5937863,3.4313052 -36.7762944,4.6333352 -19.6749983,1.9446228 -57.7667353,5.3190486 -68.3478008,6.06264 -18.5883268,1.2005345 -37.6913747,2.3451331 -48.0436701,2.8025743 -5.9481782,0.284648 -11.267376,0.6297323 -11.7820969,0.8574454 -0.8010258,0.3445821 -0.9728082,-0.6292303 -1.3158973,-8.3505421 -0.4594429,-10.123425 -1.0866779,-14.0126203 -2.9743633,-17.7303755 -1.6584725,-3.2600156 -4.0031074,-4.975917 -8.1789526,-5.9482285 -9.1511635,-2.173344 -20.8189006,0.7435888 -23.4498337,5.891098 -1.0297431,2.0589829 -1.7728339,8.8080336 -1.8307623,17.9020668 -0.054965,4.8041267 -0.3445823,8.7507022 -0.6856631,8.9795226 -0.2846479,0.1697872 -3.8892456,0.394514 -8.0644921,0.5148716 -4.1174661,0.119842 -13.3835897,0.5153735 -20.6473098,0.8574452 -13.0404595,0.6861651 -97.460014,0.3445822 -114.3896186,-0.3945141 l -7.4353612,-0.3445823 0.1697873,-6.2914589 c 0.284648,-7.6069004 -0.7435889,-17.044065 -2.1164131,-20.1897694 -1.3733213,-3.0882251 -4.5759063,-5.7766878 -8.1788509,-6.8634094 -5.9482298,-1.7728338 -15.6713438,-0.685663 -20.8189019,2.3451331 -5.4335075,3.2030845 -6.5773594,6.5773093 -6.6918185,20.1897192 l -0.1198421,8.3504418 -13.4407702,-0.054965 c -24.8225563,-0.1697875 -84.705504,-4.9764181 -135.55169873,-10.8669663 -26.88163949,-3.0882251 -27.45349078,-3.1456555 -27.68236141,-3.6030953 -0.11984205,-0.1697873 0,-4.7471971 0.28464803,-10.0662456 0.28464794,-5.3763282 0.7435888,-16.3005738 1.08667793,-24.3078353 0.8574454,-21.7340816 1.20053454,-27.6822611 1.48668352,-28.5402613 0.11984205,-0.459443 0.39451421,-6.63449 0.57229537,-13.7839004 0.34458215,-11.2101966 0.22972147,-13.3835909 -0.62973229,-16.3577547 -1.0297431,-3.6600262 -2.85950386,-6.0626887 -5.49073837,-7.0920804 -1.6015416,-0.6856629 -1.65847257,-0.8574585 -1.65847257,-4.5179776 0,-2.1164119 0.5148716,-9.8375243 1.1435997,-17.2156044 0.6292302,-7.3781819 1.25846041,-15.3854433 1.42975256,-17.7303768 1.14359971,-16.7009337 2.80257425,-33.5161784 3.20308456,-33.8022296 0.28464794,-0.1697872 2.00205189,-0.3445821 3.77538513,-0.3945141 1.77283241,-0.054965 3.43130497,-0.2846479 3.66002487,-0.5153736 0.57229537,-0.5722953 4.40361773,-30.3132444 4.63333659,-36.1470627 l 0.16978725,-4.289756 -4.17539595,-0.8574585 c -2.6882143,-0.5722954 -4.40361637,-1.2584604 -4.74719706,-1.8871939 -0.51537369,-0.9153844 0.22972148,-11.8393764 0.97230609,-14.2987704 0.34458226,-1.2005345 3.31744449,-1.6584725 9.43716468,-1.4866822 3.83231465,0.1198419 4.80412666,-0.054965 7.72131061,-1.544612 5.09032709,-2.5738543 5.37622769,-3.4892349 8.23593238,-24.3077853 1.31539531,-9.6088042 2.51692339,-19.2746887 2.68821429,-21.5052623 l 0.34458226,-4.0610359 -3.26001415,-0.3945143 -3.20308455,-0.3945143 v -5.5478687 c 0,-3.0312942 0.39451421,-9.2656729 0.8574454,-13.8411801 2.17334406,-22.1915715 2.63078531,-26.3096375 3.14565545,-30.0272435 0.62923021,-4.2897558 1.94462291,-17.558836 2.85950388,-28.3114911 0.28464803,-3.6030967 0.74358887,-7.9501322 0.91538449,-9.6658844 l 0.39451422,-3.0312943 2.68771481,0.3445822 2.7456433,0.3445821 0.34458226,-2.1159123 c 0.22972148,-1.2005346 0.5148715,-2.8595052 0.68566294,-3.775385 l 0.34458224,-1.6010435 27.62503147,0.054965 c 22.8779335,0.054965 27.9682607,-0.054965 29.2837524,-0.7435888 0.8574587,-0.459443 5.6050481,-2.1733428 10.4666553,-3.8323148 l 8.8652129,-2.9743646 5.7194582,2.1164132 c 5.6623294,2.1164131 21.448082,9.265574 47.1856698,21.3908511 l 13.4409196,6.3486897 0.3945143,22.1915227 c 0.1697872,12.182508 0.62923,23.2783446 0.9153843,24.7081964 0.3445823,1.3733211 1.1435997,2.9743646 1.8302628,3.545665 3.0312944,2.4594943 3.6030955,2.4594943 58.5102767,2.4594943 46.0419169,0 52.5620971,-0.1198421 53.0196374,-0.8574586 0.2846479,-0.459443 0.5722953,-3.3174445 0.5722953,-6.3487387 v -5.4906393 l -4.117967,-0.3445821 c -2.2877026,-0.1697872 -20.9904409,-0.1697872 -41.6377507,0 -20.5901806,0.1697872 -41.5234914,0.1198421 -46.5566378,-0.119842 l -9.0939843,-0.3945143 0.284648,-24.5938364 0.2846479,-24.5937359 -2.3451331,-1.0297431 c -1.3153952,-0.5722953 -9.6659334,-4.6333365 -18.6455075,-9.0367534 -17.1012945,-8.4076726 -23.7358348,-11.4961462 -25.1657869,-11.8394269 -0.4594429,-0.119842 -5.6622275,-2.45899361 -11.4961461,-5.26181759 l -10.6953766,-5.14750783 25.909229,-15.4998534 c 14.2415411,-8.57916164 26.0808675,-15.55703272 26.309639,-15.55703272 0.3945141,0 7.7785401,-4.46104678 26.3096374,-16.0144237 l 10.8670163,-6.74904943 62.799932,-0.0549661 c 60.4548995,-0.0549661 62.7998331,0 63.8294242,1.02974309 z m 30.5991951,75.49711081 c 0.1697872,0.2297216 0.3445823,20.4185409 0.3945142,44.7263262 0.059988,24.3650159 0.2297215,52.8480478 0.4594429,63.3147532 0.1697873,10.466555 0.284648,19.2174581 0.1697873,19.4461278 -0.1697873,0.5153736 -97.6887841,0.5153736 -98.2607345,0 -0.2297214,-0.2297214 -0.5153737,-4.5179764 -0.6861652,-9.6086537 l -0.2297213,-9.151264 39.6359975,-0.119842 39.6931781,-0.1697872 0.1198421,-27.7395408 c 0.1198421,-15.2709828 0.1697873,-39.7503589 0.1697873,-54.5067199 v -26.7098994 h 9.0939829 c 5.0330977,0 9.2655739,0.2297215 9.4372136,0.5148716 z M 36.03881431,400.1949229 c 1.42975256,2.345133 1.48668217,6.8634596 0.28464794,27.0532289 -0.45944294,7.8356217 -1.08667792,20.7045406 -1.42975255,28.5973416 -0.80102581,21.3337218 -1.77283252,33.5162299 -2.57385301,33.8593599 -1.08667792,0.3945142 -4.80412801,-1.3728216 -5.20468848,-2.4025621 -0.34458217,-0.8574586 0.22972147,-10.7526062 1.48668351,-25.1656375 0.28464803,-3.4892348 0.80102581,-10.2951147 1.1441018,-15.1566229 0.34458216,-4.861557 0.85744539,-11.9537365 1.14410169,-15.7286222 0.28464803,-3.7753852 0.80102581,-11.0957865 1.1435997,-16.3005238 0.34458216,-5.2047386 0.7435888,-10.3522452 0.85745855,-11.439017 0.11984205,-1.0866779 0.22972148,-2.6877148 0.28464794,-3.6030953 0,-2.1164131 1.42975265,-2.0020532 2.85950386,0.284648 z m 576.92420749,6.2343285 c 0.3945143,2.345133 1.0866648,11.6676865 1.6015416,20.8189004 0.459443,9.0939341 1.0866781,18.6454574 1.4297526,21.162131 0.284648,2.5159245 0.8010258,8.922243 1.1441018,14.2985711 0.3445821,5.3191475 0.8574453,12.1825583 1.1441016,15.156722 0.284648,2.9743646 0.5722954,7.3780813 0.5722954,9.7802947 0,4.0610359 -0.1198421,4.4036164 -1.2584604,4.7471971 -2.516424,0.6292301 -2.5738544,0.5148716 -2.9169342,-6.1198192 -0.2297215,-3.4887354 -0.6292302,-10.1235743 -0.9728083,-14.6991316 -2.8595051,-43.296473 -3.4313063,-52.6193265 -3.5466651,-60.6264889 -0.1198421,-4.2323268 0.054966,-8.0644922 0.284648,-8.4648519 1.029743,-1.544612 1.8307623,-0.1697872 2.5159244,3.9456758 z m -370.6224947,76.0690611 c 4.4610468,2.2882034 4.804128,3.3748749 4.6333367,16.2433445 l -0.1697873,10.8670652 h -1.6010422 -1.6584726 l 0.1198421,-11.2674765 c 0,-8.5792116 -0.1198421,-11.3245062 -0.6856629,-11.7248671 -1.0297432,-0.6292303 -16.3576543,-0.284648 -17.7304257,0.4594429 -1.0297431,0.5722953 -1.086678,1.1441017 -0.9153845,11.1529657 0.1697872,10.4666555 0.1697872,10.5238361 -1.0871669,10.5238361 -1.0297431,0 -1.2579583,-0.3945143 -1.429253,-3.0312942 -0.1198421,-1.6010435 -0.2297215,-6.6345905 -0.2297215,-11.0957865 l 0.059988,-8.1788522 2.0589827,-2.0020532 c 2.8595039,-2.9169342 5.6050984,-3.7753838 11.2102455,-3.5461644 3.5461658,0.1697873 5.261819,0.5148716 7.4352621,1.601042 z m 188.0565671,-0.3945141 c 3.2030844,2.1159136 3.4313049,3.0882251 3.6030952,15.3282123 l 0.2297215,11.3245566 h -1.4866822 -1.4871817 v -10.523836 c 0,-8.6936722 -0.1697872,-10.6382448 -0.8574453,-11.2101463 -1.0297431,-0.8574455 -16.5864244,-0.5148716 -17.5016556,0.3945141 -0.3445821,0.3445822 -0.5148715,4.8046262 -0.3945141,11.2672768 l 0.1697872,10.6954255 -1.4297525,-0.1697872 -1.4297526,-0.1697873 -0.1697872,-10.0090648 c -0.1198421,-5.4906882 0,-10.8669661 0.1697872,-11.8393766 0.3945141,-2.2877041 3.3174445,-4.6333366 7.0349011,-5.7194596 3.5461643,-0.9728082 11.6105562,-0.6292302 13.5552292,0.6297323 z M 360.2190305,289.584138 c -2.1164132,0.2297214 -4.1174662,0.6856629 -4.4610468,1.029743 -0.3945142,0.3945142 -0.7435889,4.3471863 -0.9723061,9.7802445 l -0.3445823,9.0940332 -2.8595051,0.685663 c -3.0882239,0.7435889 -5.5478173,2.6882129 -7.1492598,5.5479176 -0.8574454,1.4866823 -0.9728082,3.9456772 -0.9728082,18.588327 0,14.9278025 0.119842,17.1584249 1.029743,19.5605392 1.3728217,3.4887353 3.8323161,5.6050983 6.5773106,5.6050983 1.1441019,0 2.4025623,0.2297216 2.7456434,0.459443 0.3945142,0.2297214 0.7435888,3.6600262 0.9728083,8.6935731 0.3445822,8.9223433 0.5722952,10.009115 2.0020531,10.6382951 2.6312834,1.1435996 25.0513767,0.8574453 26.9960483,-0.3445823 0.9153846,-0.5722953 1.5446121,-4.6333365 2.0584849,-12.926098 l 0.3945139,-6.4058706 3.2600156,-0.6292301 c 3.6030953,-0.7435889 5.8909989,-2.4594931 7.2064905,-5.4906883 1.2584604,-3.031294 1.9446228,-10.3522953 1.9446228,-20.5901805 0,-12.0680476 -0.5153735,-14.813391 -3.4892347,-18.5882766 -1.8307624,-2.287704 -2.8025743,-2.9743646 -5.4907384,-3.8323161 -1.830761,-0.5148715 -3.4892348,-1.2579583 -3.7174552,-1.6010422 -0.2297215,-0.2846479 -0.459443,-3.717956 -0.459443,-7.4925907 0,-8.178802 -0.3445822,-10.3522451 -1.7728339,-11.0958367 -1.2579583,-0.6851608 -18.3595065,-1.2010365 -23.5070646,-0.6851608 z m 19.3319183,13.2119987 c 0.685663,0.7435888 0.2846479,6.2342293 -0.5153737,6.4630496 -0.3945141,0.1198421 -4.5174781,0.1198421 -9.2654733,-0.054965 l -8.5793123,-0.3445821 -0.1697873,-2.5159245 c -0.2846479,-4.175396 -0.5722953,-4.061036 9.2083932,-4.061036 4.8046262,0 8.9795226,0.2297215 9.3227533,0.5153737 z m 9.2083442,15.099392 c 2.4594931,1.3158973 3.0312943,2.5159246 3.317944,6.9205411 0.1697872,2.8025742 0,3.8323147 -0.6297323,4.4036165 -0.6851609,0.5722953 -5.5478173,0.7435887 -20.4184894,0.7435887 -10.7526563,0.054965 -19.9609992,-0.119842 -20.4185408,-0.2846479 -0.6851608,-0.284648 -0.8010257,-1.3153953 -0.5722952,-5.8338196 0.1697872,-2.9743633 0.4594429,-5.662378 0.7435887,-5.8910979 0.8010258,-0.8574587 8.7509031,-1.2579583 22.4204434,-1.1435997 11.9536877,0.054965 13.9554899,0.1697872 15.5569825,1.086678 z m 3.4887355,15.785754 c 1.4297513,0.8574586 0.5143693,2.573853 -1.6015429,2.9743632 -2.0589829,0.459443 -29.6269829,0.459443 -37.0623442,0.054965 -4.2897559,-0.2297216 -5.2046871,-0.8010259 -4.4610467,-2.6882131 0.284648,-0.7435888 3.1461536,-0.8574585 21.3336716,-0.8574585 11.5532765,0 21.390851,0.2297214 21.7912119,0.5148715 z m -1.0866781,6.2915092 c 0.685663,0.4594429 0.8010258,1.7154034 0.7435889,5.605048 -0.119842,2.7456433 -0.2846481,5.4334585 -0.459443,6.0054593 -0.3445822,1.2584604 -2.916436,1.3728216 -20.8188516,1.2005345 -8.0072614,-0.054965 -15.4425723,-0.1198421 -16.5292437,-0.1198421 -3.1456554,-0.054965 -3.4892347,-0.7435887 -3.4892347,-6.7490494 0,-5.0330976 0.059988,-5.3762778 1.3153951,-5.8339186 1.7159029,-0.685663 38.2061961,-0.8010258 39.2356882,-0.119842 z m -11.2673257,21.6196211 c 0.1198421,0.9153844 0.054965,2.4599937 -0.059988,3.4313062 l -0.1697873,1.8871925 h -8.1215711 c -10.638196,0 -10.638196,0 -10.638196,-3.3748749 0,-1.4871816 0.1697872,-2.9169342 0.3945143,-3.0882237 0.1697872,-0.2297215 4.4036163,-0.3945142 9.3798834,-0.3945142 h 9.0368037 z m 65.9455862,-72.1226351 c -0.6292301,0.1697872 -1.715402,0.3945143 -2.4025621,0.5143696 -1.4297526,0.3445822 -1.7159029,1.8876918 -2.3451344,12.5828688 l -0.3945143,6.2914088 -3.1456554,1.4866821 c -1.715402,0.8574587 -4.0036055,2.4594945 -5.0330975,3.5466652 -1.7728326,1.8307624 -2.0020519,2.4594931 -2.4025622,6.7489504 -0.2846479,2.6307839 -0.3945143,10.3522941 -0.2846479,17.1012946 0.2297214,13.32636 0.8574584,17.1012444 3.2600139,19.2746386 1.4292532,1.2579583 4.5179778,2.4589936 6.4629997,2.4589936 1.2005345,0 1.2579583,0.2297215 1.6584724,8.4076223 0.5153737,10.3522955 0.6297323,10.9242459 2.5738544,11.4390674 2.6312834,0.7435887 25.1085071,0.394514 26.0235877,-0.3445824 1.029743,-0.8574585 1.4866835,-3.7174553 2.0020532,-12.4113283 l 0.3445822,-6.7489991 3.0312955,-0.6292303 c 5.1475064,-1.2005345 8.0071609,-4.8615571 9.2082927,-11.8965573 1.3158973,-7.6640811 0.6292302,-28.6546213 -1.029743,-31.8003271 -1.2005347,-2.2307717 -4.461047,-4.4036162 -7.6640826,-5.2046869 -1.8307609,-0.3945142 -3.3748734,-0.9153846 -3.488734,-1.086678 -0.119842,-0.1697873 -0.3945141,-4.3471862 -0.6297323,-9.2083932 -0.2297214,-6.2914603 -0.5722952,-9.0939341 -1.1441017,-9.6658846 -0.6297323,-0.6292302 -3.3174444,-0.8574454 -12.1252772,-0.9728082 -6.2342294,-0.1198421 -11.8393778,-0.054965 -12.4685089,0.119842 z m 20.3041308,16.2432441 v 3.432304 h -8.7508041 c -6.0626385,0 -8.9795728,-0.2297216 -9.437113,-0.6861652 -0.7435888,-0.7435888 -0.9728082,-5.1475078 -0.284648,-5.7766891 0.1697873,-0.2297215 4.4610468,-0.3945142 9.4371131,-0.3945142 h 9.0367534 z m 10.638295,12.1253273 c 0.7435889,0.7435889 0.9723062,2.0589829 1.029743,5.7766878 0,2.6882144 -0.119842,5.0330475 -0.2846479,5.2047387 -0.6297323,0.6292302 -5.0331465,0.9153846 -15.6713927,0.9728083 -9.5515734,0.054965 -23.2782945,-0.8574587 -24.4221451,-1.5451115 -0.8574586,-0.5722953 -0.2297215,-5.1476082 1.0297431,-7.3782308 l 1.2584603,-2.2877039 6.1770488,-0.9723062 c 8.8079331,-1.3153953 29.4552943,-1.2005345 30.8851962,0.2297215 z m 0.1198421,15.4425725 c 1.7728324,0.5148715 2.5164239,2.2307731 1.3158973,2.9743645 -0.7435888,0.4594429 -30.3131943,0.8010259 -36.9477343,0.3945142 -5.6050984,-0.3445822 -5.7195086,-0.3945142 -5.7195086,-1.7728324 0,-0.9728082 0.3945143,-1.4866822 1.4297526,-1.7728326 2.2877041,-0.5722953 37.8058351,-0.4594429 39.9219483,0.1697874 z m 0,7.2065408 c 1.086678,0.6292302 1.2579582,1.2010366 1.2579582,4.3471861 0,2.002052 -0.2846479,4.4036164 -0.6292302,5.3763269 -0.5722952,1.6584739 -0.8010258,1.7733333 -4.1179656,2.1159138 -1.9446227,0.1697872 -10.9813762,0.2846479 -20.1325398,0.1697872 l -16.5864746,-0.1697872 -0.1697872,-6.1198193 c -0.119842,-5.4335074 -0.054965,-6.1198179 0.8574586,-6.2914088 0.5722953,-0.1697871 9.3799338,-0.2297213 19.617819,-0.1697871 13.6123095,0.054965 18.931408,0.2297214 19.9037196,0.7435888 z m -10.6962249,20.8750821 c 0.3945141,0.8574455 0.3945141,2.058983 0.1198421,3.3174446 l -0.5148716,1.9446227 -4.5759061,0.1697873 c -2.4589938,0.054965 -6.6917195,-0.059988 -9.3798334,-0.284648 l -4.8615572,-0.4594429 -0.1697873,-3.0312942 -0.1697871,-2.9743647 h 9.494344 c 9.3227531,0 9.4942936,0 10.0662441,1.3153955 z m 65.7739966,-71.6651461 c -1.029743,0.2297215 -2.1159136,0.8010259 -2.345133,1.1441018 -0.5148714,0.8574585 -1.086678,6.9204908 -1.2584605,13.0403589 -0.054965,2.2877041 -0.2297213,4.3471863 -0.4594429,4.6333367 -0.1697872,0.2297214 -1.601042,0.9153844 -3.2600153,1.4297525 -3.4892336,1.1435996 -5.6624271,3.1456542 -7.2066401,6.6345402 -2.288202,5.0904263 -1.9446227,32.315147 0.459443,37.4054741 1.1435998,2.3451331 3.8318153,4.175396 7.6068504,5.1476069 l 2.6882143,0.6861651 v 9.4942435 c 0,5.2619683 0.1697871,9.6659836 0.394514,9.8947048 0.4594429,0.459443 27.968311,0.3945143 28.4259014,-0.054965 0.1747818,-0.1697872 0.459443,-4.7471971 0.6297323,-10.1234751 l 0.2846481,-9.7802947 2.4025634,-0.4594429 c 5.2619683,-0.8574453 8.0644922,-3.945677 9.2655738,-10.180706 1.3153953,-6.6345387 0.9728082,-28.3685211 -0.4594429,-32.772588 -0.9733104,-2.9169343 -2.9743633,-4.4036165 -7.3209498,-5.4335076 l -3.889745,-0.9728083 -0.1697872,-10.1806055 -0.1198421,-10.123574 -11.8965573,0.054965 c -6.5202304,0.054965 -12.6971787,0.284648 -13.7839504,0.5148716 z m 20.0181787,15.4425737 c -0.054966,1.4292531 -0.459443,2.9169341 -0.7435889,3.260014 -0.6292301,0.8010258 -14.355852,1.086678 -16.128884,0.3945142 -0.9733104,-0.3945142 -1.1435996,-1.8307623 -0.5722954,-4.7471971 l 0.3945142,-1.8307623 8.6364427,0.1697872 8.6363925,0.1697873 z m 10.7526062,13.3264591 c 0.9728081,2.9743646 1.1441016,8.9795239 0.2846479,9.7802947 -0.5148715,0.5148715 -4.5759062,0.8574454 -14.5846209,1.0866779 -21.3910015,0.6292302 -25.680558,0.5153738 -26.0237383,-0.3945142 -0.4594429,-1.1441017 0.8010257,-9.5516236 1.6010422,-10.4667055 0.3945141,-0.5148715 1.3153953,-0.6851608 2.8025742,-0.4594429 1.3728217,0.2297214 2.2307731,0.1198421 2.2307731,-0.2297215 0,-0.6292302 4.2902554,-0.8010258 23.2783447,-1.0297431 l 9.8375743,-0.1697872 z m 0.9153843,14.6990812 c 0.5148717,0.3945142 0.8574454,1.3158974 0.7435889,1.9446229 -0.1697873,1.086678 -0.6292302,1.2584603 -5.0331478,1.4866835 -2.688213,0.1697873 -12.0108168,0.3445823 -20.7045393,0.2846479 -17.1583761,0 -17.8446865,-0.1198421 -16.5864745,-2.8595051 l 0.6292302,-1.4297525 11.6105575,-0.1198421 c 21.8483912,-0.2846481 28.3114411,-0.1697872 29.3409832,0.685663 z m -0.5153735,7.0921306 c 0.8010257,0.6292303 0.8574584,1.3728217 0.5153735,5.4335076 -0.4594429,5.3190483 -1.1435995,6.3486395 -4.1753958,6.3486395 -17.1012946,0.1697873 -35.346391,-0.119842 -35.7468021,-0.5148716 -0.9153847,-0.9153844 -1.7159016,-10.352245 -0.9153847,-11.2673269 0.5722955,-0.6866672 3.7179549,-0.801026 20.0181787,-0.7435888 14.241541,0.059988 19.5606396,0.2297213 20.3041809,0.7435888 z m -12.4113285,19.7322293 c 1.3158974,0.054965 1.3728217,0.1697872 1.0297431,3.031294 -0.2297215,1.6010436 -0.5722953,3.1456556 -0.8574453,3.4318059 -0.284648,0.2846479 -4.061036,0.3945142 -8.4649021,0.3445821 l -7.9500821,-0.1697871 -0.1747818,-2.8025743 c -0.119842,-1.5451114 -0.054966,-3.0882251 0.059988,-3.431305 0.2297215,-0.5153736 8.2360818,-0.7435888 16.3577546,-0.3945143 z m -20.6461112,-41.8660229 c 0.3945141,0.1697872 0.9153844,0.1198421 1.0866779,-0.054965 0.2297215,-0.1697873 -0.1198421,-0.3445821 -0.7435888,-0.2846478 -0.6292301,0 -0.8010258,0.1697872 -0.3445822,0.3445821 z M 270.1997554,290.3271295 c -1.7159029,0.5153736 -1.7728338,0.5722953 -2.1733442,4.8615571 -0.1697872,2.4599924 -0.3445821,6.8061799 -0.3445821,9.7803449 v 5.3190973 h -1.5446121 c -2.1159135,0 -6.9777205,2.3451332 -8.579163,4.061036 -2.1159137,2.345133 -2.4025634,4.1174661 -2.8025742,16.6437543 -0.3945143,13.6695404 0.284648,19.2174078 2.8595052,23.6214246 1.6584726,2.7461427 3.1456541,3.8892455 6.5773093,4.9184879 1.373321,0.3945142 2.5738544,1.029743 2.6882142,1.3153952 0.1198421,0.3445822 0.4594431,4.3471863 0.743589,8.8651628 0.394514,6.2342293 0.7435888,8.4648531 1.4866834,9.1511147 0.7435889,0.7435887 2.6877148,0.9728081 11.6105563,1.0866646 5.891049,0.1198422 12.1253286,-0.054965 13.8411312,-0.2846479 2.9743632,-0.459443 3.1456541,-0.5722953 3.5461644,-2.4589949 0.2297214,-1.086678 0.5148714,-5.490737 0.6856629,-9.7231643 l 0.284648,-7.6640811 3.1461537,-0.6297322 c 7.0348997,-1.4297527 8.064442,-4.6897681 8.0072613,-24.5937861 0,-15.3282125 -0.3945142,-18.0163766 -2.8595039,-21.3336718 -1.086678,-1.3733211 -2.345133,-2.1159137 -4.8615569,-2.8595039 l -3.374875,-0.9723061 v -3.4313063 c -0.054965,-4.5179762 -0.62923,-11.4961962 -1.086678,-13.3836397 -0.7435887,-2.6307839 -2.230773,-2.9174337 -14.6418517,-2.8595039 -6.2913598,0 -12.2396886,0.284648 -13.2119498,0.5722953 z m 22.4203918,12.6972289 c 0.7435889,0.685161 0.5722953,4.8615571 -0.1697873,5.6050984 -0.4594429,0.459443 -3.6030952,0.686165 -9.723114,0.7435888 l -9.0368024,0.054965 -0.1697872,-2.8025743 c -0.119842,-1.544612 -0.059988,-3.0882251 0.1198421,-3.545665 0.2297215,-0.5722952 2.344635,-0.686165 9.4371646,-0.6292302 5.0330977,0.054965 9.322703,0.3445823 9.5515735,0.5722954 z m 9.6658344,15.4999023 c 0.686654,1.0297431 0.8574454,2.5159246 0.7435888,5.8337681 l -0.1697872,4.5179776 -2.8595039,0.4594431 c -3.3174458,0.5722954 -37.7485064,0.8574453 -38.3204569,0.3445822 -0.6292303,-0.6856631 0.7435888,-11.553377 1.5446119,-12.0109173 0.3945143,-0.2846479 9.1511636,-0.5148716 19.4462283,-0.5148716 h 18.7599176 z m 1.6584724,15.9572431 c 0.5153737,0.8574586 0.3945143,1.2010366 -0.4594428,1.8876933 -0.9153845,0.6292301 -4.5759062,0.8010257 -20.9904913,0.8010257 -10.9241958,0 -20.2469991,-0.1697872 -20.7616698,-0.3445821 -0.9153845,-0.3445822 -1.2579582,-2.5738544 -0.5148715,-3.2600156 0.2297214,-0.2297214 9.7802947,-0.3445821 21.2192614,-0.2846479 19.4462784,0.1697872 20.9333107,0.2297215 21.5053114,1.2005346 z m -1.4297512,5.7767394 c 1.3153952,0.459443 1.3153952,0.5153736 0.9153844,6.2913585 -0.2297214,3.1466543 -0.4594429,5.8339186 -0.5153736,5.8910993 -0.054965,0.054965 -8.2360817,0.2846479 -18.1307867,0.5143695 -12.5828186,0.2297214 -18.4166871,0.1697871 -19.5605893,-0.2846482 -2.1164119,-0.8010257 -3.1456542,-3.3748747 -3.3748736,-8.3503926 -0.1697872,-3.7179548 -0.119842,-3.9461753 1.1441017,-4.2328251 2.0020533,-0.5148715 37.9201462,-0.2846479 39.5217381,0.1697872 z m -9.2084434,23.6786038 0.1697873,3.5456664 -9.6088043,-0.1198421 -9.6087039,-0.1697873 -0.1198421,-2.8595038 c -0.059988,-1.6010435 0,-3.2030845 0.1198421,-3.6030953 0.2297214,-0.5722953 2.4025621,-0.6856631 9.5515734,-0.5722953 l 9.3227532,0.1697872 z M 79.34036432,325.3875711 c -0.16978727,0.459443 -0.34458217,9.4371632 -0.34458217,19.9610495 -0.0549661,15.6140627 0.11984205,19.2745884 0.7435888,19.7893093 1.20053452,0.9723062 112.78817485,0.6292302 114.50402745,-0.3445822 0.6861651,-0.3945143 1.4292533,-1.3728217 1.6010436,-2.1733428 0.2846479,-1.0866779 0.5722951,-32.3723276 0.3945141,-37.3481456 -0.059988,-0.5153735 -12.1252771,-0.6866539 -58.3386858,-0.6866539 -50.0454722,0 -58.33868437,0.119842 -58.56745591,0.8010258 z M 192.18577,331.5646198 c 0,3.832316 4.2902567,3.5456662 -54.4493898,3.6030953 H 84.37391127 l -0.16978725,-2.7456434 -0.16978726,-2.6882142 h 54.04907924 54.1063589 z m -0.5722954,18.4167373 v 9.9518843 l -4.1174674,0.3945142 c -2.2882021,0.1697872 -26.4240489,0.2846481 -53.6487181,0.1697872 l -49.47352324,-0.1697872 -0.16978725,-9.3799337 c -0.11984205,-5.1475078 -0.054966,-9.7231141 0.11984204,-10.1806556 0.22972147,-0.6292303 9.66588459,-0.743589 53.82025885,-0.743589 h 53.4770786 z M 64.18344626,375.5474046 c -5.83391859,1.0297431 -5.26196685,-2.9164347 -5.26196685,35.1176711 0,19.1030477 0.22972147,33.9737199 0.51487151,34.7743917 0.28464803,0.7435887 1.14410179,1.5451113 1.9446228,1.7728324 2.00205189,0.4594429 23.73588551,0.5148715 26.30968833,0.059987 1.31539521,-0.2846479 2.40256344,-0.9153844 2.85950511,-1.6584738 0.51487161,-0.8574454 0.74358889,-8.1789011 0.8574454,-27.7966698 0.22972147,-28.8262625 -0.28464793,-40.0935392 -1.83076223,-41.6950821 -0.80102581,-0.7435888 -2.63128344,-0.9153845 -11.66773692,-1.0297431 -5.8911487,-0.054965 -12.06819877,0.1697872 -13.72677043,0.459443 z m 21.27649157,4.861557 c 0.8010258,0.284648 0.91538439,3.5456663 0.91538439,30.8850958 0,16.8153439 -0.0599869,30.5421639 -0.11984204,30.5421639 -0.11984204,0 -5.20483778,0.1697873 -11.38183631,0.3445822 l -11.26737775,0.3445822 -0.22972147,-30.7708349 c -0.11984205,-16.9868355 -0.11984205,-30.9995561 0,-31.2855056 0.22972147,-0.4594431 20.7616715,-0.5722954 22.07716321,-0.054965 z m 16.24324407,3.0882251 c -3.48923483,0.1697872 -6.46304982,0.6292303 -6.86340947,1.0297432 -1.14359961,1.1435995 -1.71540342,14.6418517 -1.37332108,33.0014084 0.39451421,20.4185911 0.57229528,22.3631136 2.28820213,23.3355255 0.91488241,0.5153735 10.40947602,0.6856628 38.94973742,0.6856628 42.0381118,0 40.3222592,0.1697873 41.12303,-3.7753851 0.4594429,-2.5164239 0.4594429,-37.8630157 0,-46.0989984 -0.2297216,-3.7174552 -0.6856631,-6.92059 -1.1441019,-7.4925906 -0.6292301,-0.9153845 -3.0312955,-0.9723063 -33.8021304,-1.0297431 -18.1879659,0 -35.8039827,0.119842 -39.1785075,0.3445821 z m 67.8902605,5.8338684 c 0.3445822,0.2297216 0.5153738,8.4076225 0.3945142,23.1639346 l -0.119842,22.8207026 h -1.8871938 c -0.9723061,0 -16.0716532,0.1697872 -33.4589489,0.3945142 -17.4444259,0.2297215 -32.2006877,0.284648 -32.8869982,0.119842 l -1.2584604,-0.3445821 -0.1198421,-22.9922936 c -0.119842,-16.2433443 0.054966,-23.0495242 0.5148716,-23.3355239 0.8010258,-0.5153736 68.061899,-0.3445821 68.8054401,0.1697871 z m 10.5810154,3.8323148 c -1.3158974,0.3445822 -1.4297527,0.6861651 -1.8307623,5.2047386 -0.9728083,12.9259489 -0.054965,31.4571455 1.6010421,33.1729981 1.2584604,1.2579583 35.7466528,1.0297431 37.7485567,-0.2297216 2.1164118,-1.4297525 2.6877135,-4.4610466 2.7456434,-14.3560515 0.119842,-15.4425724 -0.2846481,-22.4774721 -1.2574562,-23.3354235 -0.6297323,-0.5148715 -5.5478688,-0.685663 -19.217458,-0.8010258 -10.1235252,-0.054965 -18.9887381,0.119842 -19.78946,0.3445822 z m 23.6215236,4.5759074 c 0.2297214,0.054965 0.3945142,6.6345892 0.3945142,14.6419509 v 14.5846711 l -4.1179655,0.054965 c -2.2877041,0 -6.8061799,0.119842 -10.0090648,0.2846479 l -5.8909991,0.2846479 v -14.8706716 -14.8707211 l 7.6068015,-0.1697872 c 6.3486396,-0.1697872 9.3799839,-0.1198419 12.0109674,0.054965 z m 11.2673772,14.6419509 v 14.5846711 h -2.8595051 -2.8595039 l -0.054965,-6.4630497 c 0,-3.4892348 -0.1697873,-10.0663445 -0.284648,-14.5847214 l -0.284648,-8.1216212 h 3.1456542 3.2030844 z m 300.5587911,-11.7822475 c -5.261918,0.5722953 -6.5202291,1.0297432 -6.8634596,2.5159245 -0.1747819,0.6861652 -0.5148715,4.8615572 -0.7435888,9.2656241 l -0.3945143,8.0072111 h -6.0054593 -6.005409 l -0.3945142,-8.5792619 c -0.6292301,-11.7248674 0.6297323,-10.866916 -15.5569825,-10.866916 -7.0921809,0 -13.0404093,0.2297216 -13.3264089,0.459443 -0.2297216,0.2846479 -0.5722954,4.6897681 -0.6297324,9.8375242 l -0.2297215,9.3228047 -3.2030844,0.6292301 c -3.9456772,0.8010259 -6.5774097,2.5159246 -7.8357222,5.1475079 -2.2307729,4.6897666 -2.5738529,28.7118019 -0.5722952,36.0327529 1.4297513,5.0331478 3.7174553,7.3781303 7.9500806,8.2360817 l 3.3743755,0.6856631 0.2297215,9.3799337 c 0.1198421,6.7490506 0.3945143,9.5514744 0.9153843,9.8946546 0.3445824,0.2297215 6.9205902,0.459443 14.5273916,0.459443 10.4667544,0 13.9556404,-0.1697871 14.2987705,-0.7435889 0.2297214,-0.3445821 0.4594429,-4.9184879 0.4594429,-10.1234749 v -9.4371131 l 5.6622777,-0.1697873 c 3.1456554,-0.054965 5.8910992,0.1198422 6.29141,0.3945143 0.4594429,0.3945141 0.7435887,2.8025742 0.8574454,6.7490005 0.054965,3.3743754 0.2846479,7.6069004 0.5143694,9.3227531 l 0.3945142,3.1456555 3.1456555,0.3945141 c 4.2902554,0.459443 14.813391,0.459443 19.9609992,-0.054965 5.261967,-0.5143695 5.7765887,-1.0866779 5.8338183,-6.5773609 0.054966,-6.806279 0.8010259,-12.3541979 1.6584725,-12.9260982 1.3153952,-0.8574586 10.1235755,-0.686165 10.6954254,0.1198421 0.2297215,0.3945142 0.5722954,4.861557 0.743589,9.8946546 l 0.2846478,9.1512125 4.2902554,0.459443 c 5.6623781,0.6292302 23.907526,0.054965 24.9369666,-0.8010258 0.5722953,-0.459443 0.8010258,-2.9743633 0.9153844,-9.8947036 l 0.1747816,-9.2083932 2.6312836,-0.2846478 c 6.6918199,-0.8010258 8.236083,-4.4036165 8.7508528,-20.4757692 0.2846481,-9.3227544 -0.459443,-21.276491 -1.5451114,-23.3354751 -1.2584604,-2.4594931 -3.2030845,-4.0036056 -6.005458,-4.8615571 -1.3153952,-0.3945142 -2.630784,-0.9728081 -2.8595052,-1.3153951 -0.2846479,-0.3445823 -0.8010258,-4.2328264 -1.1435997,-8.636493 -0.3445821,-4.4036164 -0.8010257,-8.464803 -1.0297431,-9.0367535 -0.2297213,-0.5722954 -1.029743,-1.3153952 -1.8871937,-1.6584724 -2.2307731,-0.8574455 -12.6400985,-1.2579583 -20.1897694,-0.7435889 l -6.6346392,0.3945141 -0.3445823,5.7766391 c -0.2297214,3.2035839 -0.459443,7.6069505 -0.5153737,9.8374739 l -0.1747817,4.0041051 h -6.2937566 -6.2342797 l -0.1697872,-9.2083931 c -0.119842,-6.6918199 -0.3445822,-9.4372136 -0.8574454,-9.8946547 -0.9733103,-0.7435889 -16.4720644,-1.2579584 -21.8483925,-0.685663 z m -26.538409,13.8411313 c 0.3945141,0.6292302 0.054965,5.0903271 -0.459443,5.662378 -0.1198421,0.1198421 -4.0036069,0.284648 -8.6365431,0.284648 h -8.4076224 l -0.054965,-3.1456555 c -0.054966,-1.7154021 0.1198421,-3.2600142 0.3445824,-3.4313049 0.9723061,-0.6297323 16.7580138,-0.054965 17.2155554,0.6292301 z m 43.8684248,2.1733427 c 0.1198421,1.7159028 -0.054965,3.2600153 -0.3945142,3.4318044 -0.284648,0.2297215 -4.1179656,0.4594429 -8.5219823,0.5153736 -9.2655236,0.2297216 -10.0090649,-0.059988 -9.7231141,-4.1174674 0.1747818,-2.0589827 0.3445822,-2.4025633 1.8871925,-2.7456432 0.9728082,-0.1697873 5.0903284,-0.3445823 9.1512138,-0.284648 l 7.4353109,0.119842 z m 42.0953914,-3.0312942 c 0.9153845,0.3445822 1.2005346,2.8025742 0.5722954,5.1475567 -0.2846481,1.1441018 -0.8010258,1.2005346 -8.9795727,1.5451115 -4.7471971,0.119842 -8.9795743,0.1697871 -9.3799339,0 -0.685663,-0.284648 -0.9153844,-5.4335075 -0.3445821,-6.6346392 0.2846479,-0.459443 16.8152447,-0.5722954 18.1307866,-0.054965 z m 7.9500822,14.6418518 c 2.9169342,0.6851608 4.4036164,3.1456541 4.4036164,7.1494104 0,2.2877026 -0.2297215,3.0882237 -0.9728082,3.4887353 -1.6584726,0.8574454 -20.9332606,1.3153952 -67.661439,1.4866821 -43.239344,0.1198421 -55.0213905,-0.1697871 -56.4513427,-1.5451114 -0.4594428,-0.4594429 -0.5722951,-1.3728216 -0.2297214,-2.6882142 0.2297214,-1.0866781 0.2297214,-2.8025731 0.054965,-3.8323149 -0.2297213,-1.029743 -0.1747817,-2.0589826 0.1747819,-2.4025634 0.4594429,-0.4594429 0.3445822,-0.6292301 -0.3445821,-0.6292301 -0.5148717,0 -0.9728084,-0.1697873 -0.9728084,-0.459443 0,-0.2297215 4.9759185,-0.5148716 11.0385569,-0.5722952 6.0054594,-0.1198421 11.0958367,-0.2846481 11.1530161,-0.3945142 0.5153735,-0.5148716 97.803144,-0.1198421 99.8049461,0.3945142 z m -19.4460788,15.7856033 c 16.643704,0.1198421 20.8189005,0.284648 22.4775222,0.9728082 2.4594945,1.0297432 2.2882035,2.1159124 -0.3945141,2.688213 -2.3446337,0.5148715 -97.4599637,0.9153844 -114.618439,0.4594429 l -12.0109172,-0.2846479 v -1.4292532 c 0,-1.3153952 0.284648,-1.4866822 3.1456542,-1.8307623 1.7154033,-0.1697872 20.0181296,-0.3945141 40.6083102,-0.3945141 21.905572,-0.054965 37.8057348,-0.2846481 38.3205059,-0.6292302 0.459443,-0.284648 1.086678,-0.284648 1.4297526,-0.054965 0.284648,0.2297215 9.7803436,0.5153738 21.0476706,0.5153738 z m 22.7063425,7.3209999 c 0.3945143,0.3945141 0.5722954,2.7456433 0.459443,6.29141 l -0.1697872,5.6622777 h -61.9419317 -61.9992102 l -1.3153952,-1.5451116 c -1.5451115,-1.8307622 -2.5169235,-8.5792118 -1.4297513,-9.8946546 0.8574454,-1.0297431 6.634589,-1.1435996 74.1815689,-1.1435996 36.4332129,0 51.7613751,0.1697872 52.2189657,0.6297323 z m -97.3456024,23.2782443 0.1747818,3.3179438 -8.7507524,-0.1697872 -8.7508027,-0.1697873 0.1747817,-2.573853 c 0.059988,-1.429253 0.2297215,-2.8595051 0.3945142,-3.2600154 0.1697873,-0.4594429 2.5738544,-0.6292301 8.4076224,-0.5722952 l 8.178802,0.119842 z m 42.4386221,-3.0312942 c 1.3733212,0.7435888 2.1159137,4.2902553 1.1441017,5.4335576 -0.5722953,0.6856631 -2.4025634,0.8574587 -9.4944443,0.8574587 h -8.8095808 v -3.0312943 c 0,-1.7154033 0.1697873,-3.2600154 0.3945142,-3.4313063 0.5722953,-0.6292302 15.5569826,-0.459443 16.7581143,0.1697873 z m 44.497556,1.6584725 c 0.119842,1.0866647 0.054965,2.5738543 -0.1747819,3.3748748 l -0.3445822,1.3728217 -8.1216715,-0.3445823 c -4.4610468,-0.1697872 -8.4648031,-0.3445821 -8.8079332,-0.3445821 -0.8010257,0 -1.0866779,-5.2047374 -0.3445822,-5.9482285 0.2297215,-0.1697872 4.289756,-0.2846479 8.979524,-0.2297214 l 8.6364428,0.1697872 z M 271.9723921,406.31804 l -1.7154033,0.3445823 -0.2846479,9.6659348 -0.2846481,9.6659333 -2.6307839,0.6292302 c -4.3471863,1.1435997 -7.4925417,4.175396 -8.9223935,8.8078829 -1.1435996,3.7179547 -1.6584724,20.7046409 -0.8010258,27.1104096 1.1441017,8.7507525 2.8595039,11.2673272 8.3504418,12.7544584 4.2902554,1.2005347 4.0610359,0.6856632 4.5759061,9.1511638 0.6856631,11.6105073 1.0297432,11.9536876 15.1566731,11.782147 5.2047374,-0.059988 10.4666553,-0.2846479 11.7249163,-0.5148715 2.173344,-0.3945143 2.2882035,-0.5148716 2.6882143,-2.9743646 0.1697872,-1.4297512 0.3945141,-4.9184867 0.3945141,-7.7784912 0.054965,-2.859504 0.2297215,-6.0626888 0.3945142,-7.0349501 l 0.3945142,-1.8307623 5.776639,0.1697873 5.7766878,0.1697873 0.3945141,7.4352605 c 0.5722954,9.4371647 0.8574454,10.924246 2.0584834,11.4960972 1.2579583,0.5722955 21.276491,1.0297431 24.4794765,0.5148716 3.7753852,-0.5722953 4.1753959,-1.4866821 4.5759061,-11.3245565 l 0.3945142,-8.4076224 h 6.1198681 6.1198695 l 0.3945141,7.8928023 c 0.5148716,10.4666554 0.6861651,11.0958367 3.5466638,11.7249664 2.6882144,0.5722954 23.5643444,0.2297215 24.9941975,-0.394514 2.1159123,-0.9728084 2.6882129,-3.3748751 2.6882129,-11.4389669 v -7.7212617 l 3.1456555,-0.6292303 c 3.6600249,-0.7435887 6.1198179,-2.6312846 7.7784913,-5.8338697 2.1733426,-4.2892564 2.8595038,-27.2247194 0.9728081,-34.6028497 -0.3445821,-1.3728229 -1.5451114,-3.5456663 -2.8025742,-4.9184879 -1.715903,-2.0020532 -2.8595051,-2.7456434 -5.6622288,-3.4887354 l -3.4318044,-0.9728082 v -4.1179656 c 0,-6.4058202 -0.9723061,-13.6696407 -2.0020531,-14.6419521 -0.7435889,-0.7435888 -2.8595039,-0.9723062 -11.6105563,-1.086678 -5.891049,-0.119842 -11.9537378,0 -13.5551302,0.2846479 l -2.8595052,0.459443 -0.3945142,3.1456542 c -0.2297214,1.7154035 -0.6292302,6.1198193 -0.8574453,9.7231141 l -0.459443,6.5774096 h -6.0036609 -6.0054593 l -0.3445823,-10.0091638 c -0.1697872,-5.4906393 -0.3445822,-10.0662455 -0.3945141,-10.1806055 -0.2297216,-0.284648 -20.1325888,-0.1198421 -24.5937862,0.2846479 -4.2328251,0.2846479 -4.8615571,0.5153737 -5.2619167,1.6015417 -0.2846478,0.6851608 -0.6851609,4.9759182 -0.9153844,9.494344 -0.2297215,4.5179775 -0.6297323,8.4076725 -0.9728083,8.579213 -0.2846479,0.2297215 -3.0882251,0.3945143 -6.1770486,0.459443 l -5.6050482,0.119842 -0.1697873,-9.7230638 c -0.119842,-5.3191977 -0.3945142,-9.894804 -0.6297324,-10.1807046 -0.5722951,-0.5722954 -25.108507,-0.8010258 -27.5678004,-0.2297214 z m 109.9855517,12.582968 c 0.801026,0.054965 0.8574587,5.1475581 0.1198421,6.3485894 -0.2297214,0.3945143 -3.6030952,0.5722954 -9.494344,0.459443 l -9.0939828,-0.1697873 -0.1697873,-2.8595051 c -0.1198421,-1.9446228 0.054965,-3.0312942 0.6297323,-3.4318045 0.6292302,-0.4594429 14.0699,-0.7435888 18.0163764,-0.3445822 z m -87.7939297,0.459443 c 0.1198419,0.2846479 0.1198419,1.8307609 -0.059988,3.4318044 l -0.2297215,3.0312943 h -8.8080334 -8.8079332 v -3.4313051 -3.4318044 h 8.8079332 c 4.8615569,0 8.9796229,0.1697872 9.0940332,0.3945142 z m 43.1821143,0.119842 c 0.7435888,0.3945143 0.9153845,1.1441018 0.8010259,3.4318059 l -0.2297215,2.9169341 h -8.9822696 c -6.2342295,0 -9.2083932,-0.2297214 -9.6658847,-0.686165 -0.7435887,-0.7435889 -0.9728081,-5.147558 -0.2846479,-5.7767392 0.5722954,-0.5722954 17.2728855,-0.459443 18.3595582,0.119842 z m 55.6505705,15.4999037 c 1.6010435,1.6010422 1.7154037,1.887692 1.5451115,5.8338182 l -0.1697872,4.175396 -2.8595039,0.4594429 c -1.5451114,0.2297215 -22.0200322,0.5148716 -45.4698672,0.6292303 -62.3996214,0.3445822 -71.3220149,0.3445822 -76.3551614,-0.1198421 l -4.5759062,-0.3945142 -0.1697872,-4.918488 c -0.1697873,-6.0626888 0.1198421,-6.4058202 6.1198179,-6.8634106 2.4025635,-0.1697873 30.4276056,-0.3445823 62.2851623,-0.3945143 l 57.9383248,-0.119842 z m 1.6584725,15.7857527 c 0.6861651,0.6851609 0.6861651,0.9153843 -0.054965,1.6584724 -0.8010259,0.8010259 -7.8929015,0.9153845 -61.4844907,1.2005345 -33.2873592,0.1697872 -62.6282422,0.1198421 -65.1448656,-0.1697873 -4.4036178,-0.4594428 -4.5759062,-0.5148714 -4.5759062,-1.887693 0,-1.3733212 0.2297215,-1.4297526 3.7174553,-1.7154035 2.0584834,-0.1697873 31.3999159,-0.2297215 65.2020965,-0.119842 51.5325046,0.1697872 61.5988003,0.3445822 62.3423415,1.0297431 z m -1.086678,6.40577 c 0.6297324,0.6861651 0.8010259,2.1733427 0.6297324,5.4335576 -0.1697872,3.9456759 -0.3445821,4.5179765 -1.6010435,5.3763281 -1.2584603,0.8010259 -6.8634093,0.8574455 -55.0214407,0.8574455 -29.455293,0 -57.6524243,-0.054965 -62.6283412,-0.054965 l -9.0367535,-0.054965 -0.8574454,-2.0020533 c -0.3945142,-1.0866779 -0.8010258,-3.7753852 -0.8010258,-5.9482786 0,-3.3174445 0.1697872,-4.0036056 1.0297431,-4.2323255 0.5148715,-0.1697873 29.4552929,-0.2846481 64.2297348,-0.3445823 59.5397673,-0.054965 63.314653,0 64.0581943,0.9723063 z m -99.6905862,19.8466379 c 0.5153737,0.1697873 0.6856631,1.2005346 0.5722955,3.2600155 l -0.1697873,3.0307948 -8.2932624,0.1697872 c -9.5515232,0.2297214 -9.8947036,0.119842 -9.608754,-4.0036056 0.1697872,-2.2307731 0.3445821,-2.4599925 1.8871937,-2.7456434 1.8871924,-0.3445822 14.4703111,-0.1198421 15.614212,0.284648 z m 43.7539646,0.1198421 c 0.2297215,0.119842 0.3945142,1.4866822 0.3945142,3.0882251 v 2.8025743 l -7.7212618,0.119842 c -4.2323268,0.054965 -8.4076725,0.1198421 -9.2655236,0.1198421 -1.5446119,0.054965 -1.6010434,0 -1.7728324,-3.6030954 l -0.1697873,-3.6600263 9.0368024,0.459443 c 4.9764176,0.2297216 9.2084446,0.5153737 9.4943941,0.685663 z m 44.3259652,-0.1198421 c 0.5148714,0.1697873 0.686165,1.1435998 0.5722953,2.9743647 l -0.1697873,2.7456433 h -9.4372135 c -10.4666052,0 -10.2377849,0.1198421 -9.4942938,-4.0610359 l 0.3945142,-1.8871925 4.1174675,-0.1697872 c 4.6897667,-0.1697874 12.9260493,0.054965 14.0126704,0.3945142 z M 80.53904644,453.6813852 c -3.03129426,0.459443 -3.03129426,0.6297323 -2.9743633,19.9038199 0.054966,12.0109173 0.28464794,18.1879158 0.68566293,18.988688 0.57229537,1.029743 1.3728217,1.2579583 5.94817828,1.6015416 2.91693421,0.2297214 28.48308205,0.2846479 56.79447415,0.1697872 39.9220487,-0.119842 51.7613262,-0.3445823 52.7336865,-0.9153845 0.8574586,-0.459443 1.3728231,-1.5451114 1.7154034,-3.4318057 0.5153737,-2.9743633 0.3945142,-35.3464413 -0.119842,-36.2043424 -0.3445822,-0.5153737 -111.47278484,-0.6292303 -114.7900787,-0.1198421 z m 109.01334066,5.2047373 c 0.1697872,0.2846479 0.5153736,4.8041281 0.6856629,10.0091151 l 0.3945142,9.4943941 -7.092231,0.1697873 c -15.7285231,0.3945142 -99.80489599,0.4594429 -100.43402708,0 -0.45944295,-0.2846479 -0.8010258,-3.4892348 -1.08667802,-9.494394 -0.39451412,-8.4076727 -0.34458216,-9.1511638 0.6292302,-9.8375243 0.85745864,-0.6297323 10.98127718,-0.743589 53.8203091,-0.8010258 29.5697032,0 52.905128,0.2297214 53.0767677,0.4594429 z m 1.3728216,26.7099999 c 0.2846481,3.6600263 4.061036,3.4318045 -52.5048674,3.6600263 -28.3686217,0.119842 -52.67635673,0 -54.10630885,-0.2297215 l -2.63128335,-0.3945143 0.39451421,-2.0589828 c 0.22972148,-1.1441017 0.51537361,-2.2882034 0.68616504,-2.516424 0.11984204,-0.2846479 24.47932585,-0.3945141 54.10625845,-0.3445821 l 53.87754,0.1697873 z"
     id="path1043"
     style="display:inline;fill:#ffffff;stroke:none;stroke-width:1.76174" />
</svg>
