<?xml version="1.0" encoding="UTF-8" standalone="no"?>
<svg
   version="1.1"
   x="0px"
   y="0px"
   viewBox="0 0 100 100"
   xml:space="preserve"
   id="svg38"
   sodipodi:docname="clapper.svg"
   width="100"
   height="100"
   inkscape:version="1.3.1 (91b66b0783, 2023-11-16)"
   xmlns:inkscape="http://www.inkscape.org/namespaces/inkscape"
   xmlns:sodipodi="http://sodipodi.sourceforge.net/DTD/sodipodi-0.dtd"
   xmlns="http://www.w3.org/2000/svg"
   xmlns:svg="http://www.w3.org/2000/svg"
   xmlns:rdf="http://www.w3.org/1999/02/22-rdf-syntax-ns#"
   xmlns:cc="http://creativecommons.org/ns#"
   xmlns:dc="http://purl.org/dc/elements/1.1/"><metadata
     id="metadata44"><rdf:RDF><cc:Work
         rdf:about=""><dc:format>image/svg+xml</dc:format><dc:type
           rdf:resource="http://purl.org/dc/dcmitype/StillImage" /></cc:Work></rdf:RDF></metadata><defs
     id="defs42" /><sodipodi:namedview
     pagecolor="#000000"
     bordercolor="#666666"
     borderopacity="1"
     objecttolerance="10"
     gridtolerance="10"
     guidetolerance="10"
     inkscape:pageopacity="0"
     inkscape:pageshadow="2"
     inkscape:window-width="1727"
     inkscape:window-height="1057"
     id="namedview40"
     showgrid="false"
     inkscape:zoom="0.7071067821"
     inkscape:cx="149.9066374"
     inkscape:cy="-59.39696954"
     inkscape:window-x="-8"
     inkscape:window-y="-8"
     inkscape:window-maximized="1"
     inkscape:current-layer="svg38"
     inkscape:document-rotation="0"
     inkscape:showpageshadow="2"
     inkscape:pagecheckerboard="0"
     inkscape:deskcolor="#d1d1d1" /><rect
     width="100%"
     height="100%"
     x="0"
     y="0"
     fill="black"
     id="rect1" /><path
     id="path2"
     style="fill:#ffffff;stroke-width:1"
     d="M 88.480469 1.1035156 C 87.998449 1.1132957 87.51779 1.1664412 86.998047 1.2558594 C 86.49507 1.3452775 86.00493 1.4340194 85.501953 1.5234375 C 83.065309 1.9593509 80.616332 2.3961178 78.179688 2.8320312 L 66.578125 4.9101562 C 61.861318 5.7596286 57.132823 6.5977933 52.416016 7.4472656 C 47.475664 8.3302697 42.536055 9.213241 37.595703 10.107422 C 33.013023 10.93454 28.430336 11.751008 23.847656 12.578125 C 20.203867 13.226407 16.559805 13.884922 12.916016 14.533203 C 10.837045 14.902053 8.7586591 15.283494 6.6796875 15.652344 C 6.2773059 15.719404 5.8736263 15.774947 5.4824219 15.886719 C 2.5875098 16.736192 0.6886019 19.306144 0.50976562 22.279297 C 0.45387933 23.106415 0.66524241 23.945237 0.81054688 24.75 C 1.5594238 28.919121 2.3091754 33.076973 3.046875 37.246094 C 3.0786556 37.415589 3.1061279 37.589081 3.1367188 37.759766 L 3.1367188 41.974609 L 3.1367188 53.162109 L 3.1367188 67.345703 L 3.1367188 80.871094 L 3.1367188 90.058594 L 3.1367188 91.914062 C 3.1590738 95.747865 6.1765045 98.821609 10.021484 98.888672 C 11.116856 98.911032 12.222987 98.888672 13.318359 98.888672 L 21.791016 98.888672 L 33.783203 98.888672 L 47.800781 98.888672 L 62.207031 98.888672 L 75.408203 98.888672 L 85.791016 98.888672 L 91.783203 98.888672 L 92.621094 98.888672 C 96.466074 98.810432 99.482964 95.725839 99.494141 91.880859 C 99.505321 89.936014 99.494141 87.99172 99.494141 86.046875 L 99.494141 74.142578 L 99.494141 59.824219 L 99.494141 46.78125 L 99.494141 38.564453 L 99.494141 37.425781 C 99.494141 35.67095 97.953296 33.994025 96.142578 34.072266 C 96.117928 34.073461 96.094848 34.080371 96.070312 34.082031 L 93.75 34.082031 L 87.234375 34.082031 L 77.587891 34.082031 L 65.818359 34.082031 L 52.929688 34.082031 L 44.091797 34.082031 C 46.020967 33.736605 47.949737 33.390936 49.878906 33.042969 C 50.935559 32.854874 51.992175 32.665688 53.048828 32.476562 C 53.209249 32.464621 53.369964 32.446067 53.533203 32.417969 C 56.070442 31.959701 58.609245 31.512956 61.146484 31.054688 L 71.775391 29.142578 C 71.947141 29.111751 72.1012 29.067883 72.263672 29.03125 C 73.054578 28.889192 73.84652 28.747527 74.636719 28.605469 L 84.730469 26.794922 C 87.144758 26.359009 89.570085 25.922783 91.984375 25.498047 C 93.124456 25.296856 94.275935 25.119489 95.416016 24.884766 C 95.460726 24.873586 95.515838 24.861328 95.560547 24.861328 C 96.309424 24.727201 97.214052 23.977818 97.560547 23.318359 C 98.007638 22.480064 98.064143 21.664042 97.896484 20.736328 C 97.147607 16.556027 96.399267 12.365844 95.650391 8.1855469 C 95.549795 7.5931518 95.438487 7.0123171 95.337891 6.4199219 C 95.335239 6.4056455 95.325307 6.3912636 95.322266 6.3769531 C 94.787501 3.8398967 92.547597 1.632695 89.972656 1.2109375 C 89.447325 1.127108 88.962488 1.0937355 88.480469 1.1035156 z M 88.619141 7.7910156 C 88.63518 7.7910156 88.651923 7.7927793 88.667969 7.7929688 C 88.675282 7.7949332 88.682153 7.7987703 88.689453 7.8007812 C 88.699656 7.8064358 88.710571 7.8106103 88.720703 7.8164062 C 88.722292 7.8179956 88.72302 7.8206519 88.724609 7.8222656 C 88.740433 7.8524635 88.756669 7.8821479 88.773438 7.9121094 C 88.801867 8.0127906 88.842179 8.1009759 88.865234 8.2070312 C 89.505509 11.781104 90.144881 15.36301 90.785156 18.939453 C 88.850917 19.28407 86.922348 19.633726 84.986328 19.976562 C 82.742726 20.380887 80.494918 20.781305 78.248047 21.181641 C 79.517877 18.896768 80.788764 16.610257 82.058594 14.332031 C 83.166699 12.339304 84.28963 10.348767 85.392578 8.3457031 L 85.601562 8.3085938 C 86.544443 8.1398677 87.479016 7.9714604 88.419922 7.8027344 C 88.486171 7.7995476 88.553355 7.7910156 88.619141 7.7910156 z M 76.865234 9.8789062 C 76.747612 10.08907 76.631473 10.299772 76.513672 10.509766 C 74.47941 14.164732 72.446371 17.831362 70.412109 21.486328 C 70.186627 21.888976 69.964479 22.295332 69.740234 22.699219 C 68.000549 23.010756 66.264005 23.31844 64.521484 23.632812 C 62.688814 23.959016 60.856108 24.28803 59.023438 24.617188 C 59.146458 24.397355 59.267409 24.176678 59.390625 23.957031 C 61.424888 20.302065 63.459879 16.635435 65.494141 12.980469 C 65.714421 12.587111 65.929312 12.189435 66.148438 11.794922 C 67.271169 11.593933 68.393403 11.392395 69.517578 11.191406 C 71.969883 10.753495 74.418308 10.316818 76.865234 9.8789062 z M 57.640625 13.318359 C 56.368765 15.606888 55.096079 17.895869 53.824219 20.177734 C 52.716555 22.169669 51.581135 24.157903 50.486328 26.160156 C 46.707521 26.833938 42.929198 27.515757 39.150391 28.189453 C 40.420129 25.904746 41.691199 23.619857 42.960938 21.341797 C 44.069064 19.349033 45.190001 17.356617 46.292969 15.353516 C 46.385534 15.336864 46.477735 15.321351 46.570312 15.304688 C 50.263847 14.638811 53.948431 13.982896 57.640625 13.318359 z M 37.767578 16.884766 C 37.649679 17.095427 37.534095 17.307088 37.416016 17.517578 C 35.381753 21.172545 33.348715 24.839174 31.314453 28.494141 C 31.08897 28.896789 30.866823 29.303145 30.642578 29.707031 C 28.902892 30.018569 27.166349 30.326253 25.423828 30.640625 C 23.591158 30.966829 21.758452 31.295842 19.925781 31.625 C 20.048802 31.405168 20.169753 31.18449 20.292969 30.964844 C 22.327232 27.309877 24.362222 23.643248 26.396484 19.988281 C 26.615777 19.596688 26.830675 19.201327 27.048828 18.808594 C 29.651969 18.343433 32.2575 17.878963 34.857422 17.40625 C 35.826583 17.231301 36.798245 17.058678 37.767578 16.884766 z M 18.539062 20.332031 C 17.268249 22.618676 15.997376 24.907511 14.726562 27.1875 C 13.618999 29.179254 12.483388 31.165902 11.388672 33.167969 C 10.646128 33.300136 9.9032015 33.436018 9.1621094 33.566406 C 8.5878307 30.366347 8.0106461 27.163772 7.4394531 23.966797 C 7.363163 23.539572 7.2869796 23.112772 7.2109375 22.685547 C 7.2083225 22.617816 7.2023922 22.54792 7.203125 22.480469 C 7.2045539 22.475138 7.2075309 22.470167 7.2089844 22.464844 C 7.2158626 22.452339 7.2194745 22.438181 7.2265625 22.425781 C 7.2265625 22.425781 7.2285156 22.423828 7.2285156 22.423828 C 7.23106 22.4213 7.2337247 22.418544 7.2363281 22.416016 C 7.262884 22.402036 7.2900344 22.389715 7.3164062 22.375 C 8.0740959 22.151904 8.8966733 22.063563 9.6523438 21.921875 C 11.58601 21.575379 13.52 21.229307 15.464844 20.882812 C 16.48974 20.700785 17.514166 20.515869 18.539062 20.332031 z M 9.8632812 40.789062 L 15.396484 40.789062 L 25.042969 40.789062 L 36.8125 40.789062 L 49.701172 40.789062 L 62.710938 40.789062 L 74.894531 40.789062 L 85.099609 40.789062 L 92.509766 40.789062 C 92.595076 40.789062 92.680315 40.788955 92.765625 40.789062 L 92.765625 42.923828 L 92.765625 56.035156 L 92.765625 71.851562 L 92.765625 85.498047 C 92.765625 87.644083 92.787975 89.801231 92.765625 91.947266 C 92.765625 91.978482 92.760447 92.009799 92.759766 92.041016 C 92.746557 92.065793 92.733727 92.090184 92.720703 92.115234 C 92.719063 92.116803 92.711871 92.12602 92.710938 92.126953 C 92.708409 92.129482 92.705684 92.132267 92.703125 92.134766 C 92.676014 92.148601 92.649851 92.162635 92.623047 92.177734 C 91.91216 92.215207 91.189295 92.193359 90.486328 92.193359 L 84.529297 92.193359 L 75.621094 92.193359 L 64.710938 92.193359 L 52.806641 92.193359 L 40.736328 92.193359 L 29.492188 92.193359 L 20.046875 92.193359 L 13.261719 92.193359 C 12.211055 92.193359 11.160579 92.204539 10.121094 92.193359 C 10.078139 92.193359 10.035142 92.186689 9.9921875 92.185547 C 9.9707303 92.174113 9.9493929 92.163645 9.9277344 92.152344 C 9.9247981 92.149245 9.9116022 92.138165 9.9101562 92.136719 C 9.9053837 92.131946 9.9011558 92.125971 9.8964844 92.121094 C 9.8831441 92.095322 9.8699017 92.07042 9.8554688 92.044922 C 9.8362664 91.587483 9.8417969 91.128134 9.8417969 90.673828 L 9.8417969 86.75 L 9.8417969 73.751953 L 9.8417969 57.935547 L 9.8417969 44.1875 C 9.8417969 43.056896 9.8564641 41.92252 9.8632812 40.789062 z " /><rect
     style="font-variation-settings:normal;opacity:1;vector-effect:none;fill:#000000;fill-opacity:1;fill-rule:nonzero;stroke:none;stroke-width:6.4163;stroke-linecap:butt;stroke-linejoin:bevel;stroke-miterlimit:4;stroke-dasharray:none;stroke-dashoffset:0;stroke-opacity:1;-inkscape-stroke:none;paint-order:fill markers stroke;stop-color:#000000;stop-opacity:1"
     id="rect8"
     width="82.90234375"
     height="32.90820312"
     x="168.8632812"
     y="48.2890625" /><rect
     style="font-variation-settings:normal;opacity:1;vector-effect:none;fill:#000000;fill-opacity:1;fill-rule:nonzero;stroke:none;stroke-width:8.00704;stroke-linecap:butt;stroke-linejoin:bevel;stroke-miterlimit:4;stroke-dasharray:none;stroke-dashoffset:0;stroke-opacity:1;-inkscape-stroke:none;paint-order:fill markers stroke;stop-color:#000000;stop-opacity:1"
     id="rect9"
     width="82.89647675"
     height="51.25195312"
     x="168.8632812"
     y="48.2890625"
     ry="7.664999962" /><rect
     style="font-variation-settings:normal;vector-effect:none;fill:#000000;fill-opacity:1;fill-rule:nonzero;stroke:none;stroke-width:5.66183;stroke-linecap:butt;stroke-linejoin:bevel;stroke-miterlimit:4;stroke-dasharray:none;stroke-dashoffset:0;stroke-opacity:1;-inkscape-stroke:none;paint-order:fill markers stroke;stop-color:#000000"
     id="rect9-9"
     width="82.89647675"
     height="15.33069038"
     x="-53.88631439"
     y="142.1753845"
     ry="7.664999962" /><rect
     style="font-variation-settings:normal;vector-effect:none;fill:#000000;fill-opacity:1;fill-rule:nonzero;stroke:none;stroke-width:6.41629;stroke-linecap:butt;stroke-linejoin:bevel;stroke-miterlimit:4;stroke-dasharray:none;stroke-dashoffset:0;stroke-opacity:1;-inkscape-stroke:none;paint-order:fill markers stroke;stop-color:#000000"
     id="rect8-3"
     width="82.90233612"
     height="7.665350914"
     x="-53.89217377"
     y="149.8407288" /><path
     id="path2-8"
     style="fill:#ffffff;stroke-width:1;opacity:0.185840708"
     d="m 29.88611221,139.4265935 c -0.47639531,-0.07407 -0.95898073,-0.1051974 -1.4863549,-0.1073905 -0.51086292,7.185e-4 -1.00896648,0.003 -1.51982942,0.00372 -2.47532147,0.00617 -4.96293678,0.011043 -7.43825825,0.017215 l -11.786171813,0.031963 c -4.792657438,0.017502 -9.594861746,0.021839 -14.387519166,0.039341 -5.018629001,0.011706 -10.036520601,0.023509 -15.057090461,0.046222 -4.65668632,0.018778 -9.31153019,0.027067 -13.96821634,0.045844 -3.70100465,0.0057 -7.40405509,0.021422 -11.10505956,0.027117 -2.11143689,0.00224 -4.22448397,0.016975 -6.33592145,0.019212 -0.40791337,-0.00383 -0.81510511,-0.019231 -1.21977524,0.022911 -2.99844132,0.3338714 -5.31476802,2.5350382 -6.00716998,5.4319677 -0.19866479,0.8048477 -0.13617269,1.6676289 -0.13282135,2.4853976 0.0135395,4.2358238 0.0298973,8.4607017 0.0324293,12.6945846 0.001865,0.1724386 -0.001206,0.3480654 -7.1934e-4,0.5214693 l -0.73189981,4.1508101 -1.94268898,11.0175367 -2.46295525,13.9681134 -2.3486595,13.3199099 -1.59539264,9.0479212 -0.32219863,1.8272793 c -0.64371753,3.7794408 1.79412157,7.3304591 5.56904183,8.0641769 1.07484806,0.2122297 2.16805722,0.382287 3.24678806,0.5724964 l 8.3439383,1.4712614 11.80999873,2.0824214 13.8046195,2.4341269 14.18738669,2.5016191 13.0006165322,2.2923594 10.2250747378,1.8029566 5.90115222,1.0405323 0.82516155,0.1454983 c 3.80015235,0.5906224 7.30684296,-1.9232313 7.98552393,-5.7078565 0.34872894,-1.9133571 0.6753419,-3.8300542 1.01306069,-5.7453527 l 2.06715948,-11.723444 2.48635695,-14.1008309 2.2648878,-12.844817 1.42683182,-8.0919654 0.19772832,-1.121373 c 0.3047232,-1.7281712 -0.92151793,-3.6471849 -2.71831346,-3.8845604 -0.0244839,-0.0031 -0.0484132,-3.014e-4 -0.0728647,-0.00293 l -2.28506125,-0.4029179 -6.41663801,-1.1314264 -9.49993223,-1.6750944 -11.590726367,-2.0437578 -12.692863123,-2.2380942 -8.70362358,-1.5346837 c 1.95984417,-0.00518 3.91933661,-0.010671 5.87962103,-0.018355 1.07326242,-0.00175 2.14667786,-0.00458 3.22011931,-0.00735 0.16005738,0.016097 0.32155262,0.025733 0.487190821,0.026408 2.578270042,-0.010719 5.156079374,-0.00982 7.734349416,-0.020537 l 10.799464437,-0.03737 c 0.174493784,-5.346e-4 0.333829879,-0.016984 0.500194818,-0.024848 0.803558474,-0.00256 1.608068968,-0.00455 2.410931178,-0.00724 l 10.25480145,-0.030279 c 2.45330602,-0.010054 4.9175367,-0.018499 7.36890284,-0.017545 1.15769706,-1.615e-4 2.32248197,0.025118 3.48600179,-0.00807 0.0459722,-0.00325 0.10237545,-0.00575 0.14640522,0.00202 0.76079078,-0.00205 1.78180444,-0.5829594 2.23754926,-1.1722315 0.58586708,-0.7479229 0.78321438,-1.5417357 0.77919834,-2.4844693 -0.0115982,-4.246834 -0.0209516,-8.5033066 -0.0325495,-12.7501365 0.003801,-0.6008636 -0.004955,-1.1922026 -0.001155,-1.7930663 -1.3271e-4,-0.01452 -0.007416,-0.030408 -0.007926,-0.045029 -0.0860855,-2.5913738 -1.90868376,-5.1539984 -4.3712682,-6.0164823 -0.50279312,-0.1737792 -0.97446937,-0.2908352 -1.45086371,-0.3649054 z m -1.02470693,6.609982 c 0.0157953,0.00279 0.0319783,0.00743 0.0477476,0.010399 0.006862,0.0032 0.0129614,0.00817 0.0198014,0.011422 0.009067,0.00734 0.0190902,0.013348 0.028062,0.020814 0.001289,0.00184 0.001544,0.00459 0.002829,0.00645 0.0103398,0.032487 0.0211745,0.064539 0.0324859,0.096958 0.010514,0.1040883 0.0349004,0.197934 0.0391888,0.3063815 0.009917,3.6309572 0.0175836,7.2694718 0.0270886,10.9027631 -1.96469567,0.0035 -3.9246825,0.012956 -5.89082286,0.014397 -2.27972694,0.00859 -4.56291754,0.012592 -6.84517114,0.016681 1.64730246,-2.0296569 3.2959303,-4.0607435 4.94207852,-6.0838544 1.43730381,-1.7700326 2.88882809,-3.535334 4.32284822,-5.3164419 l 0.21225298,-2.556e-4 c 0.9578555,-0.00243 1.90747385,-0.006 2.86338434,-0.00877 0.0657965,0.00836 0.13344084,0.011629 0.1982274,0.023053 z m -11.93789714,0.015126 c -0.15232962,0.186546 -0.30329222,0.3738797 -0.45576863,0.5602275 -2.63803518,3.2461929 -5.27689137,6.5040851 -7.914926541,9.750278 -0.291975513,0.3573764 -0.581311565,0.7189833 -0.872284021,1.0777946 -1.767353108,0.00471 -3.530943869,0.00617 -5.301582184,0.013183 -1.8614723549,0.00301 -3.723468114,0.00878 -5.585453426,0.014695 0.15932465,-0.1951311 0.316758291,-0.3914526 0.476243665,-0.5863664 2.638036159,-3.2461928 5.278814691,-6.503746 7.916849865,-9.7499389 0.285239352,-0.3491308 0.565921388,-0.7034498 0.850224835,-1.0539184 1.140575567,-0.00298 2.280757017,-0.00658 3.422754646,-0.0093 2.491091421,-0.00542 4.978147511,-0.010298 7.463941791,-0.016653 z m -19.5297987,0.048881 c -1.649936479,2.0329049 -3.300764898,4.0661116 -4.949544186,6.0924537 -1.436731977,1.7693292 -2.900155604,3.5301939 -4.326017614,5.3119169 -3.83839945,0.00736 -7.67771786,0.022725 -11.51610237,0.030003 1.64718303,-2.0295094 3.29570943,-4.0589668 4.94173921,-6.0819301 1.43733092,-1.7700654 2.88721777,-3.5375635 4.32126405,-5.3187045 0.0940503,-3.253e-4 0.18754438,4.08e-4 0.28160843,7.39e-5 3.75305023,-0.014385 7.495555565,-0.020514 11.24705248,-0.033812 z m -20.19043084,0.061307 c -0.15268875,0.1869876 -0.30327131,0.3753621 -0.45610763,0.56215 -2.63803633,3.2461938 -5.27689136,6.5040851 -7.91492671,9.7502791 -0.2919765,0.3573762 -0.58131157,0.7189833 -0.87228385,1.0777936 -1.76735427,0.00471 -3.53094404,0.00617 -5.30158236,0.013184 -1.86147235,0.00301 -3.72346794,0.00878 -5.58545423,0.014694 0.15932546,-0.1951299 0.31675927,-0.3914524 0.47624447,-0.5863652 2.63803634,-3.2461938 5.27881371,-6.5037462 7.91684906,-9.7499401 0.28396085,-0.347564 0.56424779,-0.699602 0.84728392,-1.0484866 2.6443678,-0.00606 5.2909693,-0.011031 7.93347839,-0.025091 0.98481685,-0.004 1.97169279,-0.00527 2.95649894,-0.00822 z m -19.53500292,0.055897 c -1.64857823,2.0312314 -3.29759584,4.0646091 -4.94501926,6.0892854 -1.43660108,1.7691684 -2.8999374,3.528438 -4.32567749,5.3099937 -0.75421365,0.00122 -1.50944909,0.00603 -2.26192397,0.00575 -0.00987,-3.2511654 -0.0221643,-6.5053131 -0.0295307,-9.7529055 -9.4424e-4,-0.4339821 -0.001857,-0.8675272 -0.002557,-1.3014663 0.009186,-0.067156 0.0154835,-0.1370199 0.0279171,-0.2033191 0.002333,-0.005 0.006128,-0.00938 0.008483,-0.01437 0.008945,-0.011121 0.0149607,-0.024436 0.0240943,-0.035417 0,0 0.002262,-0.00158 0.002262,-0.00158 0.002945,-0.00205 0.006047,-0.0043 0.009051,-0.00633 0.0285801,-0.00916 0.0574575,-0.016575 0.0859839,-0.026487 0.7849189,-0.088135 1.61033976,-0.032295 2.37913379,-0.04061 1.96445786,-0.00545 3.92916098,-0.010435 5.90462665,-0.013947 1.04093419,-0.00129 2.08190718,-0.00551 3.12315584,-0.00858 z m -12.09630235,18.6397092 5.44914102,0.9608306 9.49993322,1.6750945 11.59072537,2.0437577 12.69286412,2.2380944 12.812118418,2.2591221 11.998496846,2.1156587 10.050039936,1.7720932 7.29758006,1.2867603 c 0.084014,0.014814 0.16797656,0.02951 0.25197193,0.04443 l -0.37069823,2.1023341 -2.27675821,12.9121374 -2.74649008,15.5761193 -2.36968725,13.4391642 c -0.37265524,2.1134329 -0.72522961,4.24169 -1.11989513,6.3512409 -0.005421,0.030742 -0.0159581,0.060684 -0.0220495,0.091308 -0.0173108,0.022107 -0.0341814,0.043899 -0.0513574,0.066307 -0.001888,0.00126 -0.0105708,0.00909 -0.0116516,0.00985 -0.00293,0.00205 -0.006096,0.00432 -0.00905,0.00633 -0.0291016,0.00892 -0.057304,0.018195 -0.0863227,0.02841 -0.70659415,-0.086541 -1.41468334,-0.2335808 -2.10697069,-0.3556498 l -5.86653032,-1.0344275 -8.772867378,-1.5468932 -10.744406215,-1.8945288 -11.723443977,-2.0671594 -11.88693783,-2.0959879 -11.07331624,-1.9525244 -9.30181748,-1.6401614 -6.68207423,-1.17823 c -1.03470205,-0.1824459 -2.07116035,-0.353849 -3.09291185,-0.5453638 -0.0423024,-0.00746 -0.083488,-0.021494 -0.12559193,-0.030076 -0.0191457,-0.014986 -0.0383412,-0.029 -0.0577083,-0.043891 -0.002353,-0.00356 -0.013425,-0.016765 -0.0145979,-0.01844 -0.003871,-0.00553 -0.006997,-0.012147 -0.0107508,-0.017762 -0.008662,-0.027697 -0.0173794,-0.05452 -0.0271653,-0.082137 0.0605228,-0.4538239 0.14573437,-0.905234 0.22462378,-1.3526381 l 0.68136558,-3.8642162 2.25708718,-12.8005775 2.74649008,-15.5761192 2.38732331,-13.5391833 c 0.19632732,-1.1134276 0.40775402,-2.2280229 0.61129029,-3.3430764 z" /><path
     style="opacity:0.640961;fill:#1a1a1a;fill-opacity:0.644118;stroke:#ff0000;stroke-width:7;stroke-miterlimit:300;stroke-dasharray:none;paint-order:fill markers stroke"
     d="M -49.83024083,161.2383696 -18.9564389,123.1123994"
     id="path9" /><path
     style="opacity:0.640961;fill:#1a1a1a;fill-opacity:0.644118;stroke:#ff0000;stroke-width:7;stroke-miterlimit:300;stroke-dasharray:none;paint-order:fill markers stroke"
     d="M -29.73186509,161.2383696 1.141936827,123.1123994"
     id="path10" /><path
     style="opacity:0.640961;fill:#1a1a1a;fill-opacity:0.644118;stroke:#ff0000;stroke-width:7;stroke-miterlimit:300;stroke-dasharray:none;paint-order:fill markers stroke"
     d="M -9.633489367,161.2383696 21.24031256,123.1123994"
     id="path11" /><path
     style="opacity:0.640961;fill:#1a1a1a;fill-opacity:0.644118;stroke:#ff0000;stroke-width:7;stroke-miterlimit:300;stroke-dasharray:none;paint-order:fill markers stroke"
     d="M 10.46488636,161.2383696 41.33868829,123.1123994"
     id="path12" /><path
     style="opacity:0.640961;fill:#1a1a1a;fill-opacity:0.644118;stroke:#ff0000;stroke-width:7;stroke-miterlimit:300;stroke-dasharray:none;paint-order:fill markers stroke"
     d="M 30.56326209,161.2383696 61.43706403,123.1123994"
     id="path14" /><path
     style="opacity:0.640961;fill:#1a1a1a;fill-opacity:0.644118;stroke:#ff0000;stroke-width:7;stroke-miterlimit:300;stroke-dasharray:none;paint-order:fill markers stroke"
     d="m -69.92861656,161.2383696 30.87380193,-38.1259702"
     id="path15" /><path
     id="rect22"
     style="font-variation-settings:normal;vector-effect:none;fill:#000000;fill-opacity:1;fill-rule:nonzero;stroke:none;stroke-width:5.66183;stroke-linecap:butt;stroke-linejoin:bevel;stroke-miterlimit:4;stroke-dasharray:none;stroke-dashoffset:0;stroke-opacity:1;-inkscape-stroke:none;paint-order:fill markers stroke;stop-color:#000000"
     d="M 139.0410156 142.1757812 C 134.7946142 142.1757812 131.375 145.5934422 131.375 149.8398438 L 131.3691406 149.8398438 L 131.3691406 157.5058594 L 133.9492188 157.5058594 L 146.3652344 142.1757812 L 139.0410156 142.1757812 z M 155.3710938 142.1757812 L 142.9589844 157.5058594 L 154.0488281 157.5058594 L 166.4628906 142.1757812 L 155.3710938 142.1757812 z M 175.46875 142.1757812 L 163.0566406 157.5058594 L 174.1464844 157.5058594 L 186.5625 142.1757812 L 175.46875 142.1757812 z M 195.5683594 142.1757812 L 183.1542969 157.5058594 L 194.2460938 157.5058594 L 206.6582031 142.1777344 C 206.6410748 142.177623 206.6245774 142.1757812 206.6074219 142.1757812 L 195.5683594 142.1757812 z M 212.9511719 145.5292969 L 203.2539062 157.5058594 L 206.6074219 157.5058594 L 214.2714844 157.5058594 L 214.2714844 149.8417969 L 214.2714844 149.8398438 C 214.2714844 148.2384373 213.7844362 146.7561202 212.9511719 145.5292969 z " /><path
     id="rect22-7"
     style="font-variation-settings:normal;vector-effect:none;fill:#000000;fill-opacity:1;fill-rule:nonzero;stroke:none;stroke-width:5.66183;stroke-linecap:butt;stroke-linejoin:bevel;stroke-miterlimit:4;stroke-dasharray:none;stroke-dashoffset:0;stroke-opacity:1;-inkscape-stroke:none;paint-order:fill markers stroke;stop-color:#000000"
     d="m 173.7565627,22.29717498 c -4.181889,0.73737987 -6.9560809,4.69692869 -6.218701,8.87881791 l -0.00577,0.001018 1.3311896,7.5495516 2.540881,-0.44802588 9.5653483,-17.25319835 z m 16.0819877,-2.83568832 -9.5615015,17.25252005 10.9213641,-1.92573115 9.5634248,-17.2528592 z m 19.7923276,-3.48992137 -9.5615014,17.25252004 10.9213641,-1.92573116 9.5653483,-17.25319835 z m 19.7942512,-3.49026054 -9.5634249,17.25285919 10.9232876,-1.92607032 9.5618405,-17.2505965 c -0.016887,0.002865 -0.033454,0.003919 -0.050348,0.006898 z m 17.7010604,0.28407454 -7.4702342,13.47852412 3.3025683,-0.58233189 7.547628,-1.33085048 -1.3308504,-7.54762817 -3.386e-4,-0.00192 c -0.2780813,-1.57707753 -1.0151318,-2.95229987 -2.0487726,-4.01579014 z" /></svg>
