<?xml version="1.0" encoding="UTF-8" standalone="no"?>
<svg
   version="1.1"
   x="0px"
   y="0px"
   viewBox="0 0 100 100"
   xml:space="preserve"
   id="svg38"
   sodipodi:docname="clapper4.svg"
   width="100"
   height="100"
   inkscape:version="1.3.1 (91b66b0783, 2023-11-16)"
   xmlns:inkscape="http://www.inkscape.org/namespaces/inkscape"
   xmlns:sodipodi="http://sodipodi.sourceforge.net/DTD/sodipodi-0.dtd"
   xmlns="http://www.w3.org/2000/svg"
   xmlns:svg="http://www.w3.org/2000/svg"
   xmlns:rdf="http://www.w3.org/1999/02/22-rdf-syntax-ns#"
   xmlns:cc="http://creativecommons.org/ns#"
   xmlns:dc="http://purl.org/dc/elements/1.1/"><metadata
     id="metadata44"><rdf:RDF><cc:Work
         rdf:about=""><dc:format>image/svg+xml</dc:format><dc:type
           rdf:resource="http://purl.org/dc/dcmitype/StillImage" /></cc:Work></rdf:RDF></metadata><defs
     id="defs42" /><sodipodi:namedview
     pagecolor="#000000"
     bordercolor="#666666"
     borderopacity="1"
     objecttolerance="10"
     gridtolerance="10"
     guidetolerance="10"
     inkscape:pageopacity="0"
     inkscape:pageshadow="2"
     inkscape:window-width="1727"
     inkscape:window-height="1057"
     id="namedview40"
     showgrid="false"
     inkscape:zoom="1.414213563"
     inkscape:cx="154.856385"
     inkscape:cy="41.71930006"
     inkscape:window-x="-8"
     inkscape:window-y="-8"
     inkscape:window-maximized="1"
     inkscape:current-layer="svg38"
     inkscape:document-rotation="0"
     inkscape:showpageshadow="2"
     inkscape:pagecheckerboard="0"
     inkscape:deskcolor="#d1d1d1" /><rect
     width="100%"
     height="100%"
     x="0"
     y="0"
     fill="black"
     id="rect1" /><path
     id="rect22-7"
     style="font-variation-settings:normal;vector-effect:none;fill:#ffffff;fill-opacity:1;fill-rule:nonzero;stroke:none;stroke-width:6.21562;stroke-linecap:butt;stroke-linejoin:bevel;stroke-miterlimit:4;stroke-dasharray:none;stroke-dashoffset:0;stroke-opacity:1;-inkscape-stroke:none;paint-order:fill markers stroke;stop-color:#000000"
     d="M 9.869567995,15.89855221 C 5.27864479,16.70805585 2.233106764,21.05489159 3.042610434,25.64581504 l -0.0063344,0.001118 1.461394414,8.28797982 2.789406784,-0.49184769 10.500943348,-18.9407487 z M 27.52454891,12.78550275 17.02782863,31.72550681 29.01742086,29.61141822 39.51625257,10.67104184 Z M 49.25278132,8.954229131 38.75606114,27.89423318 50.74565337,25.78014458 61.24659672,6.839395873 Z M 70.98312546,5.122583168 60.48429365,24.06295954 72.47599752,21.94849861 82.97308997,3.010606238 c -0.0185387,0.0031452 -0.0367262,0.0043023 -0.0552726,0.0075727 z M 90.415542,5.434443286 82.21463769,20.23131359 85.84023307,19.59202331 94.12610114,18.13100119 92.6650791,9.84513293 92.66470738,9.84302513 C 92.35942671,8.111692277 91.55028466,6.601958242 90.41554255,5.434447062 Z" /><path
     id="path5"
     style="color:#000000;fill:#ffffff;stroke-linejoin:bevel;-inkscape-stroke:none;paint-order:fill markers stroke"
     d="m 4.498046875,39.38671875 v 47.8496094 c 0,4.6617459 3.75231664,8.4160156 8.414062545,8.4160156 h 74.1757812 c 4.6617459,0 8.4140625,-3.7542697 8.4140625,-8.4160156 l 0.00586,-47.8496094 z m 8.414062545,8.4140625 h 74.17968749 l -0.00391,39.4335938 v 0.00195 0.00195 l -74.1757775,-9.75e-4 z"
     sodipodi:nodetypes="cssscccccccccc" /></svg>
