<?xml version="1.0" standalone="no"?>
<!DOCTYPE svg PUBLIC "-//W3C//DTD SVG 20010904//EN"
 "http://www.w3.org/TR/2001/REC-SVG-20010904/DTD/svg10.dtd">
<svg   version="1.0"
   xmlns:inkscape="http://www.inkscape.org/namespaces/inkscape"
   xmlns:sodipodi="http://sodipodi.sourceforge.net/DTD/sodipodi-0.dtd"
   xmlns="http://www.w3.org/2000/svg"
   xmlns:svg="http://www.w3.org/2000/svg"
   xmlns:rdf="http://www.w3.org/1999/02/22-rdf-syntax-ns#"
   xmlns:cc="http://creativecommons.org/ns#"
   xmlns:dc="http://purl.org/dc/elements/1.1/"

 width="2384.000000pt" height="2613.000000pt" viewBox="0 0 2384.000000 2613.000000"
 preserveAspectRatio="xMidYMid meet">
<metadata>
Created by potrace 1.16, written by Peter Selinger 2001-2019
</metadata>  <sodipodi:namedview
     pagecolor="#222"
     bordercolor="#666666"
     inkscape:deskcolor="#444" /><rect width="100%" height="100%" x="0" y="0" fill="black" />
<g transform="translate(0.000000,2613.000000) scale(1.000000,-1.000000)"
fill="#ffffff" stroke="none">
<path d="M593 2601 c0 -1 -1 -96 -1 -213 l0 -211 -48 -1 c-27 0 -50 0 -51 -1
l-2 0 0 -43 c0 -40 0 -44 2 -44 1 -1 52 -1 113 -1 62 0 112 0 112 -1 -1 0 -6
-4 -11 -8 -6 -5 -18 -14 -28 -21 -15 -13 -40 -32 -62 -48 -10 -8 -18 -15 -18
-16 0 -1 2 -4 5 -8 l5 -6 -2 -3 c-1 -1 -3 -2 -3 -2 -1 0 -21 -11 -42 -23 -14
-9 -61 -35 -78 -45 -4 -2 -35 -20 -48 -27 -3 -2 -10 -6 -14 -9 -5 -2 -15 -8
-22 -11 -7 -4 -16 -10 -20 -12 -5 -2 -16 -9 -25 -14 -15 -8 -31 -17 -47 -27
-3 -1 -14 -7 -26 -14 l-21 -13 0 -8 c0 -4 1 -15 2 -23 6 -45 7 -56 8 -68 2
-18 6 -53 9 -70 0 -7 2 -23 3 -35 3 -22 4 -28 7 -52 1 -15 3 -33 5 -51 1 -8 2
-18 3 -21 2 -13 3 -23 4 -34 1 -13 7 -58 8 -68 0 -4 1 -10 2 -15 1 -5 1 -11 2
-14 0 -4 1 -9 1 -13 1 -4 2 -12 3 -18 1 -13 4 -37 7 -62 1 -10 2 -21 3 -25 1
-5 2 -15 2 -22 2 -18 8 -61 8 -63 1 -1 -1 -2 -6 -3 -3 -1 -11 -2 -17 -3 -38
-9 -56 -12 -60 -13 -2 -1 -16 -3 -29 -6 -13 -3 -27 -5 -30 -6 -3 0 -8 -2 -11
-2 -7 -2 -19 -4 -27 -6 -3 0 -12 -2 -19 -4 -23 -5 -65 -13 -66 -13 0 0 -1 4
-1 9 0 14 -1 16 -4 16 -4 0 -52 -8 -55 -9 -2 -1 -2 -1 -1 -8 1 -17 5 -63 6
-76 3 -21 5 -44 6 -58 1 -8 2 -25 4 -38 1 -13 2 -30 3 -36 1 -15 2 -22 3 -34
0 -5 1 -14 2 -18 1 -16 3 -27 6 -33 4 -8 11 -21 17 -29 6 -12 10 -18 23 -42 7
-12 18 -32 26 -45 8 -13 15 -25 16 -27 1 -2 3 -7 6 -10 2 -4 10 -18 18 -31 7
-14 15 -28 18 -32 3 -5 8 -14 11 -20 12 -21 41 -71 53 -91 11 -19 21 -37 28
-48 1 -3 4 -9 7 -13 2 -5 6 -11 7 -14 2 -4 3 -5 5 -5 1 1 13 5 26 9 13 5 27 9
29 10 2 0 7 2 10 3 3 0 16 5 30 9 13 4 28 9 34 11 13 4 55 18 86 28 42 13 48
15 50 14 0 -1 1 -2 1 -2 0 -1 2 -4 18 -33 5 -10 13 -24 17 -31 10 -18 15 -28
28 -50 6 -11 13 -25 17 -31 12 -23 18 -35 20 -37 1 -2 2 -3 2 -3 0 -1 10 -19
23 -42 1 -2 6 -11 11 -20 4 -9 11 -20 13 -24 6 -10 10 -18 17 -31 6 -11 6 -12
24 -43 7 -14 15 -28 17 -32 2 -4 4 -7 4 -8 1 -1 2 -3 3 -4 5 -9 7 -13 8 -14 0
-1 3 -5 5 -9 2 -5 5 -9 5 -9 1 -1 24 -1 51 -1 44 0 49 0 51 -2 2 -1 6 -4 10
-6 l7 -5 297 0 297 0 10 7 11 6 48 0 c45 0 49 0 51 2 1 1 5 8 9 15 4 7 11 19
15 27 4 7 10 18 14 25 4 7 9 15 10 17 4 6 26 44 33 57 2 5 5 10 6 12 2 4 12
21 15 26 1 1 2 4 4 7 1 3 7 13 12 22 14 24 23 40 37 65 5 8 11 19 14 24 5 8
10 18 29 53 13 23 36 62 39 67 1 3 3 4 4 4 1 -1 4 -2 8 -3 13 -4 59 -18 78
-25 11 -3 31 -10 46 -14 15 -4 32 -10 38 -12 6 -2 21 -7 32 -10 11 -3 28 -9
38 -12 11 -3 21 -6 24 -6 l4 0 4 6 c2 3 5 9 7 13 8 15 34 62 35 63 0 0 2 3 4
7 2 4 8 14 13 23 5 9 13 23 18 32 4 9 9 16 9 17 0 0 3 5 7 12 3 6 10 18 15 27
11 19 10 17 26 47 15 27 28 49 35 62 3 6 6 10 6 11 0 0 3 5 6 11 4 6 9 15 11
20 2 4 5 9 6 11 2 3 4 7 12 21 3 6 6 11 7 12 5 9 7 15 8 24 1 11 6 72 8 100 1
11 3 27 3 36 1 8 3 26 4 40 3 39 5 59 7 75 0 8 1 20 2 26 l0 12 -3 0 c-7 2
-52 9 -54 9 -3 0 -4 -1 -5 -18 l0 -12 -4 0 c-2 0 -8 0 -14 1 -7 1 -18 1 -25 2
-8 1 -19 1 -25 2 -6 1 -16 1 -23 2 -7 0 -21 2 -30 2 -10 1 -23 2 -27 2 -10 1
-24 2 -49 5 -9 0 -26 2 -37 3 -30 2 -36 2 -35 4 0 3 4 42 8 78 1 12 3 32 4 45
2 20 3 28 7 67 0 8 1 20 2 26 1 6 2 18 3 26 0 8 2 28 4 45 2 17 4 37 5 45 0 7
2 21 3 31 0 9 1 21 2 27 1 9 3 31 6 66 1 9 3 22 3 31 1 8 3 21 3 29 1 8 3 24
4 35 1 11 3 27 3 36 2 15 7 67 9 88 1 5 1 13 2 18 l0 9 -3 2 c-2 1 -6 3 -9 5
-3 2 -11 6 -18 10 -7 4 -15 8 -18 10 -4 2 -9 5 -12 7 -4 2 -10 5 -14 7 -12 7
-39 22 -43 24 -4 3 -31 18 -41 24 -4 2 -11 6 -15 9 -5 3 -9 5 -10 5 0 0 -4 2
-30 17 -4 2 -12 7 -18 10 -7 4 -14 7 -16 9 -2 1 -13 7 -22 12 -24 14 -49 28
-56 32 -10 5 -30 17 -33 19 0 0 1 3 3 6 2 4 4 8 4 9 0 2 -18 17 -39 33 -3 3
-8 6 -11 9 -3 3 -10 8 -15 12 -5 3 -16 12 -25 20 l-16 13 4 0 c2 1 52 1 112 1
100 0 109 0 109 2 1 2 0 84 -1 85 0 0 -22 1 -48 1 l-48 1 -1 211 c0 155 0 211
-1 212 -1 2 -69 1 -70 -1 -1 -2 -2 -152 -2 -259 l0 -92 -51 -1 c-28 0 -51 -1
-51 -1 -1 0 -15 -15 -33 -32 l-32 -32 -41 0 c-27 0 -43 0 -45 -1 -1 -1 -8 -6
-14 -13 l-12 -12 -209 0 c-115 0 -223 0 -240 0 l-32 1 -12 12 -12 12 -15 0
c-8 1 -27 1 -43 1 -17 0 -29 0 -30 1 -1 0 -6 5 -12 10 -5 5 -12 12 -16 15 -3
2 -9 8 -12 11 -4 4 -10 9 -13 12 -4 3 -8 7 -9 8 -6 6 -3 6 -58 6 l-50 0 0 178
c1 158 1 179 -1 179 -3 2 -67 1 -68 0z m54 -15 c0 -1 0 -82 0 -83 -2 -2 -1
-273 1 -274 0 0 25 0 55 0 l54 0 2 -3 c1 -1 4 -3 5 -5 2 -1 11 -9 19 -16 20
-20 41 -38 44 -40 1 -1 14 -1 44 -1 l42 0 6 -6 c4 -3 6 -6 5 -6 -1 0 -68 0
-149 0 -82 0 -150 0 -151 -1 l-3 0 0 -16 c0 -13 0 -17 1 -18 1 -1 39 -1 154
-1 84 0 153 0 153 0 -1 -2 -18 -17 -19 -17 -1 0 -18 0 -38 0 l-37 0 -5 -4 c-3
-2 -8 -6 -12 -8 -6 -6 -20 -17 -40 -34 -7 -6 -17 -14 -22 -18 -6 -5 -15 -12
-20 -16 -20 -17 -24 -20 -25 -20 -2 -1 1 -6 19 -38 8 -13 18 -31 23 -39 5 -9
11 -21 14 -26 3 -5 10 -17 15 -25 5 -9 12 -22 16 -28 7 -12 10 -18 10 -20 0 0
-5 -4 -11 -8 -6 -3 -14 -9 -18 -11 -5 -3 -10 -6 -11 -7 -1 -1 -8 -5 -16 -10
-7 -4 -13 -8 -14 -8 0 0 -2 2 -3 5 -2 3 -5 8 -7 11 -4 6 -28 46 -38 65 -9 14
-23 37 -30 50 -3 5 -6 10 -6 11 -1 1 -2 2 -3 2 -2 0 -23 -11 -36 -20 -2 -1 -6
-3 -9 -5 -3 -1 -13 -7 -22 -12 -9 -5 -31 -18 -49 -29 -19 -10 -36 -20 -39 -22
-11 -7 -27 -16 -84 -48 -22 -13 -45 -26 -51 -29 -6 -4 -14 -9 -18 -11 -5 -2
-8 -5 -8 -5 0 -3 2 -22 3 -27 1 -2 1 -9 2 -15 1 -5 2 -19 3 -31 2 -12 4 -27 4
-34 2 -13 5 -42 8 -65 1 -7 3 -18 3 -25 1 -8 3 -20 4 -29 3 -22 5 -38 5 -43 1
-3 2 -13 3 -22 1 -10 3 -23 4 -30 2 -21 6 -53 9 -79 2 -13 3 -28 4 -32 1 -5 2
-14 2 -20 1 -7 3 -22 5 -34 1 -13 2 -26 3 -30 3 -26 5 -39 6 -46 1 -5 2 -13 3
-19 0 -7 2 -18 3 -25 3 -32 4 -40 5 -42 0 -1 1 -9 2 -17 0 -9 3 -30 5 -48 2
-18 4 -35 5 -37 0 -3 1 -12 2 -20 1 -8 3 -21 4 -28 0 -7 2 -19 2 -25 1 -6 3
-20 4 -30 3 -24 3 -23 5 -23 2 0 11 3 22 7 10 3 26 9 36 12 9 3 18 5 20 6 10
4 74 25 75 25 0 0 3 -6 6 -14 3 -7 8 -20 11 -27 5 -15 12 -33 12 -34 0 -1 -10
-4 -22 -8 -28 -9 -53 -17 -62 -21 -4 -1 -13 -4 -20 -6 -7 -2 -34 -11 -60 -20
-26 -8 -47 -15 -48 -15 -2 0 -5 7 -13 31 -2 4 -4 9 -4 11 -3 5 -11 26 -13 32
-1 3 -2 9 -2 13 -1 3 -2 11 -3 16 0 5 -1 13 -1 17 -1 8 -8 66 -9 71 0 4 -5 46
-7 67 -2 16 -4 30 -6 44 -2 19 -2 28 -1 31 1 3 1 2 -5 58 -2 12 -6 48 -8 62
-2 17 -4 32 -6 50 -2 19 -7 60 -12 103 -1 7 -2 16 -3 21 -1 4 -2 13 -2 19 -2
16 -4 29 -5 40 -1 4 -1 12 -2 16 -1 4 -3 22 -5 39 -1 17 -4 40 -6 51 -2 19 -5
47 -7 65 -1 5 -2 17 -3 27 -2 10 -3 23 -4 30 -1 7 -2 17 -3 23 0 6 -2 17 -2
26 -1 9 -3 18 -3 22 -1 3 -1 8 -1 10 l0 5 14 8 c7 4 21 12 31 17 9 5 18 11 20
12 2 1 7 3 11 6 3 2 8 4 9 5 2 1 11 6 22 12 30 17 41 24 56 32 7 4 17 10 22
13 13 7 21 11 34 19 6 4 14 8 18 10 6 4 33 19 35 20 1 1 18 10 27 15 24 13 53
31 54 32 1 1 0 4 -4 9 -2 3 -4 7 -5 8 -1 2 1 3 43 35 19 15 40 31 46 36 7 5
18 14 26 20 22 17 26 20 25 22 0 1 -48 1 -118 1 -65 0 -122 0 -127 0 l-9 0 0
29 0 29 108 -1 c60 0 115 0 123 0 17 1 17 1 11 10 -10 13 -10 14 -13 14 -2 0
-31 1 -65 0 l-62 0 0 5 c-1 8 -2 314 -1 314 1 0 1 18 0 41 0 22 0 41 1 42 0 1
5 1 19 1 10 -1 19 -1 19 -1z m1114 -195 c0 -107 0 -197 0 -200 l0 -7 -65 0
-64 0 -10 -10 c-6 -6 -10 -11 -10 -12 0 -2 1 -2 6 -2 18 1 241 -1 241 -2 0 0
1 -13 1 -28 l0 -27 -127 0 c-69 0 -126 0 -126 -1 -1 -1 9 -10 27 -24 23 -18
29 -23 69 -55 l34 -27 -3 -6 c-2 -3 -4 -6 -5 -7 -2 -4 -1 -6 2 -8 2 -1 5 -3 6
-3 4 -3 39 -23 47 -27 4 -2 15 -8 25 -14 23 -13 50 -28 57 -32 6 -3 6 -3 25
-14 6 -3 17 -10 25 -14 7 -3 28 -15 46 -26 34 -20 49 -28 75 -42 7 -4 21 -12
31 -18 10 -5 19 -10 20 -11 3 -1 3 -2 3 -4 -1 -2 -1 -6 -1 -9 -1 -4 -3 -24 -5
-46 -2 -22 -5 -54 -7 -72 -4 -40 -7 -69 -9 -87 -4 -47 -6 -65 -8 -84 -1 -13
-3 -31 -4 -42 -2 -22 -5 -56 -7 -73 -1 -6 -2 -18 -3 -26 0 -9 -2 -22 -3 -31 0
-9 -1 -19 -2 -24 -1 -5 -2 -18 -3 -29 -3 -32 -4 -42 -5 -51 -1 -10 -2 -22 -5
-53 -1 -12 -3 -28 -4 -35 0 -8 -1 -17 -2 -21 0 -4 -1 -11 -1 -14 -1 -7 -1 -7
1 -9 2 -2 2 -2 0 -15 0 -7 -1 -18 -2 -24 -1 -6 -2 -16 -2 -23 -1 -7 -3 -19 -3
-27 -1 -8 -3 -22 -4 -32 -4 -33 -5 -47 -6 -59 -3 -36 -3 -35 -15 -66 -6 -16
-12 -33 -14 -38 -2 -6 -4 -10 -4 -10 -1 0 -7 2 -13 4 -6 2 -15 5 -19 6 -4 1
-15 5 -23 8 -9 3 -25 8 -36 12 -11 3 -30 9 -42 13 -38 13 -41 14 -60 20 -10 3
-18 6 -19 7 0 2 3 11 12 35 4 10 9 23 11 28 1 6 3 11 4 11 1 1 29 -8 73 -23
81 -27 82 -27 83 -26 0 1 2 18 7 60 1 18 3 37 4 41 1 7 4 34 6 57 1 6 1 12 2
14 0 3 3 32 6 56 0 8 1 18 2 23 1 5 2 21 4 36 1 14 3 31 3 38 1 6 2 15 3 22 1
6 1 14 2 19 1 9 5 46 8 75 4 43 10 99 12 117 1 4 2 14 2 22 1 8 3 21 3 29 4
28 7 63 9 78 1 16 3 38 7 76 2 12 4 35 6 50 2 15 3 32 4 39 1 6 1 14 2 19 l0
8 -5 2 c-2 2 -6 4 -8 5 -1 1 -5 3 -9 5 -3 2 -9 5 -13 8 -5 3 -13 7 -18 10 -6
3 -12 6 -14 8 -2 1 -11 6 -20 11 -8 5 -27 16 -42 24 -15 8 -34 20 -43 25 -10
5 -20 11 -24 13 -4 2 -29 17 -57 33 -28 15 -56 31 -62 35 -11 7 -14 8 -14 6 0
0 -1 -3 -3 -5 -4 -6 -19 -32 -22 -38 -1 -2 -3 -5 -4 -6 0 -1 -3 -6 -6 -11 -3
-5 -9 -16 -14 -23 -4 -7 -14 -24 -22 -37 -8 -13 -15 -24 -16 -24 0 0 -4 2 -9
5 -4 2 -7 4 -8 4 0 0 -5 3 -11 6 -6 4 -15 8 -19 10 -4 3 -8 5 -8 5 -1 0 -4 2
-7 4 -4 2 -7 3 -7 4 0 0 17 33 26 48 2 4 6 11 8 16 2 5 5 10 6 11 1 1 3 6 6
10 2 4 5 10 7 14 4 7 6 10 17 32 13 23 15 28 21 37 3 5 5 10 5 11 0 1 -3 4 -7
8 -14 12 -31 25 -44 36 -7 6 -17 14 -21 18 -25 22 -37 32 -39 33 -2 1 -14 1
-43 1 -38 0 -42 0 -42 1 -1 1 -4 5 -7 9 -3 4 -5 7 -5 8 0 0 69 0 154 0 84 0
153 0 154 0 0 1 0 34 0 35 -1 0 -241 0 -286 0 -9 0 -17 0 -17 0 0 0 3 3 7 7
l6 7 44 0 43 0 33 33 32 32 55 0 c52 0 56 0 56 2 1 1 1 62 0 136 0 74 0 135 1
135 0 0 0 18 0 40 l0 41 20 0 21 0 -1 -193z m-875 -257 l0 -11 -129 0 -128 1
-1 9 c0 5 0 10 0 11 1 1 21 1 129 1 l129 0 0 -11z m855 0 l0 -10 -133 -1 c-73
0 -133 0 -133 0 0 0 0 5 0 11 l0 10 71 0 c39 0 98 1 133 1 l62 0 0 -11z m-806
8 l4 -2 118 -1 c64 0 118 0 119 -1 1 0 1 -2 1 -7 l0 -7 -143 0 c-78 0 -143 0
-143 1 -1 0 -1 17 0 18 0 1 8 1 20 1 20 0 21 0 24 -2z m535 1 c0 0 0 -5 0 -10
l0 -10 -139 0 c-76 0 -141 0 -143 1 l-5 0 0 7 1 8 123 0 c114 0 125 0 126 2 0
0 2 2 4 2 4 1 33 1 33 0z m-42 -24 c0 -1 1 -2 1 -2 0 -1 6 -9 12 -17 3 -3 3
-6 1 -4 -1 0 -118 0 -261 1 -143 0 -260 0 -260 1 0 0 5 5 11 11 l11 11 7 0 c3
0 112 0 241 0 171 0 236 0 237 -1z m64 -28 l42 0 9 -8 c5 -5 17 -15 25 -22 9
-7 19 -16 22 -19 4 -2 16 -13 28 -22 11 -10 21 -19 21 -20 0 0 -1 -2 -2 -4 -1
-1 -2 -3 -2 -3 0 0 -2 -5 -5 -10 -3 -5 -8 -14 -12 -21 -21 -39 -27 -51 -28
-51 0 -1 -3 -6 -6 -12 -4 -7 -8 -14 -9 -17 -2 -3 -6 -11 -10 -17 -12 -23 -23
-42 -36 -64 -14 -24 -22 -37 -22 -38 0 -1 3 -3 7 -5 10 -6 21 -12 50 -29 7 -4
12 -7 12 -7 1 0 3 -2 7 -3 3 -2 6 -4 6 -4 1 0 3 4 5 9 12 24 27 50 30 52 0 1
4 6 7 11 9 16 16 26 17 26 1 0 6 -2 11 -5 4 -3 12 -8 17 -10 4 -2 13 -7 20
-11 6 -4 16 -9 21 -12 5 -3 15 -9 22 -13 6 -3 19 -11 29 -16 10 -6 18 -10 18
-11 1 0 6 -3 11 -5 15 -9 21 -12 27 -15 2 -2 12 -8 22 -13 9 -5 20 -11 24 -13
3 -3 11 -7 17 -10 5 -3 10 -6 11 -7 0 -2 -1 -13 -5 -43 -1 -14 -3 -40 -5 -61
0 -8 -1 -16 -2 -19 0 -3 -1 -9 -1 -14 -1 -4 -2 -15 -3 -23 -1 -8 -3 -23 -4
-33 -1 -11 -3 -22 -3 -24 -1 -5 -5 -41 -6 -52 0 -3 -1 -15 -2 -27 -1 -13 -3
-27 -3 -32 -1 -11 -3 -32 -6 -48 0 -7 -2 -16 -2 -22 -1 -6 -1 -11 -1 -12 -1 0
-1 -6 -2 -12 -1 -6 -2 -14 -2 -16 -1 -7 -3 -24 -4 -43 0 -9 -1 -18 -2 -21 0
-4 -1 -11 -2 -17 0 -6 0 -12 -1 -12 0 0 0 -6 -1 -12 -1 -6 -1 -15 -2 -18 -1
-4 -2 -16 -3 -25 -3 -28 -5 -42 -6 -47 -1 -5 -4 -35 -6 -56 -1 -7 -2 -19 -3
-27 0 -7 -1 -15 -1 -18 0 -5 -3 -23 -4 -24 0 -1 -7 1 -15 4 -8 3 -16 5 -17 5
-2 0 -11 3 -32 11 -6 2 -12 4 -13 5 l-4 0 -2 -8 c-1 -4 -5 -14 -7 -21 -3 -7
-6 -15 -7 -17 -2 -5 -12 -31 -14 -35 0 -2 -1 -4 -1 -4 0 -1 22 -9 33 -12 2 -1
9 -3 14 -6 5 -2 19 -7 32 -12 13 -4 27 -8 31 -10 3 -1 12 -4 20 -6 7 -2 13 -4
13 -5 1 -1 -5 -20 -14 -42 -3 -7 -6 -17 -8 -22 -5 -17 -15 -46 -16 -47 0 -1
-3 -8 -5 -15 -6 -19 -14 -45 -17 -51 -2 -6 -8 -24 -9 -27 -1 -3 -5 -15 -15
-42 -2 -7 -4 -11 -5 -11 -1 0 -54 17 -78 25 -10 3 -18 5 -24 7 -3 1 -14 5 -25
9 -11 4 -21 8 -21 8 -1 0 -3 -5 -6 -11 -2 -6 -5 -12 -5 -13 -4 -10 -7 -17 -8
-22 -3 -8 -6 -17 -9 -24 -3 -4 -7 -16 -7 -18 0 -1 6 -3 24 -9 7 -3 15 -6 17
-7 7 -5 13 -7 26 -11 7 -2 13 -4 13 -5 0 0 -6 -13 -10 -18 -1 -3 -5 -9 -8 -14
-3 -5 -6 -10 -7 -11 0 -1 -4 -7 -7 -13 -3 -7 -11 -20 -16 -29 -5 -9 -12 -21
-16 -27 -3 -6 -6 -12 -7 -13 -2 -2 -3 -5 -4 -6 -13 -26 -35 -64 -39 -70 -1 -3
-6 -11 -10 -18 -5 -8 -10 -18 -12 -21 -5 -7 -7 -11 -12 -20 -2 -4 -7 -13 -12
-21 -4 -8 -9 -16 -10 -18 -1 -3 -2 -5 -3 -6 -1 -1 -3 -4 -4 -7 -2 -4 -7 -13
-12 -20 -4 -8 -9 -17 -11 -20 -2 -4 -6 -10 -8 -15 -7 -11 -14 -23 -15 -25 0
-2 -3 -2 -240 -2 l-239 0 -3 6 c-1 3 -10 19 -20 36 -9 16 -20 34 -23 40 -3 6
-6 12 -7 14 -1 1 -2 3 -3 5 0 1 -2 4 -3 6 -2 2 -4 6 -5 8 -2 2 -5 9 -9 15 -3
6 -11 20 -17 32 -7 12 -17 29 -22 39 -6 10 -12 20 -14 24 -1 3 -6 12 -10 19
-5 7 -11 18 -14 24 -3 5 -6 11 -7 12 -1 1 -4 7 -7 12 -4 8 -9 17 -17 31 -2 4
-5 9 -6 12 -2 2 -7 11 -12 19 -4 8 -11 21 -15 28 l-7 13 13 5 c7 2 14 4 15 5
1 0 4 1 5 3 2 1 5 3 8 4 3 0 6 2 7 2 1 1 30 11 32 11 1 0 2 0 2 1 0 2 -10 28
-13 35 -2 4 -4 9 -5 12 -1 2 -2 6 -4 8 -1 3 -4 10 -6 17 -2 7 -5 14 -6 15 -2
2 -2 2 -6 1 -3 -1 -5 -2 -6 -2 -2 -2 -22 -9 -34 -13 -12 -3 -36 -11 -51 -16
-7 -3 -29 -10 -48 -16 l-6 -2 -5 17 c-4 9 -8 21 -9 26 -2 5 -6 16 -9 26 -3 9
-7 21 -10 26 -2 5 -7 22 -13 38 -5 15 -11 32 -13 38 -2 6 -7 20 -11 32 -4 12
-9 26 -11 31 -6 13 -9 25 -8 26 1 0 10 3 21 6 39 13 70 23 71 25 1 0 4 1 6 2
2 1 11 3 19 6 13 5 23 8 26 9 1 0 1 2 -7 22 -2 7 -6 18 -8 25 -3 6 -7 16 -9
21 -2 6 -4 11 -5 13 -1 5 -2 5 -11 3 -4 -1 -11 -3 -15 -5 -14 -5 -21 -7 -25
-8 -2 -1 -12 -4 -22 -7 -10 -3 -18 -5 -18 -5 -1 0 -2 3 -2 7 -1 10 -7 66 -7
70 -1 1 -2 8 -2 16 -1 7 -3 17 -3 24 -4 24 -6 45 -6 49 0 3 -1 5 -1 6 -1 0 -1
3 -1 6 0 4 0 8 -1 10 0 2 -1 7 -1 12 -2 17 -5 49 -6 50 0 0 0 6 -1 13 -1 12
-2 17 -5 41 -1 7 -2 18 -3 23 -1 5 -1 12 -2 15 -1 6 -6 54 -8 70 0 2 0 8 -1
13 -1 4 -2 17 -3 27 -3 29 -7 56 -8 59 0 1 -1 10 -2 20 -1 10 -2 20 -2 22 -2
10 -10 86 -11 96 0 2 0 8 -1 12 -2 16 -4 30 -6 44 0 7 -1 16 -2 19 -1 3 -2 12
-3 20 -2 13 -2 14 0 15 2 2 17 10 37 21 6 4 13 8 16 9 2 1 6 4 10 6 21 12 37
21 49 28 7 4 15 9 18 11 3 1 13 7 22 12 9 5 19 11 21 12 2 1 9 5 14 8 20 12
49 28 51 28 0 0 3 -4 6 -8 10 -19 15 -26 18 -29 4 -5 16 -24 22 -33 2 -4 4 -7
4 -7 1 -1 10 -15 13 -21 1 -2 1 -3 2 -3 0 0 4 2 9 5 4 3 12 7 17 11 5 3 15 9
22 13 7 4 16 10 21 13 5 3 9 6 10 7 0 0 -1 2 -2 4 -10 14 -29 46 -41 68 -4 7
-8 15 -10 18 -2 3 -6 11 -10 17 -3 6 -8 14 -10 18 -2 4 -5 9 -7 12 -6 12 -10
18 -20 36 -6 10 -12 20 -13 22 -1 2 -3 6 -4 8 -1 2 -5 8 -7 13 -3 4 -6 9 -6
10 -1 1 -3 4 -5 8 -3 5 -3 6 -2 8 1 1 9 8 19 15 10 8 20 17 24 20 4 3 9 8 12
10 12 10 21 17 25 20 9 8 13 11 20 17 4 3 9 7 11 8 4 4 11 5 47 4 16 0 31 1
34 1 6 1 523 0 580 -1z m231 -176 c5 -4 14 -9 20 -12 5 -3 16 -10 25 -15 9 -5
22 -12 30 -16 7 -5 22 -13 32 -19 10 -6 23 -13 30 -17 6 -3 19 -11 30 -16 10
-6 27 -16 38 -22 18 -11 45 -27 60 -35 3 -2 11 -6 18 -10 6 -4 13 -8 15 -9 3
-1 5 -3 5 -3 0 0 -3 -3 -7 -5 -8 -5 -20 -13 -32 -20 -4 -2 -8 -4 -9 -4 -1 0
-6 2 -10 5 -4 2 -9 5 -11 6 -1 1 -6 3 -9 5 -4 3 -13 8 -19 11 -10 6 -26 15
-37 21 -2 1 -5 3 -8 5 -3 2 -12 7 -19 11 -7 4 -15 8 -16 9 -1 1 -8 5 -15 9 -7
3 -18 10 -25 14 -14 8 -52 30 -61 35 -3 1 -9 5 -14 8 -10 6 -36 20 -42 24 -2
1 -4 3 -5 4 0 1 9 19 11 22 1 1 3 4 5 8 4 7 8 12 9 12 0 0 5 -3 11 -6z m-1070
-5 c1 -3 7 -13 12 -21 5 -9 9 -16 9 -16 0 -1 -5 -3 -11 -7 -6 -3 -15 -8 -19
-11 -5 -3 -12 -6 -14 -8 -9 -5 -13 -7 -22 -12 -5 -3 -11 -7 -15 -9 -4 -2 -7
-5 -8 -5 -1 -1 -4 -2 -7 -4 -22 -12 -80 -46 -106 -62 -6 -3 -12 -7 -15 -8 -2
-1 -6 -3 -8 -5 -2 -1 -12 -7 -22 -13 -10 -5 -19 -10 -20 -11 -2 -2 -6 -4 -9
-5 l-5 -3 -5 3 c-3 2 -8 5 -11 7 -6 4 -10 6 -19 12 -7 3 -12 7 -12 8 0 1 3 3
6 5 4 2 14 7 22 13 9 5 20 11 25 14 5 2 11 6 15 8 5 3 8 5 22 13 2 1 9 5 14 8
12 7 35 20 54 31 8 4 19 11 25 15 6 3 26 15 45 25 18 11 43 25 54 31 11 7 20
12 21 12 0 0 2 -2 4 -5z m1055 -48 c13 -7 24 -14 25 -14 1 -1 3 -2 5 -3 11 -7
27 -15 29 -17 1 -1 10 -6 20 -11 9 -5 18 -10 21 -12 2 -1 9 -6 16 -9 7 -4 18
-10 24 -14 6 -4 14 -8 17 -10 3 -1 11 -6 17 -9 6 -4 15 -10 19 -12 15 -8 27
-14 28 -15 2 -2 3 -3 17 -10 5 -3 12 -8 16 -10 4 -2 9 -5 11 -6 l4 -2 0 -10
c-1 -16 -7 -63 -11 -86 0 -5 -1 -12 -1 -16 -1 -4 -1 -10 -2 -15 -1 -5 -2 -13
-2 -17 0 -5 -2 -16 -2 -23 -1 -7 -2 -18 -2 -24 -1 -11 -4 -40 -7 -57 0 -7 -1
-16 -2 -21 0 -6 -1 -13 -2 -15 -1 -3 -2 -15 -3 -27 -2 -13 -4 -28 -4 -36 -3
-18 -3 -20 -4 -32 0 -6 -1 -12 -1 -14 -1 -2 -1 -10 -2 -17 -1 -7 -1 -13 -2
-14 0 -2 -1 -11 -2 -21 -4 -39 -5 -45 -6 -49 0 -2 -1 -8 -1 -11 -1 -4 -2 -10
-2 -13 -1 -3 -1 -9 -1 -12 -1 -4 -2 -14 -2 -23 -4 -30 -4 -35 -4 -41 -1 -12
-4 -36 -6 -50 -1 -7 -2 -15 -2 -17 0 -2 0 -6 -1 -9 -1 -3 -2 -11 -2 -17 -5
-38 -7 -53 -8 -63 -1 -6 -1 -13 -2 -15 0 -2 0 -9 -1 -16 -1 -16 -3 -37 -3 -38
-1 0 -2 1 -5 2 -2 1 -7 3 -10 4 -4 1 -8 3 -8 3 -1 1 0 12 4 42 7 61 11 92 12
112 1 7 1 17 2 21 1 3 2 13 2 20 1 7 3 20 4 29 1 8 3 21 4 29 0 7 1 14 2 15 0
2 3 32 7 68 2 27 4 47 5 53 0 3 1 9 1 13 1 4 2 12 3 17 0 4 1 13 2 18 1 5 1
12 2 16 2 12 9 78 13 117 1 18 5 48 8 79 7 51 9 70 11 89 2 28 3 35 4 48 1 6
1 12 1 12 -1 1 -8 6 -16 10 -9 5 -19 11 -24 14 -5 2 -13 7 -17 9 -5 3 -10 6
-10 6 -3 2 -21 12 -31 17 -6 3 -12 7 -15 8 -2 2 -8 5 -13 8 -5 2 -14 8 -21 12
-13 7 -27 15 -45 25 -5 3 -17 9 -26 15 -10 5 -24 13 -32 17 -24 13 -28 16 -29
17 0 2 10 21 12 21 0 0 11 -6 24 -13z m-1031 6 c1 -1 11 -18 11 -19 0 -1 -3
-3 -6 -5 -4 -2 -8 -4 -9 -5 -17 -9 -25 -14 -36 -20 -3 -1 -10 -6 -16 -9 -6 -3
-17 -10 -24 -14 -8 -4 -28 -15 -43 -24 -16 -10 -30 -17 -30 -17 0 0 -2 -1 -4
-2 -2 -2 -11 -7 -20 -12 -10 -5 -25 -14 -35 -20 -10 -5 -23 -13 -30 -16 -7 -3
-13 -7 -13 -7 -1 -1 -1 -4 -1 -10 1 -8 5 -40 6 -45 0 -1 1 -6 1 -10 1 -5 2
-13 2 -17 1 -5 3 -20 4 -33 1 -13 2 -26 3 -28 1 -3 2 -15 3 -27 1 -12 2 -23 3
-24 0 -1 0 -5 1 -8 0 -3 1 -9 1 -13 1 -5 2 -13 3 -17 1 -5 2 -13 2 -17 1 -5 2
-11 2 -15 1 -4 2 -11 2 -16 3 -19 7 -51 6 -53 0 0 1 -4 1 -8 1 -3 2 -13 3 -20
2 -24 5 -49 6 -58 1 -5 2 -13 3 -17 1 -5 2 -12 2 -14 1 -3 1 -8 2 -12 0 -6 1
-15 4 -38 2 -14 4 -34 5 -43 0 -5 0 -10 1 -11 0 -2 1 -10 2 -18 0 -8 1 -15 2
-15 0 0 0 -4 1 -8 0 -3 1 -10 2 -14 1 -9 3 -19 6 -53 1 -8 3 -20 4 -27 0 -8 1
-16 2 -19 1 -17 7 -69 9 -81 2 -12 2 -12 -8 -15 -13 -5 -14 -5 -14 -2 0 1 -1
9 -2 18 -1 9 -3 21 -3 29 -4 31 -5 39 -6 48 -1 5 -2 13 -3 17 0 3 -1 9 -2 13
0 4 -1 11 -1 15 -1 5 -2 12 -2 14 -1 6 -2 17 -5 42 -2 24 -3 30 -3 36 -3 24
-5 39 -7 51 -5 36 -9 71 -14 116 -1 16 -4 40 -8 67 -1 8 -3 21 -4 30 -1 9 -2
18 -3 22 -1 7 -2 17 -4 38 -1 7 -2 17 -3 22 0 5 -2 18 -3 29 -1 11 -2 23 -3
27 -2 11 -5 34 -7 49 -2 12 -5 38 -8 74 -1 8 -3 22 -4 31 -1 9 -2 19 -3 22 l0
5 5 3 c3 2 9 5 14 8 4 3 8 5 10 6 1 0 7 4 13 8 11 6 17 9 30 16 2 2 12 8 22
14 9 5 17 10 17 10 1 0 7 4 29 16 2 1 6 4 9 5 5 3 23 14 40 24 3 2 5 3 6 3 0
0 4 3 10 6 16 9 28 16 41 24 6 3 13 7 15 9 5 3 18 10 19 10 0 0 1 0 2 -1z
m1006 -24 c6 -4 14 -8 18 -10 3 -2 6 -4 6 -4 1 0 7 -4 15 -8 8 -4 14 -8 15 -8
0 0 5 -3 12 -7 6 -4 16 -10 22 -13 6 -3 14 -7 19 -10 8 -5 14 -8 27 -15 4 -2
9 -5 11 -7 5 -3 8 -4 22 -11 6 -4 19 -11 30 -18 11 -6 23 -12 27 -14 3 -3 13
-8 21 -13 8 -4 15 -8 16 -8 0 0 1 -1 2 -2 2 -2 2 -2 1 -12 -1 -5 -2 -12 -3
-15 0 -3 -1 -8 -1 -10 -1 -5 -2 -17 -6 -51 -1 -5 -1 -13 -2 -18 0 -13 -3 -38
-5 -50 0 -5 -1 -13 -2 -17 0 -5 -1 -13 -1 -17 -1 -5 -2 -13 -2 -17 -1 -4 -2
-11 -3 -15 0 -5 -2 -17 -3 -27 -1 -11 -3 -23 -3 -28 -1 -11 -3 -26 -4 -47 0
-9 -1 -16 -1 -17 -1 0 -1 -6 -2 -13 -1 -7 -2 -16 -2 -21 -1 -5 -2 -12 -3 -16
0 -8 -1 -16 -5 -48 -2 -10 -3 -23 -4 -29 -1 -7 -2 -16 -3 -22 0 -7 -2 -17 -2
-24 -2 -28 -3 -39 -4 -44 0 -4 -1 -12 -2 -18 -1 -7 -2 -14 -2 -16 0 -2 -1 -9
-2 -16 -1 -8 -1 -14 -2 -14 0 -1 -7 -53 -7 -56 0 -1 0 -6 -1 -11 0 -6 -1 -16
-2 -23 -1 -15 -4 -38 -5 -51 -1 -5 -2 -14 -3 -21 0 -7 -1 -12 -1 -13 -1 0 -4
1 -8 2 -3 2 -12 5 -18 7 l-12 4 0 3 c1 2 2 13 3 26 2 12 3 26 4 31 1 4 1 10 1
13 1 2 1 10 2 18 1 8 2 21 3 29 1 15 9 83 11 102 3 17 8 64 9 73 0 3 0 9 1 13
0 4 1 11 1 16 1 12 7 60 10 84 1 7 2 16 2 21 1 4 2 17 3 30 2 12 3 24 4 27 0
2 0 7 1 11 0 3 0 9 1 14 1 10 3 29 4 41 0 5 1 12 1 16 0 4 1 11 1 16 1 4 2 12
3 17 0 5 2 18 3 28 1 10 3 24 4 30 2 23 9 90 9 98 l0 6 -8 4 c-9 5 -19 10 -48
27 -12 7 -29 16 -36 20 -8 4 -20 11 -26 15 -7 4 -17 9 -21 12 -5 2 -14 7 -19
10 -6 4 -15 9 -19 11 -15 9 -17 9 -32 18 -8 5 -19 11 -24 14 -13 6 -20 11 -20
12 1 0 4 7 9 14 5 8 9 15 9 16 1 1 2 2 3 2 1 0 7 -3 13 -6z m-983 -15 c6 -9
10 -16 10 -17 0 -1 -5 -5 -13 -9 -5 -3 -16 -9 -24 -14 -8 -4 -19 -11 -23 -13
-5 -3 -14 -8 -19 -11 -6 -3 -10 -6 -11 -6 0 0 -2 -1 -4 -2 -2 -2 -7 -5 -12 -7
-5 -3 -10 -6 -12 -7 -3 -2 -10 -6 -16 -9 -13 -8 -25 -15 -31 -18 -16 -10 -60
-34 -67 -38 l-8 -4 0 -7 c1 -4 2 -12 3 -16 0 -5 1 -12 2 -16 1 -3 1 -11 2 -18
1 -6 1 -14 2 -16 0 -2 1 -8 1 -12 0 -5 1 -12 1 -18 1 -5 2 -12 2 -15 1 -4 1
-8 2 -10 0 -3 0 -7 0 -9 3 -29 5 -41 9 -72 2 -12 4 -30 6 -44 3 -26 3 -32 4
-41 1 -17 2 -23 4 -36 0 -7 2 -21 3 -31 1 -11 3 -24 3 -29 1 -5 3 -19 4 -30 2
-12 4 -25 5 -29 0 -5 1 -11 1 -14 0 -3 0 -7 1 -9 0 -2 1 -10 2 -17 1 -8 1 -16
2 -17 0 -8 3 -36 4 -45 0 -5 1 -10 1 -11 1 0 1 -4 1 -8 1 -4 2 -12 3 -18 0 -7
2 -16 2 -21 1 -5 1 -11 2 -12 0 -2 1 -7 1 -12 1 -8 3 -27 6 -49 1 -4 1 -13 2
-20 1 -7 1 -14 2 -16 0 -2 0 -8 1 -12 2 -22 3 -32 2 -34 -1 0 -5 -2 -8 -3 -4
-1 -12 -3 -17 -5 -7 -3 -10 -3 -10 -3 -1 2 -3 15 -4 24 0 4 0 7 -1 8 0 2 0 5
0 8 -1 6 -2 15 -4 32 -1 5 -2 14 -2 19 -1 4 -2 16 -3 25 -1 8 -3 19 -3 24 -1
5 -2 13 -3 18 -1 7 -3 28 -6 56 0 4 -2 13 -2 21 -1 7 -2 15 -3 18 0 3 -1 10
-1 17 -1 6 -2 15 -3 21 -1 5 -2 12 -2 15 -1 3 -1 8 -2 11 0 2 -1 7 -1 10 -1 3
-1 9 -2 14 0 4 -1 11 -1 16 -1 5 -2 12 -3 17 -1 5 -2 14 -3 22 0 7 -1 14 -1
15 0 1 0 5 -1 9 -1 3 -1 9 -1 13 -1 3 -2 12 -2 18 -1 6 -2 16 -3 21 -2 19 -3
27 -5 37 -2 15 -3 23 -4 33 -1 5 -2 11 -2 14 0 2 -1 7 -1 11 -1 9 -3 25 -4 27
0 1 0 7 -1 15 -1 11 -3 35 -6 58 -1 5 -2 12 -3 16 0 3 -1 9 -2 13 0 3 -1 13
-2 21 -1 8 -3 19 -3 24 0 4 -1 11 -2 15 -1 5 -3 24 -5 35 0 2 0 4 1 5 0 0 7 4
15 9 8 4 19 10 24 13 11 7 34 19 64 36 3 2 9 5 13 7 3 3 12 8 18 11 6 4 17 10
24 14 7 3 16 8 20 10 3 3 11 7 16 10 5 3 14 8 18 10 5 3 14 8 19 11 5 3 14 8
20 11 6 4 11 7 11 7 1 1 2 1 3 1 0 0 5 -7 10 -16z m849 -12 c3 -3 22 -13 50
-28 6 -3 13 -7 16 -9 l4 -2 -4 -8 c-2 -4 -6 -11 -9 -16 -3 -4 -5 -8 -5 -9 0 0
-12 -24 -13 -25 -1 -1 -2 0 -5 1 -2 2 -6 4 -9 6 -4 2 -14 8 -24 14 -9 5 -21
12 -26 14 -4 3 -10 6 -11 7 l-2 2 2 4 c4 7 31 51 32 51 0 0 2 -1 4 -2z m-727
-11 c4 -6 7 -12 8 -13 0 -1 5 -8 10 -15 5 -8 10 -16 11 -19 2 -5 5 -3 -27 -22
-14 -8 -26 -15 -28 -17 -3 -1 -7 -4 -11 -6 -7 -4 -5 -5 -17 14 -4 7 -10 17
-14 22 -3 5 -7 11 -8 14 -1 2 -3 4 -4 5 -3 3 -3 3 21 17 5 4 11 7 13 8 5 3 14
9 26 17 6 4 11 7 12 7 0 -1 4 -6 8 -12z m-471 -74 c3 -2 10 -6 14 -8 8 -5 25
-16 25 -17 1 0 1 -7 2 -15 1 -7 1 -17 2 -20 1 -4 1 -12 2 -16 2 -15 4 -34 7
-55 2 -12 4 -31 5 -41 1 -5 1 -13 2 -17 1 -5 1 -12 2 -17 0 -5 1 -9 1 -10 1 0
1 -5 1 -11 1 -5 1 -11 2 -12 0 -1 0 -5 1 -8 0 -4 1 -9 1 -13 1 -4 2 -10 2 -14
1 -9 4 -32 7 -52 1 -11 2 -17 4 -30 2 -16 4 -31 5 -39 0 -5 0 -13 1 -17 1 -4
2 -14 2 -22 1 -8 2 -15 2 -16 1 -2 1 -8 2 -15 1 -7 2 -17 3 -21 1 -9 2 -15 6
-47 4 -31 7 -53 7 -63 1 -6 2 -12 2 -14 1 -3 1 -7 1 -10 0 -4 1 -10 1 -15 1
-4 2 -8 2 -9 0 0 0 -7 1 -14 6 -47 8 -62 9 -65 1 -1 1 -4 1 -6 0 -4 5 -46 5
-50 1 -1 2 -11 3 -22 3 -26 3 -28 4 -36 1 -3 1 -7 0 -7 0 -1 -41 -14 -41 -14
-1 0 -1 8 -2 17 -3 25 -4 34 -6 48 -2 13 -4 32 -6 50 0 5 -1 12 -2 16 0 4 -2
13 -2 21 -1 7 -2 14 -3 17 -1 2 -1 6 -1 9 0 2 -1 10 -1 16 -1 6 -2 15 -3 20
-2 15 -6 51 -7 53 0 4 -4 34 -5 45 -1 5 -2 14 -2 20 -1 6 -2 15 -3 22 -1 6 -2
12 -2 15 -1 2 -1 6 -1 9 0 2 0 7 -1 10 0 3 -1 10 -2 16 -1 6 -2 17 -3 25 -2
16 -5 35 -6 48 -1 4 -1 11 -2 15 -1 9 -3 19 -6 46 -1 12 -3 27 -3 34 -1 6 -3
17 -3 25 -3 20 -7 54 -8 60 0 3 -1 10 -2 15 0 5 -2 15 -2 23 -1 7 -2 16 -3 21
0 5 -2 15 -2 23 -1 7 -2 16 -3 20 -1 4 -1 11 -2 16 -1 4 -2 14 -3 21 0 7 -1
16 -2 21 0 4 -1 9 -1 11 -1 1 -2 8 -2 15 -1 6 -2 13 -3 15 0 3 0 4 1 4 1 0 4
-2 8 -4z m1678 0 c-2 -9 -4 -31 -5 -44 -3 -28 -6 -54 -7 -66 -1 -7 -3 -19 -3
-27 -1 -8 -3 -22 -4 -32 -1 -10 -3 -22 -3 -28 -3 -31 -7 -75 -8 -83 -1 -12 -5
-43 -6 -60 -1 -7 -3 -23 -4 -34 -3 -23 -4 -33 -9 -84 -2 -23 -4 -43 -6 -55 0
-7 -2 -19 -2 -26 -2 -14 -6 -51 -8 -68 -1 -5 -3 -30 -6 -54 -7 -74 -10 -100
-11 -105 0 -5 -7 -68 -8 -81 -1 -6 -1 -12 -2 -12 0 0 -2 0 -3 1 -2 1 -12 4
-23 8 -11 3 -20 6 -20 7 0 0 1 9 5 49 4 34 4 33 6 58 1 9 3 22 3 27 1 4 2 15
3 23 0 7 1 16 2 20 1 7 4 28 7 52 0 7 2 17 2 21 1 4 2 14 3 22 0 8 2 21 3 29
0 8 1 20 2 28 1 7 1 14 1 15 1 1 2 12 4 24 1 12 2 23 3 25 0 2 0 7 1 12 1 5 1
13 2 18 6 53 9 73 11 93 1 20 4 43 4 46 1 3 5 33 6 48 1 5 2 14 2 20 3 15 5
33 7 54 0 9 2 23 3 30 0 7 1 15 1 17 0 3 1 10 1 16 2 12 6 43 7 53 1 13 2 18
4 20 2 3 42 27 44 27 1 0 1 -1 1 -4z m-1684 -632 c1 -1 1 -6 2 -12 2 -21 5
-46 6 -58 1 -7 2 -16 3 -20 0 -4 1 -11 2 -15 0 -4 2 -18 3 -30 2 -12 4 -28 4
-34 1 -6 2 -14 2 -17 1 -4 2 -12 2 -18 1 -7 3 -19 4 -26 2 -20 4 -28 9 -40 4
-12 14 -36 16 -43 4 -12 10 -24 12 -24 1 0 13 4 27 8 14 5 27 9 27 9 2 0 5 -9
18 -46 4 -13 10 -29 12 -35 4 -12 6 -18 13 -37 1 -6 4 -14 6 -17 1 -4 3 -9 3
-10 0 -1 3 -9 6 -17 3 -7 7 -21 10 -29 3 -8 7 -20 9 -26 3 -7 6 -14 7 -17 4
-16 6 -22 6 -24 0 0 -4 -2 -7 -3 -14 -5 -68 -23 -106 -35 -21 -7 -58 -19 -82
-27 -52 -17 -55 -18 -56 -17 -1 0 -5 6 -8 12 -4 7 -8 14 -9 17 -2 2 -5 7 -8
12 -3 5 -7 13 -10 18 -3 5 -6 11 -8 13 -8 15 -24 42 -34 59 -6 11 -15 25 -19
33 -4 7 -12 20 -17 29 -5 9 -12 21 -15 27 -4 5 -7 11 -8 12 -2 5 -20 35 -35
60 -13 23 -29 50 -35 60 -3 5 -5 15 -5 23 0 2 0 8 -1 12 -1 4 -1 13 -2 21 -1
7 -2 17 -2 23 -1 6 -2 15 -2 22 -1 6 -1 14 -2 19 -1 5 -1 15 -2 23 0 7 -1 15
-1 16 -1 1 -1 9 -2 16 -1 14 -1 16 -5 51 -1 11 -2 22 -2 23 l0 4 18 3 c20 4
64 13 100 21 12 2 26 5 31 6 12 2 50 10 60 12 4 1 18 4 31 7 12 2 25 5 28 5 6
2 6 2 6 1z m-287 -40 c0 -5 0 -10 0 -12 0 -3 1 -4 3 -4 2 0 2 -1 4 -13 1 -6 2
-18 3 -26 1 -17 5 -57 6 -60 0 -2 1 -18 5 -56 0 -10 1 -22 2 -27 1 -12 3 -26
4 -37 3 -31 3 -29 10 -42 3 -5 7 -11 9 -15 2 -4 8 -14 14 -24 6 -10 12 -20 14
-23 1 -3 5 -9 6 -12 2 -3 5 -9 8 -12 2 -4 5 -11 8 -15 6 -9 14 -23 22 -38 6
-10 22 -37 29 -49 2 -3 8 -14 14 -24 6 -10 14 -25 19 -32 5 -8 11 -19 14 -25
4 -6 10 -17 14 -24 5 -8 11 -20 15 -26 3 -6 8 -15 11 -19 3 -5 5 -10 5 -11 1
-1 2 -2 3 -3 2 0 11 3 23 7 11 4 23 8 26 9 12 3 50 16 71 22 12 4 28 10 37 13
9 3 22 7 30 10 8 3 19 7 26 8 6 2 16 6 23 8 14 5 16 6 81 27 29 9 60 20 69 23
36 12 39 13 40 12 1 0 3 -7 6 -14 5 -14 13 -33 21 -51 2 -6 4 -11 4 -12 -1 -1
-3 -2 -6 -3 -3 -1 -18 -6 -33 -11 -16 -6 -36 -13 -44 -15 -19 -7 -49 -17 -60
-21 -4 -1 -7 -3 -7 -4 0 -1 21 -40 42 -76 4 -7 10 -18 13 -24 4 -7 9 -17 13
-23 3 -6 9 -18 14 -27 5 -9 10 -17 10 -18 1 -1 3 -5 5 -8 12 -23 41 -75 48
-88 11 -19 33 -60 38 -69 2 -4 5 -9 6 -11 2 -2 5 -8 7 -12 1 -4 4 -7 5 -7 1
-1 4 -1 6 0 2 0 21 0 41 0 28 0 36 0 36 -1 1 -1 3 -5 6 -10 3 -5 7 -12 9 -15
2 -4 4 -8 5 -9 1 -1 23 -2 281 -1 154 0 280 0 281 0 0 0 1 2 2 4 1 2 3 5 4 7
2 2 4 6 5 8 1 3 4 7 6 11 l4 6 41 0 c30 0 42 0 43 1 1 1 3 5 5 9 2 5 14 26 27
48 12 22 25 45 29 52 11 20 22 38 28 48 3 5 8 14 10 19 3 5 11 18 16 28 6 11
11 19 11 20 0 0 2 3 5 7 2 4 4 8 4 8 0 1 3 6 6 12 4 6 16 27 27 48 12 20 24
42 28 49 4 7 7 13 7 14 0 1 -1 2 -3 2 -1 0 -9 3 -17 6 -9 3 -29 9 -44 15 -60
19 -86 28 -86 29 -1 1 1 8 5 17 4 9 10 25 14 35 6 17 10 26 11 27 0 0 10 -3
22 -7 12 -5 29 -10 37 -13 14 -4 128 -42 177 -58 148 -49 189 -62 190 -61 1 0
3 3 5 7 5 8 18 31 25 45 7 11 11 18 26 45 8 12 16 26 19 31 3 5 5 9 5 10 0 0
1 2 2 4 2 2 4 6 6 9 1 3 7 14 13 24 12 20 26 44 28 48 4 7 10 18 12 21 1 2 7
12 13 22 6 10 11 19 12 20 1 2 5 10 10 18 5 8 9 16 10 18 1 2 3 6 5 8 4 7 6
11 10 17 9 14 11 20 13 50 1 7 1 18 2 23 1 4 2 17 3 28 0 10 2 29 3 41 1 12 3
31 3 42 1 11 2 21 2 23 1 2 1 10 2 19 1 19 4 35 5 38 2 1 4 19 3 25 0 1 1 2 1
2 3 0 27 -4 27 -5 1 0 -1 -24 -3 -51 -1 -7 -1 -18 -2 -24 -3 -43 -5 -64 -5
-66 -1 -1 -1 -10 -2 -18 -1 -9 -2 -20 -2 -24 -1 -5 -1 -15 -2 -22 -1 -8 -1
-19 -2 -25 -1 -7 -2 -19 -3 -29 0 -10 -1 -19 -2 -21 -1 -2 -5 -10 -9 -17 -12
-22 -43 -78 -43 -78 0 -1 -3 -6 -7 -12 -5 -10 -17 -30 -25 -45 -2 -3 -5 -9 -8
-14 -3 -5 -11 -20 -19 -34 -19 -35 -19 -35 -24 -44 -3 -5 -5 -8 -5 -8 0 -1 -2
-4 -4 -8 -2 -4 -7 -13 -11 -19 -4 -7 -11 -20 -16 -29 -5 -9 -11 -20 -13 -24
-3 -4 -8 -14 -13 -23 -5 -8 -11 -20 -15 -27 -9 -17 -7 -16 -18 -12 -9 3 -14 4
-31 9 -5 2 -11 4 -13 5 -4 1 -17 5 -51 15 -9 3 -23 8 -32 10 -9 3 -22 7 -28 9
-7 2 -20 7 -29 9 -61 20 -68 22 -73 22 -4 0 -5 0 -7 -4 -1 -2 -7 -13 -13 -23
-6 -11 -18 -32 -26 -47 -8 -15 -17 -30 -18 -32 -2 -3 -10 -17 -18 -31 -7 -14
-20 -37 -28 -51 -9 -15 -20 -34 -25 -43 -5 -10 -10 -18 -10 -18 0 -1 -2 -4 -3
-6 -9 -16 -22 -39 -27 -47 -3 -6 -11 -19 -17 -29 -5 -11 -16 -30 -24 -43 -7
-14 -17 -30 -21 -37 -3 -7 -7 -13 -7 -13 -1 -1 -22 -1 -47 -1 -31 0 -46 0 -48
-1 -2 -1 -7 -4 -12 -7 l-9 -5 -292 0 -291 1 -10 6 -9 6 -48 0 -48 0 -2 4 c-3
7 -15 29 -29 54 -4 6 -25 45 -37 66 -1 2 -3 6 -4 8 -1 1 -4 7 -6 12 -3 4 -10
17 -16 28 -12 21 -32 57 -38 69 -2 3 -6 12 -10 19 -4 6 -10 17 -14 24 -3 7 -7
14 -8 15 -1 2 -5 9 -9 17 -5 8 -11 19 -14 25 -6 9 -9 16 -18 32 -2 4 -5 9 -6
12 -3 5 -18 32 -21 38 -3 5 -5 5 -12 3 -11 -3 -58 -18 -77 -24 -13 -5 -26 -9
-30 -10 -4 -1 -15 -5 -25 -8 -11 -3 -22 -7 -25 -8 -4 -1 -18 -6 -33 -10 -15
-5 -32 -11 -38 -13 -17 -5 -26 -8 -28 -8 -1 -1 -3 1 -6 8 -3 5 -7 11 -8 14 -2
3 -7 11 -11 19 -6 10 -21 36 -30 52 -1 1 -6 10 -11 19 -5 8 -10 17 -12 20 -1
2 -4 6 -6 10 -3 5 -5 8 -11 21 -2 2 -4 7 -6 9 -2 2 -5 8 -7 12 -6 10 -36 62
-59 102 -16 28 -19 33 -22 39 -4 7 -24 42 -29 51 -11 17 -12 20 -14 33 -1 11
-7 79 -8 93 -1 4 -1 12 -2 17 -1 4 -2 21 -3 36 -2 14 -3 31 -4 37 -1 6 -2 19
-2 29 -1 10 -2 23 -3 29 -1 5 -1 13 -1 17 l0 8 4 1 c16 3 21 4 22 4 2 0 2 -1
3 -9z m1990 2 c12 -1 32 -3 57 -5 13 -1 29 -3 36 -3 7 -1 17 -1 22 -2 5 -1 16
-1 25 -2 9 -1 20 -1 26 -2 5 -1 19 -2 32 -3 12 0 26 -1 31 -2 4 0 14 -1 22 -2
l13 0 -1 -6 c0 -4 -1 -11 -1 -16 -1 -6 -2 -18 -3 -26 0 -9 -1 -22 -2 -28 0 -6
-2 -25 -3 -42 -2 -17 -4 -41 -5 -54 -1 -14 -2 -29 -3 -34 -1 -6 -1 -17 -2 -24
l-1 -14 -11 -19 c-6 -11 -14 -23 -16 -28 -3 -5 -10 -15 -15 -24 -4 -9 -10 -17
-11 -20 -2 -2 -6 -9 -9 -15 -3 -6 -7 -13 -8 -15 -2 -2 -5 -8 -8 -12 -2 -5 -8
-16 -12 -23 -5 -7 -9 -16 -11 -18 -1 -2 -3 -6 -4 -8 -2 -2 -5 -7 -7 -11 -2 -5
-6 -12 -9 -15 -2 -4 -5 -10 -6 -12 -2 -2 -9 -15 -16 -27 -7 -13 -13 -23 -13
-24 0 0 -1 -2 -2 -3 -1 -2 -5 -9 -9 -15 -9 -18 -16 -29 -20 -34 -1 -3 -6 -12
-11 -20 -5 -8 -9 -15 -9 -16 -1 0 -2 0 -3 1 -2 0 -10 3 -19 6 -9 3 -19 6 -21
7 -3 1 -11 4 -18 6 -8 2 -27 9 -44 14 -18 6 -41 14 -52 17 -12 4 -23 8 -24 8
-3 1 -31 11 -57 19 -9 3 -16 6 -16 6 -2 2 10 36 16 50 1 2 8 20 10 27 3 10 9
27 11 31 1 2 2 4 2 5 0 1 0 2 1 3 0 1 2 6 4 12 2 5 4 10 4 12 0 1 2 6 4 11 2
5 3 10 4 12 3 6 7 17 14 38 7 22 19 55 20 56 1 0 11 -3 38 -12 9 -3 17 -5 18
-5 2 1 3 1 12 29 3 8 9 23 13 33 10 24 10 28 19 127 1 6 1 11 2 13 0 2 4 39 8
78 1 11 2 20 3 20 0 1 2 1 4 1 2 -1 7 -1 11 -1z m-1395 -133 c2 -4 6 -16 11
-27 4 -12 9 -27 12 -33 2 -7 4 -12 4 -13 0 -1 -1 -1 -2 -1 -3 0 -20 -5 -34
-10 -5 -2 -11 -3 -11 -3 -1 1 -4 8 -7 17 -4 8 -9 21 -11 29 -11 29 -12 31 -10
33 1 1 7 3 13 5 6 2 14 4 18 5 6 2 11 4 13 4 0 0 2 -3 4 -6z m1096 2 c15 -5
31 -10 32 -11 1 -1 1 -3 -1 -7 -1 -3 -3 -9 -5 -13 -1 -4 -6 -17 -11 -29 -4
-12 -8 -23 -9 -25 -1 -6 -1 -6 -11 -2 -5 2 -12 4 -16 5 -4 1 -8 3 -9 4 -2 0
-5 1 -6 2 -3 0 -3 1 -2 3 1 6 14 44 18 53 3 7 6 14 6 15 0 2 4 8 5 8 0 0 4 -1
9 -3z m-1213 -130 c1 -1 2 -4 3 -8 7 -19 11 -30 13 -35 0 -4 2 -8 2 -9 3 -7 8
-21 15 -41 9 -28 17 -49 19 -53 2 -6 12 -35 12 -37 0 -1 3 -8 6 -16 6 -16 19
-54 19 -56 0 -1 -9 -5 -23 -9 -12 -4 -26 -9 -31 -10 -5 -2 -10 -3 -11 -3 -1 0
-2 2 -4 8 -1 4 -4 12 -6 19 -3 6 -7 18 -10 28 -4 10 -7 20 -9 24 -4 11 -7 19
-16 48 -6 15 -11 31 -13 36 -2 4 -5 13 -7 21 -2 7 -6 19 -9 26 -7 18 -16 45
-16 46 0 2 10 6 54 20 11 3 12 3 12 1z m1341 -7 c12 -4 25 -8 30 -10 l8 -3 -1
-3 c0 -4 -3 -12 -10 -30 -1 -4 -3 -9 -3 -10 0 -1 -2 -6 -4 -11 -4 -10 -7 -21
-9 -26 0 -2 -2 -6 -3 -10 -10 -25 -14 -35 -19 -50 -3 -9 -6 -19 -8 -22 -3 -7
-10 -27 -14 -42 -3 -6 -6 -16 -8 -22 -3 -7 -6 -16 -8 -20 -4 -12 -4 -12 -8
-11 -1 1 -6 3 -10 4 -4 1 -15 5 -25 8 -10 3 -19 6 -19 6 -1 0 -2 1 -2 2 0 1 6
19 17 51 2 6 5 15 6 20 2 4 4 12 7 18 5 15 16 46 19 56 2 5 4 11 4 12 1 1 3 9
6 17 3 8 6 18 8 23 2 5 4 11 5 15 2 6 12 36 15 43 0 2 2 3 2 3 1 -1 11 -4 24
-8z m-1097 -212 c5 -12 12 -28 14 -32 2 -4 14 -38 14 -39 0 -2 -43 -18 -44
-16 -2 2 -32 79 -31 80 0 0 5 2 11 5 5 2 10 4 11 4 3 2 20 7 21 6 1 0 2 -4 4
-8z m853 1 c3 -2 9 -4 13 -6 5 -1 8 -3 8 -4 0 -2 -5 -16 -15 -39 -5 -11 -10
-25 -12 -31 -2 -6 -4 -11 -5 -11 0 0 -41 16 -41 17 -1 1 4 14 8 24 7 17 13 32
17 44 2 6 4 12 5 13 1 1 3 0 9 -2 5 -2 10 -4 13 -5z m-902 -113 c2 -2 3 -5 3
-5 0 0 6 -11 14 -24 7 -13 13 -24 13 -25 0 0 3 -6 7 -13 4 -7 9 -15 11 -18 1
-3 7 -13 12 -22 5 -9 11 -20 13 -23 4 -9 17 -31 30 -54 13 -23 13 -23 19 -34
3 -5 6 -10 6 -11 2 -2 6 -8 12 -21 4 -6 9 -16 12 -21 3 -6 8 -14 10 -19 3 -5
7 -12 10 -17 12 -20 40 -71 40 -72 0 -1 1 -3 3 -5 1 -2 2 -4 2 -5 0 0 -52 1
-63 2 l-8 0 -2 4 c-1 3 -6 13 -11 21 -2 2 -5 8 -9 15 -3 6 -8 14 -10 18 -3 4
-5 8 -5 8 0 1 -13 24 -20 36 -1 3 -5 10 -9 17 -3 7 -8 15 -10 19 -2 3 -6 10
-9 16 -5 10 -24 42 -25 44 0 0 -4 6 -7 12 -3 7 -8 15 -10 18 -2 4 -6 11 -8 16
-3 4 -10 17 -16 27 -5 9 -12 22 -15 28 -9 17 -20 37 -26 47 -8 13 -14 26 -14
26 0 1 8 3 17 6 9 4 21 8 28 10 6 2 11 4 11 4 1 0 2 -2 4 -5z m946 -2 c10 -3
22 -8 28 -10 6 -2 11 -3 11 -3 0 -1 -8 -18 -13 -25 -7 -12 -11 -19 -20 -37 -3
-5 -6 -10 -7 -11 -3 -4 -16 -28 -16 -28 0 -1 -3 -6 -7 -13 -4 -7 -9 -16 -11
-21 -3 -5 -6 -11 -8 -14 -3 -3 -8 -12 -12 -20 -5 -8 -11 -20 -15 -26 -4 -6 -9
-15 -12 -20 -7 -13 -7 -13 -15 -28 -5 -8 -10 -18 -12 -21 -3 -4 -6 -11 -8 -15
-5 -8 -6 -10 -14 -23 -2 -5 -6 -11 -8 -14 -1 -3 -5 -10 -8 -15 -3 -6 -6 -10
-6 -10 0 -1 -11 -19 -16 -28 -1 -3 -2 -3 -9 -3 -5 -1 -21 -1 -36 -2 l-27 0 6
12 c4 7 9 16 11 19 2 4 6 11 8 14 2 4 5 9 6 11 1 2 3 6 4 7 1 2 4 7 6 11 2 3
9 14 14 24 5 9 10 17 10 18 2 2 9 15 10 17 1 1 11 20 24 43 13 22 26 45 28 50
3 4 6 9 7 10 1 1 7 13 15 27 2 3 5 10 8 14 6 11 20 36 29 51 4 7 8 15 9 17 1
1 3 4 4 6 1 2 3 6 5 9 11 19 16 27 16 28 0 1 3 5 4 5 0 0 8 -3 17 -6z m-1003
-26 c3 -6 8 -15 10 -19 2 -4 7 -13 11 -20 5 -8 13 -24 20 -36 14 -24 16 -29
22 -39 2 -4 4 -7 4 -8 0 0 2 -3 4 -7 3 -4 8 -14 12 -21 8 -15 14 -25 18 -31 1
-2 5 -11 10 -19 9 -17 24 -45 33 -60 3 -5 6 -11 8 -13 7 -13 15 -29 16 -29 0
-1 4 -7 7 -13 3 -7 9 -17 12 -22 5 -8 11 -20 11 -22 0 0 -61 0 -62 1 0 0 -3 5
-6 11 -3 5 -6 12 -8 15 -6 11 -12 21 -16 29 -5 10 -33 58 -35 62 -1 2 -3 6 -5
9 -4 8 -19 35 -20 37 -1 1 -2 4 -4 8 -2 3 -9 16 -16 29 -7 13 -13 23 -13 23 0
1 -5 9 -10 19 -23 40 -26 46 -37 65 -16 30 -24 44 -24 45 0 1 4 2 9 4 5 2 16
6 25 8 8 3 15 6 16 6 0 0 4 -5 8 -12z m1059 7 c6 -2 17 -6 25 -8 7 -3 13 -5
13 -5 1 -1 -4 -11 -18 -35 -6 -10 -12 -21 -14 -24 -2 -4 -6 -12 -10 -18 -3 -6
-6 -11 -6 -11 0 -1 -2 -5 -5 -9 -5 -10 -26 -45 -29 -52 -3 -6 -11 -20 -20 -35
-4 -7 -7 -12 -7 -12 0 -1 -2 -5 -5 -10 -3 -4 -11 -18 -17 -29 -6 -11 -15 -26
-19 -33 -4 -7 -9 -16 -11 -20 -11 -20 -35 -62 -37 -64 -1 -1 -9 -1 -32 -1
l-30 0 4 8 c5 9 27 47 36 62 1 3 5 9 8 15 3 5 7 12 9 15 3 5 6 11 14 27 5 7
11 19 17 29 1 2 3 6 5 8 6 11 21 38 29 51 4 7 10 18 13 24 3 5 9 15 13 22 11
18 18 31 20 35 1 2 2 4 3 5 1 1 5 8 9 16 5 8 10 17 12 21 2 3 4 8 6 10 6 11
12 22 12 22 0 0 6 -2 12 -4z m-253 -372 l7 0 -1 -2 c-2 -3 -7 -11 -12 -21 -2
-3 -4 -6 -4 -7 -1 -1 -58 -1 -277 -1 -262 0 -277 0 -278 2 -2 2 -3 4 -7 12 -2
3 -5 8 -7 11 l-3 6 11 0 c9 0 524 0 571 0z M931 2021 c0 -1 0 -12 0 -25 1 -25
1 -25 7 -33 2 -3 4 -6 5 -8 2 -5 4 -8 7 -12 1 -1 4 -6 6 -11 2 -4 7 -12 10
-18 4 -6 10 -16 14 -22 4 -7 11 -19 16 -27 5 -8 10 -18 13 -22 2 -4 5 -9 6
-11 1 -1 5 -7 8 -13 4 -7 9 -15 12 -20 3 -4 5 -8 5 -9 0 0 1 -2 3 -4 2 -3 3
-5 3 -6 0 0 1 -2 3 -5 1 -2 5 -9 8 -14 4 -6 7 -10 8 -10 2 -1 67 -1 68 0 1 0
1 36 0 109 0 60 0 120 0 134 -1 14 -1 26 -1 27 -1 1 -200 1 -201 0z m8 -3 c0
-1 1 -2 1 -3 0 -11 0 -45 0 -46 -1 0 -2 1 -3 3 -1 3 -2 6 -2 24 0 11 0 21 0
22 1 1 2 1 4 0z m10 0 c2 -2 4 -71 2 -71 0 0 -2 2 -2 4 -1 2 -3 5 -4 7 -1 3
-2 7 -2 31 0 30 0 30 4 30 1 0 2 0 2 -1z m13 -1 c1 -1 1 -21 2 -45 0 -43 0
-44 -2 -43 -1 1 -3 4 -4 7 l-3 6 0 38 0 39 3 0 c3 0 4 -1 4 -2z m14 -2 c1 -6
1 -99 0 -105 l-1 -5 -3 6 -3 7 0 31 c-1 17 -1 39 -2 50 l0 19 3 0 c6 1 6 1 6
-3z m12 0 c1 -3 1 -130 1 -131 -1 0 -2 3 -4 7 l-4 7 -1 59 c0 33 0 60 0 61 1
1 3 1 4 1 3 0 4 -1 4 -4z m39 1 c1 -2 1 -30 1 -63 0 -33 0 -78 1 -99 l0 -38
-4 6 c-2 3 -5 7 -5 8 -1 3 -2 178 -1 184 0 3 1 4 3 4 2 1 4 1 4 1 0 0 1 -1 1
-3z m12 2 c1 -2 2 -215 1 -218 0 -2 -1 -3 -1 -3 0 0 -2 3 -3 7 l-3 7 0 78 c-1
42 -1 89 -2 103 l0 26 3 0 c5 1 5 1 5 0z m13 -6 c1 -9 2 -237 1 -237 0 0 -3 4
-5 8 l-4 9 0 112 c0 62 0 113 0 114 1 0 2 1 4 0 3 -1 4 -1 4 -6z m24 4 c1 -1
1 -47 1 -103 1 -57 1 -115 2 -131 l0 -29 -3 0 c-3 0 -4 1 -4 5 -1 2 -1 39 -1
82 0 42 0 100 0 128 -1 46 -1 50 1 50 2 1 4 0 4 -2z m-74 1 c0 -1 0 -30 1 -66
0 -35 0 -70 1 -77 0 -7 0 -13 -1 -13 0 -1 -3 3 -5 7 l-5 8 0 71 -1 71 4 0 c3
0 5 -1 6 -1z m12 -49 c0 -61 1 -117 2 -120 0 -2 0 -4 -1 -6 l0 -3 -2 2 c-1 1
-3 5 -4 8 -2 5 -2 6 -2 81 0 42 0 78 0 82 l0 6 3 0 4 0 0 -50z m50 49 c1 0 1
-39 2 -86 0 -46 0 -85 1 -85 0 0 0 -22 1 -47 0 -52 1 -51 -6 -38 l-4 7 0 124
c0 68 0 125 0 125 0 1 6 1 6 0z m27 -7 c1 -10 2 -248 1 -253 0 -4 0 -4 -4 -4
-4 0 -4 0 -4 4 -1 6 -2 256 -1 259 0 2 1 2 4 2 l4 0 0 -8z m11 7 c1 0 1 -36 1
-79 1 -42 1 -99 2 -126 0 -26 0 -50 0 -53 -1 -6 -1 -6 -4 -6 -3 0 -4 0 -4 3
-1 2 -1 18 -1 35 0 18 0 76 -1 129 0 53 0 97 1 97 0 1 6 1 6 0z m13 0 c2 -2 2
-24 2 -137 0 -93 0 -125 -1 -126 -1 -2 -7 0 -7 2 -1 5 -2 109 -2 230 l0 32 4
0 c2 0 4 0 4 -1z m14 -131 c0 -116 -1 -132 -2 -133 -2 -1 -3 -1 -4 1 0 1 -1
43 -1 104 -1 56 -1 114 -2 130 0 15 0 29 1 29 0 1 2 1 4 1 l4 0 0 -132z M1228
2021 c-1 -1 -1 -268 1 -270 0 -1 15 -1 33 -1 l33 0 3 5 c2 2 3 5 3 5 0 1 3 5
6 11 3 6 6 10 6 11 0 0 1 2 3 5 2 3 6 9 8 14 2 4 5 8 5 9 1 1 2 3 3 5 4 7 13
23 15 24 0 1 2 4 4 8 2 4 5 8 6 11 1 2 3 6 5 8 1 2 3 6 5 8 1 1 4 7 7 13 5 9
12 20 18 29 1 2 4 7 6 12 3 5 6 10 7 12 1 1 4 6 7 11 3 5 6 11 8 14 2 4 4 8 5
10 0 6 1 46 0 46 -11 0 -197 0 -197 0z m8 -14 c1 -21 1 -251 0 -253 -1 -2 -4
-3 -4 0 -1 2 -1 264 0 264 0 1 1 1 2 1 1 0 2 -3 2 -12z m12 3 c0 -5 1 -52 1
-105 0 -53 0 -108 0 -122 1 -14 0 -27 0 -28 -1 -2 -2 -2 -4 -2 l-4 0 0 132 0
133 2 0 c4 1 4 1 5 -8z m12 8 c1 -1 1 -23 1 -132 0 -117 0 -132 -1 -133 -2 -1
-2 -1 -4 0 -1 2 -1 8 -2 55 0 29 0 89 -1 132 l0 78 2 0 c1 1 3 1 3 1 0 0 1 0
2 -1z m14 -9 c1 -5 1 -47 1 -93 1 -133 1 -160 0 -162 0 -1 -1 -1 -1 -1 0 1 -1
1 -2 0 -5 -2 -5 1 -6 15 0 35 -1 245 0 247 0 3 2 4 6 3 2 0 2 -1 2 -9z m11 9
c1 -2 2 -96 2 -202 1 -65 1 -65 -4 -64 -2 0 -3 1 -3 9 -1 9 -1 256 0 257 0 1
4 1 5 0z m27 -115 l1 -114 -3 -6 c-2 -3 -4 -6 -4 -7 -1 -1 -2 18 -2 64 0 35 0
90 0 121 l-1 57 4 0 c2 0 4 0 4 0 1 0 1 -52 1 -115z m12 113 c1 -4 2 -182 2
-201 -1 -4 -1 -7 -5 -12 -4 -7 -5 -8 -5 -5 0 1 0 51 0 111 0 59 0 108 0 109 1
0 2 1 4 1 3 0 4 0 4 -3z m40 -70 l0 -70 -4 -7 c-2 -4 -4 -7 -5 -7 0 -1 -1 25
-1 56 0 31 0 63 0 70 -1 7 -1 17 0 22 l0 8 4 0 c3 0 5 0 5 -1 1 0 1 -32 1 -71z
m11 66 c0 -4 1 -31 1 -61 l0 -54 -3 -7 c-4 -8 -4 -8 -5 -7 0 1 0 31 -1 67 0
48 0 66 1 67 0 1 2 2 4 2 2 0 3 -1 3 -7z m14 -10 c1 -47 1 -65 0 -75 -1 -10
-1 -11 -4 -17 -3 -3 -5 -6 -5 -6 -1 0 -1 15 -1 34 0 19 0 38 0 42 0 4 0 14 0
23 l0 15 4 0 c6 1 6 1 6 -16z m11 16 c1 -1 1 -8 1 -39 l0 -38 -3 -7 c-2 -4 -4
-7 -5 -7 0 0 0 20 0 45 0 43 0 46 2 46 3 1 3 1 5 0z m-101 -9 c1 -5 1 -42 1
-81 1 -39 1 -77 1 -84 0 -7 0 -27 0 -44 l0 -32 -3 -6 c-4 -7 -6 -9 -6 -7 -1 2
-2 260 -1 262 0 0 2 1 4 1 l4 0 0 -9z m38 -74 c1 -45 1 -87 1 -93 0 -9 0 -10
-3 -16 -2 -4 -4 -6 -4 -6 -1 0 -1 45 -1 99 l0 99 3 0 4 0 0 -83z m12 81 c1 0
1 -34 1 -74 0 -41 0 -77 0 -80 1 -7 0 -8 -2 -13 -6 -11 -6 -13 -5 32 0 23 -1
59 -1 80 0 20 0 42 0 47 l0 10 3 0 c3 0 4 -1 4 -2z m63 1 c0 -1 1 -12 1 -27 1
-14 1 -26 1 -27 0 -2 -7 -14 -9 -15 0 0 -1 3 0 10 0 6 0 22 0 35 l0 25 3 0 c1
0 3 -1 4 -1z M1446 1858 c-12 -2 -13 -3 -24 -22 -6 -9 -12 -19 -13 -21 -2 -4
-3 -5 -7 -5 -3 0 -5 -1 -6 -2 -2 -1 -12 -18 -18 -29 -2 -2 -3 -6 -3 -9 -1 -2
-4 -9 -7 -15 -12 -21 -13 -22 -22 -29 -9 -6 -11 -10 -16 -17 -6 -12 -9 -28 -6
-41 4 -15 6 -20 8 -23 3 -3 3 -3 2 -7 -1 -1 -3 -4 -5 -5 -2 -2 -3 -3 -4 -2 -1
1 -4 3 -7 5 -6 3 -6 3 -12 2 -8 0 -22 -5 -25 -8 -3 -2 -17 -26 -23 -37 l-2 -5
2 -5 c4 -8 10 -16 15 -20 8 -5 62 -37 66 -38 2 -1 5 -1 14 0 l12 1 4 7 c2 4 8
13 12 20 9 15 10 18 8 24 -1 3 -3 8 -4 13 l-2 8 -7 4 c-3 2 -6 4 -7 5 0 1 3 8
5 10 1 0 6 1 11 1 9 1 16 3 26 7 18 8 28 21 32 40 1 4 4 10 18 33 4 8 9 14 10
15 2 0 8 8 10 12 1 1 2 4 3 6 5 8 10 17 10 18 0 1 0 3 0 5 -1 5 0 8 9 24 9 14
14 25 14 30 0 1 -1 6 -2 9 -1 4 -2 7 -1 7 1 2 -4 6 -39 26 -19 11 -19 11 -29
8z m10 -3 c0 -2 -2 -3 -6 -5 -4 -1 -7 -2 -9 -2 -2 0 -6 -4 -11 -10 -3 -5 -4
-6 -2 -2 1 2 1 2 0 1 -3 -2 -3 1 0 4 1 1 2 3 2 4 0 2 6 7 12 9 9 3 14 4 14 1z
m12 -5 c4 -2 13 -7 19 -11 6 -3 13 -8 16 -10 2 -1 4 -3 5 -3 0 0 1 -2 3 -4 1
-3 1 -7 1 -13 0 -10 -1 -14 -9 -26 -3 -5 -7 -11 -8 -13 -4 -7 -5 -8 -5 -5 0 2
5 12 9 19 2 4 4 7 4 8 0 0 1 1 2 2 2 2 2 4 2 18 0 8 0 12 -3 13 -1 0 -6 2 -9
4 -4 3 -12 7 -16 10 -5 2 -11 5 -12 6 -2 1 -3 2 -4 2 -2 0 -4 3 -4 6 0 1 0 2
1 2 0 0 4 -2 8 -5z m-12 -2 c0 -1 3 -3 8 -5 12 -7 12 -7 20 -11 3 -3 8 -5 10
-6 7 -4 9 -6 9 -9 0 -1 0 -2 -1 -2 -1 0 -1 0 -1 1 0 1 -10 7 -17 9 -6 3 -16 9
-17 11 0 0 -3 2 -6 4 -8 4 -10 6 -9 8 0 1 4 2 4 0z m-11 -4 c0 -1 -4 -6 -8
-10 -2 -3 -3 -3 -3 -2 0 1 0 2 1 2 1 0 1 1 1 2 -1 1 0 3 3 5 4 4 6 5 6 3z m6
-16 c-2 -5 -4 -6 -4 -4 0 2 4 8 5 8 1 0 0 -2 -1 -4z m23 -2 c8 -4 8 -5 6 -8
-2 -2 -4 -5 -5 -8 -1 -2 -3 -4 -4 -4 -2 0 -13 6 -13 7 0 2 8 16 9 16 1 0 4 -1
7 -3z m-28 -6 c-1 0 -1 0 -2 0 0 1 0 1 1 1 1 0 1 0 1 -1z m17 -14 c6 -4 8 -6
4 -9 -2 -2 -2 -2 -8 2 -6 3 -7 4 -6 6 0 2 2 5 3 5 0 0 3 -2 7 -4z m42 2 c0 -3
-5 -15 -8 -20 -3 -4 -6 -9 -6 -10 -1 -3 -4 -4 -4 -2 0 1 1 3 3 6 6 11 8 15 9
19 1 3 2 6 2 7 1 1 4 1 4 0z m-63 -16 c14 -6 22 -13 28 -25 4 -8 5 -9 5 -18 0
-8 -1 -9 -4 -15 -2 -4 -5 -8 -6 -10 -2 -1 -5 -5 -8 -8 -6 -10 -16 -27 -16 -29
0 0 0 -1 -1 -1 -1 0 -1 1 -1 2 0 2 -6 13 -11 19 -12 15 -33 25 -54 25 l-5 0 4
7 c8 14 13 23 15 29 4 14 12 22 24 26 7 2 23 1 30 -2z m-58 -72 c14 -3 29 -12
38 -24 8 -10 12 -28 8 -35 -1 -1 -1 -1 -1 2 0 5 -3 15 -6 22 -7 12 -23 24 -38
29 -9 2 -26 1 -32 -2 -3 -1 -5 -2 -6 -2 0 1 9 8 10 8 0 0 3 1 6 1 6 2 14 2 21
1z m4 -16 c9 -4 12 -6 19 -12 13 -13 17 -30 11 -42 -5 -10 -6 -10 -4 -1 2 8
-3 22 -10 30 -9 12 -28 20 -42 19 -6 -1 -15 -4 -20 -9 -4 -3 -5 -2 -2 3 4 5
11 11 17 13 8 3 21 2 31 -1z m-13 -16 c22 -5 36 -26 29 -42 l-1 -5 -1 7 c-1
14 -8 24 -21 31 -5 3 -7 3 -16 4 -8 0 -10 1 -9 2 0 0 0 1 -1 1 -3 0 1 2 5 3 6
1 9 1 15 -1z m0 -21 c4 -2 12 -10 13 -14 0 -1 0 -3 0 -4 -1 -5 -10 -15 -14
-17 -5 -3 -16 -13 -18 -17 0 -2 -1 -3 -1 -3 -1 0 -3 2 -6 4 -3 1 -6 3 -6 3 -1
0 -2 0 -3 1 -1 1 -1 2 1 5 4 6 7 16 7 21 0 8 5 19 10 22 4 2 13 1 17 -1z m18
-18 c-1 0 -1 0 -1 1 0 1 0 1 1 1 0 -1 0 -1 0 -2z m1 -5 c-1 -1 -1 -2 -1 -2 -1
0 -1 1 0 2 0 1 1 2 1 2 1 0 1 -1 0 -2z m-3 -6 c-2 -3 -10 -7 -10 -6 -1 0 1 2
3 4 2 2 3 3 3 2 -1 -2 -1 -2 1 -1 1 0 2 2 2 3 1 1 1 1 2 1 0 -1 0 -2 -1 -3z
m-79 -16 c3 -2 11 -6 18 -10 7 -4 18 -10 25 -15 7 -4 13 -7 13 -7 3 0 9 -10 9
-16 0 -4 -17 -34 -20 -36 -1 -1 -5 -1 -8 -2 l-6 0 -19 11 c-11 7 -25 15 -32
19 -15 9 -16 10 -19 16 l-3 6 2 5 c13 21 15 26 17 28 2 1 11 5 15 5 1 0 4 -2
8 -4z M897 1848 c-9 -5 -14 -8 -26 -16 -5 -3 -9 -6 -10 -6 0 0 -2 -1 -5 -3 -5
-4 -8 -9 -9 -19 -1 -8 0 -11 7 -21 6 -9 15 -23 17 -26 1 -3 1 -4 0 -8 -2 -8
-3 -6 12 -28 4 -7 9 -14 11 -16 2 -1 7 -7 11 -12 3 -6 8 -13 10 -16 2 -4 4 -7
5 -16 3 -15 7 -22 15 -31 5 -5 9 -8 15 -11 10 -5 23 -8 34 -9 l9 0 2 -4 c2 -6
1 -8 -6 -12 -3 -2 -7 -5 -7 -5 -1 -2 -6 -19 -6 -25 -1 -5 0 -8 11 -24 5 -8 10
-15 11 -18 1 -2 3 -4 5 -5 1 -1 7 -1 12 -1 12 0 10 -1 35 15 8 5 21 13 29 17
19 13 21 14 22 18 1 1 2 6 3 10 3 8 4 11 1 13 -1 1 -4 5 -12 18 -12 19 -12 20
-25 23 -5 1 -11 2 -13 2 -4 0 -9 -2 -13 -6 l-3 -2 -4 4 c-5 5 -5 7 -1 13 3 5
6 17 6 29 1 7 1 10 -1 17 -3 12 -6 17 -16 27 -5 5 -10 11 -16 20 -16 25 -18
28 -18 32 0 1 -2 6 -5 11 -3 4 -8 12 -11 16 -5 8 -5 9 -12 10 -2 1 -4 3 -6 7
-17 27 -23 36 -27 37 -4 3 -15 5 -20 5 -3 0 -6 -1 -11 -4z m27 -2 c7 -3 17
-18 15 -21 0 -2 -1 -1 -4 2 -7 11 -14 17 -20 16 -2 -1 -4 -1 -5 0 -1 1 -2 4
-1 5 1 2 11 0 15 -2z m-20 -1 c0 -1 -1 -2 -2 -2 -1 -1 -10 -6 -20 -13 -11 -7
-19 -12 -21 -12 -4 0 -5 -2 -5 -6 0 -3 -1 -7 -1 -10 -2 -6 -2 -6 -2 -3 -1 2
-1 3 -2 3 -2 -1 -2 0 -1 4 1 9 2 10 28 26 23 15 26 17 26 13z m6 -6 c0 -1 -3
-3 -5 -4 -3 -2 -7 -5 -9 -6 -5 -5 -14 -11 -16 -11 -2 0 -15 -6 -17 -9 -1 -1
-2 -1 -3 -1 0 1 2 2 5 4 7 5 8 6 2 3 -6 -3 -6 -2 0 1 3 2 12 8 21 14 9 5 16
10 17 10 2 1 5 1 5 -1z m15 -5 c2 -1 6 -7 9 -12 3 -5 7 -11 8 -12 2 -3 2 -5 0
-4 -2 0 -4 4 -12 16 -2 3 -5 7 -7 7 -2 2 -5 8 -4 9 0 1 3 0 6 -4z m-22 -19 l5
-7 -4 -3 c-3 -1 -5 -3 -6 -3 -1 -1 -2 -2 -3 -2 -2 -1 -2 -1 -3 0 -7 11 -8 14
-7 15 1 2 11 8 12 7 1 0 4 -3 6 -7z m11 5 c0 -1 0 -1 -1 0 -1 0 -1 1 -1 1 0 1
0 1 1 1 1 -1 1 -2 1 -2z m34 -7 c1 -2 2 -4 3 -4 0 -1 1 -2 1 -3 1 -1 0 -2 -1
-1 -1 0 -2 1 -3 2 0 1 -1 3 -2 5 -2 4 -2 5 -1 5 1 0 2 -2 3 -4z m-68 -18 c0
-1 0 -2 0 -2 -1 0 -5 6 -5 8 -1 2 -1 2 2 -1 2 -2 3 -4 3 -5z m32 6 l3 -2 -4
-3 c-2 -2 -5 -4 -7 -5 -4 -2 -4 -2 -6 0 -1 1 -2 2 -2 3 0 2 6 6 10 8 3 1 3 1
6 -1z m-49 -5 c1 -3 4 -8 6 -12 2 -3 3 -6 2 -6 -1 0 -1 1 -1 2 0 0 0 1 -1 1
-1 0 -9 10 -11 15 -1 3 -1 3 0 5 3 1 3 1 5 -5z m-10 -5 c0 -1 0 -1 0 -1 -1 0
-1 0 -1 1 -1 1 -1 1 -1 1 1 0 1 0 2 -1z m32 -5 c0 -1 1 -3 2 -4 1 -1 2 -2 2
-2 -1 0 -7 5 -7 7 -1 1 -1 3 0 3 0 2 3 -2 3 -4z m71 -1 c4 -1 8 -4 11 -7 7 -7
9 -10 9 -15 1 -4 5 -12 17 -29 3 -6 6 -10 6 -11 0 0 -2 1 -4 1 -6 2 -22 0 -34
-6 -13 -6 -27 -19 -33 -30 -1 -3 -3 -5 -3 -5 0 0 -2 2 -3 4 -4 8 -17 27 -19
28 -5 2 -13 16 -14 24 -2 19 15 40 36 47 8 3 23 2 31 -1z m-99 0 c1 -2 4 -5 4
-7 0 -1 -3 2 -5 6 -2 3 -2 4 1 1z m3 0 c-1 0 -1 0 -1 1 0 1 0 1 1 1 0 -1 0 -1
0 -2z m5 -5 c0 -1 0 -1 0 -1 -1 0 -1 0 -1 1 -1 1 -1 1 -1 1 1 0 1 0 2 -1z m-2
-5 c1 0 1 -1 0 0 -1 0 -1 1 -1 1 0 1 1 1 1 -1z m12 -3 c-1 0 -1 0 -1 1 0 1 0
1 1 1 0 -1 0 -1 0 -2z m0 -13 c-1 0 -1 0 -1 1 0 1 0 1 1 1 0 -1 0 -1 0 -2z
m125 -46 c3 -1 7 -2 8 -3 l3 -1 -3 -1 c-1 0 -7 0 -11 0 -15 1 -29 -4 -40 -13
-6 -5 -14 -15 -17 -20 -2 -6 -5 -18 -4 -21 0 -2 0 -2 -1 -1 -2 1 -3 12 -2 17
1 6 8 18 12 23 14 16 37 24 55 20z m7 -15 c8 -3 16 -9 17 -15 1 -2 1 -2 -3 1
-7 4 -13 6 -22 6 -29 0 -52 -25 -48 -50 0 -4 1 -7 0 -7 0 -1 -5 11 -6 16 -2
17 5 32 21 42 14 9 28 11 41 7z m7 -20 c3 -1 5 -4 5 -5 1 -1 2 -2 3 -2 0 0 1
-1 1 -2 0 -1 0 -1 -7 3 -11 8 -29 5 -41 -5 -7 -7 -11 -15 -12 -22 0 -5 0 -6
-1 -4 -1 1 -2 2 -2 2 0 -1 -1 1 -1 4 0 5 2 12 5 18 2 3 12 11 18 14 9 4 25 4
32 -1z m-5 -19 c4 -3 7 -10 8 -18 1 -8 4 -18 7 -22 3 -4 2 -6 -3 -8 -2 -1 -5
-3 -6 -4 -3 -2 -4 -2 -4 0 -3 5 -14 15 -18 17 -5 3 -11 9 -13 13 -5 13 5 25
20 25 5 0 6 0 9 -3z m11 -2 c0 -2 -1 -1 -2 2 0 0 1 1 1 0 1 0 1 -1 1 -2z m2
-7 c0 -5 -1 -5 -3 -1 -1 4 -1 5 1 5 1 -1 2 -2 2 -4z m-41 -20 c2 -3 4 -5 4 -5
0 -4 -10 4 -12 9 -2 4 -3 8 -1 5 1 -1 1 -1 2 2 0 2 0 2 1 -2 1 -3 2 -6 6 -9z
m-18 4 c-1 0 -1 0 -1 1 0 1 0 1 1 1 0 -1 0 -1 0 -2z m109 -18 c1 -1 6 -8 11
-16 9 -13 10 -16 10 -19 0 -6 -3 -11 -10 -16 -10 -6 -30 -18 -46 -28 -14 -9
-15 -9 -21 -9 l-7 0 -3 5 c-3 3 -7 10 -11 16 -7 11 -7 12 -7 17 1 9 3 12 11
17 3 2 8 5 10 7 6 4 20 12 25 15 2 1 8 5 14 8 l10 7 6 -2 c3 0 6 -1 8 -2z
M1670 1774 c-2 -3 -7 -11 -11 -17 -7 -11 -21 -33 -29 -45 -5 -9 -40 -93 -40
-98 0 -1 3 -3 10 -7 8 -3 12 -6 15 -10 3 -3 6 -5 10 -6 13 -5 18 -7 27 -12 4
-3 17 -10 28 -16 10 -5 21 -11 23 -13 7 -5 12 -8 17 -9 5 -1 12 -4 18 -9 3 -2
6 -3 6 -3 1 0 3 2 4 4 2 4 18 28 24 36 2 2 9 13 16 23 13 19 17 27 26 47 5 9
8 16 18 38 6 12 6 13 5 15 0 0 -3 2 -7 4 -4 2 -11 6 -16 9 -10 6 -11 6 -13 0
0 -2 -1 -3 -1 -3 -1 -1 -17 7 -39 19 -16 10 -23 13 -46 25 -6 3 -11 6 -11 7 2
4 4 8 4 9 -1 1 -7 5 -14 8 -7 4 -14 8 -15 9 -1 1 -3 2 -4 2 0 0 -3 -3 -5 -7z
m18 -9 c5 -3 9 -6 9 -6 1 0 0 -2 0 -4 -1 -1 -3 -4 -4 -6 -2 -5 -8 -17 -12 -22
-2 -3 -2 -4 -4 -2 0 0 -2 1 -2 0 -1 0 -1 0 -1 1 0 0 2 3 5 5 3 3 4 4 4 5 -1 3
-3 2 -6 -1 -1 -1 -4 -3 -6 -4 -3 -1 -10 -10 -17 -24 -2 -4 -5 -7 -5 -8 -2 -1
-12 5 -12 7 0 2 13 22 34 54 3 4 5 8 5 9 0 2 3 1 12 -4z m22 -30 c7 -4 20 -11
29 -16 9 -6 26 -14 37 -20 11 -6 20 -11 20 -11 1 0 0 -4 -2 -7 -2 -4 -8 -16
-13 -27 -5 -12 -11 -24 -13 -27 -2 -4 -6 -10 -9 -15 -2 -4 -5 -8 -6 -8 -1 0
-2 1 -4 2 -1 1 -7 4 -13 7 -6 3 -15 8 -20 11 -6 4 -16 9 -23 13 -16 8 -43 23
-44 24 -2 2 23 48 39 71 2 2 3 4 3 4 0 2 4 6 5 6 0 0 7 -3 14 -7z m-69 -36 c3
-1 5 -3 5 -4 0 -1 -4 -11 -10 -21 -2 -5 -8 -14 -11 -20 -3 -7 -7 -15 -9 -17
-1 -2 -3 -6 -5 -9 l-2 -4 5 -6 c4 -3 6 -6 6 -6 0 0 -1 -1 -2 -2 -1 -2 -2 -1
-10 2 -5 2 -8 4 -8 5 0 2 8 22 12 32 2 3 6 14 10 24 9 22 12 29 13 29 0 0 3
-2 6 -3z m177 -6 c5 -2 9 -5 9 -5 1 -2 0 -5 -11 -26 -4 -9 -8 -17 -8 -17 0 -1
-1 -4 -3 -7 -1 -4 -4 -9 -5 -12 -3 -8 -4 -8 -7 -6 -2 1 -3 2 -4 2 0 0 -1 1 -2
1 -2 2 -2 2 5 15 8 14 11 21 11 24 0 3 -2 2 -3 -2 -1 -2 -2 -4 -2 -4 0 -1 -3
-6 -6 -12 -4 -7 -6 -12 -7 -12 0 -1 -1 1 0 4 0 5 0 6 10 22 5 8 7 16 5 16 -5
2 -5 2 -1 9 5 10 8 15 10 15 0 0 4 -2 9 -5z m-21 -22 c0 -1 -2 -5 -4 -9 -2 -4
-4 -9 -5 -11 -3 -5 -5 -7 -7 -7 -1 0 -1 1 0 2 0 3 2 6 3 8 0 1 3 5 5 10 2 4 4
8 4 9 2 2 4 1 4 -2z m-140 -18 c4 -2 8 -5 10 -5 1 -1 4 -3 8 -5 3 -2 7 -4 10
-6 2 -1 7 -4 12 -6 4 -2 10 -6 14 -8 4 -2 11 -6 17 -10 16 -8 23 -12 24 -14 0
-2 -10 -10 -18 -15 -6 -3 -9 -2 -22 5 -4 3 -12 7 -17 10 -5 2 -12 7 -17 9 -5
3 -14 8 -21 11 -6 3 -12 6 -12 7 -1 1 -2 22 -1 27 0 3 1 4 3 4 1 0 5 -2 10 -4z
m-18 2 c1 -2 2 -32 1 -32 -3 0 -5 6 -5 16 -1 5 -1 11 -2 13 0 4 0 4 2 4 2 0 3
-1 4 -1z m-9 -7 c0 -3 1 -8 2 -13 2 -12 4 -15 19 -22 4 -3 17 -10 30 -16 29
-17 47 -26 49 -26 2 0 18 7 23 11 3 2 6 3 6 3 0 -1 -5 -11 -10 -20 -4 -7 -8
-11 -9 -11 -4 0 -42 17 -48 22 -1 1 -5 3 -19 11 -4 1 -13 6 -21 10 -8 5 -17 9
-20 11 -7 5 -18 15 -18 17 0 1 3 7 6 13 4 6 7 12 7 13 2 2 3 1 3 -3z m147 -31
c-1 -3 -4 -9 -6 -12 -4 -6 -5 -7 -5 -6 -1 2 0 4 3 10 3 4 5 8 5 9 0 0 1 2 3 2
1 1 3 2 3 2 0 0 -1 -2 -3 -5z m13 1 l4 -2 -3 -5 c-1 -2 -7 -11 -12 -18 -6 -8
-16 -23 -23 -34 -7 -10 -14 -19 -14 -19 -1 0 -4 2 -7 4 -5 3 -6 3 -6 6 0 3 1
4 7 1 6 -2 9 -1 11 5 2 2 4 7 6 11 2 3 4 6 4 7 0 0 1 1 2 3 1 2 4 6 6 10 2 4
6 13 10 19 3 6 6 12 6 12 0 1 2 2 3 2 1 0 3 -1 6 -2z m-164 -9 c1 -1 5 -4 9
-6 9 -6 10 -6 7 -8 -1 -1 -2 -1 -8 1 -10 3 -13 5 -13 9 0 2 2 5 3 5 0 0 1 -1
2 -1z m37 -21 c5 -3 10 -6 10 -6 1 0 21 -11 24 -13 1 -1 2 -2 2 -3 0 -3 -6 -1
-20 7 -9 5 -19 11 -24 13 -5 3 -8 5 -8 6 0 3 5 2 16 -4z m93 3 c0 -1 -1 -3 -2
-4 -3 -3 -21 -13 -24 -13 -2 0 -10 4 -10 6 0 1 0 1 5 -1 3 -1 4 -1 9 2 3 1 6
3 8 4 4 4 11 8 13 8 0 -1 1 -1 1 -2z m-47 -28 c2 -1 6 -3 9 -5 6 -2 6 -2 6 -5
0 -1 -1 -3 -1 -4 -1 -1 -3 0 -11 5 -9 6 -12 8 -12 10 0 2 5 1 9 -1z M665 1652
c-2 0 -15 0 -29 -1 -64 -3 -71 -4 -114 -13 -5 -1 -13 -3 -17 -4 -14 -2 -18 -4
-18 -6 1 -1 2 -7 2 -13 3 -16 4 -21 5 -22 1 0 3 0 5 0 2 1 4 1 4 0 1 0 3 -15
8 -46 1 -9 4 -28 8 -50 0 -5 1 -10 1 -10 0 0 -2 -1 -5 -1 -3 -1 -5 -1 -5 -2
-1 0 0 -9 1 -19 2 -9 3 -18 3 -18 0 0 12 0 36 2 54 4 53 4 75 10 7 2 20 5 30
8 32 8 38 10 42 12 3 1 3 2 3 6 0 2 -1 6 -2 8 -1 7 -1 14 1 17 1 3 1 3 0 6 -1
1 -2 4 -2 7 -1 2 -2 4 -2 5 0 0 -1 4 -2 9 -1 4 -2 9 -2 11 -1 2 -1 7 -2 12 -1
5 -2 11 -2 14 -2 10 -3 22 -4 32 -1 13 -2 19 -4 22 -1 2 -2 6 -2 10 -2 16 -2
15 -6 15 -2 0 -5 0 -6 -1z m4 -15 c1 -8 0 -10 -4 -10 -1 0 -2 1 -4 6 -1 4 -3
7 -3 7 -1 0 -3 0 -6 -1 -3 0 -7 -1 -9 -1 -2 0 -9 -1 -16 -2 -18 -3 -36 -6 -42
-7 -9 -2 -8 -2 -9 6 l0 6 8 0 c9 0 62 3 66 3 1 1 5 1 10 1 l8 0 1 -8z m-95 -3
c0 -6 0 -7 -7 -8 -24 -4 -32 -6 -38 -11 -4 -3 -4 -5 -4 -7 0 -3 -1 -4 -4 -5
-3 0 -8 -1 -13 -1 l-8 -1 -1 9 c-3 14 -3 14 -1 14 1 1 9 2 18 4 8 2 17 4 19 5
2 0 6 1 10 2 4 1 11 2 16 3 13 3 12 3 13 -4z m83 2 c0 -1 1 -3 2 -5 1 -3 2 -5
2 -6 2 -6 5 -19 5 -26 1 -4 2 -12 3 -17 0 -5 2 -13 2 -16 1 -4 2 -10 2 -12 1
-2 1 -8 2 -12 1 -4 2 -10 3 -14 1 -7 2 -34 0 -35 -1 -2 -31 -7 -32 -6 -1 0 3
4 7 8 5 4 10 10 11 12 2 3 2 3 1 13 -1 6 -2 19 -4 29 -2 10 -3 22 -4 27 -1 5
-2 12 -2 16 -1 3 -2 10 -3 13 -2 11 -2 12 -15 18 -13 7 -15 9 -13 9 1 1 8 2
16 3 8 1 15 2 15 2 0 0 1 -1 2 -1z m-43 -8 c0 -1 0 -2 -1 -2 -1 0 -1 0 -1 1 0
2 -3 1 -4 -1 -2 -1 -4 -2 -9 -2 -4 -1 -9 -2 -12 -2 -2 -1 -8 -2 -11 -3 -4 -1
-12 -2 -17 -4 -14 -5 -30 -9 -32 -9 -2 0 1 4 6 6 10 5 20 8 32 10 6 1 14 3 18
4 9 2 22 4 26 4 3 0 5 -1 5 -2z m13 -3 c10 -4 18 -9 19 -11 1 -3 1 -5 -1 -3
-2 1 -14 6 -18 6 -2 1 -5 2 -6 3 -4 3 -4 9 0 7 1 0 4 -1 6 -2z m-11 -7 c1 -1
6 -2 11 -4 12 -3 14 -4 16 -8 0 -1 2 -10 3 -19 2 -9 4 -23 5 -30 8 -41 8 -40
6 -43 -1 -1 -6 -5 -11 -9 -11 -7 -12 -8 -12 -14 0 -3 0 -3 -2 -2 -1 1 -1 2 -1
5 1 2 1 4 0 5 0 2 -2 8 -2 15 -1 6 -3 16 -4 21 0 4 -1 12 -2 17 -1 10 -7 42
-8 48 -3 12 -4 20 -3 23 1 2 2 2 2 -1 0 -3 1 -4 2 -4z m57 3 c1 -2 1 -10 2
-17 0 -7 3 -25 5 -40 4 -23 4 -26 3 -28 -3 -2 -4 1 -6 13 0 6 -1 11 -1 12 -1
0 -1 4 -1 7 -1 4 -2 9 -2 12 -1 3 -1 8 -2 11 0 4 0 7 0 8 -1 1 -1 3 -2 5 0 3
-1 8 -2 11 -1 9 -1 9 2 9 3 0 4 -1 4 -3z m-66 -4 c2 -3 6 -23 8 -38 1 -5 2
-15 3 -22 1 -8 3 -19 4 -25 2 -20 4 -31 5 -32 0 -3 -4 -5 -11 -6 -4 -1 -9 -2
-11 -2 -7 -2 -40 -5 -57 -6 l-17 0 1 4 c0 9 -3 27 -13 84 -2 13 -4 24 -3 24 0
0 3 1 7 2 4 1 13 4 21 6 21 6 31 8 44 8 6 1 12 1 14 2 4 1 4 2 -1 2 -7 -1 -13
-1 -13 0 0 1 4 2 11 2 6 0 7 0 8 -3z m81 -94 c2 -5 3 -9 3 -10 0 -2 -6 -6 -7
-5 -1 1 -3 17 -3 22 0 4 0 4 2 3 2 -1 3 -5 5 -10z m-27 -15 c-1 -2 -6 -7 -11
-11 -5 -5 -9 -9 -9 -9 0 -3 -3 2 -3 5 0 2 2 4 16 14 3 2 7 5 7 7 l2 2 0 -2 c0
-2 -1 -5 -2 -6z m26 -4 c2 -2 5 -18 4 -19 0 -1 -6 -2 -12 -4 -7 -2 -17 -4 -22
-6 -16 -4 -44 -11 -49 -12 -5 -1 -6 -1 -6 7 l1 6 24 4 c33 5 50 8 53 9 1 1 2
2 2 7 1 8 2 10 3 10 0 0 1 -1 2 -2z m-58 -12 c0 -3 -3 -4 -12 -5 -5 0 -11 -1
-13 -2 -5 -2 -16 -4 -12 -2 1 1 2 2 3 3 1 1 2 1 2 0 -1 -1 0 -1 2 -1 2 0 3 0
3 1 -1 2 0 2 2 3 18 4 25 5 25 3z m6 -6 c0 -1 0 -2 -1 -2 -1 0 -1 1 0 2 0 0 0
1 1 1 0 0 0 -1 0 -1z m-41 0 c-1 -1 -7 -2 -6 -1 0 1 2 1 3 1 2 0 3 0 3 0z
m-12 -2 c-5 -1 -5 -2 0 -2 3 0 2 -1 -5 -3 -15 -3 -15 -3 -17 -1 -2 1 -3 1 -5
0 -2 -1 -3 0 -4 1 -5 5 -2 5 27 6 5 0 7 0 4 -1z m49 0 c1 -1 1 -1 0 -1 -1 0
-3 0 -4 -1 -1 0 -2 0 -2 1 0 0 1 1 2 0 0 0 1 0 1 1 0 1 1 1 3 0z m-86 -4 c2
-4 5 -7 6 -5 1 1 2 0 5 -1 3 -3 3 -3 9 -1 4 0 9 1 12 1 3 0 9 1 13 1 4 1 8 2
8 2 0 -1 0 -4 0 -9 l1 -7 -7 -1 c-4 -1 -15 -1 -25 -2 -10 -1 -25 -2 -32 -2 -7
-1 -14 -2 -14 -1 0 0 -1 3 -1 6 0 4 -1 9 -2 12 l0 5 4 1 c4 1 17 4 21 4 0 0 1
-1 2 -3z m61 0 c-1 0 -1 0 -2 0 0 1 0 1 1 1 1 0 1 0 1 -1z M1086 1487 c-4 -1
-8 -3 -21 -12 -4 -2 -13 -7 -19 -10 -7 -4 -16 -9 -19 -11 -4 -2 -12 -6 -19
-10 -20 -12 -32 -18 -46 -27 -7 -4 -22 -12 -32 -18 -36 -20 -43 -24 -46 -26
-1 -1 -7 -4 -12 -7 -13 -7 -39 -22 -50 -29 -5 -2 -19 -10 -30 -17 -12 -6 -33
-19 -48 -27 -15 -8 -29 -17 -32 -18 -8 -4 -10 -8 -11 -17 0 -5 0 -6 8 -20 5
-9 13 -23 19 -33 5 -9 10 -17 10 -18 0 0 2 -3 5 -7 2 -4 4 -8 5 -9 0 -1 2 -4
4 -7 2 -3 4 -6 4 -7 0 -3 7 -8 16 -12 4 -1 4 -1 18 7 25 15 26 16 37 22 6 3
11 6 12 6 0 0 0 -6 1 -12 1 -7 1 -13 1 -13 1 0 1 -6 2 -13 1 -6 2 -17 3 -24 0
-8 2 -20 3 -29 0 -9 2 -24 3 -34 1 -11 2 -22 2 -25 l1 -6 -5 -1 c-6 -2 -11 -5
-21 -11 -3 -2 -9 -5 -13 -6 -3 -2 -13 -5 -21 -8 -9 -3 -17 -5 -20 -5 -4 0 -30
-8 -37 -12 -3 -2 -5 -3 -5 -5 0 -1 -1 -2 -2 -3 -2 -2 -19 -9 -32 -13 -17 -6
-19 -8 -24 -23 -3 -7 -3 -9 1 -17 2 -5 6 -16 11 -30 3 -8 5 -16 6 -17 3 -4 17
-11 22 -11 2 0 7 1 11 3 36 12 39 13 43 9 2 -1 3 -2 4 -2 2 0 29 10 35 13 2 1
6 3 8 4 3 3 11 6 26 11 9 4 10 4 23 4 12 0 17 1 24 4 11 4 15 8 24 19 4 5 7 9
7 9 0 0 14 -7 30 -15 l29 -14 2 -10 c3 -12 14 -57 16 -64 0 -4 2 -9 2 -12 2
-6 4 -14 19 -76 3 -15 6 -28 7 -29 0 -2 1 -5 2 -7 0 -2 4 -18 8 -35 4 -18 9
-39 11 -46 2 -7 3 -15 4 -17 0 -3 2 -8 3 -12 l2 -8 92 0 c51 0 109 0 130 0 21
0 40 0 43 0 l6 0 1 4 c1 2 1 6 2 8 0 3 2 9 3 15 4 14 5 18 6 27 1 3 4 17 7 29
3 12 8 30 10 40 1 9 4 21 5 27 2 5 5 16 7 25 2 9 4 18 5 21 2 8 21 87 25 107
3 11 4 13 10 16 3 2 11 6 19 11 25 14 43 23 43 22 0 0 2 -4 4 -8 5 -10 16 -21
24 -25 10 -5 16 -6 27 -6 10 1 11 1 20 -2 15 -6 31 -12 32 -14 2 -2 9 -5 24
-11 19 -7 19 -7 23 -4 3 4 7 4 26 -4 9 -3 19 -7 22 -8 l7 -1 9 4 c5 3 10 6 11
7 0 1 2 6 4 10 2 5 4 9 4 11 3 6 8 19 11 28 l3 10 -3 7 c-4 12 -8 17 -13 18
-2 1 -8 3 -15 5 -8 3 -17 6 -21 8 -8 2 -8 2 -11 7 -3 6 -4 7 -8 7 -1 0 -3 0
-4 1 -1 2 -25 9 -29 9 -5 0 -14 3 -30 9 -8 3 -14 5 -15 5 -1 0 -7 3 -13 8 -9
7 -22 11 -33 10 -5 0 -5 0 -5 2 0 3 5 45 8 69 2 18 9 74 10 82 l0 5 8 -4 c4
-3 14 -8 21 -12 7 -4 13 -8 14 -8 0 0 4 -3 10 -6 5 -3 11 -6 12 -6 3 -1 12 2
16 4 2 3 6 9 15 23 4 8 29 51 31 54 1 2 2 4 3 5 0 1 2 4 4 7 8 13 9 16 5 27
-1 5 -1 5 -10 9 -5 3 -11 6 -14 8 -3 2 -5 3 -5 3 -1 0 -4 2 -7 4 -4 2 -11 6
-16 9 -12 7 -29 16 -33 19 -3 1 -10 5 -16 9 -7 4 -19 10 -27 15 -7 4 -14 8
-14 8 -1 0 -5 3 -11 6 -5 3 -12 7 -15 9 -7 3 -18 10 -27 15 -8 5 -10 6 -35 20
-25 14 -27 15 -39 22 -6 3 -15 8 -21 12 -6 3 -15 8 -21 12 -6 3 -16 9 -23 12
-6 3 -14 8 -18 10 -4 3 -13 8 -21 12 -13 7 -14 8 -20 8 -3 0 -6 0 -7 -1 -2 0
-8 -10 -14 -21 -7 -12 -15 -25 -18 -30 -3 -5 -8 -15 -12 -21 -3 -6 -8 -15 -10
-18 -2 -4 -5 -9 -7 -11 -2 -5 -2 -6 -1 -11 3 -9 5 -10 22 -20 9 -5 20 -12 25
-14 5 -3 10 -6 11 -7 1 0 2 -1 2 -1 1 0 -38 0 -85 0 l-86 0 4 2 c4 3 7 5 15 9
3 2 12 7 21 12 14 8 15 9 17 13 1 3 2 7 3 9 0 4 -1 6 -24 46 -9 14 -19 31 -29
49 -7 11 -9 14 -11 15 -5 1 -10 1 -14 -1z m198 -6 c0 -2 -8 -18 -15 -29 -3 -7
-9 -16 -12 -22 -4 -6 -8 -13 -10 -16 -2 -3 -6 -10 -9 -16 -6 -13 -12 -22 -13
-22 -3 0 2 13 6 19 1 1 3 4 5 8 2 4 7 13 12 21 5 8 10 17 12 21 6 10 18 31 20
34 2 3 4 4 4 2z m-193 -6 c2 -2 5 -8 8 -13 3 -6 9 -14 12 -20 12 -21 12 -22 9
-23 -1 0 -6 -3 -16 -9 -24 -15 -31 -19 -32 -19 0 0 -6 5 -12 11 -15 16 -26 26
-27 26 -1 0 -5 -2 -9 -4 -4 -3 -10 -7 -14 -8 -3 -2 -7 -4 -8 -5 -13 -8 -32
-19 -39 -23 -6 -3 -11 -6 -12 -6 -1 -1 0 -4 2 -10 8 -24 13 -41 14 -42 0 0 -4
-3 -10 -7 -5 -3 -13 -7 -16 -9 -16 -10 -20 -12 -30 -17 -5 -3 -10 -6 -11 -6 0
0 -2 1 -3 3 -1 2 -5 6 -8 9 -3 4 -7 9 -9 11 -6 6 -15 15 -16 15 -1 0 -7 -3
-13 -7 -12 -6 -23 -13 -40 -23 -5 -3 -14 -8 -19 -11 -12 -8 -13 -9 -4 -18 2
-2 6 -7 8 -11 3 -3 8 -11 13 -17 4 -6 11 -16 16 -23 12 -17 14 -21 13 -23 -2
-1 -12 8 -29 25 -10 10 -10 10 -17 32 -2 6 -4 11 -4 11 -1 1 -1 2 -1 4 0 2 -3
5 -3 4 -1 0 1 -5 2 -11 2 -5 4 -12 5 -14 1 -2 2 -7 3 -10 1 -4 2 -6 2 -6 0 -1
-5 -3 -10 -7 -6 -3 -13 -7 -17 -10 -7 -4 -19 -10 -21 -10 -1 0 -4 4 -7 10 -3
5 -9 16 -14 24 -5 7 -9 15 -10 17 -1 1 -2 4 -3 5 -4 5 -8 2 56 38 13 8 33 19
44 25 10 6 29 17 42 24 12 7 27 16 33 20 6 3 13 7 16 9 13 7 44 25 50 28 8 5
48 27 53 30 11 6 23 13 50 29 13 7 24 13 24 13 0 0 1 1 2 2 2 2 5 1 7 -3z
m202 2 c1 -1 7 -4 12 -7 9 -5 39 -21 61 -33 12 -7 37 -21 74 -43 13 -7 32 -17
41 -22 8 -6 26 -16 39 -23 13 -7 30 -17 39 -22 8 -5 18 -10 22 -13 9 -5 40
-22 60 -33 7 -5 16 -10 20 -12 4 -2 7 -3 7 -4 1 0 -6 -13 -17 -31 -2 -4 -5 -9
-7 -12 -7 -13 -11 -19 -12 -19 0 0 -5 3 -11 6 -5 3 -14 8 -19 11 -13 7 -18 11
-18 13 1 1 2 5 3 10 2 5 4 13 6 19 4 12 5 18 4 20 -1 1 -9 6 -26 16 -9 5 -17
9 -18 10 -21 13 -35 21 -38 21 -1 0 -4 -3 -7 -7 -3 -3 -9 -10 -14 -15 -5 -5
-9 -11 -11 -13 -1 -1 -3 -3 -3 -3 -3 0 -53 28 -65 37 -3 1 -3 1 -2 4 1 2 3 9
5 16 2 6 5 15 7 20 2 5 3 10 3 11 0 2 -4 4 -11 8 -6 4 -16 10 -24 14 -7 4 -15
9 -18 11 -2 1 -10 5 -17 9 -12 7 -12 7 -14 6 -2 -1 -11 -10 -20 -19 l-17 -17
-4 2 c-2 1 -6 4 -10 6 -4 2 -8 4 -9 5 -1 1 -5 3 -7 4 -3 2 -9 6 -13 8 -4 2 -8
5 -8 5 -1 0 7 15 16 29 4 7 9 16 12 20 5 10 5 10 9 7z m-195 -2 c0 -1 0 -1 0
-1 -1 0 -1 0 -1 1 -1 1 -1 1 -1 1 1 0 1 0 2 -1z m9 -11 c1 -2 1 -3 2 -4 0 -1
3 -5 5 -9 14 -24 32 -54 35 -58 3 -6 7 -13 7 -15 0 -5 -4 0 -15 19 -17 28 -18
31 -22 38 -2 3 -5 8 -7 12 -2 3 -4 7 -6 10 -1 2 -3 6 -4 8 -3 5 -4 6 -1 5 1 0
1 0 1 2 -1 2 3 -4 5 -8z m-73 -41 c1 -2 4 -11 3 -12 0 -2 -11 -9 -26 -18 -8
-4 -18 -10 -23 -13 -19 -12 -21 -12 -23 -11 -3 3 -9 10 -9 11 0 1 4 3 9 6 5 2
15 8 24 13 9 6 19 12 24 14 4 2 10 6 13 8 5 3 6 4 8 2z m324 -5 c7 -4 15 -8
19 -11 3 -2 11 -6 18 -10 6 -4 14 -8 18 -10 9 -6 10 -6 7 -11 -1 -1 -3 -4 -4
-6 l-3 -3 -8 5 c-5 3 -15 8 -22 13 -8 4 -20 11 -28 15 -7 5 -13 8 -14 8 0 0
-1 1 -1 2 0 2 6 14 7 14 0 0 5 -3 11 -6z m-101 -1 c0 -1 3 -2 6 -4 11 -5 42
-25 42 -27 0 -2 -11 -43 -12 -45 -1 -3 -2 -3 -6 0 -11 7 -37 22 -44 26 -4 2
-8 5 -9 5 0 1 -1 1 -2 1 -3 0 -2 2 3 12 2 4 7 12 10 18 7 14 10 17 12 14z m72
-20 c-5 -11 -11 -24 -14 -29 -3 -5 -7 -13 -9 -18 -5 -11 -5 -11 -8 -12 -1 0
-1 0 -1 4 1 2 2 8 4 15 1 6 4 15 5 20 l2 10 15 16 c9 8 15 15 16 15 0 -1 -4
-10 -10 -21z m-273 5 c16 -17 16 -16 19 -34 1 -5 3 -13 5 -17 2 -9 3 -12 0
-12 -1 0 -4 6 -11 20 -18 36 -21 41 -25 49 -4 7 -5 9 -3 9 0 0 7 -7 15 -15z
m72 10 c6 -10 21 -36 21 -38 0 0 -2 -2 -4 -3 -6 -2 -19 -9 -30 -16 -14 -9 -25
-15 -27 -15 0 0 -1 1 -1 2 -2 4 -3 8 -8 27 l-5 18 3 2 c4 3 45 28 47 28 0 0 2
-2 4 -5z m-69 -40 c9 -18 17 -34 17 -34 0 -1 -12 -8 -20 -13 -9 -5 -26 -15
-32 -19 -3 -2 -6 -4 -6 -4 -1 0 -3 3 -6 6 -4 5 -12 15 -32 41 -6 8 -11 14 -11
15 0 0 19 12 29 18 6 4 20 12 32 18 4 3 8 6 8 6 0 1 1 1 2 1 1 0 7 -12 19 -35z
m283 33 c4 -3 25 -15 25 -15 1 0 3 -1 6 -3 2 -1 9 -5 15 -9 5 -3 13 -7 16 -10
l7 -4 -3 -4 c-2 -2 -8 -10 -14 -17 -6 -8 -11 -15 -12 -16 -1 -1 -5 -7 -10 -13
-4 -6 -9 -12 -9 -12 -1 0 -29 17 -56 33 -3 1 -3 3 1 10 2 7 27 56 29 60 2 2 1
2 5 0z m-378 -40 c3 -4 8 -10 10 -14 3 -3 5 -7 6 -7 0 0 4 -5 8 -11 5 -6 10
-13 13 -16 14 -17 16 -23 5 -15 -21 16 -34 26 -36 30 -2 4 -10 29 -12 36 0 1
-1 3 -1 3 -1 1 -1 1 0 1 0 0 4 -3 7 -7z m458 4 c0 -2 -11 -33 -13 -37 -1 -3
-4 -6 -10 -10 -5 -4 -14 -11 -20 -16 -6 -5 -11 -9 -12 -9 -3 0 0 5 11 20 34
45 44 56 44 52z m-131 -34 c0 -1 0 -1 -1 -1 -1 0 -1 0 -1 1 0 1 0 1 0 1 1 0 1
0 2 -1z m-206 -1 c1 -1 -1 -3 -7 -6 -2 -1 -7 -4 -11 -6 -4 -2 -9 -6 -12 -7 -3
-2 -10 -6 -15 -9 -18 -10 -23 -13 -23 -12 0 1 0 2 1 3 1 1 25 17 34 22 3 2 10
5 14 8 11 7 16 9 19 7z m223 -4 c4 -2 7 -4 7 -4 1 0 5 -3 10 -6 5 -3 12 -7 17
-10 15 -9 23 -15 21 -17 -1 0 -34 18 -52 30 -3 1 -7 3 -10 5 -6 3 -7 5 -5 6 1
1 5 0 12 -4z m-31 -4 c1 -1 4 -2 5 -4 2 -2 14 -9 26 -15 2 -2 5 -4 6 -4 0 0 6
-4 13 -8 7 -4 17 -9 23 -13 11 -6 32 -18 50 -28 12 -7 32 -18 45 -26 8 -4 13
-7 19 -10 4 -2 12 -7 22 -12 2 -2 5 -4 6 -4 0 0 4 -2 8 -4 3 -3 11 -7 17 -10
5 -3 11 -6 12 -6 2 0 2 -1 1 -11 0 -4 -2 -14 -2 -22 -1 -9 -2 -19 -3 -23 -1
-7 -3 -23 -6 -47 0 -8 -2 -17 -2 -20 0 -4 -2 -13 -3 -21 -1 -16 -2 -18 -6 -18
-3 0 -18 -7 -24 -12 -3 -2 -6 -4 -7 -4 -2 0 -10 5 -10 7 0 0 1 3 3 6 3 5 2 9
-3 19 -2 4 -4 9 -5 11 -1 3 -3 4 -11 7 -4 2 -14 5 -21 8 -8 3 -15 5 -16 5 -1
0 -4 -1 -5 -2 -2 -1 -6 -4 -10 -6 -6 -4 -7 -4 -9 -10 -15 -40 -24 -64 -25 -70
-1 -3 -1 -6 0 -10 1 -4 2 -8 2 -11 0 -2 1 -5 2 -6 2 -1 43 -17 46 -17 6 0 27
10 30 14 1 1 2 5 4 9 2 6 2 6 5 6 4 0 9 -2 10 -4 0 -1 1 -3 1 -6 l1 -4 -20
-11 c-11 -6 -26 -14 -34 -18 -9 -5 -16 -10 -17 -11 -1 -1 -4 -11 -6 -20 -2
-10 -6 -27 -9 -36 -2 -10 -6 -27 -9 -37 -2 -11 -6 -29 -9 -41 -3 -12 -6 -26
-8 -32 -2 -6 -4 -17 -6 -25 -2 -9 -4 -21 -6 -27 -2 -7 -4 -17 -5 -22 -1 -5 -4
-18 -7 -28 -3 -11 -6 -23 -6 -27 -3 -13 -4 -16 -6 -17 -1 0 -59 -1 -129 -1
l-128 1 -4 16 c-2 9 -7 29 -10 44 -4 14 -8 29 -9 32 -6 27 -13 53 -15 63 -2 6
-4 19 -7 28 -2 8 -6 25 -9 38 -3 12 -6 24 -6 27 -1 3 -2 8 -3 12 -2 6 -7 29
-10 43 -1 4 -2 8 -3 9 -1 1 -1 2 -30 16 -14 7 -27 14 -29 15 -2 1 -4 2 -4 2 0
0 1 1 1 3 1 2 3 6 3 9 2 7 6 10 11 10 3 0 4 -1 7 -8 1 -4 2 -8 3 -9 4 -4 25
-13 30 -13 2 0 5 1 8 3 3 1 5 2 5 2 1 0 1 -10 1 -22 l0 -23 18 0 c10 0 27 0
38 0 11 0 20 0 21 0 1 1 0 122 -1 123 0 1 -12 1 -27 1 l-28 0 -1 3 c-1 2 -3 9
-5 15 -5 13 -9 21 -11 21 0 0 -2 1 -4 2 -2 1 -4 3 -6 4 -5 4 -9 4 -20 0 -6 -2
-11 -4 -12 -5 -3 -1 -11 -4 -17 -7 -5 -1 -5 -1 -11 -13 -3 -7 -6 -13 -6 -15 0
-1 1 -5 3 -8 1 -3 2 -6 2 -7 -1 -1 -8 -5 -10 -5 -1 0 -2 1 -4 2 -10 9 -30 18
-42 18 -3 0 -4 0 -5 2 -1 3 -2 11 -3 19 0 2 0 8 -1 13 -1 4 -1 13 -2 20 0 6
-1 15 -2 19 -1 4 -2 12 -2 18 -1 10 -2 16 -5 40 0 7 -1 16 -2 20 l0 7 4 0 c5
0 4 0 31 15 5 3 30 18 56 32 25 14 53 30 62 36 9 5 16 9 17 9 0 0 8 4 23 13 4
3 11 7 14 8 3 2 9 5 13 8 6 4 20 12 26 15 2 1 4 3 6 5 l2 3 22 0 c36 1 151 0
155 0z m147 -8 c7 -4 18 -10 24 -14 6 -3 11 -6 12 -6 0 0 4 -3 9 -5 l9 -5 -1
-4 c-1 -12 -7 -43 -8 -46 -1 -2 -2 -3 -4 -1 -1 2 -29 18 -29 18 -1 0 -5 3 -11
6 -16 9 -42 25 -51 29 -5 3 -6 4 -3 6 2 1 9 7 17 13 18 14 21 17 22 17 0 0 7
-4 14 -8z m-443 0 c6 -5 14 -11 19 -15 4 -4 9 -7 9 -7 1 0 1 -1 1 -1 0 -2 -3
-4 -37 -23 -32 -18 -56 -33 -58 -35 -1 -1 -2 -1 -3 0 -1 1 -4 16 -8 39 -1 3
-1 7 -2 8 0 2 1 3 6 7 4 2 12 7 18 10 6 4 17 10 24 14 14 8 18 10 20 10 1 0 6
-3 11 -7z m-115 0 c2 -7 2 -8 -3 -11 -5 -3 -25 -14 -36 -21 -14 -8 -30 -17
-32 -17 -2 0 -8 8 -8 10 0 2 9 8 21 14 3 3 11 7 16 10 26 16 36 21 38 21 1 0
2 -3 4 -6z m658 3 c5 -3 14 -8 18 -10 14 -9 19 -12 28 -16 11 -6 21 -13 22
-14 0 -2 -5 -11 -7 -12 -1 -1 -2 -1 -4 0 -1 1 -7 5 -13 8 -6 3 -15 9 -20 11
-5 3 -15 9 -22 13 -8 5 -14 9 -14 9 0 3 4 14 6 14 0 0 3 -1 6 -3z m-650 -5 c2
-3 5 -7 7 -9 13 -13 17 -18 18 -23 1 -6 7 -39 8 -46 l0 -5 -2 2 c-1 1 -4 8 -8
17 -3 8 -9 22 -13 31 -8 15 -13 29 -15 36 0 4 1 3 5 -3z m637 3 c-2 -6 -6 -18
-13 -32 -2 -5 -6 -15 -9 -22 -3 -7 -5 -13 -6 -14 -7 -16 -8 -18 -10 -16 0 1
-1 2 0 2 0 2 3 21 6 36 2 14 4 17 18 33 7 7 13 14 13 15 0 0 0 1 1 1 0 0 0 -1
0 -3z m-637 -24 c3 -5 5 -11 6 -13 1 -1 6 -12 11 -24 4 -11 9 -21 9 -22 1 -1
-1 -3 -10 -8 -4 -2 -14 -8 -22 -12 -22 -13 -25 -14 -26 -14 -1 -1 -3 2 -14 19
-24 33 -29 41 -30 42 -1 2 2 3 14 10 8 5 19 11 24 15 13 8 32 18 33 18 1 -1 3
-5 5 -11z m643 8 c3 -2 6 -4 7 -4 0 0 20 -11 27 -16 4 -2 10 -6 14 -8 8 -4 17
-10 17 -11 0 -1 -9 -14 -15 -23 -3 -4 -10 -14 -15 -21 -13 -21 -11 -19 -22
-14 -7 4 -17 9 -35 20 -5 2 -15 8 -15 8 0 1 2 4 3 9 2 4 5 12 7 18 4 8 18 41
20 44 0 1 1 1 7 -2z m75 -36 c0 -1 0 -2 -1 -3 0 0 -2 -3 -2 -6 -4 -12 -7 -23
-9 -26 -1 -4 -35 -37 -37 -37 -3 0 0 5 9 19 5 8 12 18 14 21 3 3 7 9 10 14 8
12 14 21 15 20 1 0 1 -1 1 -2z m80 -12 c-1 -2 -3 -6 -5 -9 -1 -3 -3 -5 -3 -6
0 0 -2 -3 -4 -7 -3 -4 -9 -14 -13 -22 -10 -17 -29 -49 -31 -53 -1 -1 -2 -2 -3
-3 -3 -1 -3 2 1 8 2 3 5 8 6 11 3 6 4 7 12 20 2 4 6 10 7 13 6 11 15 27 21 36
3 5 6 9 6 10 0 1 5 6 6 6 0 0 0 -2 0 -4z m-955 -8 c2 -3 4 -7 6 -10 1 -2 3 -5
3 -6 2 -2 7 -11 15 -25 2 -5 6 -11 8 -13 2 -3 4 -7 5 -8 1 -2 4 -7 6 -10 2 -4
4 -7 4 -8 0 0 1 -3 3 -6 4 -5 4 -6 1 -6 -2 0 -4 4 -9 13 -4 7 -10 17 -12 21
-3 5 -6 9 -6 10 -1 1 -2 3 -4 6 -1 2 -3 5 -4 8 -1 2 -5 9 -9 15 -9 15 -15 26
-15 28 0 2 0 2 2 0 2 -1 4 -5 6 -9z m757 -15 c1 -1 2 -2 4 -2 1 0 3 0 4 -1 0
0 2 -2 4 -3 2 -1 9 -4 15 -8 6 -3 16 -9 21 -12 6 -3 10 -5 11 -5 1 0 7 -8 7
-9 -1 -1 -3 0 -6 2 -3 2 -15 9 -27 16 -28 16 -33 18 -34 21 -1 1 -1 2 0 2 0 0
1 -1 1 -1z m-568 -2 c-1 -2 -64 -38 -65 -38 -1 2 2 5 6 8 3 2 5 3 6 3 0 0 1 1
2 1 1 1 5 4 10 6 5 3 12 7 17 10 14 9 25 13 24 10z m683 -5 c9 -6 38 -24 40
-24 2 0 1 -3 -3 -10 -2 -3 -5 -9 -7 -12 -6 -12 -12 -21 -13 -21 -2 0 -6 3 -28
15 -6 3 -15 8 -21 11 -6 4 -10 7 -10 8 1 2 35 37 37 36 0 0 3 -2 5 -3z m-758
-29 l4 -4 -3 -2 c-1 -1 -4 -3 -6 -4 -2 -1 -7 -4 -12 -7 -5 -3 -9 -5 -10 -5 0
0 -4 -2 -9 -5 -5 -3 -11 -7 -14 -9 -7 -3 -7 -3 -12 6 -1 2 -5 9 -8 15 -4 5 -7
11 -8 12 0 1 -1 3 -2 4 -2 2 -2 3 6 7 6 3 19 10 34 20 l7 4 14 -14 c8 -8 16
-16 19 -18z m153 -145 c5 -4 7 -7 10 -16 3 -10 10 -30 15 -42 2 -6 4 -12 5
-14 2 -6 1 -15 -2 -17 -1 -2 -10 -6 -19 -8 -2 -1 -7 -3 -10 -4 -7 -3 -9 -3
-16 1 -5 2 -6 3 -8 7 -2 5 -7 18 -15 39 -2 8 -6 18 -7 21 -2 4 -3 8 -3 10 0 3
5 12 7 13 6 3 32 13 35 13 1 0 5 -1 8 -3z m447 -3 c8 -3 15 -5 17 -6 2 -1 5
-3 8 -8 3 -5 2 -7 -2 -18 -3 -8 -16 -43 -20 -54 -2 -7 -4 -9 -12 -12 l-6 -3
-17 6 c-10 4 -18 7 -20 9 -2 2 -2 3 -2 9 0 5 1 9 7 25 4 11 9 24 11 30 5 16 5
16 7 19 3 4 10 9 12 9 1 0 9 -3 17 -6z m-406 -46 c0 -5 -1 -10 -1 -11 -1 -3
-1 -2 -4 7 -2 6 -4 11 -4 12 0 1 1 1 4 1 l5 0 0 -9z m35 -33 c0 -23 1 -47 1
-53 l0 -12 -16 0 -15 0 0 23 c-1 31 -1 82 0 83 0 1 7 1 15 1 l15 0 0 -42z
m-199 35 c-4 -4 -6 -7 -8 -12 -5 -14 -4 -25 3 -39 8 -15 21 -24 37 -23 2 0 4
0 4 0 0 -1 -6 -4 -11 -5 -16 -4 -38 13 -44 35 -3 7 -3 21 -1 28 3 8 10 16 19
20 7 3 7 2 1 -4z m674 2 c4 -3 11 -11 14 -17 4 -9 3 -26 -2 -38 -7 -14 -18
-24 -32 -26 -6 -1 -8 -1 -12 0 -8 3 -8 4 -2 4 7 0 16 3 22 8 19 16 24 46 9 64
-1 3 -2 4 -1 4 1 0 1 0 0 2 -2 2 -1 1 4 -1z m-694 -2 c0 -1 -2 -3 -3 -5 -5 -8
-6 -13 -6 -25 0 -16 5 -29 15 -40 6 -7 15 -13 22 -16 5 -1 5 -1 3 -2 -8 -2
-23 5 -32 15 -6 8 -13 20 -14 27 -2 11 -1 21 1 28 2 7 7 15 9 15 0 0 2 1 3 2
1 2 4 3 2 1z m710 -1 c-1 0 -2 0 -2 1 -1 1 -1 1 0 0 1 0 2 0 2 -1z m6 -4 c10
-12 12 -34 3 -52 -7 -15 -13 -22 -25 -28 -4 -2 -12 -4 -11 -2 1 0 0 1 0 1 -1
1 2 2 6 4 4 2 8 5 9 5 4 4 13 15 15 21 6 13 7 29 3 41 -2 6 -3 8 -1 7 1 0 1 0
1 1 -1 0 -2 1 -2 1 -1 0 -2 1 -3 2 -2 3 1 3 5 -1z m-660 0 c1 0 -1 -1 -4 -2
-4 0 -6 0 -6 0 0 1 1 1 2 1 1 0 1 0 0 1 -1 1 0 1 3 1 2 0 4 -1 5 -1z m608 0
c2 -1 3 -2 3 -2 -1 -1 -1 -1 -2 -1 -1 0 -4 0 -8 0 -6 0 -7 1 -3 3 3 1 6 1 10
0z m23 -6 c5 -6 6 -12 5 -22 -1 -12 -9 -24 -19 -30 -4 -3 -9 -4 -9 -3 0 1 0 1
1 1 1 0 1 0 1 1 -1 0 -2 1 -4 0 -2 0 0 1 4 3 7 4 12 10 16 18 3 6 4 7 4 16 0
7 -1 9 -3 14 -2 4 -2 6 -1 5 2 -2 3 -1 1 1 -1 1 -1 2 0 2 0 0 2 -3 4 -6z
m-661 4 c0 -1 0 -1 2 0 1 1 2 0 0 -2 -2 -2 -5 -12 -5 -17 0 -6 1 -11 5 -19 6
-10 14 -17 23 -18 l4 -1 -5 0 c-2 0 -4 0 -3 -1 1 -2 -3 -1 -8 1 -6 3 -13 10
-16 15 -1 2 -3 7 -4 11 -2 8 -2 15 1 23 2 6 6 11 6 8z m17 -1 c0 -1 -1 -1 -1
0 -1 0 -1 1 0 1 0 1 1 1 1 0 1 0 1 -1 0 -1z m49 -4 c1 -4 3 -7 3 -8 2 -3 1 -5
-2 -5 -4 -2 -12 -7 -21 -14 -8 -7 -13 -9 -18 -9 -8 0 -15 9 -16 20 -1 11 3 15
15 17 3 1 6 0 8 0 3 -1 8 -1 14 0 9 1 11 1 12 3 1 1 2 2 2 2 0 0 2 -3 3 -6z
m538 1 c4 -1 11 -1 19 0 13 0 17 -1 21 -7 5 -8 0 -25 -9 -28 -9 -4 -17 -1 -25
8 -6 5 -17 12 -20 12 -3 0 -3 1 1 11 2 7 3 8 4 7 1 -1 5 -2 9 -3z m41 2 c-1 0
-2 0 -2 1 -1 1 -1 1 0 0 1 0 2 0 2 -1z m-2 -1 c0 -1 0 -1 0 -1 -1 0 -1 0 -1 1
-1 1 -1 1 -1 1 1 0 1 0 2 -1z m-693 -4 c-2 -6 -4 -18 -2 -28 2 -15 11 -33 20
-41 3 -3 6 -5 6 -5 1 0 1 -1 1 -1 0 -1 -3 -3 -8 -5 -12 -3 -24 -9 -28 -12 -5
-3 -14 -7 -22 -8 -4 0 -6 0 -13 4 -11 5 -18 12 -23 22 -4 9 -7 19 -7 26 0 4 3
15 7 22 3 6 13 13 20 15 2 0 4 1 5 1 0 1 4 1 5 0 1 -2 2 -1 7 1 3 2 6 3 7 3 0
0 2 0 3 1 3 2 20 8 22 8 2 0 2 0 0 -3z m775 -4 c10 -4 20 -7 24 -7 5 -1 10 -2
15 -4 8 -4 11 -8 16 -20 6 -13 1 -38 -10 -50 -4 -5 -12 -10 -18 -13 -5 -2 -7
-2 -13 -2 -9 1 -14 3 -21 8 -4 3 -24 11 -33 13 l-4 2 5 4 c10 9 20 25 23 37 2
10 1 30 -2 36 -1 1 -1 2 -1 2 1 0 9 -3 19 -6z m-877 -27 c0 0 -1 0 -3 0 -2 0
-3 0 -3 1 0 0 1 0 3 0 2 0 3 0 3 -1z m772 -5 c1 -1 5 -1 9 -1 3 0 6 -1 6 -1 0
-1 1 -1 2 -1 1 0 0 -1 -2 -2 -8 -3 -20 1 -23 8 l-1 3 3 -2 c2 -2 5 -3 6 -4z
m-577 1 c-5 -6 -7 -7 -12 -7 -5 0 -13 3 -9 3 1 0 1 0 0 1 -1 1 -1 1 0 1 4 -1
15 1 19 3 5 4 6 4 2 -1z m776 2 c0 0 1 -1 3 0 1 0 5 -1 10 -3 6 -3 8 -4 10 -7
9 -13 8 -18 -5 -52 -9 -22 -10 -24 -18 -28 -8 -5 -12 -5 -15 -1 l-2 2 5 0 c5
0 6 1 9 3 3 2 4 3 7 3 3 0 4 0 4 1 -1 0 1 9 2 12 0 1 2 4 3 7 4 11 8 23 9 24
0 0 1 2 1 4 1 2 2 5 3 6 3 2 3 4 0 5 -1 0 -3 2 -4 4 -4 7 -9 12 -17 15 -4 2
-7 4 -7 5 0 0 0 1 1 1 1 0 1 0 1 -1z m-981 -1 c0 0 -3 -2 -6 -3 -7 -3 -12 -7
-13 -12 -1 -2 -2 -5 -4 -7 l-3 -4 4 -6 c1 -4 3 -7 3 -8 0 -1 0 -3 1 -4 2 -4 9
-26 10 -32 1 -3 2 -4 3 -4 2 0 9 -4 13 -6 2 -2 4 -2 6 -2 2 1 3 1 3 0 0 -1 1
-1 2 -1 1 0 -1 -1 -5 -2 l-6 -1 -7 3 c-4 2 -7 4 -7 6 -1 1 -2 2 -4 3 -1 1 -2
3 -4 9 -3 11 -8 25 -10 29 -5 12 -6 19 0 29 3 8 6 10 12 10 4 1 4 1 4 2 0 2 1
2 4 2 3 0 5 -1 4 -1z m15 -2 c0 -1 -2 -2 -8 -4 -5 -2 -10 -4 -12 -5 -3 -3 -10
-6 -11 -5 -2 3 19 15 24 14 1 -1 2 0 2 1 1 2 5 1 5 -1z m964 -3 c1 0 4 -1 6
-2 6 -2 13 -8 13 -11 0 -2 -1 -1 -9 4 -4 2 -11 5 -16 7 -4 2 -8 3 -9 4 0 0 0
0 1 0 1 -1 2 -1 2 0 0 1 8 0 12 -2z m-659 -22 c0 -13 -1 -24 -1 -25 -1 -1 -4
-1 -12 -1 l-12 0 0 14 c0 8 0 17 0 21 l0 6 8 2 c5 2 10 4 12 5 1 1 3 2 4 2 0
0 1 -8 1 -24z m633 10 c-1 0 -1 1 -1 2 -1 1 -1 1 0 0 1 0 1 -1 1 -2z m0 -3
c-1 0 -1 0 -1 1 0 1 0 1 1 1 0 -1 0 -1 0 -2z m-969 -8 c1 -3 3 -9 5 -12 2 -4
5 -9 5 -12 1 -3 3 -9 3 -13 1 -4 3 -9 4 -10 2 -4 0 -5 -3 -1 -3 4 -4 5 -9 23
-2 6 -2 8 -8 20 -2 4 -2 6 -1 8 2 3 3 3 4 -3z m1019 3 c0 -1 -3 -14 -7 -20 -1
-4 -8 -23 -10 -28 -1 -2 -2 -5 -4 -5 -3 -2 -3 -2 0 6 1 3 3 9 4 14 1 4 4 12 6
17 3 4 6 11 7 13 1 5 3 6 4 3z m-978 -6 c2 -4 3 -13 3 -14 -2 -4 -6 -2 -8 2
-3 6 -4 11 -1 13 2 2 5 1 6 -1z m939 -1 c1 -1 1 -3 -1 -8 -2 -7 -3 -8 -7 -7
-4 1 -4 3 0 10 2 5 3 6 4 6 2 0 3 -1 4 -1z m-951 -4 c1 -1 2 -4 3 -6 0 -3 1
-5 2 -6 0 -2 0 -2 -2 -2 -1 0 -4 -1 -8 -2 -3 -2 -6 -3 -7 -3 -1 0 -5 8 -6 12
l0 4 6 2 c4 1 7 2 8 3 2 1 3 1 4 -2z m936 0 c-1 0 -1 0 -1 1 0 1 0 1 1 1 0 -1
0 -1 0 -2z m30 -2 c8 -3 8 -3 6 -11 -2 -7 -3 -8 -10 -5 -12 4 -11 3 -9 8 2 9
3 11 4 11 1 0 5 -1 9 -3z m-21 -23 c1 -1 2 -1 2 -1 0 -2 -6 -1 -7 0 -1 1 -2 2
-3 2 -2 1 5 0 8 -1z m9 -3 c2 -2 1 -2 -3 -1 -3 2 -3 2 -1 2 2 0 3 -1 4 -1z m4
-2 c0 -1 0 -1 0 -1 -1 0 -1 0 -1 1 -1 1 -1 1 0 1 1 0 1 0 1 -1z m-927 -4 c0
-1 -15 -8 -17 -8 -1 0 -4 -2 -9 -4 -7 -3 -11 -3 -11 0 0 2 6 4 10 4 3 1 6 1 7
2 2 0 4 1 4 1 1 0 5 1 8 3 7 3 8 3 8 2z m9 -6 c-2 -1 -4 -1 -3 0 0 1 1 1 2 1
2 0 2 0 1 -1z m877 0 c-1 0 -1 0 -2 0 0 1 0 1 1 1 1 0 1 0 1 -1z m-884 -4 c-2
0 -3 -1 -4 -1 -2 0 -2 0 1 2 3 1 5 1 3 -1z m925 0 c3 -1 4 -2 2 -4 -2 -1 -3
-1 -7 0 -6 2 -7 3 -1 2 2 -1 5 -1 5 -1 1 1 1 1 0 1 -1 0 -2 0 -2 1 0 0 -1 1
-3 1 l-3 1 3 0 c1 0 4 0 6 -1z m-945 -4 c-1 0 -1 0 -2 0 0 1 0 1 1 1 1 0 1 0
1 -1z m1 -3 c-1 0 -1 0 -2 0 0 1 0 1 1 1 1 0 1 0 1 -1z M1097 1127 c-2 0 -2
-1 -2 -5 0 -3 0 -11 0 -18 l-1 -13 -9 -1 c-5 -1 -10 -1 -10 -1 0 -1 0 -50 0
-110 l0 -109 115 -1 c89 0 116 0 116 1 1 1 0 215 -1 218 0 1 -3 1 -9 1 l-9 1
-1 18 c0 13 0 19 -1 19 -1 1 -185 1 -188 0z m55 -16 c0 -5 0 -8 1 -9 1 0 7 0
14 0 7 0 24 0 39 0 20 0 26 0 27 1 0 1 1 5 1 9 l1 7 21 0 22 0 0 -12 0 -12 -9
0 c-8 0 -9 -1 -9 -2 0 -1 -1 -2 -2 -2 -2 0 -2 0 -1 1 0 0 1 1 0 2 0 1 -8 1
-78 0 l-77 0 0 12 0 13 25 0 25 0 0 -8z m77 3 c0 -7 2 -7 -25 -7 -16 0 -25 0
-26 1 -2 1 -3 1 -3 0 -1 -1 -5 -1 -10 -1 -8 0 -9 0 -9 6 0 6 0 6 38 6 l36 0
-1 -5z m-4 -23 c2 0 3 -2 2 -2 -1 -1 -10 -2 -10 -1 0 1 1 1 3 1 4 0 5 2 2 3
-1 0 -2 1 -1 1 1 0 2 -1 4 -2z m25 0 c2 0 5 -1 8 -1 3 0 5 0 5 -1 0 -1 -15 -2
-25 -1 -7 0 -8 0 -8 2 0 2 1 2 6 2 4 0 7 0 8 0 1 1 3 1 6 -1z m-59 -2 c1 0 6
0 12 0 11 0 11 0 9 -1 -2 -2 -4 -2 -12 -2 -5 0 -13 0 -17 -1 -4 0 -21 0 -37 0
-23 -1 -30 -1 -30 -2 0 -1 -1 -5 -2 -9 -4 -30 -5 -32 -9 -34 -4 -1 -6 3 -6 9
1 3 1 10 2 17 1 22 1 23 4 23 2 1 76 0 86 0z m87 -1 c1 -1 1 -7 2 -20 1 -9 1
-18 1 -19 1 -6 -2 -10 -4 -7 -1 1 -8 28 -8 32 0 1 -1 4 -2 8 -1 3 -2 6 -1 7 1
1 10 0 12 -1z m-15 -6 c1 -1 9 -35 9 -38 0 -1 -1 -1 -4 0 -2 0 -6 0 -8 0 -4
-1 -4 -1 -4 -5 0 -1 0 -3 -1 -3 -5 -1 -127 -1 -128 0 0 0 -1 2 -2 3 -1 3 -1 3
-7 3 -6 -1 -6 -1 -6 2 1 1 2 10 4 19 1 9 2 17 3 17 0 1 20 1 44 1 24 0 52 1
62 1 22 1 38 1 38 0z m26 -6 c3 -2 2 -5 0 -12 -2 -4 -3 -7 -3 -8 -1 -1 -1 -2
-2 -2 -1 1 -1 6 -1 14 l0 12 2 -1 c1 -1 3 -2 4 -3z m-192 -11 c0 -13 0 -13 -2
-11 -2 4 -5 16 -5 19 0 2 4 6 6 6 1 0 1 -6 1 -14z m-10 1 c0 -2 9 -27 10 -28
1 -1 6 -1 12 -1 10 1 11 1 12 -1 0 -1 1 -30 1 -67 -1 -62 -1 -74 -4 -76 0 -1
-29 -1 -30 0 -1 0 -2 22 -2 62 0 34 0 73 -1 88 0 17 0 26 1 25 1 0 1 -1 1 -2z
m208 -47 c0 -27 0 -66 1 -87 0 -23 0 -38 -1 -38 0 -1 -8 -1 -17 -2 l-16 0 0
14 c0 7 -1 33 -1 57 0 23 0 51 -1 60 l0 18 12 0 c14 -1 13 -2 18 15 2 6 4 11
4 11 1 0 1 -22 1 -48z m-40 9 c1 -1 2 -31 1 -32 -1 0 -121 -1 -125 0 l-5 1 0
15 c0 12 0 17 1 17 2 1 127 1 128 -1z m0 -35 c1 -1 2 -2 2 -25 0 -13 0 -33 -1
-44 l0 -20 -65 0 -65 0 0 44 c0 24 0 44 1 44 1 1 125 1 128 1z m0 -104 c0 -2
0 -5 0 -5 1 0 8 0 17 0 16 0 16 0 20 -3 2 -1 3 -3 3 -3 -1 -1 -67 -1 -184 -1
-26 0 -26 0 -25 2 1 3 5 4 23 5 l17 1 0 4 1 5 64 0 64 0 0 -5z m44 -6 c1 -1 0
-3 -1 -3 0 0 -1 1 -2 3 -2 3 -2 3 1 2 1 0 2 -1 2 -2z M967 448 c-7 -3 -15 -6
-18 -8 -20 -8 -53 -22 -59 -25 -4 -2 -12 -6 -17 -10 -16 -10 -53 -33 -55 -34
-4 -2 -3 -4 3 -14 3 -6 7 -13 8 -16 2 -3 4 -5 5 -6 0 0 2 1 4 2 2 1 3 2 4 2 0
0 2 -2 4 -5 4 -7 35 -63 43 -77 3 -5 6 -11 6 -11 0 -1 -2 -2 -4 -3 -5 -1 -5
-3 0 -11 1 -4 5 -10 8 -15 2 -5 5 -9 6 -10 1 0 5 1 22 9 15 7 36 17 37 17 2 0
24 12 32 18 5 3 17 12 26 18 31 21 43 30 44 31 1 2 0 5 -5 15 -4 8 -7 14 -7
16 0 3 -2 5 -8 13 -3 3 -18 28 -18 29 0 1 -1 3 -3 5 -1 3 -4 7 -6 11 -1 3 -4
7 -5 9 -2 3 -7 14 -12 24 -2 4 -5 8 -7 10 -2 1 -5 6 -8 12 -2 5 -5 10 -6 10
-1 0 -7 -3 -14 -6z m15 -11 c2 -5 3 -8 2 -9 -2 -3 -5 -2 -9 2 -2 3 -5 5 -6 5
-1 0 -8 -3 -15 -7 -7 -4 -15 -9 -18 -10 -6 -3 -19 -10 -30 -17 -6 -4 -8 -4
-11 1 -1 3 -1 5 -1 6 1 1 20 10 47 20 5 2 15 7 22 10 7 3 14 6 15 6 0 0 2 -3
4 -7z m-6 -13 c8 -9 13 -17 26 -40 8 -16 9 -18 12 -23 17 -28 25 -45 26 -53
l0 -4 -11 -6 c-7 -3 -13 -7 -14 -8 -2 -2 -4 -3 -4 -2 0 1 1 2 1 4 8 15 11 22
11 24 0 2 -5 12 -11 22 -1 2 -4 7 -5 10 -2 4 -5 10 -8 14 -2 4 -6 11 -8 15 -7
12 -15 26 -18 30 -4 5 -10 7 -22 7 -5 1 -10 1 -10 2 -1 0 0 1 2 2 2 1 8 4 14
7 6 3 11 6 12 6 1 0 4 -3 7 -7z m16 0 c1 -2 8 -19 8 -22 0 -1 1 -2 2 -2 1 -1
3 -3 4 -5 4 -8 7 -12 13 -23 10 -17 13 -23 11 -24 -1 -1 -1 -1 -3 0 -1 1 -11
18 -17 28 -5 9 -11 21 -11 22 0 1 -1 3 -3 4 -1 1 -3 4 -5 7 -1 2 -4 6 -5 8 -4
5 -4 6 0 7 4 1 5 1 6 0z m-59 -13 c0 -1 0 -3 0 -3 0 0 -2 -1 -4 -2 -3 -1 -8
-5 -11 -7 -7 -5 -9 -6 -9 -2 0 1 3 3 17 12 8 5 8 5 7 2z m30 -1 c5 -1 10 -6 8
-7 -1 -1 -2 0 -3 0 -2 1 -7 1 -15 1 -8 0 -13 0 -14 1 -1 1 -1 5 0 6 1 1 17 0
24 -1z m-71 -9 c2 -2 3 -5 3 -5 0 0 -1 -1 -3 -2 -2 -1 -7 -4 -10 -6 -4 -2 -9
-5 -11 -6 -6 -3 -11 -8 -11 -10 0 -1 -1 -3 -2 -5 -3 -3 -4 -6 -2 -7 0 -1 2 1
3 3 2 2 4 4 5 5 4 1 25 11 27 13 4 3 3 0 0 -3 -3 -3 -27 -17 -31 -19 -1 0 -2
-2 -3 -2 -1 -2 -13 -8 -15 -8 0 0 -1 -1 -3 -2 -3 -3 -3 -3 -8 8 -2 4 -5 8 -5
8 -1 1 -1 2 -1 2 0 0 4 3 9 6 8 5 42 27 51 33 2 1 4 2 4 2 1 0 2 -2 3 -5z m42
2 c0 -2 -2 -3 -7 -6 -4 -2 -7 -3 -8 -3 0 1 14 12 15 11 0 0 1 -1 0 -2z m30 -2
c3 -1 5 -2 17 -25 4 -7 9 -16 12 -21 15 -25 20 -35 20 -38 -1 -3 -7 -12 -12
-18 -5 -6 -7 -6 -11 3 -3 4 -7 12 -11 19 -7 12 -9 15 -15 27 -2 4 -6 10 -8 13
-1 2 -4 8 -7 12 -2 4 -6 11 -8 16 -6 11 -6 12 6 12 14 1 14 1 17 0z m-29 -8
c0 -1 4 -8 7 -14 4 -6 9 -16 12 -21 2 -5 5 -11 7 -12 1 -2 7 -14 15 -27 7 -13
13 -24 14 -25 0 -3 -1 -3 -7 -7 -9 -6 -25 -15 -38 -20 -12 -6 -17 -8 -29 -13
-5 -2 -9 -4 -9 -4 -1 0 -2 3 -4 6 -2 3 -4 8 -6 11 -3 5 -14 24 -20 36 -7 13
-13 22 -19 32 -3 6 -6 12 -6 13 0 1 3 3 9 7 9 6 21 14 37 25 10 6 15 9 23 12
4 1 7 3 7 3 2 2 5 1 7 -2z m-49 -10 c0 -2 -20 -12 -22 -12 -1 0 -1 0 -1 1 0 1
9 7 15 10 2 1 4 3 4 3 1 1 5 -1 4 -2z m152 -43 c6 -7 9 -12 9 -13 0 -1 -6 -6
-7 -6 -1 0 -1 2 -2 4 -1 2 -3 6 -5 10 -1 3 -3 7 -3 8 0 4 4 2 8 -3z m15 -28
c3 -4 4 -8 4 -9 0 0 -3 -2 -6 -5 -4 -2 -9 -5 -12 -7 -3 -2 -13 -10 -23 -17
-10 -7 -22 -15 -26 -18 -6 -4 -9 -6 -9 -5 -1 0 -3 3 -4 7 l-3 5 2 2 c1 1 8 5
16 9 7 3 19 10 28 15 8 4 17 9 19 10 5 3 5 4 4 15 -1 5 -1 5 1 5 4 1 4 0 9 -7z
m-34 4 c0 -2 -2 -7 -4 -11 -2 -5 -4 -9 -4 -10 0 0 -1 -2 -2 -3 -3 -3 -3 -3 -5
-2 -1 1 -2 3 -2 4 0 0 2 4 4 7 3 4 6 9 8 12 2 3 4 6 4 6 1 0 1 -1 1 -3z m-45
-61 c2 -3 3 -6 2 -7 0 -1 -3 -2 -6 -3 -8 -4 -40 -18 -51 -23 -6 -3 -10 -5 -11
-5 0 0 -3 5 -6 10 -4 8 -5 11 -4 11 1 1 2 1 2 1 0 0 3 2 6 4 2 3 6 5 8 6 3 1
3 1 5 -1 2 -3 5 -4 8 -2 2 1 3 1 6 0 l3 -2 16 8 c9 5 17 9 18 9 1 0 3 -3 4 -6z
m-46 -5 c-1 -1 -2 -1 -3 -1 -1 0 -1 0 1 1 2 1 2 1 2 0z M1397 448 c-2 -4 -4
-8 -6 -10 -1 -2 -4 -6 -6 -8 -4 -4 -6 -7 -9 -15 -3 -7 -7 -14 -9 -18 -2 -4 -9
-15 -14 -25 -12 -21 -16 -27 -22 -35 -3 -3 -4 -6 -4 -9 -1 -4 -2 -8 -9 -17 -2
-3 -4 -7 -4 -7 0 -2 5 -6 14 -11 3 -3 10 -8 16 -11 27 -20 57 -40 70 -46 7 -3
23 -11 36 -17 13 -7 25 -12 25 -12 1 0 2 1 3 2 1 3 7 14 12 22 2 4 4 8 4 9 0
1 -2 2 -4 3 -3 1 -4 2 -3 2 0 1 4 8 8 15 27 49 43 77 44 78 0 0 3 -1 5 -2 2
-1 5 -2 5 -2 1 1 4 4 6 9 2 4 6 10 8 14 5 9 5 10 -1 14 -6 4 -31 20 -52 34 -8
5 -19 11 -24 14 -6 2 -12 5 -14 6 -27 12 -69 29 -70 29 -1 0 -3 -3 -5 -6z m27
-12 c7 -3 24 -10 37 -15 12 -6 23 -10 24 -10 0 0 1 -1 2 -1 2 -2 2 -2 -1 -8
-2 -4 -4 -7 -4 -7 0 0 -6 3 -12 7 -7 4 -19 10 -26 14 -8 4 -18 10 -23 13 -10
6 -11 6 -18 -1 -3 -4 -6 -5 -7 -2 0 2 3 9 7 15 2 4 2 4 4 3 1 -1 9 -4 17 -8z
m-7 -9 c3 -1 7 -4 10 -5 2 -2 6 -4 8 -5 3 -1 5 -3 5 -3 0 0 -4 -1 -10 -1 -15
-1 -19 -3 -24 -9 -2 -3 -7 -11 -10 -17 -4 -6 -13 -23 -21 -36 -8 -14 -15 -28
-17 -31 l-2 -6 4 -9 c3 -5 6 -11 8 -13 2 -3 3 -5 2 -5 -1 0 -5 2 -10 5 -5 3
-12 7 -14 8 -3 2 -5 4 -6 5 0 1 5 17 9 25 4 9 15 28 17 32 2 1 5 8 9 14 10 20
23 40 29 47 3 4 7 7 7 7 1 0 4 -1 6 -3z m-22 -5 c2 -2 1 -3 -5 -13 -4 -6 -11
-16 -14 -23 -4 -7 -7 -14 -8 -14 0 -1 -2 -4 -4 -7 -6 -11 -8 -16 -10 -17 0 -1
-4 -7 -7 -14 -3 -7 -7 -12 -8 -13 -2 0 -4 2 -4 4 0 4 7 14 14 19 1 1 2 3 1 3
0 2 3 8 6 13 0 1 5 8 10 17 4 9 10 17 11 19 2 2 4 8 6 13 2 5 4 11 5 12 1 2 5
3 7 1z m48 -15 l0 -3 -15 0 c-8 0 -15 -1 -16 -1 -3 -2 -2 2 0 3 3 2 13 4 22 4
3 0 6 1 7 1 2 0 2 -1 2 -4z m11 1 c3 -2 6 -4 7 -5 1 0 2 -1 3 -1 1 0 6 -4 5
-4 -1 0 -2 1 -3 2 -2 1 -2 1 -2 -1 1 -1 1 -2 0 -2 -1 0 -1 0 0 -1 0 -1 0 -1
-1 -1 -2 0 -14 12 -15 14 -1 3 -1 3 6 -1z m65 -18 c8 -6 20 -14 27 -17 6 -4
11 -8 11 -8 1 -1 -10 -21 -11 -21 -1 0 -8 3 -14 6 -2 0 -5 2 -6 4 -2 2 -6 4
-9 6 -6 2 -17 9 -20 11 -1 1 -3 2 -4 3 -4 2 -9 7 -9 8 1 0 9 -4 12 -6 1 -1 4
-2 7 -3 9 -3 14 -6 17 -11 3 -4 5 -5 5 -1 0 2 -8 13 -14 17 -3 2 -10 6 -15 10
-6 3 -10 6 -10 6 0 1 4 8 6 10 1 2 2 2 6 -1 2 -1 12 -7 21 -13z m-67 10 c5 -5
4 -6 -2 -3 -5 3 -6 5 -6 6 2 2 3 1 8 -3z m-10 -1 c1 -1 2 -2 2 -2 0 -1 -10
-20 -22 -41 -13 -22 -25 -44 -28 -50 -8 -14 -8 -14 -12 -10 -5 4 -13 15 -14
19 0 2 1 6 8 18 4 8 10 19 13 24 3 5 9 16 13 24 8 15 10 18 13 19 3 1 24 0 27
-1z m13 -7 c6 -1 15 -6 28 -15 6 -3 14 -9 18 -11 22 -14 28 -18 28 -19 0 -1
-5 -10 -12 -22 -6 -10 -17 -29 -29 -51 -4 -7 -9 -16 -10 -19 -2 -4 -4 -7 -5
-7 0 0 -3 1 -5 3 -2 1 -4 2 -4 2 -2 0 -31 13 -45 21 -15 7 -29 16 -29 17 0 2
7 15 13 25 6 10 8 13 14 24 2 3 7 14 13 23 5 10 11 20 13 24 2 3 3 6 4 6 0 1
3 1 8 -1z m41 -8 c1 0 3 -2 4 -2 2 -1 5 -3 8 -5 l4 -4 -4 1 c-3 0 -6 2 -7 3
-1 1 -4 3 -6 4 -2 0 -3 1 -3 2 0 1 1 1 1 0 1 0 1 0 1 1 -1 2 0 3 2 0z m-132
-67 c0 -1 3 -7 7 -12 8 -13 8 -14 6 -15 -2 -1 -3 -1 -5 1 -3 3 -13 21 -13 24
0 2 2 5 3 5 1 0 2 -2 2 -3z m-26 0 c0 -1 0 -3 -1 -7 -1 -4 -2 -7 -2 -7 0 -1
25 -15 36 -20 25 -14 32 -18 34 -20 1 -2 1 -3 -2 -6 -1 -3 -3 -5 -3 -5 0 0 -4
3 -9 6 -5 3 -12 8 -15 11 -4 3 -10 7 -13 9 -3 2 -12 9 -20 14 -20 13 -19 12
-16 16 4 9 8 12 11 9z m45 -27 c-1 -1 -1 -2 0 -2 0 -1 0 -1 -1 -1 -1 0 -2 2
-2 4 0 0 1 1 2 0 1 0 2 -1 1 -1z m-5 -5 c0 -1 0 -1 -1 -1 -1 -1 -1 -1 -1 0 0
1 0 1 1 1 1 0 1 0 1 0z m24 -13 c1 0 4 -2 9 -4 10 -7 23 -14 27 -14 2 -1 4 -2
5 -3 2 -3 6 -5 11 -7 4 -1 4 -1 7 2 1 2 3 3 4 3 2 0 18 -12 18 -13 0 -2 -9
-17 -10 -19 -1 0 -6 2 -13 6 -6 3 -16 7 -20 10 -17 7 -35 16 -36 17 0 0 1 2 2
5 3 4 3 5 5 4 3 -1 18 -9 28 -14 4 -2 8 -4 8 -3 2 1 1 3 -2 4 -4 0 -29 13 -33
17 -1 0 -5 3 -9 5 -10 5 -12 7 -7 5 3 -1 5 -2 6 -1z m34 -13 c1 0 1 1 1 2 -1
0 0 1 0 1 1 0 21 -9 23 -11 0 0 0 0 -1 -1 0 -3 -4 -3 -7 -1 -2 1 -6 3 -10 5
-9 5 -11 6 -10 7 0 1 1 0 2 0 1 -1 2 -2 2 -2z M1495 382 c1 0 1 0 2 0 0 1 0 1
-1 1 -1 0 -1 0 -1 -1z"/>
</g>
</svg>
