<?xml version="1.0" encoding="UTF-8" standalone="no"?>
<svg
   xmlns:dc="http://purl.org/dc/elements/1.1/"
   xmlns:cc="http://creativecommons.org/ns#"
   xmlns:rdf="http://www.w3.org/1999/02/22-rdf-syntax-ns#"
   xmlns:svg="http://www.w3.org/2000/svg"
   xmlns="http://www.w3.org/2000/svg"
   xmlns:sodipodi="http://sodipodi.sourceforge.net/DTD/sodipodi-0.dtd"
   xmlns:inkscape="http://www.inkscape.org/namespaces/inkscape"
   inkscape:version="1.0 (4035a4fb49, 2020-05-01)"
   sodipodi:docname="favicon.svg"
   id="svg8"
   preserveAspectRatio="xMidYMid meet"
   viewBox="0 0 700.000000 700.000000"
   height="700.000000"
   width="700.000000"
   version="1.0">
  <defs
     id="defs12" />
  <sodipodi:namedview
     inkscape:current-layer="svg8"
     inkscape:window-maximized="1"
     inkscape:window-y="1286"
     inkscape:window-x="1493"
     inkscape:cy="1007.8471"
     inkscape:cx="-12.738362"
     inkscape:zoom="0.27"
     showgrid="false"
     id="namedview10"
     inkscape:window-height="1057"
     inkscape:window-width="1804"
     inkscape:pageshadow="2"
     inkscape:pageopacity="0"
     guidetolerance="10"
     gridtolerance="10"
     objecttolerance="10"
     borderopacity="1"
     bordercolor="#666666"
     pagecolor="#ffffff"
     inkscape:document-rotation="0" />
  <metadata
     id="metadata2">
Created by potrace 1.11, written by Peter Selinger 2001-2013
<rdf:RDF>
  <cc:Work
     rdf:about="">
    <dc:format>image/svg+xml</dc:format>
    <dc:type
       rdf:resource="http://purl.org/dc/dcmitype/StillImage" />
    <dc:title></dc:title>
  </cc:Work>
</rdf:RDF>
</metadata>
  <path
     d="m 344.97171,12.95 c -17.9,27.5 -36,57.8 -52.7,88.4 -4,7.3 -32.5,64.6 -36,72.4 -1,2.2 -3,6.6 -4.4,9.8 -1.4,3.1 -3.8,8.5 -5.2,12 -1.4,3.4 -3.4,8 -4.4,10.2 -2,4.5 -15.1,37.4 -18,45 -1,2.7 -3.1,8.1 -4.6,12 -9,23.4 -34.7,106.4 -37.9,122.5 -0.2,0.8 -0.8,3.5 -1.5,6 -0.7,2.5 -1.4,5.2 -1.6,6 -4.8,20.2 -9.5,40.1 -9.8,42 -0.3,1.4 -2.1,10.1 -4,19.5 -2,9.3 -3.9,19 -4.2,21.5 -0.3,2.5 -0.8,4.8 -1,5.1 -0.2,0.5 -6.8,38.5 -7.9,45.9 -0.3,2.4 -1.8,11 -2,12 -0.1,0.3 -0.4,3.2 -0.9,6.5 -0.4,3.3 -0.9,7.1 -1.1,8.5 -0.7,4.3 -3.5,25.3 -4,30 -0.3,2.5 -0.9,7.9 -1.5,12 -0.5,4.1 -1.2,10.2 -1.5,13.5 -0.3,3.3 -0.8,7.1 -1,8.5 -0.2,1.4 -0.6,5.6 -1,9.5 -0.3,3.8 -0.8,9.2 -1.1,12 -0.9,9.2 -1.3,13 -1.9,21 -0.3,4.4 -0.8,9.6 -1,11.5 -0.2,1.9 -0.7,7.3 -1.1,12 l -0.6,8.5 12.3,-15.4 c 13.2,-16.5 46.7,-56.8 50.3,-60.5 1.8,-1.8 7.1,-7.9 15.9,-18 20.9,-23.9 66.1,-69.5 90.2,-90.7 2.7,-2.4 7,-6.2 9.5,-8.5 14.6,-13.1 41.9,-33.8 59.5,-45.1 15.9,-10.2 24.6,-14 38.7,-16.9 5.5,-1.1 17.8,-0.4 25.1,1.5 38,9.9 74.4,56.2 111.2,141.6 0.7,1.6 1.9,4.6 2.8,6.5 0.8,1.9 3.8,9.3 6.6,16.5 10.6,27.1 12.1,30.9 11.7,28.5 -0.3,-1.4 -1.6,-8.8 -3,-16.5 -1.5,-7.7 -3.1,-16.5 -3.6,-19.5 -1.6,-8.7 -5.8,-32.2 -6.5,-36 -0.3,-1.9 -1.2,-7.1 -2,-11.5 -0.8,-4.4 -1.6,-9.1 -1.9,-10.5 -0.2,-1.4 -0.7,-3.6 -1,-5 -0.3,-1.4 -0.8,-4.1 -1,-6 -0.3,-1.9 -1.4,-8 -2.5,-13.5 -1.9,-9.7 -4.8,-24.4 -5.7,-29.5 -0.2,-1.4 -1.1,-5.9 -1.9,-10 -0.9,-4.1 -1.7,-8.6 -2,-10 -0.3,-1.4 -1.2,-5.9 -2,-10 -0.8,-4.1 -1.7,-8.4 -1.9,-9.5 -2,-9.5 -9.3,-42.5 -11.7,-52.5 -1.7,-6.9 -3.2,-13.2 -3.4,-14 -0.7,-3.5 -9.7,-38.7 -10.6,-41.5 -0.5,-1.7 -3.8,-12.9 -7.3,-25 -8.1,-27.8 -24,-75.7 -28.5,-86 -0.5,-1.1 -1.4,-3.6 -2.1,-5.5 -0.7,-1.9 -1.8,-4.9 -2.5,-6.5 -0.7,-1.7 -3,-7.2 -5,-12.4 -2,-5.2 -4.5,-11.3 -5.5,-13.5 -1,-2.3 -3.6,-8.5 -5.9,-13.8 -15.1,-35.3 -39.7,-83 -61.1,-118.3 -10.2,-16.8 -35.9,-56.5 -36.6,-56.5 -0.2,0 -3.2,4.4 -6.7,9.7 z"
     id="path4"
     style="fill:#b2789f;fill-opacity:1;stroke:none;stroke-width:10" />
</svg>
